999
dxfrw 0.6.3
  0
SECTION
  2
HEADER
  9
$ACADVER
  1
AC1021
  9
$DWGCODEPAGE
  3
ANSI_1252
  9
$INSBASE
 10
0
 20
0
 30
0
  9
$EXTMIN
 10
-12.58800145226717
 20
-12.42280458281485
 30
0
  9
$EXTMAX
 10
12.22456833947206
 20
12.91839519117182
 30
0
  9
$LIMMIN
 10
0
 20
0
  9
$LIMMAX
 10
420
 20
297
  9
$ORTHOMODE
 70
    0
  9
$REGENMODE
 70
    1
  9
$FILLMODE
 70
    1
  9
$QTEXTMODE
 70
    0
  9
$MIRRTEXT
 70
    0
  9
$LTSCALE
 40
1
  9
$ATTMODE
 70
    0
  9
$TEXTSIZE
 40
2.5
  9
$TRACEWID
 40
15.68
  9
$TEXTSTYLE
  7
STANDARD
  9
$CLAYER
  8
0
  9
$CELTYPE
  6
BYLAYER
  9
$CECOLOR
 62
  256
  9
$CELTSCALE
 40
1
  9
$DISPSILH
 70
    0
  9
$DIMSCALE
 40
1
  9
$DIMASZ
 40
0.09375
  9
$DIMEXO
 40
0.03125
  9
$DIMDLI
 40
3.75
  9
$DIMRND
 40
0
  9
$DIMDLE
 40
0
  9
$DIMEXE
 40
0.0625
  9
$DIMTP
 40
0
  9
$DIMTM
 40
0
  9
$DIMTXT
 40
0.09375
  9
$DIMCEN
 40
2.5
  9
$DIMTSZ
 40
0
  9
$DIMTOL
 70
    0
  9
$DIMLIM
 70
    0
  9
$DIMTIH
 70
    0
  9
$DIMTOH
 70
    0
  9
$DIMSE1
 70
    0
  9
$DIMSE2
 70
    0
  9
$DIMTAD
 70
    1
  9
$DIMZIN
 70
    8
  9
$DIMBLK
  1

  9
$DIMASO
 70
    1
  9
$DIMSHO
 70
    1
  9
$DIMPOST
  1

  9
$DIMAPOST
  1

  9
$DIMALT
 70
    0
  9
$DIMALTD
 70
    3
  9
$DIMALTF
 40
0.03937
  9
$DIMLFAC
 40
1
  9
$DIMTOFL
 70
    1
  9
$DIMTVP
 40
0
  9
$DIMTIX
 70
    0
  9
$DIMSOXD
 70
    0
  9
$DIMSAH
 70
    0
  9
$DIMBLK1
  1

  9
$DIMBLK2
  1

  9
$DIMSTYLE
  2
STANDARD
  9
$DIMCLRD
 70
    0
  9
$DIMCLRE
 70
    0
  9
$DIMCLRT
 70
    0
  9
$DIMTFAC
 40
1
  9
$DIMGAP
 40
0.03125
  9
$DIMJUST
 70
    0
  9
$DIMSD1
 70
    0
  9
$DIMSD2
 70
    0
  9
$DIMTOLJ
 70
    0
  9
$DIMTZIN
 70
    8
  9
$DIMALTZ
 70
    0
  9
$DIMALTTZ
 70
    0
  9
$DIMUPT
 70
    0
  9
$DIMDEC
 70
    5
  9
$DIMTDEC
 70
    2
  9
$DIMALTU
 70
    2
  9
$DIMALTTD
 70
    3
  9
$DIMTXSTY
  7
romanc
  9
$DIMAUNIT
 70
    0
  9
$DIMADEC
 70
    1
  9
$DIMALTRND
 40
0
  9
$DIMAZIN
 70
    0
  9
$DIMDSEP
 70
   44
  9
$DIMATFIT
 70
    3
  9
$DIMFRAC
 70
    0
  9
$DIMLDRBLK
  1
STANDARD
  9
$DIMLUNIT
 70
    5
  9
$DIMLWD
 70
   -2
  9
$DIMLWE
 70
   -2
  9
$DIMTMOVE
 70
    0
  9
$DIMFXL
 40
1
  9
$DIMFXLON
 70
    0
  9
$DIMJOGANG
 40
0.7854
  9
$DIMTFILL
 70
    0
  9
$DIMTFILLCLR
 70
    0
  9
$DIMARCSYM
 70
    0
  9
$DIMLTYPE
  6

  9
$DIMLTEX1
  6

  9
$DIMLTEX2
  6

  9
$LUNITS
 70
    5
  9
$LUPREC
 70
    5
  9
$SKETCHINC
 40
1
  9
$FILLETRAD
 40
0
  9
$AUNITS
 70
    0
  9
$AUPREC
 70
    1
  9
$MENU
  1
.
  9
$ELEVATION
 40
0
  9
$PELEVATION
 40
0
  9
$THICKNESS
 40
0
  9
$LIMCHECK
 70
    0
  9
$CHAMFERA
 40
0
  9
$CHAMFERB
 40
0
  9
$CHAMFERC
 40
0
  9
$CHAMFERD
 40
0
  9
$SKPOLY
 70
    0
  9
$USRTIMER
 70
    1
  9
$ANGBASE
 50
0
  9
$ANGDIR
 70
    0
  9
$PDMODE
 70
   34
  9
$PDSIZE
 40
0
  9
$PLINEWID
 40
0
  9
$SPLFRAME
 70
    0
  9
$SPLINETYPE
 70
    2
  9
$SPLINESEGS
 70
    8
  9
$HANDSEED
  5
20000
  9
$SURFTAB1
 70
    6
  9
$SURFTAB2
 70
    6
  9
$SURFTYPE
 70
    6
  9
$SURFU
 70
    6
  9
$SURFV
 70
    6
  9
$UCSBASE
  2

  9
$UCSNAME
  2

  9
$UCSORG
 10
0
 20
0
 30
0
  9
$UCSXDIR
 10
1
 20
0
 30
0
  9
$UCSYDIR
 10
0
 20
1
 30
0
  9
$UCSORTHOREF
  2

  9
$UCSORTHOVIEW
 70
    0
  9
$UCSORGTOP
 10
0
 20
0
 30
0
  9
$UCSORGBOTTOM
 10
0
 20
0
 30
0
  9
$UCSORGLEFT
 10
0
 20
0
 30
0
  9
$UCSORGRIGHT
 10
0
 20
0
 30
0
  9
$UCSORGFRONT
 10
0
 20
0
 30
0
  9
$UCSORGBACK
 10
0
 20
0
 30
0
  9
$PUCSBASE
  2

  9
$PUCSNAME
  2

  9
$PUCSORG
 10
0
 20
0
 30
0
  9
$PUCSXDIR
 10
1
 20
0
 30
0
  9
$PUCSYDIR
 10
0
 20
1
 30
0
  9
$PUCSORTHOREF
  2

  9
$PUCSORTHOVIEW
 70
    0
  9
$PUCSORGTOP
 10
0
 20
0
 30
0
  9
$PUCSORGBOTTOM
 10
0
 20
0
 30
0
  9
$PUCSORGLEFT
 10
0
 20
0
 30
0
  9
$PUCSORGRIGHT
 10
0
 20
0
 30
0
  9
$PUCSORGFRONT
 10
0
 20
0
 30
0
  9
$PUCSORGBACK
 10
0
 20
0
 30
0
  9
$USERI1
 70
    0
  9
$USERI2
 70
    0
  9
$USERI3
 70
    0
  9
$USERI4
 70
    0
  9
$USERI5
 70
    0
  9
$USERR1
 40
0
  9
$USERR2
 40
0
  9
$USERR3
 40
0
  9
$USERR4
 40
0
  9
$USERR5
 40
0
  9
$WORLDVIEW
 70
    1
  9
$SHADEDGE
 70
    3
  9
$SHADEDIF
 70
   70
  9
$TILEMODE
 70
    1
  9
$MAXACTVP
 70
   64
  9
$PINSBASE
 10
0
 20
0
 30
0
  9
$PLIMCHECK
 70
    0
  9
$PEXTMIN
 10
0
 20
0
 30
0
  9
$PEXTMAX
 10
0
 20
0
 30
0
  9
$GRIDMODE
 70
    0
  9
$SNAPSTYLE
 70
    0
  9
$GRIDUNIT
 10
0
 20
0
  9
$PLIMMIN
 10
0
 20
0
  9
$PLIMMAX
 10
11
 20
8.5
  9
$UNITMODE
 70
    0
  9
$VISRETAIN
 70
    1
  9
$PLINEGEN
 70
    0
  9
$PSLTSCALE
 70
    1
  9
$TREEDEPTH
 70
 3020
  9
$CMLSTYLE
  2
Standard
  9
$CMLJUST
 70
    0
  9
$CMLSCALE
 40
20
  9
$PROXYGRAPHICS
 70
    1
  9
$MEASUREMENT
 70
    1
  9
$CELWEIGHT
370
   -1
  9
$ENDCAPS
280
    0
  9
$JOINSTYLE
280
    0
  9
$LWDISPLAY
290
    0
  9
$INSUNITS
 70
    1
  9
$HYPERLINKBASE
  1

  9
$STYLESHEET
  1

  9
$XEDIT
290
    1
  9
$CEPSNTYPE
380
    0
  9
$PSTYLEMODE
290
    1
  9
$EXTNAMES
290
    1
  9
$PSVPSCALE
 40
1
  9
$OLESTARTUP
290
    0
  9
$SORTENTS
280
  127
  9
$INDEXCTL
280
    0
  9
$HIDETEXT
280
    1
  9
$XCLIPFRAME
290
    0
  9
$HALOGAP
280
    0
  9
$OBSCOLOR
 70
  257
  9
$OBSLTYPE
280
    0
  9
$INTERSECTIONDISPLAY
280
    0
  9
$INTERSECTIONCOLOR
 70
  257
  9
$DIMASSOC
280
    1
  9
$PROJECTNAME
  1

  9
$CAMERADISPLAY
290
    0
  9
$LENSLENGTH
 40
50
  9
$CAMERAHEIGHT
 40
0
  9
$STEPSPERSEC
 40
2
  9
$STEPSIZE
 40
50
  9
$3DDWFPREC
 40
2
  9
$PSOLWIDTH
 40
5
  9
$PSOLHEIGHT
 40
80
  9
$LOFTANG1
 40
1.570796326794897
  9
$LOFTANG2
 40
1.570796326794897
  9
$LOFTMAG1
 40
0
  9
$LOFTMAG2
 40
0
  9
$LOFTPARAM
 70
    7
  9
$LOFTNORMALS
280
    1
  9
$LATITUDE
 40
1
  9
$LONGITUDE
 40
1
  9
$NORTHDIRECTION
 40
0
  9
$TIMEZONE
 70
-8000
  9
$LIGHTGLYPHDISPLAY
280
    1
  9
$TILEMODELIGHTSYNCH
280
    1
  9
$SOLIDHIST
280
    1
  9
$SHOWHIST
280
    1
  9
$DWFFRAME
280
    2
  9
$DGNFRAME
280
    0
  9
$REALWORLDSCALE
290
    1
  9
$INTERFERECOLOR
 62
    1
  9
$CSHADOW
280
    0
  9
$SHADOWPLANELOCATION
 40
0
  0
ENDSEC
  0
SECTION
  2
CLASSES
  0
ENDSEC
  0
SECTION
  2
TABLES
  0
TABLE
  2
VPORT
  5
8
330
0
100
AcDbSymbolTable
 70
    1
  0
VPORT
  5
31
330
2
100
AcDbSymbolTableRecord
100
AcDbViewportTableRecord
  2
*ACTIVE
 70
    0
 10
0
 20
0
 11
1
 21
1
 12
11.72030489546883
 22
6.303623443779181
 13
0
 23
0
 14
10
 24
10
 15
10
 25
10
 16
0
 26
0
 36
1
 17
0
 27
0
 37
0
 40
25.97472976833633
 41
1.814634146341463
 42
50
 43
0
 44
0
 50
0
 51
0
 71
    0
 72
  100
 73
    1
 74
    3
 75
    0
 76
    0
 77
    0
 78
    0
281
    0
 65
    1
110
0
120
0
130
0
111
1
121
0
131
0
112
0
122
1
132
0
 79
    0
146
0
348
10020
 60
    7
 61
    5
292
1
282
    1
141
0
142
0
 63
  250
421
3358443
  0
ENDTAB
  0
TABLE
  2
LTYPE
  5
5
330
0
100
AcDbSymbolTable
 70
    4
  0
LTYPE
  5
14
330
5
100
AcDbSymbolTableRecord
100
AcDbLinetypeTableRecord
  2
ByBlock
 70
    0
  3

 72
   65
 73
    0
 40
0
  0
LTYPE
  5
15
330
5
100
AcDbSymbolTableRecord
100
AcDbLinetypeTableRecord
  2
ByLayer
 70
    0
  3

 72
   65
 73
    0
 40
0
  0
LTYPE
  5
16
330
5
100
AcDbSymbolTableRecord
100
AcDbLinetypeTableRecord
  2
Continuous
 70
    0
  3
Solid line
 72
   65
 73
    0
 40
0
  0
LTYPE
  5
32
330
5
100
AcDbSymbolTableRecord
100
AcDbLinetypeTableRecord
  2
DOT
 70
    0
  3
Dot . . . . . . . . . . . . . . . . . . . . . .
 72
   65
 73
    2
 40
6.35
 49
0
 74
    0
 49
-6.35
 74
    0
  0
LTYPE
  5
33
330
5
100
AcDbSymbolTableRecord
100
AcDbLinetypeTableRecord
  2
DOTTINY
 70
    0
  3
Dot (.15x) .....................................
 72
   65
 73
    2
 40
0.9525
 49
0
 74
    0
 49
-0.9525
 74
    0
  0
LTYPE
  5
34
330
5
100
AcDbSymbolTableRecord
100
AcDbLinetypeTableRecord
  2
DOT2
 70
    0
  3
Dot (.5x) .....................................
 72
   65
 73
    2
 40
3.175
 49
0
 74
    0
 49
-3.175
 74
    0
  0
LTYPE
  5
35
330
5
100
AcDbSymbolTableRecord
100
AcDbLinetypeTableRecord
  2
DOTX2
 70
    0
  3
Dot (2x) .  .  .  .  .  .  .  .  .  .  .  .  .
 72
   65
 73
    2
 40
12.7
 49
0
 74
    0
 49
-12.7
 74
    0
  0
LTYPE
  5
36
330
5
100
AcDbSymbolTableRecord
100
AcDbLinetypeTableRecord
  2
DASHED
 70
    0
  3
Dashed _ _ _ _ _ _ _ _ _ _ _ _ _ _ _ _ _
 72
   65
 73
    2
 40
19.05
 49
12.7
 74
    0
 49
-6.35
 74
    0
  0
LTYPE
  5
37
330
5
100
AcDbSymbolTableRecord
100
AcDbLinetypeTableRecord
  2
DASHEDTINY
 70
    0
  3
Dashed (.15x) _ _ _ _ _ _ _ _ _ _ _ _ _ _ _ _ _
 72
   65
 73
    2
 40
2.8575
 49
1.905
 74
    0
 49
-0.9525
 74
    0
  0
LTYPE
  5
38
330
5
100
AcDbSymbolTableRecord
100
AcDbLinetypeTableRecord
  2
DASHED2
 70
    0
  3
Dashed (.5x) _ _ _ _ _ _ _ _ _ _ _ _ _ _ _ _ _
 72
   65
 73
    2
 40
9.524999999999999
 49
6.35
 74
    0
 49
-3.175
 74
    0
  0
LTYPE
  5
39
330
5
100
AcDbSymbolTableRecord
100
AcDbLinetypeTableRecord
  2
DASHEDX2
 70
    0
  3
Dashed (2x) ____  ____  ____  ____  ____  ___
 72
   65
 73
    2
 40
38.09999999999999
 49
25.4
 74
    0
 49
-12.7
 74
    0
  0
LTYPE
  5
3A
330
5
100
AcDbSymbolTableRecord
100
AcDbLinetypeTableRecord
  2
DASHDOT
 70
    0
  3
Dash dot __ . __ . __ . __ . __ . __ . __ . __
 72
   65
 73
    4
 40
25.4
 49
12.7
 74
    0
 49
-6.35
 74
    0
 49
0
 74
    0
 49
-6.35
 74
    0
  0
LTYPE
  5
3B
330
5
100
AcDbSymbolTableRecord
100
AcDbLinetypeTableRecord
  2
DASHDOTTINY
 70
    0
  3
Dash dot (.15x) _._._._._._._._._._._._._._._.
 72
   65
 73
    4
 40
3.81
 49
1.905
 74
    0
 49
-0.9525
 74
    0
 49
0
 74
    0
 49
-0.9525
 74
    0
  0
LTYPE
  5
3C
330
5
100
AcDbSymbolTableRecord
100
AcDbLinetypeTableRecord
  2
DASHDOT2
 70
    0
  3
Dash dot (.5x) _._._._._._._._._._._._._._._.
 72
   65
 73
    4
 40
12.7
 49
6.35
 74
    0
 49
-3.175
 74
    0
 49
0
 74
    0
 49
-3.175
 74
    0
  0
LTYPE
  5
3D
330
5
100
AcDbSymbolTableRecord
100
AcDbLinetypeTableRecord
  2
DASHDOTX2
 70
    0
  3
Dash dot (2x) ____  .  ____  .  ____  .  ___
 72
   65
 73
    4
 40
50.8
 49
25.4
 74
    0
 49
-12.7
 74
    0
 49
0
 74
    0
 49
-12.7
 74
    0
  0
LTYPE
  5
3E
330
5
100
AcDbSymbolTableRecord
100
AcDbLinetypeTableRecord
  2
DIVIDE
 70
    0
  3
Divide ____ . . ____ . . ____ . . ____ . . ____
 72
   65
 73
    6
 40
31.75
 49
12.7
 74
    0
 49
-6.35
 74
    0
 49
0
 74
    0
 49
-6.35
 74
    0
 49
0
 74
    0
 49
-6.35
 74
    0
  0
LTYPE
  5
3F
330
5
100
AcDbSymbolTableRecord
100
AcDbLinetypeTableRecord
  2
DIVIDETINY
 70
    0
  3
Divide (.15x) __..__..__..__..__..__..__..__.._
 72
   65
 73
    6
 40
4.7625
 49
1.905
 74
    0
 49
-0.9525
 74
    0
 49
0
 74
    0
 49
-0.9525
 74
    0
 49
0
 74
    0
 49
-0.9525
 74
    0
  0
LTYPE
  5
40
330
5
100
AcDbSymbolTableRecord
100
AcDbLinetypeTableRecord
  2
DIVIDE2
 70
    0
  3
Divide (.5x) __..__..__..__..__..__..__..__.._
 72
   65
 73
    6
 40
15.875
 49
6.35
 74
    0
 49
-3.175
 74
    0
 49
0
 74
    0
 49
-3.175
 74
    0
 49
0
 74
    0
 49
-3.175
 74
    0
  0
LTYPE
  5
41
330
5
100
AcDbSymbolTableRecord
100
AcDbLinetypeTableRecord
  2
DIVIDEX2
 70
    0
  3
Divide (2x) ________  .  .  ________  .  .  _
 72
   65
 73
    6
 40
63.5
 49
25.4
 74
    0
 49
-12.7
 74
    0
 49
0
 74
    0
 49
-12.7
 74
    0
 49
0
 74
    0
 49
-12.7
 74
    0
  0
LTYPE
  5
42
330
5
100
AcDbSymbolTableRecord
100
AcDbLinetypeTableRecord
  2
BORDER
 70
    0
  3
Border __ __ . __ __ . __ __ . __ __ . __ __ .
 72
   65
 73
    6
 40
44.45
 49
12.7
 74
    0
 49
-6.35
 74
    0
 49
12.7
 74
    0
 49
-6.35
 74
    0
 49
0
 74
    0
 49
-6.35
 74
    0
  0
LTYPE
  5
43
330
5
100
AcDbSymbolTableRecord
100
AcDbLinetypeTableRecord
  2
BORDERTINY
 70
    0
  3
Border (.15x) __.__.__.__.__.__.__.__.__.__.__.
 72
   65
 73
    6
 40
6.6675
 49
1.905
 74
    0
 49
-0.9525
 74
    0
 49
1.905
 74
    0
 49
-0.9525
 74
    0
 49
0
 74
    0
 49
-0.9525
 74
    0
  0
LTYPE
  5
44
330
5
100
AcDbSymbolTableRecord
100
AcDbLinetypeTableRecord
  2
BORDER2
 70
    0
  3
Border (.5x) __.__.__.__.__.__.__.__.__.__.__.
 72
   65
 73
    6
 40
22.225
 49
6.35
 74
    0
 49
-3.175
 74
    0
 49
6.35
 74
    0
 49
-3.175
 74
    0
 49
0
 74
    0
 49
-3.175
 74
    0
  0
LTYPE
  5
45
330
5
100
AcDbSymbolTableRecord
100
AcDbLinetypeTableRecord
  2
BORDERX2
 70
    0
  3
Border (2x) ____  ____  .  ____  ____  .  ___
 72
   65
 73
    6
 40
88.89999999999999
 49
25.4
 74
    0
 49
-12.7
 74
    0
 49
25.4
 74
    0
 49
-12.7
 74
    0
 49
0
 74
    0
 49
-12.7
 74
    0
  0
LTYPE
  5
46
330
5
100
AcDbSymbolTableRecord
100
AcDbLinetypeTableRecord
  2
CENTER
 70
    0
  3
Center ____ _ ____ _ ____ _ ____ _ ____ _ ____
 72
   65
 73
    4
 40
50.8
 49
31.75
 74
    0
 49
-6.35
 74
    0
 49
6.35
 74
    0
 49
-6.35
 74
    0
  0
LTYPE
  5
47
330
5
100
AcDbSymbolTableRecord
100
AcDbLinetypeTableRecord
  2
CENTERTINY
 70
    0
  3
Center (.15x) ___ _ ___ _ ___ _ ___ _ ___ _ ___
 72
   65
 73
    4
 40
7.619999999999999
 49
4.7625
 74
    0
 49
-0.9525
 74
    0
 49
0.9525
 74
    0
 49
-0.9525
 74
    0
  0
LTYPE
  5
48
330
5
100
AcDbSymbolTableRecord
100
AcDbLinetypeTableRecord
  2
CENTER2
 70
    0
  3
Center (.5x) ___ _ ___ _ ___ _ ___ _ ___ _ ___
 72
   65
 73
    4
 40
28.575
 49
19.05
 74
    0
 49
-3.175
 74
    0
 49
3.175
 74
    0
 49
-3.175
 74
    0
  0
LTYPE
  5
49
330
5
100
AcDbSymbolTableRecord
100
AcDbLinetypeTableRecord
  2
CENTERX2
 70
    0
  3
Center (2x) ________  __  ________  __  _____
 72
   65
 73
    4
 40
101.6
 49
63.5
 74
    0
 49
-12.7
 74
    0
 49
12.7
 74
    0
 49
-12.7
 74
    0
  0
ENDTAB
  0
TABLE
  2
LAYER
  5
2
330
0
100
AcDbSymbolTable
 70
    1
  0
LAYER
  5
10
330
2
100
AcDbSymbolTableRecord
100
AcDbLayerTableRecord
  2
0
 70
    0
 62
    7
  6
CONTINUOUS
370
   18
390
F
  0
ENDTAB
  0
TABLE
  2
STYLE
  5
3
330
0
100
AcDbSymbolTable
 70
    3
  0
STYLE
  5
4A
330
2
100
AcDbSymbolTableRecord
100
AcDbTextStyleTableRecord
  2
Standard
 70
    0
 40
0
 41
1
 50
0
 71
    0
 42
1
  3
txt
  4

  0
ENDTAB
  0
TABLE
  2
VIEW
  5
6
330
0
100
AcDbSymbolTable
 70
    0
  0
ENDTAB
  0
TABLE
  2
UCS
  5
7
330
0
100
AcDbSymbolTable
 70
    0
  0
ENDTAB
  0
TABLE
  2
APPID
  5
9
330
0
100
AcDbSymbolTable
 70
    1
  0
APPID
  5
12
330
9
100
AcDbSymbolTableRecord
100
AcDbRegAppTableRecord
  2
ACAD
 70
    0
  0
APPID
  5
4B
330
9
100
AcDbSymbolTableRecord
100
AcDbRegAppTableRecord
  2
LibreCad
 70
    0
  0
ENDTAB
  0
TABLE
  2
DIMSTYLE
  5
A
330
0
100
AcDbSymbolTable
 70
    1
100
AcDbDimStyleTable
 71
    1
  0
DIMSTYLE
105
4C
330
A
100
AcDbSymbolTableRecord
100
AcDbDimStyleTableRecord
  2
Standard
 70
    0
 40
1
 41
0.09375
 42
0.03125
 43
0.38
 44
0.0625
 45
0
 46
0
 47
0
 48
0
 49
1
140
0.09375
141
0.09
142
0
143
25.4
144
1
145
0
146
1
147
0.03125
148
0
 71
    0
 72
    0
 73
    0
 74
    1
 75
    0
 76
    0
 77
    0
 78
    8
 79
    0
170
    0
171
    2
172
    0
173
    0
174
    0
175
    0
176
    0
177
    0
178
    0
179
    1
271
    5
272
    4
273
    2
274
    2
275
    0
276
    0
277
    5
278
   44
279
    0
280
    0
281
    0
282
    0
283
    1
284
    0
285
    0
286
    0
288
    0
289
    3
340
romanc
341

371
   -2
372
   -2
  0
ENDTAB
  0
TABLE
  2
BLOCK_RECORD
  5
1
330
0
100
AcDbSymbolTable
 70
    2
  0
BLOCK_RECORD
  5
1F
330
1
100
AcDbSymbolTableRecord
100
AcDbBlockTableRecord
  2
*Model_Space
 70
    0
280
    1
281
    0
  0
BLOCK_RECORD
  5
1E
330
1
100
AcDbSymbolTableRecord
100
AcDbBlockTableRecord
  2
*Paper_Space
 70
    0
280
    1
281
    0
  0
ENDTAB
  0
ENDSEC
  0
SECTION
  2
BLOCKS
  0
BLOCK
  5
20
330
1F
100
AcDbEntity
  8
0
100
AcDbBlockBegin
  2
*Model_Space
 70
    0
 10
0
 20
0
 30
0
  3
*Model_Space
  1

  0
ENDBLK
  5
21
330
1F
100
AcDbEntity
  8
0
100
AcDbBlockEnd
  0
BLOCK
  5
1C
330
1B
100
AcDbEntity
  8
0
100
AcDbBlockBegin
  2
*Paper_Space
 70
    0
 10
0
 20
0
 30
0
  3
*Paper_Space
  1

  0
ENDBLK
  5
1D
330
1F
100
AcDbEntity
  8
0
100
AcDbBlockEnd
  0
ENDSEC
  0
SECTION
  2
ENTITIES
  0
LWPOLYLINE
  5
4D
100
AcDbEntity
  8
0
  6
ByLayer
 62
  256
370
   -1
100
AcDbPolyline
 90
    3
 70
    0
 43
0
 10
-6.828844852461965
 20
9.966422217106651
 10
-6.921126539657396
 20
9.966422217106651
 10
-7.013408226852828
 20
9.966422217106651
  0
LWPOLYLINE
  5
4E
100
AcDbEntity
  8
0
  6
ByLayer
 62
  256
370
   -1
100
AcDbPolyline
 90
 3922
 70
    0
 43
0
 10
-1.387653703399531
 20
12.91839519117182
 10
-1.354614329509066
 20
12.88535581728136
 10
-1.321574955618601
 20
12.88535581728136
 10
-1.288535581728136
 20
12.85231644339089
 10
-1.255496207837671
 20
12.85231644339089
 10
-1.255496207837671
 20
12.81927706950043
 10
-1.222456833947206
 20
12.81927706950043
 10
-1.189417460056741
 20
12.78623769560996
 10
-1.156378086166276
 20
12.7531983217195
 10
-1.123338712275811
 20
12.7531983217195
 10
-1.090299338385346
 20
12.72015894782903
 10
-1.057259964494881
 20
12.72015894782903
 10
-1.024220590604416
 20
12.72015894782903
 10
-1.024220590604416
 20
12.68711957393857
 10
-0.9911812167139507
 20
12.68711957393857
 10
-0.9581418428234856
 20
12.6540802000481
 10
-0.9251024689330205
 20
12.6540802000481
 10
-0.8920630950425555
 20
12.6540802000481
 10
-0.8920630950425555
 20
12.62104082615764
 10
-0.8590237211520906
 20
12.62104082615764
 10
-0.8259843472616256
 20
12.62104082615764
 10
-0.7929449733711605
 20
12.58800145226717
 10
-0.7599055994806955
 20
12.58800145226717
 10
-0.7268662255902305
 20
12.58800145226717
 10
-0.6938268516997654
 20
12.58800145226717
 10
-0.6607874778093004
 20
12.58800145226717
 10
-0.6277481039188354
 20
12.58800145226717
 10
-0.5947087300283704
 20
12.58800145226717
 10
-0.5616693561379054
 20
12.58800145226717
 10
-0.5286299822474404
 20
12.58800145226717
 10
-0.4955906083569753
 20
12.58800145226717
 10
-0.4625512344665103
 20
12.58800145226717
 10
-0.4295118605760453
 20
12.58800145226717
 10
-0.3964724866855803
 20
12.58800145226717
 10
-0.3634331127951153
 20
12.58800145226717
 10
-0.3303937389046502
 20
12.58800145226717
 10
-0.2973543650141852
 20
12.58800145226717
 10
-0.2643149911237202
 20
12.58800145226717
 10
-0.2312756172332551
 20
12.58800145226717
 10
-0.1982362433427901
 20
12.58800145226717
 10
-0.1651968694523251
 20
12.58800145226717
 10
-0.1321574955618601
 20
12.58800145226717
 10
-0.09911812167139507
 20
12.58800145226717
 10
-0.09911812167139507
 20
12.62104082615764
 10
-0.06607874778093005
 20
12.62104082615764
 10
-0.03303937389046502
 20
12.62104082615764
 10
-0.03303937389046502
 20
12.6540802000481
 10
0
 20
12.6540802000481
 10
0.03303937389046502
 20
12.6540802000481
 10
0.03303937389046502
 20
12.68711957393857
 10
0.06607874778093005
 20
12.68711957393857
 10
0.09911812167139507
 20
12.72015894782903
 10
0.06607874778093005
 20
12.7531983217195
 10
0.09911812167139507
 20
12.7531983217195
 10
0.1321574955618601
 20
12.7531983217195
 10
0.1651968694523251
 20
12.72015894782903
 10
0.1982362433427901
 20
12.72015894782903
 10
0.2312756172332551
 20
12.72015894782903
 10
0.2643149911237202
 20
12.72015894782903
 10
0.2973543650141852
 20
12.68711957393857
 10
0.3303937389046502
 20
12.68711957393857
 10
0.3634331127951153
 20
12.68711957393857
 10
0.3964724866855803
 20
12.6540802000481
 10
0.4295118605760453
 20
12.6540802000481
 10
0.4625512344665103
 20
12.6540802000481
 10
0.4955906083569753
 20
12.6540802000481
 10
0.5286299822474404
 20
12.6540802000481
 10
0.5616693561379054
 20
12.6540802000481
 10
0.5947087300283704
 20
12.6540802000481
 10
0.6277481039188354
 20
12.6540802000481
 10
0.6607874778093004
 20
12.68711957393857
 10
0.6938268516997654
 20
12.68711957393857
 10
0.7268662255902305
 20
12.68711957393857
 10
0.7599055994806955
 20
12.68711957393857
 10
0.7929449733711605
 20
12.6540802000481
 10
0.8259843472616256
 20
12.6540802000481
 10
0.8590237211520906
 20
12.6540802000481
 10
0.8920630950425555
 20
12.6540802000481
 10
0.9251024689330205
 20
12.6540802000481
 10
0.9581418428234856
 20
12.6540802000481
 10
0.9911812167139507
 20
12.6540802000481
 10
1.024220590604416
 20
12.6540802000481
 10
1.090299338385346
 20
12.6540802000481
 10
1.123338712275811
 20
12.6540802000481
 10
1.156378086166276
 20
12.6540802000481
 10
1.189417460056741
 20
12.6540802000481
 10
1.222456833947206
 20
12.6540802000481
 10
1.255496207837671
 20
12.6540802000481
 10
1.288535581728136
 20
12.62104082615764
 10
1.321574955618601
 20
12.62104082615764
 10
1.354614329509066
 20
12.62104082615764
 10
1.387653703399531
 20
12.62104082615764
 10
1.420693077289996
 20
12.58800145226717
 10
1.486771825070926
 20
12.58800145226717
 10
1.519811198961391
 20
12.58800145226717
 10
1.552850572851856
 20
12.58800145226717
 10
1.585889946742321
 20
12.55496207837671
 10
1.618929320632786
 20
12.55496207837671
 10
1.651968694523251
 20
12.55496207837671
 10
1.685008068413716
 20
12.55496207837671
 10
1.685008068413716
 20
12.52192270448624
 10
1.718047442304181
 20
12.52192270448624
 10
1.751086816194646
 20
12.52192270448624
 10
1.784126190085111
 20
12.52192270448624
 10
1.817165563975576
 20
12.48888333059578
 10
1.850204937866041
 20
12.48888333059578
 10
1.883244311756506
 20
12.45584395670531
 10
1.916283685646971
 20
12.45584395670531
 10
1.949323059537436
 20
12.45584395670531
 10
1.982362433427901
 20
12.42280458281485
 10
2.015401807318366
 20
12.42280458281485
 10
2.048441181208831
 20
12.42280458281485
 10
2.081480555099296
 20
12.38976520892438
 10
2.114519928989762
 20
12.38976520892438
 10
2.147559302880226
 20
12.38976520892438
 10
2.180598676770691
 20
12.35672583503392
 10
2.180598676770691
 20
12.32368646114345
 10
2.213638050661157
 20
12.32368646114345
 10
2.213638050661157
 20
12.29064708725299
 10
2.246677424551621
 20
12.29064708725299
 10
2.279716798442087
 20
12.25760771336252
 10
2.312756172332552
 20
12.25760771336252
 10
2.345795546223016
 20
12.25760771336252
 10
2.345795546223016
 20
12.19152896558159
 10
2.345795546223016
 20
12.15848959169113
 10
2.378834920113482
 20
12.15848959169113
 10
2.411874294003947
 20
12.12545021780066
 10
2.444913667894412
 20
12.0924108439102
 10
2.444913667894412
 20
12.05937147001973
 10
2.477953041784876
 20
12.05937147001973
 10
2.510992415675342
 20
12.05937147001973
 10
2.544031789565806
 20
12.02633209612927
 10
2.577071163456272
 20
12.02633209612927
 10
2.577071163456272
 20
11.9932927222388
 10
2.610110537346737
 20
11.9932927222388
 10
2.610110537346737
 20
11.96025334834834
 10
2.643149911237201
 20
11.96025334834834
 10
2.643149911237201
 20
11.92721397445787
 10
2.643149911237201
 20
11.89417460056741
 10
2.676189285127667
 20
11.89417460056741
 10
2.709228659018132
 20
11.86113522667694
 10
2.742268032908597
 20
11.86113522667694
 10
2.742268032908597
 20
11.82809585278648
 10
2.742268032908597
 20
11.79505647889601
 10
2.775307406799062
 20
11.79505647889601
 10
2.775307406799062
 20
11.76201710500555
 10
2.808346780689527
 20
11.76201710500555
 10
2.841386154579992
 20
11.76201710500555
 10
2.874425528470457
 20
11.76201710500555
 10
2.907464902360922
 20
11.76201710500555
 10
2.940504276251387
 20
11.76201710500555
 10
2.973543650141852
 20
11.76201710500555
 10
3.006583024032317
 20
11.76201710500555
 10
3.039622397922782
 20
11.76201710500555
 10
3.072661771813247
 20
11.76201710500555
 10
3.138740519594177
 20
11.76201710500555
 10
3.204819267375107
 20
11.76201710500555
 10
3.270898015156037
 20
11.79505647889601
 10
3.336976762936967
 20
11.79505647889601
 10
3.403055510717897
 20
11.79505647889601
 10
3.436094884608362
 20
11.79505647889601
 10
3.469134258498827
 20
11.79505647889601
 10
3.502173632389292
 20
11.79505647889601
 10
3.535213006279757
 20
11.79505647889601
 10
3.568252380170222
 20
11.82809585278648
 10
3.601291754060687
 20
11.82809585278648
 10
3.634331127951152
 20
11.82809585278648
 10
3.667370501841618
 20
11.86113522667694
 10
3.700409875732082
 20
11.86113522667694
 10
3.733449249622547
 20
11.86113522667694
 10
3.766488623513012
 20
11.86113522667694
 10
3.799527997403477
 20
11.89417460056741
 10
3.832567371293942
 20
11.89417460056741
 10
3.898646119074872
 20
11.89417460056741
 10
3.931685492965338
 20
11.89417460056741
 10
3.964724866855803
 20
11.89417460056741
 10
3.997764240746268
 20
11.89417460056741
 10
3.997764240746268
 20
11.92721397445787
 10
4.030803614636732
 20
11.92721397445787
 10
4.063842988527198
 20
11.92721397445787
 10
4.096882362417663
 20
11.92721397445787
 10
4.129921736308128
 20
11.92721397445787
 10
4.162961110198593
 20
11.92721397445787
 10
4.196000484089058
 20
11.92721397445787
 10
4.229039857979523
 20
11.92721397445787
 10
4.262079231869987
 20
11.92721397445787
 10
4.328157979650918
 20
11.92721397445787
 10
4.394236727431847
 20
11.92721397445787
 10
4.460315475212778
 20
11.89417460056741
 10
4.493354849103243
 20
11.89417460056741
 10
4.526394222993708
 20
11.89417460056741
 10
4.559433596884173
 20
11.89417460056741
 10
4.592472970774637
 20
11.89417460056741
 10
4.625512344665103
 20
11.89417460056741
 10
4.658551718555568
 20
11.86113522667694
 10
4.658551718555568
 20
11.82809585278648
 10
4.691591092446033
 20
11.82809585278648
 10
4.691591092446033
 20
11.79505647889601
 10
4.691591092446033
 20
11.76201710500555
 10
4.691591092446033
 20
11.69593835722462
 10
4.691591092446033
 20
11.66289898333415
 10
4.691591092446033
 20
11.62985960944369
 10
4.691591092446033
 20
11.56378086166276
 10
4.724630466336498
 20
11.56378086166276
 10
4.724630466336498
 20
11.53074148777229
 10
4.724630466336498
 20
11.49770211388183
 10
4.757669840226963
 20
11.46466273999136
 10
4.757669840226963
 20
11.4316233661009
 10
4.757669840226963
 20
11.39858399221043
 10
4.757669840226963
 20
11.36554461831997
 10
4.757669840226963
 20
11.3325052444295
 10
4.757669840226963
 20
11.29946587053904
 10
4.757669840226963
 20
11.26642649664857
 10
4.724630466336498
 20
11.20034774886764
 10
4.724630466336498
 20
11.16730837497718
 10
4.724630466336498
 20
11.10122962719625
 10
4.724630466336498
 20
11.06819025330578
 10
4.691591092446033
 20
11.03515087941532
 10
4.658551718555568
 20
10.96907213163439
 10
4.658551718555568
 20
10.93603275774392
 10
4.625512344665103
 20
10.90299338385346
 10
4.625512344665103
 20
10.86995400996299
 10
4.592472970774637
 20
10.83691463607253
 10
4.592472970774637
 20
10.80387526218206
 10
4.559433596884173
 20
10.7708358882916
 10
4.559433596884173
 20
10.73779651440113
 10
4.526394222993708
 20
10.73779651440113
 10
4.526394222993708
 20
10.70475714051067
 10
4.526394222993708
 20
10.6717177666202
 10
4.526394222993708
 20
10.63867839272974
 10
4.493354849103243
 20
10.60563901883927
 10
4.493354849103243
 20
10.57259964494881
 10
4.493354849103243
 20
10.53956027105834
 10
4.493354849103243
 20
10.50652089716788
 10
4.460315475212778
 20
10.47348152327741
 10
4.460315475212778
 20
10.44044214938695
 10
4.460315475212778
 20
10.40740277549648
 10
4.427276101322313
 20
10.37436340160602
 10
4.394236727431847
 20
10.34132402771555
 10
4.394236727431847
 20
10.30828465382509
 10
4.361197353541383
 20
10.30828465382509
 10
4.361197353541383
 20
10.27524527993462
 10
4.328157979650918
 20
10.24220590604416
 10
4.328157979650918
 20
10.20916653215369
 10
4.295118605760453
 20
10.17612715826323
 10
4.262079231869987
 20
10.14308778437276
 10
4.262079231869987
 20
10.1100484104823
 10
4.262079231869987
 20
10.07700903659183
 10
4.229039857979523
 20
10.07700903659183
 10
4.229039857979523
 20
10.04396966270137
 10
4.229039857979523
 20
10.0109302888109
 10
4.196000484089058
 20
10.0109302888109
 10
4.196000484089058
 20
9.977890914920437
 10
4.162961110198593
 20
9.977890914920437
 10
4.162961110198593
 20
9.944851541029971
 10
4.129921736308128
 20
9.911812167139505
 10
4.096882362417663
 20
9.911812167139505
 10
4.096882362417663
 20
9.878772793249041
 10
4.063842988527198
 20
9.845733419358577
 10
4.063842988527198
 20
9.812694045468112
 10
4.030803614636732
 20
9.812694045468112
 10
4.030803614636732
 20
9.779654671577648
 10
3.997764240746268
 20
9.746615297687182
 10
3.964724866855803
 20
9.713575923796716
 10
3.931685492965338
 20
9.68053654990625
 10
3.931685492965338
 20
9.647497176015786
 10
3.931685492965338
 20
9.614457802125321
 10
3.898646119074872
 20
9.581418428234857
 10
3.898646119074872
 20
9.548379054344391
 10
3.865606745184408
 20
9.515339680453927
 10
3.865606745184408
 20
9.482300306563461
 10
3.832567371293942
 20
9.449260932672995
 10
3.799527997403477
 20
9.416221558782532
 10
3.766488623513012
 20
9.383182184892066
 10
3.733449249622547
 20
9.350142811001602
 10
3.700409875732082
 20
9.317103437111136
 10
3.667370501841618
 20
9.28406406322067
 10
3.634331127951152
 20
9.251024689330206
 10
3.601291754060687
 20
9.251024689330206
 10
3.568252380170222
 20
9.217985315439741
 10
3.535213006279757
 20
9.184945941549275
 10
3.502173632389292
 20
9.184945941549275
 10
3.469134258498827
 20
9.151906567658811
 10
3.436094884608362
 20
9.118867193768347
 10
3.403055510717897
 20
9.118867193768347
 10
3.370016136827433
 20
9.085827819877881
 10
3.336976762936967
 20
9.052788445987415
 10
3.336976762936967
 20
9.019749072096952
 10
3.303937389046502
 20
9.019749072096952
 10
3.270898015156037
 20
8.986709698206486
 10
3.270898015156037
 20
8.95367032431602
 10
3.237858641265572
 20
8.920630950425556
 10
3.237858641265572
 20
8.887591576535092
 10
3.204819267375107
 20
8.887591576535092
 10
3.171779893484642
 20
8.854552202644626
 10
3.171779893484642
 20
8.821512828754161
 10
3.138740519594177
 20
8.788473454863695
 10
3.105701145703712
 20
8.755434080973231
 10
3.105701145703712
 20
8.722394707082765
 10
3.072661771813247
 20
8.689355333192301
 10
3.072661771813247
 20
8.656315959301836
 10
3.039622397922782
 20
8.623276585411372
 10
3.039622397922782
 20
8.590237211520906
 10
3.039622397922782
 20
8.55719783763044
 10
3.006583024032317
 20
8.55719783763044
 10
3.006583024032317
 20
8.524158463739974
 10
2.973543650141852
 20
8.49111908984951
 10
2.973543650141852
 20
8.458079715959046
 10
2.940504276251387
 20
8.458079715959046
 10
2.940504276251387
 20
8.425040342068581
 10
2.973543650141852
 20
8.425040342068581
 10
3.006583024032317
 20
8.425040342068581
 10
3.039622397922782
 20
8.392000968178117
 10
3.072661771813247
 20
8.425040342068581
 10
3.105701145703712
 20
8.425040342068581
 10
3.138740519594177
 20
8.425040342068581
 10
3.204819267375107
 20
8.425040342068581
 10
3.270898015156037
 20
8.425040342068581
 10
3.303937389046502
 20
8.425040342068581
 10
3.336976762936967
 20
8.458079715959046
 10
3.370016136827433
 20
8.458079715959046
 10
3.403055510717897
 20
8.458079715959046
 10
3.436094884608362
 20
8.458079715959046
 10
3.436094884608362
 20
8.49111908984951
 10
3.436094884608362
 20
8.524158463739974
 10
3.469134258498827
 20
8.55719783763044
 10
3.469134258498827
 20
8.590237211520906
 10
3.502173632389292
 20
8.623276585411372
 10
3.502173632389292
 20
8.656315959301836
 10
3.535213006279757
 20
8.656315959301836
 10
3.568252380170222
 20
8.689355333192301
 10
3.601291754060687
 20
8.689355333192301
 10
3.601291754060687
 20
8.722394707082765
 10
3.634331127951152
 20
8.722394707082765
 10
3.634331127951152
 20
8.755434080973231
 10
3.667370501841618
 20
8.755434080973231
 10
3.700409875732082
 20
8.788473454863695
 10
3.733449249622547
 20
8.821512828754161
 10
3.766488623513012
 20
8.821512828754161
 10
3.799527997403477
 20
8.854552202644626
 10
3.832567371293942
 20
8.887591576535092
 10
3.865606745184408
 20
8.920630950425556
 10
3.865606745184408
 20
8.95367032431602
 10
3.898646119074872
 20
8.986709698206486
 10
3.931685492965338
 20
9.019749072096952
 10
3.964724866855803
 20
9.019749072096952
 10
3.997764240746268
 20
9.052788445987415
 10
4.030803614636732
 20
9.085827819877881
 10
4.063842988527198
 20
9.085827819877881
 10
4.063842988527198
 20
9.118867193768347
 10
4.096882362417663
 20
9.118867193768347
 10
4.129921736308128
 20
9.118867193768347
 10
4.129921736308128
 20
9.151906567658811
 10
4.162961110198593
 20
9.151906567658811
 10
4.162961110198593
 20
9.184945941549275
 10
4.196000484089058
 20
9.184945941549275
 10
4.196000484089058
 20
9.217985315439741
 10
4.229039857979523
 20
9.251024689330206
 10
4.262079231869987
 20
9.251024689330206
 10
4.262079231869987
 20
9.28406406322067
 10
4.295118605760453
 20
9.317103437111136
 10
4.328157979650918
 20
9.317103437111136
 10
4.328157979650918
 20
9.350142811001602
 10
4.361197353541383
 20
9.350142811001602
 10
4.394236727431847
 20
9.383182184892066
 10
4.427276101322313
 20
9.383182184892066
 10
4.460315475212778
 20
9.416221558782532
 10
4.493354849103243
 20
9.449260932672995
 10
4.526394222993708
 20
9.449260932672995
 10
4.526394222993708
 20
9.482300306563461
 10
4.559433596884173
 20
9.482300306563461
 10
4.592472970774637
 20
9.515339680453927
 10
4.625512344665103
 20
9.548379054344391
 10
4.625512344665103
 20
9.581418428234857
 10
4.658551718555568
 20
9.614457802125321
 10
4.691591092446033
 20
9.647497176015786
 10
4.724630466336498
 20
9.68053654990625
 10
4.757669840226963
 20
9.713575923796716
 10
4.790709214117428
 20
9.746615297687182
 10
4.790709214117428
 20
9.779654671577648
 10
4.823748588007893
 20
9.812694045468112
 10
4.823748588007893
 20
9.845733419358577
 10
4.856787961898358
 20
9.845733419358577
 10
4.856787961898358
 20
9.878772793249041
 10
4.856787961898358
 20
9.911812167139505
 10
4.889827335788824
 20
9.944851541029971
 10
4.889827335788824
 20
9.977890914920437
 10
4.889827335788824
 20
10.0109302888109
 10
4.889827335788824
 20
10.04396966270137
 10
4.889827335788824
 20
10.07700903659183
 10
4.889827335788824
 20
10.1100484104823
 10
4.922866709679289
 20
10.14308778437276
 10
4.922866709679289
 20
10.17612715826323
 10
4.922866709679289
 20
10.20916653215369
 10
4.922866709679289
 20
10.24220590604416
 10
4.955906083569753
 20
10.27524527993462
 10
4.955906083569753
 20
10.30828465382509
 10
4.955906083569753
 20
10.34132402771555
 10
4.955906083569753
 20
10.37436340160602
 10
4.955906083569753
 20
10.40740277549648
 10
4.955906083569753
 20
10.44044214938695
 10
4.922866709679289
 20
10.47348152327741
 10
4.922866709679289
 20
10.50652089716788
 10
4.889827335788824
 20
10.53956027105834
 10
4.889827335788824
 20
10.57259964494881
 10
4.889827335788824
 20
10.60563901883927
 10
4.889827335788824
 20
10.63867839272974
 10
4.856787961898358
 20
10.63867839272974
 10
4.856787961898358
 20
10.6717177666202
 10
4.856787961898358
 20
10.70475714051067
 10
4.856787961898358
 20
10.73779651440113
 10
4.856787961898358
 20
10.7708358882916
 10
4.856787961898358
 20
10.80387526218206
 10
4.856787961898358
 20
10.83691463607253
 10
4.856787961898358
 20
10.90299338385346
 10
4.856787961898358
 20
10.93603275774392
 10
4.889827335788824
 20
10.96907213163439
 10
4.922866709679289
 20
11.03515087941532
 10
4.922866709679289
 20
11.06819025330578
 10
4.955906083569753
 20
11.10122962719625
 10
4.988945457460218
 20
11.13426900108671
 10
5.021984831350683
 20
11.16730837497718
 10
5.055024205241148
 20
11.20034774886764
 10
5.088063579131613
 20
11.23338712275811
 10
5.121102953022079
 20
11.23338712275811
 10
5.154142326912543
 20
11.26642649664857
 10
5.187181700803008
 20
11.26642649664857
 10
5.220221074693473
 20
11.29946587053904
 10
5.220221074693473
 20
11.3325052444295
 10
5.253260448583939
 20
11.3325052444295
 10
5.286299822474403
 20
11.3325052444295
 10
5.319339196364869
 20
11.36554461831997
 10
5.352378570255333
 20
11.36554461831997
 10
5.385417944145798
 20
11.36554461831997
 10
5.418457318036263
 20
11.39858399221043
 10
5.451496691926729
 20
11.39858399221043
 10
5.484536065817194
 20
11.39858399221043
 10
5.517575439707659
 20
11.4316233661009
 10
5.550614813598123
 20
11.4316233661009
 10
5.583654187488589
 20
11.4316233661009
 10
5.583654187488589
 20
11.46466273999136
 10
5.616693561379054
 20
11.46466273999136
 10
5.649732935269518
 20
11.46466273999136
 10
5.682772309159984
 20
11.49770211388183
 10
5.71581168305045
 20
11.49770211388183
 10
5.748851056940913
 20
11.49770211388183
 10
5.814929804721844
 20
11.53074148777229
 10
5.847969178612309
 20
11.53074148777229
 10
5.881008552502774
 20
11.53074148777229
 10
5.914047926393239
 20
11.53074148777229
 10
5.980126674174169
 20
11.56378086166276
 10
6.013166048064633
 20
11.56378086166276
 10
6.046205421955099
 20
11.56378086166276
 10
6.079244795845564
 20
11.56378086166276
 10
6.11228416973603
 20
11.59682023555322
 10
6.145323543626493
 20
11.59682023555322
 10
6.211402291407424
 20
11.62985960944369
 10
6.24444166529789
 20
11.62985960944369
 10
6.277481039188354
 20
11.66289898333415
 10
6.31052041307882
 20
11.66289898333415
 10
6.31052041307882
 20
11.69593835722462
 10
6.343559786969284
 20
11.69593835722462
 10
6.376599160859748
 20
11.69593835722462
 10
6.409638534750214
 20
11.66289898333415
 10
6.442677908640679
 20
11.66289898333415
 10
6.475717282531145
 20
11.66289898333415
 10
6.508756656421609
 20
11.66289898333415
 10
6.541796030312074
 20
11.62985960944369
 10
6.574835404202539
 20
11.62985960944369
 10
6.607874778093005
 20
11.62985960944369
 10
6.640914151983469
 20
11.59682023555322
 10
6.673953525873935
 20
11.59682023555322
 10
6.673953525873935
 20
11.56378086166276
 10
6.706992899764399
 20
11.56378086166276
 10
6.706992899764399
 20
11.53074148777229
 10
6.740032273654865
 20
11.49770211388183
 10
6.773071647545329
 20
11.46466273999136
 10
6.773071647545329
 20
11.4316233661009
 10
6.806111021435794
 20
11.4316233661009
 10
6.806111021435794
 20
11.39858399221043
 10
6.806111021435794
 20
11.36554461831997
 10
6.83915039532626
 20
11.3325052444295
 10
6.83915039532626
 20
11.29946587053904
 10
6.872189769216725
 20
11.26642649664857
 10
6.905229143107189
 20
11.23338712275811
 10
6.938268516997654
 20
11.23338712275811
 10
6.938268516997654
 20
11.20034774886764
 10
6.97130789088812
 20
11.20034774886764
 10
7.004347264778585
 20
11.20034774886764
 10
7.037386638669049
 20
11.16730837497718
 10
7.070426012559515
 20
11.16730837497718
 10
7.10346538644998
 20
11.16730837497718
 10
7.136504760340444
 20
11.16730837497718
 10
7.169544134230909
 20
11.16730837497718
 10
7.202583508121375
 20
11.13426900108671
 10
7.23562288201184
 20
11.13426900108671
 10
7.268662255902305
 20
11.13426900108671
 10
7.301701629792769
 20
11.10122962719625
 10
7.334741003683235
 20
11.06819025330578
 10
7.3677803775737
 20
11.03515087941532
 10
7.400819751464164
 20
11.00211150552485
 10
7.43385912535463
 20
10.96907213163439
 10
7.466898499245095
 20
10.93603275774392
 10
7.49993787313556
 20
10.90299338385346
 10
7.532977247026024
 20
10.86995400996299
 10
7.56601662091649
 20
10.83691463607253
 10
7.56601662091649
 20
10.80387526218206
 10
7.599055994806955
 20
10.80387526218206
 10
7.632095368697421
 20
10.7708358882916
 10
7.665134742587885
 20
10.73779651440113
 10
7.69817411647835
 20
10.70475714051067
 10
7.731213490368815
 20
10.70475714051067
 10
7.731213490368815
 20
10.6717177666202
 10
7.764252864259279
 20
10.6717177666202
 10
7.764252864259279
 20
10.63867839272974
 10
7.797292238149745
 20
10.63867839272974
 10
7.83033161204021
 20
10.60563901883927
 10
7.863370985930676
 20
10.60563901883927
 10
7.863370985930676
 20
10.57259964494881
 10
7.896410359821139
 20
10.57259964494881
 10
7.929449733711605
 20
10.53956027105834
 10
7.96248910760207
 20
10.53956027105834
 10
7.995528481492536
 20
10.53956027105834
 10
7.995528481492536
 20
10.50652089716788
 10
8.028567855382999
 20
10.50652089716788
 10
8.061607229273465
 20
10.47348152327741
 10
8.09464660316393
 20
10.47348152327741
 10
8.127685977054396
 20
10.44044214938695
 10
8.16072535094486
 20
10.44044214938695
 10
8.16072535094486
 20
10.40740277549648
 10
8.193764724835326
 20
10.40740277549648
 10
8.22680409872579
 20
10.40740277549648
 10
8.22680409872579
 20
10.37436340160602
 10
8.259843472616256
 20
10.37436340160602
 10
8.259843472616256
 20
10.34132402771555
 10
8.292882846506719
 20
10.34132402771555
 10
8.325922220397185
 20
10.30828465382509
 10
8.325922220397185
 20
10.27524527993462
 10
8.358961594287651
 20
10.27524527993462
 10
8.392000968178117
 20
10.24220590604416
 10
8.425040342068581
 20
10.24220590604416
 10
8.425040342068581
 20
10.20916653215369
 10
8.458079715959046
 20
10.20916653215369
 10
8.458079715959046
 20
10.17612715826323
 10
8.458079715959046
 20
10.14308778437276
 10
8.458079715959046
 20
10.1100484104823
 10
8.458079715959046
 20
10.07700903659183
 10
8.458079715959046
 20
10.04396966270137
 10
8.458079715959046
 20
10.0109302888109
 10
8.425040342068581
 20
9.977890914920437
 10
8.425040342068581
 20
9.944851541029971
 10
8.425040342068581
 20
9.911812167139505
 10
8.425040342068581
 20
9.878772793249041
 10
8.425040342068581
 20
9.845733419358577
 10
8.425040342068581
 20
9.812694045468112
 10
8.425040342068581
 20
9.779654671577648
 10
8.425040342068581
 20
9.746615297687182
 10
8.425040342068581
 20
9.713575923796716
 10
8.458079715959046
 20
9.713575923796716
 10
8.458079715959046
 20
9.68053654990625
 10
8.458079715959046
 20
9.647497176015786
 10
8.425040342068581
 20
9.647497176015786
 10
8.425040342068581
 20
9.614457802125321
 10
8.425040342068581
 20
9.581418428234857
 10
8.425040342068581
 20
9.548379054344391
 10
8.425040342068581
 20
9.515339680453927
 10
8.425040342068581
 20
9.482300306563461
 10
8.425040342068581
 20
9.449260932672995
 10
8.425040342068581
 20
9.416221558782532
 10
8.425040342068581
 20
9.383182184892066
 10
8.458079715959046
 20
9.350142811001602
 10
8.458079715959046
 20
9.317103437111136
 10
8.458079715959046
 20
9.28406406322067
 10
8.458079715959046
 20
9.251024689330206
 10
8.458079715959046
 20
9.217985315439741
 10
8.49111908984951
 20
9.184945941549275
 10
8.524158463739974
 20
9.184945941549275
 10
8.55719783763044
 20
9.151906567658811
 10
8.590237211520906
 20
9.151906567658811
 10
8.623276585411372
 20
9.118867193768347
 10
8.656315959301836
 20
9.118867193768347
 10
8.656315959301836
 20
9.085827819877881
 10
8.689355333192301
 20
9.085827819877881
 10
8.722394707082765
 20
9.085827819877881
 10
8.722394707082765
 20
9.052788445987415
 10
8.755434080973231
 20
9.019749072096952
 10
8.755434080973231
 20
8.986709698206486
 10
8.755434080973231
 20
8.95367032431602
 10
8.788473454863695
 20
8.95367032431602
 10
8.788473454863695
 20
8.920630950425556
 10
8.788473454863695
 20
8.887591576535092
 10
8.821512828754161
 20
8.854552202644626
 10
8.821512828754161
 20
8.821512828754161
 10
8.821512828754161
 20
8.788473454863695
 10
8.821512828754161
 20
8.755434080973231
 10
8.788473454863695
 20
8.755434080973231
 10
8.788473454863695
 20
8.722394707082765
 10
8.755434080973231
 20
8.722394707082765
 10
8.755434080973231
 20
8.689355333192301
 10
8.722394707082765
 20
8.656315959301836
 10
8.722394707082765
 20
8.623276585411372
 10
8.689355333192301
 20
8.623276585411372
 10
8.689355333192301
 20
8.590237211520906
 10
8.689355333192301
 20
8.55719783763044
 10
8.656315959301836
 20
8.55719783763044
 10
8.656315959301836
 20
8.524158463739974
 10
8.623276585411372
 20
8.524158463739974
 10
8.623276585411372
 20
8.49111908984951
 10
8.590237211520906
 20
8.49111908984951
 10
8.590237211520906
 20
8.458079715959046
 10
8.55719783763044
 20
8.458079715959046
 10
8.524158463739974
 20
8.458079715959046
 10
8.524158463739974
 20
8.425040342068581
 10
8.49111908984951
 20
8.425040342068581
 10
8.458079715959046
 20
8.392000968178117
 10
8.425040342068581
 20
8.392000968178117
 10
8.425040342068581
 20
8.358961594287651
 10
8.392000968178117
 20
8.325922220397185
 10
8.358961594287651
 20
8.325922220397185
 10
8.358961594287651
 20
8.292882846506719
 10
8.325922220397185
 20
8.259843472616256
 10
8.292882846506719
 20
8.259843472616256
 10
8.259843472616256
 20
8.22680409872579
 10
8.259843472616256
 20
8.193764724835326
 10
8.22680409872579
 20
8.16072535094486
 10
8.22680409872579
 20
8.127685977054396
 10
8.193764724835326
 20
8.09464660316393
 10
8.193764724835326
 20
8.061607229273465
 10
8.193764724835326
 20
8.028567855382999
 10
8.193764724835326
 20
7.995528481492536
 10
8.193764724835326
 20
7.96248910760207
 10
8.193764724835326
 20
7.929449733711605
 10
8.193764724835326
 20
7.896410359821139
 10
8.22680409872579
 20
7.896410359821139
 10
8.22680409872579
 20
7.863370985930676
 10
8.22680409872579
 20
7.83033161204021
 10
8.259843472616256
 20
7.83033161204021
 10
8.259843472616256
 20
7.797292238149745
 10
8.292882846506719
 20
7.797292238149745
 10
8.325922220397185
 20
7.764252864259279
 10
8.358961594287651
 20
7.764252864259279
 10
8.392000968178117
 20
7.764252864259279
 10
8.425040342068581
 20
7.764252864259279
 10
8.458079715959046
 20
7.764252864259279
 10
8.49111908984951
 20
7.731213490368815
 10
8.524158463739974
 20
7.731213490368815
 10
8.55719783763044
 20
7.731213490368815
 10
8.623276585411372
 20
7.731213490368815
 10
8.656315959301836
 20
7.764252864259279
 10
8.722394707082765
 20
7.764252864259279
 10
8.788473454863695
 20
7.764252864259279
 10
8.854552202644626
 20
7.764252864259279
 10
8.887591576535092
 20
7.764252864259279
 10
8.95367032431602
 20
7.764252864259279
 10
9.019749072096952
 20
7.764252864259279
 10
9.052788445987415
 20
7.764252864259279
 10
9.085827819877881
 20
7.764252864259279
 10
9.118867193768347
 20
7.764252864259279
 10
9.184945941549275
 20
7.764252864259279
 10
9.217985315439741
 20
7.764252864259279
 10
9.251024689330206
 20
7.764252864259279
 10
9.28406406322067
 20
7.764252864259279
 10
9.317103437111136
 20
7.764252864259279
 10
9.383182184892066
 20
7.797292238149745
 10
9.416221558782532
 20
7.797292238149745
 10
9.449260932672995
 20
7.797292238149745
 10
9.482300306563461
 20
7.83033161204021
 10
9.515339680453927
 20
7.83033161204021
 10
9.548379054344391
 20
7.83033161204021
 10
9.581418428234857
 20
7.83033161204021
 10
9.614457802125321
 20
7.83033161204021
 10
9.647497176015786
 20
7.863370985930676
 10
9.68053654990625
 20
7.863370985930676
 10
9.713575923796716
 20
7.863370985930676
 10
9.746615297687182
 20
7.896410359821139
 10
9.779654671577648
 20
7.896410359821139
 10
9.812694045468112
 20
7.863370985930676
 10
9.845733419358577
 20
7.863370985930676
 10
9.878772793249041
 20
7.863370985930676
 10
9.911812167139505
 20
7.863370985930676
 10
9.944851541029971
 20
7.83033161204021
 10
9.977890914920437
 20
7.83033161204021
 10
10.0109302888109
 20
7.83033161204021
 10
10.0109302888109
 20
7.797292238149745
 10
10.04396966270137
 20
7.797292238149745
 10
10.07700903659183
 20
7.764252864259279
 10
10.1100484104823
 20
7.764252864259279
 10
10.1100484104823
 20
7.731213490368815
 10
10.14308778437276
 20
7.731213490368815
 10
10.17612715826323
 20
7.69817411647835
 10
10.20916653215369
 20
7.69817411647835
 10
10.27524527993462
 20
7.665134742587885
 10
10.30828465382509
 20
7.665134742587885
 10
10.30828465382509
 20
7.632095368697421
 10
10.34132402771555
 20
7.632095368697421
 10
10.37436340160602
 20
7.632095368697421
 10
10.37436340160602
 20
7.599055994806955
 10
10.37436340160602
 20
7.56601662091649
 10
10.40740277549648
 20
7.56601662091649
 10
10.40740277549648
 20
7.532977247026024
 10
10.44044214938695
 20
7.532977247026024
 10
10.47348152327741
 20
7.49993787313556
 10
10.47348152327741
 20
7.466898499245095
 10
10.50652089716788
 20
7.466898499245095
 10
10.53956027105834
 20
7.466898499245095
 10
10.53956027105834
 20
7.43385912535463
 10
10.57259964494881
 20
7.43385912535463
 10
10.57259964494881
 20
7.400819751464164
 10
10.60563901883927
 20
7.400819751464164
 10
10.60563901883927
 20
7.3677803775737
 10
10.60563901883927
 20
7.334741003683235
 10
10.63867839272974
 20
7.334741003683235
 10
10.63867839272974
 20
7.301701629792769
 10
10.6717177666202
 20
7.301701629792769
 10
10.6717177666202
 20
7.268662255902305
 10
10.70475714051067
 20
7.268662255902305
 10
10.70475714051067
 20
7.23562288201184
 10
10.70475714051067
 20
7.202583508121375
 10
10.70475714051067
 20
7.169544134230909
 10
10.70475714051067
 20
7.136504760340444
 10
10.73779651440113
 20
7.10346538644998
 10
10.73779651440113
 20
7.070426012559515
 10
10.73779651440113
 20
7.037386638669049
 10
10.73779651440113
 20
7.004347264778585
 10
10.73779651440113
 20
6.97130789088812
 10
10.73779651440113
 20
6.938268516997654
 10
10.7708358882916
 20
6.905229143107189
 10
10.80387526218206
 20
6.872189769216725
 10
10.80387526218206
 20
6.83915039532626
 10
10.80387526218206
 20
6.806111021435794
 10
10.83691463607253
 20
6.773071647545329
 10
10.83691463607253
 20
6.740032273654865
 10
10.83691463607253
 20
6.706992899764399
 10
10.86995400996299
 20
6.673953525873935
 10
10.86995400996299
 20
6.640914151983469
 10
10.83691463607253
 20
6.640914151983469
 10
10.83691463607253
 20
6.607874778093005
 10
10.83691463607253
 20
6.574835404202539
 10
10.86995400996299
 20
6.541796030312074
 10
10.86995400996299
 20
6.508756656421609
 10
10.86995400996299
 20
6.475717282531145
 10
10.86995400996299
 20
6.442677908640679
 10
10.83691463607253
 20
6.409638534750214
 10
10.83691463607253
 20
6.376599160859748
 10
10.86995400996299
 20
6.343559786969284
 10
10.86995400996299
 20
6.31052041307882
 10
10.86995400996299
 20
6.277481039188354
 10
10.90299338385346
 20
6.24444166529789
 10
10.90299338385346
 20
6.211402291407424
 10
10.86995400996299
 20
6.211402291407424
 10
10.83691463607253
 20
6.178362917516959
 10
10.80387526218206
 20
6.178362917516959
 10
10.80387526218206
 20
6.145323543626493
 10
10.7708358882916
 20
6.145323543626493
 10
10.73779651440113
 20
6.11228416973603
 10
10.70475714051067
 20
6.11228416973603
 10
10.70475714051067
 20
6.079244795845564
 10
10.6717177666202
 20
6.079244795845564
 10
10.6717177666202
 20
6.046205421955099
 10
10.63867839272974
 20
6.046205421955099
 10
10.63867839272974
 20
6.013166048064633
 10
10.60563901883927
 20
6.013166048064633
 10
10.60563901883927
 20
5.980126674174169
 10
10.57259964494881
 20
5.980126674174169
 10
10.57259964494881
 20
5.947087300283704
 10
10.53956027105834
 20
5.947087300283704
 10
10.53956027105834
 20
5.914047926393239
 10
10.53956027105834
 20
5.881008552502774
 10
10.50652089716788
 20
5.881008552502774
 10
10.50652089716788
 20
5.847969178612309
 10
10.50652089716788
 20
5.814929804721844
 10
10.53956027105834
 20
5.814929804721844
 10
10.57259964494881
 20
5.781890430831378
 10
10.60563901883927
 20
5.781890430831378
 10
10.63867839272974
 20
5.748851056940913
 10
10.6717177666202
 20
5.748851056940913
 10
10.6717177666202
 20
5.71581168305045
 10
10.70475714051067
 20
5.71581168305045
 10
10.70475714051067
 20
5.682772309159984
 10
10.73779651440113
 20
5.682772309159984
 10
10.73779651440113
 20
5.649732935269518
 10
10.73779651440113
 20
5.616693561379054
 10
10.7708358882916
 20
5.583654187488589
 10
10.80387526218206
 20
5.550614813598123
 10
10.80387526218206
 20
5.517575439707659
 10
10.80387526218206
 20
5.484536065817194
 10
10.80387526218206
 20
5.451496691926729
 10
10.83691463607253
 20
5.451496691926729
 10
10.83691463607253
 20
5.418457318036263
 10
10.83691463607253
 20
5.385417944145798
 10
10.86995400996299
 20
5.385417944145798
 10
10.86995400996299
 20
5.352378570255333
 10
10.83691463607253
 20
5.319339196364869
 10
10.80387526218206
 20
5.319339196364869
 10
10.80387526218206
 20
5.286299822474403
 10
10.7708358882916
 20
5.253260448583939
 10
10.73779651440113
 20
5.220221074693473
 10
10.70475714051067
 20
5.187181700803008
 10
10.70475714051067
 20
5.154142326912543
 10
10.6717177666202
 20
5.154142326912543
 10
10.6717177666202
 20
5.121102953022079
 10
10.63867839272974
 20
5.121102953022079
 10
10.63867839272974
 20
5.088063579131613
 10
10.60563901883927
 20
5.088063579131613
 10
10.60563901883927
 20
5.055024205241148
 10
10.57259964494881
 20
5.055024205241148
 10
10.57259964494881
 20
5.021984831350683
 10
10.60563901883927
 20
5.021984831350683
 10
10.60563901883927
 20
4.988945457460218
 10
10.63867839272974
 20
4.955906083569753
 10
10.6717177666202
 20
4.922866709679289
 10
10.70475714051067
 20
4.922866709679289
 10
10.73779651440113
 20
4.922866709679289
 10
10.7708358882916
 20
4.889827335788824
 10
10.80387526218206
 20
4.889827335788824
 10
10.80387526218206
 20
4.856787961898358
 10
10.83691463607253
 20
4.856787961898358
 10
10.83691463607253
 20
4.823748588007893
 10
10.86995400996299
 20
4.823748588007893
 10
10.90299338385346
 20
4.790709214117428
 10
10.93603275774392
 20
4.790709214117428
 10
10.96907213163439
 20
4.757669840226963
 10
11.03515087941532
 20
4.757669840226963
 10
11.06819025330578
 20
4.724630466336498
 10
11.13426900108671
 20
4.724630466336498
 10
11.16730837497718
 20
4.691591092446033
 10
11.20034774886764
 20
4.691591092446033
 10
11.20034774886764
 20
4.658551718555568
 10
11.23338712275811
 20
4.658551718555568
 10
11.29946587053904
 20
4.625512344665103
 10
11.3325052444295
 20
4.592472970774637
 10
11.36554461831997
 20
4.559433596884173
 10
11.4316233661009
 20
4.559433596884173
 10
11.46466273999136
 20
4.526394222993708
 10
11.49770211388183
 20
4.526394222993708
 10
11.53074148777229
 20
4.493354849103243
 10
11.56378086166276
 20
4.493354849103243
 10
11.53074148777229
 20
4.493354849103243
 10
11.49770211388183
 20
4.493354849103243
 10
11.49770211388183
 20
4.460315475212778
 10
11.53074148777229
 20
4.427276101322313
 10
11.56378086166276
 20
4.427276101322313
 10
11.59682023555322
 20
4.394236727431847
 10
11.62985960944369
 20
4.361197353541383
 10
11.66289898333415
 20
4.328157979650918
 10
11.69593835722462
 20
4.295118605760453
 10
11.72897773111508
 20
4.295118605760453
 10
11.76201710500555
 20
4.262079231869987
 10
11.79505647889601
 20
4.229039857979523
 10
11.82809585278648
 20
4.229039857979523
 10
11.82809585278648
 20
4.196000484089058
 10
11.82809585278648
 20
4.162961110198593
 10
11.82809585278648
 20
4.129921736308128
 10
11.82809585278648
 20
4.096882362417663
 10
11.86113522667694
 20
4.096882362417663
 10
11.86113522667694
 20
4.063842988527198
 10
11.86113522667694
 20
4.030803614636732
 10
11.86113522667694
 20
3.997764240746268
 10
11.82809585278648
 20
3.997764240746268
 10
11.82809585278648
 20
3.964724866855803
 10
11.79505647889601
 20
3.931685492965338
 10
11.76201710500555
 20
3.931685492965338
 10
11.76201710500555
 20
3.898646119074872
 10
11.72897773111508
 20
3.898646119074872
 10
11.72897773111508
 20
3.865606745184408
 10
11.69593835722462
 20
3.865606745184408
 10
11.69593835722462
 20
3.832567371293942
 10
11.66289898333415
 20
3.799527997403477
 10
11.66289898333415
 20
3.766488623513012
 10
11.62985960944369
 20
3.733449249622547
 10
11.62985960944369
 20
3.700409875732082
 10
11.59682023555322
 20
3.667370501841618
 10
11.59682023555322
 20
3.634331127951152
 10
11.59682023555322
 20
3.601291754060687
 10
11.59682023555322
 20
3.568252380170222
 10
11.59682023555322
 20
3.535213006279757
 10
11.59682023555322
 20
3.502173632389292
 10
11.59682023555322
 20
3.469134258498827
 10
11.56378086166276
 20
3.469134258498827
 10
11.56378086166276
 20
3.436094884608362
 10
11.56378086166276
 20
3.403055510717897
 10
11.56378086166276
 20
3.370016136827433
 10
11.56378086166276
 20
3.336976762936967
 10
11.53074148777229
 20
3.303937389046502
 10
11.53074148777229
 20
3.270898015156037
 10
11.53074148777229
 20
3.237858641265572
 10
11.49770211388183
 20
3.237858641265572
 10
11.49770211388183
 20
3.204819267375107
 10
11.49770211388183
 20
3.171779893484642
 10
11.49770211388183
 20
3.138740519594177
 10
11.49770211388183
 20
3.105701145703712
 10
11.49770211388183
 20
3.072661771813247
 10
11.49770211388183
 20
3.039622397922782
 10
11.53074148777229
 20
3.006583024032317
 10
11.53074148777229
 20
2.973543650141852
 10
11.53074148777229
 20
2.940504276251387
 10
11.56378086166276
 20
2.907464902360922
 10
11.56378086166276
 20
2.874425528470457
 10
11.59682023555322
 20
2.841386154579992
 10
11.59682023555322
 20
2.808346780689527
 10
11.62985960944369
 20
2.775307406799062
 10
11.62985960944369
 20
2.742268032908597
 10
11.62985960944369
 20
2.709228659018132
 10
11.66289898333415
 20
2.676189285127667
 10
11.66289898333415
 20
2.643149911237201
 10
11.66289898333415
 20
2.610110537346737
 10
11.69593835722462
 20
2.577071163456272
 10
11.69593835722462
 20
2.544031789565806
 10
11.72897773111508
 20
2.510992415675342
 10
11.72897773111508
 20
2.477953041784876
 10
11.69593835722462
 20
2.444913667894412
 10
11.72897773111508
 20
2.444913667894412
 10
11.76201710500555
 20
2.411874294003947
 10
11.79505647889601
 20
2.411874294003947
 10
11.79505647889601
 20
2.378834920113482
 10
11.82809585278648
 20
2.345795546223016
 10
11.82809585278648
 20
2.312756172332552
 10
11.86113522667694
 20
2.312756172332552
 10
11.86113522667694
 20
2.279716798442087
 10
11.89417460056741
 20
2.279716798442087
 10
11.89417460056741
 20
2.246677424551621
 10
11.92721397445787
 20
2.246677424551621
 10
11.92721397445787
 20
2.213638050661157
 10
11.96025334834834
 20
2.180598676770691
 10
11.96025334834834
 20
2.147559302880226
 10
11.9932927222388
 20
2.147559302880226
 10
11.9932927222388
 20
2.114519928989762
 10
11.9932927222388
 20
2.081480555099296
 10
11.9932927222388
 20
2.048441181208831
 10
12.02633209612927
 20
2.015401807318366
 10
11.9932927222388
 20
2.015401807318366
 10
11.9932927222388
 20
1.982362433427901
 10
11.9932927222388
 20
1.949323059537436
 10
11.9932927222388
 20
1.916283685646971
 10
11.96025334834834
 20
1.916283685646971
 10
11.96025334834834
 20
1.883244311756506
 10
11.96025334834834
 20
1.850204937866041
 10
11.96025334834834
 20
1.817165563975576
 10
11.96025334834834
 20
1.784126190085111
 10
11.92721397445787
 20
1.784126190085111
 10
11.92721397445787
 20
1.751086816194646
 10
11.89417460056741
 20
1.751086816194646
 10
11.89417460056741
 20
1.718047442304181
 10
11.86113522667694
 20
1.685008068413716
 10
11.86113522667694
 20
1.651968694523251
 10
11.82809585278648
 20
1.651968694523251
 10
11.82809585278648
 20
1.618929320632786
 10
11.82809585278648
 20
1.585889946742321
 10
11.79505647889601
 20
1.585889946742321
 10
11.79505647889601
 20
1.552850572851856
 10
11.76201710500555
 20
1.519811198961391
 10
11.76201710500555
 20
1.486771825070926
 10
11.76201710500555
 20
1.453732451180461
 10
11.76201710500555
 20
1.420693077289996
 10
11.76201710500555
 20
1.387653703399531
 10
11.79505647889601
 20
1.354614329509066
 10
11.79505647889601
 20
1.321574955618601
 10
11.79505647889601
 20
1.288535581728136
 10
11.82809585278648
 20
1.288535581728136
 10
11.82809585278648
 20
1.255496207837671
 10
11.82809585278648
 20
1.222456833947206
 10
11.79505647889601
 20
1.222456833947206
 10
11.76201710500555
 20
1.222456833947206
 10
11.76201710500555
 20
1.189417460056741
 10
11.72897773111508
 20
1.189417460056741
 10
11.72897773111508
 20
1.156378086166276
 10
11.69593835722462
 20
1.156378086166276
 10
11.69593835722462
 20
1.123338712275811
 10
11.69593835722462
 20
1.090299338385346
 10
11.66289898333415
 20
1.090299338385346
 10
11.66289898333415
 20
1.057259964494881
 10
11.66289898333415
 20
1.024220590604416
 10
11.62985960944369
 20
0.9911812167139507
 10
11.62985960944369
 20
0.9581418428234856
 10
11.59682023555322
 20
0.9251024689330205
 10
11.59682023555322
 20
0.8920630950425555
 10
11.59682023555322
 20
0.8590237211520906
 10
11.59682023555322
 20
0.8259843472616256
 10
11.59682023555322
 20
0.7929449733711605
 10
11.59682023555322
 20
0.7599055994806955
 10
11.62985960944369
 20
0.7599055994806955
 10
11.62985960944369
 20
0.7268662255902305
 10
11.62985960944369
 20
0.6938268516997654
 10
11.66289898333415
 20
0.6607874778093004
 10
11.69593835722462
 20
0.6277481039188354
 10
11.69593835722462
 20
0.5947087300283704
 10
11.72897773111508
 20
0.5947087300283704
 10
11.76201710500555
 20
0.5947087300283704
 10
11.76201710500555
 20
0.5616693561379054
 10
11.79505647889601
 20
0.5616693561379054
 10
11.82809585278648
 20
0.5616693561379054
 10
11.86113522667694
 20
0.5616693561379054
 10
11.89417460056741
 20
0.5616693561379054
 10
11.92721397445787
 20
0.5616693561379054
 10
11.96025334834834
 20
0.5286299822474404
 10
11.9932927222388
 20
0.5286299822474404
 10
11.9932927222388
 20
0.4955906083569753
 10
12.02633209612927
 20
0.4955906083569753
 10
12.02633209612927
 20
0.4625512344665103
 10
12.05937147001973
 20
0.4625512344665103
 10
12.05937147001973
 20
0.4295118605760453
 10
12.0924108439102
 20
0.4295118605760453
 10
12.0924108439102
 20
0.3964724866855803
 10
12.12545021780066
 20
0.3634331127951153
 10
12.12545021780066
 20
0.3303937389046502
 10
12.15848959169113
 20
0.3303937389046502
 10
12.15848959169113
 20
0.2973543650141852
 10
12.15848959169113
 20
0.2643149911237202
 10
12.19152896558159
 20
0.2312756172332551
 10
12.19152896558159
 20
0.1982362433427901
 10
12.19152896558159
 20
0.1651968694523251
 10
12.19152896558159
 20
0.1321574955618601
 10
12.19152896558159
 20
0.09911812167139507
 10
12.19152896558159
 20
0.06607874778093005
 10
12.19152896558159
 20
0.03303937389046502
 10
12.19152896558159
 20
0
 10
12.19152896558159
 20
-0.03303937389046502
 10
12.19152896558159
 20
-0.06607874778093005
 10
12.19152896558159
 20
-0.09911812167139507
 10
12.22456833947206
 20
-0.1321574955618601
 10
12.22456833947206
 20
-0.1651968694523251
 10
12.22456833947206
 20
-0.1982362433427901
 10
12.19152896558159
 20
-0.1982362433427901
 10
12.19152896558159
 20
-0.2312756172332551
 10
12.19152896558159
 20
-0.2643149911237202
 10
12.19152896558159
 20
-0.2973543650141852
 10
12.15848959169113
 20
-0.2973543650141852
 10
12.15848959169113
 20
-0.3303937389046502
 10
12.15848959169113
 20
-0.3634331127951153
 10
12.15848959169113
 20
-0.3964724866855803
 10
12.15848959169113
 20
-0.4295118605760453
 10
12.15848959169113
 20
-0.4625512344665103
 10
12.15848959169113
 20
-0.4955906083569753
 10
12.15848959169113
 20
-0.5286299822474404
 10
12.15848959169113
 20
-0.5616693561379054
 10
12.15848959169113
 20
-0.5947087300283704
 10
12.15848959169113
 20
-0.6277481039188354
 10
12.19152896558159
 20
-0.6607874778093004
 10
12.19152896558159
 20
-0.6938268516997654
 10
12.22456833947206
 20
-0.7268662255902305
 10
12.22456833947206
 20
-0.7599055994806955
 10
12.22456833947206
 20
-0.7929449733711605
 10
12.22456833947206
 20
-0.8259843472616256
 10
12.22456833947206
 20
-0.8590237211520906
 10
12.22456833947206
 20
-0.8920630950425555
 10
12.19152896558159
 20
-0.9251024689330205
 10
12.19152896558159
 20
-0.9581418428234856
 10
12.19152896558159
 20
-0.9911812167139507
 10
12.15848959169113
 20
-1.024220590604416
 10
12.15848959169113
 20
-1.057259964494881
 10
12.15848959169113
 20
-1.090299338385346
 10
12.15848959169113
 20
-1.123338712275811
 10
12.12545021780066
 20
-1.123338712275811
 10
12.12545021780066
 20
-1.156378086166276
 10
12.0924108439102
 20
-1.189417460056741
 10
12.0924108439102
 20
-1.222456833947206
 10
12.05937147001973
 20
-1.255496207837671
 10
12.05937147001973
 20
-1.288535581728136
 10
12.05937147001973
 20
-1.321574955618601
 10
12.05937147001973
 20
-1.354614329509066
 10
12.05937147001973
 20
-1.387653703399531
 10
12.05937147001973
 20
-1.420693077289996
 10
12.02633209612927
 20
-1.453732451180461
 10
12.02633209612927
 20
-1.486771825070926
 10
12.02633209612927
 20
-1.519811198961391
 10
12.02633209612927
 20
-1.552850572851856
 10
12.02633209612927
 20
-1.585889946742321
 10
12.02633209612927
 20
-1.618929320632786
 10
12.02633209612927
 20
-1.651968694523251
 10
12.02633209612927
 20
-1.685008068413716
 10
12.02633209612927
 20
-1.718047442304181
 10
12.02633209612927
 20
-1.751086816194646
 10
12.02633209612927
 20
-1.784126190085111
 10
12.02633209612927
 20
-1.817165563975576
 10
11.9932927222388
 20
-1.817165563975576
 10
11.9932927222388
 20
-1.850204937866041
 10
11.9932927222388
 20
-1.883244311756506
 10
11.96025334834834
 20
-1.916283685646971
 10
11.96025334834834
 20
-1.949323059537436
 10
11.92721397445787
 20
-1.949323059537436
 10
11.89417460056741
 20
-1.982362433427901
 10
11.86113522667694
 20
-1.982362433427901
 10
11.86113522667694
 20
-2.015401807318366
 10
11.86113522667694
 20
-2.048441181208831
 10
11.82809585278648
 20
-2.081480555099296
 10
11.82809585278648
 20
-2.114519928989762
 10
11.79505647889601
 20
-2.147559302880226
 10
11.79505647889601
 20
-2.180598676770691
 10
11.79505647889601
 20
-2.213638050661157
 10
11.79505647889601
 20
-2.246677424551621
 10
11.76201710500555
 20
-2.279716798442087
 10
11.76201710500555
 20
-2.312756172332552
 10
11.76201710500555
 20
-2.345795546223016
 10
11.76201710500555
 20
-2.378834920113482
 10
11.72897773111508
 20
-2.411874294003947
 10
11.72897773111508
 20
-2.444913667894412
 10
11.69593835722462
 20
-2.444913667894412
 10
11.69593835722462
 20
-2.477953041784876
 10
11.69593835722462
 20
-2.510992415675342
 10
11.66289898333415
 20
-2.510992415675342
 10
11.66289898333415
 20
-2.544031789565806
 10
11.66289898333415
 20
-2.577071163456272
 10
11.66289898333415
 20
-2.610110537346737
 10
11.66289898333415
 20
-2.643149911237201
 10
11.62985960944369
 20
-2.676189285127667
 10
11.59682023555322
 20
-2.709228659018132
 10
11.56378086166276
 20
-2.742268032908597
 10
11.53074148777229
 20
-2.742268032908597
 10
11.53074148777229
 20
-2.775307406799062
 10
11.49770211388183
 20
-2.808346780689527
 10
11.49770211388183
 20
-2.841386154579992
 10
11.49770211388183
 20
-2.874425528470457
 10
11.46466273999136
 20
-2.874425528470457
 10
11.46466273999136
 20
-2.907464902360922
 10
11.4316233661009
 20
-2.940504276251387
 10
11.4316233661009
 20
-2.973543650141852
 10
11.39858399221043
 20
-2.973543650141852
 10
11.39858399221043
 20
-3.006583024032317
 10
11.36554461831997
 20
-3.039622397922782
 10
11.36554461831997
 20
-3.072661771813247
 10
11.3325052444295
 20
-3.105701145703712
 10
11.3325052444295
 20
-3.138740519594177
 10
11.3325052444295
 20
-3.171779893484642
 10
11.29946587053904
 20
-3.171779893484642
 10
11.29946587053904
 20
-3.204819267375107
 10
11.29946587053904
 20
-3.237858641265572
 10
11.26642649664857
 20
-3.237858641265572
 10
11.26642649664857
 20
-3.270898015156037
 10
11.23338712275811
 20
-3.303937389046502
 10
11.26642649664857
 20
-3.336976762936967
 10
11.26642649664857
 20
-3.370016136827433
 10
11.26642649664857
 20
-3.403055510717897
 10
11.26642649664857
 20
-3.436094884608362
 10
11.29946587053904
 20
-3.436094884608362
 10
11.29946587053904
 20
-3.469134258498827
 10
11.29946587053904
 20
-3.502173632389292
 10
11.29946587053904
 20
-3.535213006279757
 10
11.29946587053904
 20
-3.568252380170222
 10
11.26642649664857
 20
-3.601291754060687
 10
11.26642649664857
 20
-3.634331127951152
 10
11.26642649664857
 20
-3.667370501841618
 10
11.23338712275811
 20
-3.700409875732082
 10
11.23338712275811
 20
-3.733449249622547
 10
11.23338712275811
 20
-3.766488623513012
 10
11.23338712275811
 20
-3.799527997403477
 10
11.26642649664857
 20
-3.799527997403477
 10
11.26642649664857
 20
-3.832567371293942
 10
11.26642649664857
 20
-3.865606745184408
 10
11.29946587053904
 20
-3.865606745184408
 10
11.29946587053904
 20
-3.898646119074872
 10
11.29946587053904
 20
-3.931685492965338
 10
11.3325052444295
 20
-3.931685492965338
 10
11.3325052444295
 20
-3.964724866855803
 10
11.29946587053904
 20
-3.964724866855803
 10
11.29946587053904
 20
-3.997764240746268
 10
11.29946587053904
 20
-4.030803614636732
 10
11.29946587053904
 20
-4.063842988527198
 10
11.26642649664857
 20
-4.063842988527198
 10
11.26642649664857
 20
-4.096882362417663
 10
11.23338712275811
 20
-4.096882362417663
 10
11.23338712275811
 20
-4.129921736308128
 10
11.23338712275811
 20
-4.162961110198593
 10
11.20034774886764
 20
-4.162961110198593
 10
11.20034774886764
 20
-4.196000484089058
 10
11.20034774886764
 20
-4.229039857979523
 10
11.16730837497718
 20
-4.229039857979523
 10
11.16730837497718
 20
-4.262079231869987
 10
11.13426900108671
 20
-4.262079231869987
 10
11.13426900108671
 20
-4.295118605760453
 10
11.13426900108671
 20
-4.328157979650918
 10
11.10122962719625
 20
-4.328157979650918
 10
11.06819025330578
 20
-4.328157979650918
 10
11.03515087941532
 20
-4.361197353541383
 10
11.00211150552485
 20
-4.361197353541383
 10
10.96907213163439
 20
-4.394236727431847
 10
10.93603275774392
 20
-4.394236727431847
 10
10.90299338385346
 20
-4.394236727431847
 10
10.86995400996299
 20
-4.427276101322313
 10
10.83691463607253
 20
-4.427276101322313
 10
10.80387526218206
 20
-4.427276101322313
 10
10.7708358882916
 20
-4.460315475212778
 10
10.73779651440113
 20
-4.460315475212778
 10
10.70475714051067
 20
-4.460315475212778
 10
10.6717177666202
 20
-4.460315475212778
 10
10.63867839272974
 20
-4.460315475212778
 10
10.60563901883927
 20
-4.460315475212778
 10
10.57259964494881
 20
-4.460315475212778
 10
10.53956027105834
 20
-4.460315475212778
 10
10.47348152327741
 20
-4.460315475212778
 10
10.44044214938695
 20
-4.460315475212778
 10
10.40740277549648
 20
-4.460315475212778
 10
10.37436340160602
 20
-4.460315475212778
 10
10.34132402771555
 20
-4.460315475212778
 10
10.30828465382509
 20
-4.460315475212778
 10
10.27524527993462
 20
-4.460315475212778
 10
10.24220590604416
 20
-4.460315475212778
 10
10.20916653215369
 20
-4.460315475212778
 10
10.17612715826323
 20
-4.460315475212778
 10
10.14308778437276
 20
-4.460315475212778
 10
10.1100484104823
 20
-4.460315475212778
 10
10.07700903659183
 20
-4.427276101322313
 10
10.04396966270137
 20
-4.427276101322313
 10
10.0109302888109
 20
-4.427276101322313
 10
9.977890914920437
 20
-4.394236727431847
 10
9.944851541029971
 20
-4.394236727431847
 10
9.944851541029971
 20
-4.361197353541383
 10
9.911812167139505
 20
-4.361197353541383
 10
9.878772793249041
 20
-4.328157979650918
 10
9.845733419358577
 20
-4.295118605760453
 10
9.812694045468112
 20
-4.295118605760453
 10
9.779654671577648
 20
-4.295118605760453
 10
9.779654671577648
 20
-4.262079231869987
 10
9.746615297687182
 20
-4.262079231869987
 10
9.713575923796716
 20
-4.262079231869987
 10
9.713575923796716
 20
-4.229039857979523
 10
9.68053654990625
 20
-4.229039857979523
 10
9.647497176015786
 20
-4.196000484089058
 10
9.614457802125321
 20
-4.196000484089058
 10
9.581418428234857
 20
-4.196000484089058
 10
9.548379054344391
 20
-4.162961110198593
 10
9.482300306563461
 20
-4.162961110198593
 10
9.449260932672995
 20
-4.162961110198593
 10
9.416221558782532
 20
-4.129921736308128
 10
9.350142811001602
 20
-4.129921736308128
 10
9.317103437111136
 20
-4.129921736308128
 10
9.28406406322067
 20
-4.096882362417663
 10
9.251024689330206
 20
-4.096882362417663
 10
9.217985315439741
 20
-4.063842988527198
 10
9.184945941549275
 20
-4.063842988527198
 10
9.151906567658811
 20
-4.063842988527198
 10
9.118867193768347
 20
-4.030803614636732
 10
9.085827819877881
 20
-3.997764240746268
 10
9.052788445987415
 20
-3.997764240746268
 10
9.052788445987415
 20
-3.964724866855803
 10
9.019749072096952
 20
-3.964724866855803
 10
9.019749072096952
 20
-3.931685492965338
 10
8.986709698206486
 20
-3.931685492965338
 10
8.986709698206486
 20
-3.898646119074872
 10
8.95367032431602
 20
-3.898646119074872
 10
8.95367032431602
 20
-3.865606745184408
 10
8.920630950425556
 20
-3.865606745184408
 10
8.920630950425556
 20
-3.832567371293942
 10
8.887591576535092
 20
-3.799527997403477
 10
8.887591576535092
 20
-3.766488623513012
 10
8.887591576535092
 20
-3.733449249622547
 10
8.887591576535092
 20
-3.700409875732082
 10
8.854552202644626
 20
-3.700409875732082
 10
8.854552202644626
 20
-3.667370501841618
 10
8.821512828754161
 20
-3.634331127951152
 10
8.788473454863695
 20
-3.601291754060687
 10
8.755434080973231
 20
-3.568252380170222
 10
8.722394707082765
 20
-3.568252380170222
 10
8.722394707082765
 20
-3.535213006279757
 10
8.689355333192301
 20
-3.535213006279757
 10
8.689355333192301
 20
-3.502173632389292
 10
8.656315959301836
 20
-3.502173632389292
 10
8.656315959301836
 20
-3.469134258498827
 10
8.623276585411372
 20
-3.469134258498827
 10
8.623276585411372
 20
-3.436094884608362
 10
8.590237211520906
 20
-3.436094884608362
 10
8.590237211520906
 20
-3.403055510717897
 10
8.55719783763044
 20
-3.403055510717897
 10
8.524158463739974
 20
-3.370016136827433
 10
8.49111908984951
 20
-3.370016136827433
 10
8.458079715959046
 20
-3.336976762936967
 10
8.425040342068581
 20
-3.336976762936967
 10
8.392000968178117
 20
-3.303937389046502
 10
8.358961594287651
 20
-3.303937389046502
 10
8.325922220397185
 20
-3.303937389046502
 10
8.292882846506719
 20
-3.270898015156037
 10
8.259843472616256
 20
-3.270898015156037
 10
8.22680409872579
 20
-3.270898015156037
 10
8.22680409872579
 20
-3.237858641265572
 10
8.193764724835326
 20
-3.237858641265572
 10
8.16072535094486
 20
-3.237858641265572
 10
8.127685977054396
 20
-3.204819267375107
 10
8.09464660316393
 20
-3.204819267375107
 10
8.061607229273465
 20
-3.204819267375107
 10
8.028567855382999
 20
-3.204819267375107
 10
7.995528481492536
 20
-3.171779893484642
 10
7.96248910760207
 20
-3.171779893484642
 10
7.929449733711605
 20
-3.138740519594177
 10
7.896410359821139
 20
-3.138740519594177
 10
7.863370985930676
 20
-3.138740519594177
 10
7.83033161204021
 20
-3.105701145703712
 10
7.797292238149745
 20
-3.105701145703712
 10
7.764252864259279
 20
-3.105701145703712
 10
7.764252864259279
 20
-3.072661771813247
 10
7.731213490368815
 20
-3.072661771813247
 10
7.69817411647835
 20
-3.072661771813247
 10
7.665134742587885
 20
-3.072661771813247
 10
7.632095368697421
 20
-3.039622397922782
 10
7.599055994806955
 20
-3.039622397922782
 10
7.56601662091649
 20
-3.039622397922782
 10
7.56601662091649
 20
-3.006583024032317
 10
7.532977247026024
 20
-3.006583024032317
 10
7.49993787313556
 20
-2.973543650141852
 10
7.466898499245095
 20
-2.973543650141852
 10
7.43385912535463
 20
-2.940504276251387
 10
7.3677803775737
 20
-2.940504276251387
 10
7.334741003683235
 20
-2.907464902360922
 10
7.268662255902305
 20
-2.907464902360922
 10
7.23562288201184
 20
-2.907464902360922
 10
7.202583508121375
 20
-2.874425528470457
 10
7.136504760340444
 20
-2.874425528470457
 10
7.10346538644998
 20
-2.874425528470457
 10
7.070426012559515
 20
-2.874425528470457
 10
7.037386638669049
 20
-2.841386154579992
 10
7.004347264778585
 20
-2.841386154579992
 10
6.97130789088812
 20
-2.841386154579992
 10
6.938268516997654
 20
-2.841386154579992
 10
6.905229143107189
 20
-2.808346780689527
 10
6.872189769216725
 20
-2.808346780689527
 10
6.83915039532626
 20
-2.808346780689527
 10
6.806111021435794
 20
-2.808346780689527
 10
6.773071647545329
 20
-2.808346780689527
 10
6.773071647545329
 20
-2.775307406799062
 10
6.740032273654865
 20
-2.775307406799062
 10
6.706992899764399
 20
-2.742268032908597
 10
6.673953525873935
 20
-2.742268032908597
 10
6.673953525873935
 20
-2.775307406799062
 10
6.673953525873935
 20
-2.808346780689527
 10
6.706992899764399
 20
-2.808346780689527
 10
6.706992899764399
 20
-2.841386154579992
 10
6.706992899764399
 20
-2.874425528470457
 10
6.740032273654865
 20
-2.874425528470457
 10
6.740032273654865
 20
-2.907464902360922
 10
6.773071647545329
 20
-2.940504276251387
 10
6.773071647545329
 20
-2.973543650141852
 10
6.806111021435794
 20
-3.006583024032317
 10
6.83915039532626
 20
-3.039622397922782
 10
6.83915039532626
 20
-3.072661771813247
 10
6.872189769216725
 20
-3.105701145703712
 10
6.905229143107189
 20
-3.138740519594177
 10
6.938268516997654
 20
-3.138740519594177
 10
6.97130789088812
 20
-3.171779893484642
 10
7.004347264778585
 20
-3.204819267375107
 10
7.070426012559515
 20
-3.204819267375107
 10
7.10346538644998
 20
-3.237858641265572
 10
7.136504760340444
 20
-3.237858641265572
 10
7.202583508121375
 20
-3.270898015156037
 10
7.23562288201184
 20
-3.270898015156037
 10
7.268662255902305
 20
-3.303937389046502
 10
7.301701629792769
 20
-3.303937389046502
 10
7.334741003683235
 20
-3.303937389046502
 10
7.334741003683235
 20
-3.336976762936967
 10
7.3677803775737
 20
-3.336976762936967
 10
7.400819751464164
 20
-3.370016136827433
 10
7.43385912535463
 20
-3.370016136827433
 10
7.466898499245095
 20
-3.403055510717897
 10
7.49993787313556
 20
-3.403055510717897
 10
7.532977247026024
 20
-3.436094884608362
 10
7.599055994806955
 20
-3.436094884608362
 10
7.632095368697421
 20
-3.469134258498827
 10
7.665134742587885
 20
-3.469134258498827
 10
7.69817411647835
 20
-3.502173632389292
 10
7.731213490368815
 20
-3.502173632389292
 10
7.731213490368815
 20
-3.535213006279757
 10
7.764252864259279
 20
-3.535213006279757
 10
7.797292238149745
 20
-3.535213006279757
 10
7.83033161204021
 20
-3.568252380170222
 10
7.863370985930676
 20
-3.568252380170222
 10
7.896410359821139
 20
-3.601291754060687
 10
7.929449733711605
 20
-3.601291754060687
 10
7.995528481492536
 20
-3.634331127951152
 10
8.028567855382999
 20
-3.634331127951152
 10
8.061607229273465
 20
-3.667370501841618
 10
8.09464660316393
 20
-3.667370501841618
 10
8.127685977054396
 20
-3.667370501841618
 10
8.127685977054396
 20
-3.700409875732082
 10
8.16072535094486
 20
-3.700409875732082
 10
8.193764724835326
 20
-3.733449249622547
 10
8.22680409872579
 20
-3.766488623513012
 10
8.259843472616256
 20
-3.799527997403477
 10
8.259843472616256
 20
-3.832567371293942
 10
8.292882846506719
 20
-3.832567371293942
 10
8.292882846506719
 20
-3.865606745184408
 10
8.325922220397185
 20
-3.865606745184408
 10
8.325922220397185
 20
-3.898646119074872
 10
8.358961594287651
 20
-3.898646119074872
 10
8.358961594287651
 20
-3.931685492965338
 10
8.392000968178117
 20
-3.931685492965338
 10
8.392000968178117
 20
-3.964724866855803
 10
8.425040342068581
 20
-3.964724866855803
 10
8.425040342068581
 20
-3.997764240746268
 10
8.458079715959046
 20
-3.997764240746268
 10
8.458079715959046
 20
-4.030803614636732
 10
8.49111908984951
 20
-4.030803614636732
 10
8.49111908984951
 20
-4.063842988527198
 10
8.524158463739974
 20
-4.096882362417663
 10
8.524158463739974
 20
-4.129921736308128
 10
8.55719783763044
 20
-4.162961110198593
 10
8.55719783763044
 20
-4.196000484089058
 10
8.590237211520906
 20
-4.196000484089058
 10
8.623276585411372
 20
-4.229039857979523
 10
8.656315959301836
 20
-4.229039857979523
 10
8.689355333192301
 20
-4.262079231869987
 10
8.722394707082765
 20
-4.262079231869987
 10
8.722394707082765
 20
-4.295118605760453
 10
8.755434080973231
 20
-4.295118605760453
 10
8.755434080973231
 20
-4.328157979650918
 10
8.788473454863695
 20
-4.328157979650918
 10
8.821512828754161
 20
-4.328157979650918
 10
8.821512828754161
 20
-4.361197353541383
 10
8.854552202644626
 20
-4.361197353541383
 10
8.887591576535092
 20
-4.361197353541383
 10
8.920630950425556
 20
-4.361197353541383
 10
8.95367032431602
 20
-4.394236727431847
 10
8.986709698206486
 20
-4.394236727431847
 10
9.019749072096952
 20
-4.394236727431847
 10
9.052788445987415
 20
-4.394236727431847
 10
9.085827819877881
 20
-4.427276101322313
 10
9.118867193768347
 20
-4.427276101322313
 10
9.151906567658811
 20
-4.427276101322313
 10
9.184945941549275
 20
-4.460315475212778
 10
9.217985315439741
 20
-4.460315475212778
 10
9.251024689330206
 20
-4.460315475212778
 10
9.28406406322067
 20
-4.460315475212778
 10
9.28406406322067
 20
-4.493354849103243
 10
9.317103437111136
 20
-4.493354849103243
 10
9.350142811001602
 20
-4.493354849103243
 10
9.383182184892066
 20
-4.493354849103243
 10
9.383182184892066
 20
-4.526394222993708
 10
9.416221558782532
 20
-4.526394222993708
 10
9.449260932672995
 20
-4.559433596884173
 10
9.482300306563461
 20
-4.559433596884173
 10
9.515339680453927
 20
-4.559433596884173
 10
9.548379054344391
 20
-4.592472970774637
 10
9.581418428234857
 20
-4.625512344665103
 10
9.614457802125321
 20
-4.625512344665103
 10
9.647497176015786
 20
-4.625512344665103
 10
9.647497176015786
 20
-4.658551718555568
 10
9.68053654990625
 20
-4.658551718555568
 10
9.713575923796716
 20
-4.658551718555568
 10
9.713575923796716
 20
-4.691591092446033
 10
9.746615297687182
 20
-4.691591092446033
 10
9.779654671577648
 20
-4.724630466336498
 10
9.812694045468112
 20
-4.724630466336498
 10
9.845733419358577
 20
-4.724630466336498
 10
9.878772793249041
 20
-4.724630466336498
 10
9.878772793249041
 20
-4.757669840226963
 10
9.911812167139505
 20
-4.757669840226963
 10
9.944851541029971
 20
-4.757669840226963
 10
9.977890914920437
 20
-4.757669840226963
 10
10.0109302888109
 20
-4.757669840226963
 10
10.04396966270137
 20
-4.757669840226963
 10
10.07700903659183
 20
-4.757669840226963
 10
10.1100484104823
 20
-4.757669840226963
 10
10.14308778437276
 20
-4.724630466336498
 10
10.17612715826323
 20
-4.724630466336498
 10
10.24220590604416
 20
-4.724630466336498
 10
10.27524527993462
 20
-4.724630466336498
 10
10.30828465382509
 20
-4.724630466336498
 10
10.34132402771555
 20
-4.724630466336498
 10
10.37436340160602
 20
-4.724630466336498
 10
10.40740277549648
 20
-4.724630466336498
 10
10.44044214938695
 20
-4.724630466336498
 10
10.47348152327741
 20
-4.724630466336498
 10
10.50652089716788
 20
-4.724630466336498
 10
10.57259964494881
 20
-4.724630466336498
 10
10.60563901883927
 20
-4.724630466336498
 10
10.63867839272974
 20
-4.724630466336498
 10
10.6717177666202
 20
-4.724630466336498
 10
10.70475714051067
 20
-4.724630466336498
 10
10.73779651440113
 20
-4.724630466336498
 10
10.7708358882916
 20
-4.724630466336498
 10
10.80387526218206
 20
-4.724630466336498
 10
10.83691463607253
 20
-4.724630466336498
 10
10.86995400996299
 20
-4.757669840226963
 10
10.90299338385346
 20
-4.757669840226963
 10
10.93603275774392
 20
-4.790709214117428
 10
10.96907213163439
 20
-4.790709214117428
 10
11.00211150552485
 20
-4.823748588007893
 10
11.03515087941532
 20
-4.823748588007893
 10
11.06819025330578
 20
-4.856787961898358
 10
11.10122962719625
 20
-4.856787961898358
 10
11.13426900108671
 20
-4.889827335788824
 10
11.13426900108671
 20
-4.922866709679289
 10
11.13426900108671
 20
-4.955906083569753
 10
11.10122962719625
 20
-4.955906083569753
 10
11.10122962719625
 20
-4.988945457460218
 10
11.06819025330578
 20
-4.988945457460218
 10
11.06819025330578
 20
-5.021984831350683
 10
11.03515087941532
 20
-5.021984831350683
 10
11.03515087941532
 20
-5.055024205241148
 10
11.00211150552485
 20
-5.055024205241148
 10
10.96907213163439
 20
-5.055024205241148
 10
10.93603275774392
 20
-5.088063579131613
 10
10.90299338385346
 20
-5.088063579131613
 10
10.86995400996299
 20
-5.088063579131613
 10
10.83691463607253
 20
-5.121102953022079
 10
10.80387526218206
 20
-5.121102953022079
 10
10.7708358882916
 20
-5.121102953022079
 10
10.7708358882916
 20
-5.154142326912543
 10
10.73779651440113
 20
-5.154142326912543
 10
10.70475714051067
 20
-5.154142326912543
 10
10.6717177666202
 20
-5.187181700803008
 10
10.63867839272974
 20
-5.187181700803008
 10
10.63867839272974
 20
-5.220221074693473
 10
10.60563901883927
 20
-5.220221074693473
 10
10.60563901883927
 20
-5.253260448583939
 10
10.57259964494881
 20
-5.286299822474403
 10
10.53956027105834
 20
-5.319339196364869
 10
10.50652089716788
 20
-5.319339196364869
 10
10.50652089716788
 20
-5.352378570255333
 10
10.47348152327741
 20
-5.352378570255333
 10
10.44044214938695
 20
-5.385417944145798
 10
10.40740277549648
 20
-5.418457318036263
 10
10.37436340160602
 20
-5.418457318036263
 10
10.37436340160602
 20
-5.451496691926729
 10
10.34132402771555
 20
-5.451496691926729
 10
10.34132402771555
 20
-5.484536065817194
 10
10.30828465382509
 20
-5.484536065817194
 10
10.30828465382509
 20
-5.517575439707659
 10
10.27524527993462
 20
-5.517575439707659
 10
10.27524527993462
 20
-5.550614813598123
 10
10.24220590604416
 20
-5.550614813598123
 10
10.20916653215369
 20
-5.583654187488589
 10
10.17612715826323
 20
-5.616693561379054
 10
10.17612715826323
 20
-5.649732935269518
 10
10.14308778437276
 20
-5.682772309159984
 10
10.14308778437276
 20
-5.71581168305045
 10
10.1100484104823
 20
-5.71581168305045
 10
10.1100484104823
 20
-5.748851056940913
 10
10.07700903659183
 20
-5.781890430831378
 10
10.07700903659183
 20
-5.814929804721844
 10
10.04396966270137
 20
-5.847969178612309
 10
10.04396966270137
 20
-5.881008552502774
 10
10.04396966270137
 20
-5.914047926393239
 10
10.04396966270137
 20
-5.947087300283704
 10
10.04396966270137
 20
-5.980126674174169
 10
10.04396966270137
 20
-6.013166048064633
 10
10.0109302888109
 20
-6.013166048064633
 10
10.0109302888109
 20
-6.046205421955099
 10
10.0109302888109
 20
-6.079244795845564
 10
10.0109302888109
 20
-6.11228416973603
 10
9.977890914920437
 20
-6.145323543626493
 10
9.977890914920437
 20
-6.178362917516959
 10
9.977890914920437
 20
-6.211402291407424
 10
9.977890914920437
 20
-6.24444166529789
 10
9.977890914920437
 20
-6.277481039188354
 10
10.0109302888109
 20
-6.31052041307882
 10
10.0109302888109
 20
-6.343559786969284
 10
10.04396966270137
 20
-6.376599160859748
 10
10.04396966270137
 20
-6.409638534750214
 10
10.0109302888109
 20
-6.409638534750214
 10
10.0109302888109
 20
-6.442677908640679
 10
10.0109302888109
 20
-6.475717282531145
 10
10.0109302888109
 20
-6.508756656421609
 10
10.0109302888109
 20
-6.541796030312074
 10
9.977890914920437
 20
-6.541796030312074
 10
9.977890914920437
 20
-6.574835404202539
 10
9.944851541029971
 20
-6.574835404202539
 10
9.944851541029971
 20
-6.607874778093005
 10
9.944851541029971
 20
-6.640914151983469
 10
9.911812167139505
 20
-6.673953525873935
 10
9.911812167139505
 20
-6.706992899764399
 10
9.878772793249041
 20
-6.706992899764399
 10
9.878772793249041
 20
-6.740032273654865
 10
9.845733419358577
 20
-6.773071647545329
 10
9.812694045468112
 20
-6.806111021435794
 10
9.779654671577648
 20
-6.806111021435794
 10
9.746615297687182
 20
-6.83915039532626
 10
9.713575923796716
 20
-6.83915039532626
 10
9.68053654990625
 20
-6.83915039532626
 10
9.647497176015786
 20
-6.83915039532626
 10
9.614457802125321
 20
-6.872189769216725
 10
9.581418428234857
 20
-6.872189769216725
 10
9.548379054344391
 20
-6.872189769216725
 10
9.515339680453927
 20
-6.872189769216725
 10
9.482300306563461
 20
-6.872189769216725
 10
9.449260932672995
 20
-6.872189769216725
 10
9.416221558782532
 20
-6.872189769216725
 10
9.383182184892066
 20
-6.872189769216725
 10
9.350142811001602
 20
-6.905229143107189
 10
9.317103437111136
 20
-6.905229143107189
 10
9.28406406322067
 20
-6.905229143107189
 10
9.251024689330206
 20
-6.905229143107189
 10
9.217985315439741
 20
-6.905229143107189
 10
9.184945941549275
 20
-6.905229143107189
 10
9.151906567658811
 20
-6.905229143107189
 10
9.118867193768347
 20
-6.905229143107189
 10
9.085827819877881
 20
-6.905229143107189
 10
9.052788445987415
 20
-6.905229143107189
 10
9.019749072096952
 20
-6.938268516997654
 10
8.986709698206486
 20
-6.938268516997654
 10
8.95367032431602
 20
-6.938268516997654
 10
8.920630950425556
 20
-6.938268516997654
 10
8.887591576535092
 20
-6.938268516997654
 10
8.854552202644626
 20
-6.938268516997654
 10
8.821512828754161
 20
-6.938268516997654
 10
8.788473454863695
 20
-6.938268516997654
 10
8.755434080973231
 20
-6.938268516997654
 10
8.722394707082765
 20
-6.938268516997654
 10
8.689355333192301
 20
-6.938268516997654
 10
8.656315959301836
 20
-6.938268516997654
 10
8.623276585411372
 20
-6.97130789088812
 10
8.590237211520906
 20
-6.97130789088812
 10
8.55719783763044
 20
-6.97130789088812
 10
8.524158463739974
 20
-6.97130789088812
 10
8.524158463739974
 20
-7.004347264778585
 10
8.49111908984951
 20
-7.004347264778585
 10
8.458079715959046
 20
-7.037386638669049
 10
8.425040342068581
 20
-7.037386638669049
 10
8.425040342068581
 20
-7.070426012559515
 10
8.392000968178117
 20
-7.070426012559515
 10
8.392000968178117
 20
-7.10346538644998
 10
8.358961594287651
 20
-7.10346538644998
 10
8.358961594287651
 20
-7.136504760340444
 10
8.325922220397185
 20
-7.136504760340444
 10
8.325922220397185
 20
-7.169544134230909
 10
8.325922220397185
 20
-7.202583508121375
 10
8.292882846506719
 20
-7.202583508121375
 10
8.292882846506719
 20
-7.23562288201184
 10
8.292882846506719
 20
-7.268662255902305
 10
8.259843472616256
 20
-7.268662255902305
 10
8.259843472616256
 20
-7.301701629792769
 10
8.259843472616256
 20
-7.334741003683235
 10
8.22680409872579
 20
-7.334741003683235
 10
8.22680409872579
 20
-7.3677803775737
 10
8.22680409872579
 20
-7.400819751464164
 10
8.22680409872579
 20
-7.43385912535463
 10
8.22680409872579
 20
-7.466898499245095
 10
8.22680409872579
 20
-7.49993787313556
 10
8.22680409872579
 20
-7.532977247026024
 10
8.259843472616256
 20
-7.532977247026024
 10
8.259843472616256
 20
-7.56601662091649
 10
8.259843472616256
 20
-7.599055994806955
 10
8.259843472616256
 20
-7.632095368697421
 10
8.259843472616256
 20
-7.665134742587885
 10
8.22680409872579
 20
-7.665134742587885
 10
8.259843472616256
 20
-7.69817411647835
 10
8.259843472616256
 20
-7.731213490368815
 10
8.292882846506719
 20
-7.764252864259279
 10
8.292882846506719
 20
-7.797292238149745
 10
8.292882846506719
 20
-7.83033161204021
 10
8.292882846506719
 20
-7.863370985930676
 10
8.292882846506719
 20
-7.896410359821139
 10
8.292882846506719
 20
-7.929449733711605
 10
8.259843472616256
 20
-7.96248910760207
 10
8.259843472616256
 20
-7.995528481492536
 10
8.259843472616256
 20
-8.028567855382999
 10
8.292882846506719
 20
-8.061607229273465
 10
8.292882846506719
 20
-8.09464660316393
 10
8.292882846506719
 20
-8.127685977054396
 10
8.292882846506719
 20
-8.16072535094486
 10
8.325922220397185
 20
-8.193764724835326
 10
8.325922220397185
 20
-8.22680409872579
 10
8.325922220397185
 20
-8.259843472616256
 10
8.358961594287651
 20
-8.259843472616256
 10
8.358961594287651
 20
-8.292882846506719
 10
8.358961594287651
 20
-8.325922220397185
 10
8.358961594287651
 20
-8.358961594287651
 10
8.358961594287651
 20
-8.392000968178117
 10
8.392000968178117
 20
-8.425040342068581
 10
8.392000968178117
 20
-8.458079715959046
 10
8.392000968178117
 20
-8.49111908984951
 10
8.392000968178117
 20
-8.524158463739974
 10
8.392000968178117
 20
-8.55719783763044
 10
8.425040342068581
 20
-8.55719783763044
 10
8.392000968178117
 20
-8.590237211520906
 10
8.392000968178117
 20
-8.623276585411372
 10
8.392000968178117
 20
-8.656315959301836
 10
8.358961594287651
 20
-8.689355333192301
 10
8.325922220397185
 20
-8.722394707082765
 10
8.292882846506719
 20
-8.755434080973231
 10
8.292882846506719
 20
-8.788473454863695
 10
8.292882846506719
 20
-8.821512828754161
 10
8.292882846506719
 20
-8.854552202644626
 10
8.259843472616256
 20
-8.887591576535092
 10
8.259843472616256
 20
-8.920630950425556
 10
8.22680409872579
 20
-8.95367032431602
 10
8.22680409872579
 20
-8.986709698206486
 10
8.193764724835326
 20
-9.019749072096952
 10
8.193764724835326
 20
-9.052788445987415
 10
8.193764724835326
 20
-9.085827819877881
 10
8.16072535094486
 20
-9.085827819877881
 10
8.16072535094486
 20
-9.118867193768347
 10
8.127685977054396
 20
-9.151906567658811
 10
8.09464660316393
 20
-9.184945941549275
 10
8.061607229273465
 20
-9.217985315439741
 10
8.028567855382999
 20
-9.251024689330206
 10
7.995528481492536
 20
-9.28406406322067
 10
7.995528481492536
 20
-9.317103437111136
 10
7.96248910760207
 20
-9.317103437111136
 10
7.96248910760207
 20
-9.350142811001602
 10
7.929449733711605
 20
-9.383182184892066
 10
7.929449733711605
 20
-9.416221558782532
 10
7.896410359821139
 20
-9.449260932672995
 10
7.896410359821139
 20
-9.482300306563461
 10
7.863370985930676
 20
-9.482300306563461
 10
7.863370985930676
 20
-9.515339680453927
 10
7.83033161204021
 20
-9.515339680453927
 10
7.83033161204021
 20
-9.548379054344391
 10
7.797292238149745
 20
-9.548379054344391
 10
7.797292238149745
 20
-9.581418428234857
 10
7.764252864259279
 20
-9.581418428234857
 10
7.731213490368815
 20
-9.614457802125321
 10
7.69817411647835
 20
-9.647497176015786
 10
7.665134742587885
 20
-9.647497176015786
 10
7.632095368697421
 20
-9.647497176015786
 10
7.632095368697421
 20
-9.68053654990625
 10
7.599055994806955
 20
-9.68053654990625
 10
7.56601662091649
 20
-9.68053654990625
 10
7.56601662091649
 20
-9.713575923796716
 10
7.532977247026024
 20
-9.713575923796716
 10
7.49993787313556
 20
-9.713575923796716
 10
7.466898499245095
 20
-9.746615297687182
 10
7.43385912535463
 20
-9.746615297687182
 10
7.400819751464164
 20
-9.746615297687182
 10
7.3677803775737
 20
-9.746615297687182
 10
7.334741003683235
 20
-9.746615297687182
 10
7.301701629792769
 20
-9.746615297687182
 10
7.268662255902305
 20
-9.746615297687182
 10
7.202583508121375
 20
-9.746615297687182
 10
7.169544134230909
 20
-9.779654671577648
 10
7.136504760340444
 20
-9.779654671577648
 10
7.10346538644998
 20
-9.779654671577648
 10
7.070426012559515
 20
-9.779654671577648
 10
7.037386638669049
 20
-9.779654671577648
 10
7.004347264778585
 20
-9.779654671577648
 10
6.97130789088812
 20
-9.779654671577648
 10
6.97130789088812
 20
-9.812694045468112
 10
6.938268516997654
 20
-9.812694045468112
 10
6.905229143107189
 20
-9.812694045468112
 10
6.872189769216725
 20
-9.812694045468112
 10
6.83915039532626
 20
-9.812694045468112
 10
6.806111021435794
 20
-9.812694045468112
 10
6.773071647545329
 20
-9.812694045468112
 10
6.740032273654865
 20
-9.845733419358577
 10
6.706992899764399
 20
-9.812694045468112
 10
6.673953525873935
 20
-9.812694045468112
 10
6.673953525873935
 20
-9.845733419358577
 10
6.640914151983469
 20
-9.845733419358577
 10
6.607874778093005
 20
-9.845733419358577
 10
6.574835404202539
 20
-9.845733419358577
 10
6.541796030312074
 20
-9.845733419358577
 10
6.508756656421609
 20
-9.845733419358577
 10
6.475717282531145
 20
-9.845733419358577
 10
6.442677908640679
 20
-9.845733419358577
 10
6.409638534750214
 20
-9.845733419358577
 10
6.376599160859748
 20
-9.845733419358577
 10
6.343559786969284
 20
-9.845733419358577
 10
6.31052041307882
 20
-9.845733419358577
 10
6.277481039188354
 20
-9.878772793249041
 10
6.24444166529789
 20
-9.878772793249041
 10
6.211402291407424
 20
-9.878772793249041
 10
6.178362917516959
 20
-9.878772793249041
 10
6.145323543626493
 20
-9.878772793249041
 10
6.145323543626493
 20
-9.911812167139505
 10
6.11228416973603
 20
-9.911812167139505
 10
6.079244795845564
 20
-9.911812167139505
 10
6.046205421955099
 20
-9.911812167139505
 10
6.046205421955099
 20
-9.944851541029971
 10
6.013166048064633
 20
-9.944851541029971
 10
5.980126674174169
 20
-9.944851541029971
 10
5.947087300283704
 20
-9.977890914920437
 10
5.914047926393239
 20
-9.977890914920437
 10
5.914047926393239
 20
-10.0109302888109
 10
5.881008552502774
 20
-10.0109302888109
 10
5.847969178612309
 20
-10.04396966270137
 10
5.814929804721844
 20
-10.04396966270137
 10
5.781890430831378
 20
-10.07700903659183
 10
5.748851056940913
 20
-10.07700903659183
 10
5.748851056940913
 20
-10.1100484104823
 10
5.71581168305045
 20
-10.1100484104823
 10
5.71581168305045
 20
-10.14308778437276
 10
5.682772309159984
 20
-10.17612715826323
 10
5.649732935269518
 20
-10.17612715826323
 10
5.616693561379054
 20
-10.20916653215369
 10
5.616693561379054
 20
-10.24220590604416
 10
5.583654187488589
 20
-10.24220590604416
 10
5.583654187488589
 20
-10.27524527993462
 10
5.550614813598123
 20
-10.27524527993462
 10
5.550614813598123
 20
-10.30828465382509
 10
5.517575439707659
 20
-10.34132402771555
 10
5.484536065817194
 20
-10.34132402771555
 10
5.484536065817194
 20
-10.37436340160602
 10
5.451496691926729
 20
-10.37436340160602
 10
5.418457318036263
 20
-10.40740277549648
 10
5.385417944145798
 20
-10.40740277549648
 10
5.385417944145798
 20
-10.44044214938695
 10
5.352378570255333
 20
-10.44044214938695
 10
5.319339196364869
 20
-10.47348152327741
 10
5.286299822474403
 20
-10.47348152327741
 10
5.286299822474403
 20
-10.50652089716788
 10
5.286299822474403
 20
-10.53956027105834
 10
5.253260448583939
 20
-10.53956027105834
 10
5.253260448583939
 20
-10.57259964494881
 10
5.220221074693473
 20
-10.60563901883927
 10
5.220221074693473
 20
-10.63867839272974
 10
5.220221074693473
 20
-10.6717177666202
 10
5.220221074693473
 20
-10.70475714051067
 10
5.187181700803008
 20
-10.70475714051067
 10
5.187181700803008
 20
-10.73779651440113
 10
5.187181700803008
 20
-10.7708358882916
 10
5.154142326912543
 20
-10.7708358882916
 10
5.154142326912543
 20
-10.80387526218206
 10
5.154142326912543
 20
-10.83691463607253
 10
5.154142326912543
 20
-10.86995400996299
 10
5.121102953022079
 20
-10.90299338385346
 10
5.088063579131613
 20
-10.93603275774392
 10
5.055024205241148
 20
-10.96907213163439
 10
5.021984831350683
 20
-10.96907213163439
 10
5.021984831350683
 20
-11.00211150552485
 10
4.988945457460218
 20
-11.03515087941532
 10
4.955906083569753
 20
-11.03515087941532
 10
4.955906083569753
 20
-11.06819025330578
 10
4.922866709679289
 20
-11.06819025330578
 10
4.889827335788824
 20
-11.06819025330578
 10
4.889827335788824
 20
-11.10122962719625
 10
4.856787961898358
 20
-11.10122962719625
 10
4.856787961898358
 20
-11.13426900108671
 10
4.823748588007893
 20
-11.13426900108671
 10
4.790709214117428
 20
-11.13426900108671
 10
4.790709214117428
 20
-11.16730837497718
 10
4.757669840226963
 20
-11.16730837497718
 10
4.724630466336498
 20
-11.16730837497718
 10
4.724630466336498
 20
-11.20034774886764
 10
4.691591092446033
 20
-11.20034774886764
 10
4.658551718555568
 20
-11.23338712275811
 10
4.625512344665103
 20
-11.23338712275811
 10
4.592472970774637
 20
-11.23338712275811
 10
4.592472970774637
 20
-11.26642649664857
 10
4.559433596884173
 20
-11.26642649664857
 10
4.526394222993708
 20
-11.26642649664857
 10
4.493354849103243
 20
-11.29946587053904
 10
4.460315475212778
 20
-11.29946587053904
 10
4.427276101322313
 20
-11.29946587053904
 10
4.394236727431847
 20
-11.29946587053904
 10
4.361197353541383
 20
-11.29946587053904
 10
4.328157979650918
 20
-11.29946587053904
 10
4.295118605760453
 20
-11.3325052444295
 10
4.262079231869987
 20
-11.3325052444295
 10
4.262079231869987
 20
-11.29946587053904
 10
4.229039857979523
 20
-11.29946587053904
 10
4.229039857979523
 20
-11.26642649664857
 10
4.196000484089058
 20
-11.26642649664857
 10
4.196000484089058
 20
-11.23338712275811
 10
4.162961110198593
 20
-11.23338712275811
 10
4.162961110198593
 20
-11.20034774886764
 10
4.129921736308128
 20
-11.20034774886764
 10
4.096882362417663
 20
-11.16730837497718
 10
4.063842988527198
 20
-11.16730837497718
 10
4.063842988527198
 20
-11.13426900108671
 10
4.030803614636732
 20
-11.13426900108671
 10
3.997764240746268
 20
-11.13426900108671
 10
3.964724866855803
 20
-11.13426900108671
 10
3.931685492965338
 20
-11.10122962719625
 10
3.898646119074872
 20
-11.10122962719625
 10
3.865606745184408
 20
-11.10122962719625
 10
3.799527997403477
 20
-11.10122962719625
 10
3.766488623513012
 20
-11.10122962719625
 10
3.700409875732082
 20
-11.10122962719625
 10
3.634331127951152
 20
-11.10122962719625
 10
3.535213006279757
 20
-11.06819025330578
 10
3.469134258498827
 20
-11.06819025330578
 10
3.370016136827433
 20
-11.06819025330578
 10
3.303937389046502
 20
-11.06819025330578
 10
3.237858641265572
 20
-11.06819025330578
 10
3.138740519594177
 20
-11.06819025330578
 10
3.105701145703712
 20
-11.06819025330578
 10
3.039622397922782
 20
-11.06819025330578
 10
2.973543650141852
 20
-11.06819025330578
 10
2.940504276251387
 20
-11.06819025330578
 10
2.907464902360922
 20
-11.06819025330578
 10
2.841386154579992
 20
-11.03515087941532
 10
2.808346780689527
 20
-11.03515087941532
 10
2.775307406799062
 20
-11.03515087941532
 10
2.742268032908597
 20
-11.03515087941532
 10
2.676189285127667
 20
-11.03515087941532
 10
2.643149911237201
 20
-11.03515087941532
 10
2.610110537346737
 20
-11.03515087941532
 10
2.577071163456272
 20
-11.03515087941532
 10
2.544031789565806
 20
-11.00211150552485
 10
2.510992415675342
 20
-11.03515087941532
 10
2.544031789565806
 20
-11.00211150552485
 10
2.510992415675342
 20
-11.00211150552485
 10
2.477953041784876
 20
-11.00211150552485
 10
2.444913667894412
 20
-10.96907213163439
 10
2.411874294003947
 20
-10.96907213163439
 10
2.378834920113482
 20
-10.96907213163439
 10
2.345795546223016
 20
-10.96907213163439
 10
2.312756172332552
 20
-10.96907213163439
 10
2.312756172332552
 20
-11.00211150552485
 10
2.246677424551621
 20
-11.00211150552485
 10
2.213638050661157
 20
-11.00211150552485
 10
2.180598676770691
 20
-11.03515087941532
 10
2.147559302880226
 20
-11.03515087941532
 10
2.114519928989762
 20
-11.03515087941532
 10
2.081480555099296
 20
-11.03515087941532
 10
2.048441181208831
 20
-11.06819025330578
 10
2.015401807318366
 20
-11.06819025330578
 10
1.982362433427901
 20
-11.06819025330578
 10
1.949323059537436
 20
-11.06819025330578
 10
1.949323059537436
 20
-11.10122962719625
 10
1.916283685646971
 20
-11.10122962719625
 10
1.883244311756506
 20
-11.10122962719625
 10
1.850204937866041
 20
-11.10122962719625
 10
1.817165563975576
 20
-11.13426900108671
 10
1.784126190085111
 20
-11.16730837497718
 10
1.784126190085111
 20
-11.20034774886764
 10
1.784126190085111
 20
-11.23338712275811
 10
1.784126190085111
 20
-11.26642649664857
 10
1.817165563975576
 20
-11.26642649664857
 10
1.817165563975576
 20
-11.29946587053904
 10
1.784126190085111
 20
-11.29946587053904
 10
1.784126190085111
 20
-11.3325052444295
 10
1.751086816194646
 20
-11.3325052444295
 10
1.718047442304181
 20
-11.3325052444295
 10
1.718047442304181
 20
-11.36554461831997
 10
1.685008068413716
 20
-11.36554461831997
 10
1.651968694523251
 20
-11.36554461831997
 10
1.618929320632786
 20
-11.36554461831997
 10
1.585889946742321
 20
-11.36554461831997
 10
1.552850572851856
 20
-11.36554461831997
 10
1.519811198961391
 20
-11.36554461831997
 10
1.519811198961391
 20
-11.39858399221043
 10
1.486771825070926
 20
-11.39858399221043
 10
1.453732451180461
 20
-11.4316233661009
 10
1.420693077289996
 20
-11.4316233661009
 10
1.420693077289996
 20
-11.46466273999136
 10
1.387653703399531
 20
-11.46466273999136
 10
1.354614329509066
 20
-11.49770211388183
 10
1.321574955618601
 20
-11.49770211388183
 10
1.288535581728136
 20
-11.53074148777229
 10
1.255496207837671
 20
-11.53074148777229
 10
1.222456833947206
 20
-11.53074148777229
 10
1.222456833947206
 20
-11.56378086166276
 10
1.189417460056741
 20
-11.56378086166276
 10
1.156378086166276
 20
-11.56378086166276
 10
1.123338712275811
 20
-11.56378086166276
 10
1.090299338385346
 20
-11.59682023555322
 10
1.057259964494881
 20
-11.59682023555322
 10
1.024220590604416
 20
-11.59682023555322
 10
0.9581418428234856
 20
-11.62985960944369
 10
0.9251024689330205
 20
-11.62985960944369
 10
0.8590237211520906
 20
-11.66289898333415
 10
0.8259843472616256
 20
-11.66289898333415
 10
0.7929449733711605
 20
-11.69593835722462
 10
0.7599055994806955
 20
-11.69593835722462
 10
0.7268662255902305
 20
-11.69593835722462
 10
0.7268662255902305
 20
-11.72897773111508
 10
0.6938268516997654
 20
-11.72897773111508
 10
0.6938268516997654
 20
-11.76201710500555
 10
0.6607874778093004
 20
-11.76201710500555
 10
0.6277481039188354
 20
-11.76201710500555
 10
0.6277481039188354
 20
-11.79505647889601
 10
0.5947087300283704
 20
-11.79505647889601
 10
0.5616693561379054
 20
-11.82809585278648
 10
0.5286299822474404
 20
-11.82809585278648
 10
0.5286299822474404
 20
-11.86113522667694
 10
0.5286299822474404
 20
-11.89417460056741
 10
0.5286299822474404
 20
-11.92721397445787
 10
0.5286299822474404
 20
-11.96025334834834
 10
0.5286299822474404
 20
-11.9932927222388
 10
0.5286299822474404
 20
-12.02633209612927
 10
0.5286299822474404
 20
-12.05937147001973
 10
0.4955906083569753
 20
-12.05937147001973
 10
0.4955906083569753
 20
-12.0924108439102
 10
0.4625512344665103
 20
-12.0924108439102
 10
0.4295118605760453
 20
-12.0924108439102
 10
0.3964724866855803
 20
-12.12545021780066
 10
0.3634331127951153
 20
-12.12545021780066
 10
0.3303937389046502
 20
-12.12545021780066
 10
0.2973543650141852
 20
-12.12545021780066
 10
0.2643149911237202
 20
-12.15848959169113
 10
0.2312756172332551
 20
-12.15848959169113
 10
0.1982362433427901
 20
-12.15848959169113
 10
0.1651968694523251
 20
-12.15848959169113
 10
0.1321574955618601
 20
-12.15848959169113
 10
0.09911812167139507
 20
-12.19152896558159
 10
0.06607874778093005
 20
-12.19152896558159
 10
0.03303937389046502
 20
-12.19152896558159
 10
0
 20
-12.19152896558159
 10
0
 20
-12.22456833947206
 10
-0.03303937389046502
 20
-12.22456833947206
 10
-0.06607874778093005
 20
-12.25760771336252
 10
-0.09911812167139507
 20
-12.25760771336252
 10
-0.1321574955618601
 20
-12.25760771336252
 10
-0.1321574955618601
 20
-12.29064708725299
 10
-0.1651968694523251
 20
-12.29064708725299
 10
-0.1982362433427901
 20
-12.29064708725299
 10
-0.2312756172332551
 20
-12.29064708725299
 10
-0.2643149911237202
 20
-12.32368646114345
 10
-0.2973543650141852
 20
-12.32368646114345
 10
-0.3303937389046502
 20
-12.35672583503392
 10
-0.3634331127951153
 20
-12.35672583503392
 10
-0.3964724866855803
 20
-12.35672583503392
 10
-0.4295118605760453
 20
-12.38976520892438
 10
-0.4625512344665103
 20
-12.38976520892438
 10
-0.4955906083569753
 20
-12.38976520892438
 10
-0.5286299822474404
 20
-12.38976520892438
 10
-0.5616693561379054
 20
-12.38976520892438
 10
-0.5947087300283704
 20
-12.38976520892438
 10
-0.6277481039188354
 20
-12.38976520892438
 10
-0.6607874778093004
 20
-12.38976520892438
 10
-0.6938268516997654
 20
-12.38976520892438
 10
-0.7268662255902305
 20
-12.42280458281485
 10
-0.7599055994806955
 20
-12.42280458281485
 10
-0.7929449733711605
 20
-12.42280458281485
 10
-0.8259843472616256
 20
-12.42280458281485
 10
-0.8590237211520906
 20
-12.42280458281485
 10
-0.8590237211520906
 20
-12.38976520892438
 10
-0.8920630950425555
 20
-12.38976520892438
 10
-0.9251024689330205
 20
-12.38976520892438
 10
-0.9581418428234856
 20
-12.38976520892438
 10
-0.9911812167139507
 20
-12.38976520892438
 10
-1.024220590604416
 20
-12.38976520892438
 10
-1.057259964494881
 20
-12.38976520892438
 10
-1.090299338385346
 20
-12.38976520892438
 10
-1.123338712275811
 20
-12.38976520892438
 10
-1.156378086166276
 20
-12.38976520892438
 10
-1.189417460056741
 20
-12.38976520892438
 10
-1.222456833947206
 20
-12.38976520892438
 10
-1.255496207837671
 20
-12.38976520892438
 10
-1.288535581728136
 20
-12.42280458281485
 10
-1.321574955618601
 20
-12.42280458281485
 10
-1.354614329509066
 20
-12.42280458281485
 10
-1.387653703399531
 20
-12.42280458281485
 10
-1.420693077289996
 20
-12.42280458281485
 10
-1.453732451180461
 20
-12.38976520892438
 10
-1.486771825070926
 20
-12.35672583503392
 10
-1.519811198961391
 20
-12.32368646114345
 10
-1.552850572851856
 20
-12.32368646114345
 10
-1.552850572851856
 20
-12.29064708725299
 10
-1.585889946742321
 20
-12.29064708725299
 10
-1.618929320632786
 20
-12.29064708725299
 10
-1.651968694523251
 20
-12.29064708725299
 10
-1.651968694523251
 20
-12.25760771336252
 10
-1.685008068413716
 20
-12.25760771336252
 10
-1.685008068413716
 20
-12.22456833947206
 10
-1.718047442304181
 20
-12.22456833947206
 10
-1.718047442304181
 20
-12.19152896558159
 10
-1.751086816194646
 20
-12.19152896558159
 10
-1.751086816194646
 20
-12.15848959169113
 10
-1.784126190085111
 20
-12.15848959169113
 10
-1.784126190085111
 20
-12.12545021780066
 10
-1.784126190085111
 20
-12.0924108439102
 10
-1.784126190085111
 20
-12.05937147001973
 10
-1.817165563975576
 20
-12.05937147001973
 10
-1.817165563975576
 20
-12.02633209612927
 10
-1.784126190085111
 20
-12.02633209612927
 10
-1.784126190085111
 20
-11.9932927222388
 10
-1.784126190085111
 20
-11.96025334834834
 10
-1.784126190085111
 20
-11.92721397445787
 10
-1.784126190085111
 20
-11.89417460056741
 10
-1.751086816194646
 20
-11.86113522667694
 10
-1.751086816194646
 20
-11.82809585278648
 10
-1.718047442304181
 20
-11.82809585278648
 10
-1.685008068413716
 20
-11.79505647889601
 10
-1.651968694523251
 20
-11.79505647889601
 10
-1.651968694523251
 20
-11.76201710500555
 10
-1.618929320632786
 20
-11.76201710500555
 10
-1.618929320632786
 20
-11.72897773111508
 10
-1.585889946742321
 20
-11.72897773111508
 10
-1.585889946742321
 20
-11.69593835722462
 10
-1.552850572851856
 20
-11.69593835722462
 10
-1.552850572851856
 20
-11.66289898333415
 10
-1.552850572851856
 20
-11.62985960944369
 10
-1.519811198961391
 20
-11.62985960944369
 10
-1.486771825070926
 20
-11.59682023555322
 10
-1.453732451180461
 20
-11.56378086166276
 10
-1.420693077289996
 20
-11.56378086166276
 10
-1.420693077289996
 20
-11.53074148777229
 10
-1.420693077289996
 20
-11.49770211388183
 10
-1.387653703399531
 20
-11.49770211388183
 10
-1.387653703399531
 20
-11.46466273999136
 10
-1.354614329509066
 20
-11.4316233661009
 10
-1.354614329509066
 20
-11.39858399221043
 10
-1.321574955618601
 20
-11.36554461831997
 10
-1.321574955618601
 20
-11.3325052444295
 10
-1.321574955618601
 20
-11.29946587053904
 10
-1.288535581728136
 20
-11.26642649664857
 10
-1.288535581728136
 20
-11.23338712275811
 10
-1.288535581728136
 20
-11.20034774886764
 10
-1.255496207837671
 20
-11.16730837497718
 10
-1.255496207837671
 20
-11.13426900108671
 10
-1.222456833947206
 20
-11.10122962719625
 10
-1.222456833947206
 20
-11.06819025330578
 10
-1.222456833947206
 20
-11.03515087941532
 10
-1.222456833947206
 20
-11.00211150552485
 10
-1.189417460056741
 20
-11.00211150552485
 10
-1.189417460056741
 20
-10.96907213163439
 10
-1.189417460056741
 20
-10.93603275774392
 10
-1.189417460056741
 20
-10.90299338385346
 10
-1.156378086166276
 20
-10.86995400996299
 10
-1.156378086166276
 20
-10.83691463607253
 10
-1.156378086166276
 20
-10.80387526218206
 10
-1.156378086166276
 20
-10.7708358882916
 10
-1.189417460056741
 20
-10.7708358882916
 10
-1.189417460056741
 20
-10.73779651440113
 10
-1.222456833947206
 20
-10.73779651440113
 10
-1.222456833947206
 20
-10.70475714051067
 10
-1.255496207837671
 20
-10.6717177666202
 10
-1.255496207837671
 20
-10.63867839272974
 10
-1.255496207837671
 20
-10.60563901883927
 10
-1.255496207837671
 20
-10.57259964494881
 10
-1.255496207837671
 20
-10.53956027105834
 10
-1.255496207837671
 20
-10.50652089716788
 10
-1.255496207837671
 20
-10.47348152327741
 10
-1.255496207837671
 20
-10.44044214938695
 10
-1.255496207837671
 20
-10.40740277549648
 10
-1.255496207837671
 20
-10.37436340160602
 10
-1.222456833947206
 20
-10.34132402771555
 10
-1.222456833947206
 20
-10.30828465382509
 10
-1.189417460056741
 20
-10.27524527993462
 10
-1.189417460056741
 20
-10.24220590604416
 10
-1.189417460056741
 20
-10.20916653215369
 10
-1.189417460056741
 20
-10.17612715826323
 10
-1.189417460056741
 20
-10.14308778437276
 10
-1.156378086166276
 20
-10.1100484104823
 10
-1.156378086166276
 20
-10.07700903659183
 10
-1.156378086166276
 20
-10.04396966270137
 10
-1.123338712275811
 20
-10.04396966270137
 10
-1.123338712275811
 20
-10.0109302888109
 10
-1.090299338385346
 20
-10.0109302888109
 10
-1.090299338385346
 20
-9.977890914920437
 10
-1.057259964494881
 20
-9.944851541029971
 10
-1.024220590604416
 20
-9.878772793249041
 10
-0.9911812167139507
 20
-9.845733419358577
 10
-0.9581418428234856
 20
-9.812694045468112
 10
-0.9581418428234856
 20
-9.779654671577648
 10
-0.9251024689330205
 20
-9.746615297687182
 10
-0.9251024689330205
 20
-9.713575923796716
 10
-0.8920630950425555
 20
-9.68053654990625
 10
-0.8590237211520906
 20
-9.647497176015786
 10
-0.8590237211520906
 20
-9.614457802125321
 10
-0.8259843472616256
 20
-9.614457802125321
 10
-0.8259843472616256
 20
-9.581418428234857
 10
-0.8259843472616256
 20
-9.548379054344391
 10
-0.7929449733711605
 20
-9.548379054344391
 10
-0.7929449733711605
 20
-9.515339680453927
 10
-0.7929449733711605
 20
-9.482300306563461
 10
-0.7599055994806955
 20
-9.449260932672995
 10
-0.7599055994806955
 20
-9.416221558782532
 10
-0.7599055994806955
 20
-9.383182184892066
 10
-0.7599055994806955
 20
-9.350142811001602
 10
-0.7268662255902305
 20
-9.317103437111136
 10
-0.7268662255902305
 20
-9.28406406322067
 10
-0.6938268516997654
 20
-9.251024689330206
 10
-0.6938268516997654
 20
-9.217985315439741
 10
-0.6938268516997654
 20
-9.184945941549275
 10
-0.6607874778093004
 20
-9.151906567658811
 10
-0.6607874778093004
 20
-9.118867193768347
 10
-0.6607874778093004
 20
-9.085827819877881
 10
-0.6607874778093004
 20
-9.052788445987415
 10
-0.6607874778093004
 20
-9.019749072096952
 10
-0.6938268516997654
 20
-8.986709698206486
 10
-0.6938268516997654
 20
-8.95367032431602
 10
-0.6938268516997654
 20
-8.920630950425556
 10
-0.6938268516997654
 20
-8.887591576535092
 10
-0.6938268516997654
 20
-8.854552202644626
 10
-0.6938268516997654
 20
-8.788473454863695
 10
-0.6607874778093004
 20
-8.755434080973231
 10
-0.6607874778093004
 20
-8.722394707082765
 10
-0.6607874778093004
 20
-8.689355333192301
 10
-0.6607874778093004
 20
-8.656315959301836
 10
-0.6607874778093004
 20
-8.623276585411372
 10
-0.6277481039188354
 20
-8.623276585411372
 10
-0.6277481039188354
 20
-8.590237211520906
 10
-0.6277481039188354
 20
-8.55719783763044
 10
-0.6277481039188354
 20
-8.524158463739974
 10
-0.6277481039188354
 20
-8.49111908984951
 10
-0.6277481039188354
 20
-8.458079715959046
 10
-0.6277481039188354
 20
-8.425040342068581
 10
-0.6277481039188354
 20
-8.392000968178117
 10
-0.6607874778093004
 20
-8.392000968178117
 10
-0.6607874778093004
 20
-8.358961594287651
 10
-0.6607874778093004
 20
-8.325922220397185
 10
-0.6277481039188354
 20
-8.292882846506719
 10
-0.6277481039188354
 20
-8.259843472616256
 10
-0.6277481039188354
 20
-8.22680409872579
 10
-0.6277481039188354
 20
-8.193764724835326
 10
-0.6277481039188354
 20
-8.127685977054396
 10
-0.6277481039188354
 20
-8.09464660316393
 10
-0.5947087300283704
 20
-8.061607229273465
 10
-0.5947087300283704
 20
-8.028567855382999
 10
-0.5947087300283704
 20
-7.995528481492536
 10
-0.6277481039188354
 20
-7.995528481492536
 10
-0.6277481039188354
 20
-7.96248910760207
 10
-0.6607874778093004
 20
-7.96248910760207
 10
-0.6938268516997654
 20
-7.995528481492536
 10
-0.7268662255902305
 20
-8.028567855382999
 10
-0.7599055994806955
 20
-8.028567855382999
 10
-0.7929449733711605
 20
-8.061607229273465
 10
-0.8259843472616256
 20
-8.061607229273465
 10
-0.8920630950425555
 20
-8.09464660316393
 10
-0.9251024689330205
 20
-8.09464660316393
 10
-0.9581418428234856
 20
-8.09464660316393
 10
-0.9911812167139507
 20
-8.127685977054396
 10
-1.024220590604416
 20
-8.127685977054396
 10
-1.057259964494881
 20
-8.16072535094486
 10
-1.090299338385346
 20
-8.193764724835326
 10
-1.123338712275811
 20
-8.22680409872579
 10
-1.156378086166276
 20
-8.259843472616256
 10
-1.156378086166276
 20
-8.292882846506719
 10
-1.189417460056741
 20
-8.292882846506719
 10
-1.189417460056741
 20
-8.325922220397185
 10
-1.222456833947206
 20
-8.358961594287651
 10
-1.222456833947206
 20
-8.392000968178117
 10
-1.255496207837671
 20
-8.425040342068581
 10
-1.255496207837671
 20
-8.458079715959046
 10
-1.255496207837671
 20
-8.49111908984951
 10
-1.255496207837671
 20
-8.524158463739974
 10
-1.255496207837671
 20
-8.55719783763044
 10
-1.255496207837671
 20
-8.590237211520906
 10
-1.255496207837671
 20
-8.623276585411372
 10
-1.255496207837671
 20
-8.656315959301836
 10
-1.222456833947206
 20
-8.656315959301836
 10
-1.222456833947206
 20
-8.689355333192301
 10
-1.222456833947206
 20
-8.722394707082765
 10
-1.222456833947206
 20
-8.755434080973231
 10
-1.189417460056741
 20
-8.755434080973231
 10
-1.189417460056741
 20
-8.788473454863695
 10
-1.156378086166276
 20
-8.821512828754161
 10
-1.156378086166276
 20
-8.854552202644626
 10
-1.156378086166276
 20
-8.887591576535092
 10
-1.123338712275811
 20
-8.920630950425556
 10
-1.123338712275811
 20
-8.95367032431602
 10
-1.123338712275811
 20
-8.986709698206486
 10
-1.123338712275811
 20
-9.019749072096952
 10
-1.123338712275811
 20
-9.052788445987415
 10
-1.090299338385346
 20
-9.085827819877881
 10
-1.090299338385346
 20
-9.118867193768347
 10
-1.123338712275811
 20
-9.151906567658811
 10
-1.123338712275811
 20
-9.184945941549275
 10
-1.123338712275811
 20
-9.217985315439741
 10
-1.123338712275811
 20
-9.251024689330206
 10
-1.156378086166276
 20
-9.28406406322067
 10
-1.156378086166276
 20
-9.317103437111136
 10
-1.156378086166276
 20
-9.350142811001602
 10
-1.189417460056741
 20
-9.350142811001602
 10
-1.189417460056741
 20
-9.383182184892066
 10
-1.189417460056741
 20
-9.416221558782532
 10
-1.189417460056741
 20
-9.449260932672995
 10
-1.222456833947206
 20
-9.482300306563461
 10
-1.222456833947206
 20
-9.515339680453927
 10
-1.222456833947206
 20
-9.548379054344391
 10
-1.222456833947206
 20
-9.581418428234857
 10
-1.255496207837671
 20
-9.614457802125321
 10
-1.288535581728136
 20
-9.647497176015786
 10
-1.288535581728136
 20
-9.68053654990625
 10
-1.321574955618601
 20
-9.713575923796716
 10
-1.321574955618601
 20
-9.746615297687182
 10
-1.354614329509066
 20
-9.779654671577648
 10
-1.354614329509066
 20
-9.812694045468112
 10
-1.387653703399531
 20
-9.845733419358577
 10
-1.387653703399531
 20
-9.878772793249041
 10
-1.420693077289996
 20
-9.911812167139505
 10
-1.420693077289996
 20
-9.944851541029971
 10
-1.453732451180461
 20
-9.944851541029971
 10
-1.453732451180461
 20
-9.977890914920437
 10
-1.486771825070926
 20
-9.977890914920437
 10
-1.486771825070926
 20
-10.0109302888109
 10
-1.486771825070926
 20
-10.04396966270137
 10
-1.519811198961391
 20
-10.04396966270137
 10
-1.519811198961391
 20
-10.07700903659183
 10
-1.519811198961391
 20
-10.1100484104823
 10
-1.552850572851856
 20
-10.14308778437276
 10
-1.552850572851856
 20
-10.17612715826323
 10
-1.552850572851856
 20
-10.20916653215369
 10
-1.552850572851856
 20
-10.24220590604416
 10
-1.585889946742321
 20
-10.24220590604416
 10
-1.585889946742321
 20
-10.27524527993462
 10
-1.585889946742321
 20
-10.30828465382509
 10
-1.585889946742321
 20
-10.34132402771555
 10
-1.618929320632786
 20
-10.34132402771555
 10
-1.618929320632786
 20
-10.37436340160602
 10
-1.618929320632786
 20
-10.40740277549648
 10
-1.651968694523251
 20
-10.40740277549648
 10
-1.685008068413716
 20
-10.44044214938695
 10
-1.718047442304181
 20
-10.44044214938695
 10
-1.718047442304181
 20
-10.47348152327741
 10
-1.751086816194646
 20
-10.47348152327741
 10
-1.751086816194646
 20
-10.50652089716788
 10
-1.784126190085111
 20
-10.50652089716788
 10
-1.784126190085111
 20
-10.53956027105834
 10
-1.817165563975576
 20
-10.57259964494881
 10
-1.850204937866041
 20
-10.60563901883927
 10
-1.850204937866041
 20
-10.63867839272974
 10
-1.883244311756506
 20
-10.63867839272974
 10
-1.883244311756506
 20
-10.6717177666202
 10
-1.916283685646971
 20
-10.6717177666202
 10
-1.949323059537436
 20
-10.70475714051067
 10
-1.982362433427901
 20
-10.73779651440113
 10
-2.015401807318366
 20
-10.7708358882916
 10
-2.048441181208831
 20
-10.7708358882916
 10
-2.048441181208831
 20
-10.80387526218206
 10
-2.081480555099296
 20
-10.80387526218206
 10
-2.114519928989762
 20
-10.83691463607253
 10
-2.147559302880226
 20
-10.86995400996299
 10
-2.180598676770691
 20
-10.86995400996299
 10
-2.213638050661157
 20
-10.90299338385346
 10
-2.213638050661157
 20
-10.93603275774392
 10
-2.246677424551621
 20
-10.93603275774392
 10
-2.279716798442087
 20
-10.96907213163439
 10
-2.312756172332552
 20
-11.00211150552485
 10
-2.345795546223016
 20
-11.03515087941532
 10
-2.378834920113482
 20
-11.06819025330578
 10
-2.411874294003947
 20
-11.10122962719625
 10
-2.411874294003947
 20
-11.13426900108671
 10
-2.444913667894412
 20
-11.16730837497718
 10
-2.444913667894412
 20
-11.20034774886764
 10
-2.444913667894412
 20
-11.23338712275811
 10
-2.477953041784876
 20
-11.23338712275811
 10
-2.477953041784876
 20
-11.26642649664857
 10
-2.477953041784876
 20
-11.29946587053904
 10
-2.477953041784876
 20
-11.3325052444295
 10
-2.510992415675342
 20
-11.3325052444295
 10
-2.510992415675342
 20
-11.36554461831997
 10
-2.510992415675342
 20
-11.39858399221043
 10
-2.544031789565806
 20
-11.39858399221043
 10
-2.544031789565806
 20
-11.4316233661009
 10
-2.577071163456272
 20
-11.4316233661009
 10
-2.577071163456272
 20
-11.46466273999136
 10
-2.610110537346737
 20
-11.46466273999136
 10
-2.610110537346737
 20
-11.49770211388183
 10
-2.643149911237201
 20
-11.49770211388183
 10
-2.676189285127667
 20
-11.49770211388183
 10
-2.709228659018132
 20
-11.53074148777229
 10
-2.742268032908597
 20
-11.53074148777229
 10
-2.775307406799062
 20
-11.53074148777229
 10
-2.808346780689527
 20
-11.56378086166276
 10
-2.841386154579992
 20
-11.56378086166276
 10
-2.874425528470457
 20
-11.56378086166276
 10
-2.907464902360922
 20
-11.59682023555322
 10
-2.940504276251387
 20
-11.59682023555322
 10
-2.973543650141852
 20
-11.59682023555322
 10
-3.006583024032317
 20
-11.59682023555322
 10
-3.039622397922782
 20
-11.62985960944369
 10
-3.072661771813247
 20
-11.62985960944369
 10
-3.105701145703712
 20
-11.62985960944369
 10
-3.138740519594177
 20
-11.62985960944369
 10
-3.171779893484642
 20
-11.66289898333415
 10
-3.204819267375107
 20
-11.66289898333415
 10
-3.237858641265572
 20
-11.66289898333415
 10
-3.270898015156037
 20
-11.66289898333415
 10
-3.303937389046502
 20
-11.69593835722462
 10
-3.336976762936967
 20
-11.69593835722462
 10
-3.370016136827433
 20
-11.69593835722462
 10
-3.403055510717897
 20
-11.69593835722462
 10
-3.436094884608362
 20
-11.72897773111508
 10
-3.469134258498827
 20
-11.72897773111508
 10
-3.502173632389292
 20
-11.72897773111508
 10
-3.535213006279757
 20
-11.72897773111508
 10
-3.535213006279757
 20
-11.76201710500555
 10
-3.568252380170222
 20
-11.76201710500555
 10
-3.601291754060687
 20
-11.76201710500555
 10
-3.634331127951152
 20
-11.76201710500555
 10
-3.667370501841618
 20
-11.76201710500555
 10
-3.700409875732082
 20
-11.76201710500555
 10
-3.733449249622547
 20
-11.76201710500555
 10
-3.766488623513012
 20
-11.76201710500555
 10
-3.799527997403477
 20
-11.76201710500555
 10
-3.832567371293942
 20
-11.79505647889601
 10
-3.865606745184408
 20
-11.79505647889601
 10
-3.898646119074872
 20
-11.79505647889601
 10
-3.931685492965338
 20
-11.79505647889601
 10
-3.964724866855803
 20
-11.79505647889601
 10
-3.997764240746268
 20
-11.76201710500555
 10
-4.030803614636732
 20
-11.76201710500555
 10
-4.063842988527198
 20
-11.76201710500555
 10
-4.096882362417663
 20
-11.76201710500555
 10
-4.129921736308128
 20
-11.76201710500555
 10
-4.162961110198593
 20
-11.76201710500555
 10
-4.196000484089058
 20
-11.72897773111508
 10
-4.229039857979523
 20
-11.72897773111508
 10
-4.262079231869987
 20
-11.72897773111508
 10
-4.295118605760453
 20
-11.69593835722462
 10
-4.328157979650918
 20
-11.69593835722462
 10
-4.361197353541383
 20
-11.69593835722462
 10
-4.394236727431847
 20
-11.69593835722462
 10
-4.427276101322313
 20
-11.69593835722462
 10
-4.394236727431847
 20
-11.66289898333415
 10
-4.427276101322313
 20
-11.66289898333415
 10
-4.460315475212778
 20
-11.66289898333415
 10
-4.493354849103243
 20
-11.62985960944369
 10
-4.526394222993708
 20
-11.62985960944369
 10
-4.559433596884173
 20
-11.62985960944369
 10
-4.559433596884173
 20
-11.59682023555322
 10
-4.592472970774637
 20
-11.59682023555322
 10
-4.625512344665103
 20
-11.59682023555322
 10
-4.658551718555568
 20
-11.59682023555322
 10
-4.691591092446033
 20
-11.56378086166276
 10
-4.724630466336498
 20
-11.56378086166276
 10
-4.757669840226963
 20
-11.56378086166276
 10
-4.790709214117428
 20
-11.53074148777229
 10
-4.823748588007893
 20
-11.53074148777229
 10
-4.856787961898358
 20
-11.53074148777229
 10
-4.922866709679289
 20
-11.53074148777229
 10
-4.955906083569753
 20
-11.49770211388183
 10
-4.988945457460218
 20
-11.49770211388183
 10
-5.055024205241148
 20
-11.49770211388183
 10
-5.088063579131613
 20
-11.49770211388183
 10
-5.121102953022079
 20
-11.46466273999136
 10
-5.187181700803008
 20
-11.46466273999136
 10
-5.220221074693473
 20
-11.46466273999136
 10
-5.253260448583939
 20
-11.46466273999136
 10
-5.286299822474403
 20
-11.4316233661009
 10
-5.319339196364869
 20
-11.4316233661009
 10
-5.352378570255333
 20
-11.4316233661009
 10
-5.385417944145798
 20
-11.39858399221043
 10
-5.418457318036263
 20
-11.39858399221043
 10
-5.451496691926729
 20
-11.39858399221043
 10
-5.484536065817194
 20
-11.39858399221043
 10
-5.517575439707659
 20
-11.36554461831997
 10
-5.550614813598123
 20
-11.36554461831997
 10
-5.583654187488589
 20
-11.36554461831997
 10
-5.616693561379054
 20
-11.36554461831997
 10
-5.616693561379054
 20
-11.3325052444295
 10
-5.682772309159984
 20
-11.3325052444295
 10
-5.71581168305045
 20
-11.3325052444295
 10
-5.748851056940913
 20
-11.29946587053904
 10
-5.814929804721844
 20
-11.29946587053904
 10
-5.881008552502774
 20
-11.26642649664857
 10
-5.914047926393239
 20
-11.26642649664857
 10
-5.980126674174169
 20
-11.23338712275811
 10
-6.013166048064633
 20
-11.23338712275811
 10
-6.046205421955099
 20
-11.23338712275811
 10
-6.079244795845564
 20
-11.23338712275811
 10
-6.145323543626493
 20
-11.20034774886764
 10
-6.178362917516959
 20
-11.20034774886764
 10
-6.178362917516959
 20
-11.16730837497718
 10
-6.178362917516959
 20
-11.13426900108671
 10
-6.211402291407424
 20
-11.13426900108671
 10
-6.211402291407424
 20
-11.10122962719625
 10
-6.24444166529789
 20
-11.10122962719625
 10
-6.277481039188354
 20
-11.06819025330578
 10
-6.277481039188354
 20
-11.03515087941532
 10
-6.31052041307882
 20
-11.03515087941532
 10
-6.31052041307882
 20
-11.00211150552485
 10
-6.343559786969284
 20
-11.00211150552485
 10
-6.343559786969284
 20
-10.96907213163439
 10
-6.343559786969284
 20
-10.93603275774392
 10
-6.31052041307882
 20
-10.93603275774392
 10
-6.31052041307882
 20
-10.90299338385346
 10
-6.31052041307882
 20
-10.86995400996299
 10
-6.31052041307882
 20
-10.83691463607253
 10
-6.31052041307882
 20
-10.80387526218206
 10
-6.31052041307882
 20
-10.7708358882916
 10
-6.343559786969284
 20
-10.73779651440113
 10
-6.343559786969284
 20
-10.70475714051067
 10
-6.376599160859748
 20
-10.70475714051067
 10
-6.376599160859748
 20
-10.6717177666202
 10
-6.409638534750214
 20
-10.6717177666202
 10
-6.409638534750214
 20
-10.63867839272974
 10
-6.442677908640679
 20
-10.63867839272974
 10
-6.409638534750214
 20
-10.60563901883927
 10
-6.409638534750214
 20
-10.57259964494881
 10
-6.442677908640679
 20
-10.57259964494881
 10
-6.475717282531145
 20
-10.53956027105834
 10
-6.475717282531145
 20
-10.50652089716788
 10
-6.508756656421609
 20
-10.47348152327741
 10
-6.541796030312074
 20
-10.47348152327741
 10
-6.541796030312074
 20
-10.44044214938695
 10
-6.574835404202539
 20
-10.40740277549648
 10
-6.574835404202539
 20
-10.37436340160602
 10
-6.607874778093005
 20
-10.37436340160602
 10
-6.607874778093005
 20
-10.34132402771555
 10
-6.574835404202539
 20
-10.34132402771555
 10
-6.607874778093005
 20
-10.34132402771555
 10
-6.607874778093005
 20
-10.30828465382509
 10
-6.607874778093005
 20
-10.27524527993462
 10
-6.607874778093005
 20
-10.24220590604416
 10
-6.607874778093005
 20
-10.20916653215369
 10
-6.574835404202539
 20
-10.17612715826323
 10
-6.574835404202539
 20
-10.14308778437276
 10
-6.574835404202539
 20
-10.1100484104823
 10
-6.574835404202539
 20
-10.07700903659183
 10
-6.574835404202539
 20
-10.04396966270137
 10
-6.574835404202539
 20
-10.0109302888109
 10
-6.574835404202539
 20
-9.977890914920437
 10
-6.574835404202539
 20
-9.944851541029971
 10
-6.574835404202539
 20
-9.911812167139505
 10
-6.607874778093005
 20
-9.911812167139505
 10
-6.607874778093005
 20
-9.878772793249041
 10
-6.640914151983469
 20
-9.845733419358577
 10
-6.640914151983469
 20
-9.812694045468112
 10
-6.640914151983469
 20
-9.779654671577648
 10
-6.640914151983469
 20
-9.746615297687182
 10
-6.640914151983469
 20
-9.713575923796716
 10
-6.673953525873935
 20
-9.68053654990625
 10
-6.673953525873935
 20
-9.647497176015786
 10
-6.673953525873935
 20
-9.614457802125321
 10
-6.706992899764399
 20
-9.581418428234857
 10
-6.706992899764399
 20
-9.548379054344391
 10
-6.740032273654865
 20
-9.548379054344391
 10
-6.740032273654865
 20
-9.515339680453927
 10
-6.773071647545329
 20
-9.515339680453927
 10
-6.773071647545329
 20
-9.482300306563461
 10
-6.806111021435794
 20
-9.449260932672995
 10
-6.806111021435794
 20
-9.416221558782532
 10
-6.83915039532626
 20
-9.416221558782532
 10
-6.83915039532626
 20
-9.383182184892066
 10
-6.872189769216725
 20
-9.383182184892066
 10
-6.872189769216725
 20
-9.350142811001602
 10
-6.905229143107189
 20
-9.317103437111136
 10
-6.872189769216725
 20
-9.317103437111136
 10
-6.872189769216725
 20
-9.28406406322067
 10
-6.83915039532626
 20
-9.251024689330206
 10
-6.83915039532626
 20
-9.217985315439741
 10
-6.83915039532626
 20
-9.184945941549275
 10
-6.83915039532626
 20
-9.151906567658811
 10
-6.83915039532626
 20
-9.118867193768347
 10
-6.83915039532626
 20
-9.085827819877881
 10
-6.806111021435794
 20
-9.052788445987415
 10
-6.806111021435794
 20
-9.019749072096952
 10
-6.773071647545329
 20
-9.019749072096952
 10
-6.773071647545329
 20
-8.986709698206486
 10
-6.740032273654865
 20
-8.986709698206486
 10
-6.740032273654865
 20
-8.95367032431602
 10
-6.706992899764399
 20
-8.95367032431602
 10
-6.673953525873935
 20
-8.920630950425556
 10
-6.673953525873935
 20
-8.887591576535092
 10
-6.640914151983469
 20
-8.887591576535092
 10
-6.607874778093005
 20
-8.854552202644626
 10
-6.574835404202539
 20
-8.821512828754161
 10
-6.574835404202539
 20
-8.788473454863695
 10
-6.541796030312074
 20
-8.788473454863695
 10
-6.541796030312074
 20
-8.755434080973231
 10
-6.508756656421609
 20
-8.755434080973231
 10
-6.508756656421609
 20
-8.722394707082765
 10
-6.475717282531145
 20
-8.722394707082765
 10
-6.475717282531145
 20
-8.689355333192301
 10
-6.442677908640679
 20
-8.656315959301836
 10
-6.442677908640679
 20
-8.623276585411372
 10
-6.409638534750214
 20
-8.623276585411372
 10
-6.409638534750214
 20
-8.590237211520906
 10
-6.376599160859748
 20
-8.590237211520906
 10
-6.376599160859748
 20
-8.55719783763044
 10
-6.343559786969284
 20
-8.524158463739974
 10
-6.343559786969284
 20
-8.49111908984951
 10
-6.343559786969284
 20
-8.458079715959046
 10
-6.31052041307882
 20
-8.425040342068581
 10
-6.31052041307882
 20
-8.392000968178117
 10
-6.31052041307882
 20
-8.358961594287651
 10
-6.31052041307882
 20
-8.325922220397185
 10
-6.31052041307882
 20
-8.292882846506719
 10
-6.31052041307882
 20
-8.259843472616256
 10
-6.31052041307882
 20
-8.22680409872579
 10
-6.31052041307882
 20
-8.193764724835326
 10
-6.31052041307882
 20
-8.16072535094486
 10
-6.31052041307882
 20
-8.127685977054396
 10
-6.31052041307882
 20
-8.09464660316393
 10
-6.31052041307882
 20
-8.061607229273465
 10
-6.31052041307882
 20
-8.028567855382999
 10
-6.277481039188354
 20
-8.028567855382999
 10
-6.277481039188354
 20
-7.995528481492536
 10
-6.24444166529789
 20
-7.96248910760207
 10
-6.211402291407424
 20
-7.929449733711605
 10
-6.211402291407424
 20
-7.896410359821139
 10
-6.178362917516959
 20
-7.863370985930676
 10
-6.211402291407424
 20
-7.83033161204021
 10
-6.211402291407424
 20
-7.797292238149745
 10
-6.211402291407424
 20
-7.764252864259279
 10
-6.211402291407424
 20
-7.731213490368815
 10
-6.24444166529789
 20
-7.69817411647835
 10
-6.24444166529789
 20
-7.665134742587885
 10
-6.24444166529789
 20
-7.632095368697421
 10
-6.277481039188354
 20
-7.632095368697421
 10
-6.277481039188354
 20
-7.599055994806955
 10
-6.277481039188354
 20
-7.56601662091649
 10
-6.277481039188354
 20
-7.532977247026024
 10
-6.31052041307882
 20
-7.532977247026024
 10
-6.31052041307882
 20
-7.49993787313556
 10
-6.31052041307882
 20
-7.466898499245095
 10
-6.31052041307882
 20
-7.43385912535463
 10
-6.343559786969284
 20
-7.400819751464164
 10
-6.31052041307882
 20
-7.3677803775737
 10
-6.31052041307882
 20
-7.334741003683235
 10
-6.31052041307882
 20
-7.301701629792769
 10
-6.31052041307882
 20
-7.268662255902305
 10
-6.277481039188354
 20
-7.268662255902305
 10
-6.277481039188354
 20
-7.23562288201184
 10
-6.24444166529789
 20
-7.23562288201184
 10
-6.211402291407424
 20
-7.23562288201184
 10
-6.178362917516959
 20
-7.202583508121375
 10
-6.145323543626493
 20
-7.202583508121375
 10
-6.11228416973603
 20
-7.169544134230909
 10
-6.079244795845564
 20
-7.169544134230909
 10
-6.046205421955099
 20
-7.136504760340444
 10
-6.013166048064633
 20
-7.136504760340444
 10
-5.980126674174169
 20
-7.136504760340444
 10
-5.980126674174169
 20
-7.10346538644998
 10
-5.947087300283704
 20
-7.10346538644998
 10
-5.914047926393239
 20
-7.070426012559515
 10
-5.881008552502774
 20
-7.070426012559515
 10
-5.847969178612309
 20
-7.037386638669049
 10
-5.814929804721844
 20
-7.037386638669049
 10
-5.781890430831378
 20
-7.004347264778585
 10
-5.748851056940913
 20
-6.97130789088812
 10
-5.748851056940913
 20
-6.938268516997654
 10
-5.748851056940913
 20
-6.905229143107189
 10
-5.71581168305045
 20
-6.872189769216725
 10
-5.71581168305045
 20
-6.83915039532626
 10
-5.71581168305045
 20
-6.806111021435794
 10
-5.71581168305045
 20
-6.773071647545329
 10
-5.71581168305045
 20
-6.740032273654865
 10
-5.71581168305045
 20
-6.706992899764399
 10
-5.71581168305045
 20
-6.673953525873935
 10
-5.748851056940913
 20
-6.673953525873935
 10
-5.748851056940913
 20
-6.640914151983469
 10
-5.748851056940913
 20
-6.607874778093005
 10
-5.781890430831378
 20
-6.574835404202539
 10
-5.781890430831378
 20
-6.541796030312074
 10
-5.781890430831378
 20
-6.508756656421609
 10
-5.814929804721844
 20
-6.508756656421609
 10
-5.814929804721844
 20
-6.475717282531145
 10
-5.814929804721844
 20
-6.442677908640679
 10
-5.847969178612309
 20
-6.442677908640679
 10
-5.847969178612309
 20
-6.409638534750214
 10
-5.847969178612309
 20
-6.376599160859748
 10
-5.881008552502774
 20
-6.376599160859748
 10
-5.914047926393239
 20
-6.343559786969284
 10
-5.947087300283704
 20
-6.376599160859748
 10
-5.980126674174169
 20
-6.376599160859748
 10
-6.013166048064633
 20
-6.409638534750214
 10
-6.046205421955099
 20
-6.409638534750214
 10
-6.11228416973603
 20
-6.442677908640679
 10
-6.178362917516959
 20
-6.475717282531145
 10
-6.211402291407424
 20
-6.475717282531145
 10
-6.277481039188354
 20
-6.508756656421609
 10
-6.343559786969284
 20
-6.541796030312074
 10
-6.376599160859748
 20
-6.574835404202539
 10
-6.442677908640679
 20
-6.574835404202539
 10
-6.475717282531145
 20
-6.607874778093005
 10
-6.508756656421609
 20
-6.607874778093005
 10
-6.541796030312074
 20
-6.640914151983469
 10
-6.574835404202539
 20
-6.673953525873935
 10
-6.607874778093005
 20
-6.706992899764399
 10
-6.640914151983469
 20
-6.706992899764399
 10
-6.673953525873935
 20
-6.740032273654865
 10
-6.706992899764399
 20
-6.773071647545329
 10
-6.706992899764399
 20
-6.806111021435794
 10
-6.740032273654865
 20
-6.83915039532626
 10
-6.773071647545329
 20
-6.905229143107189
 10
-6.806111021435794
 20
-6.938268516997654
 10
-6.806111021435794
 20
-6.97130789088812
 10
-6.83915039532626
 20
-7.004347264778585
 10
-6.83915039532626
 20
-7.037386638669049
 10
-6.872189769216725
 20
-7.070426012559515
 10
-6.872189769216725
 20
-7.10346538644998
 10
-6.905229143107189
 20
-7.136504760340444
 10
-6.905229143107189
 20
-7.169544134230909
 10
-6.905229143107189
 20
-7.202583508121375
 10
-6.938268516997654
 20
-7.23562288201184
 10
-6.938268516997654
 20
-7.268662255902305
 10
-6.97130789088812
 20
-7.301701629792769
 10
-7.004347264778585
 20
-7.334741003683235
 10
-7.004347264778585
 20
-7.3677803775737
 10
-7.037386638669049
 20
-7.400819751464164
 10
-7.070426012559515
 20
-7.43385912535463
 10
-7.070426012559515
 20
-7.466898499245095
 10
-7.10346538644998
 20
-7.466898499245095
 10
-7.10346538644998
 20
-7.49993787313556
 10
-7.136504760340444
 20
-7.49993787313556
 10
-7.169544134230909
 20
-7.532977247026024
 10
-7.169544134230909
 20
-7.56601662091649
 10
-7.202583508121375
 20
-7.56601662091649
 10
-7.23562288201184
 20
-7.599055994806955
 10
-7.23562288201184
 20
-7.632095368697421
 10
-7.268662255902305
 20
-7.632095368697421
 10
-7.268662255902305
 20
-7.665134742587885
 10
-7.301701629792769
 20
-7.665134742587885
 10
-7.301701629792769
 20
-7.69817411647835
 10
-7.334741003683235
 20
-7.69817411647835
 10
-7.3677803775737
 20
-7.731213490368815
 10
-7.3677803775737
 20
-7.764252864259279
 10
-7.400819751464164
 20
-7.764252864259279
 10
-7.43385912535463
 20
-7.797292238149745
 10
-7.43385912535463
 20
-7.83033161204021
 10
-7.466898499245095
 20
-7.83033161204021
 10
-7.49993787313556
 20
-7.863370985930676
 10
-7.532977247026024
 20
-7.863370985930676
 10
-7.56601662091649
 20
-7.896410359821139
 10
-7.599055994806955
 20
-7.896410359821139
 10
-7.599055994806955
 20
-7.929449733711605
 10
-7.632095368697421
 20
-7.929449733711605
 10
-7.665134742587885
 20
-7.929449733711605
 10
-7.665134742587885
 20
-7.96248910760207
 10
-7.69817411647835
 20
-7.96248910760207
 10
-7.731213490368815
 20
-7.96248910760207
 10
-7.764252864259279
 20
-7.96248910760207
 10
-7.797292238149745
 20
-7.96248910760207
 10
-7.83033161204021
 20
-7.96248910760207
 10
-7.863370985930676
 20
-7.96248910760207
 10
-7.896410359821139
 20
-7.929449733711605
 10
-7.929449733711605
 20
-7.929449733711605
 10
-7.995528481492536
 20
-7.929449733711605
 10
-8.028567855382999
 20
-7.896410359821139
 10
-8.061607229273465
 20
-7.896410359821139
 10
-8.09464660316393
 20
-7.896410359821139
 10
-8.127685977054396
 20
-7.863370985930676
 10
-8.16072535094486
 20
-7.863370985930676
 10
-8.193764724835326
 20
-7.863370985930676
 10
-8.22680409872579
 20
-7.83033161204021
 10
-8.259843472616256
 20
-7.797292238149745
 10
-8.292882846506719
 20
-7.797292238149745
 10
-8.292882846506719
 20
-7.764252864259279
 10
-8.325922220397185
 20
-7.764252864259279
 10
-8.358961594287651
 20
-7.731213490368815
 10
-8.392000968178117
 20
-7.69817411647835
 10
-8.425040342068581
 20
-7.665134742587885
 10
-8.458079715959046
 20
-7.665134742587885
 10
-8.49111908984951
 20
-7.632095368697421
 10
-8.49111908984951
 20
-7.599055994806955
 10
-8.524158463739974
 20
-7.599055994806955
 10
-8.55719783763044
 20
-7.599055994806955
 10
-8.590237211520906
 20
-7.599055994806955
 10
-8.590237211520906
 20
-7.56601662091649
 10
-8.623276585411372
 20
-7.56601662091649
 10
-8.623276585411372
 20
-7.532977247026024
 10
-8.656315959301836
 20
-7.532977247026024
 10
-8.689355333192301
 20
-7.49993787313556
 10
-8.722394707082765
 20
-7.466898499245095
 10
-8.755434080973231
 20
-7.466898499245095
 10
-8.755434080973231
 20
-7.43385912535463
 10
-8.755434080973231
 20
-7.400819751464164
 10
-8.755434080973231
 20
-7.3677803775737
 10
-8.755434080973231
 20
-7.334741003683235
 10
-8.755434080973231
 20
-7.301701629792769
 10
-8.722394707082765
 20
-7.301701629792769
 10
-8.722394707082765
 20
-7.268662255902305
 10
-8.689355333192301
 20
-7.23562288201184
 10
-8.689355333192301
 20
-7.202583508121375
 10
-8.656315959301836
 20
-7.202583508121375
 10
-8.656315959301836
 20
-7.169544134230909
 10
-8.623276585411372
 20
-7.136504760340444
 10
-8.623276585411372
 20
-7.10346538644998
 10
-8.623276585411372
 20
-7.070426012559515
 10
-8.590237211520906
 20
-7.037386638669049
 10
-8.590237211520906
 20
-7.004347264778585
 10
-8.55719783763044
 20
-6.97130789088812
 10
-8.524158463739974
 20
-6.938268516997654
 10
-8.524158463739974
 20
-6.905229143107189
 10
-8.49111908984951
 20
-6.872189769216725
 10
-8.49111908984951
 20
-6.83915039532626
 10
-8.458079715959046
 20
-6.83915039532626
 10
-8.458079715959046
 20
-6.806111021435794
 10
-8.425040342068581
 20
-6.806111021435794
 10
-8.392000968178117
 20
-6.773071647545329
 10
-8.392000968178117
 20
-6.740032273654865
 10
-8.358961594287651
 20
-6.740032273654865
 10
-8.358961594287651
 20
-6.706992899764399
 10
-8.325922220397185
 20
-6.706992899764399
 10
-8.325922220397185
 20
-6.673953525873935
 10
-8.292882846506719
 20
-6.673953525873935
 10
-8.292882846506719
 20
-6.640914151983469
 10
-8.259843472616256
 20
-6.640914151983469
 10
-8.292882846506719
 20
-6.640914151983469
 10
-8.259843472616256
 20
-6.607874778093005
 10
-8.259843472616256
 20
-6.574835404202539
 10
-8.292882846506719
 20
-6.574835404202539
 10
-8.325922220397185
 20
-6.574835404202539
 10
-8.358961594287651
 20
-6.574835404202539
 10
-8.392000968178117
 20
-6.541796030312074
 10
-8.425040342068581
 20
-6.541796030312074
 10
-8.425040342068581
 20
-6.508756656421609
 10
-8.458079715959046
 20
-6.508756656421609
 10
-8.49111908984951
 20
-6.475717282531145
 10
-8.49111908984951
 20
-6.442677908640679
 10
-8.524158463739974
 20
-6.442677908640679
 10
-8.524158463739974
 20
-6.409638534750214
 10
-8.55719783763044
 20
-6.409638534750214
 10
-8.590237211520906
 20
-6.409638534750214
 10
-8.623276585411372
 20
-6.376599160859748
 10
-8.656315959301836
 20
-6.376599160859748
 10
-8.689355333192301
 20
-6.376599160859748
 10
-8.722394707082765
 20
-6.376599160859748
 10
-8.755434080973231
 20
-6.376599160859748
 10
-8.788473454863695
 20
-6.376599160859748
 10
-8.821512828754161
 20
-6.376599160859748
 10
-8.854552202644626
 20
-6.376599160859748
 10
-8.887591576535092
 20
-6.343559786969284
 10
-8.920630950425556
 20
-6.343559786969284
 10
-8.95367032431602
 20
-6.343559786969284
 10
-8.986709698206486
 20
-6.343559786969284
 10
-9.019749072096952
 20
-6.343559786969284
 10
-9.052788445987415
 20
-6.343559786969284
 10
-9.085827819877881
 20
-6.343559786969284
 10
-9.118867193768347
 20
-6.31052041307882
 10
-9.151906567658811
 20
-6.31052041307882
 10
-9.184945941549275
 20
-6.31052041307882
 10
-9.184945941549275
 20
-6.277481039188354
 10
-9.217985315439741
 20
-6.277481039188354
 10
-9.251024689330206
 20
-6.277481039188354
 10
-9.28406406322067
 20
-6.24444166529789
 10
-9.317103437111136
 20
-6.24444166529789
 10
-9.350142811001602
 20
-6.24444166529789
 10
-9.416221558782532
 20
-6.211402291407424
 10
-9.449260932672995
 20
-6.211402291407424
 10
-9.515339680453927
 20
-6.211402291407424
 10
-9.581418428234857
 20
-6.178362917516959
 10
-9.647497176015786
 20
-6.178362917516959
 10
-9.68053654990625
 20
-6.145323543626493
 10
-9.746615297687182
 20
-6.145323543626493
 10
-9.812694045468112
 20
-6.145323543626493
 10
-9.878772793249041
 20
-6.11228416973603
 10
-9.944851541029971
 20
-6.11228416973603
 10
-10.0109302888109
 20
-6.11228416973603
 10
-10.1100484104823
 20
-6.11228416973603
 10
-10.20916653215369
 20
-6.079244795845564
 10
-10.30828465382509
 20
-6.079244795845564
 10
-10.40740277549648
 20
-6.079244795845564
 10
-10.50652089716788
 20
-6.079244795845564
 10
-10.60563901883927
 20
-6.046205421955099
 10
-10.6717177666202
 20
-6.046205421955099
 10
-10.73779651440113
 20
-6.046205421955099
 10
-10.7708358882916
 20
-6.046205421955099
 10
-10.83691463607253
 20
-6.046205421955099
 10
-10.86995400996299
 20
-6.013166048064633
 10
-10.86995400996299
 20
-5.980126674174169
 10
-10.86995400996299
 20
-5.947087300283704
 10
-10.86995400996299
 20
-5.914047926393239
 10
-10.86995400996299
 20
-5.881008552502774
 10
-10.86995400996299
 20
-5.847969178612309
 10
-10.86995400996299
 20
-5.814929804721844
 10
-10.83691463607253
 20
-5.781890430831378
 10
-10.83691463607253
 20
-5.748851056940913
 10
-10.83691463607253
 20
-5.71581168305045
 10
-10.90299338385346
 20
-5.682772309159984
 10
-10.90299338385346
 20
-5.649732935269518
 10
-10.93603275774392
 20
-5.649732935269518
 10
-10.96907213163439
 20
-5.616693561379054
 10
-11.00211150552485
 20
-5.583654187488589
 10
-11.03515087941532
 20
-5.583654187488589
 10
-11.03515087941532
 20
-5.550614813598123
 10
-11.06819025330578
 20
-5.550614813598123
 10
-11.10122962719625
 20
-5.550614813598123
 10
-11.13426900108671
 20
-5.517575439707659
 10
-11.16730837497718
 20
-5.517575439707659
 10
-11.20034774886764
 20
-5.484536065817194
 10
-11.23338712275811
 20
-5.451496691926729
 10
-11.29946587053904
 20
-5.418457318036263
 10
-11.36554461831997
 20
-5.418457318036263
 10
-11.36554461831997
 20
-5.385417944145798
 10
-11.39858399221043
 20
-5.385417944145798
 10
-11.4316233661009
 20
-5.352378570255333
 10
-11.4316233661009
 20
-5.319339196364869
 10
-11.46466273999136
 20
-5.319339196364869
 10
-11.46466273999136
 20
-5.286299822474403
 10
-11.53074148777229
 20
-5.286299822474403
 10
-11.53074148777229
 20
-5.253260448583939
 10
-11.56378086166276
 20
-5.220221074693473
 10
-11.56378086166276
 20
-5.187181700803008
 10
-11.59682023555322
 20
-5.187181700803008
 10
-11.56378086166276
 20
-5.154142326912543
 10
-11.56378086166276
 20
-5.121102953022079
 10
-11.59682023555322
 20
-5.121102953022079
 10
-11.59682023555322
 20
-5.088063579131613
 10
-11.62985960944369
 20
-5.055024205241148
 10
-11.62985960944369
 20
-5.021984831350683
 10
-11.66289898333415
 20
-5.021984831350683
 10
-11.66289898333415
 20
-4.988945457460218
 10
-11.66289898333415
 20
-4.955906083569753
 10
-11.66289898333415
 20
-4.922866709679289
 10
-11.69593835722462
 20
-4.889827335788824
 10
-11.72897773111508
 20
-4.856787961898358
 10
-11.76201710500555
 20
-4.823748588007893
 10
-11.79505647889601
 20
-4.823748588007893
 10
-11.79505647889601
 20
-4.790709214117428
 10
-11.82809585278648
 20
-4.790709214117428
 10
-11.82809585278648
 20
-4.757669840226963
 10
-11.86113522667694
 20
-4.757669840226963
 10
-11.89417460056741
 20
-4.724630466336498
 10
-11.89417460056741
 20
-4.691591092446033
 10
-11.92721397445787
 20
-4.691591092446033
 10
-11.92721397445787
 20
-4.658551718555568
 10
-11.96025334834834
 20
-4.658551718555568
 10
-11.9932927222388
 20
-4.625512344665103
 10
-12.02633209612927
 20
-4.592472970774637
 10
-12.02633209612927
 20
-4.559433596884173
 10
-12.05937147001973
 20
-4.559433596884173
 10
-12.05937147001973
 20
-4.526394222993708
 10
-12.05937147001973
 20
-4.493354849103243
 10
-12.05937147001973
 20
-4.460315475212778
 10
-12.05937147001973
 20
-4.427276101322313
 10
-12.05937147001973
 20
-4.394236727431847
 10
-12.05937147001973
 20
-4.361197353541383
 10
-12.0924108439102
 20
-4.361197353541383
 10
-12.0924108439102
 20
-4.328157979650918
 10
-12.0924108439102
 20
-4.295118605760453
 10
-12.0924108439102
 20
-4.262079231869987
 10
-12.05937147001973
 20
-4.262079231869987
 10
-12.05937147001973
 20
-4.229039857979523
 10
-12.05937147001973
 20
-4.196000484089058
 10
-12.0924108439102
 20
-4.196000484089058
 10
-12.0924108439102
 20
-4.162961110198593
 10
-12.0924108439102
 20
-4.129921736308128
 10
-12.0924108439102
 20
-4.096882362417663
 10
-12.12545021780066
 20
-4.063842988527198
 10
-12.12545021780066
 20
-4.030803614636732
 10
-12.15848959169113
 20
-4.030803614636732
 10
-12.15848959169113
 20
-3.997764240746268
 10
-12.15848959169113
 20
-3.964724866855803
 10
-12.19152896558159
 20
-3.964724866855803
 10
-12.19152896558159
 20
-3.931685492965338
 10
-12.19152896558159
 20
-3.898646119074872
 10
-12.22456833947206
 20
-3.865606745184408
 10
-12.22456833947206
 20
-3.832567371293942
 10
-12.25760771336252
 20
-3.799527997403477
 10
-12.29064708725299
 20
-3.766488623513012
 10
-12.29064708725299
 20
-3.733449249622547
 10
-12.32368646114345
 20
-3.733449249622547
 10
-12.32368646114345
 20
-3.700409875732082
 10
-12.32368646114345
 20
-3.667370501841618
 10
-12.32368646114345
 20
-3.634331127951152
 10
-12.32368646114345
 20
-3.601291754060687
 10
-12.32368646114345
 20
-3.568252380170222
 10
-12.32368646114345
 20
-3.535213006279757
 10
-12.32368646114345
 20
-3.502173632389292
 10
-12.32368646114345
 20
-3.469134258498827
 10
-12.35672583503392
 20
-3.469134258498827
 10
-12.32368646114345
 20
-3.436094884608362
 10
-12.32368646114345
 20
-3.403055510717897
 10
-12.35672583503392
 20
-3.403055510717897
 10
-12.35672583503392
 20
-3.370016136827433
 10
-12.35672583503392
 20
-3.336976762936967
 10
-12.32368646114345
 20
-3.336976762936967
 10
-12.32368646114345
 20
-3.303937389046502
 10
-12.32368646114345
 20
-3.270898015156037
 10
-12.35672583503392
 20
-3.237858641265572
 10
-12.35672583503392
 20
-3.204819267375107
 10
-12.35672583503392
 20
-3.171779893484642
 10
-12.35672583503392
 20
-3.138740519594177
 10
-12.35672583503392
 20
-3.105701145703712
 10
-12.35672583503392
 20
-3.072661771813247
 10
-12.38976520892438
 20
-3.039622397922782
 10
-12.42280458281485
 20
-3.039622397922782
 10
-12.42280458281485
 20
-3.006583024032317
 10
-12.45584395670531
 20
-3.006583024032317
 10
-12.45584395670531
 20
-2.973543650141852
 10
-12.48888333059578
 20
-2.973543650141852
 10
-12.48888333059578
 20
-2.940504276251387
 10
-12.52192270448624
 20
-2.907464902360922
 10
-12.52192270448624
 20
-2.874425528470457
 10
-12.55496207837671
 20
-2.874425528470457
 10
-12.55496207837671
 20
-2.841386154579992
 10
-12.55496207837671
 20
-2.808346780689527
 10
-12.58800145226717
 20
-2.808346780689527
 10
-12.58800145226717
 20
-2.775307406799062
 10
-12.58800145226717
 20
-2.742268032908597
 10
-12.58800145226717
 20
-2.709228659018132
 10
-12.58800145226717
 20
-2.676189285127667
 10
-12.58800145226717
 20
-2.643149911237201
 10
-12.58800145226717
 20
-2.610110537346737
 10
-12.55496207837671
 20
-2.610110537346737
 10
-12.55496207837671
 20
-2.577071163456272
 10
-12.52192270448624
 20
-2.544031789565806
 10
-12.48888333059578
 20
-2.510992415675342
 10
-12.45584395670531
 20
-2.477953041784876
 10
-12.45584395670531
 20
-2.444913667894412
 10
-12.42280458281485
 20
-2.444913667894412
 10
-12.42280458281485
 20
-2.411874294003947
 10
-12.38976520892438
 20
-2.411874294003947
 10
-12.38976520892438
 20
-2.378834920113482
 10
-12.35672583503392
 20
-2.345795546223016
 10
-12.32368646114345
 20
-2.345795546223016
 10
-12.32368646114345
 20
-2.312756172332552
 10
-12.29064708725299
 20
-2.312756172332552
 10
-12.25760771336252
 20
-2.312756172332552
 10
-12.25760771336252
 20
-2.279716798442087
 10
-12.19152896558159
 20
-2.279716798442087
 10
-12.15848959169113
 20
-2.246677424551621
 10
-12.12545021780066
 20
-2.246677424551621
 10
-12.0924108439102
 20
-2.213638050661157
 10
-12.05937147001973
 20
-2.213638050661157
 10
-12.02633209612927
 20
-2.213638050661157
 10
-11.9932927222388
 20
-2.180598676770691
 10
-11.96025334834834
 20
-2.180598676770691
 10
-11.92721397445787
 20
-2.147559302880226
 10
-11.89417460056741
 20
-2.147559302880226
 10
-11.86113522667694
 20
-2.114519928989762
 10
-11.82809585278648
 20
-2.114519928989762
 10
-11.79505647889601
 20
-2.114519928989762
 10
-11.76201710500555
 20
-2.081480555099296
 10
-11.69593835722462
 20
-2.048441181208831
 10
-11.66289898333415
 20
-2.048441181208831
 10
-11.62985960944369
 20
-2.015401807318366
 10
-11.59682023555322
 20
-1.982362433427901
 10
-11.56378086166276
 20
-1.982362433427901
 10
-11.53074148777229
 20
-1.982362433427901
 10
-11.53074148777229
 20
-1.949323059537436
 10
-11.49770211388183
 20
-1.949323059537436
 10
-11.49770211388183
 20
-1.916283685646971
 10
-11.46466273999136
 20
-1.883244311756506
 10
-11.4316233661009
 20
-1.883244311756506
 10
-11.39858399221043
 20
-1.850204937866041
 10
-11.39858399221043
 20
-1.817165563975576
 10
-11.36554461831997
 20
-1.817165563975576
 10
-11.36554461831997
 20
-1.784126190085111
 10
-11.36554461831997
 20
-1.751086816194646
 10
-11.36554461831997
 20
-1.718047442304181
 10
-11.3325052444295
 20
-1.718047442304181
 10
-11.3325052444295
 20
-1.685008068413716
 10
-11.3325052444295
 20
-1.651968694523251
 10
-11.3325052444295
 20
-1.618929320632786
 10
-11.3325052444295
 20
-1.585889946742321
 10
-11.36554461831997
 20
-1.552850572851856
 10
-11.36554461831997
 20
-1.519811198961391
 10
-11.36554461831997
 20
-1.486771825070926
 10
-11.36554461831997
 20
-1.453732451180461
 10
-11.36554461831997
 20
-1.420693077289996
 10
-11.36554461831997
 20
-1.387653703399531
 10
-11.36554461831997
 20
-1.354614329509066
 10
-11.39858399221043
 20
-1.354614329509066
 10
-11.39858399221043
 20
-1.321574955618601
 10
-11.39858399221043
 20
-1.288535581728136
 10
-11.39858399221043
 20
-1.255496207837671
 10
-11.39858399221043
 20
-1.222456833947206
 10
-11.4316233661009
 20
-1.189417460056741
 10
-11.46466273999136
 20
-1.156378086166276
 10
-11.46466273999136
 20
-1.123338712275811
 10
-11.46466273999136
 20
-1.090299338385346
 10
-11.46466273999136
 20
-1.057259964494881
 10
-11.4316233661009
 20
-1.057259964494881
 10
-11.46466273999136
 20
-1.024220590604416
 10
-11.46466273999136
 20
-0.9911812167139507
 10
-11.46466273999136
 20
-0.9581418428234856
 10
-11.46466273999136
 20
-0.9251024689330205
 10
-11.46466273999136
 20
-0.8920630950425555
 10
-11.49770211388183
 20
-0.8590237211520906
 10
-11.53074148777229
 20
-0.8590237211520906
 10
-11.53074148777229
 20
-0.8259843472616256
 10
-11.53074148777229
 20
-0.7929449733711605
 10
-11.56378086166276
 20
-0.7929449733711605
 10
-11.56378086166276
 20
-0.7599055994806955
 10
-11.59682023555322
 20
-0.7599055994806955
 10
-11.59682023555322
 20
-0.7268662255902305
 10
-11.59682023555322
 20
-0.6938268516997654
 10
-11.62985960944369
 20
-0.6607874778093004
 10
-11.66289898333415
 20
-0.6607874778093004
 10
-11.66289898333415
 20
-0.6277481039188354
 10
-11.69593835722462
 20
-0.6277481039188354
 10
-11.69593835722462
 20
-0.5947087300283704
 10
-11.72897773111508
 20
-0.5947087300283704
 10
-11.72897773111508
 20
-0.5616693561379054
 10
-11.79505647889601
 20
-0.5616693561379054
 10
-11.82809585278648
 20
-0.5286299822474404
 10
-11.86113522667694
 20
-0.5286299822474404
 10
-11.86113522667694
 20
-0.4955906083569753
 10
-11.89417460056741
 20
-0.4625512344665103
 10
-11.92721397445787
 20
-0.4625512344665103
 10
-11.96025334834834
 20
-0.4625512344665103
 10
-11.96025334834834
 20
-0.4295118605760453
 10
-11.9932927222388
 20
-0.4295118605760453
 10
-12.02633209612927
 20
-0.4295118605760453
 10
-12.02633209612927
 20
-0.3964724866855803
 10
-12.05937147001973
 20
-0.3964724866855803
 10
-12.0924108439102
 20
-0.3634331127951153
 10
-12.12545021780066
 20
-0.3303937389046502
 10
-12.15848959169113
 20
-0.3303937389046502
 10
-12.15848959169113
 20
-0.2973543650141852
 10
-12.15848959169113
 20
-0.2643149911237202
 10
-12.19152896558159
 20
-0.2643149911237202
 10
-12.19152896558159
 20
-0.2312756172332551
 10
-12.22456833947206
 20
-0.2312756172332551
 10
-12.22456833947206
 20
-0.1982362433427901
 10
-12.25760771336252
 20
-0.1651968694523251
 10
-12.29064708725299
 20
-0.1651968694523251
 10
-12.29064708725299
 20
-0.1321574955618601
 10
-12.29064708725299
 20
-0.09911812167139507
 10
-12.29064708725299
 20
-0.06607874778093005
 10
-12.29064708725299
 20
-0.03303937389046502
 10
-12.32368646114345
 20
-0.03303937389046502
 10
-12.32368646114345
 20
0
 10
-12.32368646114345
 20
0.03303937389046502
 10
-12.29064708725299
 20
0.03303937389046502
 10
-12.29064708725299
 20
0.06607874778093005
 10
-12.29064708725299
 20
0.09911812167139507
 10
-12.25760771336252
 20
0.09911812167139507
 10
-12.25760771336252
 20
0.1321574955618601
 10
-12.25760771336252
 20
0.1651968694523251
 10
-12.25760771336252
 20
0.1982362433427901
 10
-12.25760771336252
 20
0.2312756172332551
 10
-12.25760771336252
 20
0.2643149911237202
 10
-12.25760771336252
 20
0.2973543650141852
 10
-12.25760771336252
 20
0.3303937389046502
 10
-12.25760771336252
 20
0.3634331127951153
 10
-12.29064708725299
 20
0.3964724866855803
 10
-12.29064708725299
 20
0.4295118605760453
 10
-12.32368646114345
 20
0.4295118605760453
 10
-12.32368646114345
 20
0.4625512344665103
 10
-12.32368646114345
 20
0.4955906083569753
 10
-12.32368646114345
 20
0.5286299822474404
 10
-12.35672583503392
 20
0.5286299822474404
 10
-12.32368646114345
 20
0.5616693561379054
 10
-12.35672583503392
 20
0.5616693561379054
 10
-12.35672583503392
 20
0.5947087300283704
 10
-12.32368646114345
 20
0.5947087300283704
 10
-12.35672583503392
 20
0.5947087300283704
 10
-12.35672583503392
 20
0.6277481039188354
 10
-12.35672583503392
 20
0.6607874778093004
 10
-12.32368646114345
 20
0.6607874778093004
 10
-12.32368646114345
 20
0.6938268516997654
 10
-12.32368646114345
 20
0.7268662255902305
 10
-12.32368646114345
 20
0.7599055994806955
 10
-12.29064708725299
 20
0.7929449733711605
 10
-12.25760771336252
 20
0.8259843472616256
 10
-12.25760771336252
 20
0.8590237211520906
 10
-12.25760771336252
 20
0.8920630950425555
 10
-12.25760771336252
 20
0.9251024689330205
 10
-12.25760771336252
 20
0.9581418428234856
 10
-12.25760771336252
 20
0.9911812167139507
 10
-12.25760771336252
 20
1.024220590604416
 10
-12.25760771336252
 20
1.057259964494881
 10
-12.25760771336252
 20
1.090299338385346
 10
-12.25760771336252
 20
1.123338712275811
 10
-12.25760771336252
 20
1.156378086166276
 10
-12.25760771336252
 20
1.189417460056741
 10
-12.29064708725299
 20
1.222456833947206
 10
-12.29064708725299
 20
1.255496207837671
 10
-12.32368646114345
 20
1.255496207837671
 10
-12.32368646114345
 20
1.288535581728136
 10
-12.32368646114345
 20
1.321574955618601
 10
-12.35672583503392
 20
1.354614329509066
 10
-12.32368646114345
 20
1.387653703399531
 10
-12.32368646114345
 20
1.420693077289996
 10
-12.32368646114345
 20
1.453732451180461
 10
-12.32368646114345
 20
1.486771825070926
 10
-12.35672583503392
 20
1.519811198961391
 10
-12.35672583503392
 20
1.552850572851856
 10
-12.38976520892438
 20
1.585889946742321
 10
-12.38976520892438
 20
1.618929320632786
 10
-12.38976520892438
 20
1.651968694523251
 10
-12.35672583503392
 20
1.685008068413716
 10
-12.32368646114345
 20
1.685008068413716
 10
-12.32368646114345
 20
1.718047442304181
 10
-12.29064708725299
 20
1.751086816194646
 10
-12.25760771336252
 20
1.751086816194646
 10
-12.25760771336252
 20
1.784126190085111
 10
-12.19152896558159
 20
1.817165563975576
 10
-12.15848959169113
 20
1.817165563975576
 10
-12.12545021780066
 20
1.850204937866041
 10
-12.05937147001973
 20
1.883244311756506
 10
-12.02633209612927
 20
1.883244311756506
 10
-12.02633209612927
 20
1.916283685646971
 10
-11.9932927222388
 20
1.916283685646971
 10
-11.96025334834834
 20
1.916283685646971
 10
-11.92721397445787
 20
1.949323059537436
 10
-11.89417460056741
 20
1.949323059537436
 10
-11.89417460056741
 20
1.982362433427901
 10
-11.82809585278648
 20
1.982362433427901
 10
-11.82809585278648
 20
2.015401807318366
 10
-11.79505647889601
 20
2.015401807318366
 10
-11.76201710500555
 20
2.048441181208831
 10
-11.69593835722462
 20
2.081480555099296
 10
-11.66289898333415
 20
2.081480555099296
 10
-11.62985960944369
 20
2.114519928989762
 10
-11.56378086166276
 20
2.147559302880226
 10
-11.53074148777229
 20
2.147559302880226
 10
-11.53074148777229
 20
2.180598676770691
 10
-11.49770211388183
 20
2.180598676770691
 10
-11.49770211388183
 20
2.213638050661157
 10
-11.4316233661009
 20
2.246677424551621
 10
-11.39858399221043
 20
2.246677424551621
 10
-11.39858399221043
 20
2.279716798442087
 10
-11.36554461831997
 20
2.279716798442087
 10
-11.36554461831997
 20
2.312756172332552
 10
-11.36554461831997
 20
2.345795546223016
 10
-11.3325052444295
 20
2.345795546223016
 10
-11.3325052444295
 20
2.378834920113482
 10
-11.29946587053904
 20
2.378834920113482
 10
-11.29946587053904
 20
2.411874294003947
 10
-11.29946587053904
 20
2.444913667894412
 10
-11.29946587053904
 20
2.477953041784876
 10
-11.29946587053904
 20
2.510992415675342
 10
-11.26642649664857
 20
2.510992415675342
 10
-11.26642649664857
 20
2.544031789565806
 10
-11.23338712275811
 20
2.577071163456272
 10
-11.20034774886764
 20
2.610110537346737
 10
-11.16730837497718
 20
2.610110537346737
 10
-11.16730837497718
 20
2.643149911237201
 10
-11.13426900108671
 20
2.643149911237201
 10
-11.13426900108671
 20
2.676189285127667
 10
-11.10122962719625
 20
2.709228659018132
 10
-11.10122962719625
 20
2.742268032908597
 10
-11.10122962719625
 20
2.775307406799062
 10
-11.10122962719625
 20
2.808346780689527
 10
-11.10122962719625
 20
2.841386154579992
 10
-11.10122962719625
 20
2.874425528470457
 10
-11.10122962719625
 20
2.907464902360922
 10
-11.10122962719625
 20
2.940504276251387
 10
-11.13426900108671
 20
2.940504276251387
 10
-11.13426900108671
 20
2.973543650141852
 10
-11.16730837497718
 20
3.006583024032317
 10
-11.20034774886764
 20
3.039622397922782
 10
-11.23338712275811
 20
3.072661771813247
 10
-11.26642649664857
 20
3.105701145703712
 10
-11.29946587053904
 20
3.138740519594177
 10
-11.3325052444295
 20
3.171779893484642
 10
-11.3325052444295
 20
3.204819267375107
 10
-11.36554461831997
 20
3.237858641265572
 10
-11.36554461831997
 20
3.270898015156037
 10
-11.39858399221043
 20
3.303937389046502
 10
-11.39858399221043
 20
3.336976762936967
 10
-11.39858399221043
 20
3.370016136827433
 10
-11.39858399221043
 20
3.403055510717897
 10
-11.39858399221043
 20
3.436094884608362
 10
-11.39858399221043
 20
3.469134258498827
 10
-11.39858399221043
 20
3.502173632389292
 10
-11.4316233661009
 20
3.502173632389292
 10
-11.39858399221043
 20
3.502173632389292
 10
-11.39858399221043
 20
3.535213006279757
 10
-11.4316233661009
 20
3.535213006279757
 10
-11.4316233661009
 20
3.568252380170222
 10
-11.46466273999136
 20
3.601291754060687
 10
-11.46466273999136
 20
3.634331127951152
 10
-11.49770211388183
 20
3.667370501841618
 10
-11.49770211388183
 20
3.700409875732082
 10
-11.53074148777229
 20
3.700409875732082
 10
-11.53074148777229
 20
3.733449249622547
 10
-11.56378086166276
 20
3.766488623513012
 10
-11.56378086166276
 20
3.799527997403477
 10
-11.59682023555322
 20
3.832567371293942
 10
-11.62985960944369
 20
3.865606745184408
 10
-11.62985960944369
 20
3.898646119074872
 10
-11.62985960944369
 20
3.931685492965338
 10
-11.66289898333415
 20
3.931685492965338
 10
-11.66289898333415
 20
3.964724866855803
 10
-11.66289898333415
 20
3.997764240746268
 10
-11.69593835722462
 20
4.030803614636732
 10
-11.72897773111508
 20
4.063842988527198
 10
-11.72897773111508
 20
4.096882362417663
 10
-11.76201710500555
 20
4.129921736308128
 10
-11.79505647889601
 20
4.162961110198593
 10
-11.79505647889601
 20
4.196000484089058
 10
-11.82809585278648
 20
4.196000484089058
 10
-11.82809585278648
 20
4.229039857979523
 10
-11.79505647889601
 20
4.229039857979523
 10
-11.79505647889601
 20
4.262079231869987
 10
-11.82809585278648
 20
4.262079231869987
 10
-11.79505647889601
 20
4.262079231869987
 10
-11.79505647889601
 20
4.295118605760453
 10
-11.76201710500555
 20
4.295118605760453
 10
-11.76201710500555
 20
4.328157979650918
 10
-11.72897773111508
 20
4.361197353541383
 10
-11.69593835722462
 20
4.361197353541383
 10
-11.69593835722462
 20
4.394236727431847
 10
-11.66289898333415
 20
4.394236727431847
 10
-11.66289898333415
 20
4.427276101322313
 10
-11.62985960944369
 20
4.427276101322313
 10
-11.62985960944369
 20
4.460315475212778
 10
-11.56378086166276
 20
4.493354849103243
 10
-11.56378086166276
 20
4.526394222993708
 10
-11.53074148777229
 20
4.526394222993708
 10
-11.53074148777229
 20
4.559433596884173
 10
-11.49770211388183
 20
4.592472970774637
 10
-11.46466273999136
 20
4.625512344665103
 10
-11.4316233661009
 20
4.658551718555568
 10
-11.39858399221043
 20
4.691591092446033
 10
-11.39858399221043
 20
4.724630466336498
 10
-11.39858399221043
 20
4.757669840226963
 10
-11.39858399221043
 20
4.790709214117428
 10
-11.39858399221043
 20
4.823748588007893
 10
-11.36554461831997
 20
4.823748588007893
 10
-11.36554461831997
 20
4.856787961898358
 10
-11.36554461831997
 20
4.889827335788824
 10
-11.36554461831997
 20
4.922866709679289
 10
-11.36554461831997
 20
4.955906083569753
 10
-11.36554461831997
 20
4.988945457460218
 10
-11.36554461831997
 20
5.021984831350683
 10
-11.3325052444295
 20
5.021984831350683
 10
-11.3325052444295
 20
5.055024205241148
 10
-11.3325052444295
 20
5.088063579131613
 10
-11.3325052444295
 20
5.121102953022079
 10
-11.29946587053904
 20
5.154142326912543
 10
-11.3325052444295
 20
5.187181700803008
 10
-11.3325052444295
 20
5.220221074693473
 10
-11.3325052444295
 20
5.253260448583939
 10
-11.3325052444295
 20
5.286299822474403
 10
-11.3325052444295
 20
5.319339196364869
 10
-11.3325052444295
 20
5.352378570255333
 10
-11.3325052444295
 20
5.385417944145798
 10
-11.29946587053904
 20
5.385417944145798
 10
-11.29946587053904
 20
5.418457318036263
 10
-11.29946587053904
 20
5.451496691926729
 10
-11.26642649664857
 20
5.484536065817194
 10
-11.26642649664857
 20
5.517575439707659
 10
-11.23338712275811
 20
5.550614813598123
 10
-11.20034774886764
 20
5.550614813598123
 10
-11.20034774886764
 20
5.583654187488589
 10
-11.16730837497718
 20
5.583654187488589
 10
-11.16730837497718
 20
5.616693561379054
 10
-11.13426900108671
 20
5.616693561379054
 10
-11.10122962719625
 20
5.649732935269518
 10
-11.06819025330578
 20
5.649732935269518
 10
-11.03515087941532
 20
5.682772309159984
 10
-11.00211150552485
 20
5.682772309159984
 10
-11.00211150552485
 20
5.71581168305045
 10
-10.93603275774392
 20
5.71581168305045
 10
-10.93603275774392
 20
5.748851056940913
 10
-10.90299338385346
 20
5.748851056940913
 10
-10.90299338385346
 20
5.781890430831378
 10
-10.86995400996299
 20
5.781890430831378
 10
-10.83691463607253
 20
5.814929804721844
 10
-10.80387526218206
 20
5.847969178612309
 10
-10.7708358882916
 20
5.881008552502774
 10
-10.73779651440113
 20
5.914047926393239
 10
-10.70475714051067
 20
5.947087300283704
 10
-10.6717177666202
 20
5.980126674174169
 10
-10.63867839272974
 20
6.013166048064633
 10
-10.60563901883927
 20
6.046205421955099
 10
-10.57259964494881
 20
6.079244795845564
 10
-10.53956027105834
 20
6.11228416973603
 10
-10.50652089716788
 20
6.11228416973603
 10
-10.50652089716788
 20
6.145323543626493
 10
-10.47348152327741
 20
6.145323543626493
 10
-10.47348152327741
 20
6.178362917516959
 10
-10.44044214938695
 20
6.178362917516959
 10
-10.44044214938695
 20
6.211402291407424
 10
-10.40740277549648
 20
6.24444166529789
 10
-10.37436340160602
 20
6.277481039188354
 10
-10.34132402771555
 20
6.31052041307882
 10
-10.30828465382509
 20
6.343559786969284
 10
-10.27524527993462
 20
6.343559786969284
 10
-10.27524527993462
 20
6.376599160859748
 10
-10.24220590604416
 20
6.376599160859748
 10
-10.24220590604416
 20
6.409638534750214
 10
-10.20916653215369
 20
6.442677908640679
 10
-10.17612715826323
 20
6.475717282531145
 10
-10.17612715826323
 20
6.508756656421609
 10
-10.14308778437276
 20
6.508756656421609
 10
-10.14308778437276
 20
6.541796030312074
 10
-10.14308778437276
 20
6.574835404202539
 10
-10.1100484104823
 20
6.574835404202539
 10
-10.1100484104823
 20
6.607874778093005
 10
-10.07700903659183
 20
6.607874778093005
 10
-10.07700903659183
 20
6.640914151983469
 10
-10.07700903659183
 20
6.673953525873935
 10
-10.07700903659183
 20
6.706992899764399
 10
-10.07700903659183
 20
6.740032273654865
 10
-10.07700903659183
 20
6.773071647545329
 10
-10.04396966270137
 20
6.773071647545329
 10
-10.04396966270137
 20
6.806111021435794
 10
-10.04396966270137
 20
6.83915039532626
 10
-10.04396966270137
 20
6.872189769216725
 10
-10.0109302888109
 20
6.905229143107189
 10
-10.0109302888109
 20
6.938268516997654
 10
-10.04396966270137
 20
6.97130789088812
 10
-10.04396966270137
 20
7.004347264778585
 10
-10.04396966270137
 20
7.037386638669049
 10
-10.04396966270137
 20
7.070426012559515
 10
-10.04396966270137
 20
7.10346538644998
 10
-10.04396966270137
 20
7.136504760340444
 10
-10.04396966270137
 20
7.169544134230909
 10
-10.04396966270137
 20
7.202583508121375
 10
-10.04396966270137
 20
7.23562288201184
 10
-10.04396966270137
 20
7.268662255902305
 10
-10.04396966270137
 20
7.301701629792769
 10
-10.07700903659183
 20
7.334741003683235
 10
-10.07700903659183
 20
7.3677803775737
 10
-10.07700903659183
 20
7.400819751464164
 10
-10.07700903659183
 20
7.43385912535463
 10
-10.07700903659183
 20
7.466898499245095
 10
-10.07700903659183
 20
7.49993787313556
 10
-10.07700903659183
 20
7.532977247026024
 10
-10.07700903659183
 20
7.56601662091649
 10
-10.1100484104823
 20
7.599055994806955
 10
-10.1100484104823
 20
7.632095368697421
 10
-10.1100484104823
 20
7.665134742587885
 10
-10.1100484104823
 20
7.69817411647835
 10
-10.1100484104823
 20
7.731213490368815
 10
-10.1100484104823
 20
7.764252864259279
 10
-10.1100484104823
 20
7.797292238149745
 10
-10.07700903659183
 20
7.797292238149745
 10
-10.07700903659183
 20
7.83033161204021
 10
-10.07700903659183
 20
7.863370985930676
 10
-10.07700903659183
 20
7.896410359821139
 10
-10.04396966270137
 20
7.896410359821139
 10
-10.04396966270137
 20
7.929449733711605
 10
-10.0109302888109
 20
7.96248910760207
 10
-10.0109302888109
 20
7.995528481492536
 10
-10.0109302888109
 20
8.028567855382999
 10
-9.977890914920437
 20
8.028567855382999
 10
-9.977890914920437
 20
8.061607229273465
 10
-9.944851541029971
 20
8.061607229273465
 10
-9.911812167139505
 20
8.09464660316393
 10
-9.878772793249041
 20
8.09464660316393
 10
-9.845733419358577
 20
8.09464660316393
 10
-9.812694045468112
 20
8.09464660316393
 10
-9.812694045468112
 20
8.127685977054396
 10
-9.779654671577648
 20
8.127685977054396
 10
-9.746615297687182
 20
8.127685977054396
 10
-9.713575923796716
 20
8.127685977054396
 10
-9.68053654990625
 20
8.127685977054396
 10
-9.647497176015786
 20
8.127685977054396
 10
-9.581418428234857
 20
8.127685977054396
 10
-9.548379054344391
 20
8.127685977054396
 10
-9.515339680453927
 20
8.127685977054396
 10
-9.482300306563461
 20
8.127685977054396
 10
-9.449260932672995
 20
8.127685977054396
 10
-9.416221558782532
 20
8.127685977054396
 10
-9.383182184892066
 20
8.127685977054396
 10
-9.350142811001602
 20
8.09464660316393
 10
-9.317103437111136
 20
8.09464660316393
 10
-9.28406406322067
 20
8.09464660316393
 10
-9.251024689330206
 20
8.09464660316393
 10
-9.184945941549275
 20
8.09464660316393
 10
-9.151906567658811
 20
8.09464660316393
 10
-9.118867193768347
 20
8.09464660316393
 10
-9.085827819877881
 20
8.09464660316393
 10
-9.052788445987415
 20
8.09464660316393
 10
-8.986709698206486
 20
8.09464660316393
 10
-8.920630950425556
 20
8.09464660316393
 10
-8.887591576535092
 20
8.09464660316393
 10
-8.821512828754161
 20
8.09464660316393
 10
-8.788473454863695
 20
8.09464660316393
 10
-8.755434080973231
 20
8.09464660316393
 10
-8.722394707082765
 20
8.09464660316393
 10
-8.689355333192301
 20
8.09464660316393
 10
-8.689355333192301
 20
8.061607229273465
 10
-8.656315959301836
 20
8.061607229273465
 10
-8.623276585411372
 20
8.061607229273465
 10
-8.590237211520906
 20
8.061607229273465
 10
-8.590237211520906
 20
8.028567855382999
 10
-8.55719783763044
 20
8.028567855382999
 10
-8.524158463739974
 20
8.028567855382999
 10
-8.49111908984951
 20
7.995528481492536
 10
-8.458079715959046
 20
7.995528481492536
 10
-8.425040342068581
 20
7.96248910760207
 10
-8.392000968178117
 20
7.96248910760207
 10
-8.392000968178117
 20
7.929449733711605
 10
-8.358961594287651
 20
7.929449733711605
 10
-8.325922220397185
 20
7.896410359821139
 10
-8.292882846506719
 20
7.896410359821139
 10
-8.259843472616256
 20
7.863370985930676
 10
-8.22680409872579
 20
7.863370985930676
 10
-8.22680409872579
 20
7.83033161204021
 10
-8.193764724835326
 20
7.83033161204021
 10
-8.193764724835326
 20
7.797292238149745
 10
-8.16072535094486
 20
7.797292238149745
 10
-8.127685977054396
 20
7.764252864259279
 10
-8.09464660316393
 20
7.731213490368815
 10
-8.061607229273465
 20
7.69817411647835
 10
-8.061607229273465
 20
7.665134742587885
 10
-8.028567855382999
 20
7.665134742587885
 10
-8.028567855382999
 20
7.632095368697421
 10
-8.028567855382999
 20
7.599055994806955
 10
-7.995528481492536
 20
7.599055994806955
 10
-7.995528481492536
 20
7.56601662091649
 10
-7.96248910760207
 20
7.56601662091649
 10
-7.929449733711605
 20
7.532977247026024
 10
-7.896410359821139
 20
7.49993787313556
 10
-7.863370985930676
 20
7.466898499245095
 10
-7.83033161204021
 20
7.466898499245095
 10
-7.764252864259279
 20
7.43385912535463
 10
-7.731213490368815
 20
7.400819751464164
 10
-7.69817411647835
 20
7.3677803775737
 10
-7.665134742587885
 20
7.334741003683235
 10
-7.632095368697421
 20
7.301701629792769
 10
-7.599055994806955
 20
7.268662255902305
 10
-7.56601662091649
 20
7.23562288201184
 10
-7.532977247026024
 20
7.202583508121375
 10
-7.49993787313556
 20
7.169544134230909
 10
-7.466898499245095
 20
7.136504760340444
 10
-7.43385912535463
 20
7.10346538644998
 10
-7.400819751464164
 20
7.070426012559515
 10
-7.400819751464164
 20
7.037386638669049
 10
-7.3677803775737
 20
7.004347264778585
 10
-7.334741003683235
 20
6.97130789088812
 10
-7.301701629792769
 20
6.938268516997654
 10
-7.23562288201184
 20
6.938268516997654
 10
-7.202583508121375
 20
6.905229143107189
 10
-7.169544134230909
 20
6.872189769216725
 10
-7.136504760340444
 20
6.872189769216725
 10
-7.10346538644998
 20
6.83915039532626
 10
-7.070426012559515
 20
6.806111021435794
 10
-7.037386638669049
 20
6.806111021435794
 10
-7.004347264778585
 20
6.773071647545329
 10
-6.97130789088812
 20
6.773071647545329
 10
-6.97130789088812
 20
6.740032273654865
 10
-6.938268516997654
 20
6.740032273654865
 10
-6.938268516997654
 20
6.706992899764399
 10
-6.905229143107189
 20
6.706992899764399
 10
-6.905229143107189
 20
6.673953525873935
 10
-6.872189769216725
 20
6.640914151983469
 10
-6.872189769216725
 20
6.607874778093005
 10
-6.83915039532626
 20
6.574835404202539
 10
-6.83915039532626
 20
6.541796030312074
 10
-6.806111021435794
 20
6.541796030312074
 10
-6.806111021435794
 20
6.508756656421609
 10
-6.806111021435794
 20
6.475717282531145
 10
-6.773071647545329
 20
6.442677908640679
 10
-6.773071647545329
 20
6.409638534750214
 10
-6.740032273654865
 20
6.376599160859748
 10
-6.740032273654865
 20
6.343559786969284
 10
-6.706992899764399
 20
6.343559786969284
 10
-6.706992899764399
 20
6.31052041307882
 10
-6.673953525873935
 20
6.31052041307882
 10
-6.673953525873935
 20
6.277481039188354
 10
-6.640914151983469
 20
6.277481039188354
 10
-6.640914151983469
 20
6.24444166529789
 10
-6.607874778093005
 20
6.24444166529789
 10
-6.574835404202539
 20
6.24444166529789
 10
-6.541796030312074
 20
6.24444166529789
 10
-6.508756656421609
 20
6.211402291407424
 10
-6.475717282531145
 20
6.211402291407424
 10
-6.442677908640679
 20
6.211402291407424
 10
-6.409638534750214
 20
6.178362917516959
 10
-6.376599160859748
 20
6.178362917516959
 10
-6.343559786969284
 20
6.178362917516959
 10
-6.31052041307882
 20
6.178362917516959
 10
-6.277481039188354
 20
6.145323543626493
 10
-6.24444166529789
 20
6.11228416973603
 10
-6.211402291407424
 20
6.11228416973603
 10
-6.178362917516959
 20
6.079244795845564
 10
-6.145323543626493
 20
6.079244795845564
 10
-6.11228416973603
 20
6.046205421955099
 10
-6.079244795845564
 20
6.046205421955099
 10
-6.046205421955099
 20
6.013166048064633
 10
-6.013166048064633
 20
6.013166048064633
 10
-5.980126674174169
 20
5.980126674174169
 10
-5.947087300283704
 20
5.947087300283704
 10
-5.914047926393239
 20
5.947087300283704
 10
-5.881008552502774
 20
5.914047926393239
 10
-5.847969178612309
 20
5.914047926393239
 10
-5.814929804721844
 20
5.881008552502774
 10
-5.781890430831378
 20
5.881008552502774
 10
-5.781890430831378
 20
5.847969178612309
 10
-5.748851056940913
 20
5.847969178612309
 10
-5.71581168305045
 20
5.814929804721844
 10
-5.682772309159984
 20
5.814929804721844
 10
-5.649732935269518
 20
5.814929804721844
 10
-5.649732935269518
 20
5.781890430831378
 10
-5.616693561379054
 20
5.781890430831378
 10
-5.616693561379054
 20
5.814929804721844
 10
-5.583654187488589
 20
5.814929804721844
 10
-5.550614813598123
 20
5.814929804721844
 10
-5.484536065817194
 20
5.847969178612309
 10
-5.451496691926729
 20
5.847969178612309
 10
-5.418457318036263
 20
5.881008552502774
 10
-5.385417944145798
 20
5.914047926393239
 10
-5.352378570255333
 20
5.947087300283704
 10
-5.352378570255333
 20
5.980126674174169
 10
-5.319339196364869
 20
6.013166048064633
 10
-5.319339196364869
 20
6.046205421955099
 10
-5.286299822474403
 20
6.046205421955099
 10
-5.286299822474403
 20
6.079244795845564
 10
-5.286299822474403
 20
6.11228416973603
 10
-5.286299822474403
 20
6.145323543626493
 10
-5.319339196364869
 20
6.145323543626493
 10
-5.319339196364869
 20
6.178362917516959
 10
-5.352378570255333
 20
6.178362917516959
 10
-5.385417944145798
 20
6.211402291407424
 10
-5.385417944145798
 20
6.24444166529789
 10
-5.418457318036263
 20
6.24444166529789
 10
-5.418457318036263
 20
6.277481039188354
 10
-5.451496691926729
 20
6.277481039188354
 10
-5.484536065817194
 20
6.31052041307882
 10
-5.517575439707659
 20
6.31052041307882
 10
-5.550614813598123
 20
6.31052041307882
 10
-5.583654187488589
 20
6.343559786969284
 10
-5.616693561379054
 20
6.343559786969284
 10
-5.682772309159984
 20
6.343559786969284
 10
-5.71581168305045
 20
6.343559786969284
 10
-5.748851056940913
 20
6.343559786969284
 10
-5.781890430831378
 20
6.376599160859748
 10
-5.847969178612309
 20
6.376599160859748
 10
-5.881008552502774
 20
6.376599160859748
 10
-5.947087300283704
 20
6.409638534750214
 10
-6.013166048064633
 20
6.409638534750214
 10
-6.079244795845564
 20
6.409638534750214
 10
-6.145323543626493
 20
6.409638534750214
 10
-6.211402291407424
 20
6.442677908640679
 10
-6.24444166529789
 20
6.442677908640679
 10
-6.31052041307882
 20
6.442677908640679
 10
-6.376599160859748
 20
6.442677908640679
 10
-6.409638534750214
 20
6.475717282531145
 10
-6.475717282531145
 20
6.475717282531145
 10
-6.508756656421609
 20
6.508756656421609
 10
-6.541796030312074
 20
6.508756656421609
 10
-6.541796030312074
 20
6.541796030312074
 10
-6.574835404202539
 20
6.541796030312074
 10
-6.574835404202539
 20
6.574835404202539
 10
-6.574835404202539
 20
6.607874778093005
 10
-6.607874778093005
 20
6.607874778093005
 10
-6.607874778093005
 20
6.640914151983469
 10
-6.607874778093005
 20
6.673953525873935
 10
-6.640914151983469
 20
6.673953525873935
 10
-6.640914151983469
 20
6.706992899764399
 10
-6.640914151983469
 20
6.740032273654865
 10
-6.673953525873935
 20
6.773071647545329
 10
-6.673953525873935
 20
6.806111021435794
 10
-6.673953525873935
 20
6.83915039532626
 10
-6.673953525873935
 20
6.872189769216725
 10
-6.673953525873935
 20
6.905229143107189
 10
-6.706992899764399
 20
6.905229143107189
 10
-6.706992899764399
 20
6.938268516997654
 10
-6.740032273654865
 20
6.97130789088812
 10
-6.740032273654865
 20
7.004347264778585
 10
-6.773071647545329
 20
7.037386638669049
 10
-6.806111021435794
 20
7.070426012559515
 10
-6.83915039532626
 20
7.10346538644998
 10
-6.872189769216725
 20
7.136504760340444
 10
-6.905229143107189
 20
7.169544134230909
 10
-6.938268516997654
 20
7.169544134230909
 10
-6.97130789088812
 20
7.202583508121375
 10
-7.004347264778585
 20
7.23562288201184
 10
-7.037386638669049
 20
7.268662255902305
 10
-7.070426012559515
 20
7.301701629792769
 10
-7.10346538644998
 20
7.334741003683235
 10
-7.10346538644998
 20
7.3677803775737
 10
-7.136504760340444
 20
7.3677803775737
 10
-7.169544134230909
 20
7.400819751464164
 10
-7.169544134230909
 20
7.43385912535463
 10
-7.202583508121375
 20
7.466898499245095
 10
-7.23562288201184
 20
7.466898499245095
 10
-7.23562288201184
 20
7.49993787313556
 10
-7.268662255902305
 20
7.532977247026024
 10
-7.301701629792769
 20
7.532977247026024
 10
-7.301701629792769
 20
7.56601662091649
 10
-7.334741003683235
 20
7.599055994806955
 10
-7.334741003683235
 20
7.632095368697421
 10
-7.3677803775737
 20
7.632095368697421
 10
-7.3677803775737
 20
7.665134742587885
 10
-7.3677803775737
 20
7.69817411647835
 10
-7.400819751464164
 20
7.731213490368815
 10
-7.400819751464164
 20
7.764252864259279
 10
-7.400819751464164
 20
7.797292238149745
 10
-7.400819751464164
 20
7.83033161204021
 10
-7.43385912535463
 20
7.83033161204021
 10
-7.43385912535463
 20
7.863370985930676
 10
-7.43385912535463
 20
7.896410359821139
 10
-7.43385912535463
 20
7.929449733711605
 10
-7.43385912535463
 20
7.96248910760207
 10
-7.43385912535463
 20
7.995528481492536
 10
-7.43385912535463
 20
8.028567855382999
 10
-7.466898499245095
 20
8.061607229273465
 10
-7.49993787313556
 20
8.09464660316393
 10
-7.49993787313556
 20
8.127685977054396
 10
-7.532977247026024
 20
8.127685977054396
 10
-7.532977247026024
 20
8.16072535094486
 10
-7.56601662091649
 20
8.16072535094486
 10
-7.599055994806955
 20
8.193764724835326
 10
-7.632095368697421
 20
8.193764724835326
 10
-7.632095368697421
 20
8.22680409872579
 10
-7.665134742587885
 20
8.259843472616256
 10
-7.665134742587885
 20
8.292882846506719
 10
-7.69817411647835
 20
8.292882846506719
 10
-7.69817411647835
 20
8.325922220397185
 10
-7.731213490368815
 20
8.325922220397185
 10
-7.731213490368815
 20
8.358961594287651
 10
-7.764252864259279
 20
8.358961594287651
 10
-7.764252864259279
 20
8.392000968178117
 10
-7.797292238149745
 20
8.392000968178117
 10
-7.797292238149745
 20
8.425040342068581
 10
-7.83033161204021
 20
8.425040342068581
 10
-7.83033161204021
 20
8.458079715959046
 10
-7.863370985930676
 20
8.49111908984951
 10
-7.863370985930676
 20
8.524158463739974
 10
-7.863370985930676
 20
8.55719783763044
 10
-7.896410359821139
 20
8.55719783763044
 10
-7.896410359821139
 20
8.590237211520906
 10
-7.929449733711605
 20
8.623276585411372
 10
-7.929449733711605
 20
8.656315959301836
 10
-7.96248910760207
 20
8.656315959301836
 10
-7.96248910760207
 20
8.689355333192301
 10
-7.995528481492536
 20
8.722394707082765
 10
-8.028567855382999
 20
8.755434080973231
 10
-8.028567855382999
 20
8.788473454863695
 10
-8.028567855382999
 20
8.821512828754161
 10
-8.061607229273465
 20
8.821512828754161
 10
-8.061607229273465
 20
8.854552202644626
 10
-8.061607229273465
 20
8.887591576535092
 10
-8.061607229273465
 20
8.920630950425556
 10
-8.061607229273465
 20
8.95367032431602
 10
-8.061607229273465
 20
8.986709698206486
 10
-8.09464660316393
 20
9.019749072096952
 10
-8.09464660316393
 20
9.052788445987415
 10
-8.09464660316393
 20
9.085827819877881
 10
-8.061607229273465
 20
9.085827819877881
 10
-8.061607229273465
 20
9.118867193768347
 10
-8.09464660316393
 20
9.118867193768347
 10
-8.09464660316393
 20
9.151906567658811
 10
-8.061607229273465
 20
9.151906567658811
 10
-8.061607229273465
 20
9.184945941549275
 10
-8.061607229273465
 20
9.217985315439741
 10
-8.061607229273465
 20
9.251024689330206
 10
-8.028567855382999
 20
9.251024689330206
 10
-8.028567855382999
 20
9.28406406322067
 10
-7.995528481492536
 20
9.28406406322067
 10
-7.96248910760207
 20
9.317103437111136
 10
-7.929449733711605
 20
9.350142811001602
 10
-7.896410359821139
 20
9.383182184892066
 10
-7.863370985930676
 20
9.416221558782532
 10
-7.83033161204021
 20
9.449260932672995
 10
-7.797292238149745
 20
9.449260932672995
 10
-7.797292238149745
 20
9.482300306563461
 10
-7.764252864259279
 20
9.482300306563461
 10
-7.731213490368815
 20
9.515339680453927
 10
-7.69817411647835
 20
9.515339680453927
 10
-7.69817411647835
 20
9.548379054344391
 10
-7.665134742587885
 20
9.548379054344391
 10
-7.665134742587885
 20
9.581418428234857
 10
-7.632095368697421
 20
9.581418428234857
 10
-7.632095368697421
 20
9.614457802125321
 10
-7.599055994806955
 20
9.614457802125321
 10
-7.56601662091649
 20
9.647497176015786
 10
-7.532977247026024
 20
9.647497176015786
 10
-7.532977247026024
 20
9.68053654990625
 10
-7.49993787313556
 20
9.68053654990625
 10
-7.466898499245095
 20
9.713575923796716
 10
-7.43385912535463
 20
9.713575923796716
 10
-7.400819751464164
 20
9.746615297687182
 10
-7.3677803775737
 20
9.746615297687182
 10
-7.3677803775737
 20
9.779654671577648
 10
-7.334741003683235
 20
9.779654671577648
 10
-7.301701629792769
 20
9.779654671577648
 10
-7.301701629792769
 20
9.812694045468112
 10
-7.268662255902305
 20
9.812694045468112
 10
-7.23562288201184
 20
9.812694045468112
 10
-7.202583508121375
 20
9.845733419358577
 10
-7.169544134230909
 20
9.845733419358577
 10
-7.136504760340444
 20
9.878772793249041
 10
-7.10346538644998
 20
9.878772793249041
 10
-7.070426012559515
 20
9.911812167139505
 10
-7.037386638669049
 20
9.911812167139505
 10
-7.004347264778585
 20
9.911812167139505
 10
-7.004347264778585
 20
9.944851541029971
 10
-6.97130789088812
 20
9.944851541029971
 10
-6.938268516997654
 20
9.944851541029971
 10
-6.905229143107189
 20
9.944851541029971
 10
-6.905229143107189
 20
9.977890914920437
 10
-6.872189769216725
 20
9.977890914920437
 10
-6.83915039532626
 20
9.977890914920437
 10
-6.806111021435794
 20
9.977890914920437
 10
-6.773071647545329
 20
9.977890914920437
 10
-6.740032273654865
 20
10.0109302888109
 10
-6.706992899764399
 20
10.0109302888109
 10
-6.673953525873935
 20
10.0109302888109
 10
-6.640914151983469
 20
10.04396966270137
 10
-6.607874778093005
 20
10.04396966270137
 10
-6.574835404202539
 20
10.04396966270137
 10
-6.541796030312074
 20
10.04396966270137
 10
-6.541796030312074
 20
10.07700903659183
 10
-6.508756656421609
 20
10.07700903659183
 10
-6.475717282531145
 20
10.07700903659183
 10
-6.442677908640679
 20
10.07700903659183
 10
-6.409638534750214
 20
10.1100484104823
 10
-6.376599160859748
 20
10.1100484104823
 10
-6.343559786969284
 20
10.14308778437276
 10
-6.31052041307882
 20
10.14308778437276
 10
-6.24444166529789
 20
10.14308778437276
 10
-6.24444166529789
 20
10.17612715826323
 10
-6.178362917516959
 20
10.17612715826323
 10
-6.145323543626493
 20
10.20916653215369
 10
-6.11228416973603
 20
10.20916653215369
 10
-6.079244795845564
 20
10.20916653215369
 10
-6.046205421955099
 20
10.24220590604416
 10
-6.013166048064633
 20
10.24220590604416
 10
-5.980126674174169
 20
10.24220590604416
 10
-5.947087300283704
 20
10.27524527993462
 10
-5.914047926393239
 20
10.27524527993462
 10
-5.881008552502774
 20
10.27524527993462
 10
-5.881008552502774
 20
10.30828465382509
 10
-5.847969178612309
 20
10.30828465382509
 10
-5.814929804721844
 20
10.30828465382509
 10
-5.781890430831378
 20
10.34132402771555
 10
-5.748851056940913
 20
10.34132402771555
 10
-5.71581168305045
 20
10.37436340160602
 10
-5.682772309159984
 20
10.37436340160602
 10
-5.649732935269518
 20
10.40740277549648
 10
-5.616693561379054
 20
10.40740277549648
 10
-5.583654187488589
 20
10.40740277549648
 10
-5.583654187488589
 20
10.44044214938695
 10
-5.550614813598123
 20
10.44044214938695
 10
-5.517575439707659
 20
10.44044214938695
 10
-5.484536065817194
 20
10.44044214938695
 10
-5.451496691926729
 20
10.47348152327741
 10
-5.418457318036263
 20
10.47348152327741
 10
-5.385417944145798
 20
10.50652089716788
 10
-5.352378570255333
 20
10.50652089716788
 10
-5.286299822474403
 20
10.53956027105834
 10
-5.253260448583939
 20
10.53956027105834
 10
-5.220221074693473
 20
10.53956027105834
 10
-5.187181700803008
 20
10.57259964494881
 10
-5.154142326912543
 20
10.57259964494881
 10
-5.121102953022079
 20
10.60563901883927
 10
-5.088063579131613
 20
10.60563901883927
 10
-5.055024205241148
 20
10.60563901883927
 10
-5.021984831350683
 20
10.63867839272974
 10
-4.988945457460218
 20
10.63867839272974
 10
-4.955906083569753
 20
10.63867839272974
 10
-4.922866709679289
 20
10.6717177666202
 10
-4.889827335788824
 20
10.6717177666202
 10
-4.889827335788824
 20
10.70475714051067
 10
-4.856787961898358
 20
10.70475714051067
 10
-4.823748588007893
 20
10.70475714051067
 10
-4.790709214117428
 20
10.73779651440113
 10
-4.757669840226963
 20
10.73779651440113
 10
-4.724630466336498
 20
10.73779651440113
 10
-4.724630466336498
 20
10.7708358882916
 10
-4.691591092446033
 20
10.7708358882916
 10
-4.658551718555568
 20
10.7708358882916
 10
-4.625512344665103
 20
10.7708358882916
 10
-4.592472970774637
 20
10.80387526218206
 10
-4.559433596884173
 20
10.80387526218206
 10
-4.526394222993708
 20
10.83691463607253
 10
-4.493354849103243
 20
10.83691463607253
 10
-4.460315475212778
 20
10.83691463607253
 10
-4.427276101322313
 20
10.86995400996299
 10
-4.394236727431847
 20
10.86995400996299
 10
-4.361197353541383
 20
10.90299338385346
 10
-4.328157979650918
 20
10.90299338385346
 10
-4.328157979650918
 20
10.93603275774392
 10
-4.295118605760453
 20
10.93603275774392
 10
-4.295118605760453
 20
10.96907213163439
 10
-4.262079231869987
 20
10.96907213163439
 10
-4.229039857979523
 20
10.96907213163439
 10
-4.196000484089058
 20
11.03515087941532
 10
-4.162961110198593
 20
11.06819025330578
 10
-4.129921736308128
 20
11.06819025330578
 10
-4.129921736308128
 20
11.10122962719625
 10
-4.096882362417663
 20
11.10122962719625
 10
-4.063842988527198
 20
11.13426900108671
 10
-4.030803614636732
 20
11.13426900108671
 10
-4.030803614636732
 20
11.16730837497718
 10
-3.997764240746268
 20
11.16730837497718
 10
-3.997764240746268
 20
11.20034774886764
 10
-3.964724866855803
 20
11.23338712275811
 10
-3.931685492965338
 20
11.26642649664857
 10
-3.898646119074872
 20
11.29946587053904
 10
-3.898646119074872
 20
11.3325052444295
 10
-3.865606745184408
 20
11.3325052444295
 10
-3.865606745184408
 20
11.36554461831997
 10
-3.832567371293942
 20
11.36554461831997
 10
-3.832567371293942
 20
11.39858399221043
 10
-3.832567371293942
 20
11.4316233661009
 10
-3.799527997403477
 20
11.4316233661009
 10
-3.799527997403477
 20
11.46466273999136
 10
-3.766488623513012
 20
11.49770211388183
 10
-3.766488623513012
 20
11.53074148777229
 10
-3.733449249622547
 20
11.56378086166276
 10
-3.733449249622547
 20
11.59682023555322
 10
-3.700409875732082
 20
11.62985960944369
 10
-3.700409875732082
 20
11.66289898333415
 10
-3.667370501841618
 20
11.69593835722462
 10
-3.634331127951152
 20
11.72897773111508
 10
-3.601291754060687
 20
11.76201710500555
 10
-3.601291754060687
 20
11.79505647889601
 10
-3.568252380170222
 20
11.79505647889601
 10
-3.568252380170222
 20
11.82809585278648
 10
-3.535213006279757
 20
11.82809585278648
 10
-3.535213006279757
 20
11.86113522667694
 10
-3.502173632389292
 20
11.86113522667694
 10
-3.469134258498827
 20
11.89417460056741
 10
-3.469134258498827
 20
11.92721397445787
 10
-3.436094884608362
 20
11.92721397445787
 10
-3.403055510717897
 20
11.96025334834834
 10
-3.370016136827433
 20
11.96025334834834
 10
-3.336976762936967
 20
11.9932927222388
 10
-3.303937389046502
 20
11.9932927222388
 10
-3.270898015156037
 20
12.02633209612927
 10
-3.237858641265572
 20
12.02633209612927
 10
-3.171779893484642
 20
12.02633209612927
 10
-3.138740519594177
 20
12.05937147001973
 10
-3.105701145703712
 20
12.05937147001973
 10
-3.072661771813247
 20
12.05937147001973
 10
-3.072661771813247
 20
12.0924108439102
 10
-3.039622397922782
 20
12.0924108439102
 10
-3.006583024032317
 20
12.0924108439102
 10
-2.973543650141852
 20
12.12545021780066
 10
-2.940504276251387
 20
12.15848959169113
 10
-2.907464902360922
 20
12.15848959169113
 10
-2.907464902360922
 20
12.19152896558159
 10
-2.874425528470457
 20
12.19152896558159
 10
-2.841386154579992
 20
12.22456833947206
 10
-2.808346780689527
 20
12.22456833947206
 10
-2.775307406799062
 20
12.25760771336252
 10
-2.742268032908597
 20
12.29064708725299
 10
-2.709228659018132
 20
12.29064708725299
 10
-2.676189285127667
 20
12.29064708725299
 10
-2.676189285127667
 20
12.32368646114345
 10
-2.643149911237201
 20
12.32368646114345
 10
-2.610110537346737
 20
12.32368646114345
 10
-2.610110537346737
 20
12.35672583503392
 10
-2.577071163456272
 20
12.35672583503392
 10
-2.544031789565806
 20
12.35672583503392
 10
-2.510992415675342
 20
12.38976520892438
 10
-2.477953041784876
 20
12.38976520892438
 10
-2.444913667894412
 20
12.38976520892438
 10
-2.444913667894412
 20
12.42280458281485
 10
-2.411874294003947
 20
12.42280458281485
 10
-2.378834920113482
 20
12.42280458281485
 10
-2.345795546223016
 20
12.45584395670531
 10
-2.312756172332552
 20
12.45584395670531
 10
-2.279716798442087
 20
12.45584395670531
 10
-2.246677424551621
 20
12.45584395670531
 10
-2.246677424551621
 20
12.48888333059578
 10
-2.213638050661157
 20
12.48888333059578
 10
-2.180598676770691
 20
12.48888333059578
 10
-2.147559302880226
 20
12.52192270448624
 10
-2.114519928989762
 20
12.52192270448624
 10
-2.081480555099296
 20
12.55496207837671
 10
-2.048441181208831
 20
12.55496207837671
 10
-2.015401807318366
 20
12.55496207837671
 10
-1.982362433427901
 20
12.58800145226717
 10
-1.949323059537436
 20
12.58800145226717
 10
-1.916283685646971
 20
12.58800145226717
 10
-1.916283685646971
 20
12.62104082615764
 10
-1.883244311756506
 20
12.62104082615764
 10
-1.850204937866041
 20
12.62104082615764
 10
-1.817165563975576
 20
12.6540802000481
 10
-1.784126190085111
 20
12.6540802000481
 10
-1.784126190085111
 20
12.68711957393857
 10
-1.751086816194646
 20
12.68711957393857
 10
-1.718047442304181
 20
12.72015894782903
 10
-1.685008068413716
 20
12.72015894782903
 10
-1.651968694523251
 20
12.7531983217195
 10
-1.618929320632786
 20
12.78623769560996
 10
-1.585889946742321
 20
12.78623769560996
 10
-1.585889946742321
 20
12.81927706950043
 10
-1.552850572851856
 20
12.81927706950043
 10
-1.519811198961391
 20
12.81927706950043
 10
-1.519811198961391
 20
12.85231644339089
 10
-1.486771825070926
 20
12.85231644339089
 10
-1.453732451180461
 20
12.88535581728136
 10
-1.420693077289996
 20
12.88535581728136
 10
-1.420693077289996
 20
12.91839519117182
 10
-1.387653703399531
 20
12.91839519117182
  0
ENDSEC
  0
SECTION
  2
OBJECTS
  0
DICTIONARY
  5
C
330
0
100
AcDbDictionary
281
    1
  3
ACAD_GROUP
350
D
  0
DICTIONARY
  5
D
330
C
100
AcDbDictionary
281
    1
  0
PLOTSETTINGS
  5
4F
  6
1x1
 40
0
 41
0
 42
0
 43
0
  0
ENDSEC
  0
EOF
