999
dxfrw 0.6.3
  0
SECTION
  2
HEADER
  9
$ACADVER
  1
AC1021
  9
$DWGCODEPAGE
  3
ANSI_1252
  9
$INSBASE
 10
0
 20
0
 30
0
  9
$EXTMIN
 10
-18.78806186905548
 20
-18.54149937733559
 30
0
  9
$EXTMAX
 10
18.24562438727173
 20
19.28118685249526
 30
0
  9
$LIMMIN
 10
0
 20
0
  9
$LIMMAX
 10
420
 20
297
  9
$ORTHOMODE
 70
    0
  9
$REGENMODE
 70
    1
  9
$FILLMODE
 70
    1
  9
$QTEXTMODE
 70
    0
  9
$MIRRTEXT
 70
    0
  9
$LTSCALE
 40
1
  9
$ATTMODE
 70
    0
  9
$TEXTSIZE
 40
2.5
  9
$TRACEWID
 40
15.68
  9
$TEXTSTYLE
  7
STANDARD
  9
$CLAYER
  8
0
  9
$CELTYPE
  6
BYLAYER
  9
$CECOLOR
 62
  256
  9
$CELTSCALE
 40
1
  9
$DISPSILH
 70
    0
  9
$DIMSCALE
 40
1
  9
$DIMASZ
 40
0.09375
  9
$DIMEXO
 40
0.03125
  9
$DIMDLI
 40
3.75
  9
$DIMRND
 40
0
  9
$DIMDLE
 40
0
  9
$DIMEXE
 40
0.0625
  9
$DIMTP
 40
0
  9
$DIMTM
 40
0
  9
$DIMTXT
 40
0.09375
  9
$DIMCEN
 40
2.5
  9
$DIMTSZ
 40
0
  9
$DIMTOL
 70
    0
  9
$DIMLIM
 70
    0
  9
$DIMTIH
 70
    0
  9
$DIMTOH
 70
    0
  9
$DIMSE1
 70
    0
  9
$DIMSE2
 70
    0
  9
$DIMTAD
 70
    1
  9
$DIMZIN
 70
    8
  9
$DIMBLK
  1

  9
$DIMASO
 70
    1
  9
$DIMSHO
 70
    1
  9
$DIMPOST
  1

  9
$DIMAPOST
  1

  9
$DIMALT
 70
    0
  9
$DIMALTD
 70
    3
  9
$DIMALTF
 40
0.03937
  9
$DIMLFAC
 40
1
  9
$DIMTOFL
 70
    1
  9
$DIMTVP
 40
0
  9
$DIMTIX
 70
    0
  9
$DIMSOXD
 70
    0
  9
$DIMSAH
 70
    0
  9
$DIMBLK1
  1

  9
$DIMBLK2
  1

  9
$DIMSTYLE
  2
STANDARD
  9
$DIMCLRD
 70
    0
  9
$DIMCLRE
 70
    0
  9
$DIMCLRT
 70
    0
  9
$DIMTFAC
 40
1
  9
$DIMGAP
 40
0.03125
  9
$DIMJUST
 70
    0
  9
$DIMSD1
 70
    0
  9
$DIMSD2
 70
    0
  9
$DIMTOLJ
 70
    0
  9
$DIMTZIN
 70
    8
  9
$DIMALTZ
 70
    0
  9
$DIMALTTZ
 70
    0
  9
$DIMUPT
 70
    0
  9
$DIMDEC
 70
    5
  9
$DIMTDEC
 70
    2
  9
$DIMALTU
 70
    2
  9
$DIMALTTD
 70
    3
  9
$DIMTXSTY
  7
romanc
  9
$DIMAUNIT
 70
    0
  9
$DIMADEC
 70
    1
  9
$DIMALTRND
 40
0
  9
$DIMAZIN
 70
    0
  9
$DIMDSEP
 70
   44
  9
$DIMATFIT
 70
    3
  9
$DIMFRAC
 70
    0
  9
$DIMLDRBLK
  1
STANDARD
  9
$DIMLUNIT
 70
    5
  9
$DIMLWD
 70
   -2
  9
$DIMLWE
 70
   -2
  9
$DIMTMOVE
 70
    0
  9
$DIMFXL
 40
1
  9
$DIMFXLON
 70
    0
  9
$DIMJOGANG
 40
0.7854
  9
$DIMTFILL
 70
    0
  9
$DIMTFILLCLR
 70
    0
  9
$DIMARCSYM
 70
    0
  9
$DIMLTYPE
  6

  9
$DIMLTEX1
  6

  9
$DIMLTEX2
  6

  9
$LUNITS
 70
    5
  9
$LUPREC
 70
    5
  9
$SKETCHINC
 40
1
  9
$FILLETRAD
 40
0
  9
$AUNITS
 70
    0
  9
$AUPREC
 70
    1
  9
$MENU
  1
.
  9
$ELEVATION
 40
0
  9
$PELEVATION
 40
0
  9
$THICKNESS
 40
0
  9
$LIMCHECK
 70
    0
  9
$CHAMFERA
 40
0
  9
$CHAMFERB
 40
0
  9
$CHAMFERC
 40
0
  9
$CHAMFERD
 40
0
  9
$SKPOLY
 70
    0
  9
$USRTIMER
 70
    1
  9
$ANGBASE
 50
0
  9
$ANGDIR
 70
    0
  9
$PDMODE
 70
   34
  9
$PDSIZE
 40
0
  9
$PLINEWID
 40
0
  9
$SPLFRAME
 70
    0
  9
$SPLINETYPE
 70
    2
  9
$SPLINESEGS
 70
    8
  9
$HANDSEED
  5
20000
  9
$SURFTAB1
 70
    6
  9
$SURFTAB2
 70
    6
  9
$SURFTYPE
 70
    6
  9
$SURFU
 70
    6
  9
$SURFV
 70
    6
  9
$UCSBASE
  2

  9
$UCSNAME
  2

  9
$UCSORG
 10
0
 20
0
 30
0
  9
$UCSXDIR
 10
1
 20
0
 30
0
  9
$UCSYDIR
 10
0
 20
1
 30
0
  9
$UCSORTHOREF
  2

  9
$UCSORTHOVIEW
 70
    0
  9
$UCSORGTOP
 10
0
 20
0
 30
0
  9
$UCSORGBOTTOM
 10
0
 20
0
 30
0
  9
$UCSORGLEFT
 10
0
 20
0
 30
0
  9
$UCSORGRIGHT
 10
0
 20
0
 30
0
  9
$UCSORGFRONT
 10
0
 20
0
 30
0
  9
$UCSORGBACK
 10
0
 20
0
 30
0
  9
$PUCSBASE
  2

  9
$PUCSNAME
  2

  9
$PUCSORG
 10
0
 20
0
 30
0
  9
$PUCSXDIR
 10
1
 20
0
 30
0
  9
$PUCSYDIR
 10
0
 20
1
 30
0
  9
$PUCSORTHOREF
  2

  9
$PUCSORTHOVIEW
 70
    0
  9
$PUCSORGTOP
 10
0
 20
0
 30
0
  9
$PUCSORGBOTTOM
 10
0
 20
0
 30
0
  9
$PUCSORGLEFT
 10
0
 20
0
 30
0
  9
$PUCSORGRIGHT
 10
0
 20
0
 30
0
  9
$PUCSORGFRONT
 10
0
 20
0
 30
0
  9
$PUCSORGBACK
 10
0
 20
0
 30
0
  9
$USERI1
 70
    0
  9
$USERI2
 70
    0
  9
$USERI3
 70
    0
  9
$USERI4
 70
    0
  9
$USERI5
 70
    0
  9
$USERR1
 40
0
  9
$USERR2
 40
0
  9
$USERR3
 40
0
  9
$USERR4
 40
0
  9
$USERR5
 40
0
  9
$WORLDVIEW
 70
    1
  9
$SHADEDGE
 70
    3
  9
$SHADEDIF
 70
   70
  9
$TILEMODE
 70
    1
  9
$MAXACTVP
 70
   64
  9
$PINSBASE
 10
0
 20
0
 30
0
  9
$PLIMCHECK
 70
    0
  9
$PEXTMIN
 10
0
 20
0
 30
0
  9
$PEXTMAX
 10
0
 20
0
 30
0
  9
$GRIDMODE
 70
    0
  9
$SNAPSTYLE
 70
    0
  9
$GRIDUNIT
 10
0
 20
0
  9
$PLIMMIN
 10
0
 20
0
  9
$PLIMMAX
 10
11
 20
8.5
  9
$UNITMODE
 70
    0
  9
$VISRETAIN
 70
    1
  9
$PLINEGEN
 70
    0
  9
$PSLTSCALE
 70
    1
  9
$TREEDEPTH
 70
 3020
  9
$CMLSTYLE
  2
Standard
  9
$CMLJUST
 70
    0
  9
$CMLSCALE
 40
20
  9
$PROXYGRAPHICS
 70
    1
  9
$MEASUREMENT
 70
    1
  9
$CELWEIGHT
370
   -1
  9
$ENDCAPS
280
    0
  9
$JOINSTYLE
280
    0
  9
$LWDISPLAY
290
    0
  9
$INSUNITS
 70
    1
  9
$HYPERLINKBASE
  1

  9
$STYLESHEET
  1

  9
$XEDIT
290
    1
  9
$CEPSNTYPE
380
    0
  9
$PSTYLEMODE
290
    1
  9
$EXTNAMES
290
    1
  9
$PSVPSCALE
 40
1
  9
$OLESTARTUP
290
    0
  9
$SORTENTS
280
  127
  9
$INDEXCTL
280
    0
  9
$HIDETEXT
280
    1
  9
$XCLIPFRAME
290
    0
  9
$HALOGAP
280
    0
  9
$OBSCOLOR
 70
  257
  9
$OBSLTYPE
280
    0
  9
$INTERSECTIONDISPLAY
280
    0
  9
$INTERSECTIONCOLOR
 70
  257
  9
$DIMASSOC
280
    1
  9
$PROJECTNAME
  1

  9
$CAMERADISPLAY
290
    0
  9
$LENSLENGTH
 40
50
  9
$CAMERAHEIGHT
 40
0
  9
$STEPSPERSEC
 40
2
  9
$STEPSIZE
 40
50
  9
$3DDWFPREC
 40
2
  9
$PSOLWIDTH
 40
5
  9
$PSOLHEIGHT
 40
80
  9
$LOFTANG1
 40
1.570796326794897
  9
$LOFTANG2
 40
1.570796326794897
  9
$LOFTMAG1
 40
0
  9
$LOFTMAG2
 40
0
  9
$LOFTPARAM
 70
    7
  9
$LOFTNORMALS
280
    1
  9
$LATITUDE
 40
1
  9
$LONGITUDE
 40
1
  9
$NORTHDIRECTION
 40
0
  9
$TIMEZONE
 70
-8000
  9
$LIGHTGLYPHDISPLAY
280
    1
  9
$TILEMODELIGHTSYNCH
280
    1
  9
$SOLIDHIST
280
    1
  9
$SHOWHIST
280
    1
  9
$DWFFRAME
280
    2
  9
$DGNFRAME
280
    0
  9
$REALWORLDSCALE
290
    1
  9
$INTERFERECOLOR
 62
    1
  9
$CSHADOW
280
    0
  9
$SHADOWPLANELOCATION
 40
0
  0
ENDSEC
  0
SECTION
  2
CLASSES
  0
ENDSEC
  0
SECTION
  2
TABLES
  0
TABLE
  2
VPORT
  5
8
330
0
100
AcDbSymbolTable
 70
    1
  0
VPORT
  5
31
330
2
100
AcDbSymbolTableRecord
100
AcDbViewportTableRecord
  2
*ACTIVE
 70
    0
 10
0
 20
0
 11
1
 21
1
 12
17.46935320240312
 22
9.88117677754331
 13
0
 23
0
 14
10
 24
10
 15
10
 25
10
 16
0
 26
0
 36
1
 17
0
 27
0
 37
0
 40
38.76825338557662
 41
1.814634146341463
 42
50
 43
0
 44
0
 50
0
 51
0
 71
    0
 72
  100
 73
    1
 74
    3
 75
    0
 76
    0
 77
    0
 78
    0
281
    0
 65
    1
110
0
120
0
130
0
111
1
121
0
131
0
112
0
122
1
132
0
 79
    0
146
0
348
10020
 60
    7
 61
    5
292
1
282
    1
141
0
142
0
 63
  250
421
3358443
  0
ENDTAB
  0
TABLE
  2
LTYPE
  5
5
330
0
100
AcDbSymbolTable
 70
    4
  0
LTYPE
  5
14
330
5
100
AcDbSymbolTableRecord
100
AcDbLinetypeTableRecord
  2
ByBlock
 70
    0
  3

 72
   65
 73
    0
 40
0
  0
LTYPE
  5
15
330
5
100
AcDbSymbolTableRecord
100
AcDbLinetypeTableRecord
  2
ByLayer
 70
    0
  3

 72
   65
 73
    0
 40
0
  0
LTYPE
  5
16
330
5
100
AcDbSymbolTableRecord
100
AcDbLinetypeTableRecord
  2
Continuous
 70
    0
  3
Solid line
 72
   65
 73
    0
 40
0
  0
LTYPE
  5
32
330
5
100
AcDbSymbolTableRecord
100
AcDbLinetypeTableRecord
  2
DOT
 70
    0
  3
Dot . . . . . . . . . . . . . . . . . . . . . .
 72
   65
 73
    2
 40
6.35
 49
0
 74
    0
 49
-6.35
 74
    0
  0
LTYPE
  5
33
330
5
100
AcDbSymbolTableRecord
100
AcDbLinetypeTableRecord
  2
DOTTINY
 70
    0
  3
Dot (.15x) .....................................
 72
   65
 73
    2
 40
0.9525
 49
0
 74
    0
 49
-0.9525
 74
    0
  0
LTYPE
  5
34
330
5
100
AcDbSymbolTableRecord
100
AcDbLinetypeTableRecord
  2
DOT2
 70
    0
  3
Dot (.5x) .....................................
 72
   65
 73
    2
 40
3.175
 49
0
 74
    0
 49
-3.175
 74
    0
  0
LTYPE
  5
35
330
5
100
AcDbSymbolTableRecord
100
AcDbLinetypeTableRecord
  2
DOTX2
 70
    0
  3
Dot (2x) .  .  .  .  .  .  .  .  .  .  .  .  .
 72
   65
 73
    2
 40
12.7
 49
0
 74
    0
 49
-12.7
 74
    0
  0
LTYPE
  5
36
330
5
100
AcDbSymbolTableRecord
100
AcDbLinetypeTableRecord
  2
DASHED
 70
    0
  3
Dashed _ _ _ _ _ _ _ _ _ _ _ _ _ _ _ _ _
 72
   65
 73
    2
 40
19.05
 49
12.7
 74
    0
 49
-6.35
 74
    0
  0
LTYPE
  5
37
330
5
100
AcDbSymbolTableRecord
100
AcDbLinetypeTableRecord
  2
DASHEDTINY
 70
    0
  3
Dashed (.15x) _ _ _ _ _ _ _ _ _ _ _ _ _ _ _ _ _
 72
   65
 73
    2
 40
2.8575
 49
1.905
 74
    0
 49
-0.9525
 74
    0
  0
LTYPE
  5
38
330
5
100
AcDbSymbolTableRecord
100
AcDbLinetypeTableRecord
  2
DASHED2
 70
    0
  3
Dashed (.5x) _ _ _ _ _ _ _ _ _ _ _ _ _ _ _ _ _
 72
   65
 73
    2
 40
9.524999999999999
 49
6.35
 74
    0
 49
-3.175
 74
    0
  0
LTYPE
  5
39
330
5
100
AcDbSymbolTableRecord
100
AcDbLinetypeTableRecord
  2
DASHEDX2
 70
    0
  3
Dashed (2x) ____  ____  ____  ____  ____  ___
 72
   65
 73
    2
 40
38.09999999999999
 49
25.4
 74
    0
 49
-12.7
 74
    0
  0
LTYPE
  5
3A
330
5
100
AcDbSymbolTableRecord
100
AcDbLinetypeTableRecord
  2
DASHDOT
 70
    0
  3
Dash dot __ . __ . __ . __ . __ . __ . __ . __
 72
   65
 73
    4
 40
25.4
 49
12.7
 74
    0
 49
-6.35
 74
    0
 49
0
 74
    0
 49
-6.35
 74
    0
  0
LTYPE
  5
3B
330
5
100
AcDbSymbolTableRecord
100
AcDbLinetypeTableRecord
  2
DASHDOTTINY
 70
    0
  3
Dash dot (.15x) _._._._._._._._._._._._._._._.
 72
   65
 73
    4
 40
3.81
 49
1.905
 74
    0
 49
-0.9525
 74
    0
 49
0
 74
    0
 49
-0.9525
 74
    0
  0
LTYPE
  5
3C
330
5
100
AcDbSymbolTableRecord
100
AcDbLinetypeTableRecord
  2
DASHDOT2
 70
    0
  3
Dash dot (.5x) _._._._._._._._._._._._._._._.
 72
   65
 73
    4
 40
12.7
 49
6.35
 74
    0
 49
-3.175
 74
    0
 49
0
 74
    0
 49
-3.175
 74
    0
  0
LTYPE
  5
3D
330
5
100
AcDbSymbolTableRecord
100
AcDbLinetypeTableRecord
  2
DASHDOTX2
 70
    0
  3
Dash dot (2x) ____  .  ____  .  ____  .  ___
 72
   65
 73
    4
 40
50.8
 49
25.4
 74
    0
 49
-12.7
 74
    0
 49
0
 74
    0
 49
-12.7
 74
    0
  0
LTYPE
  5
3E
330
5
100
AcDbSymbolTableRecord
100
AcDbLinetypeTableRecord
  2
DIVIDE
 70
    0
  3
Divide ____ . . ____ . . ____ . . ____ . . ____
 72
   65
 73
    6
 40
31.75
 49
12.7
 74
    0
 49
-6.35
 74
    0
 49
0
 74
    0
 49
-6.35
 74
    0
 49
0
 74
    0
 49
-6.35
 74
    0
  0
LTYPE
  5
3F
330
5
100
AcDbSymbolTableRecord
100
AcDbLinetypeTableRecord
  2
DIVIDETINY
 70
    0
  3
Divide (.15x) __..__..__..__..__..__..__..__.._
 72
   65
 73
    6
 40
4.7625
 49
1.905
 74
    0
 49
-0.9525
 74
    0
 49
0
 74
    0
 49
-0.9525
 74
    0
 49
0
 74
    0
 49
-0.9525
 74
    0
  0
LTYPE
  5
40
330
5
100
AcDbSymbolTableRecord
100
AcDbLinetypeTableRecord
  2
DIVIDE2
 70
    0
  3
Divide (.5x) __..__..__..__..__..__..__..__.._
 72
   65
 73
    6
 40
15.875
 49
6.35
 74
    0
 49
-3.175
 74
    0
 49
0
 74
    0
 49
-3.175
 74
    0
 49
0
 74
    0
 49
-3.175
 74
    0
  0
LTYPE
  5
41
330
5
100
AcDbSymbolTableRecord
100
AcDbLinetypeTableRecord
  2
DIVIDEX2
 70
    0
  3
Divide (2x) ________  .  .  ________  .  .  _
 72
   65
 73
    6
 40
63.5
 49
25.4
 74
    0
 49
-12.7
 74
    0
 49
0
 74
    0
 49
-12.7
 74
    0
 49
0
 74
    0
 49
-12.7
 74
    0
  0
LTYPE
  5
42
330
5
100
AcDbSymbolTableRecord
100
AcDbLinetypeTableRecord
  2
BORDER
 70
    0
  3
Border __ __ . __ __ . __ __ . __ __ . __ __ .
 72
   65
 73
    6
 40
44.45
 49
12.7
 74
    0
 49
-6.35
 74
    0
 49
12.7
 74
    0
 49
-6.35
 74
    0
 49
0
 74
    0
 49
-6.35
 74
    0
  0
LTYPE
  5
43
330
5
100
AcDbSymbolTableRecord
100
AcDbLinetypeTableRecord
  2
BORDERTINY
 70
    0
  3
Border (.15x) __.__.__.__.__.__.__.__.__.__.__.
 72
   65
 73
    6
 40
6.6675
 49
1.905
 74
    0
 49
-0.9525
 74
    0
 49
1.905
 74
    0
 49
-0.9525
 74
    0
 49
0
 74
    0
 49
-0.9525
 74
    0
  0
LTYPE
  5
44
330
5
100
AcDbSymbolTableRecord
100
AcDbLinetypeTableRecord
  2
BORDER2
 70
    0
  3
Border (.5x) __.__.__.__.__.__.__.__.__.__.__.
 72
   65
 73
    6
 40
22.225
 49
6.35
 74
    0
 49
-3.175
 74
    0
 49
6.35
 74
    0
 49
-3.175
 74
    0
 49
0
 74
    0
 49
-3.175
 74
    0
  0
LTYPE
  5
45
330
5
100
AcDbSymbolTableRecord
100
AcDbLinetypeTableRecord
  2
BORDERX2
 70
    0
  3
Border (2x) ____  ____  .  ____  ____  .  ___
 72
   65
 73
    6
 40
88.89999999999999
 49
25.4
 74
    0
 49
-12.7
 74
    0
 49
25.4
 74
    0
 49
-12.7
 74
    0
 49
0
 74
    0
 49
-12.7
 74
    0
  0
LTYPE
  5
46
330
5
100
AcDbSymbolTableRecord
100
AcDbLinetypeTableRecord
  2
CENTER
 70
    0
  3
Center ____ _ ____ _ ____ _ ____ _ ____ _ ____
 72
   65
 73
    4
 40
50.8
 49
31.75
 74
    0
 49
-6.35
 74
    0
 49
6.35
 74
    0
 49
-6.35
 74
    0
  0
LTYPE
  5
47
330
5
100
AcDbSymbolTableRecord
100
AcDbLinetypeTableRecord
  2
CENTERTINY
 70
    0
  3
Center (.15x) ___ _ ___ _ ___ _ ___ _ ___ _ ___
 72
   65
 73
    4
 40
7.619999999999999
 49
4.7625
 74
    0
 49
-0.9525
 74
    0
 49
0.9525
 74
    0
 49
-0.9525
 74
    0
  0
LTYPE
  5
48
330
5
100
AcDbSymbolTableRecord
100
AcDbLinetypeTableRecord
  2
CENTER2
 70
    0
  3
Center (.5x) ___ _ ___ _ ___ _ ___ _ ___ _ ___
 72
   65
 73
    4
 40
28.575
 49
19.05
 74
    0
 49
-3.175
 74
    0
 49
3.175
 74
    0
 49
-3.175
 74
    0
  0
LTYPE
  5
49
330
5
100
AcDbSymbolTableRecord
100
AcDbLinetypeTableRecord
  2
CENTERX2
 70
    0
  3
Center (2x) ________  __  ________  __  _____
 72
   65
 73
    4
 40
101.6
 49
63.5
 74
    0
 49
-12.7
 74
    0
 49
12.7
 74
    0
 49
-12.7
 74
    0
  0
ENDTAB
  0
TABLE
  2
LAYER
  5
2
330
0
100
AcDbSymbolTable
 70
    1
  0
LAYER
  5
10
330
2
100
AcDbSymbolTableRecord
100
AcDbLayerTableRecord
  2
0
 70
    0
 62
    7
  6
CONTINUOUS
370
   18
390
F
  0
LAYER
  5
4A
330
2
100
AcDbSymbolTableRecord
100
AcDbLayerTableRecord
  2
[BlocksDimn]
 70
    0
 62
    7
  6
CONTINUOUS
370
    0
390
F
  0
ENDTAB
  0
TABLE
  2
STYLE
  5
3
330
0
100
AcDbSymbolTable
 70
    3
  0
STYLE
  5
4B
330
2
100
AcDbSymbolTableRecord
100
AcDbTextStyleTableRecord
  2
Standard
 70
    0
 40
0
 41
1
 50
0
 71
    0
 42
1
  3
txt
  4

  0
ENDTAB
  0
TABLE
  2
VIEW
  5
6
330
0
100
AcDbSymbolTable
 70
    0
  0
ENDTAB
  0
TABLE
  2
UCS
  5
7
330
0
100
AcDbSymbolTable
 70
    0
  0
ENDTAB
  0
TABLE
  2
APPID
  5
9
330
0
100
AcDbSymbolTable
 70
    1
  0
APPID
  5
12
330
9
100
AcDbSymbolTableRecord
100
AcDbRegAppTableRecord
  2
ACAD
 70
    0
  0
APPID
  5
4C
330
9
100
AcDbSymbolTableRecord
100
AcDbRegAppTableRecord
  2
LibreCad
 70
    0
  0
ENDTAB
  0
TABLE
  2
DIMSTYLE
  5
A
330
0
100
AcDbSymbolTable
 70
    1
100
AcDbDimStyleTable
 71
    1
  0
DIMSTYLE
105
4D
330
A
100
AcDbSymbolTableRecord
100
AcDbDimStyleTableRecord
  2
Standard
 70
    0
 40
1
 41
0.09375
 42
0.03125
 43
0.38
 44
0.0625
 45
0
 46
0
 47
0
 48
0
 49
1
140
0.09375
141
0.09
142
0
143
25.4
144
1
145
0
146
1
147
0.03125
148
0
 71
    0
 72
    0
 73
    0
 74
    1
 75
    0
 76
    0
 77
    0
 78
    8
 79
    0
170
    0
171
    2
172
    0
173
    0
174
    0
175
    0
176
    0
177
    0
178
    0
179
    1
271
    5
272
    4
273
    2
274
    2
275
    0
276
    0
277
    5
278
   44
279
    0
280
    0
281
    0
282
    0
283
    1
284
    0
285
    0
286
    0
288
    0
289
    3
340
romanc
341

371
   -2
372
   -2
  0
ENDTAB
  0
TABLE
  2
BLOCK_RECORD
  5
1
330
0
100
AcDbSymbolTable
 70
    2
  0
BLOCK_RECORD
  5
1F
330
1
100
AcDbSymbolTableRecord
100
AcDbBlockTableRecord
  2
*Model_Space
 70
    0
280
    1
281
    0
  0
BLOCK_RECORD
  5
1E
330
1
100
AcDbSymbolTableRecord
100
AcDbBlockTableRecord
  2
*Paper_Space
 70
    0
280
    1
281
    0
  0
ENDTAB
  0
ENDSEC
  0
SECTION
  2
BLOCKS
  0
BLOCK
  5
20
330
1F
100
AcDbEntity
  8
0
100
AcDbBlockBegin
  2
*Model_Space
 70
    0
 10
0
 20
0
 30
0
  3
*Model_Space
  1

  0
ENDBLK
  5
21
330
1F
100
AcDbEntity
  8
0
100
AcDbBlockEnd
  0
BLOCK
  5
1C
330
1B
100
AcDbEntity
  8
0
100
AcDbBlockBegin
  2
*Paper_Space
 70
    0
 10
0
 20
0
 30
0
  3
*Paper_Space
  1

  0
ENDBLK
  5
1D
330
1F
100
AcDbEntity
  8
0
100
AcDbBlockEnd
  0
ENDSEC
  0
SECTION
  2
ENTITIES
  0
LWPOLYLINE
  5
4E
100
AcDbEntity
  8
0
  6
ByLayer
 62
  256
370
   -1
100
AcDbPolyline
 90
    3
 70
    0
 43
0
 10
-10.19230574994323
 20
14.87525704045769
 10
-10.33003961142895
 20
14.87525704045769
 10
-10.46777347291467
 20
14.87525704045769
  0
CIRCLE
  5
4F
100
AcDbEntity
  8
0
  6
ByLayer
 62
  256
370
   -1
100
AcDbCircle
 10
0
 20
0
 40
2
  0
LWPOLYLINE
  5
50
100
AcDbEntity
  8
0
  6
ByLayer
 62
  256
370
   -1
100
AcDbPolyline
 90
 3922
 70
    0
 43
0
 10
-2.071124930447061
 20
19.28118685249526
 10
-2.021812432103083
 20
19.23187435415128
 10
-1.972499933759106
 20
19.23187435415128
 10
-1.923187435415128
 20
19.1825618558073
 10
-1.87387493707115
 20
19.1825618558073
 10
-1.87387493707115
 20
19.13324935746332
 10
-1.824562438727173
 20
19.13324935746332
 10
-1.775249940383195
 20
19.08393685911935
 10
-1.725937442039218
 20
19.03462436077537
 10
-1.67662494369524
 20
19.03462436077537
 10
-1.627312445351262
 20
18.98531186243139
 10
-1.577999947007285
 20
18.98531186243139
 10
-1.528687448663307
 20
18.98531186243139
 10
-1.528687448663307
 20
18.93599936408742
 10
-1.479374950319329
 20
18.93599936408742
 10
-1.430062451975352
 20
18.88668686574344
 10
-1.380749953631374
 20
18.88668686574344
 10
-1.331437455287396
 20
18.88668686574344
 10
-1.331437455287396
 20
18.83737436739946
 10
-1.282124956943419
 20
18.83737436739946
 10
-1.232812458599441
 20
18.83737436739946
 10
-1.183499960255463
 20
18.78806186905548
 10
-1.134187461911486
 20
18.78806186905548
 10
-1.084874963567508
 20
18.78806186905548
 10
-1.03556246522353
 20
18.78806186905548
 10
-0.9862499668795528
 20
18.78806186905548
 10
-0.9369374685355751
 20
18.78806186905548
 10
-0.8876249701915976
 20
18.78806186905548
 10
-0.8383124718476199
 20
18.78806186905548
 10
-0.7889999735036423
 20
18.78806186905548
 10
-0.7396874751596646
 20
18.78806186905548
 10
-0.6903749768156869
 20
18.78806186905548
 10
-0.6410624784717094
 20
18.78806186905548
 10
-0.5917499801277317
 20
18.78806186905548
 10
-0.5424374817837541
 20
18.78806186905548
 10
-0.4931249834397764
 20
18.78806186905548
 10
-0.4438124850957988
 20
18.78806186905548
 10
-0.3944999867518211
 20
18.78806186905548
 10
-0.3451874884078435
 20
18.78806186905548
 10
-0.2958749900638659
 20
18.78806186905548
 10
-0.2465624917198882
 20
18.78806186905548
 10
-0.1972499933759106
 20
18.78806186905548
 10
-0.1479374950319329
 20
18.78806186905548
 10
-0.1479374950319329
 20
18.83737436739946
 10
-0.09862499668795528
 20
18.83737436739946
 10
-0.04931249834397764
 20
18.83737436739946
 10
-0.04931249834397764
 20
18.88668686574344
 10
0
 20
18.88668686574344
 10
0.04931249834397764
 20
18.88668686574344
 10
0.04931249834397764
 20
18.93599936408742
 10
0.09862499668795528
 20
18.93599936408742
 10
0.1479374950319329
 20
18.98531186243139
 10
0.09862499668795528
 20
19.03462436077537
 10
0.1479374950319329
 20
19.03462436077537
 10
0.1972499933759106
 20
19.03462436077537
 10
0.2465624917198882
 20
18.98531186243139
 10
0.2958749900638659
 20
18.98531186243139
 10
0.3451874884078435
 20
18.98531186243139
 10
0.3944999867518211
 20
18.98531186243139
 10
0.4438124850957988
 20
18.93599936408742
 10
0.4931249834397764
 20
18.93599936408742
 10
0.5424374817837541
 20
18.93599936408742
 10
0.5917499801277317
 20
18.88668686574344
 10
0.6410624784717094
 20
18.88668686574344
 10
0.6903749768156869
 20
18.88668686574344
 10
0.7396874751596646
 20
18.88668686574344
 10
0.7889999735036423
 20
18.88668686574344
 10
0.8383124718476199
 20
18.88668686574344
 10
0.8876249701915976
 20
18.88668686574344
 10
0.9369374685355751
 20
18.88668686574344
 10
0.9862499668795528
 20
18.93599936408742
 10
1.03556246522353
 20
18.93599936408742
 10
1.084874963567508
 20
18.93599936408742
 10
1.134187461911486
 20
18.93599936408742
 10
1.183499960255463
 20
18.88668686574344
 10
1.232812458599441
 20
18.88668686574344
 10
1.282124956943419
 20
18.88668686574344
 10
1.331437455287396
 20
18.88668686574344
 10
1.380749953631374
 20
18.88668686574344
 10
1.430062451975352
 20
18.88668686574344
 10
1.479374950319329
 20
18.88668686574344
 10
1.528687448663307
 20
18.88668686574344
 10
1.627312445351262
 20
18.88668686574344
 10
1.67662494369524
 20
18.88668686574344
 10
1.725937442039218
 20
18.88668686574344
 10
1.775249940383195
 20
18.88668686574344
 10
1.824562438727173
 20
18.88668686574344
 10
1.87387493707115
 20
18.88668686574344
 10
1.923187435415128
 20
18.83737436739946
 10
1.972499933759106
 20
18.83737436739946
 10
2.021812432103083
 20
18.83737436739946
 10
2.071124930447061
 20
18.83737436739946
 10
2.120437428791039
 20
18.78806186905548
 10
2.219062425478994
 20
18.78806186905548
 10
2.268374923822972
 20
18.78806186905548
 10
2.317687422166949
 20
18.78806186905548
 10
2.366999920510927
 20
18.7387493707115
 10
2.416312418854905
 20
18.7387493707115
 10
2.465624917198882
 20
18.7387493707115
 10
2.51493741554286
 20
18.7387493707115
 10
2.51493741554286
 20
18.68943687236753
 10
2.564249913886838
 20
18.68943687236753
 10
2.613562412230815
 20
18.68943687236753
 10
2.662874910574792
 20
18.68943687236753
 10
2.71218740891877
 20
18.64012437402355
 10
2.761499907262748
 20
18.64012437402355
 10
2.810812405606725
 20
18.59081187567957
 10
2.860124903950703
 20
18.59081187567957
 10
2.909437402294681
 20
18.59081187567957
 10
2.958749900638658
 20
18.54149937733559
 10
3.008062398982636
 20
18.54149937733559
 10
3.057374897326614
 20
18.54149937733559
 10
3.106687395670591
 20
18.49218687899161
 10
3.155999894014569
 20
18.49218687899161
 10
3.205312392358547
 20
18.49218687899161
 10
3.254624890702524
 20
18.44287438064764
 10
3.254624890702524
 20
18.39356188230366
 10
3.303937389046502
 20
18.39356188230366
 10
3.303937389046502
 20
18.34424938395968
 10
3.35324988739048
 20
18.34424938395968
 10
3.402562385734457
 20
18.29493688561571
 10
3.451874884078435
 20
18.29493688561571
 10
3.501187382422413
 20
18.29493688561571
 10
3.501187382422413
 20
18.19631188892775
 10
3.501187382422413
 20
18.14699939058377
 10
3.55049988076639
 20
18.14699939058377
 10
3.599812379110368
 20
18.09768689223979
 10
3.649124877454346
 20
18.04837439389582
 10
3.649124877454346
 20
17.99906189555184
 10
3.698437375798323
 20
17.99906189555184
 10
3.747749874142301
 20
17.99906189555184
 10
3.797062372486278
 20
17.94974939720786
 10
3.846374870830256
 20
17.94974939720786
 10
3.846374870830256
 20
17.90043689886388
 10
3.895687369174234
 20
17.90043689886388
 10
3.895687369174234
 20
17.85112440051991
 10
3.944999867518211
 20
17.85112440051991
 10
3.944999867518211
 20
17.80181190217593
 10
3.944999867518211
 20
17.75249940383195
 10
3.994312365862189
 20
17.75249940383195
 10
4.043624864206167
 20
17.70318690548797
 10
4.092937362550145
 20
17.70318690548797
 10
4.092937362550145
 20
17.653874407144
 10
4.092937362550145
 20
17.60456190880002
 10
4.142249860894122
 20
17.60456190880002
 10
4.142249860894122
 20
17.55524941045604
 10
4.1915623592381
 20
17.55524941045604
 10
4.240874857582077
 20
17.55524941045604
 10
4.290187355926054
 20
17.55524941045604
 10
4.339499854270032
 20
17.55524941045604
 10
4.38881235261401
 20
17.55524941045604
 10
4.438124850957988
 20
17.55524941045604
 10
4.487437349301965
 20
17.55524941045604
 10
4.536749847645943
 20
17.55524941045604
 10
4.58606234598992
 20
17.55524941045604
 10
4.684687342677876
 20
17.55524941045604
 10
4.783312339365831
 20
17.55524941045604
 10
4.881937336053786
 20
17.60456190880002
 10
4.980562332741742
 20
17.60456190880002
 10
5.079187329429697
 20
17.60456190880002
 10
5.128499827773675
 20
17.60456190880002
 10
5.177812326117652
 20
17.60456190880002
 10
5.22712482446163
 20
17.60456190880002
 10
5.276437322805608
 20
17.60456190880002
 10
5.325749821149585
 20
17.653874407144
 10
5.375062319493563
 20
17.653874407144
 10
5.42437481783754
 20
17.653874407144
 10
5.473687316181518
 20
17.70318690548797
 10
5.522999814525495
 20
17.70318690548797
 10
5.572312312869474
 20
17.70318690548797
 10
5.621624811213451
 20
17.70318690548797
 10
5.670937309557429
 20
17.75249940383195
 10
5.720249807901406
 20
17.75249940383195
 10
5.818874804589361
 20
17.75249940383195
 10
5.86818730293334
 20
17.75249940383195
 10
5.917499801277317
 20
17.75249940383195
 10
5.966812299621295
 20
17.75249940383195
 10
5.966812299621295
 20
17.80181190217593
 10
6.016124797965272
 20
17.80181190217593
 10
6.06543729630925
 20
17.80181190217593
 10
6.114749794653227
 20
17.80181190217593
 10
6.164062292997206
 20
17.80181190217593
 10
6.213374791341183
 20
17.80181190217593
 10
6.262687289685161
 20
17.80181190217593
 10
6.311999788029138
 20
17.80181190217593
 10
6.361312286373115
 20
17.80181190217593
 10
6.459937283061071
 20
17.80181190217593
 10
6.558562279749026
 20
17.80181190217593
 10
6.657187276436981
 20
17.75249940383195
 10
6.706499774780959
 20
17.75249940383195
 10
6.755812273124937
 20
17.75249940383195
 10
6.805124771468915
 20
17.75249940383195
 10
6.854437269812892
 20
17.75249940383195
 10
6.90374976815687
 20
17.75249940383195
 10
6.953062266500847
 20
17.70318690548797
 10
6.953062266500847
 20
17.653874407144
 10
7.002374764844825
 20
17.653874407144
 10
7.002374764844825
 20
17.60456190880002
 10
7.002374764844825
 20
17.55524941045604
 10
7.002374764844825
 20
17.45662441376809
 10
7.002374764844825
 20
17.40731191542411
 10
7.002374764844825
 20
17.35799941708013
 10
7.002374764844825
 20
17.25937442039217
 10
7.051687263188803
 20
17.25937442039217
 10
7.051687263188803
 20
17.2100619220482
 10
7.051687263188803
 20
17.16074942370422
 10
7.100999761532781
 20
17.11143692536024
 10
7.100999761532781
 20
17.06212442701626
 10
7.100999761532781
 20
17.01281192867228
 10
7.100999761532781
 20
16.96349943032831
 10
7.100999761532781
 20
16.91418693198433
 10
7.100999761532781
 20
16.86487443364035
 10
7.100999761532781
 20
16.81556193529638
 10
7.051687263188803
 20
16.71693693860842
 10
7.051687263188803
 20
16.66762444026444
 10
7.051687263188803
 20
16.56899944357649
 10
7.051687263188803
 20
16.51968694523251
 10
7.002374764844825
 20
16.47037444688853
 10
6.953062266500847
 20
16.37174945020058
 10
6.953062266500847
 20
16.3224369518566
 10
6.90374976815687
 20
16.27312445351262
 10
6.90374976815687
 20
16.22381195516864
 10
6.854437269812892
 20
16.17449945682467
 10
6.854437269812892
 20
16.12518695848069
 10
6.805124771468915
 20
16.07587446013671
 10
6.805124771468915
 20
16.02656196179273
 10
6.755812273124937
 20
16.02656196179273
 10
6.755812273124937
 20
15.97724946344876
 10
6.755812273124937
 20
15.92793696510478
 10
6.755812273124937
 20
15.8786244667608
 10
6.706499774780959
 20
15.82931196841682
 10
6.706499774780959
 20
15.77999947007284
 10
6.706499774780959
 20
15.73068697172887
 10
6.706499774780959
 20
15.68137447338489
 10
6.657187276436981
 20
15.63206197504091
 10
6.657187276436981
 20
15.58274947669693
 10
6.657187276436981
 20
15.53343697835296
 10
6.607874778093004
 20
15.48412448000898
 10
6.558562279749026
 20
15.434811981665
 10
6.558562279749026
 20
15.38549948332102
 10
6.509249781405049
 20
15.38549948332102
 10
6.509249781405049
 20
15.33618698497705
 10
6.459937283061071
 20
15.28687448663307
 10
6.459937283061071
 20
15.23756198828909
 10
6.410624784717093
 20
15.18824948994511
 10
6.361312286373115
 20
15.13893699160114
 10
6.361312286373115
 20
15.08962449325716
 10
6.361312286373115
 20
15.04031199491318
 10
6.311999788029138
 20
15.04031199491318
 10
6.311999788029138
 20
14.9909994965692
 10
6.311999788029138
 20
14.94168699822523
 10
6.262687289685161
 20
14.94168699822523
 10
6.262687289685161
 20
14.89237449988125
 10
6.213374791341183
 20
14.89237449988125
 10
6.213374791341183
 20
14.84306200153727
 10
6.164062292997206
 20
14.79374950319329
 10
6.114749794653227
 20
14.79374950319329
 10
6.114749794653227
 20
14.74443700484932
 10
6.06543729630925
 20
14.69512450650534
 10
6.06543729630925
 20
14.64581200816136
 10
6.016124797965272
 20
14.64581200816136
 10
6.016124797965272
 20
14.59649950981738
 10
5.966812299621295
 20
14.5471870114734
 10
5.917499801277317
 20
14.49787451312943
 10
5.86818730293334
 20
14.44856201478545
 10
5.86818730293334
 20
14.39924951644147
 10
5.86818730293334
 20
14.34993701809749
 10
5.818874804589361
 20
14.30062451975352
 10
5.818874804589361
 20
14.25131202140954
 10
5.769562306245384
 20
14.20199952306556
 10
5.769562306245384
 20
14.15268702472158
 10
5.720249807901406
 20
14.10337452637761
 10
5.670937309557429
 20
14.05406202803363
 10
5.621624811213451
 20
14.00474952968965
 10
5.572312312869474
 20
13.95543703134567
 10
5.522999814525495
 20
13.90612453300169
 10
5.473687316181518
 20
13.85681203465772
 10
5.42437481783754
 20
13.80749953631374
 10
5.375062319493563
 20
13.80749953631374
 10
5.325749821149585
 20
13.75818703796976
 10
5.276437322805608
 20
13.70887453962578
 10
5.22712482446163
 20
13.70887453962578
 10
5.177812326117652
 20
13.65956204128181
 10
5.128499827773675
 20
13.61024954293783
 10
5.079187329429697
 20
13.61024954293783
 10
5.02987483108572
 20
13.56093704459385
 10
4.980562332741742
 20
13.51162454624987
 10
4.980562332741742
 20
13.4623120479059
 10
4.931249834397764
 20
13.4623120479059
 10
4.881937336053786
 20
13.41299954956192
 10
4.881937336053786
 20
13.36368705121794
 10
4.832624837709809
 20
13.31437455287396
 10
4.832624837709809
 20
13.26506205452999
 10
4.783312339365831
 20
13.26506205452999
 10
4.733999841021854
 20
13.21574955618601
 10
4.733999841021854
 20
13.16643705784203
 10
4.684687342677876
 20
13.11712455949805
 10
4.635374844333898
 20
13.06781206115408
 10
4.635374844333898
 20
13.0184995628101
 10
4.58606234598992
 20
12.96918706446612
 10
4.58606234598992
 20
12.91987456612214
 10
4.536749847645943
 20
12.87056206777816
 10
4.536749847645943
 20
12.82124956943419
 10
4.536749847645943
 20
12.77193707109021
 10
4.487437349301965
 20
12.77193707109021
 10
4.487437349301965
 20
12.72262457274623
 10
4.438124850957988
 20
12.67331207440225
 10
4.438124850957988
 20
12.62399957605828
 10
4.38881235261401
 20
12.62399957605828
 10
4.38881235261401
 20
12.5746870777143
 10
4.438124850957988
 20
12.5746870777143
 10
4.487437349301965
 20
12.5746870777143
 10
4.536749847645943
 20
12.52537457937032
 10
4.58606234598992
 20
12.5746870777143
 10
4.635374844333898
 20
12.5746870777143
 10
4.684687342677876
 20
12.5746870777143
 10
4.783312339365831
 20
12.5746870777143
 10
4.881937336053786
 20
12.5746870777143
 10
4.931249834397764
 20
12.5746870777143
 10
4.980562332741742
 20
12.62399957605828
 10
5.02987483108572
 20
12.62399957605828
 10
5.079187329429697
 20
12.62399957605828
 10
5.128499827773675
 20
12.62399957605828
 10
5.128499827773675
 20
12.67331207440225
 10
5.128499827773675
 20
12.72262457274623
 10
5.177812326117652
 20
12.77193707109021
 10
5.177812326117652
 20
12.82124956943419
 10
5.22712482446163
 20
12.87056206777816
 10
5.22712482446163
 20
12.91987456612214
 10
5.276437322805608
 20
12.91987456612214
 10
5.325749821149585
 20
12.96918706446612
 10
5.375062319493563
 20
12.96918706446612
 10
5.375062319493563
 20
13.0184995628101
 10
5.42437481783754
 20
13.0184995628101
 10
5.42437481783754
 20
13.06781206115408
 10
5.473687316181518
 20
13.06781206115408
 10
5.522999814525495
 20
13.11712455949805
 10
5.572312312869474
 20
13.16643705784203
 10
5.621624811213451
 20
13.16643705784203
 10
5.670937309557429
 20
13.21574955618601
 10
5.720249807901406
 20
13.26506205452999
 10
5.769562306245384
 20
13.31437455287396
 10
5.769562306245384
 20
13.36368705121794
 10
5.818874804589361
 20
13.41299954956192
 10
5.86818730293334
 20
13.4623120479059
 10
5.917499801277317
 20
13.4623120479059
 10
5.966812299621295
 20
13.51162454624987
 10
6.016124797965272
 20
13.56093704459385
 10
6.06543729630925
 20
13.56093704459385
 10
6.06543729630925
 20
13.61024954293783
 10
6.114749794653227
 20
13.61024954293783
 10
6.164062292997206
 20
13.61024954293783
 10
6.164062292997206
 20
13.65956204128181
 10
6.213374791341183
 20
13.65956204128181
 10
6.213374791341183
 20
13.70887453962578
 10
6.262687289685161
 20
13.70887453962578
 10
6.262687289685161
 20
13.75818703796976
 10
6.311999788029138
 20
13.80749953631374
 10
6.361312286373115
 20
13.80749953631374
 10
6.361312286373115
 20
13.85681203465772
 10
6.410624784717093
 20
13.90612453300169
 10
6.459937283061071
 20
13.90612453300169
 10
6.459937283061071
 20
13.95543703134567
 10
6.509249781405049
 20
13.95543703134567
 10
6.558562279749026
 20
14.00474952968965
 10
6.607874778093004
 20
14.00474952968965
 10
6.657187276436981
 20
14.05406202803363
 10
6.706499774780959
 20
14.10337452637761
 10
6.755812273124937
 20
14.10337452637761
 10
6.755812273124937
 20
14.15268702472158
 10
6.805124771468915
 20
14.15268702472158
 10
6.854437269812892
 20
14.20199952306556
 10
6.90374976815687
 20
14.25131202140954
 10
6.90374976815687
 20
14.30062451975352
 10
6.953062266500847
 20
14.34993701809749
 10
7.002374764844825
 20
14.39924951644147
 10
7.051687263188803
 20
14.44856201478545
 10
7.100999761532781
 20
14.49787451312943
 10
7.150312259876758
 20
14.5471870114734
 10
7.150312259876758
 20
14.59649950981738
 10
7.199624758220736
 20
14.64581200816136
 10
7.199624758220736
 20
14.69512450650534
 10
7.248937256564713
 20
14.69512450650534
 10
7.248937256564713
 20
14.74443700484932
 10
7.248937256564713
 20
14.79374950319329
 10
7.298249754908691
 20
14.84306200153727
 10
7.298249754908691
 20
14.89237449988125
 10
7.298249754908691
 20
14.94168699822523
 10
7.298249754908691
 20
14.9909994965692
 10
7.298249754908691
 20
15.04031199491318
 10
7.298249754908691
 20
15.08962449325716
 10
7.347562253252669
 20
15.13893699160114
 10
7.347562253252669
 20
15.18824948994511
 10
7.347562253252669
 20
15.23756198828909
 10
7.347562253252669
 20
15.28687448663307
 10
7.396874751596646
 20
15.33618698497705
 10
7.396874751596646
 20
15.38549948332102
 10
7.396874751596646
 20
15.434811981665
 10
7.396874751596646
 20
15.48412448000898
 10
7.396874751596646
 20
15.53343697835296
 10
7.396874751596646
 20
15.58274947669693
 10
7.347562253252669
 20
15.63206197504091
 10
7.347562253252669
 20
15.68137447338489
 10
7.298249754908691
 20
15.73068697172887
 10
7.298249754908691
 20
15.77999947007284
 10
7.298249754908691
 20
15.82931196841682
 10
7.298249754908691
 20
15.8786244667608
 10
7.248937256564713
 20
15.8786244667608
 10
7.248937256564713
 20
15.92793696510478
 10
7.248937256564713
 20
15.97724946344876
 10
7.248937256564713
 20
16.02656196179273
 10
7.248937256564713
 20
16.07587446013671
 10
7.248937256564713
 20
16.12518695848069
 10
7.248937256564713
 20
16.17449945682467
 10
7.248937256564713
 20
16.27312445351262
 10
7.248937256564713
 20
16.3224369518566
 10
7.298249754908691
 20
16.37174945020058
 10
7.347562253252669
 20
16.47037444688853
 10
7.347562253252669
 20
16.51968694523251
 10
7.396874751596646
 20
16.56899944357649
 10
7.446187249940624
 20
16.61831194192046
 10
7.495499748284601
 20
16.66762444026444
 10
7.544812246628579
 20
16.71693693860842
 10
7.594124744972556
 20
16.7662494369524
 10
7.643437243316535
 20
16.7662494369524
 10
7.692749741660512
 20
16.81556193529638
 10
7.74206224000449
 20
16.81556193529638
 10
7.791374738348467
 20
16.86487443364035
 10
7.791374738348467
 20
16.91418693198433
 10
7.840687236692445
 20
16.91418693198433
 10
7.889999735036422
 20
16.91418693198433
 10
7.9393122333804
 20
16.96349943032831
 10
7.988624731724378
 20
16.96349943032831
 10
8.037937230068355
 20
16.96349943032831
 10
8.087249728412333
 20
17.01281192867228
 10
8.136562226756311
 20
17.01281192867228
 10
8.185874725100289
 20
17.01281192867228
 10
8.235187223444266
 20
17.06212442701626
 10
8.284499721788244
 20
17.06212442701626
 10
8.333812220132222
 20
17.06212442701626
 10
8.333812220132222
 20
17.11143692536024
 10
8.3831247184762
 20
17.11143692536024
 10
8.432437216820176
 20
17.11143692536024
 10
8.481749715164154
 20
17.16074942370422
 10
8.531062213508132
 20
17.16074942370422
 10
8.580374711852109
 20
17.16074942370422
 10
8.678999708540065
 20
17.2100619220482
 10
8.728312206884043
 20
17.2100619220482
 10
8.777624705228019
 20
17.2100619220482
 10
8.826937203571998
 20
17.2100619220482
 10
8.925562200259954
 20
17.25937442039217
 10
8.97487469860393
 20
17.25937442039217
 10
9.024187196947908
 20
17.25937442039217
 10
9.073499695291886
 20
17.25937442039217
 10
9.122812193635864
 20
17.30868691873615
 10
9.172124691979841
 20
17.30868691873615
 10
9.270749688667797
 20
17.35799941708013
 10
9.320062187011775
 20
17.35799941708013
 10
9.369374685355751
 20
17.40731191542411
 10
9.418687183699729
 20
17.40731191542411
 10
9.418687183699729
 20
17.45662441376809
 10
9.467999682043708
 20
17.45662441376809
 10
9.517312180387684
 20
17.45662441376809
 10
9.566624678731662
 20
17.40731191542411
 10
9.61593717707564
 20
17.40731191542411
 10
9.665249675419618
 20
17.40731191542411
 10
9.714562173763595
 20
17.40731191542411
 10
9.763874672107573
 20
17.35799941708013
 10
9.813187170451551
 20
17.35799941708013
 10
9.862499668795529
 20
17.35799941708013
 10
9.911812167139505
 20
17.30868691873615
 10
9.961124665483483
 20
17.30868691873615
 10
9.961124665483483
 20
17.25937442039217
 10
10.01043716382746
 20
17.25937442039217
 10
10.01043716382746
 20
17.2100619220482
 10
10.05974966217144
 20
17.16074942370422
 10
10.10906216051542
 20
17.11143692536024
 10
10.10906216051542
 20
17.06212442701626
 10
10.15837465885939
 20
17.06212442701626
 10
10.15837465885939
 20
17.01281192867228
 10
10.15837465885939
 20
16.96349943032831
 10
10.20768715720337
 20
16.91418693198433
 10
10.20768715720337
 20
16.86487443364035
 10
10.25699965554735
 20
16.81556193529638
 10
10.30631215389133
 20
16.7662494369524
 10
10.3556246522353
 20
16.7662494369524
 10
10.3556246522353
 20
16.71693693860842
 10
10.40493715057928
 20
16.71693693860842
 10
10.45424964892326
 20
16.71693693860842
 10
10.50356214726724
 20
16.66762444026444
 10
10.55287464561122
 20
16.66762444026444
 10
10.60218714395519
 20
16.66762444026444
 10
10.65149964229917
 20
16.66762444026444
 10
10.70081214064315
 20
16.66762444026444
 10
10.75012463898713
 20
16.61831194192046
 10
10.7994371373311
 20
16.61831194192046
 10
10.84874963567508
 20
16.61831194192046
 10
10.89806213401906
 20
16.56899944357649
 10
10.94737463236304
 20
16.51968694523251
 10
10.99668713070701
 20
16.47037444688853
 10
11.04599962905099
 20
16.42106194854455
 10
11.09531212739497
 20
16.37174945020058
 10
11.14462462573895
 20
16.3224369518566
 10
11.19393712408293
 20
16.27312445351262
 10
11.2432496224269
 20
16.22381195516864
 10
11.29256212077088
 20
16.17449945682467
 10
11.29256212077088
 20
16.12518695848069
 10
11.34187461911486
 20
16.12518695848069
 10
11.39118711745884
 20
16.07587446013671
 10
11.44049961580281
 20
16.02656196179273
 10
11.48981211414679
 20
15.97724946344876
 10
11.53912461249077
 20
15.97724946344876
 10
11.53912461249077
 20
15.92793696510478
 10
11.58843711083474
 20
15.92793696510478
 10
11.58843711083474
 20
15.8786244667608
 10
11.63774960917872
 20
15.8786244667608
 10
11.6870621075227
 20
15.82931196841682
 10
11.73637460586668
 20
15.82931196841682
 10
11.73637460586668
 20
15.77999947007284
 10
11.78568710421066
 20
15.77999947007284
 10
11.83499960255463
 20
15.73068697172887
 10
11.88431210089861
 20
15.73068697172887
 10
11.93362459924259
 20
15.73068697172887
 10
11.93362459924259
 20
15.68137447338489
 10
11.98293709758657
 20
15.68137447338489
 10
12.03224959593054
 20
15.63206197504091
 10
12.08156209427452
 20
15.63206197504091
 10
12.1308745926185
 20
15.58274947669693
 10
12.18018709096248
 20
15.58274947669693
 10
12.18018709096248
 20
15.53343697835296
 10
12.22949958930645
 20
15.53343697835296
 10
12.27881208765043
 20
15.53343697835296
 10
12.27881208765043
 20
15.48412448000898
 10
12.32812458599441
 20
15.48412448000898
 10
12.32812458599441
 20
15.434811981665
 10
12.37743708433839
 20
15.434811981665
 10
12.42674958268237
 20
15.38549948332102
 10
12.42674958268237
 20
15.33618698497705
 10
12.47606208102634
 20
15.33618698497705
 10
12.52537457937032
 20
15.28687448663307
 10
12.5746870777143
 20
15.28687448663307
 10
12.5746870777143
 20
15.23756198828909
 10
12.62399957605828
 20
15.23756198828909
 10
12.62399957605828
 20
15.18824948994511
 10
12.62399957605828
 20
15.13893699160114
 10
12.62399957605828
 20
15.08962449325716
 10
12.62399957605828
 20
15.04031199491318
 10
12.62399957605828
 20
14.9909994965692
 10
12.62399957605828
 20
14.94168699822523
 10
12.5746870777143
 20
14.89237449988125
 10
12.5746870777143
 20
14.84306200153727
 10
12.5746870777143
 20
14.79374950319329
 10
12.5746870777143
 20
14.74443700484932
 10
12.5746870777143
 20
14.69512450650534
 10
12.5746870777143
 20
14.64581200816136
 10
12.5746870777143
 20
14.59649950981738
 10
12.5746870777143
 20
14.5471870114734
 10
12.5746870777143
 20
14.49787451312943
 10
12.62399957605828
 20
14.49787451312943
 10
12.62399957605828
 20
14.44856201478545
 10
12.62399957605828
 20
14.39924951644147
 10
12.5746870777143
 20
14.39924951644147
 10
12.5746870777143
 20
14.34993701809749
 10
12.5746870777143
 20
14.30062451975352
 10
12.5746870777143
 20
14.25131202140954
 10
12.5746870777143
 20
14.20199952306556
 10
12.5746870777143
 20
14.15268702472158
 10
12.5746870777143
 20
14.10337452637761
 10
12.5746870777143
 20
14.05406202803363
 10
12.5746870777143
 20
14.00474952968965
 10
12.62399957605828
 20
13.95543703134567
 10
12.62399957605828
 20
13.90612453300169
 10
12.62399957605828
 20
13.85681203465772
 10
12.62399957605828
 20
13.80749953631374
 10
12.62399957605828
 20
13.75818703796976
 10
12.67331207440225
 20
13.70887453962578
 10
12.72262457274623
 20
13.70887453962578
 10
12.77193707109021
 20
13.65956204128181
 10
12.82124956943419
 20
13.65956204128181
 10
12.87056206777816
 20
13.61024954293783
 10
12.91987456612214
 20
13.61024954293783
 10
12.91987456612214
 20
13.56093704459385
 10
12.96918706446612
 20
13.56093704459385
 10
13.0184995628101
 20
13.56093704459385
 10
13.0184995628101
 20
13.51162454624987
 10
13.06781206115408
 20
13.4623120479059
 10
13.06781206115408
 20
13.41299954956192
 10
13.06781206115408
 20
13.36368705121794
 10
13.11712455949805
 20
13.36368705121794
 10
13.11712455949805
 20
13.31437455287396
 10
13.11712455949805
 20
13.26506205452999
 10
13.16643705784203
 20
13.21574955618601
 10
13.16643705784203
 20
13.16643705784203
 10
13.16643705784203
 20
13.11712455949805
 10
13.16643705784203
 20
13.06781206115408
 10
13.11712455949805
 20
13.06781206115408
 10
13.11712455949805
 20
13.0184995628101
 10
13.06781206115408
 20
13.0184995628101
 10
13.06781206115408
 20
12.96918706446612
 10
13.0184995628101
 20
12.91987456612214
 10
13.0184995628101
 20
12.87056206777816
 10
12.96918706446612
 20
12.87056206777816
 10
12.96918706446612
 20
12.82124956943419
 10
12.96918706446612
 20
12.77193707109021
 10
12.91987456612214
 20
12.77193707109021
 10
12.91987456612214
 20
12.72262457274623
 10
12.87056206777816
 20
12.72262457274623
 10
12.87056206777816
 20
12.67331207440225
 10
12.82124956943419
 20
12.67331207440225
 10
12.82124956943419
 20
12.62399957605828
 10
12.77193707109021
 20
12.62399957605828
 10
12.72262457274623
 20
12.62399957605828
 10
12.72262457274623
 20
12.5746870777143
 10
12.67331207440225
 20
12.5746870777143
 10
12.62399957605828
 20
12.52537457937032
 10
12.5746870777143
 20
12.52537457937032
 10
12.5746870777143
 20
12.47606208102634
 10
12.52537457937032
 20
12.42674958268237
 10
12.47606208102634
 20
12.42674958268237
 10
12.47606208102634
 20
12.37743708433839
 10
12.42674958268237
 20
12.32812458599441
 10
12.37743708433839
 20
12.32812458599441
 10
12.32812458599441
 20
12.27881208765043
 10
12.32812458599441
 20
12.22949958930645
 10
12.27881208765043
 20
12.18018709096248
 10
12.27881208765043
 20
12.1308745926185
 10
12.22949958930645
 20
12.08156209427452
 10
12.22949958930645
 20
12.03224959593054
 10
12.22949958930645
 20
11.98293709758657
 10
12.22949958930645
 20
11.93362459924259
 10
12.22949958930645
 20
11.88431210089861
 10
12.22949958930645
 20
11.83499960255463
 10
12.22949958930645
 20
11.78568710421066
 10
12.27881208765043
 20
11.78568710421066
 10
12.27881208765043
 20
11.73637460586668
 10
12.27881208765043
 20
11.6870621075227
 10
12.32812458599441
 20
11.6870621075227
 10
12.32812458599441
 20
11.63774960917872
 10
12.37743708433839
 20
11.63774960917872
 10
12.42674958268237
 20
11.58843711083474
 10
12.47606208102634
 20
11.58843711083474
 10
12.52537457937032
 20
11.58843711083474
 10
12.5746870777143
 20
11.58843711083474
 10
12.62399957605828
 20
11.58843711083474
 10
12.67331207440225
 20
11.53912461249077
 10
12.72262457274623
 20
11.53912461249077
 10
12.77193707109021
 20
11.53912461249077
 10
12.87056206777816
 20
11.53912461249077
 10
12.91987456612214
 20
11.58843711083474
 10
13.0184995628101
 20
11.58843711083474
 10
13.11712455949805
 20
11.58843711083474
 10
13.21574955618601
 20
11.58843711083474
 10
13.26506205452999
 20
11.58843711083474
 10
13.36368705121794
 20
11.58843711083474
 10
13.4623120479059
 20
11.58843711083474
 10
13.51162454624987
 20
11.58843711083474
 10
13.56093704459385
 20
11.58843711083474
 10
13.61024954293783
 20
11.58843711083474
 10
13.70887453962578
 20
11.58843711083474
 10
13.75818703796976
 20
11.58843711083474
 10
13.80749953631374
 20
11.58843711083474
 10
13.85681203465772
 20
11.58843711083474
 10
13.90612453300169
 20
11.58843711083474
 10
14.00474952968965
 20
11.63774960917872
 10
14.05406202803363
 20
11.63774960917872
 10
14.10337452637761
 20
11.63774960917872
 10
14.15268702472158
 20
11.6870621075227
 10
14.20199952306556
 20
11.6870621075227
 10
14.25131202140954
 20
11.6870621075227
 10
14.30062451975352
 20
11.6870621075227
 10
14.34993701809749
 20
11.6870621075227
 10
14.39924951644147
 20
11.73637460586668
 10
14.44856201478545
 20
11.73637460586668
 10
14.49787451312943
 20
11.73637460586668
 10
14.5471870114734
 20
11.78568710421066
 10
14.59649950981738
 20
11.78568710421066
 10
14.64581200816136
 20
11.73637460586668
 10
14.69512450650534
 20
11.73637460586668
 10
14.74443700484932
 20
11.73637460586668
 10
14.79374950319329
 20
11.73637460586668
 10
14.84306200153727
 20
11.6870621075227
 10
14.89237449988125
 20
11.6870621075227
 10
14.94168699822523
 20
11.6870621075227
 10
14.94168699822523
 20
11.63774960917872
 10
14.9909994965692
 20
11.63774960917872
 10
15.04031199491318
 20
11.58843711083474
 10
15.08962449325716
 20
11.58843711083474
 10
15.08962449325716
 20
11.53912461249077
 10
15.13893699160114
 20
11.53912461249077
 10
15.18824948994511
 20
11.48981211414679
 10
15.23756198828909
 20
11.48981211414679
 10
15.33618698497705
 20
11.44049961580281
 10
15.38549948332102
 20
11.44049961580281
 10
15.38549948332102
 20
11.39118711745884
 10
15.434811981665
 20
11.39118711745884
 10
15.48412448000898
 20
11.39118711745884
 10
15.48412448000898
 20
11.34187461911486
 10
15.48412448000898
 20
11.29256212077088
 10
15.53343697835296
 20
11.29256212077088
 10
15.53343697835296
 20
11.2432496224269
 10
15.58274947669693
 20
11.2432496224269
 10
15.63206197504091
 20
11.19393712408293
 10
15.63206197504091
 20
11.14462462573895
 10
15.68137447338489
 20
11.14462462573895
 10
15.73068697172887
 20
11.14462462573895
 10
15.73068697172887
 20
11.09531212739497
 10
15.77999947007284
 20
11.09531212739497
 10
15.77999947007284
 20
11.04599962905099
 10
15.82931196841682
 20
11.04599962905099
 10
15.82931196841682
 20
10.99668713070701
 10
15.82931196841682
 20
10.94737463236304
 10
15.8786244667608
 20
10.94737463236304
 10
15.8786244667608
 20
10.89806213401906
 10
15.92793696510478
 20
10.89806213401906
 10
15.92793696510478
 20
10.84874963567508
 10
15.97724946344876
 20
10.84874963567508
 10
15.97724946344876
 20
10.7994371373311
 10
15.97724946344876
 20
10.75012463898713
 10
15.97724946344876
 20
10.70081214064315
 10
15.97724946344876
 20
10.65149964229917
 10
16.02656196179273
 20
10.60218714395519
 10
16.02656196179273
 20
10.55287464561122
 10
16.02656196179273
 20
10.50356214726724
 10
16.02656196179273
 20
10.45424964892326
 10
16.02656196179273
 20
10.40493715057928
 10
16.02656196179273
 20
10.3556246522353
 10
16.07587446013671
 20
10.30631215389133
 10
16.12518695848069
 20
10.25699965554735
 10
16.12518695848069
 20
10.20768715720337
 10
16.12518695848069
 20
10.15837465885939
 10
16.17449945682467
 20
10.10906216051542
 10
16.17449945682467
 20
10.05974966217144
 10
16.17449945682467
 20
10.01043716382746
 10
16.22381195516864
 20
9.961124665483483
 10
16.22381195516864
 20
9.911812167139505
 10
16.17449945682467
 20
9.911812167139505
 10
16.17449945682467
 20
9.862499668795529
 10
16.17449945682467
 20
9.813187170451551
 10
16.22381195516864
 20
9.763874672107573
 10
16.22381195516864
 20
9.714562173763595
 10
16.22381195516864
 20
9.665249675419618
 10
16.22381195516864
 20
9.61593717707564
 10
16.17449945682467
 20
9.566624678731662
 10
16.17449945682467
 20
9.517312180387684
 10
16.22381195516864
 20
9.467999682043708
 10
16.22381195516864
 20
9.418687183699729
 10
16.22381195516864
 20
9.369374685355751
 10
16.27312445351262
 20
9.320062187011775
 10
16.27312445351262
 20
9.270749688667797
 10
16.22381195516864
 20
9.270749688667797
 10
16.17449945682467
 20
9.221437190323819
 10
16.12518695848069
 20
9.221437190323819
 10
16.12518695848069
 20
9.172124691979841
 10
16.07587446013671
 20
9.172124691979841
 10
16.02656196179273
 20
9.122812193635864
 10
15.97724946344876
 20
9.122812193635864
 10
15.97724946344876
 20
9.073499695291886
 10
15.92793696510478
 20
9.073499695291886
 10
15.92793696510478
 20
9.024187196947908
 10
15.8786244667608
 20
9.024187196947908
 10
15.8786244667608
 20
8.97487469860393
 10
15.82931196841682
 20
8.97487469860393
 10
15.82931196841682
 20
8.925562200259954
 10
15.77999947007284
 20
8.925562200259954
 10
15.77999947007284
 20
8.876249701915976
 10
15.73068697172887
 20
8.876249701915976
 10
15.73068697172887
 20
8.826937203571998
 10
15.73068697172887
 20
8.777624705228019
 10
15.68137447338489
 20
8.777624705228019
 10
15.68137447338489
 20
8.728312206884043
 10
15.68137447338489
 20
8.678999708540065
 10
15.73068697172887
 20
8.678999708540065
 10
15.77999947007284
 20
8.629687210196087
 10
15.82931196841682
 20
8.629687210196087
 10
15.8786244667608
 20
8.580374711852109
 10
15.92793696510478
 20
8.580374711852109
 10
15.92793696510478
 20
8.531062213508132
 10
15.97724946344876
 20
8.531062213508132
 10
15.97724946344876
 20
8.481749715164154
 10
16.02656196179273
 20
8.481749715164154
 10
16.02656196179273
 20
8.432437216820176
 10
16.02656196179273
 20
8.3831247184762
 10
16.07587446013671
 20
8.333812220132222
 10
16.12518695848069
 20
8.284499721788244
 10
16.12518695848069
 20
8.235187223444266
 10
16.12518695848069
 20
8.185874725100289
 10
16.12518695848069
 20
8.136562226756311
 10
16.17449945682467
 20
8.136562226756311
 10
16.17449945682467
 20
8.087249728412333
 10
16.17449945682467
 20
8.037937230068355
 10
16.22381195516864
 20
8.037937230068355
 10
16.22381195516864
 20
7.988624731724378
 10
16.17449945682467
 20
7.9393122333804
 10
16.12518695848069
 20
7.9393122333804
 10
16.12518695848069
 20
7.889999735036422
 10
16.07587446013671
 20
7.840687236692445
 10
16.02656196179273
 20
7.791374738348467
 10
15.97724946344876
 20
7.74206224000449
 10
15.97724946344876
 20
7.692749741660512
 10
15.92793696510478
 20
7.692749741660512
 10
15.92793696510478
 20
7.643437243316535
 10
15.8786244667608
 20
7.643437243316535
 10
15.8786244667608
 20
7.594124744972556
 10
15.82931196841682
 20
7.594124744972556
 10
15.82931196841682
 20
7.544812246628579
 10
15.77999947007284
 20
7.544812246628579
 10
15.77999947007284
 20
7.495499748284601
 10
15.82931196841682
 20
7.495499748284601
 10
15.82931196841682
 20
7.446187249940624
 10
15.8786244667608
 20
7.396874751596646
 10
15.92793696510478
 20
7.347562253252669
 10
15.97724946344876
 20
7.347562253252669
 10
16.02656196179273
 20
7.347562253252669
 10
16.07587446013671
 20
7.298249754908691
 10
16.12518695848069
 20
7.298249754908691
 10
16.12518695848069
 20
7.248937256564713
 10
16.17449945682467
 20
7.248937256564713
 10
16.17449945682467
 20
7.199624758220736
 10
16.22381195516864
 20
7.199624758220736
 10
16.27312445351262
 20
7.150312259876758
 10
16.3224369518566
 20
7.150312259876758
 10
16.37174945020058
 20
7.100999761532781
 10
16.47037444688853
 20
7.100999761532781
 10
16.51968694523251
 20
7.051687263188803
 10
16.61831194192046
 20
7.051687263188803
 10
16.66762444026444
 20
7.002374764844825
 10
16.71693693860842
 20
7.002374764844825
 10
16.71693693860842
 20
6.953062266500847
 10
16.7662494369524
 20
6.953062266500847
 10
16.86487443364035
 20
6.90374976815687
 10
16.91418693198433
 20
6.854437269812892
 10
16.96349943032831
 20
6.805124771468915
 10
17.06212442701626
 20
6.805124771468915
 10
17.11143692536024
 20
6.755812273124937
 10
17.16074942370422
 20
6.755812273124937
 10
17.2100619220482
 20
6.706499774780959
 10
17.25937442039217
 20
6.706499774780959
 10
17.2100619220482
 20
6.706499774780959
 10
17.16074942370422
 20
6.706499774780959
 10
17.16074942370422
 20
6.657187276436981
 10
17.2100619220482
 20
6.607874778093004
 10
17.25937442039217
 20
6.607874778093004
 10
17.30868691873615
 20
6.558562279749026
 10
17.35799941708013
 20
6.509249781405049
 10
17.40731191542411
 20
6.459937283061071
 10
17.45662441376809
 20
6.410624784717093
 10
17.50593691211206
 20
6.410624784717093
 10
17.55524941045604
 20
6.361312286373115
 10
17.60456190880002
 20
6.311999788029138
 10
17.653874407144
 20
6.311999788029138
 10
17.653874407144
 20
6.262687289685161
 10
17.653874407144
 20
6.213374791341183
 10
17.653874407144
 20
6.164062292997206
 10
17.653874407144
 20
6.114749794653227
 10
17.70318690548797
 20
6.114749794653227
 10
17.70318690548797
 20
6.06543729630925
 10
17.70318690548797
 20
6.016124797965272
 10
17.70318690548797
 20
5.966812299621295
 10
17.653874407144
 20
5.966812299621295
 10
17.653874407144
 20
5.917499801277317
 10
17.60456190880002
 20
5.86818730293334
 10
17.55524941045604
 20
5.86818730293334
 10
17.55524941045604
 20
5.818874804589361
 10
17.50593691211206
 20
5.818874804589361
 10
17.50593691211206
 20
5.769562306245384
 10
17.45662441376809
 20
5.769562306245384
 10
17.45662441376809
 20
5.720249807901406
 10
17.40731191542411
 20
5.670937309557429
 10
17.40731191542411
 20
5.621624811213451
 10
17.35799941708013
 20
5.572312312869474
 10
17.35799941708013
 20
5.522999814525495
 10
17.30868691873615
 20
5.473687316181518
 10
17.30868691873615
 20
5.42437481783754
 10
17.30868691873615
 20
5.375062319493563
 10
17.30868691873615
 20
5.325749821149585
 10
17.30868691873615
 20
5.276437322805608
 10
17.30868691873615
 20
5.22712482446163
 10
17.30868691873615
 20
5.177812326117652
 10
17.25937442039217
 20
5.177812326117652
 10
17.25937442039217
 20
5.128499827773675
 10
17.25937442039217
 20
5.079187329429697
 10
17.25937442039217
 20
5.02987483108572
 10
17.25937442039217
 20
4.980562332741742
 10
17.2100619220482
 20
4.931249834397764
 10
17.2100619220482
 20
4.881937336053786
 10
17.2100619220482
 20
4.832624837709809
 10
17.16074942370422
 20
4.832624837709809
 10
17.16074942370422
 20
4.783312339365831
 10
17.16074942370422
 20
4.733999841021854
 10
17.16074942370422
 20
4.684687342677876
 10
17.16074942370422
 20
4.635374844333898
 10
17.16074942370422
 20
4.58606234598992
 10
17.16074942370422
 20
4.536749847645943
 10
17.2100619220482
 20
4.487437349301965
 10
17.2100619220482
 20
4.438124850957988
 10
17.2100619220482
 20
4.38881235261401
 10
17.25937442039217
 20
4.339499854270032
 10
17.25937442039217
 20
4.290187355926054
 10
17.30868691873615
 20
4.240874857582077
 10
17.30868691873615
 20
4.1915623592381
 10
17.35799941708013
 20
4.142249860894122
 10
17.35799941708013
 20
4.092937362550145
 10
17.35799941708013
 20
4.043624864206167
 10
17.40731191542411
 20
3.994312365862189
 10
17.40731191542411
 20
3.944999867518211
 10
17.40731191542411
 20
3.895687369174234
 10
17.45662441376809
 20
3.846374870830256
 10
17.45662441376809
 20
3.797062372486278
 10
17.50593691211206
 20
3.747749874142301
 10
17.50593691211206
 20
3.698437375798323
 10
17.45662441376809
 20
3.649124877454346
 10
17.50593691211206
 20
3.649124877454346
 10
17.55524941045604
 20
3.599812379110368
 10
17.60456190880002
 20
3.599812379110368
 10
17.60456190880002
 20
3.55049988076639
 10
17.653874407144
 20
3.501187382422413
 10
17.653874407144
 20
3.451874884078435
 10
17.70318690548797
 20
3.451874884078435
 10
17.70318690548797
 20
3.402562385734457
 10
17.75249940383195
 20
3.402562385734457
 10
17.75249940383195
 20
3.35324988739048
 10
17.80181190217593
 20
3.35324988739048
 10
17.80181190217593
 20
3.303937389046502
 10
17.85112440051991
 20
3.254624890702524
 10
17.85112440051991
 20
3.205312392358547
 10
17.90043689886388
 20
3.205312392358547
 10
17.90043689886388
 20
3.155999894014569
 10
17.90043689886388
 20
3.106687395670591
 10
17.90043689886388
 20
3.057374897326614
 10
17.94974939720786
 20
3.008062398982636
 10
17.90043689886388
 20
3.008062398982636
 10
17.90043689886388
 20
2.958749900638658
 10
17.90043689886388
 20
2.909437402294681
 10
17.90043689886388
 20
2.860124903950703
 10
17.85112440051991
 20
2.860124903950703
 10
17.85112440051991
 20
2.810812405606725
 10
17.85112440051991
 20
2.761499907262748
 10
17.85112440051991
 20
2.71218740891877
 10
17.85112440051991
 20
2.662874910574792
 10
17.80181190217593
 20
2.662874910574792
 10
17.80181190217593
 20
2.613562412230815
 10
17.75249940383195
 20
2.613562412230815
 10
17.75249940383195
 20
2.564249913886838
 10
17.70318690548797
 20
2.51493741554286
 10
17.70318690548797
 20
2.465624917198882
 10
17.653874407144
 20
2.465624917198882
 10
17.653874407144
 20
2.416312418854905
 10
17.653874407144
 20
2.366999920510927
 10
17.60456190880002
 20
2.366999920510927
 10
17.60456190880002
 20
2.317687422166949
 10
17.55524941045604
 20
2.268374923822972
 10
17.55524941045604
 20
2.219062425478994
 10
17.55524941045604
 20
2.169749927135016
 10
17.55524941045604
 20
2.120437428791039
 10
17.55524941045604
 20
2.071124930447061
 10
17.60456190880002
 20
2.021812432103083
 10
17.60456190880002
 20
1.972499933759106
 10
17.60456190880002
 20
1.923187435415128
 10
17.653874407144
 20
1.923187435415128
 10
17.653874407144
 20
1.87387493707115
 10
17.653874407144
 20
1.824562438727173
 10
17.60456190880002
 20
1.824562438727173
 10
17.55524941045604
 20
1.824562438727173
 10
17.55524941045604
 20
1.775249940383195
 10
17.50593691211206
 20
1.775249940383195
 10
17.50593691211206
 20
1.725937442039218
 10
17.45662441376809
 20
1.725937442039218
 10
17.45662441376809
 20
1.67662494369524
 10
17.45662441376809
 20
1.627312445351262
 10
17.40731191542411
 20
1.627312445351262
 10
17.40731191542411
 20
1.577999947007285
 10
17.40731191542411
 20
1.528687448663307
 10
17.35799941708013
 20
1.479374950319329
 10
17.35799941708013
 20
1.430062451975352
 10
17.30868691873615
 20
1.380749953631374
 10
17.30868691873615
 20
1.331437455287396
 10
17.30868691873615
 20
1.282124956943419
 10
17.30868691873615
 20
1.232812458599441
 10
17.30868691873615
 20
1.183499960255463
 10
17.30868691873615
 20
1.134187461911486
 10
17.35799941708013
 20
1.134187461911486
 10
17.35799941708013
 20
1.084874963567508
 10
17.35799941708013
 20
1.03556246522353
 10
17.40731191542411
 20
0.9862499668795528
 10
17.45662441376809
 20
0.9369374685355751
 10
17.45662441376809
 20
0.8876249701915976
 10
17.50593691211206
 20
0.8876249701915976
 10
17.55524941045604
 20
0.8876249701915976
 10
17.55524941045604
 20
0.8383124718476199
 10
17.60456190880002
 20
0.8383124718476199
 10
17.653874407144
 20
0.8383124718476199
 10
17.70318690548797
 20
0.8383124718476199
 10
17.75249940383195
 20
0.8383124718476199
 10
17.80181190217593
 20
0.8383124718476199
 10
17.85112440051991
 20
0.7889999735036423
 10
17.90043689886388
 20
0.7889999735036423
 10
17.90043689886388
 20
0.7396874751596646
 10
17.94974939720786
 20
0.7396874751596646
 10
17.94974939720786
 20
0.6903749768156869
 10
17.99906189555184
 20
0.6903749768156869
 10
17.99906189555184
 20
0.6410624784717094
 10
18.04837439389582
 20
0.6410624784717094
 10
18.04837439389582
 20
0.5917499801277317
 10
18.09768689223979
 20
0.5424374817837541
 10
18.09768689223979
 20
0.4931249834397764
 10
18.14699939058377
 20
0.4931249834397764
 10
18.14699939058377
 20
0.4438124850957988
 10
18.14699939058377
 20
0.3944999867518211
 10
18.19631188892775
 20
0.3451874884078435
 10
18.19631188892775
 20
0.2958749900638659
 10
18.19631188892775
 20
0.2465624917198882
 10
18.19631188892775
 20
0.1972499933759106
 10
18.19631188892775
 20
0.1479374950319329
 10
18.19631188892775
 20
0.09862499668795528
 10
18.19631188892775
 20
0.04931249834397764
 10
18.19631188892775
 20
0
 10
18.19631188892775
 20
-0.04931249834397764
 10
18.19631188892775
 20
-0.09862499668795528
 10
18.19631188892775
 20
-0.1479374950319329
 10
18.24562438727173
 20
-0.1972499933759106
 10
18.24562438727173
 20
-0.2465624917198882
 10
18.24562438727173
 20
-0.2958749900638659
 10
18.19631188892775
 20
-0.2958749900638659
 10
18.19631188892775
 20
-0.3451874884078435
 10
18.19631188892775
 20
-0.3944999867518211
 10
18.19631188892775
 20
-0.4438124850957988
 10
18.14699939058377
 20
-0.4438124850957988
 10
18.14699939058377
 20
-0.4931249834397764
 10
18.14699939058377
 20
-0.5424374817837541
 10
18.14699939058377
 20
-0.5917499801277317
 10
18.14699939058377
 20
-0.6410624784717094
 10
18.14699939058377
 20
-0.6903749768156869
 10
18.14699939058377
 20
-0.7396874751596646
 10
18.14699939058377
 20
-0.7889999735036423
 10
18.14699939058377
 20
-0.8383124718476199
 10
18.14699939058377
 20
-0.8876249701915976
 10
18.14699939058377
 20
-0.9369374685355751
 10
18.19631188892775
 20
-0.9862499668795528
 10
18.19631188892775
 20
-1.03556246522353
 10
18.24562438727173
 20
-1.084874963567508
 10
18.24562438727173
 20
-1.134187461911486
 10
18.24562438727173
 20
-1.183499960255463
 10
18.24562438727173
 20
-1.232812458599441
 10
18.24562438727173
 20
-1.282124956943419
 10
18.24562438727173
 20
-1.331437455287396
 10
18.19631188892775
 20
-1.380749953631374
 10
18.19631188892775
 20
-1.430062451975352
 10
18.19631188892775
 20
-1.479374950319329
 10
18.14699939058377
 20
-1.528687448663307
 10
18.14699939058377
 20
-1.577999947007285
 10
18.14699939058377
 20
-1.627312445351262
 10
18.14699939058377
 20
-1.67662494369524
 10
18.09768689223979
 20
-1.67662494369524
 10
18.09768689223979
 20
-1.725937442039218
 10
18.04837439389582
 20
-1.775249940383195
 10
18.04837439389582
 20
-1.824562438727173
 10
17.99906189555184
 20
-1.87387493707115
 10
17.99906189555184
 20
-1.923187435415128
 10
17.99906189555184
 20
-1.972499933759106
 10
17.99906189555184
 20
-2.021812432103083
 10
17.99906189555184
 20
-2.071124930447061
 10
17.99906189555184
 20
-2.120437428791039
 10
17.94974939720786
 20
-2.169749927135016
 10
17.94974939720786
 20
-2.219062425478994
 10
17.94974939720786
 20
-2.268374923822972
 10
17.94974939720786
 20
-2.317687422166949
 10
17.94974939720786
 20
-2.366999920510927
 10
17.94974939720786
 20
-2.416312418854905
 10
17.94974939720786
 20
-2.465624917198882
 10
17.94974939720786
 20
-2.51493741554286
 10
17.94974939720786
 20
-2.564249913886838
 10
17.94974939720786
 20
-2.613562412230815
 10
17.94974939720786
 20
-2.662874910574792
 10
17.94974939720786
 20
-2.71218740891877
 10
17.90043689886388
 20
-2.71218740891877
 10
17.90043689886388
 20
-2.761499907262748
 10
17.90043689886388
 20
-2.810812405606725
 10
17.85112440051991
 20
-2.860124903950703
 10
17.85112440051991
 20
-2.909437402294681
 10
17.80181190217593
 20
-2.909437402294681
 10
17.75249940383195
 20
-2.958749900638658
 10
17.70318690548797
 20
-2.958749900638658
 10
17.70318690548797
 20
-3.008062398982636
 10
17.70318690548797
 20
-3.057374897326614
 10
17.653874407144
 20
-3.106687395670591
 10
17.653874407144
 20
-3.155999894014569
 10
17.60456190880002
 20
-3.205312392358547
 10
17.60456190880002
 20
-3.254624890702524
 10
17.60456190880002
 20
-3.303937389046502
 10
17.60456190880002
 20
-3.35324988739048
 10
17.55524941045604
 20
-3.402562385734457
 10
17.55524941045604
 20
-3.451874884078435
 10
17.55524941045604
 20
-3.501187382422413
 10
17.55524941045604
 20
-3.55049988076639
 10
17.50593691211206
 20
-3.599812379110368
 10
17.50593691211206
 20
-3.649124877454346
 10
17.45662441376809
 20
-3.649124877454346
 10
17.45662441376809
 20
-3.698437375798323
 10
17.45662441376809
 20
-3.747749874142301
 10
17.40731191542411
 20
-3.747749874142301
 10
17.40731191542411
 20
-3.797062372486278
 10
17.40731191542411
 20
-3.846374870830256
 10
17.40731191542411
 20
-3.895687369174234
 10
17.40731191542411
 20
-3.944999867518211
 10
17.35799941708013
 20
-3.994312365862189
 10
17.30868691873615
 20
-4.043624864206167
 10
17.25937442039217
 20
-4.092937362550145
 10
17.2100619220482
 20
-4.092937362550145
 10
17.2100619220482
 20
-4.142249860894122
 10
17.16074942370422
 20
-4.1915623592381
 10
17.16074942370422
 20
-4.240874857582077
 10
17.16074942370422
 20
-4.290187355926054
 10
17.11143692536024
 20
-4.290187355926054
 10
17.11143692536024
 20
-4.339499854270032
 10
17.06212442701626
 20
-4.38881235261401
 10
17.06212442701626
 20
-4.438124850957988
 10
17.01281192867228
 20
-4.438124850957988
 10
17.01281192867228
 20
-4.487437349301965
 10
16.96349943032831
 20
-4.536749847645943
 10
16.96349943032831
 20
-4.58606234598992
 10
16.91418693198433
 20
-4.635374844333898
 10
16.91418693198433
 20
-4.684687342677876
 10
16.91418693198433
 20
-4.733999841021854
 10
16.86487443364035
 20
-4.733999841021854
 10
16.86487443364035
 20
-4.783312339365831
 10
16.86487443364035
 20
-4.832624837709809
 10
16.81556193529638
 20
-4.832624837709809
 10
16.81556193529638
 20
-4.881937336053786
 10
16.7662494369524
 20
-4.931249834397764
 10
16.81556193529638
 20
-4.980562332741742
 10
16.81556193529638
 20
-5.02987483108572
 10
16.81556193529638
 20
-5.079187329429697
 10
16.81556193529638
 20
-5.128499827773675
 10
16.86487443364035
 20
-5.128499827773675
 10
16.86487443364035
 20
-5.177812326117652
 10
16.86487443364035
 20
-5.22712482446163
 10
16.86487443364035
 20
-5.276437322805608
 10
16.86487443364035
 20
-5.325749821149585
 10
16.81556193529638
 20
-5.375062319493563
 10
16.81556193529638
 20
-5.42437481783754
 10
16.81556193529638
 20
-5.473687316181518
 10
16.7662494369524
 20
-5.522999814525495
 10
16.7662494369524
 20
-5.572312312869474
 10
16.7662494369524
 20
-5.621624811213451
 10
16.7662494369524
 20
-5.670937309557429
 10
16.81556193529638
 20
-5.670937309557429
 10
16.81556193529638
 20
-5.720249807901406
 10
16.81556193529638
 20
-5.769562306245384
 10
16.86487443364035
 20
-5.769562306245384
 10
16.86487443364035
 20
-5.818874804589361
 10
16.86487443364035
 20
-5.86818730293334
 10
16.91418693198433
 20
-5.86818730293334
 10
16.91418693198433
 20
-5.917499801277317
 10
16.86487443364035
 20
-5.917499801277317
 10
16.86487443364035
 20
-5.966812299621295
 10
16.86487443364035
 20
-6.016124797965272
 10
16.86487443364035
 20
-6.06543729630925
 10
16.81556193529638
 20
-6.06543729630925
 10
16.81556193529638
 20
-6.114749794653227
 10
16.7662494369524
 20
-6.114749794653227
 10
16.7662494369524
 20
-6.164062292997206
 10
16.7662494369524
 20
-6.213374791341183
 10
16.71693693860842
 20
-6.213374791341183
 10
16.71693693860842
 20
-6.262687289685161
 10
16.71693693860842
 20
-6.311999788029138
 10
16.66762444026444
 20
-6.311999788029138
 10
16.66762444026444
 20
-6.361312286373115
 10
16.61831194192046
 20
-6.361312286373115
 10
16.61831194192046
 20
-6.410624784717093
 10
16.61831194192046
 20
-6.459937283061071
 10
16.56899944357649
 20
-6.459937283061071
 10
16.51968694523251
 20
-6.459937283061071
 10
16.47037444688853
 20
-6.509249781405049
 10
16.42106194854455
 20
-6.509249781405049
 10
16.37174945020058
 20
-6.558562279749026
 10
16.3224369518566
 20
-6.558562279749026
 10
16.27312445351262
 20
-6.558562279749026
 10
16.22381195516864
 20
-6.607874778093004
 10
16.17449945682467
 20
-6.607874778093004
 10
16.12518695848069
 20
-6.607874778093004
 10
16.07587446013671
 20
-6.657187276436981
 10
16.02656196179273
 20
-6.657187276436981
 10
15.97724946344876
 20
-6.657187276436981
 10
15.92793696510478
 20
-6.657187276436981
 10
15.8786244667608
 20
-6.657187276436981
 10
15.82931196841682
 20
-6.657187276436981
 10
15.77999947007284
 20
-6.657187276436981
 10
15.73068697172887
 20
-6.657187276436981
 10
15.63206197504091
 20
-6.657187276436981
 10
15.58274947669693
 20
-6.657187276436981
 10
15.53343697835296
 20
-6.657187276436981
 10
15.48412448000898
 20
-6.657187276436981
 10
15.434811981665
 20
-6.657187276436981
 10
15.38549948332102
 20
-6.657187276436981
 10
15.33618698497705
 20
-6.657187276436981
 10
15.28687448663307
 20
-6.657187276436981
 10
15.23756198828909
 20
-6.657187276436981
 10
15.18824948994511
 20
-6.657187276436981
 10
15.13893699160114
 20
-6.657187276436981
 10
15.08962449325716
 20
-6.657187276436981
 10
15.04031199491318
 20
-6.607874778093004
 10
14.9909994965692
 20
-6.607874778093004
 10
14.94168699822523
 20
-6.607874778093004
 10
14.89237449988125
 20
-6.558562279749026
 10
14.84306200153727
 20
-6.558562279749026
 10
14.84306200153727
 20
-6.509249781405049
 10
14.79374950319329
 20
-6.509249781405049
 10
14.74443700484932
 20
-6.459937283061071
 10
14.69512450650534
 20
-6.410624784717093
 10
14.64581200816136
 20
-6.410624784717093
 10
14.59649950981738
 20
-6.410624784717093
 10
14.59649950981738
 20
-6.361312286373115
 10
14.5471870114734
 20
-6.361312286373115
 10
14.49787451312943
 20
-6.361312286373115
 10
14.49787451312943
 20
-6.311999788029138
 10
14.44856201478545
 20
-6.311999788029138
 10
14.39924951644147
 20
-6.262687289685161
 10
14.34993701809749
 20
-6.262687289685161
 10
14.30062451975352
 20
-6.262687289685161
 10
14.25131202140954
 20
-6.213374791341183
 10
14.15268702472158
 20
-6.213374791341183
 10
14.10337452637761
 20
-6.213374791341183
 10
14.05406202803363
 20
-6.164062292997206
 10
13.95543703134567
 20
-6.164062292997206
 10
13.90612453300169
 20
-6.164062292997206
 10
13.85681203465772
 20
-6.114749794653227
 10
13.80749953631374
 20
-6.114749794653227
 10
13.75818703796976
 20
-6.06543729630925
 10
13.70887453962578
 20
-6.06543729630925
 10
13.65956204128181
 20
-6.06543729630925
 10
13.61024954293783
 20
-6.016124797965272
 10
13.56093704459385
 20
-5.966812299621295
 10
13.51162454624987
 20
-5.966812299621295
 10
13.51162454624987
 20
-5.917499801277317
 10
13.4623120479059
 20
-5.917499801277317
 10
13.4623120479059
 20
-5.86818730293334
 10
13.41299954956192
 20
-5.86818730293334
 10
13.41299954956192
 20
-5.818874804589361
 10
13.36368705121794
 20
-5.818874804589361
 10
13.36368705121794
 20
-5.769562306245384
 10
13.31437455287396
 20
-5.769562306245384
 10
13.31437455287396
 20
-5.720249807901406
 10
13.26506205452999
 20
-5.670937309557429
 10
13.26506205452999
 20
-5.621624811213451
 10
13.26506205452999
 20
-5.572312312869474
 10
13.26506205452999
 20
-5.522999814525495
 10
13.21574955618601
 20
-5.522999814525495
 10
13.21574955618601
 20
-5.473687316181518
 10
13.16643705784203
 20
-5.42437481783754
 10
13.11712455949805
 20
-5.375062319493563
 10
13.06781206115408
 20
-5.325749821149585
 10
13.0184995628101
 20
-5.325749821149585
 10
13.0184995628101
 20
-5.276437322805608
 10
12.96918706446612
 20
-5.276437322805608
 10
12.96918706446612
 20
-5.22712482446163
 10
12.91987456612214
 20
-5.22712482446163
 10
12.91987456612214
 20
-5.177812326117652
 10
12.87056206777816
 20
-5.177812326117652
 10
12.87056206777816
 20
-5.128499827773675
 10
12.82124956943419
 20
-5.128499827773675
 10
12.82124956943419
 20
-5.079187329429697
 10
12.77193707109021
 20
-5.079187329429697
 10
12.72262457274623
 20
-5.02987483108572
 10
12.67331207440225
 20
-5.02987483108572
 10
12.62399957605828
 20
-4.980562332741742
 10
12.5746870777143
 20
-4.980562332741742
 10
12.52537457937032
 20
-4.931249834397764
 10
12.47606208102634
 20
-4.931249834397764
 10
12.42674958268237
 20
-4.931249834397764
 10
12.37743708433839
 20
-4.881937336053786
 10
12.32812458599441
 20
-4.881937336053786
 10
12.27881208765043
 20
-4.881937336053786
 10
12.27881208765043
 20
-4.832624837709809
 10
12.22949958930645
 20
-4.832624837709809
 10
12.18018709096248
 20
-4.832624837709809
 10
12.1308745926185
 20
-4.783312339365831
 10
12.08156209427452
 20
-4.783312339365831
 10
12.03224959593054
 20
-4.783312339365831
 10
11.98293709758657
 20
-4.783312339365831
 10
11.93362459924259
 20
-4.733999841021854
 10
11.88431210089861
 20
-4.733999841021854
 10
11.83499960255463
 20
-4.684687342677876
 10
11.78568710421066
 20
-4.684687342677876
 10
11.73637460586668
 20
-4.684687342677876
 10
11.6870621075227
 20
-4.635374844333898
 10
11.63774960917872
 20
-4.635374844333898
 10
11.58843711083474
 20
-4.635374844333898
 10
11.58843711083474
 20
-4.58606234598992
 10
11.53912461249077
 20
-4.58606234598992
 10
11.48981211414679
 20
-4.58606234598992
 10
11.44049961580281
 20
-4.58606234598992
 10
11.39118711745884
 20
-4.536749847645943
 10
11.34187461911486
 20
-4.536749847645943
 10
11.29256212077088
 20
-4.536749847645943
 10
11.29256212077088
 20
-4.487437349301965
 10
11.2432496224269
 20
-4.487437349301965
 10
11.19393712408293
 20
-4.438124850957988
 10
11.14462462573895
 20
-4.438124850957988
 10
11.09531212739497
 20
-4.38881235261401
 10
10.99668713070701
 20
-4.38881235261401
 10
10.94737463236304
 20
-4.339499854270032
 10
10.84874963567508
 20
-4.339499854270032
 10
10.7994371373311
 20
-4.339499854270032
 10
10.75012463898713
 20
-4.290187355926054
 10
10.65149964229917
 20
-4.290187355926054
 10
10.60218714395519
 20
-4.290187355926054
 10
10.55287464561122
 20
-4.290187355926054
 10
10.50356214726724
 20
-4.240874857582077
 10
10.45424964892326
 20
-4.240874857582077
 10
10.40493715057928
 20
-4.240874857582077
 10
10.3556246522353
 20
-4.240874857582077
 10
10.30631215389133
 20
-4.1915623592381
 10
10.25699965554735
 20
-4.1915623592381
 10
10.20768715720337
 20
-4.1915623592381
 10
10.15837465885939
 20
-4.1915623592381
 10
10.10906216051542
 20
-4.1915623592381
 10
10.10906216051542
 20
-4.142249860894122
 10
10.05974966217144
 20
-4.142249860894122
 10
10.01043716382746
 20
-4.092937362550145
 10
9.961124665483483
 20
-4.092937362550145
 10
9.961124665483483
 20
-4.142249860894122
 10
9.961124665483483
 20
-4.1915623592381
 10
10.01043716382746
 20
-4.1915623592381
 10
10.01043716382746
 20
-4.240874857582077
 10
10.01043716382746
 20
-4.290187355926054
 10
10.05974966217144
 20
-4.290187355926054
 10
10.05974966217144
 20
-4.339499854270032
 10
10.10906216051542
 20
-4.38881235261401
 10
10.10906216051542
 20
-4.438124850957988
 10
10.15837465885939
 20
-4.487437349301965
 10
10.20768715720337
 20
-4.536749847645943
 10
10.20768715720337
 20
-4.58606234598992
 10
10.25699965554735
 20
-4.635374844333898
 10
10.30631215389133
 20
-4.684687342677876
 10
10.3556246522353
 20
-4.684687342677876
 10
10.40493715057928
 20
-4.733999841021854
 10
10.45424964892326
 20
-4.783312339365831
 10
10.55287464561122
 20
-4.783312339365831
 10
10.60218714395519
 20
-4.832624837709809
 10
10.65149964229917
 20
-4.832624837709809
 10
10.75012463898713
 20
-4.881937336053786
 10
10.7994371373311
 20
-4.881937336053786
 10
10.84874963567508
 20
-4.931249834397764
 10
10.89806213401906
 20
-4.931249834397764
 10
10.94737463236304
 20
-4.931249834397764
 10
10.94737463236304
 20
-4.980562332741742
 10
10.99668713070701
 20
-4.980562332741742
 10
11.04599962905099
 20
-5.02987483108572
 10
11.09531212739497
 20
-5.02987483108572
 10
11.14462462573895
 20
-5.079187329429697
 10
11.19393712408293
 20
-5.079187329429697
 10
11.2432496224269
 20
-5.128499827773675
 10
11.34187461911486
 20
-5.128499827773675
 10
11.39118711745884
 20
-5.177812326117652
 10
11.44049961580281
 20
-5.177812326117652
 10
11.48981211414679
 20
-5.22712482446163
 10
11.53912461249077
 20
-5.22712482446163
 10
11.53912461249077
 20
-5.276437322805608
 10
11.58843711083474
 20
-5.276437322805608
 10
11.63774960917872
 20
-5.276437322805608
 10
11.6870621075227
 20
-5.325749821149585
 10
11.73637460586668
 20
-5.325749821149585
 10
11.78568710421066
 20
-5.375062319493563
 10
11.83499960255463
 20
-5.375062319493563
 10
11.93362459924259
 20
-5.42437481783754
 10
11.98293709758657
 20
-5.42437481783754
 10
12.03224959593054
 20
-5.473687316181518
 10
12.08156209427452
 20
-5.473687316181518
 10
12.1308745926185
 20
-5.473687316181518
 10
12.1308745926185
 20
-5.522999814525495
 10
12.18018709096248
 20
-5.522999814525495
 10
12.22949958930645
 20
-5.572312312869474
 10
12.27881208765043
 20
-5.621624811213451
 10
12.32812458599441
 20
-5.670937309557429
 10
12.32812458599441
 20
-5.720249807901406
 10
12.37743708433839
 20
-5.720249807901406
 10
12.37743708433839
 20
-5.769562306245384
 10
12.42674958268237
 20
-5.769562306245384
 10
12.42674958268237
 20
-5.818874804589361
 10
12.47606208102634
 20
-5.818874804589361
 10
12.47606208102634
 20
-5.86818730293334
 10
12.52537457937032
 20
-5.86818730293334
 10
12.52537457937032
 20
-5.917499801277317
 10
12.5746870777143
 20
-5.917499801277317
 10
12.5746870777143
 20
-5.966812299621295
 10
12.62399957605828
 20
-5.966812299621295
 10
12.62399957605828
 20
-6.016124797965272
 10
12.67331207440225
 20
-6.016124797965272
 10
12.67331207440225
 20
-6.06543729630925
 10
12.72262457274623
 20
-6.114749794653227
 10
12.72262457274623
 20
-6.164062292997206
 10
12.77193707109021
 20
-6.213374791341183
 10
12.77193707109021
 20
-6.262687289685161
 10
12.82124956943419
 20
-6.262687289685161
 10
12.87056206777816
 20
-6.311999788029138
 10
12.91987456612214
 20
-6.311999788029138
 10
12.96918706446612
 20
-6.361312286373115
 10
13.0184995628101
 20
-6.361312286373115
 10
13.0184995628101
 20
-6.410624784717093
 10
13.06781206115408
 20
-6.410624784717093
 10
13.06781206115408
 20
-6.459937283061071
 10
13.11712455949805
 20
-6.459937283061071
 10
13.16643705784203
 20
-6.459937283061071
 10
13.16643705784203
 20
-6.509249781405049
 10
13.21574955618601
 20
-6.509249781405049
 10
13.26506205452999
 20
-6.509249781405049
 10
13.31437455287396
 20
-6.509249781405049
 10
13.36368705121794
 20
-6.558562279749026
 10
13.41299954956192
 20
-6.558562279749026
 10
13.4623120479059
 20
-6.558562279749026
 10
13.51162454624987
 20
-6.558562279749026
 10
13.56093704459385
 20
-6.607874778093004
 10
13.61024954293783
 20
-6.607874778093004
 10
13.65956204128181
 20
-6.607874778093004
 10
13.70887453962578
 20
-6.657187276436981
 10
13.75818703796976
 20
-6.657187276436981
 10
13.80749953631374
 20
-6.657187276436981
 10
13.85681203465772
 20
-6.657187276436981
 10
13.85681203465772
 20
-6.706499774780959
 10
13.90612453300169
 20
-6.706499774780959
 10
13.95543703134567
 20
-6.706499774780959
 10
14.00474952968965
 20
-6.706499774780959
 10
14.00474952968965
 20
-6.755812273124937
 10
14.05406202803363
 20
-6.755812273124937
 10
14.10337452637761
 20
-6.805124771468915
 10
14.15268702472158
 20
-6.805124771468915
 10
14.20199952306556
 20
-6.805124771468915
 10
14.25131202140954
 20
-6.854437269812892
 10
14.30062451975352
 20
-6.90374976815687
 10
14.34993701809749
 20
-6.90374976815687
 10
14.39924951644147
 20
-6.90374976815687
 10
14.39924951644147
 20
-6.953062266500847
 10
14.44856201478545
 20
-6.953062266500847
 10
14.49787451312943
 20
-6.953062266500847
 10
14.49787451312943
 20
-7.002374764844825
 10
14.5471870114734
 20
-7.002374764844825
 10
14.59649950981738
 20
-7.051687263188803
 10
14.64581200816136
 20
-7.051687263188803
 10
14.69512450650534
 20
-7.051687263188803
 10
14.74443700484932
 20
-7.051687263188803
 10
14.74443700484932
 20
-7.100999761532781
 10
14.79374950319329
 20
-7.100999761532781
 10
14.84306200153727
 20
-7.100999761532781
 10
14.89237449988125
 20
-7.100999761532781
 10
14.94168699822523
 20
-7.100999761532781
 10
14.9909994965692
 20
-7.100999761532781
 10
15.04031199491318
 20
-7.100999761532781
 10
15.08962449325716
 20
-7.100999761532781
 10
15.13893699160114
 20
-7.051687263188803
 10
15.18824948994511
 20
-7.051687263188803
 10
15.28687448663307
 20
-7.051687263188803
 10
15.33618698497705
 20
-7.051687263188803
 10
15.38549948332102
 20
-7.051687263188803
 10
15.434811981665
 20
-7.051687263188803
 10
15.48412448000898
 20
-7.051687263188803
 10
15.53343697835296
 20
-7.051687263188803
 10
15.58274947669693
 20
-7.051687263188803
 10
15.63206197504091
 20
-7.051687263188803
 10
15.68137447338489
 20
-7.051687263188803
 10
15.77999947007284
 20
-7.051687263188803
 10
15.82931196841682
 20
-7.051687263188803
 10
15.8786244667608
 20
-7.051687263188803
 10
15.92793696510478
 20
-7.051687263188803
 10
15.97724946344876
 20
-7.051687263188803
 10
16.02656196179273
 20
-7.051687263188803
 10
16.07587446013671
 20
-7.051687263188803
 10
16.12518695848069
 20
-7.051687263188803
 10
16.17449945682467
 20
-7.051687263188803
 10
16.22381195516864
 20
-7.100999761532781
 10
16.27312445351262
 20
-7.100999761532781
 10
16.3224369518566
 20
-7.150312259876758
 10
16.37174945020058
 20
-7.150312259876758
 10
16.42106194854455
 20
-7.199624758220736
 10
16.47037444688853
 20
-7.199624758220736
 10
16.51968694523251
 20
-7.248937256564713
 10
16.56899944357649
 20
-7.248937256564713
 10
16.61831194192046
 20
-7.298249754908691
 10
16.61831194192046
 20
-7.347562253252669
 10
16.61831194192046
 20
-7.396874751596646
 10
16.56899944357649
 20
-7.396874751596646
 10
16.56899944357649
 20
-7.446187249940624
 10
16.51968694523251
 20
-7.446187249940624
 10
16.51968694523251
 20
-7.495499748284601
 10
16.47037444688853
 20
-7.495499748284601
 10
16.47037444688853
 20
-7.544812246628579
 10
16.42106194854455
 20
-7.544812246628579
 10
16.37174945020058
 20
-7.544812246628579
 10
16.3224369518566
 20
-7.594124744972556
 10
16.27312445351262
 20
-7.594124744972556
 10
16.22381195516864
 20
-7.594124744972556
 10
16.17449945682467
 20
-7.643437243316535
 10
16.12518695848069
 20
-7.643437243316535
 10
16.07587446013671
 20
-7.643437243316535
 10
16.07587446013671
 20
-7.692749741660512
 10
16.02656196179273
 20
-7.692749741660512
 10
15.97724946344876
 20
-7.692749741660512
 10
15.92793696510478
 20
-7.74206224000449
 10
15.8786244667608
 20
-7.74206224000449
 10
15.8786244667608
 20
-7.791374738348467
 10
15.82931196841682
 20
-7.791374738348467
 10
15.82931196841682
 20
-7.840687236692445
 10
15.77999947007284
 20
-7.889999735036422
 10
15.73068697172887
 20
-7.9393122333804
 10
15.68137447338489
 20
-7.9393122333804
 10
15.68137447338489
 20
-7.988624731724378
 10
15.63206197504091
 20
-7.988624731724378
 10
15.58274947669693
 20
-8.037937230068355
 10
15.53343697835296
 20
-8.087249728412333
 10
15.48412448000898
 20
-8.087249728412333
 10
15.48412448000898
 20
-8.136562226756311
 10
15.434811981665
 20
-8.136562226756311
 10
15.434811981665
 20
-8.185874725100289
 10
15.38549948332102
 20
-8.185874725100289
 10
15.38549948332102
 20
-8.235187223444266
 10
15.33618698497705
 20
-8.235187223444266
 10
15.33618698497705
 20
-8.284499721788244
 10
15.28687448663307
 20
-8.284499721788244
 10
15.23756198828909
 20
-8.333812220132222
 10
15.18824948994511
 20
-8.3831247184762
 10
15.18824948994511
 20
-8.432437216820176
 10
15.13893699160114
 20
-8.481749715164154
 10
15.13893699160114
 20
-8.531062213508132
 10
15.08962449325716
 20
-8.531062213508132
 10
15.08962449325716
 20
-8.580374711852109
 10
15.04031199491318
 20
-8.629687210196087
 10
15.04031199491318
 20
-8.678999708540065
 10
14.9909994965692
 20
-8.728312206884043
 10
14.9909994965692
 20
-8.777624705228019
 10
14.9909994965692
 20
-8.826937203571998
 10
14.9909994965692
 20
-8.876249701915976
 10
14.9909994965692
 20
-8.925562200259954
 10
14.9909994965692
 20
-8.97487469860393
 10
14.94168699822523
 20
-8.97487469860393
 10
14.94168699822523
 20
-9.024187196947908
 10
14.94168699822523
 20
-9.073499695291886
 10
14.94168699822523
 20
-9.122812193635864
 10
14.89237449988125
 20
-9.172124691979841
 10
14.89237449988125
 20
-9.221437190323819
 10
14.89237449988125
 20
-9.270749688667797
 10
14.89237449988125
 20
-9.320062187011775
 10
14.89237449988125
 20
-9.369374685355751
 10
14.94168699822523
 20
-9.418687183699729
 10
14.94168699822523
 20
-9.467999682043708
 10
14.9909994965692
 20
-9.517312180387684
 10
14.9909994965692
 20
-9.566624678731662
 10
14.94168699822523
 20
-9.566624678731662
 10
14.94168699822523
 20
-9.61593717707564
 10
14.94168699822523
 20
-9.665249675419618
 10
14.94168699822523
 20
-9.714562173763595
 10
14.94168699822523
 20
-9.763874672107573
 10
14.89237449988125
 20
-9.763874672107573
 10
14.89237449988125
 20
-9.813187170451551
 10
14.84306200153727
 20
-9.813187170451551
 10
14.84306200153727
 20
-9.862499668795529
 10
14.84306200153727
 20
-9.911812167139505
 10
14.79374950319329
 20
-9.961124665483483
 10
14.79374950319329
 20
-10.01043716382746
 10
14.74443700484932
 20
-10.01043716382746
 10
14.74443700484932
 20
-10.05974966217144
 10
14.69512450650534
 20
-10.10906216051542
 10
14.64581200816136
 20
-10.15837465885939
 10
14.59649950981738
 20
-10.15837465885939
 10
14.5471870114734
 20
-10.20768715720337
 10
14.49787451312943
 20
-10.20768715720337
 10
14.44856201478545
 20
-10.20768715720337
 10
14.39924951644147
 20
-10.20768715720337
 10
14.34993701809749
 20
-10.25699965554735
 10
14.30062451975352
 20
-10.25699965554735
 10
14.25131202140954
 20
-10.25699965554735
 10
14.20199952306556
 20
-10.25699965554735
 10
14.15268702472158
 20
-10.25699965554735
 10
14.10337452637761
 20
-10.25699965554735
 10
14.05406202803363
 20
-10.25699965554735
 10
14.00474952968965
 20
-10.25699965554735
 10
13.95543703134567
 20
-10.30631215389133
 10
13.90612453300169
 20
-10.30631215389133
 10
13.85681203465772
 20
-10.30631215389133
 10
13.80749953631374
 20
-10.30631215389133
 10
13.75818703796976
 20
-10.30631215389133
 10
13.70887453962578
 20
-10.30631215389133
 10
13.65956204128181
 20
-10.30631215389133
 10
13.61024954293783
 20
-10.30631215389133
 10
13.56093704459385
 20
-10.30631215389133
 10
13.51162454624987
 20
-10.30631215389133
 10
13.4623120479059
 20
-10.3556246522353
 10
13.41299954956192
 20
-10.3556246522353
 10
13.36368705121794
 20
-10.3556246522353
 10
13.31437455287396
 20
-10.3556246522353
 10
13.26506205452999
 20
-10.3556246522353
 10
13.21574955618601
 20
-10.3556246522353
 10
13.16643705784203
 20
-10.3556246522353
 10
13.11712455949805
 20
-10.3556246522353
 10
13.06781206115408
 20
-10.3556246522353
 10
13.0184995628101
 20
-10.3556246522353
 10
12.96918706446612
 20
-10.3556246522353
 10
12.91987456612214
 20
-10.3556246522353
 10
12.87056206777816
 20
-10.40493715057928
 10
12.82124956943419
 20
-10.40493715057928
 10
12.77193707109021
 20
-10.40493715057928
 10
12.72262457274623
 20
-10.40493715057928
 10
12.72262457274623
 20
-10.45424964892326
 10
12.67331207440225
 20
-10.45424964892326
 10
12.62399957605828
 20
-10.50356214726724
 10
12.5746870777143
 20
-10.50356214726724
 10
12.5746870777143
 20
-10.55287464561122
 10
12.52537457937032
 20
-10.55287464561122
 10
12.52537457937032
 20
-10.60218714395519
 10
12.47606208102634
 20
-10.60218714395519
 10
12.47606208102634
 20
-10.65149964229917
 10
12.42674958268237
 20
-10.65149964229917
 10
12.42674958268237
 20
-10.70081214064315
 10
12.42674958268237
 20
-10.75012463898713
 10
12.37743708433839
 20
-10.75012463898713
 10
12.37743708433839
 20
-10.7994371373311
 10
12.37743708433839
 20
-10.84874963567508
 10
12.32812458599441
 20
-10.84874963567508
 10
12.32812458599441
 20
-10.89806213401906
 10
12.32812458599441
 20
-10.94737463236304
 10
12.27881208765043
 20
-10.94737463236304
 10
12.27881208765043
 20
-10.99668713070701
 10
12.27881208765043
 20
-11.04599962905099
 10
12.27881208765043
 20
-11.09531212739497
 10
12.27881208765043
 20
-11.14462462573895
 10
12.27881208765043
 20
-11.19393712408293
 10
12.27881208765043
 20
-11.2432496224269
 10
12.32812458599441
 20
-11.2432496224269
 10
12.32812458599441
 20
-11.29256212077088
 10
12.32812458599441
 20
-11.34187461911486
 10
12.32812458599441
 20
-11.39118711745884
 10
12.32812458599441
 20
-11.44049961580281
 10
12.27881208765043
 20
-11.44049961580281
 10
12.32812458599441
 20
-11.48981211414679
 10
12.32812458599441
 20
-11.53912461249077
 10
12.37743708433839
 20
-11.58843711083474
 10
12.37743708433839
 20
-11.63774960917872
 10
12.37743708433839
 20
-11.6870621075227
 10
12.37743708433839
 20
-11.73637460586668
 10
12.37743708433839
 20
-11.78568710421066
 10
12.37743708433839
 20
-11.83499960255463
 10
12.32812458599441
 20
-11.88431210089861
 10
12.32812458599441
 20
-11.93362459924259
 10
12.32812458599441
 20
-11.98293709758657
 10
12.37743708433839
 20
-12.03224959593054
 10
12.37743708433839
 20
-12.08156209427452
 10
12.37743708433839
 20
-12.1308745926185
 10
12.37743708433839
 20
-12.18018709096248
 10
12.42674958268237
 20
-12.22949958930645
 10
12.42674958268237
 20
-12.27881208765043
 10
12.42674958268237
 20
-12.32812458599441
 10
12.47606208102634
 20
-12.32812458599441
 10
12.47606208102634
 20
-12.37743708433839
 10
12.47606208102634
 20
-12.42674958268237
 10
12.47606208102634
 20
-12.47606208102634
 10
12.47606208102634
 20
-12.52537457937032
 10
12.52537457937032
 20
-12.5746870777143
 10
12.52537457937032
 20
-12.62399957605828
 10
12.52537457937032
 20
-12.67331207440225
 10
12.52537457937032
 20
-12.72262457274623
 10
12.52537457937032
 20
-12.77193707109021
 10
12.5746870777143
 20
-12.77193707109021
 10
12.52537457937032
 20
-12.82124956943419
 10
12.52537457937032
 20
-12.87056206777816
 10
12.52537457937032
 20
-12.91987456612214
 10
12.47606208102634
 20
-12.96918706446612
 10
12.42674958268237
 20
-13.0184995628101
 10
12.37743708433839
 20
-13.06781206115408
 10
12.37743708433839
 20
-13.11712455949805
 10
12.37743708433839
 20
-13.16643705784203
 10
12.37743708433839
 20
-13.21574955618601
 10
12.32812458599441
 20
-13.26506205452999
 10
12.32812458599441
 20
-13.31437455287396
 10
12.27881208765043
 20
-13.36368705121794
 10
12.27881208765043
 20
-13.41299954956192
 10
12.22949958930645
 20
-13.4623120479059
 10
12.22949958930645
 20
-13.51162454624987
 10
12.22949958930645
 20
-13.56093704459385
 10
12.18018709096248
 20
-13.56093704459385
 10
12.18018709096248
 20
-13.61024954293783
 10
12.1308745926185
 20
-13.65956204128181
 10
12.08156209427452
 20
-13.70887453962578
 10
12.03224959593054
 20
-13.75818703796976
 10
11.98293709758657
 20
-13.80749953631374
 10
11.93362459924259
 20
-13.85681203465772
 10
11.93362459924259
 20
-13.90612453300169
 10
11.88431210089861
 20
-13.90612453300169
 10
11.88431210089861
 20
-13.95543703134567
 10
11.83499960255463
 20
-14.00474952968965
 10
11.83499960255463
 20
-14.05406202803363
 10
11.78568710421066
 20
-14.10337452637761
 10
11.78568710421066
 20
-14.15268702472158
 10
11.73637460586668
 20
-14.15268702472158
 10
11.73637460586668
 20
-14.20199952306556
 10
11.6870621075227
 20
-14.20199952306556
 10
11.6870621075227
 20
-14.25131202140954
 10
11.63774960917872
 20
-14.25131202140954
 10
11.63774960917872
 20
-14.30062451975352
 10
11.58843711083474
 20
-14.30062451975352
 10
11.53912461249077
 20
-14.34993701809749
 10
11.48981211414679
 20
-14.39924951644147
 10
11.44049961580281
 20
-14.39924951644147
 10
11.39118711745884
 20
-14.39924951644147
 10
11.39118711745884
 20
-14.44856201478545
 10
11.34187461911486
 20
-14.44856201478545
 10
11.29256212077088
 20
-14.44856201478545
 10
11.29256212077088
 20
-14.49787451312943
 10
11.2432496224269
 20
-14.49787451312943
 10
11.19393712408293
 20
-14.49787451312943
 10
11.14462462573895
 20
-14.5471870114734
 10
11.09531212739497
 20
-14.5471870114734
 10
11.04599962905099
 20
-14.5471870114734
 10
10.99668713070701
 20
-14.5471870114734
 10
10.94737463236304
 20
-14.5471870114734
 10
10.89806213401906
 20
-14.5471870114734
 10
10.84874963567508
 20
-14.5471870114734
 10
10.75012463898713
 20
-14.5471870114734
 10
10.70081214064315
 20
-14.59649950981738
 10
10.65149964229917
 20
-14.59649950981738
 10
10.60218714395519
 20
-14.59649950981738
 10
10.55287464561122
 20
-14.59649950981738
 10
10.50356214726724
 20
-14.59649950981738
 10
10.45424964892326
 20
-14.59649950981738
 10
10.40493715057928
 20
-14.59649950981738
 10
10.40493715057928
 20
-14.64581200816136
 10
10.3556246522353
 20
-14.64581200816136
 10
10.30631215389133
 20
-14.64581200816136
 10
10.25699965554735
 20
-14.64581200816136
 10
10.20768715720337
 20
-14.64581200816136
 10
10.15837465885939
 20
-14.64581200816136
 10
10.10906216051542
 20
-14.64581200816136
 10
10.05974966217144
 20
-14.69512450650534
 10
10.01043716382746
 20
-14.64581200816136
 10
9.961124665483483
 20
-14.64581200816136
 10
9.961124665483483
 20
-14.69512450650534
 10
9.911812167139505
 20
-14.69512450650534
 10
9.862499668795529
 20
-14.69512450650534
 10
9.813187170451551
 20
-14.69512450650534
 10
9.763874672107573
 20
-14.69512450650534
 10
9.714562173763595
 20
-14.69512450650534
 10
9.665249675419618
 20
-14.69512450650534
 10
9.61593717707564
 20
-14.69512450650534
 10
9.566624678731662
 20
-14.69512450650534
 10
9.517312180387684
 20
-14.69512450650534
 10
9.467999682043708
 20
-14.69512450650534
 10
9.418687183699729
 20
-14.69512450650534
 10
9.369374685355751
 20
-14.74443700484932
 10
9.320062187011775
 20
-14.74443700484932
 10
9.270749688667797
 20
-14.74443700484932
 10
9.221437190323819
 20
-14.74443700484932
 10
9.172124691979841
 20
-14.74443700484932
 10
9.172124691979841
 20
-14.79374950319329
 10
9.122812193635864
 20
-14.79374950319329
 10
9.073499695291886
 20
-14.79374950319329
 10
9.024187196947908
 20
-14.79374950319329
 10
9.024187196947908
 20
-14.84306200153727
 10
8.97487469860393
 20
-14.84306200153727
 10
8.925562200259954
 20
-14.84306200153727
 10
8.876249701915976
 20
-14.89237449988125
 10
8.826937203571998
 20
-14.89237449988125
 10
8.826937203571998
 20
-14.94168699822523
 10
8.777624705228019
 20
-14.94168699822523
 10
8.728312206884043
 20
-14.9909994965692
 10
8.678999708540065
 20
-14.9909994965692
 10
8.629687210196087
 20
-15.04031199491318
 10
8.580374711852109
 20
-15.04031199491318
 10
8.580374711852109
 20
-15.08962449325716
 10
8.531062213508132
 20
-15.08962449325716
 10
8.531062213508132
 20
-15.13893699160114
 10
8.481749715164154
 20
-15.18824948994511
 10
8.432437216820176
 20
-15.18824948994511
 10
8.3831247184762
 20
-15.23756198828909
 10
8.3831247184762
 20
-15.28687448663307
 10
8.333812220132222
 20
-15.28687448663307
 10
8.333812220132222
 20
-15.33618698497705
 10
8.284499721788244
 20
-15.33618698497705
 10
8.284499721788244
 20
-15.38549948332102
 10
8.235187223444266
 20
-15.434811981665
 10
8.185874725100289
 20
-15.434811981665
 10
8.185874725100289
 20
-15.48412448000898
 10
8.136562226756311
 20
-15.48412448000898
 10
8.087249728412333
 20
-15.53343697835296
 10
8.037937230068355
 20
-15.53343697835296
 10
8.037937230068355
 20
-15.58274947669693
 10
7.988624731724378
 20
-15.58274947669693
 10
7.9393122333804
 20
-15.63206197504091
 10
7.889999735036422
 20
-15.63206197504091
 10
7.889999735036422
 20
-15.68137447338489
 10
7.889999735036422
 20
-15.73068697172887
 10
7.840687236692445
 20
-15.73068697172887
 10
7.840687236692445
 20
-15.77999947007284
 10
7.791374738348467
 20
-15.82931196841682
 10
7.791374738348467
 20
-15.8786244667608
 10
7.791374738348467
 20
-15.92793696510478
 10
7.791374738348467
 20
-15.97724946344876
 10
7.74206224000449
 20
-15.97724946344876
 10
7.74206224000449
 20
-16.02656196179273
 10
7.74206224000449
 20
-16.07587446013671
 10
7.692749741660512
 20
-16.07587446013671
 10
7.692749741660512
 20
-16.12518695848069
 10
7.692749741660512
 20
-16.17449945682467
 10
7.692749741660512
 20
-16.22381195516864
 10
7.643437243316535
 20
-16.27312445351262
 10
7.594124744972556
 20
-16.3224369518566
 10
7.544812246628579
 20
-16.37174945020058
 10
7.495499748284601
 20
-16.37174945020058
 10
7.495499748284601
 20
-16.42106194854455
 10
7.446187249940624
 20
-16.47037444688853
 10
7.396874751596646
 20
-16.47037444688853
 10
7.396874751596646
 20
-16.51968694523251
 10
7.347562253252669
 20
-16.51968694523251
 10
7.298249754908691
 20
-16.51968694523251
 10
7.298249754908691
 20
-16.56899944357649
 10
7.248937256564713
 20
-16.56899944357649
 10
7.248937256564713
 20
-16.61831194192046
 10
7.199624758220736
 20
-16.61831194192046
 10
7.150312259876758
 20
-16.61831194192046
 10
7.150312259876758
 20
-16.66762444026444
 10
7.100999761532781
 20
-16.66762444026444
 10
7.051687263188803
 20
-16.66762444026444
 10
7.051687263188803
 20
-16.71693693860842
 10
7.002374764844825
 20
-16.71693693860842
 10
6.953062266500847
 20
-16.7662494369524
 10
6.90374976815687
 20
-16.7662494369524
 10
6.854437269812892
 20
-16.7662494369524
 10
6.854437269812892
 20
-16.81556193529638
 10
6.805124771468915
 20
-16.81556193529638
 10
6.755812273124937
 20
-16.81556193529638
 10
6.706499774780959
 20
-16.86487443364035
 10
6.657187276436981
 20
-16.86487443364035
 10
6.607874778093004
 20
-16.86487443364035
 10
6.558562279749026
 20
-16.86487443364035
 10
6.509249781405049
 20
-16.86487443364035
 10
6.459937283061071
 20
-16.86487443364035
 10
6.410624784717093
 20
-16.91418693198433
 10
6.361312286373115
 20
-16.91418693198433
 10
6.361312286373115
 20
-16.86487443364035
 10
6.311999788029138
 20
-16.86487443364035
 10
6.311999788029138
 20
-16.81556193529638
 10
6.262687289685161
 20
-16.81556193529638
 10
6.262687289685161
 20
-16.7662494369524
 10
6.213374791341183
 20
-16.7662494369524
 10
6.213374791341183
 20
-16.71693693860842
 10
6.164062292997206
 20
-16.71693693860842
 10
6.114749794653227
 20
-16.66762444026444
 10
6.06543729630925
 20
-16.66762444026444
 10
6.06543729630925
 20
-16.61831194192046
 10
6.016124797965272
 20
-16.61831194192046
 10
5.966812299621295
 20
-16.61831194192046
 10
5.917499801277317
 20
-16.61831194192046
 10
5.86818730293334
 20
-16.56899944357649
 10
5.818874804589361
 20
-16.56899944357649
 10
5.769562306245384
 20
-16.56899944357649
 10
5.670937309557429
 20
-16.56899944357649
 10
5.621624811213451
 20
-16.56899944357649
 10
5.522999814525495
 20
-16.56899944357649
 10
5.42437481783754
 20
-16.56899944357649
 10
5.276437322805608
 20
-16.51968694523251
 10
5.177812326117652
 20
-16.51968694523251
 10
5.02987483108572
 20
-16.51968694523251
 10
4.931249834397764
 20
-16.51968694523251
 10
4.832624837709809
 20
-16.51968694523251
 10
4.684687342677876
 20
-16.51968694523251
 10
4.635374844333898
 20
-16.51968694523251
 10
4.536749847645943
 20
-16.51968694523251
 10
4.438124850957988
 20
-16.51968694523251
 10
4.38881235261401
 20
-16.51968694523251
 10
4.339499854270032
 20
-16.51968694523251
 10
4.240874857582077
 20
-16.47037444688853
 10
4.1915623592381
 20
-16.47037444688853
 10
4.142249860894122
 20
-16.47037444688853
 10
4.092937362550145
 20
-16.47037444688853
 10
3.994312365862189
 20
-16.47037444688853
 10
3.944999867518211
 20
-16.47037444688853
 10
3.895687369174234
 20
-16.47037444688853
 10
3.846374870830256
 20
-16.47037444688853
 10
3.797062372486278
 20
-16.42106194854455
 10
3.747749874142301
 20
-16.47037444688853
 10
3.797062372486278
 20
-16.42106194854455
 10
3.747749874142301
 20
-16.42106194854455
 10
3.698437375798323
 20
-16.42106194854455
 10
3.649124877454346
 20
-16.37174945020058
 10
3.599812379110368
 20
-16.37174945020058
 10
3.55049988076639
 20
-16.37174945020058
 10
3.501187382422413
 20
-16.37174945020058
 10
3.451874884078435
 20
-16.37174945020058
 10
3.451874884078435
 20
-16.42106194854455
 10
3.35324988739048
 20
-16.42106194854455
 10
3.303937389046502
 20
-16.42106194854455
 10
3.254624890702524
 20
-16.47037444688853
 10
3.205312392358547
 20
-16.47037444688853
 10
3.155999894014569
 20
-16.47037444688853
 10
3.106687395670591
 20
-16.47037444688853
 10
3.057374897326614
 20
-16.51968694523251
 10
3.008062398982636
 20
-16.51968694523251
 10
2.958749900638658
 20
-16.51968694523251
 10
2.909437402294681
 20
-16.51968694523251
 10
2.909437402294681
 20
-16.56899944357649
 10
2.860124903950703
 20
-16.56899944357649
 10
2.810812405606725
 20
-16.56899944357649
 10
2.761499907262748
 20
-16.56899944357649
 10
2.71218740891877
 20
-16.61831194192046
 10
2.662874910574792
 20
-16.66762444026444
 10
2.662874910574792
 20
-16.71693693860842
 10
2.662874910574792
 20
-16.7662494369524
 10
2.662874910574792
 20
-16.81556193529638
 10
2.71218740891877
 20
-16.81556193529638
 10
2.71218740891877
 20
-16.86487443364035
 10
2.662874910574792
 20
-16.86487443364035
 10
2.662874910574792
 20
-16.91418693198433
 10
2.613562412230815
 20
-16.91418693198433
 10
2.564249913886838
 20
-16.91418693198433
 10
2.564249913886838
 20
-16.96349943032831
 10
2.51493741554286
 20
-16.96349943032831
 10
2.465624917198882
 20
-16.96349943032831
 10
2.416312418854905
 20
-16.96349943032831
 10
2.366999920510927
 20
-16.96349943032831
 10
2.317687422166949
 20
-16.96349943032831
 10
2.268374923822972
 20
-16.96349943032831
 10
2.268374923822972
 20
-17.01281192867228
 10
2.219062425478994
 20
-17.01281192867228
 10
2.169749927135016
 20
-17.06212442701626
 10
2.120437428791039
 20
-17.06212442701626
 10
2.120437428791039
 20
-17.11143692536024
 10
2.071124930447061
 20
-17.11143692536024
 10
2.021812432103083
 20
-17.16074942370422
 10
1.972499933759106
 20
-17.16074942370422
 10
1.923187435415128
 20
-17.2100619220482
 10
1.87387493707115
 20
-17.2100619220482
 10
1.824562438727173
 20
-17.2100619220482
 10
1.824562438727173
 20
-17.25937442039217
 10
1.775249940383195
 20
-17.25937442039217
 10
1.725937442039218
 20
-17.25937442039217
 10
1.67662494369524
 20
-17.25937442039217
 10
1.627312445351262
 20
-17.30868691873615
 10
1.577999947007285
 20
-17.30868691873615
 10
1.528687448663307
 20
-17.30868691873615
 10
1.430062451975352
 20
-17.35799941708013
 10
1.380749953631374
 20
-17.35799941708013
 10
1.282124956943419
 20
-17.40731191542411
 10
1.232812458599441
 20
-17.40731191542411
 10
1.183499960255463
 20
-17.45662441376809
 10
1.134187461911486
 20
-17.45662441376809
 10
1.084874963567508
 20
-17.45662441376809
 10
1.084874963567508
 20
-17.50593691211206
 10
1.03556246522353
 20
-17.50593691211206
 10
1.03556246522353
 20
-17.55524941045604
 10
0.9862499668795528
 20
-17.55524941045604
 10
0.9369374685355751
 20
-17.55524941045604
 10
0.9369374685355751
 20
-17.60456190880002
 10
0.8876249701915976
 20
-17.60456190880002
 10
0.8383124718476199
 20
-17.653874407144
 10
0.7889999735036423
 20
-17.653874407144
 10
0.7889999735036423
 20
-17.70318690548797
 10
0.7889999735036423
 20
-17.75249940383195
 10
0.7889999735036423
 20
-17.80181190217593
 10
0.7889999735036423
 20
-17.85112440051991
 10
0.7889999735036423
 20
-17.90043689886388
 10
0.7889999735036423
 20
-17.94974939720786
 10
0.7889999735036423
 20
-17.99906189555184
 10
0.7396874751596646
 20
-17.99906189555184
 10
0.7396874751596646
 20
-18.04837439389582
 10
0.6903749768156869
 20
-18.04837439389582
 10
0.6410624784717094
 20
-18.04837439389582
 10
0.5917499801277317
 20
-18.09768689223979
 10
0.5424374817837541
 20
-18.09768689223979
 10
0.4931249834397764
 20
-18.09768689223979
 10
0.4438124850957988
 20
-18.09768689223979
 10
0.3944999867518211
 20
-18.14699939058377
 10
0.3451874884078435
 20
-18.14699939058377
 10
0.2958749900638659
 20
-18.14699939058377
 10
0.2465624917198882
 20
-18.14699939058377
 10
0.1972499933759106
 20
-18.14699939058377
 10
0.1479374950319329
 20
-18.19631188892775
 10
0.09862499668795528
 20
-18.19631188892775
 10
0.04931249834397764
 20
-18.19631188892775
 10
0
 20
-18.19631188892775
 10
0
 20
-18.24562438727173
 10
-0.04931249834397764
 20
-18.24562438727173
 10
-0.09862499668795528
 20
-18.29493688561571
 10
-0.1479374950319329
 20
-18.29493688561571
 10
-0.1972499933759106
 20
-18.29493688561571
 10
-0.1972499933759106
 20
-18.34424938395968
 10
-0.2465624917198882
 20
-18.34424938395968
 10
-0.2958749900638659
 20
-18.34424938395968
 10
-0.3451874884078435
 20
-18.34424938395968
 10
-0.3944999867518211
 20
-18.39356188230366
 10
-0.4438124850957988
 20
-18.39356188230366
 10
-0.4931249834397764
 20
-18.44287438064764
 10
-0.5424374817837541
 20
-18.44287438064764
 10
-0.5917499801277317
 20
-18.44287438064764
 10
-0.6410624784717094
 20
-18.49218687899161
 10
-0.6903749768156869
 20
-18.49218687899161
 10
-0.7396874751596646
 20
-18.49218687899161
 10
-0.7889999735036423
 20
-18.49218687899161
 10
-0.8383124718476199
 20
-18.49218687899161
 10
-0.8876249701915976
 20
-18.49218687899161
 10
-0.9369374685355751
 20
-18.49218687899161
 10
-0.9862499668795528
 20
-18.49218687899161
 10
-1.03556246522353
 20
-18.49218687899161
 10
-1.084874963567508
 20
-18.54149937733559
 10
-1.134187461911486
 20
-18.54149937733559
 10
-1.183499960255463
 20
-18.54149937733559
 10
-1.232812458599441
 20
-18.54149937733559
 10
-1.282124956943419
 20
-18.54149937733559
 10
-1.282124956943419
 20
-18.49218687899161
 10
-1.331437455287396
 20
-18.49218687899161
 10
-1.380749953631374
 20
-18.49218687899161
 10
-1.430062451975352
 20
-18.49218687899161
 10
-1.479374950319329
 20
-18.49218687899161
 10
-1.528687448663307
 20
-18.49218687899161
 10
-1.577999947007285
 20
-18.49218687899161
 10
-1.627312445351262
 20
-18.49218687899161
 10
-1.67662494369524
 20
-18.49218687899161
 10
-1.725937442039218
 20
-18.49218687899161
 10
-1.775249940383195
 20
-18.49218687899161
 10
-1.824562438727173
 20
-18.49218687899161
 10
-1.87387493707115
 20
-18.49218687899161
 10
-1.923187435415128
 20
-18.54149937733559
 10
-1.972499933759106
 20
-18.54149937733559
 10
-2.021812432103083
 20
-18.54149937733559
 10
-2.071124930447061
 20
-18.54149937733559
 10
-2.120437428791039
 20
-18.54149937733559
 10
-2.169749927135016
 20
-18.49218687899161
 10
-2.219062425478994
 20
-18.44287438064764
 10
-2.268374923822972
 20
-18.39356188230366
 10
-2.317687422166949
 20
-18.39356188230366
 10
-2.317687422166949
 20
-18.34424938395968
 10
-2.366999920510927
 20
-18.34424938395968
 10
-2.416312418854905
 20
-18.34424938395968
 10
-2.465624917198882
 20
-18.34424938395968
 10
-2.465624917198882
 20
-18.29493688561571
 10
-2.51493741554286
 20
-18.29493688561571
 10
-2.51493741554286
 20
-18.24562438727173
 10
-2.564249913886838
 20
-18.24562438727173
 10
-2.564249913886838
 20
-18.19631188892775
 10
-2.613562412230815
 20
-18.19631188892775
 10
-2.613562412230815
 20
-18.14699939058377
 10
-2.662874910574792
 20
-18.14699939058377
 10
-2.662874910574792
 20
-18.09768689223979
 10
-2.662874910574792
 20
-18.04837439389582
 10
-2.662874910574792
 20
-17.99906189555184
 10
-2.71218740891877
 20
-17.99906189555184
 10
-2.71218740891877
 20
-17.94974939720786
 10
-2.662874910574792
 20
-17.94974939720786
 10
-2.662874910574792
 20
-17.90043689886388
 10
-2.662874910574792
 20
-17.85112440051991
 10
-2.662874910574792
 20
-17.80181190217593
 10
-2.662874910574792
 20
-17.75249940383195
 10
-2.613562412230815
 20
-17.70318690548797
 10
-2.613562412230815
 20
-17.653874407144
 10
-2.564249913886838
 20
-17.653874407144
 10
-2.51493741554286
 20
-17.60456190880002
 10
-2.465624917198882
 20
-17.60456190880002
 10
-2.465624917198882
 20
-17.55524941045604
 10
-2.416312418854905
 20
-17.55524941045604
 10
-2.416312418854905
 20
-17.50593691211206
 10
-2.366999920510927
 20
-17.50593691211206
 10
-2.366999920510927
 20
-17.45662441376809
 10
-2.317687422166949
 20
-17.45662441376809
 10
-2.317687422166949
 20
-17.40731191542411
 10
-2.317687422166949
 20
-17.35799941708013
 10
-2.268374923822972
 20
-17.35799941708013
 10
-2.219062425478994
 20
-17.30868691873615
 10
-2.169749927135016
 20
-17.25937442039217
 10
-2.120437428791039
 20
-17.25937442039217
 10
-2.120437428791039
 20
-17.2100619220482
 10
-2.120437428791039
 20
-17.16074942370422
 10
-2.071124930447061
 20
-17.16074942370422
 10
-2.071124930447061
 20
-17.11143692536024
 10
-2.021812432103083
 20
-17.06212442701626
 10
-2.021812432103083
 20
-17.01281192867228
 10
-1.972499933759106
 20
-16.96349943032831
 10
-1.972499933759106
 20
-16.91418693198433
 10
-1.972499933759106
 20
-16.86487443364035
 10
-1.923187435415128
 20
-16.81556193529638
 10
-1.923187435415128
 20
-16.7662494369524
 10
-1.923187435415128
 20
-16.71693693860842
 10
-1.87387493707115
 20
-16.66762444026444
 10
-1.87387493707115
 20
-16.61831194192046
 10
-1.824562438727173
 20
-16.56899944357649
 10
-1.824562438727173
 20
-16.51968694523251
 10
-1.824562438727173
 20
-16.47037444688853
 10
-1.824562438727173
 20
-16.42106194854455
 10
-1.775249940383195
 20
-16.42106194854455
 10
-1.775249940383195
 20
-16.37174945020058
 10
-1.775249940383195
 20
-16.3224369518566
 10
-1.775249940383195
 20
-16.27312445351262
 10
-1.725937442039218
 20
-16.22381195516864
 10
-1.725937442039218
 20
-16.17449945682467
 10
-1.725937442039218
 20
-16.12518695848069
 10
-1.725937442039218
 20
-16.07587446013671
 10
-1.775249940383195
 20
-16.07587446013671
 10
-1.775249940383195
 20
-16.02656196179273
 10
-1.824562438727173
 20
-16.02656196179273
 10
-1.824562438727173
 20
-15.97724946344876
 10
-1.87387493707115
 20
-15.92793696510478
 10
-1.87387493707115
 20
-15.8786244667608
 10
-1.87387493707115
 20
-15.82931196841682
 10
-1.87387493707115
 20
-15.77999947007284
 10
-1.87387493707115
 20
-15.73068697172887
 10
-1.87387493707115
 20
-15.68137447338489
 10
-1.87387493707115
 20
-15.63206197504091
 10
-1.87387493707115
 20
-15.58274947669693
 10
-1.87387493707115
 20
-15.53343697835296
 10
-1.87387493707115
 20
-15.48412448000898
 10
-1.824562438727173
 20
-15.434811981665
 10
-1.824562438727173
 20
-15.38549948332102
 10
-1.775249940383195
 20
-15.33618698497705
 10
-1.775249940383195
 20
-15.28687448663307
 10
-1.775249940383195
 20
-15.23756198828909
 10
-1.775249940383195
 20
-15.18824948994511
 10
-1.775249940383195
 20
-15.13893699160114
 10
-1.725937442039218
 20
-15.08962449325716
 10
-1.725937442039218
 20
-15.04031199491318
 10
-1.725937442039218
 20
-14.9909994965692
 10
-1.67662494369524
 20
-14.9909994965692
 10
-1.67662494369524
 20
-14.94168699822523
 10
-1.627312445351262
 20
-14.94168699822523
 10
-1.627312445351262
 20
-14.89237449988125
 10
-1.577999947007285
 20
-14.84306200153727
 10
-1.528687448663307
 20
-14.74443700484932
 10
-1.479374950319329
 20
-14.69512450650534
 10
-1.430062451975352
 20
-14.64581200816136
 10
-1.430062451975352
 20
-14.59649950981738
 10
-1.380749953631374
 20
-14.5471870114734
 10
-1.380749953631374
 20
-14.49787451312943
 10
-1.331437455287396
 20
-14.44856201478545
 10
-1.282124956943419
 20
-14.39924951644147
 10
-1.282124956943419
 20
-14.34993701809749
 10
-1.232812458599441
 20
-14.34993701809749
 10
-1.232812458599441
 20
-14.30062451975352
 10
-1.232812458599441
 20
-14.25131202140954
 10
-1.183499960255463
 20
-14.25131202140954
 10
-1.183499960255463
 20
-14.20199952306556
 10
-1.183499960255463
 20
-14.15268702472158
 10
-1.134187461911486
 20
-14.10337452637761
 10
-1.134187461911486
 20
-14.05406202803363
 10
-1.134187461911486
 20
-14.00474952968965
 10
-1.134187461911486
 20
-13.95543703134567
 10
-1.084874963567508
 20
-13.90612453300169
 10
-1.084874963567508
 20
-13.85681203465772
 10
-1.03556246522353
 20
-13.80749953631374
 10
-1.03556246522353
 20
-13.75818703796976
 10
-1.03556246522353
 20
-13.70887453962578
 10
-0.9862499668795528
 20
-13.65956204128181
 10
-0.9862499668795528
 20
-13.61024954293783
 10
-0.9862499668795528
 20
-13.56093704459385
 10
-0.9862499668795528
 20
-13.51162454624987
 10
-0.9862499668795528
 20
-13.4623120479059
 10
-1.03556246522353
 20
-13.41299954956192
 10
-1.03556246522353
 20
-13.36368705121794
 10
-1.03556246522353
 20
-13.31437455287396
 10
-1.03556246522353
 20
-13.26506205452999
 10
-1.03556246522353
 20
-13.21574955618601
 10
-1.03556246522353
 20
-13.11712455949805
 10
-0.9862499668795528
 20
-13.06781206115408
 10
-0.9862499668795528
 20
-13.0184995628101
 10
-0.9862499668795528
 20
-12.96918706446612
 10
-0.9862499668795528
 20
-12.91987456612214
 10
-0.9862499668795528
 20
-12.87056206777816
 10
-0.9369374685355751
 20
-12.87056206777816
 10
-0.9369374685355751
 20
-12.82124956943419
 10
-0.9369374685355751
 20
-12.77193707109021
 10
-0.9369374685355751
 20
-12.72262457274623
 10
-0.9369374685355751
 20
-12.67331207440225
 10
-0.9369374685355751
 20
-12.62399957605828
 10
-0.9369374685355751
 20
-12.5746870777143
 10
-0.9369374685355751
 20
-12.52537457937032
 10
-0.9862499668795528
 20
-12.52537457937032
 10
-0.9862499668795528
 20
-12.47606208102634
 10
-0.9862499668795528
 20
-12.42674958268237
 10
-0.9369374685355751
 20
-12.37743708433839
 10
-0.9369374685355751
 20
-12.32812458599441
 10
-0.9369374685355751
 20
-12.27881208765043
 10
-0.9369374685355751
 20
-12.22949958930645
 10
-0.9369374685355751
 20
-12.1308745926185
 10
-0.9369374685355751
 20
-12.08156209427452
 10
-0.8876249701915976
 20
-12.03224959593054
 10
-0.8876249701915976
 20
-11.98293709758657
 10
-0.8876249701915976
 20
-11.93362459924259
 10
-0.9369374685355751
 20
-11.93362459924259
 10
-0.9369374685355751
 20
-11.88431210089861
 10
-0.9862499668795528
 20
-11.88431210089861
 10
-1.03556246522353
 20
-11.93362459924259
 10
-1.084874963567508
 20
-11.98293709758657
 10
-1.134187461911486
 20
-11.98293709758657
 10
-1.183499960255463
 20
-12.03224959593054
 10
-1.232812458599441
 20
-12.03224959593054
 10
-1.331437455287396
 20
-12.08156209427452
 10
-1.380749953631374
 20
-12.08156209427452
 10
-1.430062451975352
 20
-12.08156209427452
 10
-1.479374950319329
 20
-12.1308745926185
 10
-1.528687448663307
 20
-12.1308745926185
 10
-1.577999947007285
 20
-12.18018709096248
 10
-1.627312445351262
 20
-12.22949958930645
 10
-1.67662494369524
 20
-12.27881208765043
 10
-1.725937442039218
 20
-12.32812458599441
 10
-1.725937442039218
 20
-12.37743708433839
 10
-1.775249940383195
 20
-12.37743708433839
 10
-1.775249940383195
 20
-12.42674958268237
 10
-1.824562438727173
 20
-12.47606208102634
 10
-1.824562438727173
 20
-12.52537457937032
 10
-1.87387493707115
 20
-12.5746870777143
 10
-1.87387493707115
 20
-12.62399957605828
 10
-1.87387493707115
 20
-12.67331207440225
 10
-1.87387493707115
 20
-12.72262457274623
 10
-1.87387493707115
 20
-12.77193707109021
 10
-1.87387493707115
 20
-12.82124956943419
 10
-1.87387493707115
 20
-12.87056206777816
 10
-1.87387493707115
 20
-12.91987456612214
 10
-1.824562438727173
 20
-12.91987456612214
 10
-1.824562438727173
 20
-12.96918706446612
 10
-1.824562438727173
 20
-13.0184995628101
 10
-1.824562438727173
 20
-13.06781206115408
 10
-1.775249940383195
 20
-13.06781206115408
 10
-1.775249940383195
 20
-13.11712455949805
 10
-1.725937442039218
 20
-13.16643705784203
 10
-1.725937442039218
 20
-13.21574955618601
 10
-1.725937442039218
 20
-13.26506205452999
 10
-1.67662494369524
 20
-13.31437455287396
 10
-1.67662494369524
 20
-13.36368705121794
 10
-1.67662494369524
 20
-13.41299954956192
 10
-1.67662494369524
 20
-13.4623120479059
 10
-1.67662494369524
 20
-13.51162454624987
 10
-1.627312445351262
 20
-13.56093704459385
 10
-1.627312445351262
 20
-13.61024954293783
 10
-1.67662494369524
 20
-13.65956204128181
 10
-1.67662494369524
 20
-13.70887453962578
 10
-1.67662494369524
 20
-13.75818703796976
 10
-1.67662494369524
 20
-13.80749953631374
 10
-1.725937442039218
 20
-13.85681203465772
 10
-1.725937442039218
 20
-13.90612453300169
 10
-1.725937442039218
 20
-13.95543703134567
 10
-1.775249940383195
 20
-13.95543703134567
 10
-1.775249940383195
 20
-14.00474952968965
 10
-1.775249940383195
 20
-14.05406202803363
 10
-1.775249940383195
 20
-14.10337452637761
 10
-1.824562438727173
 20
-14.15268702472158
 10
-1.824562438727173
 20
-14.20199952306556
 10
-1.824562438727173
 20
-14.25131202140954
 10
-1.824562438727173
 20
-14.30062451975352
 10
-1.87387493707115
 20
-14.34993701809749
 10
-1.923187435415128
 20
-14.39924951644147
 10
-1.923187435415128
 20
-14.44856201478545
 10
-1.972499933759106
 20
-14.49787451312943
 10
-1.972499933759106
 20
-14.5471870114734
 10
-2.021812432103083
 20
-14.59649950981738
 10
-2.021812432103083
 20
-14.64581200816136
 10
-2.071124930447061
 20
-14.69512450650534
 10
-2.071124930447061
 20
-14.74443700484932
 10
-2.120437428791039
 20
-14.79374950319329
 10
-2.120437428791039
 20
-14.84306200153727
 10
-2.169749927135016
 20
-14.84306200153727
 10
-2.169749927135016
 20
-14.89237449988125
 10
-2.219062425478994
 20
-14.89237449988125
 10
-2.219062425478994
 20
-14.94168699822523
 10
-2.219062425478994
 20
-14.9909994965692
 10
-2.268374923822972
 20
-14.9909994965692
 10
-2.268374923822972
 20
-15.04031199491318
 10
-2.268374923822972
 20
-15.08962449325716
 10
-2.317687422166949
 20
-15.13893699160114
 10
-2.317687422166949
 20
-15.18824948994511
 10
-2.317687422166949
 20
-15.23756198828909
 10
-2.317687422166949
 20
-15.28687448663307
 10
-2.366999920510927
 20
-15.28687448663307
 10
-2.366999920510927
 20
-15.33618698497705
 10
-2.366999920510927
 20
-15.38549948332102
 10
-2.366999920510927
 20
-15.434811981665
 10
-2.416312418854905
 20
-15.434811981665
 10
-2.416312418854905
 20
-15.48412448000898
 10
-2.416312418854905
 20
-15.53343697835296
 10
-2.465624917198882
 20
-15.53343697835296
 10
-2.51493741554286
 20
-15.58274947669693
 10
-2.564249913886838
 20
-15.58274947669693
 10
-2.564249913886838
 20
-15.63206197504091
 10
-2.613562412230815
 20
-15.63206197504091
 10
-2.613562412230815
 20
-15.68137447338489
 10
-2.662874910574792
 20
-15.68137447338489
 10
-2.662874910574792
 20
-15.73068697172887
 10
-2.71218740891877
 20
-15.77999947007284
 10
-2.761499907262748
 20
-15.82931196841682
 10
-2.761499907262748
 20
-15.8786244667608
 10
-2.810812405606725
 20
-15.8786244667608
 10
-2.810812405606725
 20
-15.92793696510478
 10
-2.860124903950703
 20
-15.92793696510478
 10
-2.909437402294681
 20
-15.97724946344876
 10
-2.958749900638658
 20
-16.02656196179273
 10
-3.008062398982636
 20
-16.07587446013671
 10
-3.057374897326614
 20
-16.07587446013671
 10
-3.057374897326614
 20
-16.12518695848069
 10
-3.106687395670591
 20
-16.12518695848069
 10
-3.155999894014569
 20
-16.17449945682467
 10
-3.205312392358547
 20
-16.22381195516864
 10
-3.254624890702524
 20
-16.22381195516864
 10
-3.303937389046502
 20
-16.27312445351262
 10
-3.303937389046502
 20
-16.3224369518566
 10
-3.35324988739048
 20
-16.3224369518566
 10
-3.402562385734457
 20
-16.37174945020058
 10
-3.451874884078435
 20
-16.42106194854455
 10
-3.501187382422413
 20
-16.47037444688853
 10
-3.55049988076639
 20
-16.51968694523251
 10
-3.599812379110368
 20
-16.56899944357649
 10
-3.599812379110368
 20
-16.61831194192046
 10
-3.649124877454346
 20
-16.66762444026444
 10
-3.649124877454346
 20
-16.71693693860842
 10
-3.649124877454346
 20
-16.7662494369524
 10
-3.698437375798323
 20
-16.7662494369524
 10
-3.698437375798323
 20
-16.81556193529638
 10
-3.698437375798323
 20
-16.86487443364035
 10
-3.698437375798323
 20
-16.91418693198433
 10
-3.747749874142301
 20
-16.91418693198433
 10
-3.747749874142301
 20
-16.96349943032831
 10
-3.747749874142301
 20
-17.01281192867228
 10
-3.797062372486278
 20
-17.01281192867228
 10
-3.797062372486278
 20
-17.06212442701626
 10
-3.846374870830256
 20
-17.06212442701626
 10
-3.846374870830256
 20
-17.11143692536024
 10
-3.895687369174234
 20
-17.11143692536024
 10
-3.895687369174234
 20
-17.16074942370422
 10
-3.944999867518211
 20
-17.16074942370422
 10
-3.994312365862189
 20
-17.16074942370422
 10
-4.043624864206167
 20
-17.2100619220482
 10
-4.092937362550145
 20
-17.2100619220482
 10
-4.142249860894122
 20
-17.2100619220482
 10
-4.1915623592381
 20
-17.25937442039217
 10
-4.240874857582077
 20
-17.25937442039217
 10
-4.290187355926054
 20
-17.25937442039217
 10
-4.339499854270032
 20
-17.30868691873615
 10
-4.38881235261401
 20
-17.30868691873615
 10
-4.438124850957988
 20
-17.30868691873615
 10
-4.487437349301965
 20
-17.30868691873615
 10
-4.536749847645943
 20
-17.35799941708013
 10
-4.58606234598992
 20
-17.35799941708013
 10
-4.635374844333898
 20
-17.35799941708013
 10
-4.684687342677876
 20
-17.35799941708013
 10
-4.733999841021854
 20
-17.40731191542411
 10
-4.783312339365831
 20
-17.40731191542411
 10
-4.832624837709809
 20
-17.40731191542411
 10
-4.881937336053786
 20
-17.40731191542411
 10
-4.931249834397764
 20
-17.45662441376809
 10
-4.980562332741742
 20
-17.45662441376809
 10
-5.02987483108572
 20
-17.45662441376809
 10
-5.079187329429697
 20
-17.45662441376809
 10
-5.128499827773675
 20
-17.50593691211206
 10
-5.177812326117652
 20
-17.50593691211206
 10
-5.22712482446163
 20
-17.50593691211206
 10
-5.276437322805608
 20
-17.50593691211206
 10
-5.276437322805608
 20
-17.55524941045604
 10
-5.325749821149585
 20
-17.55524941045604
 10
-5.375062319493563
 20
-17.55524941045604
 10
-5.42437481783754
 20
-17.55524941045604
 10
-5.473687316181518
 20
-17.55524941045604
 10
-5.522999814525495
 20
-17.55524941045604
 10
-5.572312312869474
 20
-17.55524941045604
 10
-5.621624811213451
 20
-17.55524941045604
 10
-5.670937309557429
 20
-17.55524941045604
 10
-5.720249807901406
 20
-17.60456190880002
 10
-5.769562306245384
 20
-17.60456190880002
 10
-5.818874804589361
 20
-17.60456190880002
 10
-5.86818730293334
 20
-17.60456190880002
 10
-5.917499801277317
 20
-17.60456190880002
 10
-5.966812299621295
 20
-17.55524941045604
 10
-6.016124797965272
 20
-17.55524941045604
 10
-6.06543729630925
 20
-17.55524941045604
 10
-6.114749794653227
 20
-17.55524941045604
 10
-6.164062292997206
 20
-17.55524941045604
 10
-6.213374791341183
 20
-17.55524941045604
 10
-6.262687289685161
 20
-17.50593691211206
 10
-6.311999788029138
 20
-17.50593691211206
 10
-6.361312286373115
 20
-17.50593691211206
 10
-6.410624784717093
 20
-17.45662441376809
 10
-6.459937283061071
 20
-17.45662441376809
 10
-6.509249781405049
 20
-17.45662441376809
 10
-6.558562279749026
 20
-17.45662441376809
 10
-6.607874778093004
 20
-17.45662441376809
 10
-6.558562279749026
 20
-17.40731191542411
 10
-6.607874778093004
 20
-17.40731191542411
 10
-6.657187276436981
 20
-17.40731191542411
 10
-6.706499774780959
 20
-17.35799941708013
 10
-6.755812273124937
 20
-17.35799941708013
 10
-6.805124771468915
 20
-17.35799941708013
 10
-6.805124771468915
 20
-17.30868691873615
 10
-6.854437269812892
 20
-17.30868691873615
 10
-6.90374976815687
 20
-17.30868691873615
 10
-6.953062266500847
 20
-17.30868691873615
 10
-7.002374764844825
 20
-17.25937442039217
 10
-7.051687263188803
 20
-17.25937442039217
 10
-7.100999761532781
 20
-17.25937442039217
 10
-7.150312259876758
 20
-17.2100619220482
 10
-7.199624758220736
 20
-17.2100619220482
 10
-7.248937256564713
 20
-17.2100619220482
 10
-7.347562253252669
 20
-17.2100619220482
 10
-7.396874751596646
 20
-17.16074942370422
 10
-7.446187249940624
 20
-17.16074942370422
 10
-7.544812246628579
 20
-17.16074942370422
 10
-7.594124744972556
 20
-17.16074942370422
 10
-7.643437243316535
 20
-17.11143692536024
 10
-7.74206224000449
 20
-17.11143692536024
 10
-7.791374738348467
 20
-17.11143692536024
 10
-7.840687236692445
 20
-17.11143692536024
 10
-7.889999735036422
 20
-17.06212442701626
 10
-7.9393122333804
 20
-17.06212442701626
 10
-7.988624731724378
 20
-17.06212442701626
 10
-8.037937230068355
 20
-17.01281192867228
 10
-8.087249728412333
 20
-17.01281192867228
 10
-8.136562226756311
 20
-17.01281192867228
 10
-8.185874725100289
 20
-17.01281192867228
 10
-8.235187223444266
 20
-16.96349943032831
 10
-8.284499721788244
 20
-16.96349943032831
 10
-8.333812220132222
 20
-16.96349943032831
 10
-8.3831247184762
 20
-16.96349943032831
 10
-8.3831247184762
 20
-16.91418693198433
 10
-8.481749715164154
 20
-16.91418693198433
 10
-8.531062213508132
 20
-16.91418693198433
 10
-8.580374711852109
 20
-16.86487443364035
 10
-8.678999708540065
 20
-16.86487443364035
 10
-8.777624705228019
 20
-16.81556193529638
 10
-8.826937203571998
 20
-16.81556193529638
 10
-8.925562200259954
 20
-16.7662494369524
 10
-8.97487469860393
 20
-16.7662494369524
 10
-9.024187196947908
 20
-16.7662494369524
 10
-9.073499695291886
 20
-16.7662494369524
 10
-9.172124691979841
 20
-16.71693693860842
 10
-9.221437190323819
 20
-16.71693693860842
 10
-9.221437190323819
 20
-16.66762444026444
 10
-9.221437190323819
 20
-16.61831194192046
 10
-9.270749688667797
 20
-16.61831194192046
 10
-9.270749688667797
 20
-16.56899944357649
 10
-9.320062187011775
 20
-16.56899944357649
 10
-9.369374685355751
 20
-16.51968694523251
 10
-9.369374685355751
 20
-16.47037444688853
 10
-9.418687183699729
 20
-16.47037444688853
 10
-9.418687183699729
 20
-16.42106194854455
 10
-9.467999682043708
 20
-16.42106194854455
 10
-9.467999682043708
 20
-16.37174945020058
 10
-9.467999682043708
 20
-16.3224369518566
 10
-9.418687183699729
 20
-16.3224369518566
 10
-9.418687183699729
 20
-16.27312445351262
 10
-9.418687183699729
 20
-16.22381195516864
 10
-9.418687183699729
 20
-16.17449945682467
 10
-9.418687183699729
 20
-16.12518695848069
 10
-9.418687183699729
 20
-16.07587446013671
 10
-9.467999682043708
 20
-16.02656196179273
 10
-9.467999682043708
 20
-15.97724946344876
 10
-9.517312180387684
 20
-15.97724946344876
 10
-9.517312180387684
 20
-15.92793696510478
 10
-9.566624678731662
 20
-15.92793696510478
 10
-9.566624678731662
 20
-15.8786244667608
 10
-9.61593717707564
 20
-15.8786244667608
 10
-9.566624678731662
 20
-15.82931196841682
 10
-9.566624678731662
 20
-15.77999947007284
 10
-9.61593717707564
 20
-15.77999947007284
 10
-9.665249675419618
 20
-15.73068697172887
 10
-9.665249675419618
 20
-15.68137447338489
 10
-9.714562173763595
 20
-15.63206197504091
 10
-9.763874672107573
 20
-15.63206197504091
 10
-9.763874672107573
 20
-15.58274947669693
 10
-9.813187170451551
 20
-15.53343697835296
 10
-9.813187170451551
 20
-15.48412448000898
 10
-9.862499668795529
 20
-15.48412448000898
 10
-9.862499668795529
 20
-15.434811981665
 10
-9.813187170451551
 20
-15.434811981665
 10
-9.862499668795529
 20
-15.434811981665
 10
-9.862499668795529
 20
-15.38549948332102
 10
-9.862499668795529
 20
-15.33618698497705
 10
-9.862499668795529
 20
-15.28687448663307
 10
-9.862499668795529
 20
-15.23756198828909
 10
-9.813187170451551
 20
-15.18824948994511
 10
-9.813187170451551
 20
-15.13893699160114
 10
-9.813187170451551
 20
-15.08962449325716
 10
-9.813187170451551
 20
-15.04031199491318
 10
-9.813187170451551
 20
-14.9909994965692
 10
-9.813187170451551
 20
-14.94168699822523
 10
-9.813187170451551
 20
-14.89237449988125
 10
-9.813187170451551
 20
-14.84306200153727
 10
-9.813187170451551
 20
-14.79374950319329
 10
-9.862499668795529
 20
-14.79374950319329
 10
-9.862499668795529
 20
-14.74443700484932
 10
-9.911812167139505
 20
-14.69512450650534
 10
-9.911812167139505
 20
-14.64581200816136
 10
-9.911812167139505
 20
-14.59649950981738
 10
-9.911812167139505
 20
-14.5471870114734
 10
-9.911812167139505
 20
-14.49787451312943
 10
-9.961124665483483
 20
-14.44856201478545
 10
-9.961124665483483
 20
-14.39924951644147
 10
-9.961124665483483
 20
-14.34993701809749
 10
-10.01043716382746
 20
-14.30062451975352
 10
-10.01043716382746
 20
-14.25131202140954
 10
-10.05974966217144
 20
-14.25131202140954
 10
-10.05974966217144
 20
-14.20199952306556
 10
-10.10906216051542
 20
-14.20199952306556
 10
-10.10906216051542
 20
-14.15268702472158
 10
-10.15837465885939
 20
-14.10337452637761
 10
-10.15837465885939
 20
-14.05406202803363
 10
-10.20768715720337
 20
-14.05406202803363
 10
-10.20768715720337
 20
-14.00474952968965
 10
-10.25699965554735
 20
-14.00474952968965
 10
-10.25699965554735
 20
-13.95543703134567
 10
-10.30631215389133
 20
-13.90612453300169
 10
-10.25699965554735
 20
-13.90612453300169
 10
-10.25699965554735
 20
-13.85681203465772
 10
-10.20768715720337
 20
-13.80749953631374
 10
-10.20768715720337
 20
-13.75818703796976
 10
-10.20768715720337
 20
-13.70887453962578
 10
-10.20768715720337
 20
-13.65956204128181
 10
-10.20768715720337
 20
-13.61024954293783
 10
-10.20768715720337
 20
-13.56093704459385
 10
-10.15837465885939
 20
-13.51162454624987
 10
-10.15837465885939
 20
-13.4623120479059
 10
-10.10906216051542
 20
-13.4623120479059
 10
-10.10906216051542
 20
-13.41299954956192
 10
-10.05974966217144
 20
-13.41299954956192
 10
-10.05974966217144
 20
-13.36368705121794
 10
-10.01043716382746
 20
-13.36368705121794
 10
-9.961124665483483
 20
-13.31437455287396
 10
-9.961124665483483
 20
-13.26506205452999
 10
-9.911812167139505
 20
-13.26506205452999
 10
-9.862499668795529
 20
-13.21574955618601
 10
-9.813187170451551
 20
-13.16643705784203
 10
-9.813187170451551
 20
-13.11712455949805
 10
-9.763874672107573
 20
-13.11712455949805
 10
-9.763874672107573
 20
-13.06781206115408
 10
-9.714562173763595
 20
-13.06781206115408
 10
-9.714562173763595
 20
-13.0184995628101
 10
-9.665249675419618
 20
-13.0184995628101
 10
-9.665249675419618
 20
-12.96918706446612
 10
-9.61593717707564
 20
-12.91987456612214
 10
-9.61593717707564
 20
-12.87056206777816
 10
-9.566624678731662
 20
-12.87056206777816
 10
-9.566624678731662
 20
-12.82124956943419
 10
-9.517312180387684
 20
-12.82124956943419
 10
-9.517312180387684
 20
-12.77193707109021
 10
-9.467999682043708
 20
-12.72262457274623
 10
-9.467999682043708
 20
-12.67331207440225
 10
-9.467999682043708
 20
-12.62399957605828
 10
-9.418687183699729
 20
-12.5746870777143
 10
-9.418687183699729
 20
-12.52537457937032
 10
-9.418687183699729
 20
-12.47606208102634
 10
-9.418687183699729
 20
-12.42674958268237
 10
-9.418687183699729
 20
-12.37743708433839
 10
-9.418687183699729
 20
-12.32812458599441
 10
-9.418687183699729
 20
-12.27881208765043
 10
-9.418687183699729
 20
-12.22949958930645
 10
-9.418687183699729
 20
-12.18018709096248
 10
-9.418687183699729
 20
-12.1308745926185
 10
-9.418687183699729
 20
-12.08156209427452
 10
-9.418687183699729
 20
-12.03224959593054
 10
-9.418687183699729
 20
-11.98293709758657
 10
-9.369374685355751
 20
-11.98293709758657
 10
-9.369374685355751
 20
-11.93362459924259
 10
-9.320062187011775
 20
-11.88431210089861
 10
-9.270749688667797
 20
-11.83499960255463
 10
-9.270749688667797
 20
-11.78568710421066
 10
-9.221437190323819
 20
-11.73637460586668
 10
-9.270749688667797
 20
-11.6870621075227
 10
-9.270749688667797
 20
-11.63774960917872
 10
-9.270749688667797
 20
-11.58843711083474
 10
-9.270749688667797
 20
-11.53912461249077
 10
-9.320062187011775
 20
-11.48981211414679
 10
-9.320062187011775
 20
-11.44049961580281
 10
-9.320062187011775
 20
-11.39118711745884
 10
-9.369374685355751
 20
-11.39118711745884
 10
-9.369374685355751
 20
-11.34187461911486
 10
-9.369374685355751
 20
-11.29256212077088
 10
-9.369374685355751
 20
-11.2432496224269
 10
-9.418687183699729
 20
-11.2432496224269
 10
-9.418687183699729
 20
-11.19393712408293
 10
-9.418687183699729
 20
-11.14462462573895
 10
-9.418687183699729
 20
-11.09531212739497
 10
-9.467999682043708
 20
-11.04599962905099
 10
-9.418687183699729
 20
-10.99668713070701
 10
-9.418687183699729
 20
-10.94737463236304
 10
-9.418687183699729
 20
-10.89806213401906
 10
-9.418687183699729
 20
-10.84874963567508
 10
-9.369374685355751
 20
-10.84874963567508
 10
-9.369374685355751
 20
-10.7994371373311
 10
-9.320062187011775
 20
-10.7994371373311
 10
-9.270749688667797
 20
-10.7994371373311
 10
-9.221437190323819
 20
-10.75012463898713
 10
-9.172124691979841
 20
-10.75012463898713
 10
-9.122812193635864
 20
-10.70081214064315
 10
-9.073499695291886
 20
-10.70081214064315
 10
-9.024187196947908
 20
-10.65149964229917
 10
-8.97487469860393
 20
-10.65149964229917
 10
-8.925562200259954
 20
-10.65149964229917
 10
-8.925562200259954
 20
-10.60218714395519
 10
-8.876249701915976
 20
-10.60218714395519
 10
-8.826937203571998
 20
-10.55287464561122
 10
-8.777624705228019
 20
-10.55287464561122
 10
-8.728312206884043
 20
-10.50356214726724
 10
-8.678999708540065
 20
-10.50356214726724
 10
-8.629687210196087
 20
-10.45424964892326
 10
-8.580374711852109
 20
-10.40493715057928
 10
-8.580374711852109
 20
-10.3556246522353
 10
-8.580374711852109
 20
-10.30631215389133
 10
-8.531062213508132
 20
-10.25699965554735
 10
-8.531062213508132
 20
-10.20768715720337
 10
-8.531062213508132
 20
-10.15837465885939
 10
-8.531062213508132
 20
-10.10906216051542
 10
-8.531062213508132
 20
-10.05974966217144
 10
-8.531062213508132
 20
-10.01043716382746
 10
-8.531062213508132
 20
-9.961124665483483
 10
-8.580374711852109
 20
-9.961124665483483
 10
-8.580374711852109
 20
-9.911812167139505
 10
-8.580374711852109
 20
-9.862499668795529
 10
-8.629687210196087
 20
-9.813187170451551
 10
-8.629687210196087
 20
-9.763874672107573
 10
-8.629687210196087
 20
-9.714562173763595
 10
-8.678999708540065
 20
-9.714562173763595
 10
-8.678999708540065
 20
-9.665249675419618
 10
-8.678999708540065
 20
-9.61593717707564
 10
-8.728312206884043
 20
-9.61593717707564
 10
-8.728312206884043
 20
-9.566624678731662
 10
-8.728312206884043
 20
-9.517312180387684
 10
-8.777624705228019
 20
-9.517312180387684
 10
-8.826937203571998
 20
-9.467999682043708
 10
-8.876249701915976
 20
-9.517312180387684
 10
-8.925562200259954
 20
-9.517312180387684
 10
-8.97487469860393
 20
-9.566624678731662
 10
-9.024187196947908
 20
-9.566624678731662
 10
-9.122812193635864
 20
-9.61593717707564
 10
-9.221437190323819
 20
-9.665249675419618
 10
-9.270749688667797
 20
-9.665249675419618
 10
-9.369374685355751
 20
-9.714562173763595
 10
-9.467999682043708
 20
-9.763874672107573
 10
-9.517312180387684
 20
-9.813187170451551
 10
-9.61593717707564
 20
-9.813187170451551
 10
-9.665249675419618
 20
-9.862499668795529
 10
-9.714562173763595
 20
-9.862499668795529
 10
-9.763874672107573
 20
-9.911812167139505
 10
-9.813187170451551
 20
-9.961124665483483
 10
-9.862499668795529
 20
-10.01043716382746
 10
-9.911812167139505
 20
-10.01043716382746
 10
-9.961124665483483
 20
-10.05974966217144
 10
-10.01043716382746
 20
-10.10906216051542
 10
-10.01043716382746
 20
-10.15837465885939
 10
-10.05974966217144
 20
-10.20768715720337
 10
-10.10906216051542
 20
-10.30631215389133
 10
-10.15837465885939
 20
-10.3556246522353
 10
-10.15837465885939
 20
-10.40493715057928
 10
-10.20768715720337
 20
-10.45424964892326
 10
-10.20768715720337
 20
-10.50356214726724
 10
-10.25699965554735
 20
-10.55287464561122
 10
-10.25699965554735
 20
-10.60218714395519
 10
-10.30631215389133
 20
-10.65149964229917
 10
-10.30631215389133
 20
-10.70081214064315
 10
-10.30631215389133
 20
-10.75012463898713
 10
-10.3556246522353
 20
-10.7994371373311
 10
-10.3556246522353
 20
-10.84874963567508
 10
-10.40493715057928
 20
-10.89806213401906
 10
-10.45424964892326
 20
-10.94737463236304
 10
-10.45424964892326
 20
-10.99668713070701
 10
-10.50356214726724
 20
-11.04599962905099
 10
-10.55287464561122
 20
-11.09531212739497
 10
-10.55287464561122
 20
-11.14462462573895
 10
-10.60218714395519
 20
-11.14462462573895
 10
-10.60218714395519
 20
-11.19393712408293
 10
-10.65149964229917
 20
-11.19393712408293
 10
-10.70081214064315
 20
-11.2432496224269
 10
-10.70081214064315
 20
-11.29256212077088
 10
-10.75012463898713
 20
-11.29256212077088
 10
-10.7994371373311
 20
-11.34187461911486
 10
-10.7994371373311
 20
-11.39118711745884
 10
-10.84874963567508
 20
-11.39118711745884
 10
-10.84874963567508
 20
-11.44049961580281
 10
-10.89806213401906
 20
-11.44049961580281
 10
-10.89806213401906
 20
-11.48981211414679
 10
-10.94737463236304
 20
-11.48981211414679
 10
-10.99668713070701
 20
-11.53912461249077
 10
-10.99668713070701
 20
-11.58843711083474
 10
-11.04599962905099
 20
-11.58843711083474
 10
-11.09531212739497
 20
-11.63774960917872
 10
-11.09531212739497
 20
-11.6870621075227
 10
-11.14462462573895
 20
-11.6870621075227
 10
-11.19393712408293
 20
-11.73637460586668
 10
-11.2432496224269
 20
-11.73637460586668
 10
-11.29256212077088
 20
-11.78568710421066
 10
-11.34187461911486
 20
-11.78568710421066
 10
-11.34187461911486
 20
-11.83499960255463
 10
-11.39118711745884
 20
-11.83499960255463
 10
-11.44049961580281
 20
-11.83499960255463
 10
-11.44049961580281
 20
-11.88431210089861
 10
-11.48981211414679
 20
-11.88431210089861
 10
-11.53912461249077
 20
-11.88431210089861
 10
-11.58843711083474
 20
-11.88431210089861
 10
-11.63774960917872
 20
-11.88431210089861
 10
-11.6870621075227
 20
-11.88431210089861
 10
-11.73637460586668
 20
-11.88431210089861
 10
-11.78568710421066
 20
-11.83499960255463
 10
-11.83499960255463
 20
-11.83499960255463
 10
-11.93362459924259
 20
-11.83499960255463
 10
-11.98293709758657
 20
-11.78568710421066
 10
-12.03224959593054
 20
-11.78568710421066
 10
-12.08156209427452
 20
-11.78568710421066
 10
-12.1308745926185
 20
-11.73637460586668
 10
-12.18018709096248
 20
-11.73637460586668
 10
-12.22949958930645
 20
-11.73637460586668
 10
-12.27881208765043
 20
-11.6870621075227
 10
-12.32812458599441
 20
-11.63774960917872
 10
-12.37743708433839
 20
-11.63774960917872
 10
-12.37743708433839
 20
-11.58843711083474
 10
-12.42674958268237
 20
-11.58843711083474
 10
-12.47606208102634
 20
-11.53912461249077
 10
-12.52537457937032
 20
-11.48981211414679
 10
-12.5746870777143
 20
-11.44049961580281
 10
-12.62399957605828
 20
-11.44049961580281
 10
-12.67331207440225
 20
-11.39118711745884
 10
-12.67331207440225
 20
-11.34187461911486
 10
-12.72262457274623
 20
-11.34187461911486
 10
-12.77193707109021
 20
-11.34187461911486
 10
-12.82124956943419
 20
-11.34187461911486
 10
-12.82124956943419
 20
-11.29256212077088
 10
-12.87056206777816
 20
-11.29256212077088
 10
-12.87056206777816
 20
-11.2432496224269
 10
-12.91987456612214
 20
-11.2432496224269
 10
-12.96918706446612
 20
-11.19393712408293
 10
-13.0184995628101
 20
-11.14462462573895
 10
-13.06781206115408
 20
-11.14462462573895
 10
-13.06781206115408
 20
-11.09531212739497
 10
-13.06781206115408
 20
-11.04599962905099
 10
-13.06781206115408
 20
-10.99668713070701
 10
-13.06781206115408
 20
-10.94737463236304
 10
-13.06781206115408
 20
-10.89806213401906
 10
-13.0184995628101
 20
-10.89806213401906
 10
-13.0184995628101
 20
-10.84874963567508
 10
-12.96918706446612
 20
-10.7994371373311
 10
-12.96918706446612
 20
-10.75012463898713
 10
-12.91987456612214
 20
-10.75012463898713
 10
-12.91987456612214
 20
-10.70081214064315
 10
-12.87056206777816
 20
-10.65149964229917
 10
-12.87056206777816
 20
-10.60218714395519
 10
-12.87056206777816
 20
-10.55287464561122
 10
-12.82124956943419
 20
-10.50356214726724
 10
-12.82124956943419
 20
-10.45424964892326
 10
-12.77193707109021
 20
-10.40493715057928
 10
-12.72262457274623
 20
-10.3556246522353
 10
-12.72262457274623
 20
-10.30631215389133
 10
-12.67331207440225
 20
-10.25699965554735
 10
-12.67331207440225
 20
-10.20768715720337
 10
-12.62399957605828
 20
-10.20768715720337
 10
-12.62399957605828
 20
-10.15837465885939
 10
-12.5746870777143
 20
-10.15837465885939
 10
-12.52537457937032
 20
-10.10906216051542
 10
-12.52537457937032
 20
-10.05974966217144
 10
-12.47606208102634
 20
-10.05974966217144
 10
-12.47606208102634
 20
-10.01043716382746
 10
-12.42674958268237
 20
-10.01043716382746
 10
-12.42674958268237
 20
-9.961124665483483
 10
-12.37743708433839
 20
-9.961124665483483
 10
-12.37743708433839
 20
-9.911812167139505
 10
-12.32812458599441
 20
-9.911812167139505
 10
-12.37743708433839
 20
-9.911812167139505
 10
-12.32812458599441
 20
-9.862499668795529
 10
-12.32812458599441
 20
-9.813187170451551
 10
-12.37743708433839
 20
-9.813187170451551
 10
-12.42674958268237
 20
-9.813187170451551
 10
-12.47606208102634
 20
-9.813187170451551
 10
-12.52537457937032
 20
-9.763874672107573
 10
-12.5746870777143
 20
-9.763874672107573
 10
-12.5746870777143
 20
-9.714562173763595
 10
-12.62399957605828
 20
-9.714562173763595
 10
-12.67331207440225
 20
-9.665249675419618
 10
-12.67331207440225
 20
-9.61593717707564
 10
-12.72262457274623
 20
-9.61593717707564
 10
-12.72262457274623
 20
-9.566624678731662
 10
-12.77193707109021
 20
-9.566624678731662
 10
-12.82124956943419
 20
-9.566624678731662
 10
-12.87056206777816
 20
-9.517312180387684
 10
-12.91987456612214
 20
-9.517312180387684
 10
-12.96918706446612
 20
-9.517312180387684
 10
-13.0184995628101
 20
-9.517312180387684
 10
-13.06781206115408
 20
-9.517312180387684
 10
-13.11712455949805
 20
-9.517312180387684
 10
-13.16643705784203
 20
-9.517312180387684
 10
-13.21574955618601
 20
-9.517312180387684
 10
-13.26506205452999
 20
-9.467999682043708
 10
-13.31437455287396
 20
-9.467999682043708
 10
-13.36368705121794
 20
-9.467999682043708
 10
-13.41299954956192
 20
-9.467999682043708
 10
-13.4623120479059
 20
-9.467999682043708
 10
-13.51162454624987
 20
-9.467999682043708
 10
-13.56093704459385
 20
-9.467999682043708
 10
-13.61024954293783
 20
-9.418687183699729
 10
-13.65956204128181
 20
-9.418687183699729
 10
-13.70887453962578
 20
-9.418687183699729
 10
-13.70887453962578
 20
-9.369374685355751
 10
-13.75818703796976
 20
-9.369374685355751
 10
-13.80749953631374
 20
-9.369374685355751
 10
-13.85681203465772
 20
-9.320062187011775
 10
-13.90612453300169
 20
-9.320062187011775
 10
-13.95543703134567
 20
-9.320062187011775
 10
-14.05406202803363
 20
-9.270749688667797
 10
-14.10337452637761
 20
-9.270749688667797
 10
-14.20199952306556
 20
-9.270749688667797
 10
-14.30062451975352
 20
-9.221437190323819
 10
-14.39924951644147
 20
-9.221437190323819
 10
-14.44856201478545
 20
-9.172124691979841
 10
-14.5471870114734
 20
-9.172124691979841
 10
-14.64581200816136
 20
-9.172124691979841
 10
-14.74443700484932
 20
-9.122812193635864
 10
-14.84306200153727
 20
-9.122812193635864
 10
-14.94168699822523
 20
-9.122812193635864
 10
-15.08962449325716
 20
-9.122812193635864
 10
-15.23756198828909
 20
-9.073499695291886
 10
-15.38549948332102
 20
-9.073499695291886
 10
-15.53343697835296
 20
-9.073499695291886
 10
-15.68137447338489
 20
-9.073499695291886
 10
-15.82931196841682
 20
-9.024187196947908
 10
-15.92793696510478
 20
-9.024187196947908
 10
-16.02656196179273
 20
-9.024187196947908
 10
-16.07587446013671
 20
-9.024187196947908
 10
-16.17449945682467
 20
-9.024187196947908
 10
-16.22381195516864
 20
-8.97487469860393
 10
-16.22381195516864
 20
-8.925562200259954
 10
-16.22381195516864
 20
-8.876249701915976
 10
-16.22381195516864
 20
-8.826937203571998
 10
-16.22381195516864
 20
-8.777624705228019
 10
-16.22381195516864
 20
-8.728312206884043
 10
-16.22381195516864
 20
-8.678999708540065
 10
-16.17449945682467
 20
-8.629687210196087
 10
-16.17449945682467
 20
-8.580374711852109
 10
-16.17449945682467
 20
-8.531062213508132
 10
-16.27312445351262
 20
-8.481749715164154
 10
-16.27312445351262
 20
-8.432437216820176
 10
-16.3224369518566
 20
-8.432437216820176
 10
-16.37174945020058
 20
-8.3831247184762
 10
-16.42106194854455
 20
-8.333812220132222
 10
-16.47037444688853
 20
-8.333812220132222
 10
-16.47037444688853
 20
-8.284499721788244
 10
-16.51968694523251
 20
-8.284499721788244
 10
-16.56899944357649
 20
-8.284499721788244
 10
-16.61831194192046
 20
-8.235187223444266
 10
-16.66762444026444
 20
-8.235187223444266
 10
-16.71693693860842
 20
-8.185874725100289
 10
-16.7662494369524
 20
-8.136562226756311
 10
-16.86487443364035
 20
-8.087249728412333
 10
-16.96349943032831
 20
-8.087249728412333
 10
-16.96349943032831
 20
-8.037937230068355
 10
-17.01281192867228
 20
-8.037937230068355
 10
-17.06212442701626
 20
-7.988624731724378
 10
-17.06212442701626
 20
-7.9393122333804
 10
-17.11143692536024
 20
-7.9393122333804
 10
-17.11143692536024
 20
-7.889999735036422
 10
-17.2100619220482
 20
-7.889999735036422
 10
-17.2100619220482
 20
-7.840687236692445
 10
-17.25937442039217
 20
-7.791374738348467
 10
-17.25937442039217
 20
-7.74206224000449
 10
-17.30868691873615
 20
-7.74206224000449
 10
-17.25937442039217
 20
-7.692749741660512
 10
-17.25937442039217
 20
-7.643437243316535
 10
-17.30868691873615
 20
-7.643437243316535
 10
-17.30868691873615
 20
-7.594124744972556
 10
-17.35799941708013
 20
-7.544812246628579
 10
-17.35799941708013
 20
-7.495499748284601
 10
-17.40731191542411
 20
-7.495499748284601
 10
-17.40731191542411
 20
-7.446187249940624
 10
-17.40731191542411
 20
-7.396874751596646
 10
-17.40731191542411
 20
-7.347562253252669
 10
-17.45662441376809
 20
-7.298249754908691
 10
-17.50593691211206
 20
-7.248937256564713
 10
-17.55524941045604
 20
-7.199624758220736
 10
-17.60456190880002
 20
-7.199624758220736
 10
-17.60456190880002
 20
-7.150312259876758
 10
-17.653874407144
 20
-7.150312259876758
 10
-17.653874407144
 20
-7.100999761532781
 10
-17.70318690548797
 20
-7.100999761532781
 10
-17.75249940383195
 20
-7.051687263188803
 10
-17.75249940383195
 20
-7.002374764844825
 10
-17.80181190217593
 20
-7.002374764844825
 10
-17.80181190217593
 20
-6.953062266500847
 10
-17.85112440051991
 20
-6.953062266500847
 10
-17.90043689886388
 20
-6.90374976815687
 10
-17.94974939720786
 20
-6.854437269812892
 10
-17.94974939720786
 20
-6.805124771468915
 10
-17.99906189555184
 20
-6.805124771468915
 10
-17.99906189555184
 20
-6.755812273124937
 10
-17.99906189555184
 20
-6.706499774780959
 10
-17.99906189555184
 20
-6.657187276436981
 10
-17.99906189555184
 20
-6.607874778093004
 10
-17.99906189555184
 20
-6.558562279749026
 10
-17.99906189555184
 20
-6.509249781405049
 10
-18.04837439389582
 20
-6.509249781405049
 10
-18.04837439389582
 20
-6.459937283061071
 10
-18.04837439389582
 20
-6.410624784717093
 10
-18.04837439389582
 20
-6.361312286373115
 10
-17.99906189555184
 20
-6.361312286373115
 10
-17.99906189555184
 20
-6.311999788029138
 10
-17.99906189555184
 20
-6.262687289685161
 10
-18.04837439389582
 20
-6.262687289685161
 10
-18.04837439389582
 20
-6.213374791341183
 10
-18.04837439389582
 20
-6.164062292997206
 10
-18.04837439389582
 20
-6.114749794653227
 10
-18.09768689223979
 20
-6.06543729630925
 10
-18.09768689223979
 20
-6.016124797965272
 10
-18.14699939058377
 20
-6.016124797965272
 10
-18.14699939058377
 20
-5.966812299621295
 10
-18.14699939058377
 20
-5.917499801277317
 10
-18.19631188892775
 20
-5.917499801277317
 10
-18.19631188892775
 20
-5.86818730293334
 10
-18.19631188892775
 20
-5.818874804589361
 10
-18.24562438727173
 20
-5.769562306245384
 10
-18.24562438727173
 20
-5.720249807901406
 10
-18.29493688561571
 20
-5.670937309557429
 10
-18.34424938395968
 20
-5.621624811213451
 10
-18.34424938395968
 20
-5.572312312869474
 10
-18.39356188230366
 20
-5.572312312869474
 10
-18.39356188230366
 20
-5.522999814525495
 10
-18.39356188230366
 20
-5.473687316181518
 10
-18.39356188230366
 20
-5.42437481783754
 10
-18.39356188230366
 20
-5.375062319493563
 10
-18.39356188230366
 20
-5.325749821149585
 10
-18.39356188230366
 20
-5.276437322805608
 10
-18.39356188230366
 20
-5.22712482446163
 10
-18.39356188230366
 20
-5.177812326117652
 10
-18.44287438064764
 20
-5.177812326117652
 10
-18.39356188230366
 20
-5.128499827773675
 10
-18.39356188230366
 20
-5.079187329429697
 10
-18.44287438064764
 20
-5.079187329429697
 10
-18.44287438064764
 20
-5.02987483108572
 10
-18.44287438064764
 20
-4.980562332741742
 10
-18.39356188230366
 20
-4.980562332741742
 10
-18.39356188230366
 20
-4.931249834397764
 10
-18.39356188230366
 20
-4.881937336053786
 10
-18.44287438064764
 20
-4.832624837709809
 10
-18.44287438064764
 20
-4.783312339365831
 10
-18.44287438064764
 20
-4.733999841021854
 10
-18.44287438064764
 20
-4.684687342677876
 10
-18.44287438064764
 20
-4.635374844333898
 10
-18.44287438064764
 20
-4.58606234598992
 10
-18.49218687899161
 20
-4.536749847645943
 10
-18.54149937733559
 20
-4.536749847645943
 10
-18.54149937733559
 20
-4.487437349301965
 10
-18.59081187567957
 20
-4.487437349301965
 10
-18.59081187567957
 20
-4.438124850957988
 10
-18.64012437402355
 20
-4.438124850957988
 10
-18.64012437402355
 20
-4.38881235261401
 10
-18.68943687236753
 20
-4.339499854270032
 10
-18.68943687236753
 20
-4.290187355926054
 10
-18.7387493707115
 20
-4.290187355926054
 10
-18.7387493707115
 20
-4.240874857582077
 10
-18.7387493707115
 20
-4.1915623592381
 10
-18.78806186905548
 20
-4.1915623592381
 10
-18.78806186905548
 20
-4.142249860894122
 10
-18.78806186905548
 20
-4.092937362550145
 10
-18.78806186905548
 20
-4.043624864206167
 10
-18.78806186905548
 20
-3.994312365862189
 10
-18.78806186905548
 20
-3.944999867518211
 10
-18.78806186905548
 20
-3.895687369174234
 10
-18.7387493707115
 20
-3.895687369174234
 10
-18.7387493707115
 20
-3.846374870830256
 10
-18.68943687236753
 20
-3.797062372486278
 10
-18.64012437402355
 20
-3.747749874142301
 10
-18.59081187567957
 20
-3.698437375798323
 10
-18.59081187567957
 20
-3.649124877454346
 10
-18.54149937733559
 20
-3.649124877454346
 10
-18.54149937733559
 20
-3.599812379110368
 10
-18.49218687899161
 20
-3.599812379110368
 10
-18.49218687899161
 20
-3.55049988076639
 10
-18.44287438064764
 20
-3.501187382422413
 10
-18.39356188230366
 20
-3.501187382422413
 10
-18.39356188230366
 20
-3.451874884078435
 10
-18.34424938395968
 20
-3.451874884078435
 10
-18.29493688561571
 20
-3.451874884078435
 10
-18.29493688561571
 20
-3.402562385734457
 10
-18.19631188892775
 20
-3.402562385734457
 10
-18.14699939058377
 20
-3.35324988739048
 10
-18.09768689223979
 20
-3.35324988739048
 10
-18.04837439389582
 20
-3.303937389046502
 10
-17.99906189555184
 20
-3.303937389046502
 10
-17.94974939720786
 20
-3.303937389046502
 10
-17.90043689886388
 20
-3.254624890702524
 10
-17.85112440051991
 20
-3.254624890702524
 10
-17.80181190217593
 20
-3.205312392358547
 10
-17.75249940383195
 20
-3.205312392358547
 10
-17.70318690548797
 20
-3.155999894014569
 10
-17.653874407144
 20
-3.155999894014569
 10
-17.60456190880002
 20
-3.155999894014569
 10
-17.55524941045604
 20
-3.106687395670591
 10
-17.45662441376809
 20
-3.057374897326614
 10
-17.40731191542411
 20
-3.057374897326614
 10
-17.35799941708013
 20
-3.008062398982636
 10
-17.30868691873615
 20
-2.958749900638658
 10
-17.25937442039217
 20
-2.958749900638658
 10
-17.2100619220482
 20
-2.958749900638658
 10
-17.2100619220482
 20
-2.909437402294681
 10
-17.16074942370422
 20
-2.909437402294681
 10
-17.16074942370422
 20
-2.860124903950703
 10
-17.11143692536024
 20
-2.810812405606725
 10
-17.06212442701626
 20
-2.810812405606725
 10
-17.01281192867228
 20
-2.761499907262748
 10
-17.01281192867228
 20
-2.71218740891877
 10
-16.96349943032831
 20
-2.71218740891877
 10
-16.96349943032831
 20
-2.662874910574792
 10
-16.96349943032831
 20
-2.613562412230815
 10
-16.96349943032831
 20
-2.564249913886838
 10
-16.91418693198433
 20
-2.564249913886838
 10
-16.91418693198433
 20
-2.51493741554286
 10
-16.91418693198433
 20
-2.465624917198882
 10
-16.91418693198433
 20
-2.416312418854905
 10
-16.91418693198433
 20
-2.366999920510927
 10
-16.96349943032831
 20
-2.317687422166949
 10
-16.96349943032831
 20
-2.268374923822972
 10
-16.96349943032831
 20
-2.219062425478994
 10
-16.96349943032831
 20
-2.169749927135016
 10
-16.96349943032831
 20
-2.120437428791039
 10
-16.96349943032831
 20
-2.071124930447061
 10
-16.96349943032831
 20
-2.021812432103083
 10
-17.01281192867228
 20
-2.021812432103083
 10
-17.01281192867228
 20
-1.972499933759106
 10
-17.01281192867228
 20
-1.923187435415128
 10
-17.01281192867228
 20
-1.87387493707115
 10
-17.01281192867228
 20
-1.824562438727173
 10
-17.06212442701626
 20
-1.775249940383195
 10
-17.11143692536024
 20
-1.725937442039218
 10
-17.11143692536024
 20
-1.67662494369524
 10
-17.11143692536024
 20
-1.627312445351262
 10
-17.11143692536024
 20
-1.577999947007285
 10
-17.06212442701626
 20
-1.577999947007285
 10
-17.11143692536024
 20
-1.528687448663307
 10
-17.11143692536024
 20
-1.479374950319329
 10
-17.11143692536024
 20
-1.430062451975352
 10
-17.11143692536024
 20
-1.380749953631374
 10
-17.11143692536024
 20
-1.331437455287396
 10
-17.16074942370422
 20
-1.282124956943419
 10
-17.2100619220482
 20
-1.282124956943419
 10
-17.2100619220482
 20
-1.232812458599441
 10
-17.2100619220482
 20
-1.183499960255463
 10
-17.25937442039217
 20
-1.183499960255463
 10
-17.25937442039217
 20
-1.134187461911486
 10
-17.30868691873615
 20
-1.134187461911486
 10
-17.30868691873615
 20
-1.084874963567508
 10
-17.30868691873615
 20
-1.03556246522353
 10
-17.35799941708013
 20
-0.9862499668795528
 10
-17.40731191542411
 20
-0.9862499668795528
 10
-17.40731191542411
 20
-0.9369374685355751
 10
-17.45662441376809
 20
-0.9369374685355751
 10
-17.45662441376809
 20
-0.8876249701915976
 10
-17.50593691211206
 20
-0.8876249701915976
 10
-17.50593691211206
 20
-0.8383124718476199
 10
-17.60456190880002
 20
-0.8383124718476199
 10
-17.653874407144
 20
-0.7889999735036423
 10
-17.70318690548797
 20
-0.7889999735036423
 10
-17.70318690548797
 20
-0.7396874751596646
 10
-17.75249940383195
 20
-0.6903749768156869
 10
-17.80181190217593
 20
-0.6903749768156869
 10
-17.85112440051991
 20
-0.6903749768156869
 10
-17.85112440051991
 20
-0.6410624784717094
 10
-17.90043689886388
 20
-0.6410624784717094
 10
-17.94974939720786
 20
-0.6410624784717094
 10
-17.94974939720786
 20
-0.5917499801277317
 10
-17.99906189555184
 20
-0.5917499801277317
 10
-18.04837439389582
 20
-0.5424374817837541
 10
-18.09768689223979
 20
-0.4931249834397764
 10
-18.14699939058377
 20
-0.4931249834397764
 10
-18.14699939058377
 20
-0.4438124850957988
 10
-18.14699939058377
 20
-0.3944999867518211
 10
-18.19631188892775
 20
-0.3944999867518211
 10
-18.19631188892775
 20
-0.3451874884078435
 10
-18.24562438727173
 20
-0.3451874884078435
 10
-18.24562438727173
 20
-0.2958749900638659
 10
-18.29493688561571
 20
-0.2465624917198882
 10
-18.34424938395968
 20
-0.2465624917198882
 10
-18.34424938395968
 20
-0.1972499933759106
 10
-18.34424938395968
 20
-0.1479374950319329
 10
-18.34424938395968
 20
-0.09862499668795528
 10
-18.34424938395968
 20
-0.04931249834397764
 10
-18.39356188230366
 20
-0.04931249834397764
 10
-18.39356188230366
 20
0
 10
-18.39356188230366
 20
0.04931249834397764
 10
-18.34424938395968
 20
0.04931249834397764
 10
-18.34424938395968
 20
0.09862499668795528
 10
-18.34424938395968
 20
0.1479374950319329
 10
-18.29493688561571
 20
0.1479374950319329
 10
-18.29493688561571
 20
0.1972499933759106
 10
-18.29493688561571
 20
0.2465624917198882
 10
-18.29493688561571
 20
0.2958749900638659
 10
-18.29493688561571
 20
0.3451874884078435
 10
-18.29493688561571
 20
0.3944999867518211
 10
-18.29493688561571
 20
0.4438124850957988
 10
-18.29493688561571
 20
0.4931249834397764
 10
-18.29493688561571
 20
0.5424374817837541
 10
-18.34424938395968
 20
0.5917499801277317
 10
-18.34424938395968
 20
0.6410624784717094
 10
-18.39356188230366
 20
0.6410624784717094
 10
-18.39356188230366
 20
0.6903749768156869
 10
-18.39356188230366
 20
0.7396874751596646
 10
-18.39356188230366
 20
0.7889999735036423
 10
-18.44287438064764
 20
0.7889999735036423
 10
-18.39356188230366
 20
0.8383124718476199
 10
-18.44287438064764
 20
0.8383124718476199
 10
-18.44287438064764
 20
0.8876249701915976
 10
-18.39356188230366
 20
0.8876249701915976
 10
-18.44287438064764
 20
0.8876249701915976
 10
-18.44287438064764
 20
0.9369374685355751
 10
-18.44287438064764
 20
0.9862499668795528
 10
-18.39356188230366
 20
0.9862499668795528
 10
-18.39356188230366
 20
1.03556246522353
 10
-18.39356188230366
 20
1.084874963567508
 10
-18.39356188230366
 20
1.134187461911486
 10
-18.34424938395968
 20
1.183499960255463
 10
-18.29493688561571
 20
1.232812458599441
 10
-18.29493688561571
 20
1.282124956943419
 10
-18.29493688561571
 20
1.331437455287396
 10
-18.29493688561571
 20
1.380749953631374
 10
-18.29493688561571
 20
1.430062451975352
 10
-18.29493688561571
 20
1.479374950319329
 10
-18.29493688561571
 20
1.528687448663307
 10
-18.29493688561571
 20
1.577999947007285
 10
-18.29493688561571
 20
1.627312445351262
 10
-18.29493688561571
 20
1.67662494369524
 10
-18.29493688561571
 20
1.725937442039218
 10
-18.29493688561571
 20
1.775249940383195
 10
-18.34424938395968
 20
1.824562438727173
 10
-18.34424938395968
 20
1.87387493707115
 10
-18.39356188230366
 20
1.87387493707115
 10
-18.39356188230366
 20
1.923187435415128
 10
-18.39356188230366
 20
1.972499933759106
 10
-18.44287438064764
 20
2.021812432103083
 10
-18.39356188230366
 20
2.071124930447061
 10
-18.39356188230366
 20
2.120437428791039
 10
-18.39356188230366
 20
2.169749927135016
 10
-18.39356188230366
 20
2.219062425478994
 10
-18.44287438064764
 20
2.268374923822972
 10
-18.44287438064764
 20
2.317687422166949
 10
-18.49218687899161
 20
2.366999920510927
 10
-18.49218687899161
 20
2.416312418854905
 10
-18.49218687899161
 20
2.465624917198882
 10
-18.44287438064764
 20
2.51493741554286
 10
-18.39356188230366
 20
2.51493741554286
 10
-18.39356188230366
 20
2.564249913886838
 10
-18.34424938395968
 20
2.613562412230815
 10
-18.29493688561571
 20
2.613562412230815
 10
-18.29493688561571
 20
2.662874910574792
 10
-18.19631188892775
 20
2.71218740891877
 10
-18.14699939058377
 20
2.71218740891877
 10
-18.09768689223979
 20
2.761499907262748
 10
-17.99906189555184
 20
2.810812405606725
 10
-17.94974939720786
 20
2.810812405606725
 10
-17.94974939720786
 20
2.860124903950703
 10
-17.90043689886388
 20
2.860124903950703
 10
-17.85112440051991
 20
2.860124903950703
 10
-17.80181190217593
 20
2.909437402294681
 10
-17.75249940383195
 20
2.909437402294681
 10
-17.75249940383195
 20
2.958749900638658
 10
-17.653874407144
 20
2.958749900638658
 10
-17.653874407144
 20
3.008062398982636
 10
-17.60456190880002
 20
3.008062398982636
 10
-17.55524941045604
 20
3.057374897326614
 10
-17.45662441376809
 20
3.106687395670591
 10
-17.40731191542411
 20
3.106687395670591
 10
-17.35799941708013
 20
3.155999894014569
 10
-17.25937442039217
 20
3.205312392358547
 10
-17.2100619220482
 20
3.205312392358547
 10
-17.2100619220482
 20
3.254624890702524
 10
-17.16074942370422
 20
3.254624890702524
 10
-17.16074942370422
 20
3.303937389046502
 10
-17.06212442701626
 20
3.35324988739048
 10
-17.01281192867228
 20
3.35324988739048
 10
-17.01281192867228
 20
3.402562385734457
 10
-16.96349943032831
 20
3.402562385734457
 10
-16.96349943032831
 20
3.451874884078435
 10
-16.96349943032831
 20
3.501187382422413
 10
-16.91418693198433
 20
3.501187382422413
 10
-16.91418693198433
 20
3.55049988076639
 10
-16.86487443364035
 20
3.55049988076639
 10
-16.86487443364035
 20
3.599812379110368
 10
-16.86487443364035
 20
3.649124877454346
 10
-16.86487443364035
 20
3.698437375798323
 10
-16.86487443364035
 20
3.747749874142301
 10
-16.81556193529638
 20
3.747749874142301
 10
-16.81556193529638
 20
3.797062372486278
 10
-16.7662494369524
 20
3.846374870830256
 10
-16.71693693860842
 20
3.895687369174234
 10
-16.66762444026444
 20
3.895687369174234
 10
-16.66762444026444
 20
3.944999867518211
 10
-16.61831194192046
 20
3.944999867518211
 10
-16.61831194192046
 20
3.994312365862189
 10
-16.56899944357649
 20
4.043624864206167
 10
-16.56899944357649
 20
4.092937362550145
 10
-16.56899944357649
 20
4.142249860894122
 10
-16.56899944357649
 20
4.1915623592381
 10
-16.56899944357649
 20
4.240874857582077
 10
-16.56899944357649
 20
4.290187355926054
 10
-16.56899944357649
 20
4.339499854270032
 10
-16.56899944357649
 20
4.38881235261401
 10
-16.61831194192046
 20
4.38881235261401
 10
-16.61831194192046
 20
4.438124850957988
 10
-16.66762444026444
 20
4.487437349301965
 10
-16.71693693860842
 20
4.536749847645943
 10
-16.7662494369524
 20
4.58606234598992
 10
-16.81556193529638
 20
4.635374844333898
 10
-16.86487443364035
 20
4.684687342677876
 10
-16.91418693198433
 20
4.733999841021854
 10
-16.91418693198433
 20
4.783312339365831
 10
-16.96349943032831
 20
4.832624837709809
 10
-16.96349943032831
 20
4.881937336053786
 10
-17.01281192867228
 20
4.931249834397764
 10
-17.01281192867228
 20
4.980562332741742
 10
-17.01281192867228
 20
5.02987483108572
 10
-17.01281192867228
 20
5.079187329429697
 10
-17.01281192867228
 20
5.128499827773675
 10
-17.01281192867228
 20
5.177812326117652
 10
-17.01281192867228
 20
5.22712482446163
 10
-17.06212442701626
 20
5.22712482446163
 10
-17.01281192867228
 20
5.22712482446163
 10
-17.01281192867228
 20
5.276437322805608
 10
-17.06212442701626
 20
5.276437322805608
 10
-17.06212442701626
 20
5.325749821149585
 10
-17.11143692536024
 20
5.375062319493563
 10
-17.11143692536024
 20
5.42437481783754
 10
-17.16074942370422
 20
5.473687316181518
 10
-17.16074942370422
 20
5.522999814525495
 10
-17.2100619220482
 20
5.522999814525495
 10
-17.2100619220482
 20
5.572312312869474
 10
-17.25937442039217
 20
5.621624811213451
 10
-17.25937442039217
 20
5.670937309557429
 10
-17.30868691873615
 20
5.720249807901406
 10
-17.35799941708013
 20
5.769562306245384
 10
-17.35799941708013
 20
5.818874804589361
 10
-17.35799941708013
 20
5.86818730293334
 10
-17.40731191542411
 20
5.86818730293334
 10
-17.40731191542411
 20
5.917499801277317
 10
-17.40731191542411
 20
5.966812299621295
 10
-17.45662441376809
 20
6.016124797965272
 10
-17.50593691211206
 20
6.06543729630925
 10
-17.50593691211206
 20
6.114749794653227
 10
-17.55524941045604
 20
6.164062292997206
 10
-17.60456190880002
 20
6.213374791341183
 10
-17.60456190880002
 20
6.262687289685161
 10
-17.653874407144
 20
6.262687289685161
 10
-17.653874407144
 20
6.311999788029138
 10
-17.60456190880002
 20
6.311999788029138
 10
-17.60456190880002
 20
6.361312286373115
 10
-17.653874407144
 20
6.361312286373115
 10
-17.60456190880002
 20
6.361312286373115
 10
-17.60456190880002
 20
6.410624784717093
 10
-17.55524941045604
 20
6.410624784717093
 10
-17.55524941045604
 20
6.459937283061071
 10
-17.50593691211206
 20
6.509249781405049
 10
-17.45662441376809
 20
6.509249781405049
 10
-17.45662441376809
 20
6.558562279749026
 10
-17.40731191542411
 20
6.558562279749026
 10
-17.40731191542411
 20
6.607874778093004
 10
-17.35799941708013
 20
6.607874778093004
 10
-17.35799941708013
 20
6.657187276436981
 10
-17.25937442039217
 20
6.706499774780959
 10
-17.25937442039217
 20
6.755812273124937
 10
-17.2100619220482
 20
6.755812273124937
 10
-17.2100619220482
 20
6.805124771468915
 10
-17.16074942370422
 20
6.854437269812892
 10
-17.11143692536024
 20
6.90374976815687
 10
-17.06212442701626
 20
6.953062266500847
 10
-17.01281192867228
 20
7.002374764844825
 10
-17.01281192867228
 20
7.051687263188803
 10
-17.01281192867228
 20
7.100999761532781
 10
-17.01281192867228
 20
7.150312259876758
 10
-17.01281192867228
 20
7.199624758220736
 10
-16.96349943032831
 20
7.199624758220736
 10
-16.96349943032831
 20
7.248937256564713
 10
-16.96349943032831
 20
7.298249754908691
 10
-16.96349943032831
 20
7.347562253252669
 10
-16.96349943032831
 20
7.396874751596646
 10
-16.96349943032831
 20
7.446187249940624
 10
-16.96349943032831
 20
7.495499748284601
 10
-16.91418693198433
 20
7.495499748284601
 10
-16.91418693198433
 20
7.544812246628579
 10
-16.91418693198433
 20
7.594124744972556
 10
-16.91418693198433
 20
7.643437243316535
 10
-16.86487443364035
 20
7.692749741660512
 10
-16.91418693198433
 20
7.74206224000449
 10
-16.91418693198433
 20
7.791374738348467
 10
-16.91418693198433
 20
7.840687236692445
 10
-16.91418693198433
 20
7.889999735036422
 10
-16.91418693198433
 20
7.9393122333804
 10
-16.91418693198433
 20
7.988624731724378
 10
-16.91418693198433
 20
8.037937230068355
 10
-16.86487443364035
 20
8.037937230068355
 10
-16.86487443364035
 20
8.087249728412333
 10
-16.86487443364035
 20
8.136562226756311
 10
-16.81556193529638
 20
8.185874725100289
 10
-16.81556193529638
 20
8.235187223444266
 10
-16.7662494369524
 20
8.284499721788244
 10
-16.71693693860842
 20
8.284499721788244
 10
-16.71693693860842
 20
8.333812220132222
 10
-16.66762444026444
 20
8.333812220132222
 10
-16.66762444026444
 20
8.3831247184762
 10
-16.61831194192046
 20
8.3831247184762
 10
-16.56899944357649
 20
8.432437216820176
 10
-16.51968694523251
 20
8.432437216820176
 10
-16.47037444688853
 20
8.481749715164154
 10
-16.42106194854455
 20
8.481749715164154
 10
-16.42106194854455
 20
8.531062213508132
 10
-16.3224369518566
 20
8.531062213508132
 10
-16.3224369518566
 20
8.580374711852109
 10
-16.27312445351262
 20
8.580374711852109
 10
-16.27312445351262
 20
8.629687210196087
 10
-16.22381195516864
 20
8.629687210196087
 10
-16.17449945682467
 20
8.678999708540065
 10
-16.12518695848069
 20
8.728312206884043
 10
-16.07587446013671
 20
8.777624705228019
 10
-16.02656196179273
 20
8.826937203571998
 10
-15.97724946344876
 20
8.876249701915976
 10
-15.92793696510478
 20
8.925562200259954
 10
-15.8786244667608
 20
8.97487469860393
 10
-15.82931196841682
 20
9.024187196947908
 10
-15.77999947007284
 20
9.073499695291886
 10
-15.73068697172887
 20
9.122812193635864
 10
-15.68137447338489
 20
9.122812193635864
 10
-15.68137447338489
 20
9.172124691979841
 10
-15.63206197504091
 20
9.172124691979841
 10
-15.63206197504091
 20
9.221437190323819
 10
-15.58274947669693
 20
9.221437190323819
 10
-15.58274947669693
 20
9.270749688667797
 10
-15.53343697835296
 20
9.320062187011775
 10
-15.48412448000898
 20
9.369374685355751
 10
-15.434811981665
 20
9.418687183699729
 10
-15.38549948332102
 20
9.467999682043708
 10
-15.33618698497705
 20
9.467999682043708
 10
-15.33618698497705
 20
9.517312180387684
 10
-15.28687448663307
 20
9.517312180387684
 10
-15.28687448663307
 20
9.566624678731662
 10
-15.23756198828909
 20
9.61593717707564
 10
-15.18824948994511
 20
9.665249675419618
 10
-15.18824948994511
 20
9.714562173763595
 10
-15.13893699160114
 20
9.714562173763595
 10
-15.13893699160114
 20
9.763874672107573
 10
-15.13893699160114
 20
9.813187170451551
 10
-15.08962449325716
 20
9.813187170451551
 10
-15.08962449325716
 20
9.862499668795529
 10
-15.04031199491318
 20
9.862499668795529
 10
-15.04031199491318
 20
9.911812167139505
 10
-15.04031199491318
 20
9.961124665483483
 10
-15.04031199491318
 20
10.01043716382746
 10
-15.04031199491318
 20
10.05974966217144
 10
-15.04031199491318
 20
10.10906216051542
 10
-14.9909994965692
 20
10.10906216051542
 10
-14.9909994965692
 20
10.15837465885939
 10
-14.9909994965692
 20
10.20768715720337
 10
-14.9909994965692
 20
10.25699965554735
 10
-14.94168699822523
 20
10.30631215389133
 10
-14.94168699822523
 20
10.3556246522353
 10
-14.9909994965692
 20
10.40493715057928
 10
-14.9909994965692
 20
10.45424964892326
 10
-14.9909994965692
 20
10.50356214726724
 10
-14.9909994965692
 20
10.55287464561122
 10
-14.9909994965692
 20
10.60218714395519
 10
-14.9909994965692
 20
10.65149964229917
 10
-14.9909994965692
 20
10.70081214064315
 10
-14.9909994965692
 20
10.75012463898713
 10
-14.9909994965692
 20
10.7994371373311
 10
-14.9909994965692
 20
10.84874963567508
 10
-14.9909994965692
 20
10.89806213401906
 10
-15.04031199491318
 20
10.94737463236304
 10
-15.04031199491318
 20
10.99668713070701
 10
-15.04031199491318
 20
11.04599962905099
 10
-15.04031199491318
 20
11.09531212739497
 10
-15.04031199491318
 20
11.14462462573895
 10
-15.04031199491318
 20
11.19393712408293
 10
-15.04031199491318
 20
11.2432496224269
 10
-15.04031199491318
 20
11.29256212077088
 10
-15.08962449325716
 20
11.34187461911486
 10
-15.08962449325716
 20
11.39118711745884
 10
-15.08962449325716
 20
11.44049961580281
 10
-15.08962449325716
 20
11.48981211414679
 10
-15.08962449325716
 20
11.53912461249077
 10
-15.08962449325716
 20
11.58843711083474
 10
-15.08962449325716
 20
11.63774960917872
 10
-15.04031199491318
 20
11.63774960917872
 10
-15.04031199491318
 20
11.6870621075227
 10
-15.04031199491318
 20
11.73637460586668
 10
-15.04031199491318
 20
11.78568710421066
 10
-14.9909994965692
 20
11.78568710421066
 10
-14.9909994965692
 20
11.83499960255463
 10
-14.94168699822523
 20
11.88431210089861
 10
-14.94168699822523
 20
11.93362459924259
 10
-14.94168699822523
 20
11.98293709758657
 10
-14.89237449988125
 20
11.98293709758657
 10
-14.89237449988125
 20
12.03224959593054
 10
-14.84306200153727
 20
12.03224959593054
 10
-14.79374950319329
 20
12.08156209427452
 10
-14.74443700484932
 20
12.08156209427452
 10
-14.69512450650534
 20
12.08156209427452
 10
-14.64581200816136
 20
12.08156209427452
 10
-14.64581200816136
 20
12.1308745926185
 10
-14.59649950981738
 20
12.1308745926185
 10
-14.5471870114734
 20
12.1308745926185
 10
-14.49787451312943
 20
12.1308745926185
 10
-14.44856201478545
 20
12.1308745926185
 10
-14.39924951644147
 20
12.1308745926185
 10
-14.30062451975352
 20
12.1308745926185
 10
-14.25131202140954
 20
12.1308745926185
 10
-14.20199952306556
 20
12.1308745926185
 10
-14.15268702472158
 20
12.1308745926185
 10
-14.10337452637761
 20
12.1308745926185
 10
-14.05406202803363
 20
12.1308745926185
 10
-14.00474952968965
 20
12.1308745926185
 10
-13.95543703134567
 20
12.08156209427452
 10
-13.90612453300169
 20
12.08156209427452
 10
-13.85681203465772
 20
12.08156209427452
 10
-13.80749953631374
 20
12.08156209427452
 10
-13.70887453962578
 20
12.08156209427452
 10
-13.65956204128181
 20
12.08156209427452
 10
-13.61024954293783
 20
12.08156209427452
 10
-13.56093704459385
 20
12.08156209427452
 10
-13.51162454624987
 20
12.08156209427452
 10
-13.41299954956192
 20
12.08156209427452
 10
-13.31437455287396
 20
12.08156209427452
 10
-13.26506205452999
 20
12.08156209427452
 10
-13.16643705784203
 20
12.08156209427452
 10
-13.11712455949805
 20
12.08156209427452
 10
-13.06781206115408
 20
12.08156209427452
 10
-13.0184995628101
 20
12.08156209427452
 10
-12.96918706446612
 20
12.08156209427452
 10
-12.96918706446612
 20
12.03224959593054
 10
-12.91987456612214
 20
12.03224959593054
 10
-12.87056206777816
 20
12.03224959593054
 10
-12.82124956943419
 20
12.03224959593054
 10
-12.82124956943419
 20
11.98293709758657
 10
-12.77193707109021
 20
11.98293709758657
 10
-12.72262457274623
 20
11.98293709758657
 10
-12.67331207440225
 20
11.93362459924259
 10
-12.62399957605828
 20
11.93362459924259
 10
-12.5746870777143
 20
11.88431210089861
 10
-12.52537457937032
 20
11.88431210089861
 10
-12.52537457937032
 20
11.83499960255463
 10
-12.47606208102634
 20
11.83499960255463
 10
-12.42674958268237
 20
11.78568710421066
 10
-12.37743708433839
 20
11.78568710421066
 10
-12.32812458599441
 20
11.73637460586668
 10
-12.27881208765043
 20
11.73637460586668
 10
-12.27881208765043
 20
11.6870621075227
 10
-12.22949958930645
 20
11.6870621075227
 10
-12.22949958930645
 20
11.63774960917872
 10
-12.18018709096248
 20
11.63774960917872
 10
-12.1308745926185
 20
11.58843711083474
 10
-12.08156209427452
 20
11.53912461249077
 10
-12.03224959593054
 20
11.48981211414679
 10
-12.03224959593054
 20
11.44049961580281
 10
-11.98293709758657
 20
11.44049961580281
 10
-11.98293709758657
 20
11.39118711745884
 10
-11.98293709758657
 20
11.34187461911486
 10
-11.93362459924259
 20
11.34187461911486
 10
-11.93362459924259
 20
11.29256212077088
 10
-11.88431210089861
 20
11.29256212077088
 10
-11.83499960255463
 20
11.2432496224269
 10
-11.78568710421066
 20
11.19393712408293
 10
-11.73637460586668
 20
11.14462462573895
 10
-11.6870621075227
 20
11.14462462573895
 10
-11.58843711083474
 20
11.09531212739497
 10
-11.53912461249077
 20
11.04599962905099
 10
-11.48981211414679
 20
10.99668713070701
 10
-11.44049961580281
 20
10.94737463236304
 10
-11.39118711745884
 20
10.89806213401906
 10
-11.34187461911486
 20
10.84874963567508
 10
-11.29256212077088
 20
10.7994371373311
 10
-11.2432496224269
 20
10.75012463898713
 10
-11.19393712408293
 20
10.70081214064315
 10
-11.14462462573895
 20
10.65149964229917
 10
-11.09531212739497
 20
10.60218714395519
 10
-11.04599962905099
 20
10.55287464561122
 10
-11.04599962905099
 20
10.50356214726724
 10
-10.99668713070701
 20
10.45424964892326
 10
-10.94737463236304
 20
10.40493715057928
 10
-10.89806213401906
 20
10.3556246522353
 10
-10.7994371373311
 20
10.3556246522353
 10
-10.75012463898713
 20
10.30631215389133
 10
-10.70081214064315
 20
10.25699965554735
 10
-10.65149964229917
 20
10.25699965554735
 10
-10.60218714395519
 20
10.20768715720337
 10
-10.55287464561122
 20
10.15837465885939
 10
-10.50356214726724
 20
10.15837465885939
 10
-10.45424964892326
 20
10.10906216051542
 10
-10.40493715057928
 20
10.10906216051542
 10
-10.40493715057928
 20
10.05974966217144
 10
-10.3556246522353
 20
10.05974966217144
 10
-10.3556246522353
 20
10.01043716382746
 10
-10.30631215389133
 20
10.01043716382746
 10
-10.30631215389133
 20
9.961124665483483
 10
-10.25699965554735
 20
9.911812167139505
 10
-10.25699965554735
 20
9.862499668795529
 10
-10.20768715720337
 20
9.813187170451551
 10
-10.20768715720337
 20
9.763874672107573
 10
-10.15837465885939
 20
9.763874672107573
 10
-10.15837465885939
 20
9.714562173763595
 10
-10.15837465885939
 20
9.665249675419618
 10
-10.10906216051542
 20
9.61593717707564
 10
-10.10906216051542
 20
9.566624678731662
 10
-10.05974966217144
 20
9.517312180387684
 10
-10.05974966217144
 20
9.467999682043708
 10
-10.01043716382746
 20
9.467999682043708
 10
-10.01043716382746
 20
9.418687183699729
 10
-9.961124665483483
 20
9.418687183699729
 10
-9.961124665483483
 20
9.369374685355751
 10
-9.911812167139505
 20
9.369374685355751
 10
-9.911812167139505
 20
9.320062187011775
 10
-9.862499668795529
 20
9.320062187011775
 10
-9.813187170451551
 20
9.320062187011775
 10
-9.763874672107573
 20
9.320062187011775
 10
-9.714562173763595
 20
9.270749688667797
 10
-9.665249675419618
 20
9.270749688667797
 10
-9.61593717707564
 20
9.270749688667797
 10
-9.566624678731662
 20
9.221437190323819
 10
-9.517312180387684
 20
9.221437190323819
 10
-9.467999682043708
 20
9.221437190323819
 10
-9.418687183699729
 20
9.221437190323819
 10
-9.369374685355751
 20
9.172124691979841
 10
-9.320062187011775
 20
9.122812193635864
 10
-9.270749688667797
 20
9.122812193635864
 10
-9.221437190323819
 20
9.073499695291886
 10
-9.172124691979841
 20
9.073499695291886
 10
-9.122812193635864
 20
9.024187196947908
 10
-9.073499695291886
 20
9.024187196947908
 10
-9.024187196947908
 20
8.97487469860393
 10
-8.97487469860393
 20
8.97487469860393
 10
-8.925562200259954
 20
8.925562200259954
 10
-8.876249701915976
 20
8.876249701915976
 10
-8.826937203571998
 20
8.876249701915976
 10
-8.777624705228019
 20
8.826937203571998
 10
-8.728312206884043
 20
8.826937203571998
 10
-8.678999708540065
 20
8.777624705228019
 10
-8.629687210196087
 20
8.777624705228019
 10
-8.629687210196087
 20
8.728312206884043
 10
-8.580374711852109
 20
8.728312206884043
 10
-8.531062213508132
 20
8.678999708540065
 10
-8.481749715164154
 20
8.678999708540065
 10
-8.432437216820176
 20
8.678999708540065
 10
-8.432437216820176
 20
8.629687210196087
 10
-8.3831247184762
 20
8.629687210196087
 10
-8.3831247184762
 20
8.678999708540065
 10
-8.333812220132222
 20
8.678999708540065
 10
-8.284499721788244
 20
8.678999708540065
 10
-8.185874725100289
 20
8.728312206884043
 10
-8.136562226756311
 20
8.728312206884043
 10
-8.087249728412333
 20
8.777624705228019
 10
-8.037937230068355
 20
8.826937203571998
 10
-7.988624731724378
 20
8.876249701915976
 10
-7.988624731724378
 20
8.925562200259954
 10
-7.9393122333804
 20
8.97487469860393
 10
-7.9393122333804
 20
9.024187196947908
 10
-7.889999735036422
 20
9.024187196947908
 10
-7.889999735036422
 20
9.073499695291886
 10
-7.889999735036422
 20
9.122812193635864
 10
-7.889999735036422
 20
9.172124691979841
 10
-7.9393122333804
 20
9.172124691979841
 10
-7.9393122333804
 20
9.221437190323819
 10
-7.988624731724378
 20
9.221437190323819
 10
-8.037937230068355
 20
9.270749688667797
 10
-8.037937230068355
 20
9.320062187011775
 10
-8.087249728412333
 20
9.320062187011775
 10
-8.087249728412333
 20
9.369374685355751
 10
-8.136562226756311
 20
9.369374685355751
 10
-8.185874725100289
 20
9.418687183699729
 10
-8.235187223444266
 20
9.418687183699729
 10
-8.284499721788244
 20
9.418687183699729
 10
-8.333812220132222
 20
9.467999682043708
 10
-8.3831247184762
 20
9.467999682043708
 10
-8.481749715164154
 20
9.467999682043708
 10
-8.531062213508132
 20
9.467999682043708
 10
-8.580374711852109
 20
9.467999682043708
 10
-8.629687210196087
 20
9.517312180387684
 10
-8.728312206884043
 20
9.517312180387684
 10
-8.777624705228019
 20
9.517312180387684
 10
-8.876249701915976
 20
9.566624678731662
 10
-8.97487469860393
 20
9.566624678731662
 10
-9.073499695291886
 20
9.566624678731662
 10
-9.172124691979841
 20
9.566624678731662
 10
-9.270749688667797
 20
9.61593717707564
 10
-9.320062187011775
 20
9.61593717707564
 10
-9.418687183699729
 20
9.61593717707564
 10
-9.517312180387684
 20
9.61593717707564
 10
-9.566624678731662
 20
9.665249675419618
 10
-9.665249675419618
 20
9.665249675419618
 10
-9.714562173763595
 20
9.714562173763595
 10
-9.763874672107573
 20
9.714562173763595
 10
-9.763874672107573
 20
9.763874672107573
 10
-9.813187170451551
 20
9.763874672107573
 10
-9.813187170451551
 20
9.813187170451551
 10
-9.813187170451551
 20
9.862499668795529
 10
-9.862499668795529
 20
9.862499668795529
 10
-9.862499668795529
 20
9.911812167139505
 10
-9.862499668795529
 20
9.961124665483483
 10
-9.911812167139505
 20
9.961124665483483
 10
-9.911812167139505
 20
10.01043716382746
 10
-9.911812167139505
 20
10.05974966217144
 10
-9.961124665483483
 20
10.10906216051542
 10
-9.961124665483483
 20
10.15837465885939
 10
-9.961124665483483
 20
10.20768715720337
 10
-9.961124665483483
 20
10.25699965554735
 10
-9.961124665483483
 20
10.30631215389133
 10
-10.01043716382746
 20
10.30631215389133
 10
-10.01043716382746
 20
10.3556246522353
 10
-10.05974966217144
 20
10.40493715057928
 10
-10.05974966217144
 20
10.45424964892326
 10
-10.10906216051542
 20
10.50356214726724
 10
-10.15837465885939
 20
10.55287464561122
 10
-10.20768715720337
 20
10.60218714395519
 10
-10.25699965554735
 20
10.65149964229917
 10
-10.30631215389133
 20
10.70081214064315
 10
-10.3556246522353
 20
10.70081214064315
 10
-10.40493715057928
 20
10.75012463898713
 10
-10.45424964892326
 20
10.7994371373311
 10
-10.50356214726724
 20
10.84874963567508
 10
-10.55287464561122
 20
10.89806213401906
 10
-10.60218714395519
 20
10.94737463236304
 10
-10.60218714395519
 20
10.99668713070701
 10
-10.65149964229917
 20
10.99668713070701
 10
-10.70081214064315
 20
11.04599962905099
 10
-10.70081214064315
 20
11.09531212739497
 10
-10.75012463898713
 20
11.14462462573895
 10
-10.7994371373311
 20
11.14462462573895
 10
-10.7994371373311
 20
11.19393712408293
 10
-10.84874963567508
 20
11.2432496224269
 10
-10.89806213401906
 20
11.2432496224269
 10
-10.89806213401906
 20
11.29256212077088
 10
-10.94737463236304
 20
11.34187461911486
 10
-10.94737463236304
 20
11.39118711745884
 10
-10.99668713070701
 20
11.39118711745884
 10
-10.99668713070701
 20
11.44049961580281
 10
-10.99668713070701
 20
11.48981211414679
 10
-11.04599962905099
 20
11.53912461249077
 10
-11.04599962905099
 20
11.58843711083474
 10
-11.04599962905099
 20
11.63774960917872
 10
-11.04599962905099
 20
11.6870621075227
 10
-11.09531212739497
 20
11.6870621075227
 10
-11.09531212739497
 20
11.73637460586668
 10
-11.09531212739497
 20
11.78568710421066
 10
-11.09531212739497
 20
11.83499960255463
 10
-11.09531212739497
 20
11.88431210089861
 10
-11.09531212739497
 20
11.93362459924259
 10
-11.09531212739497
 20
11.98293709758657
 10
-11.14462462573895
 20
12.03224959593054
 10
-11.19393712408293
 20
12.08156209427452
 10
-11.19393712408293
 20
12.1308745926185
 10
-11.2432496224269
 20
12.1308745926185
 10
-11.2432496224269
 20
12.18018709096248
 10
-11.29256212077088
 20
12.18018709096248
 10
-11.34187461911486
 20
12.22949958930645
 10
-11.39118711745884
 20
12.22949958930645
 10
-11.39118711745884
 20
12.27881208765043
 10
-11.44049961580281
 20
12.32812458599441
 10
-11.44049961580281
 20
12.37743708433839
 10
-11.48981211414679
 20
12.37743708433839
 10
-11.48981211414679
 20
12.42674958268237
 10
-11.53912461249077
 20
12.42674958268237
 10
-11.53912461249077
 20
12.47606208102634
 10
-11.58843711083474
 20
12.47606208102634
 10
-11.58843711083474
 20
12.52537457937032
 10
-11.63774960917872
 20
12.52537457937032
 10
-11.63774960917872
 20
12.5746870777143
 10
-11.6870621075227
 20
12.5746870777143
 10
-11.6870621075227
 20
12.62399957605828
 10
-11.73637460586668
 20
12.67331207440225
 10
-11.73637460586668
 20
12.72262457274623
 10
-11.73637460586668
 20
12.77193707109021
 10
-11.78568710421066
 20
12.77193707109021
 10
-11.78568710421066
 20
12.82124956943419
 10
-11.83499960255463
 20
12.87056206777816
 10
-11.83499960255463
 20
12.91987456612214
 10
-11.88431210089861
 20
12.91987456612214
 10
-11.88431210089861
 20
12.96918706446612
 10
-11.93362459924259
 20
13.0184995628101
 10
-11.98293709758657
 20
13.06781206115408
 10
-11.98293709758657
 20
13.11712455949805
 10
-11.98293709758657
 20
13.16643705784203
 10
-12.03224959593054
 20
13.16643705784203
 10
-12.03224959593054
 20
13.21574955618601
 10
-12.03224959593054
 20
13.26506205452999
 10
-12.03224959593054
 20
13.31437455287396
 10
-12.03224959593054
 20
13.36368705121794
 10
-12.03224959593054
 20
13.41299954956192
 10
-12.08156209427452
 20
13.4623120479059
 10
-12.08156209427452
 20
13.51162454624987
 10
-12.08156209427452
 20
13.56093704459385
 10
-12.03224959593054
 20
13.56093704459385
 10
-12.03224959593054
 20
13.61024954293783
 10
-12.08156209427452
 20
13.61024954293783
 10
-12.08156209427452
 20
13.65956204128181
 10
-12.03224959593054
 20
13.65956204128181
 10
-12.03224959593054
 20
13.70887453962578
 10
-12.03224959593054
 20
13.75818703796976
 10
-12.03224959593054
 20
13.80749953631374
 10
-11.98293709758657
 20
13.80749953631374
 10
-11.98293709758657
 20
13.85681203465772
 10
-11.93362459924259
 20
13.85681203465772
 10
-11.88431210089861
 20
13.90612453300169
 10
-11.83499960255463
 20
13.95543703134567
 10
-11.78568710421066
 20
14.00474952968965
 10
-11.73637460586668
 20
14.05406202803363
 10
-11.6870621075227
 20
14.10337452637761
 10
-11.63774960917872
 20
14.10337452637761
 10
-11.63774960917872
 20
14.15268702472158
 10
-11.58843711083474
 20
14.15268702472158
 10
-11.53912461249077
 20
14.20199952306556
 10
-11.48981211414679
 20
14.20199952306556
 10
-11.48981211414679
 20
14.25131202140954
 10
-11.44049961580281
 20
14.25131202140954
 10
-11.44049961580281
 20
14.30062451975352
 10
-11.39118711745884
 20
14.30062451975352
 10
-11.39118711745884
 20
14.34993701809749
 10
-11.34187461911486
 20
14.34993701809749
 10
-11.29256212077088
 20
14.39924951644147
 10
-11.2432496224269
 20
14.39924951644147
 10
-11.2432496224269
 20
14.44856201478545
 10
-11.19393712408293
 20
14.44856201478545
 10
-11.14462462573895
 20
14.49787451312943
 10
-11.09531212739497
 20
14.49787451312943
 10
-11.04599962905099
 20
14.5471870114734
 10
-10.99668713070701
 20
14.5471870114734
 10
-10.99668713070701
 20
14.59649950981738
 10
-10.94737463236304
 20
14.59649950981738
 10
-10.89806213401906
 20
14.59649950981738
 10
-10.89806213401906
 20
14.64581200816136
 10
-10.84874963567508
 20
14.64581200816136
 10
-10.7994371373311
 20
14.64581200816136
 10
-10.75012463898713
 20
14.69512450650534
 10
-10.70081214064315
 20
14.69512450650534
 10
-10.65149964229917
 20
14.74443700484932
 10
-10.60218714395519
 20
14.74443700484932
 10
-10.55287464561122
 20
14.79374950319329
 10
-10.50356214726724
 20
14.79374950319329
 10
-10.45424964892326
 20
14.79374950319329
 10
-10.45424964892326
 20
14.84306200153727
 10
-10.40493715057928
 20
14.84306200153727
 10
-10.3556246522353
 20
14.84306200153727
 10
-10.30631215389133
 20
14.84306200153727
 10
-10.30631215389133
 20
14.89237449988125
 10
-10.25699965554735
 20
14.89237449988125
 10
-10.20768715720337
 20
14.89237449988125
 10
-10.15837465885939
 20
14.89237449988125
 10
-10.10906216051542
 20
14.89237449988125
 10
-10.05974966217144
 20
14.94168699822523
 10
-10.01043716382746
 20
14.94168699822523
 10
-9.961124665483483
 20
14.94168699822523
 10
-9.911812167139505
 20
14.9909994965692
 10
-9.862499668795529
 20
14.9909994965692
 10
-9.813187170451551
 20
14.9909994965692
 10
-9.763874672107573
 20
14.9909994965692
 10
-9.763874672107573
 20
15.04031199491318
 10
-9.714562173763595
 20
15.04031199491318
 10
-9.665249675419618
 20
15.04031199491318
 10
-9.61593717707564
 20
15.04031199491318
 10
-9.566624678731662
 20
15.08962449325716
 10
-9.517312180387684
 20
15.08962449325716
 10
-9.467999682043708
 20
15.13893699160114
 10
-9.418687183699729
 20
15.13893699160114
 10
-9.320062187011775
 20
15.13893699160114
 10
-9.320062187011775
 20
15.18824948994511
 10
-9.221437190323819
 20
15.18824948994511
 10
-9.172124691979841
 20
15.23756198828909
 10
-9.122812193635864
 20
15.23756198828909
 10
-9.073499695291886
 20
15.23756198828909
 10
-9.024187196947908
 20
15.28687448663307
 10
-8.97487469860393
 20
15.28687448663307
 10
-8.925562200259954
 20
15.28687448663307
 10
-8.876249701915976
 20
15.33618698497705
 10
-8.826937203571998
 20
15.33618698497705
 10
-8.777624705228019
 20
15.33618698497705
 10
-8.777624705228019
 20
15.38549948332102
 10
-8.728312206884043
 20
15.38549948332102
 10
-8.678999708540065
 20
15.38549948332102
 10
-8.629687210196087
 20
15.434811981665
 10
-8.580374711852109
 20
15.434811981665
 10
-8.531062213508132
 20
15.48412448000898
 10
-8.481749715164154
 20
15.48412448000898
 10
-8.432437216820176
 20
15.53343697835296
 10
-8.3831247184762
 20
15.53343697835296
 10
-8.333812220132222
 20
15.53343697835296
 10
-8.333812220132222
 20
15.58274947669693
 10
-8.284499721788244
 20
15.58274947669693
 10
-8.235187223444266
 20
15.58274947669693
 10
-8.185874725100289
 20
15.58274947669693
 10
-8.136562226756311
 20
15.63206197504091
 10
-8.087249728412333
 20
15.63206197504091
 10
-8.037937230068355
 20
15.68137447338489
 10
-7.988624731724378
 20
15.68137447338489
 10
-7.889999735036422
 20
15.73068697172887
 10
-7.840687236692445
 20
15.73068697172887
 10
-7.791374738348467
 20
15.73068697172887
 10
-7.74206224000449
 20
15.77999947007284
 10
-7.692749741660512
 20
15.77999947007284
 10
-7.643437243316535
 20
15.82931196841682
 10
-7.594124744972556
 20
15.82931196841682
 10
-7.544812246628579
 20
15.82931196841682
 10
-7.495499748284601
 20
15.8786244667608
 10
-7.446187249940624
 20
15.8786244667608
 10
-7.396874751596646
 20
15.8786244667608
 10
-7.347562253252669
 20
15.92793696510478
 10
-7.298249754908691
 20
15.92793696510478
 10
-7.298249754908691
 20
15.97724946344876
 10
-7.248937256564713
 20
15.97724946344876
 10
-7.199624758220736
 20
15.97724946344876
 10
-7.150312259876758
 20
16.02656196179273
 10
-7.100999761532781
 20
16.02656196179273
 10
-7.051687263188803
 20
16.02656196179273
 10
-7.051687263188803
 20
16.07587446013671
 10
-7.002374764844825
 20
16.07587446013671
 10
-6.953062266500847
 20
16.07587446013671
 10
-6.90374976815687
 20
16.07587446013671
 10
-6.854437269812892
 20
16.12518695848069
 10
-6.805124771468915
 20
16.12518695848069
 10
-6.755812273124937
 20
16.17449945682467
 10
-6.706499774780959
 20
16.17449945682467
 10
-6.657187276436981
 20
16.17449945682467
 10
-6.607874778093004
 20
16.22381195516864
 10
-6.558562279749026
 20
16.22381195516864
 10
-6.509249781405049
 20
16.27312445351262
 10
-6.459937283061071
 20
16.27312445351262
 10
-6.459937283061071
 20
16.3224369518566
 10
-6.410624784717093
 20
16.3224369518566
 10
-6.410624784717093
 20
16.37174945020058
 10
-6.361312286373115
 20
16.37174945020058
 10
-6.311999788029138
 20
16.37174945020058
 10
-6.262687289685161
 20
16.47037444688853
 10
-6.213374791341183
 20
16.51968694523251
 10
-6.164062292997206
 20
16.51968694523251
 10
-6.164062292997206
 20
16.56899944357649
 10
-6.114749794653227
 20
16.56899944357649
 10
-6.06543729630925
 20
16.61831194192046
 10
-6.016124797965272
 20
16.61831194192046
 10
-6.016124797965272
 20
16.66762444026444
 10
-5.966812299621295
 20
16.66762444026444
 10
-5.966812299621295
 20
16.71693693860842
 10
-5.917499801277317
 20
16.7662494369524
 10
-5.86818730293334
 20
16.81556193529638
 10
-5.818874804589361
 20
16.86487443364035
 10
-5.818874804589361
 20
16.91418693198433
 10
-5.769562306245384
 20
16.91418693198433
 10
-5.769562306245384
 20
16.96349943032831
 10
-5.720249807901406
 20
16.96349943032831
 10
-5.720249807901406
 20
17.01281192867228
 10
-5.720249807901406
 20
17.06212442701626
 10
-5.670937309557429
 20
17.06212442701626
 10
-5.670937309557429
 20
17.11143692536024
 10
-5.621624811213451
 20
17.16074942370422
 10
-5.621624811213451
 20
17.2100619220482
 10
-5.572312312869474
 20
17.25937442039217
 10
-5.572312312869474
 20
17.30868691873615
 10
-5.522999814525495
 20
17.35799941708013
 10
-5.522999814525495
 20
17.40731191542411
 10
-5.473687316181518
 20
17.45662441376809
 10
-5.42437481783754
 20
17.50593691211206
 10
-5.375062319493563
 20
17.55524941045604
 10
-5.375062319493563
 20
17.60456190880002
 10
-5.325749821149585
 20
17.60456190880002
 10
-5.325749821149585
 20
17.653874407144
 10
-5.276437322805608
 20
17.653874407144
 10
-5.276437322805608
 20
17.70318690548797
 10
-5.22712482446163
 20
17.70318690548797
 10
-5.177812326117652
 20
17.75249940383195
 10
-5.177812326117652
 20
17.80181190217593
 10
-5.128499827773675
 20
17.80181190217593
 10
-5.079187329429697
 20
17.85112440051991
 10
-5.02987483108572
 20
17.85112440051991
 10
-4.980562332741742
 20
17.90043689886388
 10
-4.931249834397764
 20
17.90043689886388
 10
-4.881937336053786
 20
17.94974939720786
 10
-4.832624837709809
 20
17.94974939720786
 10
-4.733999841021854
 20
17.94974939720786
 10
-4.684687342677876
 20
17.99906189555184
 10
-4.635374844333898
 20
17.99906189555184
 10
-4.58606234598992
 20
17.99906189555184
 10
-4.58606234598992
 20
18.04837439389582
 10
-4.536749847645943
 20
18.04837439389582
 10
-4.487437349301965
 20
18.04837439389582
 10
-4.438124850957988
 20
18.09768689223979
 10
-4.38881235261401
 20
18.14699939058377
 10
-4.339499854270032
 20
18.14699939058377
 10
-4.339499854270032
 20
18.19631188892775
 10
-4.290187355926054
 20
18.19631188892775
 10
-4.240874857582077
 20
18.24562438727173
 10
-4.1915623592381
 20
18.24562438727173
 10
-4.142249860894122
 20
18.29493688561571
 10
-4.092937362550145
 20
18.34424938395968
 10
-4.043624864206167
 20
18.34424938395968
 10
-3.994312365862189
 20
18.34424938395968
 10
-3.994312365862189
 20
18.39356188230366
 10
-3.944999867518211
 20
18.39356188230366
 10
-3.895687369174234
 20
18.39356188230366
 10
-3.895687369174234
 20
18.44287438064764
 10
-3.846374870830256
 20
18.44287438064764
 10
-3.797062372486278
 20
18.44287438064764
 10
-3.747749874142301
 20
18.49218687899161
 10
-3.698437375798323
 20
18.49218687899161
 10
-3.649124877454346
 20
18.49218687899161
 10
-3.649124877454346
 20
18.54149937733559
 10
-3.599812379110368
 20
18.54149937733559
 10
-3.55049988076639
 20
18.54149937733559
 10
-3.501187382422413
 20
18.59081187567957
 10
-3.451874884078435
 20
18.59081187567957
 10
-3.402562385734457
 20
18.59081187567957
 10
-3.35324988739048
 20
18.59081187567957
 10
-3.35324988739048
 20
18.64012437402355
 10
-3.303937389046502
 20
18.64012437402355
 10
-3.254624890702524
 20
18.64012437402355
 10
-3.205312392358547
 20
18.68943687236753
 10
-3.155999894014569
 20
18.68943687236753
 10
-3.106687395670591
 20
18.7387493707115
 10
-3.057374897326614
 20
18.7387493707115
 10
-3.008062398982636
 20
18.7387493707115
 10
-2.958749900638658
 20
18.78806186905548
 10
-2.909437402294681
 20
18.78806186905548
 10
-2.860124903950703
 20
18.78806186905548
 10
-2.860124903950703
 20
18.83737436739946
 10
-2.810812405606725
 20
18.83737436739946
 10
-2.761499907262748
 20
18.83737436739946
 10
-2.71218740891877
 20
18.88668686574344
 10
-2.662874910574792
 20
18.88668686574344
 10
-2.662874910574792
 20
18.93599936408742
 10
-2.613562412230815
 20
18.93599936408742
 10
-2.564249913886838
 20
18.98531186243139
 10
-2.51493741554286
 20
18.98531186243139
 10
-2.465624917198882
 20
19.03462436077537
 10
-2.416312418854905
 20
19.08393685911935
 10
-2.366999920510927
 20
19.08393685911935
 10
-2.366999920510927
 20
19.13324935746332
 10
-2.317687422166949
 20
19.13324935746332
 10
-2.268374923822972
 20
19.13324935746332
 10
-2.268374923822972
 20
19.1825618558073
 10
-2.219062425478994
 20
19.1825618558073
 10
-2.169749927135016
 20
19.23187435415128
 10
-2.120437428791039
 20
19.23187435415128
 10
-2.120437428791039
 20
19.28118685249526
 10
-2.071124930447061
 20
19.28118685249526
  0
ENDSEC
  0
SECTION
  2
OBJECTS
  0
DICTIONARY
  5
C
330
0
100
AcDbDictionary
281
    1
  3
ACAD_GROUP
350
D
  0
DICTIONARY
  5
D
330
C
100
AcDbDictionary
281
    1
  0
PLOTSETTINGS
  5
51
  6
1x1
 40
0
 41
0
 42
0
 43
0
  0
ENDSEC
  0
EOF
