999
dxfrw 0.6.3
  0
SECTION
  2
HEADER
  9
$ACADVER
  1
AC1021
  9
$DWGCODEPAGE
  3
ANSI_1252
  9
$INSBASE
 10
0
 20
0
 30
0
  9
$EXTMIN
 10
-11.31832881373421
 20
-11.36931227685914
 30
0
  9
$EXTMAX
 10
11.16537842435942
 20
11.11439496123449
 30
0
  9
$LIMMIN
 10
0
 20
0
  9
$LIMMAX
 10
420
 20
297
  9
$ORTHOMODE
 70
    0
  9
$REGENMODE
 70
    1
  9
$FILLMODE
 70
    1
  9
$QTEXTMODE
 70
    0
  9
$MIRRTEXT
 70
    0
  9
$LTSCALE
 40
1
  9
$ATTMODE
 70
    0
  9
$TEXTSIZE
 40
2.5
  9
$TRACEWID
 40
15.68
  9
$TEXTSTYLE
  7
STANDARD
  9
$CLAYER
  8
0
  9
$CELTYPE
  6
BYLAYER
  9
$CECOLOR
 62
  256
  9
$CELTSCALE
 40
1
  9
$DISPSILH
 70
    0
  9
$DIMSCALE
 40
1
  9
$DIMASZ
 40
0.09375
  9
$DIMEXO
 40
0.03125
  9
$DIMDLI
 40
3.75
  9
$DIMRND
 40
0
  9
$DIMDLE
 40
0
  9
$DIMEXE
 40
0.0625
  9
$DIMTP
 40
0
  9
$DIMTM
 40
0
  9
$DIMTXT
 40
0.09375
  9
$DIMCEN
 40
2.5
  9
$DIMTSZ
 40
0
  9
$DIMTOL
 70
    0
  9
$DIMLIM
 70
    0
  9
$DIMTIH
 70
    0
  9
$DIMTOH
 70
    0
  9
$DIMSE1
 70
    0
  9
$DIMSE2
 70
    0
  9
$DIMTAD
 70
    1
  9
$DIMZIN
 70
    8
  9
$DIMBLK
  1

  9
$DIMASO
 70
    1
  9
$DIMSHO
 70
    1
  9
$DIMPOST
  1

  9
$DIMAPOST
  1

  9
$DIMALT
 70
    0
  9
$DIMALTD
 70
    3
  9
$DIMALTF
 40
0.03937
  9
$DIMLFAC
 40
1
  9
$DIMTOFL
 70
    1
  9
$DIMTVP
 40
0
  9
$DIMTIX
 70
    0
  9
$DIMSOXD
 70
    0
  9
$DIMSAH
 70
    0
  9
$DIMBLK1
  1

  9
$DIMBLK2
  1

  9
$DIMSTYLE
  2
STANDARD
  9
$DIMCLRD
 70
    0
  9
$DIMCLRE
 70
    0
  9
$DIMCLRT
 70
    0
  9
$DIMTFAC
 40
1
  9
$DIMGAP
 40
0.03125
  9
$DIMJUST
 70
    0
  9
$DIMSD1
 70
    0
  9
$DIMSD2
 70
    0
  9
$DIMTOLJ
 70
    0
  9
$DIMTZIN
 70
    8
  9
$DIMALTZ
 70
    0
  9
$DIMALTTZ
 70
    0
  9
$DIMUPT
 70
    0
  9
$DIMDEC
 70
    5
  9
$DIMTDEC
 70
    2
  9
$DIMALTU
 70
    2
  9
$DIMALTTD
 70
    3
  9
$DIMTXSTY
  7
romanc
  9
$DIMAUNIT
 70
    0
  9
$DIMADEC
 70
    1
  9
$DIMALTRND
 40
0
  9
$DIMAZIN
 70
    0
  9
$DIMDSEP
 70
   44
  9
$DIMATFIT
 70
    3
  9
$DIMFRAC
 70
    0
  9
$DIMLDRBLK
  1
STANDARD
  9
$DIMLUNIT
 70
    5
  9
$DIMLWD
 70
   -2
  9
$DIMLWE
 70
   -2
  9
$DIMTMOVE
 70
    0
  9
$DIMFXL
 40
1
  9
$DIMFXLON
 70
    0
  9
$DIMJOGANG
 40
0.7854
  9
$DIMTFILL
 70
    0
  9
$DIMTFILLCLR
 70
    0
  9
$DIMARCSYM
 70
    0
  9
$DIMLTYPE
  6

  9
$DIMLTEX1
  6

  9
$DIMLTEX2
  6

  9
$LUNITS
 70
    5
  9
$LUPREC
 70
    5
  9
$SKETCHINC
 40
1
  9
$FILLETRAD
 40
0
  9
$AUNITS
 70
    0
  9
$AUPREC
 70
    1
  9
$MENU
  1
.
  9
$ELEVATION
 40
0
  9
$PELEVATION
 40
0
  9
$THICKNESS
 40
0
  9
$LIMCHECK
 70
    0
  9
$CHAMFERA
 40
0
  9
$CHAMFERB
 40
0
  9
$CHAMFERC
 40
0
  9
$CHAMFERD
 40
0
  9
$SKPOLY
 70
    0
  9
$USRTIMER
 70
    1
  9
$ANGBASE
 50
0
  9
$ANGDIR
 70
    0
  9
$PDMODE
 70
   34
  9
$PDSIZE
 40
0
  9
$PLINEWID
 40
0
  9
$SPLFRAME
 70
    0
  9
$SPLINETYPE
 70
    2
  9
$SPLINESEGS
 70
    8
  9
$HANDSEED
  5
20000
  9
$SURFTAB1
 70
    6
  9
$SURFTAB2
 70
    6
  9
$SURFTYPE
 70
    6
  9
$SURFU
 70
    6
  9
$SURFV
 70
    6
  9
$UCSBASE
  2

  9
$UCSNAME
  2

  9
$UCSORG
 10
0
 20
0
 30
0
  9
$UCSXDIR
 10
1
 20
0
 30
0
  9
$UCSYDIR
 10
0
 20
1
 30
0
  9
$UCSORTHOREF
  2

  9
$UCSORTHOVIEW
 70
    0
  9
$UCSORGTOP
 10
0
 20
0
 30
0
  9
$UCSORGBOTTOM
 10
0
 20
0
 30
0
  9
$UCSORGLEFT
 10
0
 20
0
 30
0
  9
$UCSORGRIGHT
 10
0
 20
0
 30
0
  9
$UCSORGFRONT
 10
0
 20
0
 30
0
  9
$UCSORGBACK
 10
0
 20
0
 30
0
  9
$PUCSBASE
  2

  9
$PUCSNAME
  2

  9
$PUCSORG
 10
0
 20
0
 30
0
  9
$PUCSXDIR
 10
1
 20
0
 30
0
  9
$PUCSYDIR
 10
0
 20
1
 30
0
  9
$PUCSORTHOREF
  2

  9
$PUCSORTHOVIEW
 70
    0
  9
$PUCSORGTOP
 10
0
 20
0
 30
0
  9
$PUCSORGBOTTOM
 10
0
 20
0
 30
0
  9
$PUCSORGLEFT
 10
0
 20
0
 30
0
  9
$PUCSORGRIGHT
 10
0
 20
0
 30
0
  9
$PUCSORGFRONT
 10
0
 20
0
 30
0
  9
$PUCSORGBACK
 10
0
 20
0
 30
0
  9
$USERI1
 70
    0
  9
$USERI2
 70
    0
  9
$USERI3
 70
    0
  9
$USERI4
 70
    0
  9
$USERI5
 70
    0
  9
$USERR1
 40
0
  9
$USERR2
 40
0
  9
$USERR3
 40
0
  9
$USERR4
 40
0
  9
$USERR5
 40
0
  9
$WORLDVIEW
 70
    1
  9
$SHADEDGE
 70
    3
  9
$SHADEDIF
 70
   70
  9
$TILEMODE
 70
    1
  9
$MAXACTVP
 70
   64
  9
$PINSBASE
 10
0
 20
0
 30
0
  9
$PLIMCHECK
 70
    0
  9
$PEXTMIN
 10
0
 20
0
 30
0
  9
$PEXTMAX
 10
0
 20
0
 30
0
  9
$GRIDMODE
 70
    1
  9
$SNAPSTYLE
 70
    0
  9
$GRIDUNIT
 10
0
 20
0
  9
$PLIMMIN
 10
0
 20
0
  9
$PLIMMAX
 10
11
 20
8.5
  9
$UNITMODE
 70
    0
  9
$VISRETAIN
 70
    1
  9
$PLINEGEN
 70
    0
  9
$PSLTSCALE
 70
    1
  9
$TREEDEPTH
 70
 3020
  9
$CMLSTYLE
  2
Standard
  9
$CMLJUST
 70
    0
  9
$CMLSCALE
 40
20
  9
$PROXYGRAPHICS
 70
    1
  9
$MEASUREMENT
 70
    1
  9
$CELWEIGHT
370
   -1
  9
$ENDCAPS
280
    0
  9
$JOINSTYLE
280
    0
  9
$LWDISPLAY
290
    0
  9
$INSUNITS
 70
    1
  9
$HYPERLINKBASE
  1

  9
$STYLESHEET
  1

  9
$XEDIT
290
    1
  9
$CEPSNTYPE
380
    0
  9
$PSTYLEMODE
290
    1
  9
$EXTNAMES
290
    1
  9
$PSVPSCALE
 40
1
  9
$OLESTARTUP
290
    0
  9
$SORTENTS
280
  127
  9
$INDEXCTL
280
    0
  9
$HIDETEXT
280
    1
  9
$XCLIPFRAME
290
    0
  9
$HALOGAP
280
    0
  9
$OBSCOLOR
 70
  257
  9
$OBSLTYPE
280
    0
  9
$INTERSECTIONDISPLAY
280
    0
  9
$INTERSECTIONCOLOR
 70
  257
  9
$DIMASSOC
280
    1
  9
$PROJECTNAME
  1

  9
$CAMERADISPLAY
290
    0
  9
$LENSLENGTH
 40
50
  9
$CAMERAHEIGHT
 40
0
  9
$STEPSPERSEC
 40
2
  9
$STEPSIZE
 40
50
  9
$3DDWFPREC
 40
2
  9
$PSOLWIDTH
 40
5
  9
$PSOLHEIGHT
 40
80
  9
$LOFTANG1
 40
1.570796326794897
  9
$LOFTANG2
 40
1.570796326794897
  9
$LOFTMAG1
 40
0
  9
$LOFTMAG2
 40
0
  9
$LOFTPARAM
 70
    7
  9
$LOFTNORMALS
280
    1
  9
$LATITUDE
 40
1
  9
$LONGITUDE
 40
1
  9
$NORTHDIRECTION
 40
0
  9
$TIMEZONE
 70
-8000
  9
$LIGHTGLYPHDISPLAY
280
    1
  9
$TILEMODELIGHTSYNCH
280
    1
  9
$SOLIDHIST
280
    1
  9
$SHOWHIST
280
    1
  9
$DWFFRAME
280
    2
  9
$DGNFRAME
280
    0
  9
$REALWORLDSCALE
290
    1
  9
$INTERFERECOLOR
 62
    1
  9
$CSHADOW
280
    0
  9
$SHADOWPLANELOCATION
 40
0
  0
ENDSEC
  0
SECTION
  2
CLASSES
  0
ENDSEC
  0
SECTION
  2
TABLES
  0
TABLE
  2
VPORT
  5
8
330
0
100
AcDbSymbolTable
 70
    1
  0
VPORT
  5
31
330
2
100
AcDbSymbolTableRecord
100
AcDbViewportTableRecord
  2
*ACTIVE
 70
    0
 10
0
 20
0
 11
1
 21
1
 12
19.35923844631893
 22
11.08149511065152
 13
0
 23
0
 14
10
 24
10
 15
10
 25
10
 16
0
 26
0
 36
1
 17
0
 27
0
 37
0
 40
43.79193248546625
 41
1.814634146341463
 42
50
 43
0
 44
0
 50
0
 51
0
 71
    0
 72
  100
 73
    1
 74
    3
 75
    0
 76
    1
 77
    0
 78
    0
281
    0
 65
    1
110
0
120
0
130
0
111
1
121
0
131
0
112
0
122
1
132
0
 79
    0
146
0
348
10020
 60
    7
 61
    5
292
1
282
    1
141
0
142
0
 63
  250
421
3358443
  0
ENDTAB
  0
TABLE
  2
LTYPE
  5
5
330
0
100
AcDbSymbolTable
 70
    4
  0
LTYPE
  5
14
330
5
100
AcDbSymbolTableRecord
100
AcDbLinetypeTableRecord
  2
ByBlock
 70
    0
  3

 72
   65
 73
    0
 40
0
  0
LTYPE
  5
15
330
5
100
AcDbSymbolTableRecord
100
AcDbLinetypeTableRecord
  2
ByLayer
 70
    0
  3

 72
   65
 73
    0
 40
0
  0
LTYPE
  5
16
330
5
100
AcDbSymbolTableRecord
100
AcDbLinetypeTableRecord
  2
Continuous
 70
    0
  3
Solid line
 72
   65
 73
    0
 40
0
  0
LTYPE
  5
32
330
5
100
AcDbSymbolTableRecord
100
AcDbLinetypeTableRecord
  2
DOT
 70
    0
  3
Dot . . . . . . . . . . . . . . . . . . . . . .
 72
   65
 73
    2
 40
6.35
 49
0
 74
    0
 49
-6.35
 74
    0
  0
LTYPE
  5
33
330
5
100
AcDbSymbolTableRecord
100
AcDbLinetypeTableRecord
  2
DOTTINY
 70
    0
  3
Dot (.15x) .....................................
 72
   65
 73
    2
 40
0.9525
 49
0
 74
    0
 49
-0.9525
 74
    0
  0
LTYPE
  5
34
330
5
100
AcDbSymbolTableRecord
100
AcDbLinetypeTableRecord
  2
DOT2
 70
    0
  3
Dot (.5x) .....................................
 72
   65
 73
    2
 40
3.175
 49
0
 74
    0
 49
-3.175
 74
    0
  0
LTYPE
  5
35
330
5
100
AcDbSymbolTableRecord
100
AcDbLinetypeTableRecord
  2
DOTX2
 70
    0
  3
Dot (2x) .  .  .  .  .  .  .  .  .  .  .  .  .
 72
   65
 73
    2
 40
12.7
 49
0
 74
    0
 49
-12.7
 74
    0
  0
LTYPE
  5
36
330
5
100
AcDbSymbolTableRecord
100
AcDbLinetypeTableRecord
  2
DASHED
 70
    0
  3
Dashed _ _ _ _ _ _ _ _ _ _ _ _ _ _ _ _ _
 72
   65
 73
    2
 40
19.05
 49
12.7
 74
    0
 49
-6.35
 74
    0
  0
LTYPE
  5
37
330
5
100
AcDbSymbolTableRecord
100
AcDbLinetypeTableRecord
  2
DASHEDTINY
 70
    0
  3
Dashed (.15x) _ _ _ _ _ _ _ _ _ _ _ _ _ _ _ _ _
 72
   65
 73
    2
 40
2.8575
 49
1.905
 74
    0
 49
-0.9525
 74
    0
  0
LTYPE
  5
38
330
5
100
AcDbSymbolTableRecord
100
AcDbLinetypeTableRecord
  2
DASHED2
 70
    0
  3
Dashed (.5x) _ _ _ _ _ _ _ _ _ _ _ _ _ _ _ _ _
 72
   65
 73
    2
 40
9.524999999999999
 49
6.35
 74
    0
 49
-3.175
 74
    0
  0
LTYPE
  5
39
330
5
100
AcDbSymbolTableRecord
100
AcDbLinetypeTableRecord
  2
DASHEDX2
 70
    0
  3
Dashed (2x) ____  ____  ____  ____  ____  ___
 72
   65
 73
    2
 40
38.09999999999999
 49
25.4
 74
    0
 49
-12.7
 74
    0
  0
LTYPE
  5
3A
330
5
100
AcDbSymbolTableRecord
100
AcDbLinetypeTableRecord
  2
DASHDOT
 70
    0
  3
Dash dot __ . __ . __ . __ . __ . __ . __ . __
 72
   65
 73
    4
 40
25.4
 49
12.7
 74
    0
 49
-6.35
 74
    0
 49
0
 74
    0
 49
-6.35
 74
    0
  0
LTYPE
  5
3B
330
5
100
AcDbSymbolTableRecord
100
AcDbLinetypeTableRecord
  2
DASHDOTTINY
 70
    0
  3
Dash dot (.15x) _._._._._._._._._._._._._._._.
 72
   65
 73
    4
 40
3.81
 49
1.905
 74
    0
 49
-0.9525
 74
    0
 49
0
 74
    0
 49
-0.9525
 74
    0
  0
LTYPE
  5
3C
330
5
100
AcDbSymbolTableRecord
100
AcDbLinetypeTableRecord
  2
DASHDOT2
 70
    0
  3
Dash dot (.5x) _._._._._._._._._._._._._._._.
 72
   65
 73
    4
 40
12.7
 49
6.35
 74
    0
 49
-3.175
 74
    0
 49
0
 74
    0
 49
-3.175
 74
    0
  0
LTYPE
  5
3D
330
5
100
AcDbSymbolTableRecord
100
AcDbLinetypeTableRecord
  2
DASHDOTX2
 70
    0
  3
Dash dot (2x) ____  .  ____  .  ____  .  ___
 72
   65
 73
    4
 40
50.8
 49
25.4
 74
    0
 49
-12.7
 74
    0
 49
0
 74
    0
 49
-12.7
 74
    0
  0
LTYPE
  5
3E
330
5
100
AcDbSymbolTableRecord
100
AcDbLinetypeTableRecord
  2
DIVIDE
 70
    0
  3
Divide ____ . . ____ . . ____ . . ____ . . ____
 72
   65
 73
    6
 40
31.75
 49
12.7
 74
    0
 49
-6.35
 74
    0
 49
0
 74
    0
 49
-6.35
 74
    0
 49
0
 74
    0
 49
-6.35
 74
    0
  0
LTYPE
  5
3F
330
5
100
AcDbSymbolTableRecord
100
AcDbLinetypeTableRecord
  2
DIVIDETINY
 70
    0
  3
Divide (.15x) __..__..__..__..__..__..__..__.._
 72
   65
 73
    6
 40
4.7625
 49
1.905
 74
    0
 49
-0.9525
 74
    0
 49
0
 74
    0
 49
-0.9525
 74
    0
 49
0
 74
    0
 49
-0.9525
 74
    0
  0
LTYPE
  5
40
330
5
100
AcDbSymbolTableRecord
100
AcDbLinetypeTableRecord
  2
DIVIDE2
 70
    0
  3
Divide (.5x) __..__..__..__..__..__..__..__.._
 72
   65
 73
    6
 40
15.875
 49
6.35
 74
    0
 49
-3.175
 74
    0
 49
0
 74
    0
 49
-3.175
 74
    0
 49
0
 74
    0
 49
-3.175
 74
    0
  0
LTYPE
  5
41
330
5
100
AcDbSymbolTableRecord
100
AcDbLinetypeTableRecord
  2
DIVIDEX2
 70
    0
  3
Divide (2x) ________  .  .  ________  .  .  _
 72
   65
 73
    6
 40
63.5
 49
25.4
 74
    0
 49
-12.7
 74
    0
 49
0
 74
    0
 49
-12.7
 74
    0
 49
0
 74
    0
 49
-12.7
 74
    0
  0
LTYPE
  5
42
330
5
100
AcDbSymbolTableRecord
100
AcDbLinetypeTableRecord
  2
BORDER
 70
    0
  3
Border __ __ . __ __ . __ __ . __ __ . __ __ .
 72
   65
 73
    6
 40
44.45
 49
12.7
 74
    0
 49
-6.35
 74
    0
 49
12.7
 74
    0
 49
-6.35
 74
    0
 49
0
 74
    0
 49
-6.35
 74
    0
  0
LTYPE
  5
43
330
5
100
AcDbSymbolTableRecord
100
AcDbLinetypeTableRecord
  2
BORDERTINY
 70
    0
  3
Border (.15x) __.__.__.__.__.__.__.__.__.__.__.
 72
   65
 73
    6
 40
6.6675
 49
1.905
 74
    0
 49
-0.9525
 74
    0
 49
1.905
 74
    0
 49
-0.9525
 74
    0
 49
0
 74
    0
 49
-0.9525
 74
    0
  0
LTYPE
  5
44
330
5
100
AcDbSymbolTableRecord
100
AcDbLinetypeTableRecord
  2
BORDER2
 70
    0
  3
Border (.5x) __.__.__.__.__.__.__.__.__.__.__.
 72
   65
 73
    6
 40
22.225
 49
6.35
 74
    0
 49
-3.175
 74
    0
 49
6.35
 74
    0
 49
-3.175
 74
    0
 49
0
 74
    0
 49
-3.175
 74
    0
  0
LTYPE
  5
45
330
5
100
AcDbSymbolTableRecord
100
AcDbLinetypeTableRecord
  2
BORDERX2
 70
    0
  3
Border (2x) ____  ____  .  ____  ____  .  ___
 72
   65
 73
    6
 40
88.89999999999999
 49
25.4
 74
    0
 49
-12.7
 74
    0
 49
25.4
 74
    0
 49
-12.7
 74
    0
 49
0
 74
    0
 49
-12.7
 74
    0
  0
LTYPE
  5
46
330
5
100
AcDbSymbolTableRecord
100
AcDbLinetypeTableRecord
  2
CENTER
 70
    0
  3
Center ____ _ ____ _ ____ _ ____ _ ____ _ ____
 72
   65
 73
    4
 40
50.8
 49
31.75
 74
    0
 49
-6.35
 74
    0
 49
6.35
 74
    0
 49
-6.35
 74
    0
  0
LTYPE
  5
47
330
5
100
AcDbSymbolTableRecord
100
AcDbLinetypeTableRecord
  2
CENTERTINY
 70
    0
  3
Center (.15x) ___ _ ___ _ ___ _ ___ _ ___ _ ___
 72
   65
 73
    4
 40
7.619999999999999
 49
4.7625
 74
    0
 49
-0.9525
 74
    0
 49
0.9525
 74
    0
 49
-0.9525
 74
    0
  0
LTYPE
  5
48
330
5
100
AcDbSymbolTableRecord
100
AcDbLinetypeTableRecord
  2
CENTER2
 70
    0
  3
Center (.5x) ___ _ ___ _ ___ _ ___ _ ___ _ ___
 72
   65
 73
    4
 40
28.575
 49
19.05
 74
    0
 49
-3.175
 74
    0
 49
3.175
 74
    0
 49
-3.175
 74
    0
  0
LTYPE
  5
49
330
5
100
AcDbSymbolTableRecord
100
AcDbLinetypeTableRecord
  2
CENTERX2
 70
    0
  3
Center (2x) ________  __  ________  __  _____
 72
   65
 73
    4
 40
101.6
 49
63.5
 74
    0
 49
-12.7
 74
    0
 49
12.7
 74
    0
 49
-12.7
 74
    0
  0
ENDTAB
  0
TABLE
  2
LAYER
  5
2
330
0
100
AcDbSymbolTable
 70
    1
  0
LAYER
  5
10
330
2
100
AcDbSymbolTableRecord
100
AcDbLayerTableRecord
  2
0
 70
    0
 62
    7
  6
CONTINUOUS
370
   18
390
F
  0
LAYER
  5
4A
330
2
100
AcDbSymbolTableRecord
100
AcDbLayerTableRecord
  2
[BlocksDimn]
 70
    0
 62
    7
  6
CONTINUOUS
370
    0
390
F
  0
ENDTAB
  0
TABLE
  2
STYLE
  5
3
330
0
100
AcDbSymbolTable
 70
    3
  0
STYLE
  5
4B
330
2
100
AcDbSymbolTableRecord
100
AcDbTextStyleTableRecord
  2
Standard
 70
    0
 40
0
 41
1
 50
0
 71
    0
 42
1
  3
txt
  4

  0
ENDTAB
  0
TABLE
  2
VIEW
  5
6
330
0
100
AcDbSymbolTable
 70
    0
  0
ENDTAB
  0
TABLE
  2
UCS
  5
7
330
0
100
AcDbSymbolTable
 70
    0
  0
ENDTAB
  0
TABLE
  2
APPID
  5
9
330
0
100
AcDbSymbolTable
 70
    1
  0
APPID
  5
12
330
9
100
AcDbSymbolTableRecord
100
AcDbRegAppTableRecord
  2
ACAD
 70
    0
  0
APPID
  5
4C
330
9
100
AcDbSymbolTableRecord
100
AcDbRegAppTableRecord
  2
LibreCad
 70
    0
  0
ENDTAB
  0
TABLE
  2
DIMSTYLE
  5
A
330
0
100
AcDbSymbolTable
 70
    1
100
AcDbDimStyleTable
 71
    1
  0
DIMSTYLE
105
4D
330
A
100
AcDbSymbolTableRecord
100
AcDbDimStyleTableRecord
  2
Standard
 70
    0
 40
1
 41
0.09375
 42
0.03125
 43
0.38
 44
0.0625
 45
0
 46
0
 47
0
 48
0
 49
1
140
0.09375
141
0.09
142
0
143
25.4
144
1
145
0
146
1
147
0.03125
148
0
 71
    0
 72
    0
 73
    0
 74
    1
 75
    0
 76
    0
 77
    0
 78
    8
 79
    0
170
    0
171
    2
172
    0
173
    0
174
    0
175
    0
176
    0
177
    0
178
    0
179
    1
271
    5
272
    4
273
    2
274
    2
275
    0
276
    0
277
    5
278
   44
279
    0
280
    0
281
    0
282
    0
283
    1
284
    0
285
    0
286
    0
288
    0
289
    3
340
romanc
341

371
   -2
372
   -2
  0
ENDTAB
  0
TABLE
  2
BLOCK_RECORD
  5
1
330
0
100
AcDbSymbolTable
 70
    2
  0
BLOCK_RECORD
  5
1F
330
1
100
AcDbSymbolTableRecord
100
AcDbBlockTableRecord
  2
*Model_Space
 70
    0
280
    1
281
    0
  0
BLOCK_RECORD
  5
1E
330
1
100
AcDbSymbolTableRecord
100
AcDbBlockTableRecord
  2
*Paper_Space
 70
    0
280
    1
281
    0
  0
ENDTAB
  0
ENDSEC
  0
SECTION
  2
BLOCKS
  0
BLOCK
  5
20
330
1F
100
AcDbEntity
  8
0
100
AcDbBlockBegin
  2
*Model_Space
 70
    0
 10
0
 20
0
 30
0
  3
*Model_Space
  1

  0
ENDBLK
  5
21
330
1F
100
AcDbEntity
  8
0
100
AcDbBlockEnd
  0
BLOCK
  5
1C
330
1B
100
AcDbEntity
  8
0
100
AcDbBlockBegin
  2
*Paper_Space
 70
    0
 10
0
 20
0
 30
0
  3
*Paper_Space
  1

  0
ENDBLK
  5
1D
330
1F
100
AcDbEntity
  8
0
100
AcDbBlockEnd
  0
ENDSEC
  0
SECTION
  2
ENTITIES
  0
LWPOLYLINE
  5
4E
100
AcDbEntity
  8
0
  6
ByLayer
 62
  256
370
   -1
100
AcDbPolyline
 90
   57
 70
    0
 43
0
 10
-4.07867704999431
 20
7.086701374365113
 10
-4.129660513119239
 20
7.035717911240185
 10
-4.231627439369096
 20
7.035717911240185
 10
-4.282610902494025
 20
7.035717911240185
 10
-4.384577828743883
 20
7.035717911240185
 10
-4.435561291868812
 20
7.035717911240185
 10
-4.486544754993741
 20
6.984734448115256
 10
-4.53752821811867
 20
6.984734448115256
 10
-4.588511681243599
 20
6.984734448115256
 10
-4.639495144368527
 20
6.933750984990326
 10
-4.690478607493456
 20
6.933750984990326
 10
-4.741462070618385
 20
6.933750984990326
 10
-4.792445533743314
 20
6.882767521865397
 10
-4.894412459993172
 20
6.882767521865397
 10
-4.945395923118101
 20
6.882767521865397
 10
-5.047362849367959
 20
6.831784058740469
 10
-5.098346312492887
 20
6.831784058740469
 10
-5.149329775617816
 20
6.78080059561554
 10
-5.200313238742745
 20
6.78080059561554
 10
-5.251296701867674
 20
6.72981713249061
 10
-5.302280164992602
 20
6.678833669365682
 10
-5.353263628117531
 20
6.678833669365682
 10
-5.40424709124246
 20
6.627850206240754
 10
-5.506214017492319
 20
6.627850206240754
 10
-5.557197480617247
 20
6.576866743115825
 10
-5.659164406867105
 20
6.576866743115825
 10
-5.710147869992034
 20
6.525883279990896
 10
-5.812114796241891
 20
6.474899816865967
 10
-5.914081722491749
 20
6.474899816865967
 10
-6.016048648741608
 20
6.423916353741038
 10
-6.118015574991465
 20
6.372932890616108
 10
-6.219982501241323
 20
6.372932890616108
 10
-6.32194942749118
 20
6.32194942749118
 10
-6.372932890616108
 20
6.32194942749118
 10
-6.423916353741038
 20
6.270965964366251
 10
-6.474899816865967
 20
6.270965964366251
 10
-6.525883279990896
 20
6.219982501241323
 10
-6.525883279990896
 20
6.168999038116393
 10
-6.576866743115825
 20
6.168999038116393
 10
-6.576866743115825
 20
6.118015574991465
 10
-6.627850206240754
 20
6.118015574991465
 10
-6.627850206240754
 20
6.067032111866536
 10
-6.627850206240754
 20
6.016048648741608
 10
-6.576866743115825
 20
6.016048648741608
 10
-6.525883279990896
 20
5.965065185616678
 10
-6.474899816865967
 20
5.914081722491749
 10
-6.423916353741038
 20
5.914081722491749
 10
-6.372932890616108
 20
5.86309825936682
 10
-6.32194942749118
 20
5.86309825936682
 10
-6.32194942749118
 20
5.812114796241891
 10
-6.270965964366251
 20
5.812114796241891
 10
-6.219982501241323
 20
5.812114796241891
 10
-6.219982501241323
 20
5.761131333116962
 10
-6.219982501241323
 20
5.710147869992034
 10
-6.270965964366251
 20
5.710147869992034
 10
-6.270965964366251
 20
5.659164406867105
 10
-6.32194942749118
 20
5.659164406867105
  0
LWPOLYLINE
  5
4F
100
AcDbEntity
  8
0
  6
ByLayer
 62
  256
370
   -1
100
AcDbPolyline
 90
   60
 70
    0
 43
0
 10
1.937371598747297
 20
4.690478607493456
 10
1.886388135622368
 20
4.741462070618385
 10
1.886388135622368
 20
4.792445533743314
 10
1.937371598747297
 20
4.843428996868242
 10
1.937371598747297
 20
4.894412459993172
 10
1.988355061872226
 20
4.894412459993172
 10
2.039338524997155
 20
4.945395923118101
 10
2.090321988122084
 20
4.945395923118101
 10
2.090321988122084
 20
4.99637938624303
 10
2.141305451247013
 20
4.99637938624303
 10
2.192288914371941
 20
4.99637938624303
 10
2.24327237749687
 20
5.047362849367959
 10
2.294255840621799
 20
5.047362849367959
 10
2.345239303746728
 20
5.047362849367959
 10
2.396222766871657
 20
5.098346312492887
 10
2.498189693121515
 20
5.098346312492887
 10
2.549173156246443
 20
5.149329775617816
 10
2.651140082496301
 20
5.200313238742745
 10
2.70212354562123
 20
5.200313238742745
 10
2.804090471871088
 20
5.251296701867674
 10
2.855073934996017
 20
5.251296701867674
 10
2.906057398120946
 20
5.251296701867674
 10
2.957040861245875
 20
5.302280164992602
 10
3.008024324370804
 20
5.302280164992602
 10
3.059007787495732
 20
5.302280164992602
 10
3.109991250620662
 20
5.302280164992602
 10
3.16097471374559
 20
5.302280164992602
 10
3.211958176870519
 20
5.302280164992602
 10
3.262941639995448
 20
5.353263628117531
 10
3.364908566245305
 20
5.353263628117531
 10
3.466875492495163
 20
5.353263628117531
 10
3.568842418745021
 20
5.353263628117531
 10
3.61982588186995
 20
5.40424709124246
 10
3.721792808119807
 20
5.40424709124246
 10
3.772776271244737
 20
5.40424709124246
 10
3.823759734369665
 20
5.40424709124246
 10
3.874743197494595
 20
5.40424709124246
 10
3.925726660619523
 20
5.40424709124246
 10
3.976710123744452
 20
5.353263628117531
 10
4.027693586869381
 20
5.353263628117531
 10
4.07867704999431
 20
5.353263628117531
 10
4.180643976244167
 20
5.302280164992602
 10
4.231627439369096
 20
5.302280164992602
 10
4.282610902494025
 20
5.302280164992602
 10
4.333594365618954
 20
5.251296701867674
 10
4.384577828743883
 20
5.251296701867674
 10
4.435561291868812
 20
5.251296701867674
 10
4.486544754993741
 20
5.251296701867674
 10
4.53752821811867
 20
5.251296701867674
 10
4.588511681243599
 20
5.302280164992602
 10
4.639495144368527
 20
5.302280164992602
 10
4.690478607493456
 20
5.353263628117531
 10
4.741462070618385
 20
5.353263628117531
 10
4.792445533743314
 20
5.353263628117531
 10
4.792445533743314
 20
5.40424709124246
 10
4.843428996868242
 20
5.40424709124246
 10
4.894412459993172
 20
5.40424709124246
 10
4.894412459993172
 20
5.455230554367389
 10
4.945395923118101
 20
5.455230554367389
 10
4.99637938624303
 20
5.506214017492319
  0
LWPOLYLINE
  5
50
100
AcDbEntity
  8
0
  6
ByLayer
 62
  256
370
   -1
100
AcDbPolyline
 90
    3
 70
    0
 43
0
 10
1.274586578123222
 20
8.15735409998862
 10
1.223603114998293
 20
8.208337563113547
 10
1.172619651873364
 20
8.208337563113547
  0
LWPOLYLINE
  5
51
100
AcDbEntity
  8
0
  6
ByLayer
 62
  256
370
   -1
100
AcDbPolyline
 90
   71
 70
    0
 43
0
 10
-4.282610902494025
 20
5.86309825936682
 10
-4.231627439369096
 20
5.86309825936682
 10
-4.231627439369096
 20
5.914081722491749
 10
-4.180643976244167
 20
5.914081722491749
 10
-4.129660513119239
 20
5.965065185616678
 10
-4.07867704999431
 20
5.965065185616678
 10
-4.027693586869381
 20
5.965065185616678
 10
-3.976710123744452
 20
6.016048648741608
 10
-3.874743197494595
 20
6.016048648741608
 10
-3.823759734369665
 20
6.016048648741608
 10
-3.772776271244737
 20
6.016048648741608
 10
-3.670809344994879
 20
6.016048648741608
 10
-3.61982588186995
 20
6.067032111866536
 10
-3.517858955620092
 20
6.067032111866536
 10
-3.466875492495163
 20
6.067032111866536
 10
-3.364908566245305
 20
6.067032111866536
 10
-3.313925103120377
 20
6.067032111866536
 10
-3.211958176870519
 20
6.118015574991465
 10
-3.109991250620662
 20
6.118015574991465
 10
-3.008024324370804
 20
6.118015574991465
 10
-2.906057398120946
 20
6.118015574991465
 10
-2.804090471871088
 20
6.118015574991465
 10
-2.651140082496301
 20
6.118015574991465
 10
-2.549173156246443
 20
6.118015574991465
 10
-2.447206229996586
 20
6.118015574991465
 10
-2.294255840621799
 20
6.118015574991465
 10
-2.192288914371941
 20
6.168999038116393
 10
-2.039338524997155
 20
6.168999038116393
 10
-1.937371598747297
 20
6.168999038116393
 10
-1.83540467249744
 20
6.168999038116393
 10
-1.733437746247581
 20
6.168999038116393
 10
-1.631470819997724
 20
6.168999038116393
 10
-1.529503893747866
 20
6.219982501241323
 10
-1.478520430622937
 20
6.219982501241323
 10
-1.427536967498009
 20
6.219982501241323
 10
-1.37655350437308
 20
6.219982501241323
 10
-1.325570041248151
 20
6.270965964366251
 10
-1.274586578123222
 20
6.270965964366251
 10
-1.223603114998293
 20
6.270965964366251
 10
-1.172619651873364
 20
6.32194942749118
 10
-1.121636188748435
 20
6.32194942749118
 10
-1.019669262498577
 20
6.372932890616108
 10
-0.9686857993736486
 20
6.423916353741038
 10
-0.9177023362487198
 20
6.423916353741038
 10
-0.8667188731237907
 20
6.474899816865967
 10
-0.815735409998862
 20
6.474899816865967
 10
-0.7647519468739331
 20
6.474899816865967
 10
-0.7137684837490043
 20
6.474899816865967
 10
-0.7137684837490043
 20
6.525883279990896
 10
-0.6627850206240753
 20
6.525883279990896
 10
-0.6118015574991464
 20
6.525883279990896
 10
-0.5608180943742176
 20
6.576866743115825
 10
-0.5098346312492887
 20
6.576866743115825
 10
-0.4588511681243599
 20
6.576866743115825
 10
-0.407867704999431
 20
6.627850206240754
 10
-0.3568842418745021
 20
6.627850206240754
 10
-0.3059007787495732
 20
6.627850206240754
 10
-0.2549173156246444
 20
6.627850206240754
 10
-0.1529503893747866
 20
6.627850206240754
 10
-0.1019669262498577
 20
6.627850206240754
 10
-0.05098346312492887
 20
6.627850206240754
 10
0
 20
6.627850206240754
 10
0.05098346312492887
 20
6.627850206240754
 10
0.1019669262498577
 20
6.627850206240754
 10
0.1529503893747866
 20
6.627850206240754
 10
0.2039338524997155
 20
6.627850206240754
 10
0.2549173156246444
 20
6.627850206240754
 10
0.3059007787495732
 20
6.627850206240754
 10
0.3568842418745021
 20
6.678833669365682
 10
0.407867704999431
 20
6.678833669365682
 10
0.4588511681243599
 20
6.678833669365682
  0
LWPOLYLINE
  5
52
100
AcDbEntity
  8
0
  6
ByLayer
 62
  256
370
   -1
100
AcDbPolyline
 90
   68
 70
    0
 43
0
 10
3.008024324370804
 20
3.16097471374559
 10
3.059007787495732
 20
3.16097471374559
 10
3.16097471374559
 20
3.16097471374559
 10
3.211958176870519
 20
3.16097471374559
 10
3.313925103120377
 20
3.109991250620662
 10
3.364908566245305
 20
3.109991250620662
 10
3.415892029370235
 20
3.109991250620662
 10
3.466875492495163
 20
3.059007787495732
 10
3.517858955620092
 20
3.059007787495732
 10
3.568842418745021
 20
3.059007787495732
 10
3.568842418745021
 20
3.008024324370804
 10
3.568842418745021
 20
2.957040861245875
 10
3.568842418745021
 20
2.906057398120946
 10
3.568842418745021
 20
2.855073934996017
 10
3.517858955620092
 20
2.804090471871088
 10
3.517858955620092
 20
2.753107008746159
 10
3.517858955620092
 20
2.70212354562123
 10
3.568842418745021
 20
2.651140082496301
 10
3.568842418745021
 20
2.600156619371373
 10
3.61982588186995
 20
2.549173156246443
 10
3.61982588186995
 20
2.498189693121515
 10
3.670809344994879
 20
2.447206229996586
 10
3.670809344994879
 20
2.396222766871657
 10
3.670809344994879
 20
2.345239303746728
 10
3.670809344994879
 20
2.294255840621799
 10
3.670809344994879
 20
2.24327237749687
 10
3.670809344994879
 20
2.192288914371941
 10
3.670809344994879
 20
2.141305451247013
 10
3.670809344994879
 20
2.090321988122084
 10
3.670809344994879
 20
2.039338524997155
 10
3.670809344994879
 20
1.988355061872226
 10
3.670809344994879
 20
1.937371598747297
 10
3.670809344994879
 20
1.886388135622368
 10
3.670809344994879
 20
1.83540467249744
 10
3.670809344994879
 20
1.784421209372511
 10
3.61982588186995
 20
1.733437746247581
 10
3.61982588186995
 20
1.682454283122653
 10
3.568842418745021
 20
1.631470819997724
 10
3.568842418745021
 20
1.580487356872795
 10
3.568842418745021
 20
1.529503893747866
 10
3.61982588186995
 20
1.478520430622937
 10
3.61982588186995
 20
1.427536967498009
 10
3.670809344994879
 20
1.37655350437308
 10
3.670809344994879
 20
1.325570041248151
 10
3.721792808119807
 20
1.274586578123222
 10
3.670809344994879
 20
1.223603114998293
 10
3.670809344994879
 20
1.172619651873364
 10
3.670809344994879
 20
1.121636188748435
 10
3.61982588186995
 20
1.121636188748435
 10
3.61982588186995
 20
1.070652725623506
 10
3.568842418745021
 20
1.019669262498577
 10
3.568842418745021
 20
0.9686857993736486
 10
3.61982588186995
 20
0.9177023362487198
 10
3.61982588186995
 20
0.8667188731237907
 10
3.670809344994879
 20
0.815735409998862
 10
3.670809344994879
 20
0.7647519468739331
 10
3.721792808119807
 20
0.7647519468739331
 10
3.721792808119807
 20
0.7137684837490043
 10
3.772776271244737
 20
0.6627850206240753
 10
3.772776271244737
 20
0.6118015574991464
 10
3.823759734369665
 20
0.5608180943742176
 10
3.874743197494595
 20
0.5098346312492887
 10
3.925726660619523
 20
0.4588511681243599
 10
3.976710123744452
 20
0.407867704999431
 10
4.027693586869381
 20
0.3568842418745021
 10
3.976710123744452
 20
0.3568842418745021
 10
4.027693586869381
 20
0.3059007787495732
 10
3.976710123744452
 20
0.2549173156246444
  0
LWPOLYLINE
  5
53
100
AcDbEntity
  8
0
  6
ByLayer
 62
  256
370
   -1
100
AcDbPolyline
 90
   35
 70
    0
 43
0
 10
-4.588511681243599
 20
-4.180643976244167
 10
-4.639495144368527
 20
-4.180643976244167
 10
-4.588511681243599
 20
-4.180643976244167
 10
-4.53752821811867
 20
-4.180643976244167
 10
-4.486544754993741
 20
-4.180643976244167
 10
-4.384577828743883
 20
-4.180643976244167
 10
-4.333594365618954
 20
-4.231627439369096
 10
-4.282610902494025
 20
-4.231627439369096
 10
-4.231627439369096
 20
-4.282610902494025
 10
-4.180643976244167
 20
-4.333594365618954
 10
-4.129660513119239
 20
-4.384577828743883
 10
-4.07867704999431
 20
-4.435561291868812
 10
-4.027693586869381
 20
-4.486544754993741
 10
-4.027693586869381
 20
-4.53752821811867
 10
-3.976710123744452
 20
-4.588511681243599
 10
-3.976710123744452
 20
-4.639495144368527
 10
-3.976710123744452
 20
-4.690478607493456
 10
-3.925726660619523
 20
-4.741462070618385
 10
-3.874743197494595
 20
-4.843428996868242
 10
-3.823759734369665
 20
-4.894412459993172
 10
-3.772776271244737
 20
-4.945395923118101
 10
-3.721792808119807
 20
-4.99637938624303
 10
-3.670809344994879
 20
-5.047362849367959
 10
-3.61982588186995
 20
-5.098346312492887
 10
-3.568842418745021
 20
-5.149329775617816
 10
-3.517858955620092
 20
-5.200313238742745
 10
-3.517858955620092
 20
-5.251296701867674
 10
-3.517858955620092
 20
-5.302280164992602
 10
-3.517858955620092
 20
-5.353263628117531
 10
-3.517858955620092
 20
-5.40424709124246
 10
-3.517858955620092
 20
-5.455230554367389
 10
-3.517858955620092
 20
-5.506214017492319
 10
-3.517858955620092
 20
-5.557197480617247
 10
-3.568842418745021
 20
-5.557197480617247
 10
-3.568842418745021
 20
-5.608180943742176
  0
LWPOLYLINE
  5
54
100
AcDbEntity
  8
0
  6
ByLayer
 62
  256
370
   -1
100
AcDbPolyline
 90
  102
 70
    0
 43
0
 10
-3.568842418745021
 20
-7.188668300614971
 10
-3.61982588186995
 20
-7.188668300614971
 10
-3.721792808119807
 20
-7.188668300614971
 10
-3.823759734369665
 20
-7.188668300614971
 10
-3.925726660619523
 20
-7.188668300614971
 10
-4.027693586869381
 20
-7.188668300614971
 10
-4.129660513119239
 20
-7.188668300614971
 10
-4.231627439369096
 20
-7.188668300614971
 10
-4.384577828743883
 20
-7.188668300614971
 10
-4.486544754993741
 20
-7.188668300614971
 10
-4.639495144368527
 20
-7.188668300614971
 10
-4.741462070618385
 20
-7.188668300614971
 10
-4.843428996868242
 20
-7.188668300614971
 10
-4.894412459993172
 20
-7.188668300614971
 10
-4.99637938624303
 20
-7.188668300614971
 10
-5.047362849367959
 20
-7.188668300614971
 10
-5.098346312492887
 20
-7.188668300614971
 10
-5.149329775617816
 20
-7.188668300614971
 10
-5.200313238742745
 20
-7.137684837490043
 10
-5.302280164992602
 20
-7.137684837490043
 10
-5.353263628117531
 20
-7.137684837490043
 10
-5.40424709124246
 20
-7.086701374365113
 10
-5.455230554367389
 20
-7.086701374365113
 10
-5.506214017492319
 20
-7.035717911240185
 10
-5.557197480617247
 20
-6.984734448115256
 10
-5.659164406867105
 20
-6.984734448115256
 10
-5.710147869992034
 20
-6.933750984990326
 10
-5.761131333116962
 20
-6.882767521865397
 10
-5.812114796241891
 20
-6.831784058740469
 10
-5.86309825936682
 20
-6.831784058740469
 10
-5.914081722491749
 20
-6.78080059561554
 10
-5.965065185616678
 20
-6.72981713249061
 10
-6.016048648741608
 20
-6.678833669365682
 10
-6.067032111866536
 20
-6.627850206240754
 10
-6.168999038116393
 20
-6.627850206240754
 10
-6.219982501241323
 20
-6.576866743115825
 10
-6.270965964366251
 20
-6.525883279990896
 10
-6.372932890616108
 20
-6.474899816865967
 10
-6.423916353741038
 20
-6.423916353741038
 10
-6.576866743115825
 20
-6.372932890616108
 10
-6.678833669365682
 20
-6.32194942749118
 10
-6.78080059561554
 20
-6.32194942749118
 10
-6.882767521865397
 20
-6.270965964366251
 10
-6.933750984990326
 20
-6.219982501241323
 10
-7.035717911240185
 20
-6.168999038116393
 10
-7.086701374365113
 20
-6.118015574991465
 10
-7.137684837490043
 20
-6.067032111866536
 10
-7.188668300614971
 20
-6.016048648741608
 10
-7.2396517637399
 20
-5.965065185616678
 10
-7.2396517637399
 20
-5.914081722491749
 10
-7.2396517637399
 20
-5.86309825936682
 10
-7.290635226864828
 20
-5.812114796241891
 10
-7.341618689989758
 20
-5.761131333116962
 10
-7.341618689989758
 20
-5.710147869992034
 10
-7.392602153114686
 20
-5.659164406867105
 10
-7.392602153114686
 20
-5.608180943742176
 10
-7.392602153114686
 20
-5.557197480617247
 10
-7.392602153114686
 20
-5.506214017492319
 10
-7.341618689989758
 20
-5.455230554367389
 10
-7.341618689989758
 20
-5.40424709124246
 10
-7.290635226864828
 20
-5.302280164992602
 10
-7.290635226864828
 20
-5.251296701867674
 10
-7.2396517637399
 20
-5.200313238742745
 10
-7.188668300614971
 20
-5.149329775617816
 10
-7.137684837490043
 20
-5.098346312492887
 10
-7.137684837490043
 20
-5.047362849367959
 10
-7.086701374365113
 20
-4.99637938624303
 10
-7.086701374365113
 20
-4.945395923118101
 10
-7.035717911240185
 20
-4.894412459993172
 10
-7.035717911240185
 20
-4.843428996868242
 10
-6.984734448115256
 20
-4.792445533743314
 10
-6.984734448115256
 20
-4.741462070618385
 10
-6.984734448115256
 20
-4.690478607493456
 10
-6.984734448115256
 20
-4.639495144368527
 10
-7.035717911240185
 20
-4.588511681243599
 10
-7.035717911240185
 20
-4.53752821811867
 10
-7.035717911240185
 20
-4.486544754993741
 10
-7.035717911240185
 20
-4.435561291868812
 10
-7.035717911240185
 20
-4.384577828743883
 10
-7.035717911240185
 20
-4.333594365618954
 10
-7.035717911240185
 20
-4.282610902494025
 10
-7.035717911240185
 20
-4.231627439369096
 10
-7.035717911240185
 20
-4.180643976244167
 10
-7.086701374365113
 20
-4.180643976244167
 10
-7.086701374365113
 20
-4.129660513119239
 10
-7.086701374365113
 20
-4.07867704999431
 10
-7.086701374365113
 20
-4.027693586869381
 10
-7.137684837490043
 20
-4.027693586869381
 10
-7.137684837490043
 20
-3.976710123744452
 10
-7.137684837490043
 20
-3.925726660619523
 10
-7.137684837490043
 20
-3.874743197494595
 10
-7.137684837490043
 20
-3.823759734369665
 10
-7.137684837490043
 20
-3.772776271244737
 10
-7.137684837490043
 20
-3.721792808119807
 10
-7.137684837490043
 20
-3.670809344994879
 10
-7.137684837490043
 20
-3.61982588186995
 10
-7.086701374365113
 20
-3.568842418745021
 10
-7.137684837490043
 20
-3.517858955620092
 10
-7.188668300614971
 20
-3.466875492495163
 10
-7.2396517637399
 20
-3.466875492495163
 10
-7.290635226864828
 20
-3.415892029370235
 10
-7.341618689989758
 20
-3.415892029370235
  0
LWPOLYLINE
  5
55
100
AcDbEntity
  8
0
  6
ByLayer
 62
  256
370
   -1
100
AcDbPolyline
 90
   90
 70
    0
 43
0
 10
-9.329973751861983
 20
0.7137684837490043
 10
-9.380957214986912
 20
0.7137684837490043
 10
-9.329973751861983
 20
0.7137684837490043
 10
-9.278990288737054
 20
0.7137684837490043
 10
-9.329973751861983
 20
0.7647519468739331
 10
-9.380957214986912
 20
0.815735409998862
 10
-9.431940678111841
 20
0.815735409998862
 10
-9.48292414123677
 20
0.8667188731237907
 10
-9.48292414123677
 20
0.9177023362487198
 10
-9.48292414123677
 20
0.9686857993736486
 10
-9.431940678111841
 20
1.019669262498577
 10
-9.380957214986912
 20
1.070652725623506
 10
-9.329973751861983
 20
1.070652725623506
 10
-9.329973751861983
 20
1.121636188748435
 10
-9.278990288737054
 20
1.121636188748435
 10
-9.228006825612127
 20
1.172619651873364
 10
-9.177023362487198
 20
1.172619651873364
 10
-9.177023362487198
 20
1.223603114998293
 10
-9.126039899362267
 20
1.223603114998293
 10
-9.07505643623734
 20
1.223603114998293
 10
-9.024072973112411
 20
1.274586578123222
 10
-8.922106046862552
 20
1.325570041248151
 10
-8.871122583737623
 20
1.325570041248151
 10
-8.820139120612696
 20
1.325570041248151
 10
-8.820139120612696
 20
1.37655350437308
 10
-8.769155657487765
 20
1.37655350437308
 10
-8.718172194362836
 20
1.427536967498009
 10
-8.667188731237909
 20
1.427536967498009
 10
-8.667188731237909
 20
1.478520430622937
 10
-8.61620526811298
 20
1.529503893747866
 10
-8.565221804988051
 20
1.580487356872795
 10
-8.565221804988051
 20
1.631470819997724
 10
-8.61620526811298
 20
1.682454283122653
 10
-8.667188731237909
 20
1.733437746247581
 10
-8.718172194362836
 20
1.784421209372511
 10
-8.769155657487765
 20
1.784421209372511
 10
-8.820139120612696
 20
1.83540467249744
 10
-8.871122583737623
 20
1.83540467249744
 10
-8.922106046862552
 20
1.886388135622368
 10
-8.973089509987481
 20
1.937371598747297
 10
-9.024072973112411
 20
1.988355061872226
 10
-9.024072973112411
 20
2.039338524997155
 10
-9.07505643623734
 20
2.039338524997155
 10
-9.07505643623734
 20
2.090321988122084
 10
-9.126039899362267
 20
2.090321988122084
 10
-9.126039899362267
 20
2.141305451247013
 10
-9.177023362487198
 20
2.141305451247013
 10
-9.177023362487198
 20
2.192288914371941
 10
-9.177023362487198
 20
2.24327237749687
 10
-9.228006825612127
 20
2.294255840621799
 10
-9.228006825612127
 20
2.345239303746728
 10
-9.228006825612127
 20
2.396222766871657
 10
-9.228006825612127
 20
2.447206229996586
 10
-9.228006825612127
 20
2.498189693121515
 10
-9.228006825612127
 20
2.549173156246443
 10
-9.228006825612127
 20
2.600156619371373
 10
-9.228006825612127
 20
2.651140082496301
 10
-9.228006825612127
 20
2.70212354562123
 10
-9.177023362487198
 20
2.753107008746159
 10
-9.177023362487198
 20
2.804090471871088
 10
-9.126039899362267
 20
2.804090471871088
 10
-9.126039899362267
 20
2.855073934996017
 10
-9.07505643623734
 20
2.906057398120946
 10
-9.07505643623734
 20
2.957040861245875
 10
-9.024072973112411
 20
2.957040861245875
 10
-9.024072973112411
 20
3.008024324370804
 10
-8.973089509987481
 20
3.059007787495732
 10
-8.973089509987481
 20
3.109991250620662
 10
-8.922106046862552
 20
3.109991250620662
 10
-8.922106046862552
 20
3.16097471374559
 10
-8.922106046862552
 20
3.211958176870519
 10
-8.922106046862552
 20
3.262941639995448
 10
-8.922106046862552
 20
3.313925103120377
 10
-8.922106046862552
 20
3.364908566245305
 10
-8.871122583737623
 20
3.415892029370235
 10
-8.871122583737623
 20
3.466875492495163
 10
-8.871122583737623
 20
3.517858955620092
 10
-8.871122583737623
 20
3.568842418745021
 10
-8.820139120612696
 20
3.568842418745021
 10
-8.820139120612696
 20
3.61982588186995
 10
-8.769155657487765
 20
3.670809344994879
 10
-8.769155657487765
 20
3.721792808119807
 10
-8.718172194362836
 20
3.721792808119807
 10
-8.718172194362836
 20
3.772776271244737
 10
-8.667188731237909
 20
3.772776271244737
 10
-8.667188731237909
 20
3.823759734369665
 10
-8.667188731237909
 20
3.874743197494595
 10
-8.718172194362836
 20
3.874743197494595
 10
-8.718172194362836
 20
3.925726660619523
 10
-8.718172194362836
 20
3.976710123744452
  0
LWPOLYLINE
  5
56
100
AcDbEntity
  8
0
  6
ByLayer
 62
  256
370
   -1
100
AcDbPolyline
 90
   81
 70
    0
 43
0
 10
-7.290635226864828
 20
-3.16097471374559
 10
-7.341618689989758
 20
-3.211958176870519
 10
-7.392602153114686
 20
-3.211958176870519
 10
-7.443585616239615
 20
-3.211958176870519
 10
-7.494569079364544
 20
-3.211958176870519
 10
-7.545552542489474
 20
-3.211958176870519
 10
-7.596536005614402
 20
-3.211958176870519
 10
-7.64751946873933
 20
-3.211958176870519
 10
-7.69850293186426
 20
-3.211958176870519
 10
-7.749486394989189
 20
-3.211958176870519
 10
-7.800469858114117
 20
-3.16097471374559
 10
-7.851453321239045
 20
-3.16097471374559
 10
-7.902436784363975
 20
-3.109991250620662
 10
-7.902436784363975
 20
-3.059007787495732
 10
-7.902436784363975
 20
-3.008024324370804
 10
-7.902436784363975
 20
-2.957040861245875
 10
-7.902436784363975
 20
-2.906057398120946
 10
-7.851453321239045
 20
-2.855073934996017
 10
-7.851453321239045
 20
-2.804090471871088
 10
-7.800469858114117
 20
-2.753107008746159
 10
-7.800469858114117
 20
-2.70212354562123
 10
-7.800469858114117
 20
-2.651140082496301
 10
-7.749486394989189
 20
-2.600156619371373
 10
-7.749486394989189
 20
-2.549173156246443
 10
-7.749486394989189
 20
-2.498189693121515
 10
-7.749486394989189
 20
-2.447206229996586
 10
-7.749486394989189
 20
-2.396222766871657
 10
-7.749486394989189
 20
-2.345239303746728
 10
-7.800469858114117
 20
-2.24327237749687
 10
-7.800469858114117
 20
-2.192288914371941
 10
-7.851453321239045
 20
-2.141305451247013
 10
-7.902436784363975
 20
-2.090321988122084
 10
-7.902436784363975
 20
-2.039338524997155
 10
-8.004403710613833
 20
-2.039338524997155
 10
-8.004403710613833
 20
-1.988355061872226
 10
-8.055387173738762
 20
-1.988355061872226
 10
-8.106370636863691
 20
-1.937371598747297
 10
-8.15735409998862
 20
-1.886388135622368
 10
-8.208337563113547
 20
-1.886388135622368
 10
-8.208337563113547
 20
-1.83540467249744
 10
-8.259321026238478
 20
-1.784421209372511
 10
-8.259321026238478
 20
-1.733437746247581
 10
-8.259321026238478
 20
-1.682454283122653
 10
-8.259321026238478
 20
-1.631470819997724
 10
-8.259321026238478
 20
-1.580487356872795
 10
-8.208337563113547
 20
-1.478520430622937
 10
-8.208337563113547
 20
-1.427536967498009
 10
-8.15735409998862
 20
-1.37655350437308
 10
-8.15735409998862
 20
-1.325570041248151
 10
-8.106370636863691
 20
-1.274586578123222
 10
-8.106370636863691
 20
-1.223603114998293
 10
-8.106370636863691
 20
-1.172619651873364
 10
-8.106370636863691
 20
-1.121636188748435
 10
-8.106370636863691
 20
-1.070652725623506
 10
-8.106370636863691
 20
-1.019669262498577
 10
-8.106370636863691
 20
-0.9686857993736486
 10
-8.106370636863691
 20
-0.9177023362487198
 10
-8.106370636863691
 20
-0.8667188731237907
 10
-8.106370636863691
 20
-0.815735409998862
 10
-8.106370636863691
 20
-0.7647519468739331
 10
-8.106370636863691
 20
-0.7137684837490043
 10
-8.15735409998862
 20
-0.6627850206240753
 10
-8.15735409998862
 20
-0.6118015574991464
 10
-8.15735409998862
 20
-0.5608180943742176
 10
-8.208337563113547
 20
-0.5098346312492887
 10
-8.208337563113547
 20
-0.4588511681243599
 10
-8.208337563113547
 20
-0.407867704999431
 10
-8.208337563113547
 20
-0.3568842418745021
 10
-8.208337563113547
 20
-0.3059007787495732
 10
-8.208337563113547
 20
-0.2549173156246444
 10
-8.208337563113547
 20
-0.2039338524997155
 10
-8.15735409998862
 20
-0.2039338524997155
 10
-8.106370636863691
 20
-0.1529503893747866
 10
-8.106370636863691
 20
-0.1019669262498577
 10
-8.055387173738762
 20
-0.05098346312492887
 10
-8.055387173738762
 20
0
 10
-8.004403710613833
 20
0
 10
-8.004403710613833
 20
0.05098346312492887
 10
-7.953420247488904
 20
0.1019669262498577
 10
-7.902436784363975
 20
0.1529503893747866
 10
-7.902436784363975
 20
0.2549173156246444
  0
LWPOLYLINE
  5
57
100
AcDbEntity
  8
0
  6
ByLayer
 62
  256
370
   -1
100
AcDbPolyline
 90
   42
 70
    0
 43
0
 10
-3.313925103120377
 20
8.412271415613263
 10
-3.313925103120377
 20
8.463254878738192
 10
-3.364908566245305
 20
8.514238341863122
 10
-3.364908566245305
 20
8.565221804988051
 10
-3.262941639995448
 20
8.667188731237909
 10
-3.211958176870519
 20
8.667188731237909
 10
-3.16097471374559
 20
8.667188731237909
 10
-3.109991250620662
 20
8.667188731237909
 10
-3.008024324370804
 20
8.61620526811298
 10
-2.957040861245875
 20
8.61620526811298
 10
-2.855073934996017
 20
8.61620526811298
 10
-2.753107008746159
 20
8.61620526811298
 10
-2.70212354562123
 20
8.61620526811298
 10
-2.600156619371373
 20
8.565221804988051
 10
-2.549173156246443
 20
8.61620526811298
 10
-2.498189693121515
 20
8.565221804988051
 10
-2.447206229996586
 20
8.61620526811298
 10
-2.396222766871657
 20
8.61620526811298
 10
-2.345239303746728
 20
8.61620526811298
 10
-2.294255840621799
 20
8.61620526811298
 10
-2.24327237749687
 20
8.61620526811298
 10
-2.192288914371941
 20
8.667188731237909
 10
-2.090321988122084
 20
8.667188731237909
 10
-2.039338524997155
 20
8.667188731237909
 10
-1.988355061872226
 20
8.718172194362836
 10
-1.886388135622368
 20
8.718172194362836
 10
-1.83540467249744
 20
8.769155657487765
 10
-1.733437746247581
 20
8.769155657487765
 10
-1.682454283122653
 20
8.769155657487765
 10
-1.631470819997724
 20
8.820139120612696
 10
-1.580487356872795
 20
8.820139120612696
 10
-1.529503893747866
 20
8.820139120612696
 10
-1.478520430622937
 20
8.820139120612696
 10
-1.427536967498009
 20
8.820139120612696
 10
-1.37655350437308
 20
8.871122583737623
 10
-1.325570041248151
 20
8.871122583737623
 10
-1.274586578123222
 20
8.871122583737623
 10
-1.223603114998293
 20
8.871122583737623
 10
-1.172619651873364
 20
8.871122583737623
 10
-1.121636188748435
 20
8.871122583737623
 10
-1.121636188748435
 20
8.922106046862552
 10
-1.172619651873364
 20
8.922106046862552
  0
LWPOLYLINE
  5
58
100
AcDbEntity
  8
0
  6
ByLayer
 62
  256
370
   -1
100
AcDbPolyline
 90
   62
 70
    0
 43
0
 10
0.05098346312492887
 20
8.004403710613833
 10
0
 20
7.953420247488904
 10
-0.05098346312492887
 20
7.953420247488904
 10
-0.1019669262498577
 20
7.902436784363975
 10
-0.05098346312492887
 20
7.953420247488904
 10
0
 20
7.953420247488904
 10
0.05098346312492887
 20
8.004403710613833
 10
0.1529503893747866
 20
8.055387173738762
 10
0.2039338524997155
 20
8.055387173738762
 10
0.2549173156246444
 20
8.106370636863691
 10
0.3059007787495732
 20
8.106370636863691
 10
0.3568842418745021
 20
8.15735409998862
 10
0.407867704999431
 20
8.15735409998862
 10
0.4588511681243599
 20
8.15735409998862
 10
0.5098346312492887
 20
8.208337563113547
 10
0.5608180943742176
 20
8.208337563113547
 10
0.6118015574991464
 20
8.259321026238478
 10
0.6627850206240753
 20
8.259321026238478
 10
0.7647519468739331
 20
8.259321026238478
 10
0.815735409998862
 20
8.259321026238478
 10
0.8667188731237907
 20
8.310304489363407
 10
0.9177023362487198
 20
8.310304489363407
 10
0.9686857993736486
 20
8.310304489363407
 10
1.019669262498577
 20
8.310304489363407
 10
1.070652725623506
 20
8.310304489363407
 10
1.121636188748435
 20
8.310304489363407
 10
1.172619651873364
 20
8.310304489363407
 10
1.223603114998293
 20
8.259321026238478
 10
1.274586578123222
 20
8.259321026238478
 10
1.325570041248151
 20
8.259321026238478
 10
1.37655350437308
 20
8.259321026238478
 10
1.427536967498009
 20
8.259321026238478
 10
1.478520430622937
 20
8.208337563113547
 10
1.529503893747866
 20
8.208337563113547
 10
1.580487356872795
 20
8.208337563113547
 10
1.631470819997724
 20
8.15735409998862
 10
1.733437746247581
 20
8.15735409998862
 10
1.83540467249744
 20
8.106370636863691
 10
1.937371598747297
 20
8.106370636863691
 10
2.039338524997155
 20
8.106370636863691
 10
2.141305451247013
 20
8.055387173738762
 10
2.192288914371941
 20
8.055387173738762
 10
2.24327237749687
 20
8.055387173738762
 10
2.24327237749687
 20
8.004403710613833
 10
2.294255840621799
 20
8.004403710613833
 10
2.294255840621799
 20
7.953420247488904
 10
2.294255840621799
 20
7.902436784363975
 10
2.345239303746728
 20
7.851453321239045
 10
2.345239303746728
 20
7.800469858114117
 10
2.345239303746728
 20
7.749486394989189
 10
2.345239303746728
 20
7.69850293186426
 10
2.345239303746728
 20
7.596536005614402
 10
2.345239303746728
 20
7.545552542489474
 10
2.345239303746728
 20
7.494569079364544
 10
2.345239303746728
 20
7.443585616239615
 10
2.345239303746728
 20
7.392602153114686
 10
2.345239303746728
 20
7.341618689989758
 10
2.345239303746728
 20
7.290635226864828
 10
2.345239303746728
 20
7.2396517637399
 10
2.345239303746728
 20
7.188668300614971
 10
2.396222766871657
 20
7.137684837490043
 10
2.447206229996586
 20
7.086701374365113
  0
LWPOLYLINE
  5
59
100
AcDbEntity
  8
0
  6
ByLayer
 62
  256
370
   -1
100
AcDbPolyline
 90
  101
 70
    0
 43
0
 10
3.059007787495732
 20
8.004403710613833
 10
3.059007787495732
 20
8.004403710613833
 10
3.109991250620662
 20
8.004403710613833
 10
3.211958176870519
 20
8.004403710613833
 10
3.262941639995448
 20
7.953420247488904
 10
3.364908566245305
 20
7.953420247488904
 10
3.466875492495163
 20
7.953420247488904
 10
3.568842418745021
 20
7.953420247488904
 10
3.721792808119807
 20
7.953420247488904
 10
3.823759734369665
 20
7.953420247488904
 10
3.925726660619523
 20
7.953420247488904
 10
4.027693586869381
 20
7.953420247488904
 10
4.129660513119239
 20
7.902436784363975
 10
4.231627439369096
 20
7.902436784363975
 10
4.282610902494025
 20
7.902436784363975
 10
4.384577828743883
 20
7.902436784363975
 10
4.486544754993741
 20
7.851453321239045
 10
4.53752821811867
 20
7.851453321239045
 10
4.639495144368527
 20
7.800469858114117
 10
4.741462070618385
 20
7.800469858114117
 10
4.843428996868242
 20
7.749486394989189
 10
4.945395923118101
 20
7.749486394989189
 10
4.99637938624303
 20
7.69850293186426
 10
5.098346312492887
 20
7.64751946873933
 10
5.200313238742745
 20
7.596536005614402
 10
5.302280164992602
 20
7.596536005614402
 10
5.40424709124246
 20
7.545552542489474
 10
5.455230554367389
 20
7.494569079364544
 10
5.506214017492319
 20
7.443585616239615
 10
5.557197480617247
 20
7.443585616239615
 10
5.608180943742176
 20
7.392602153114686
 10
5.608180943742176
 20
7.341618689989758
 10
5.659164406867105
 20
7.290635226864828
 10
5.659164406867105
 20
7.2396517637399
 10
5.710147869992034
 20
7.2396517637399
 10
5.761131333116962
 20
7.188668300614971
 10
5.761131333116962
 20
7.137684837490043
 10
5.812114796241891
 20
7.086701374365113
 10
5.86309825936682
 20
7.035717911240185
 10
5.914081722491749
 20
7.035717911240185
 10
5.914081722491749
 20
6.984734448115256
 10
5.914081722491749
 20
6.933750984990326
 10
5.965065185616678
 20
6.882767521865397
 10
5.965065185616678
 20
6.831784058740469
 10
5.965065185616678
 20
6.78080059561554
 10
6.016048648741608
 20
6.72981713249061
 10
6.016048648741608
 20
6.678833669365682
 10
6.016048648741608
 20
6.627850206240754
 10
6.016048648741608
 20
6.576866743115825
 10
5.965065185616678
 20
6.525883279990896
 10
5.965065185616678
 20
6.474899816865967
 10
5.965065185616678
 20
6.423916353741038
 10
6.016048648741608
 20
6.372932890616108
 10
6.016048648741608
 20
6.32194942749118
 10
6.067032111866536
 20
6.270965964366251
 10
6.118015574991465
 20
6.219982501241323
 10
6.168999038116393
 20
6.168999038116393
 10
6.219982501241323
 20
6.118015574991465
 10
6.270965964366251
 20
6.067032111866536
 10
6.32194942749118
 20
6.067032111866536
 10
6.32194942749118
 20
6.016048648741608
 10
6.372932890616108
 20
6.016048648741608
 10
6.423916353741038
 20
6.016048648741608
 10
6.474899816865967
 20
5.965065185616678
 10
6.525883279990896
 20
5.965065185616678
 10
6.576866743115825
 20
5.965065185616678
 10
6.576866743115825
 20
5.914081722491749
 10
6.627850206240754
 20
5.914081722491749
 10
6.627850206240754
 20
5.86309825936682
 10
6.678833669365682
 20
5.86309825936682
 10
6.678833669365682
 20
5.812114796241891
 10
6.72981713249061
 20
5.812114796241891
 10
6.72981713249061
 20
5.761131333116962
 10
6.78080059561554
 20
5.761131333116962
 10
6.78080059561554
 20
5.710147869992034
 10
6.831784058740469
 20
5.710147869992034
 10
6.882767521865397
 20
5.659164406867105
 10
6.933750984990326
 20
5.659164406867105
 10
6.933750984990326
 20
5.608180943742176
 10
6.984734448115256
 20
5.608180943742176
 10
7.035717911240185
 20
5.557197480617247
 10
7.086701374365113
 20
5.557197480617247
 10
7.137684837490043
 20
5.506214017492319
 10
7.188668300614971
 20
5.455230554367389
 10
7.2396517637399
 20
5.455230554367389
 10
7.290635226864828
 20
5.40424709124246
 10
7.341618689989758
 20
5.353263628117531
 10
7.341618689989758
 20
5.302280164992602
 10
7.392602153114686
 20
5.302280164992602
 10
7.392602153114686
 20
5.251296701867674
 10
7.341618689989758
 20
5.200313238742745
 10
7.341618689989758
 20
5.149329775617816
 10
7.341618689989758
 20
5.098346312492887
 10
7.290635226864828
 20
5.047362849367959
 10
7.290635226864828
 20
4.99637938624303
 10
7.290635226864828
 20
4.945395923118101
 10
7.341618689989758
 20
4.894412459993172
 10
7.341618689989758
 20
4.843428996868242
 10
7.392602153114686
 20
4.792445533743314
 10
7.392602153114686
 20
4.741462070618385
 10
7.443585616239615
 20
4.690478607493456
  0
LWPOLYLINE
  5
5A
100
AcDbEntity
  8
0
  6
ByLayer
 62
  256
370
   -1
100
AcDbPolyline
 90
   41
 70
    0
 43
0
 10
1.937371598747297
 20
3.976710123744452
 10
1.83540467249744
 20
4.027693586869381
 10
1.784421209372511
 20
4.027693586869381
 10
1.733437746247581
 20
4.027693586869381
 10
1.682454283122653
 20
4.027693586869381
 10
1.631470819997724
 20
4.027693586869381
 10
1.580487356872795
 20
3.976710123744452
 10
1.529503893747866
 20
3.976710123744452
 10
1.478520430622937
 20
3.976710123744452
 10
1.427536967498009
 20
3.976710123744452
 10
1.37655350437308
 20
3.976710123744452
 10
1.325570041248151
 20
3.976710123744452
 10
1.274586578123222
 20
3.976710123744452
 10
1.223603114998293
 20
3.976710123744452
 10
1.172619651873364
 20
3.976710123744452
 10
1.121636188748435
 20
3.976710123744452
 10
1.070652725623506
 20
3.976710123744452
 10
1.019669262498577
 20
3.976710123744452
 10
0.9686857993736486
 20
3.976710123744452
 10
0.9177023362487198
 20
3.976710123744452
 10
0.8667188731237907
 20
3.976710123744452
 10
0.815735409998862
 20
4.027693586869381
 10
0.7647519468739331
 20
4.027693586869381
 10
0.7137684837490043
 20
4.027693586869381
 10
0.6627850206240753
 20
4.07867704999431
 10
0.6118015574991464
 20
4.07867704999431
 10
0.5608180943742176
 20
4.129660513119239
 10
0.5098346312492887
 20
4.129660513119239
 10
0.4588511681243599
 20
4.129660513119239
 10
0.407867704999431
 20
4.180643976244167
 10
0.3568842418745021
 20
4.180643976244167
 10
0.3059007787495732
 20
4.180643976244167
 10
0.2549173156246444
 20
4.231627439369096
 10
0.2039338524997155
 20
4.231627439369096
 10
0.1529503893747866
 20
4.231627439369096
 10
0.1019669262498577
 20
4.231627439369096
 10
0.05098346312492887
 20
4.282610902494025
 10
-0.05098346312492887
 20
4.282610902494025
 10
-0.1019669262498577
 20
4.282610902494025
 10
-0.1529503893747866
 20
4.282610902494025
 10
-0.4588511681243599
 20
4.333594365618954
  0
LWPOLYLINE
  5
5B
100
AcDbEntity
  8
0
  6
ByLayer
 62
  256
370
   -1
100
AcDbPolyline
 90
   87
 70
    0
 43
0
 10
5.659164406867105
 20
4.231627439369096
 10
5.710147869992034
 20
4.231627439369096
 10
5.761131333116962
 20
4.231627439369096
 10
5.812114796241891
 20
4.231627439369096
 10
5.86309825936682
 20
4.231627439369096
 10
5.914081722491749
 20
4.231627439369096
 10
5.965065185616678
 20
4.231627439369096
 10
6.016048648741608
 20
4.282610902494025
 10
6.067032111866536
 20
4.282610902494025
 10
6.118015574991465
 20
4.282610902494025
 10
6.219982501241323
 20
4.231627439369096
 10
6.219982501241323
 20
4.180643976244167
 10
6.219982501241323
 20
4.129660513119239
 10
6.168999038116393
 20
4.07867704999431
 10
6.168999038116393
 20
4.027693586869381
 10
6.168999038116393
 20
3.976710123744452
 10
6.118015574991465
 20
3.925726660619523
 10
6.118015574991465
 20
3.874743197494595
 10
6.118015574991465
 20
3.772776271244737
 10
6.118015574991465
 20
3.721792808119807
 10
6.118015574991465
 20
3.670809344994879
 10
6.168999038116393
 20
3.61982588186995
 10
6.168999038116393
 20
3.568842418745021
 10
6.168999038116393
 20
3.517858955620092
 10
6.168999038116393
 20
3.466875492495163
 10
6.168999038116393
 20
3.415892029370235
 10
6.168999038116393
 20
3.364908566245305
 10
6.219982501241323
 20
3.364908566245305
 10
6.219982501241323
 20
3.313925103120377
 10
6.270965964366251
 20
3.262941639995448
 10
6.32194942749118
 20
3.211958176870519
 10
6.32194942749118
 20
3.16097471374559
 10
6.32194942749118
 20
3.109991250620662
 10
6.32194942749118
 20
3.059007787495732
 10
6.32194942749118
 20
3.008024324370804
 10
6.270965964366251
 20
2.957040861245875
 10
6.270965964366251
 20
2.906057398120946
 10
6.270965964366251
 20
2.855073934996017
 10
6.270965964366251
 20
2.804090471871088
 10
6.32194942749118
 20
2.753107008746159
 10
6.372932890616108
 20
2.70212354562123
 10
6.423916353741038
 20
2.70212354562123
 10
6.423916353741038
 20
2.651140082496301
 10
6.474899816865967
 20
2.600156619371373
 10
6.525883279990896
 20
2.600156619371373
 10
6.576866743115825
 20
2.549173156246443
 10
6.576866743115825
 20
2.498189693121515
 10
6.576866743115825
 20
2.447206229996586
 10
6.576866743115825
 20
2.396222766871657
 10
6.627850206240754
 20
2.345239303746728
 10
6.627850206240754
 20
2.294255840621799
 10
6.627850206240754
 20
2.24327237749687
 10
6.627850206240754
 20
2.192288914371941
 10
6.627850206240754
 20
2.141305451247013
 10
6.576866743115825
 20
2.090321988122084
 10
6.576866743115825
 20
2.039338524997155
 10
6.576866743115825
 20
1.988355061872226
 10
6.576866743115825
 20
1.937371598747297
 10
6.576866743115825
 20
1.886388135622368
 10
6.525883279990896
 20
1.83540467249744
 10
6.525883279990896
 20
1.784421209372511
 10
6.474899816865967
 20
1.733437746247581
 10
6.423916353741038
 20
1.682454283122653
 10
6.423916353741038
 20
1.631470819997724
 10
6.423916353741038
 20
1.580487356872795
 10
6.474899816865967
 20
1.580487356872795
 10
6.474899816865967
 20
1.529503893747866
 10
6.525883279990896
 20
1.529503893747866
 10
6.576866743115825
 20
1.478520430622937
 10
6.627850206240754
 20
1.478520430622937
 10
6.678833669365682
 20
1.427536967498009
 10
6.72981713249061
 20
1.427536967498009
 10
6.78080059561554
 20
1.37655350437308
 10
6.831784058740469
 20
1.37655350437308
 10
6.933750984990326
 20
1.37655350437308
 10
6.984734448115256
 20
1.325570041248151
 10
7.035717911240185
 20
1.325570041248151
 10
7.086701374365113
 20
1.325570041248151
 10
7.137684837490043
 20
1.274586578123222
 10
7.188668300614971
 20
1.274586578123222
 10
7.2396517637399
 20
1.274586578123222
 10
7.290635226864828
 20
1.223603114998293
 10
7.341618689989758
 20
1.223603114998293
 10
7.392602153114686
 20
1.223603114998293
 10
7.494569079364544
 20
1.223603114998293
 10
7.545552542489474
 20
1.172619651873364
 10
7.64751946873933
 20
1.172619651873364
  0
LWPOLYLINE
  5
5C
100
AcDbEntity
  8
0
  6
ByLayer
 62
  256
370
   -1
100
AcDbPolyline
 90
   94
 70
    0
 43
0
 10
7.188668300614971
 20
-3.823759734369665
 10
7.137684837490043
 20
-3.823759734369665
 10
7.086701374365113
 20
-3.823759734369665
 10
7.137684837490043
 20
-3.823759734369665
 10
7.188668300614971
 20
-3.823759734369665
 10
7.2396517637399
 20
-3.874743197494595
 10
7.290635226864828
 20
-3.874743197494595
 10
7.341618689989758
 20
-3.874743197494595
 10
7.392602153114686
 20
-3.874743197494595
 10
7.443585616239615
 20
-3.874743197494595
 10
7.494569079364544
 20
-3.874743197494595
 10
7.545552542489474
 20
-3.874743197494595
 10
7.596536005614402
 20
-3.823759734369665
 10
7.64751946873933
 20
-3.823759734369665
 10
7.69850293186426
 20
-3.823759734369665
 10
7.749486394989189
 20
-3.772776271244737
 10
7.851453321239045
 20
-3.772776271244737
 10
7.902436784363975
 20
-3.721792808119807
 10
7.953420247488904
 20
-3.670809344994879
 10
8.004403710613833
 20
-3.670809344994879
 10
8.106370636863691
 20
-3.61982588186995
 10
8.15735409998862
 20
-3.568842418745021
 10
8.208337563113547
 20
-3.517858955620092
 10
8.310304489363407
 20
-3.466875492495163
 10
8.361287952488334
 20
-3.415892029370235
 10
8.412271415613263
 20
-3.364908566245305
 10
8.412271415613263
 20
-3.313925103120377
 10
8.412271415613263
 20
-3.262941639995448
 10
8.463254878738192
 20
-3.211958176870519
 10
8.463254878738192
 20
-3.16097471374559
 10
8.463254878738192
 20
-3.109991250620662
 10
8.463254878738192
 20
-3.059007787495732
 10
8.514238341863122
 20
-3.008024324370804
 10
8.514238341863122
 20
-2.957040861245875
 10
8.514238341863122
 20
-2.906057398120946
 10
8.565221804988051
 20
-2.855073934996017
 10
8.565221804988051
 20
-2.804090471871088
 10
8.61620526811298
 20
-2.753107008746159
 10
8.61620526811298
 20
-2.70212354562123
 10
8.61620526811298
 20
-2.651140082496301
 10
8.61620526811298
 20
-2.600156619371373
 10
8.667188731237909
 20
-2.600156619371373
 10
8.667188731237909
 20
-2.549173156246443
 10
8.718172194362836
 20
-2.498189693121515
 10
8.718172194362836
 20
-2.447206229996586
 10
8.769155657487765
 20
-2.396222766871657
 10
8.820139120612696
 20
-2.396222766871657
 10
8.820139120612696
 20
-2.345239303746728
 10
8.871122583737623
 20
-2.24327237749687
 10
8.922106046862552
 20
-2.192288914371941
 10
8.973089509987481
 20
-2.141305451247013
 10
8.973089509987481
 20
-2.039338524997155
 10
9.024072973112411
 20
-1.988355061872226
 10
9.024072973112411
 20
-1.937371598747297
 10
9.07505643623734
 20
-1.886388135622368
 10
9.07505643623734
 20
-1.83540467249744
 10
9.126039899362267
 20
-1.733437746247581
 10
9.177023362487198
 20
-1.682454283122653
 10
9.177023362487198
 20
-1.631470819997724
 10
9.228006825612127
 20
-1.631470819997724
 10
9.228006825612127
 20
-1.580487356872795
 10
9.278990288737054
 20
-1.529503893747866
 10
9.329973751861983
 20
-1.529503893747866
 10
9.380957214986912
 20
-1.478520430622937
 10
9.431940678111841
 20
-1.427536967498009
 10
9.48292414123677
 20
-1.37655350437308
 10
9.533907604361699
 20
-1.325570041248151
 10
9.584891067486629
 20
-1.274586578123222
 10
9.635874530611556
 20
-1.223603114998293
 10
9.686857993736485
 20
-1.172619651873364
 10
9.686857993736485
 20
-1.121636188748435
 10
9.737841456861416
 20
-1.070652725623506
 10
9.737841456861416
 20
-1.019669262498577
 10
9.788824919986343
 20
-0.9686857993736486
 10
9.788824919986343
 20
-0.9177023362487198
 10
9.788824919986343
 20
-0.8667188731237907
 10
9.737841456861416
 20
-0.815735409998862
 10
9.737841456861416
 20
-0.7647519468739331
 10
9.737841456861416
 20
-0.7137684837490043
 10
9.686857993736485
 20
-0.6627850206240753
 10
9.686857993736485
 20
-0.6118015574991464
 10
9.635874530611556
 20
-0.6118015574991464
 10
9.584891067486629
 20
-0.5608180943742176
 10
9.533907604361699
 20
-0.5098346312492887
 10
9.48292414123677
 20
-0.4588511681243599
 10
9.431940678111841
 20
-0.4588511681243599
 10
9.380957214986912
 20
-0.407867704999431
 10
9.329973751861983
 20
-0.407867704999431
 10
9.278990288737054
 20
-0.3568842418745021
 10
9.228006825612127
 20
-0.3059007787495732
 10
9.228006825612127
 20
-0.2549173156246444
 10
9.228006825612127
 20
-0.2039338524997155
 10
9.278990288737054
 20
-0.1529503893747866
 10
9.329973751861983
 20
-0.1019669262498577
  0
LWPOLYLINE
  5
5D
100
AcDbEntity
  8
0
  6
ByLayer
 62
  256
370
   -1
100
AcDbPolyline
 90
   57
 70
    0
 43
0
 10
1.580487356872795
 20
-4.99637938624303
 10
1.580487356872795
 20
-4.99637938624303
 10
1.631470819997724
 20
-5.047362849367959
 10
1.631470819997724
 20
-5.098346312492887
 10
1.631470819997724
 20
-5.149329775617816
 10
1.682454283122653
 20
-5.200313238742745
 10
1.733437746247581
 20
-5.251296701867674
 10
1.733437746247581
 20
-5.302280164992602
 10
1.784421209372511
 20
-5.353263628117531
 10
1.83540467249744
 20
-5.353263628117531
 10
1.886388135622368
 20
-5.40424709124246
 10
1.937371598747297
 20
-5.455230554367389
 10
1.988355061872226
 20
-5.506214017492319
 10
2.039338524997155
 20
-5.557197480617247
 10
2.090321988122084
 20
-5.557197480617247
 10
2.141305451247013
 20
-5.608180943742176
 10
2.192288914371941
 20
-5.659164406867105
 10
2.24327237749687
 20
-5.659164406867105
 10
2.294255840621799
 20
-5.710147869992034
 10
2.396222766871657
 20
-5.710147869992034
 10
2.498189693121515
 20
-5.761131333116962
 10
2.600156619371373
 20
-5.761131333116962
 10
2.651140082496301
 20
-5.761131333116962
 10
2.753107008746159
 20
-5.812114796241891
 10
2.804090471871088
 20
-5.812114796241891
 10
2.855073934996017
 20
-5.812114796241891
 10
2.906057398120946
 20
-5.86309825936682
 10
2.957040861245875
 20
-5.86309825936682
 10
3.008024324370804
 20
-5.86309825936682
 10
3.008024324370804
 20
-5.914081722491749
 10
3.059007787495732
 20
-5.914081722491749
 10
3.109991250620662
 20
-5.965065185616678
 10
3.16097471374559
 20
-5.965065185616678
 10
3.211958176870519
 20
-6.016048648741608
 10
3.313925103120377
 20
-6.016048648741608
 10
3.364908566245305
 20
-6.067032111866536
 10
3.466875492495163
 20
-6.067032111866536
 10
3.517858955620092
 20
-6.067032111866536
 10
3.61982588186995
 20
-6.118015574991465
 10
3.670809344994879
 20
-6.118015574991465
 10
3.721792808119807
 20
-6.168999038116393
 10
3.772776271244737
 20
-6.168999038116393
 10
3.823759734369665
 20
-6.219982501241323
 10
3.874743197494595
 20
-6.219982501241323
 10
3.874743197494595
 20
-6.270965964366251
 10
3.925726660619523
 20
-6.270965964366251
 10
3.976710123744452
 20
-6.32194942749118
 10
4.07867704999431
 20
-6.32194942749118
 10
4.180643976244167
 20
-6.372932890616108
 10
4.231627439369096
 20
-6.372932890616108
 10
4.333594365618954
 20
-6.372932890616108
 10
4.435561291868812
 20
-6.372932890616108
 10
4.53752821811867
 20
-6.423916353741038
 10
4.588511681243599
 20
-6.423916353741038
 10
4.639495144368527
 20
-6.423916353741038
 10
4.690478607493456
 20
-6.423916353741038
 10
4.741462070618385
 20
-6.423916353741038
  0
LWPOLYLINE
  5
5E
100
AcDbEntity
  8
0
  6
ByLayer
 62
  256
370
   -1
100
AcDbPolyline
 90
   35
 70
    0
 43
0
 10
-0.05098346312492887
 20
-5.914081722491749
 10
-0.1019669262498577
 20
-5.86309825936682
 10
-0.1529503893747866
 20
-5.812114796241891
 10
-0.2549173156246444
 20
-5.812114796241891
 10
-0.3059007787495732
 20
-5.812114796241891
 10
-0.407867704999431
 20
-5.812114796241891
 10
-0.5098346312492887
 20
-5.86309825936682
 10
-0.6627850206240753
 20
-5.86309825936682
 10
-0.7647519468739331
 20
-5.86309825936682
 10
-0.8667188731237907
 20
-5.86309825936682
 10
-0.9686857993736486
 20
-5.86309825936682
 10
-1.070652725623506
 20
-5.914081722491749
 10
-1.121636188748435
 20
-5.914081722491749
 10
-1.223603114998293
 20
-5.914081722491749
 10
-1.274586578123222
 20
-5.965065185616678
 10
-1.325570041248151
 20
-5.965065185616678
 10
-1.37655350437308
 20
-5.965065185616678
 10
-1.427536967498009
 20
-5.965065185616678
 10
-1.478520430622937
 20
-6.016048648741608
 10
-1.529503893747866
 20
-6.016048648741608
 10
-1.580487356872795
 20
-6.016048648741608
 10
-1.631470819997724
 20
-6.016048648741608
 10
-1.682454283122653
 20
-6.067032111866536
 10
-1.733437746247581
 20
-6.067032111866536
 10
-1.784421209372511
 20
-6.067032111866536
 10
-1.83540467249744
 20
-6.067032111866536
 10
-1.886388135622368
 20
-6.118015574991465
 10
-1.937371598747297
 20
-6.118015574991465
 10
-1.988355061872226
 20
-6.118015574991465
 10
-2.039338524997155
 20
-6.118015574991465
 10
-2.090321988122084
 20
-6.168999038116393
 10
-2.141305451247013
 20
-6.168999038116393
 10
-2.192288914371941
 20
-6.168999038116393
 10
-2.192288914371941
 20
-6.219982501241323
 10
-2.24327237749687
 20
-6.219982501241323
  0
LWPOLYLINE
  5
5F
100
AcDbEntity
  8
0
  6
ByLayer
 62
  256
370
   -1
100
AcDbPolyline
 90
  119
 70
    0
 43
0
 10
6.933750984990326
 20
-0.1529503893747866
 10
6.882767521865397
 20
-0.1529503893747866
 10
6.831784058740469
 20
-0.1019669262498577
 10
6.78080059561554
 20
-0.1019669262498577
 10
6.678833669365682
 20
-0.1019669262498577
 10
6.627850206240754
 20
-0.1019669262498577
 10
6.576866743115825
 20
-0.1529503893747866
 10
6.525883279990896
 20
-0.1529503893747866
 10
6.474899816865967
 20
-0.1529503893747866
 10
6.372932890616108
 20
-0.2039338524997155
 10
6.32194942749118
 20
-0.2039338524997155
 10
6.270965964366251
 20
-0.2549173156246444
 10
6.219982501241323
 20
-0.3059007787495732
 10
6.168999038116393
 20
-0.3059007787495732
 10
6.118015574991465
 20
-0.3568842418745021
 10
6.118015574991465
 20
-0.407867704999431
 10
6.067032111866536
 20
-0.4588511681243599
 10
6.067032111866536
 20
-0.5098346312492887
 10
6.067032111866536
 20
-0.5608180943742176
 10
6.016048648741608
 20
-0.6118015574991464
 10
6.016048648741608
 20
-0.6627850206240753
 10
5.965065185616678
 20
-0.7137684837490043
 10
5.965065185616678
 20
-0.7647519468739331
 10
5.914081722491749
 20
-0.7647519468739331
 10
5.914081722491749
 20
-0.815735409998862
 10
5.86309825936682
 20
-0.8667188731237907
 10
5.86309825936682
 20
-0.9177023362487198
 10
5.86309825936682
 20
-0.9686857993736486
 10
5.86309825936682
 20
-1.019669262498577
 10
5.914081722491749
 20
-1.070652725623506
 10
5.965065185616678
 20
-1.070652725623506
 10
5.965065185616678
 20
-1.121636188748435
 10
6.016048648741608
 20
-1.121636188748435
 10
6.016048648741608
 20
-1.172619651873364
 10
6.067032111866536
 20
-1.223603114998293
 10
6.118015574991465
 20
-1.274586578123222
 10
6.168999038116393
 20
-1.274586578123222
 10
6.168999038116393
 20
-1.325570041248151
 10
6.219982501241323
 20
-1.37655350437308
 10
6.270965964366251
 20
-1.427536967498009
 10
6.32194942749118
 20
-1.427536967498009
 10
6.32194942749118
 20
-1.478520430622937
 10
6.372932890616108
 20
-1.478520430622937
 10
6.423916353741038
 20
-1.529503893747866
 10
6.474899816865967
 20
-1.580487356872795
 10
6.474899816865967
 20
-1.631470819997724
 10
6.525883279990896
 20
-1.682454283122653
 10
6.525883279990896
 20
-1.733437746247581
 10
6.576866743115825
 20
-1.733437746247581
 10
6.576866743115825
 20
-1.784421209372511
 10
6.627850206240754
 20
-1.83540467249744
 10
6.678833669365682
 20
-1.886388135622368
 10
6.678833669365682
 20
-1.937371598747297
 10
6.72981713249061
 20
-1.937371598747297
 10
6.72981713249061
 20
-1.988355061872226
 10
6.72981713249061
 20
-2.039338524997155
 10
6.678833669365682
 20
-2.090321988122084
 10
6.627850206240754
 20
-2.141305451247013
 10
6.627850206240754
 20
-2.192288914371941
 10
6.627850206240754
 20
-2.24327237749687
 10
6.576866743115825
 20
-2.294255840621799
 10
6.576866743115825
 20
-2.345239303746728
 10
6.576866743115825
 20
-2.396222766871657
 10
6.576866743115825
 20
-2.447206229996586
 10
6.576866743115825
 20
-2.498189693121515
 10
6.525883279990896
 20
-2.498189693121515
 10
6.525883279990896
 20
-2.549173156246443
 10
6.525883279990896
 20
-2.600156619371373
 10
6.525883279990896
 20
-2.651140082496301
 10
6.525883279990896
 20
-2.70212354562123
 10
6.474899816865967
 20
-2.753107008746159
 10
6.474899816865967
 20
-2.804090471871088
 10
6.474899816865967
 20
-2.855073934996017
 10
6.474899816865967
 20
-2.906057398120946
 10
6.474899816865967
 20
-2.957040861245875
 10
6.423916353741038
 20
-3.008024324370804
 10
6.423916353741038
 20
-3.059007787495732
 10
6.423916353741038
 20
-3.109991250620662
 10
6.423916353741038
 20
-3.16097471374559
 10
6.372932890616108
 20
-3.211958176870519
 10
6.32194942749118
 20
-3.262941639995448
 10
6.270965964366251
 20
-3.313925103120377
 10
6.219982501241323
 20
-3.313925103120377
 10
6.219982501241323
 20
-3.364908566245305
 10
6.168999038116393
 20
-3.364908566245305
 10
6.168999038116393
 20
-3.415892029370235
 10
6.168999038116393
 20
-3.466875492495163
 10
6.118015574991465
 20
-3.466875492495163
 10
6.118015574991465
 20
-3.517858955620092
 10
6.118015574991465
 20
-3.568842418745021
 10
6.067032111866536
 20
-3.568842418745021
 10
6.067032111866536
 20
-3.61982588186995
 10
6.067032111866536
 20
-3.670809344994879
 10
6.016048648741608
 20
-3.670809344994879
 10
6.016048648741608
 20
-3.721792808119807
 10
5.965065185616678
 20
-3.772776271244737
 10
5.965065185616678
 20
-3.823759734369665
 10
5.914081722491749
 20
-3.874743197494595
 10
5.914081722491749
 20
-3.925726660619523
 10
5.914081722491749
 20
-3.976710123744452
 10
5.914081722491749
 20
-4.027693586869381
 10
5.914081722491749
 20
-4.07867704999431
 10
5.914081722491749
 20
-4.129660513119239
 10
5.914081722491749
 20
-4.180643976244167
 10
5.914081722491749
 20
-4.231627439369096
 10
5.914081722491749
 20
-4.282610902494025
 10
5.914081722491749
 20
-4.333594365618954
 10
5.914081722491749
 20
-4.384577828743883
 10
5.86309825936682
 20
-4.435561291868812
 10
5.86309825936682
 20
-4.53752821811867
 10
5.812114796241891
 20
-4.53752821811867
 10
5.812114796241891
 20
-4.588511681243599
 10
5.761131333116962
 20
-4.639495144368527
 10
5.710147869992034
 20
-4.690478607493456
 10
5.659164406867105
 20
-4.741462070618385
 10
5.608180943742176
 20
-4.792445533743314
 10
5.557197480617247
 20
-4.843428996868242
 10
5.506214017492319
 20
-4.843428996868242
 10
5.455230554367389
 20
-4.792445533743314
  0
LWPOLYLINE
  5
60
100
AcDbEntity
  8
0
  6
ByLayer
 62
  256
370
   -1
100
AcDbPolyline
 90
   85
 70
    0
 43
0
 10
2.396222766871657
 20
-3.313925103120377
 10
2.345239303746728
 20
-3.313925103120377
 10
2.294255840621799
 20
-3.313925103120377
 10
2.345239303746728
 20
-3.313925103120377
 10
2.396222766871657
 20
-3.313925103120377
 10
2.498189693121515
 20
-3.262941639995448
 10
2.549173156246443
 20
-3.262941639995448
 10
2.651140082496301
 20
-3.262941639995448
 10
2.753107008746159
 20
-3.211958176870519
 10
2.804090471871088
 20
-3.211958176870519
 10
2.855073934996017
 20
-3.16097471374559
 10
2.906057398120946
 20
-3.16097471374559
 10
2.957040861245875
 20
-3.16097471374559
 10
3.008024324370804
 20
-3.109991250620662
 10
3.059007787495732
 20
-3.059007787495732
 10
3.109991250620662
 20
-3.059007787495732
 10
3.211958176870519
 20
-3.008024324370804
 10
3.262941639995448
 20
-2.957040861245875
 10
3.313925103120377
 20
-2.957040861245875
 10
3.313925103120377
 20
-2.906057398120946
 10
3.364908566245305
 20
-2.906057398120946
 10
3.415892029370235
 20
-2.855073934996017
 10
3.415892029370235
 20
-2.804090471871088
 10
3.466875492495163
 20
-2.804090471871088
 10
3.466875492495163
 20
-2.753107008746159
 10
3.517858955620092
 20
-2.70212354562123
 10
3.568842418745021
 20
-2.70212354562123
 10
3.568842418745021
 20
-2.651140082496301
 10
3.568842418745021
 20
-2.600156619371373
 10
3.568842418745021
 20
-2.549173156246443
 10
3.568842418745021
 20
-2.498189693121515
 10
3.61982588186995
 20
-2.447206229996586
 10
3.61982588186995
 20
-2.396222766871657
 10
3.61982588186995
 20
-2.345239303746728
 10
3.670809344994879
 20
-2.345239303746728
 10
3.670809344994879
 20
-2.294255840621799
 10
3.670809344994879
 20
-2.24327237749687
 10
3.670809344994879
 20
-2.192288914371941
 10
3.670809344994879
 20
-2.141305451247013
 10
3.61982588186995
 20
-2.090321988122084
 10
3.61982588186995
 20
-2.039338524997155
 10
3.568842418745021
 20
-1.988355061872226
 10
3.568842418745021
 20
-1.937371598747297
 10
3.568842418745021
 20
-1.886388135622368
 10
3.61982588186995
 20
-1.83540467249744
 10
3.61982588186995
 20
-1.784421209372511
 10
3.61982588186995
 20
-1.733437746247581
 10
3.61982588186995
 20
-1.682454283122653
 10
3.61982588186995
 20
-1.631470819997724
 10
3.61982588186995
 20
-1.580487356872795
 10
3.61982588186995
 20
-1.529503893747866
 10
3.568842418745021
 20
-1.478520430622937
 10
3.568842418745021
 20
-1.427536967498009
 10
3.517858955620092
 20
-1.37655350437308
 10
3.517858955620092
 20
-1.325570041248151
 10
3.517858955620092
 20
-1.274586578123222
 10
3.517858955620092
 20
-1.223603114998293
 10
3.517858955620092
 20
-1.172619651873364
 10
3.568842418745021
 20
-1.121636188748435
 10
3.61982588186995
 20
-1.121636188748435
 10
3.61982588186995
 20
-1.070652725623506
 10
3.670809344994879
 20
-1.019669262498577
 10
3.721792808119807
 20
-1.019669262498577
 10
3.772776271244737
 20
-0.9686857993736486
 10
3.772776271244737
 20
-0.9177023362487198
 10
3.772776271244737
 20
-0.8667188731237907
 10
3.772776271244737
 20
-0.815735409998862
 10
3.721792808119807
 20
-0.815735409998862
 10
3.670809344994879
 20
-0.7647519468739331
 10
3.61982588186995
 20
-0.7647519468739331
 10
3.517858955620092
 20
-0.7137684837490043
 10
3.466875492495163
 20
-0.7137684837490043
 10
3.364908566245305
 20
-0.6627850206240753
 10
3.313925103120377
 20
-0.6627850206240753
 10
3.262941639995448
 20
-0.6118015574991464
 10
3.211958176870519
 20
-0.6118015574991464
 10
3.16097471374559
 20
-0.6118015574991464
 10
3.16097471374559
 20
-0.5608180943742176
 10
3.16097471374559
 20
-0.5098346312492887
 10
3.16097471374559
 20
-0.4588511681243599
 10
3.16097471374559
 20
-0.407867704999431
 10
3.16097471374559
 20
-0.3568842418745021
 10
3.109991250620662
 20
-0.3568842418745021
 10
3.109991250620662
 20
-0.3059007787495732
 10
3.109991250620662
 20
-0.2549173156246444
  0
LWPOLYLINE
  5
61
100
AcDbEntity
  8
0
  6
ByLayer
 62
  256
370
   -1
100
AcDbPolyline
 90
   39
 70
    0
 43
0
 10
0.9686857993736486
 20
-8.15735409998862
 10
0.9177023362487198
 20
-8.15735409998862
 10
0.9686857993736486
 20
-8.15735409998862
 10
1.019669262498577
 20
-8.15735409998862
 10
1.121636188748435
 20
-8.15735409998862
 10
1.223603114998293
 20
-8.15735409998862
 10
1.37655350437308
 20
-8.15735409998862
 10
1.478520430622937
 20
-8.15735409998862
 10
1.631470819997724
 20
-8.15735409998862
 10
1.784421209372511
 20
-8.15735409998862
 10
1.886388135622368
 20
-8.15735409998862
 10
1.988355061872226
 20
-8.15735409998862
 10
2.039338524997155
 20
-8.15735409998862
 10
2.090321988122084
 20
-8.15735409998862
 10
2.141305451247013
 20
-8.15735409998862
 10
2.192288914371941
 20
-8.15735409998862
 10
2.24327237749687
 20
-8.15735409998862
 10
2.294255840621799
 20
-8.15735409998862
 10
2.345239303746728
 20
-8.15735409998862
 10
2.396222766871657
 20
-8.15735409998862
 10
2.447206229996586
 20
-8.208337563113547
 10
2.498189693121515
 20
-8.208337563113547
 10
2.549173156246443
 20
-8.208337563113547
 10
2.600156619371373
 20
-8.208337563113547
 10
2.651140082496301
 20
-8.208337563113547
 10
2.753107008746159
 20
-8.208337563113547
 10
2.804090471871088
 20
-8.15735409998862
 10
2.906057398120946
 20
-8.15735409998862
 10
3.008024324370804
 20
-8.15735409998862
 10
3.16097471374559
 20
-8.15735409998862
 10
3.313925103120377
 20
-8.106370636863691
 10
3.415892029370235
 20
-8.106370636863691
 10
3.568842418745021
 20
-8.106370636863691
 10
3.670809344994879
 20
-8.106370636863691
 10
3.772776271244737
 20
-8.055387173738762
 10
3.874743197494595
 20
-8.055387173738762
 10
3.976710123744452
 20
-8.055387173738762
 10
4.07867704999431
 20
-8.055387173738762
 10
4.129660513119239
 20
-8.004403710613833
  0
LWPOLYLINE
  5
62
100
AcDbEntity
  8
0
  6
ByLayer
 62
  256
370
   -1
100
AcDbPolyline
 90
   88
 70
    0
 43
0
 10
-3.61982588186995
 20
-8.61620526811298
 10
-3.415892029370235
 20
-8.61620526811298
 10
-3.364908566245305
 20
-8.61620526811298
 10
-3.313925103120377
 20
-8.61620526811298
 10
-3.211958176870519
 20
-8.61620526811298
 10
-3.16097471374559
 20
-8.61620526811298
 10
-3.109991250620662
 20
-8.667188731237909
 10
-3.059007787495732
 20
-8.667188731237909
 10
-3.008024324370804
 20
-8.718172194362836
 10
-2.957040861245875
 20
-8.718172194362836
 10
-2.906057398120946
 20
-8.769155657487765
 10
-2.855073934996017
 20
-8.769155657487765
 10
-2.753107008746159
 20
-8.769155657487765
 10
-2.70212354562123
 20
-8.769155657487765
 10
-2.651140082496301
 20
-8.820139120612696
 10
-2.549173156246443
 20
-8.820139120612696
 10
-2.498189693121515
 20
-8.769155657487765
 10
-2.396222766871657
 20
-8.769155657487765
 10
-2.345239303746728
 20
-8.769155657487765
 10
-2.24327237749687
 20
-8.769155657487765
 10
-2.192288914371941
 20
-8.769155657487765
 10
-2.141305451247013
 20
-8.769155657487765
 10
-2.039338524997155
 20
-8.769155657487765
 10
-1.988355061872226
 20
-8.718172194362836
 10
-1.937371598747297
 20
-8.718172194362836
 10
-1.886388135622368
 20
-8.718172194362836
 10
-1.83540467249744
 20
-8.718172194362836
 10
-1.784421209372511
 20
-8.667188731237909
 10
-1.733437746247581
 20
-8.667188731237909
 10
-1.631470819997724
 20
-8.667188731237909
 10
-1.580487356872795
 20
-8.667188731237909
 10
-1.529503893747866
 20
-8.61620526811298
 10
-1.478520430622937
 20
-8.61620526811298
 10
-1.427536967498009
 20
-8.565221804988051
 10
-1.37655350437308
 20
-8.565221804988051
 10
-1.325570041248151
 20
-8.514238341863122
 10
-1.325570041248151
 20
-8.463254878738192
 10
-1.274586578123222
 20
-8.463254878738192
 10
-1.274586578123222
 20
-8.412271415613263
 10
-1.223603114998293
 20
-8.412271415613263
 10
-1.223603114998293
 20
-8.361287952488334
 10
-1.172619651873364
 20
-8.310304489363407
 10
-1.121636188748435
 20
-8.259321026238478
 10
-1.121636188748435
 20
-8.208337563113547
 10
-1.121636188748435
 20
-8.15735409998862
 10
-1.070652725623506
 20
-8.106370636863691
 10
-1.070652725623506
 20
-8.055387173738762
 10
-1.070652725623506
 20
-8.004403710613833
 10
-1.019669262498577
 20
-7.953420247488904
 10
-0.9686857993736486
 20
-7.902436784363975
 10
-0.9686857993736486
 20
-7.851453321239045
 10
-0.9686857993736486
 20
-7.800469858114117
 10
-0.9177023362487198
 20
-7.749486394989189
 10
-0.9177023362487198
 20
-7.69850293186426
 10
-0.9177023362487198
 20
-7.64751946873933
 10
-0.9177023362487198
 20
-7.596536005614402
 10
-0.8667188731237907
 20
-7.545552542489474
 10
-0.8667188731237907
 20
-7.494569079364544
 10
-0.8667188731237907
 20
-7.443585616239615
 10
-0.8667188731237907
 20
-7.392602153114686
 10
-0.815735409998862
 20
-7.392602153114686
 10
-0.815735409998862
 20
-7.341618689989758
 10
-0.7647519468739331
 20
-7.341618689989758
 10
-0.7647519468739331
 20
-7.290635226864828
 10
-0.7137684837490043
 20
-7.290635226864828
 10
-0.6627850206240753
 20
-7.290635226864828
 10
-0.6118015574991464
 20
-7.290635226864828
 10
-0.6118015574991464
 20
-7.2396517637399
 10
-0.5608180943742176
 20
-7.2396517637399
 10
-0.5098346312492887
 20
-7.2396517637399
 10
-0.4588511681243599
 20
-7.2396517637399
 10
-0.3568842418745021
 20
-7.188668300614971
 10
-0.2549173156246444
 20
-7.188668300614971
 10
-0.1529503893747866
 20
-7.188668300614971
 10
-0.05098346312492887
 20
-7.137684837490043
 10
0.05098346312492887
 20
-7.137684837490043
 10
0.1529503893747866
 20
-7.137684837490043
 10
0.2549173156246444
 20
-7.086701374365113
 10
0.3568842418745021
 20
-7.035717911240185
 10
0.5098346312492887
 20
-7.035717911240185
 10
0.6118015574991464
 20
-6.984734448115256
 10
0.6627850206240753
 20
-6.984734448115256
 10
0.7647519468739331
 20
-6.933750984990326
 10
0.815735409998862
 20
-6.933750984990326
 10
0.8667188731237907
 20
-6.933750984990326
 10
0.9177023362487198
 20
-6.933750984990326
 10
0.9177023362487198
 20
-6.882767521865397
 10
0.8667188731237907
 20
-6.882767521865397
  0
LWPOLYLINE
  5
63
100
AcDbEntity
  8
0
  6
ByLayer
 62
  256
370
   -1
100
AcDbPolyline
 90
   74
 70
    0
 43
0
 10
-3.313925103120377
 20
1.121636188748435
 10
-3.364908566245305
 20
1.121636188748435
 10
-3.364908566245305
 20
1.172619651873364
 10
-3.364908566245305
 20
1.121636188748435
 10
-3.313925103120377
 20
1.121636188748435
 10
-3.313925103120377
 20
1.070652725623506
 10
-3.262941639995448
 20
1.019669262498577
 10
-3.262941639995448
 20
0.9686857993736486
 10
-3.313925103120377
 20
0.9177023362487198
 10
-3.364908566245305
 20
0.8667188731237907
 10
-3.415892029370235
 20
0.815735409998862
 10
-3.466875492495163
 20
0.7647519468739331
 10
-3.517858955620092
 20
0.7137684837490043
 10
-3.568842418745021
 20
0.6627850206240753
 10
-3.61982588186995
 20
0.5608180943742176
 10
-3.670809344994879
 20
0.5098346312492887
 10
-3.721792808119807
 20
0.4588511681243599
 10
-3.772776271244737
 20
0.407867704999431
 10
-3.772776271244737
 20
0.3568842418745021
 10
-3.823759734369665
 20
0.2549173156246444
 10
-3.823759734369665
 20
0.2039338524997155
 10
-3.874743197494595
 20
0.1529503893747866
 10
-3.874743197494595
 20
0.1019669262498577
 10
-3.874743197494595
 20
0.05098346312492887
 10
-3.925726660619523
 20
0
 10
-3.976710123744452
 20
-0.05098346312492887
 10
-3.976710123744452
 20
-0.1019669262498577
 10
-4.027693586869381
 20
-0.1529503893747866
 10
-4.07867704999431
 20
-0.1529503893747866
 10
-4.07867704999431
 20
-0.2039338524997155
 10
-4.07867704999431
 20
-0.2549173156246444
 10
-4.129660513119239
 20
-0.3059007787495732
 10
-4.129660513119239
 20
-0.3568842418745021
 10
-4.180643976244167
 20
-0.3568842418745021
 10
-4.180643976244167
 20
-0.407867704999431
 10
-4.180643976244167
 20
-0.4588511681243599
 10
-4.180643976244167
 20
-0.5098346312492887
 10
-4.180643976244167
 20
-0.5608180943742176
 10
-4.180643976244167
 20
-0.6118015574991464
 10
-4.231627439369096
 20
-0.6627850206240753
 10
-4.231627439369096
 20
-0.7137684837490043
 10
-4.282610902494025
 20
-0.7137684837490043
 10
-4.333594365618954
 20
-0.7647519468739331
 10
-4.333594365618954
 20
-0.815735409998862
 10
-4.384577828743883
 20
-0.8667188731237907
 10
-4.435561291868812
 20
-0.8667188731237907
 10
-4.435561291868812
 20
-0.9177023362487198
 10
-4.435561291868812
 20
-0.9686857993736486
 10
-4.435561291868812
 20
-1.019669262498577
 10
-4.435561291868812
 20
-1.070652725623506
 10
-4.384577828743883
 20
-1.070652725623506
 10
-4.384577828743883
 20
-1.121636188748435
 10
-4.384577828743883
 20
-1.172619651873364
 10
-4.384577828743883
 20
-1.223603114998293
 10
-4.384577828743883
 20
-1.274586578123222
 10
-4.435561291868812
 20
-1.274586578123222
 10
-4.486544754993741
 20
-1.325570041248151
 10
-4.486544754993741
 20
-1.37655350437308
 10
-4.53752821811867
 20
-1.37655350437308
 10
-4.588511681243599
 20
-1.427536967498009
 10
-4.639495144368527
 20
-1.478520430622937
 10
-4.690478607493456
 20
-1.529503893747866
 10
-4.690478607493456
 20
-1.580487356872795
 10
-4.690478607493456
 20
-1.631470819997724
 10
-4.639495144368527
 20
-1.682454283122653
 10
-4.53752821811867
 20
-1.733437746247581
 10
-4.435561291868812
 20
-1.784421209372511
 10
-4.282610902494025
 20
-1.83540467249744
 10
-4.129660513119239
 20
-1.83540467249744
 10
-3.976710123744452
 20
-1.886388135622368
 10
-3.823759734369665
 20
-1.886388135622368
 10
-3.721792808119807
 20
-1.886388135622368
 10
-3.61982588186995
 20
-1.886388135622368
 10
-3.568842418745021
 20
-1.937371598747297
  0
LWPOLYLINE
  5
64
100
AcDbEntity
  8
0
  6
ByLayer
 62
  256
370
   -1
100
AcDbPolyline
 90
  117
 70
    0
 43
0
 10
-5.302280164992602
 20
2.345239303746728
 10
-5.302280164992602
 20
2.294255840621799
 10
-5.251296701867674
 20
2.294255840621799
 10
-5.200313238742745
 20
2.24327237749687
 10
-5.149329775617816
 20
2.24327237749687
 10
-5.098346312492887
 20
2.24327237749687
 10
-4.99637938624303
 20
2.192288914371941
 10
-4.945395923118101
 20
2.192288914371941
 10
-4.843428996868242
 20
2.141305451247013
 10
-4.792445533743314
 20
2.141305451247013
 10
-4.792445533743314
 20
2.090321988122084
 10
-4.741462070618385
 20
2.090321988122084
 10
-4.741462070618385
 20
2.039338524997155
 10
-4.690478607493456
 20
2.039338524997155
 10
-4.690478607493456
 20
1.988355061872226
 10
-4.690478607493456
 20
1.937371598747297
 10
-4.690478607493456
 20
1.886388135622368
 10
-4.690478607493456
 20
1.83540467249744
 10
-4.690478607493456
 20
1.784421209372511
 10
-4.741462070618385
 20
1.784421209372511
 10
-4.741462070618385
 20
1.733437746247581
 10
-4.792445533743314
 20
1.682454283122653
 10
-4.792445533743314
 20
1.631470819997724
 10
-4.843428996868242
 20
1.631470819997724
 10
-4.894412459993172
 20
1.580487356872795
 10
-4.945395923118101
 20
1.529503893747866
 10
-4.99637938624303
 20
1.478520430622937
 10
-4.99637938624303
 20
1.427536967498009
 10
-5.047362849367959
 20
1.37655350437308
 10
-5.047362849367959
 20
1.325570041248151
 10
-5.047362849367959
 20
1.274586578123222
 10
-5.047362849367959
 20
1.223603114998293
 10
-5.047362849367959
 20
1.172619651873364
 10
-5.047362849367959
 20
1.070652725623506
 10
-5.047362849367959
 20
1.019669262498577
 10
-5.047362849367959
 20
0.9686857993736486
 10
-5.047362849367959
 20
0.9177023362487198
 10
-5.047362849367959
 20
0.8667188731237907
 10
-5.047362849367959
 20
0.815735409998862
 10
-5.098346312492887
 20
0.7647519468739331
 10
-5.098346312492887
 20
0.7137684837490043
 10
-5.149329775617816
 20
0.7137684837490043
 10
-5.149329775617816
 20
0.6627850206240753
 10
-5.200313238742745
 20
0.6627850206240753
 10
-5.251296701867674
 20
0.6118015574991464
 10
-5.302280164992602
 20
0.6118015574991464
 10
-5.353263628117531
 20
0.5608180943742176
 10
-5.40424709124246
 20
0.5608180943742176
 10
-5.455230554367389
 20
0.5098346312492887
 10
-5.506214017492319
 20
0.4588511681243599
 10
-5.557197480617247
 20
0.4588511681243599
 10
-5.659164406867105
 20
0.407867704999431
 10
-5.710147869992034
 20
0.3568842418745021
 10
-5.761131333116962
 20
0.3059007787495732
 10
-5.812114796241891
 20
0.2549173156246444
 10
-5.86309825936682
 20
0.2039338524997155
 10
-5.914081722491749
 20
0.1529503893747866
 10
-5.965065185616678
 20
0.1529503893747866
 10
-5.965065185616678
 20
0.1019669262498577
 10
-6.016048648741608
 20
0.05098346312492887
 10
-6.067032111866536
 20
0.05098346312492887
 10
-6.067032111866536
 20
0
 10
-6.118015574991465
 20
-0.05098346312492887
 10
-6.168999038116393
 20
-0.05098346312492887
 10
-6.168999038116393
 20
-0.1019669262498577
 10
-6.219982501241323
 20
-0.1529503893747866
 10
-6.270965964366251
 20
-0.1529503893747866
 10
-6.270965964366251
 20
-0.2039338524997155
 10
-6.32194942749118
 20
-0.2039338524997155
 10
-6.372932890616108
 20
-0.2549173156246444
 10
-6.372932890616108
 20
-0.3059007787495732
 10
-6.423916353741038
 20
-0.3059007787495732
 10
-6.423916353741038
 20
-0.3568842418745021
 10
-6.474899816865967
 20
-0.407867704999431
 10
-6.525883279990896
 20
-0.4588511681243599
 10
-6.525883279990896
 20
-0.5098346312492887
 10
-6.576866743115825
 20
-0.5098346312492887
 10
-6.627850206240754
 20
-0.5608180943742176
 10
-6.627850206240754
 20
-0.6118015574991464
 10
-6.678833669365682
 20
-0.6118015574991464
 10
-6.678833669365682
 20
-0.6627850206240753
 10
-6.678833669365682
 20
-0.7137684837490043
 10
-6.678833669365682
 20
-0.7647519468739331
 10
-6.627850206240754
 20
-0.815735409998862
 10
-6.627850206240754
 20
-0.8667188731237907
 10
-6.576866743115825
 20
-0.8667188731237907
 10
-6.576866743115825
 20
-0.9177023362487198
 10
-6.576866743115825
 20
-0.9686857993736486
 10
-6.525883279990896
 20
-0.9686857993736486
 10
-6.525883279990896
 20
-1.019669262498577
 10
-6.474899816865967
 20
-1.070652725623506
 10
-6.423916353741038
 20
-1.121636188748435
 10
-6.372932890616108
 20
-1.121636188748435
 10
-6.372932890616108
 20
-1.172619651873364
 10
-6.32194942749118
 20
-1.172619651873364
 10
-6.270965964366251
 20
-1.223603114998293
 10
-6.219982501241323
 20
-1.223603114998293
 10
-6.219982501241323
 20
-1.274586578123222
 10
-6.168999038116393
 20
-1.274586578123222
 10
-6.168999038116393
 20
-1.325570041248151
 10
-6.168999038116393
 20
-1.37655350437308
 10
-6.168999038116393
 20
-1.427536967498009
 10
-6.168999038116393
 20
-1.478520430622937
 10
-6.168999038116393
 20
-1.529503893747866
 10
-6.168999038116393
 20
-1.580487356872795
 10
-6.168999038116393
 20
-1.631470819997724
 10
-6.168999038116393
 20
-1.682454283122653
 10
-6.118015574991465
 20
-1.682454283122653
 10
-6.118015574991465
 20
-1.733437746247581
 10
-6.118015574991465
 20
-1.784421209372511
 10
-6.067032111866536
 20
-1.784421209372511
 10
-6.067032111866536
 20
-1.83540467249744
 10
-6.067032111866536
 20
-1.886388135622368
 10
-6.118015574991465
 20
-1.886388135622368
 10
-6.118015574991465
 20
-1.937371598747297
 10
-6.168999038116393
 20
-1.937371598747297
 10
-6.219982501241323
 20
-1.937371598747297
  0
LWPOLYLINE
  5
65
100
AcDbEntity
  8
0
  6
ByLayer
 62
  256
370
   -1
100
AcDbPolyline
 90
   59
 70
    0
 43
0
 10
-7.069290794564757
 20
1.638150418713407
 10
-7.025137820325661
 20
1.612658687150942
 10
-6.999646088763197
 20
1.656811661390037
 10
-6.955493114524101
 20
1.631319929827573
 10
-6.930001382961636
 20
1.675472904066669
 10
-6.904509651399172
 20
1.719625878305765
 10
-6.834864945597612
 20
1.738287120982395
 10
-6.809373214035147
 20
1.782440095221491
 10
-6.758389750910219
 20
1.870746043699682
 10
-6.707406287785289
 20
1.959051992177874
 10
-6.630931093097897
 20
2.091510914895161
 10
-6.554455898410503
 20
2.223969837612447
 10
-6.459319461046479
 20
2.286784054528173
 10
-6.408335997921551
 20
2.375090003006365
 10
-6.331860803234156
 20
2.507548925723652
 10
-6.280877340109228
 20
2.595854874201843
 10
-6.229893876984298
 20
2.684160822680034
 10
-6.17891041385937
 20
2.772466771158225
 10
-6.127926950734441
 20
2.860772719636416
 10
-6.076943487609513
 20
2.949078668114607
 10
-6.025960024484585
 20
3.037384616592798
 10
-5.974976561359655
 20
3.125690565070989
 10
-5.923993098234726
 20
3.21399651354918
 10
-5.942654340911357
 20
3.28364121935074
 10
-5.917162609348892
 20
3.327794193589836
 10
-5.891670877786427
 20
3.371947167828931
 10
-5.866179146223963
 20
3.416100142068027
 10
-5.815195683099034
 20
3.504406090546218
 10
-5.789703951536571
 20
3.548559064785313
 10
-5.764212219974106
 20
3.592712039024409
 10
-5.738720488411641
 20
3.636865013263505
 10
-5.757381731088271
 20
3.706509719065065
 10
-5.731889999525808
 20
3.75066269330416
 10
-5.706398267963343
 20
3.794815667543255
 10
-5.68090653640088
 20
3.838968641782352
 10
-5.655414804838416
 20
3.883121616021447
 10
-5.62992307327595
 20
3.927274590260543
 10
-5.604431341713485
 20
3.971427564499638
 10
-5.57893961015102
 20
4.015580538738734
 10
-5.553447878588558
 20
4.05973351297783
 10
-5.483803172786998
 20
4.07839475565446
 10
-5.458311441224533
 20
4.122547729893556
 10
-5.407327978099603
 20
4.210853678371747
 10
-5.337683272298044
 20
4.229514921048378
 10
-5.312191540735578
 20
4.273667895287474
 10
-5.286699809173115
 20
4.317820869526569
 10
-5.217055103371555
 20
4.3364821122032
 10
-5.19156337180909
 20
4.380635086442296
 10
-5.166071640246625
 20
4.424788060681392
 10
-5.12191866600753
 20
4.399296329118927
 10
-5.096426934445065
 20
4.443449303358022
 10
-5.070935202882601
 20
4.487602277597118
 10
-5.001290497081041
 20
4.506263520273749
 10
-4.975798765518578
 20
4.550416494512845
 10
-4.931645791279482
 20
4.524924762950381
 10
-4.906154059717016
 20
4.569077737189476
 10
-4.880662328154552
 20
4.613230711428572
 10
-4.811017622352993
 20
4.631891954105202
 10
-4.836509353915456
 20
4.587738979866107
  0
LWPOLYLINE
  5
66
100
AcDbEntity
  8
0
  6
ByLayer
 62
  256
370
   -1
100
AcDbPolyline
 90
   51
 70
    0
 43
0
 10
-2.498189693121515
 20
4.428107008746159
 10
-2.498189693121515
 20
4.37712354562123
 10
-2.447206229996586
 20
4.37712354562123
 10
-2.396222766871657
 20
4.326140082496301
 10
-2.345239303746728
 20
4.326140082496301
 10
-2.294255840621799
 20
4.275156619371373
 10
-2.192288914371941
 20
4.275156619371373
 10
-2.141305451247013
 20
4.224173156246444
 10
-2.039338524997155
 20
4.224173156246444
 10
-1.988355061872226
 20
4.173189693121515
 10
-1.988355061872226
 20
4.122206229996586
 10
-1.988355061872226
 20
4.071222766871657
 10
-2.039338524997155
 20
4.071222766871657
 10
-2.039338524997155
 20
4.020239303746728
 10
-2.090321988122084
 20
3.969255840621799
 10
-2.090321988122084
 20
3.867288914371942
 10
-2.141305451247013
 20
3.816305451247012
 10
-2.141305451247013
 20
3.765321988122083
 10
-2.192288914371941
 20
3.714338524997155
 10
-2.192288914371941
 20
3.663355061872227
 10
-2.192288914371941
 20
3.612371598747297
 10
-2.141305451247013
 20
3.561388135622368
 10
-2.141305451247013
 20
3.510404672497439
 10
-2.141305451247013
 20
3.459421209372511
 10
-2.141305451247013
 20
3.408437746247581
 10
-2.192288914371941
 20
3.357454283122653
 10
-2.24327237749687
 20
3.306470819997724
 10
-2.24327237749687
 20
3.255487356872795
 10
-2.294255840621799
 20
3.255487356872795
 10
-2.294255840621799
 20
3.204503893747866
 10
-2.345239303746728
 20
3.153520430622937
 10
-2.396222766871657
 20
3.102536967498009
 10
-2.447206229996586
 20
3.05155350437308
 10
-2.447206229996586
 20
3.00057004124815
 10
-2.447206229996586
 20
2.949586578123222
 10
-2.447206229996586
 20
2.898603114998293
 10
-2.498189693121515
 20
2.898603114998293
 10
-2.498189693121515
 20
2.847619651873365
 10
-2.549173156246443
 20
2.847619651873365
 10
-2.549173156246443
 20
2.796636188748435
 10
-2.549173156246443
 20
2.745652725623507
 10
-2.600156619371373
 20
2.745652725623507
 10
-2.600156619371373
 20
2.694669262498578
 10
-2.651140082496301
 20
2.643685799373649
 10
-2.70212354562123
 20
2.59270233624872
 10
-2.70212354562123
 20
2.541718873123791
 10
-2.753107008746159
 20
2.541718873123791
 10
-2.804090471871088
 20
2.490735409998862
 10
-2.855073934996017
 20
2.490735409998862
 10
-2.906057398120946
 20
2.541718873123791
 10
-2.957040861245875
 20
2.541718873123791
  0
LWPOLYLINE
  5
67
100
AcDbEntity
  8
0
  6
ByLayer
 62
  256
370
   -1
100
AcDbPolyline
 90
   90
 70
    0
 43
0
 10
9.254375000000001
 20
-4.355
 10
9.003125000000001
 20
-4.731875
 10
8.96125
 20
-4.94125
 10
8.835625
 20
-5.025
 10
8.751875
 20
-5.108750000000001
 10
8.668125
 20
-5.1925
 10
8.626250000000001
 20
-5.234375
 10
8.514238341863122
 20
-5.40424709124246
 10
8.463254878738192
 20
-5.40424709124246
 10
8.412271415613263
 20
-5.40424709124246
 10
8.361287952488334
 20
-5.40424709124246
 10
8.310304489363407
 20
-5.40424709124246
 10
8.259321026238478
 20
-5.40424709124246
 10
8.208337563113547
 20
-5.40424709124246
 10
8.15735409998862
 20
-5.40424709124246
 10
8.106370636863691
 20
-5.40424709124246
 10
8.055387173738762
 20
-5.40424709124246
 10
8.004403710613833
 20
-5.40424709124246
 10
7.953420247488904
 20
-5.40424709124246
 10
7.953420247488904
 20
-5.353263628117531
 10
7.902436784363975
 20
-5.353263628117531
 10
7.851453321239045
 20
-5.353263628117531
 10
7.800469858114117
 20
-5.353263628117531
 10
7.69850293186426
 20
-5.353263628117531
 10
7.64751946873933
 20
-5.40424709124246
 10
7.545552542489474
 20
-5.40424709124246
 10
7.494569079364544
 20
-5.40424709124246
 10
7.392602153114686
 20
-5.40424709124246
 10
7.341618689989758
 20
-5.455230554367389
 10
7.2396517637399
 20
-5.455230554367389
 10
7.188668300614971
 20
-5.506214017492319
 10
7.137684837490043
 20
-5.506214017492319
 10
7.086701374365113
 20
-5.557197480617247
 10
6.984734448115256
 20
-5.608180943742176
 10
6.933750984990326
 20
-5.608180943742176
 10
6.882767521865397
 20
-5.659164406867105
 10
6.831784058740469
 20
-5.659164406867105
 10
6.78080059561554
 20
-5.710147869992034
 10
6.72981713249061
 20
-5.710147869992034
 10
6.678833669365682
 20
-5.761131333116962
 10
6.627850206240754
 20
-5.812114796241891
 10
6.576866743115825
 20
-5.812114796241891
 10
6.576866743115825
 20
-5.86309825936682
 10
6.525883279990896
 20
-5.914081722491749
 10
6.474899816865967
 20
-5.965065185616678
 10
6.423916353741038
 20
-6.016048648741608
 10
6.423916353741038
 20
-6.067032111866536
 10
6.372932890616108
 20
-6.118015574991465
 10
6.32194942749118
 20
-6.168999038116393
 10
6.270965964366251
 20
-6.219982501241323
 10
6.219982501241323
 20
-6.270965964366251
 10
6.219982501241323
 20
-6.32194942749118
 10
6.168999038116393
 20
-6.372932890616108
 10
6.168999038116393
 20
-6.423916353741038
 10
6.168999038116393
 20
-6.474899816865967
 10
6.118015574991465
 20
-6.474899816865967
 10
6.118015574991465
 20
-6.525883279990896
 10
6.067032111866536
 20
-6.525883279990896
 10
6.067032111866536
 20
-6.576866743115825
 10
6.016048648741608
 20
-6.627850206240754
 10
5.965065185616678
 20
-6.678833669365682
 10
5.965065185616678
 20
-6.72981713249061
 10
5.914081722491749
 20
-6.78080059561554
 10
5.914081722491749
 20
-6.831784058740469
 10
5.914081722491749
 20
-6.882767521865397
 10
5.914081722491749
 20
-6.933750984990326
 10
5.914081722491749
 20
-6.984734448115256
 10
5.86309825936682
 20
-6.984734448115256
 10
5.86309825936682
 20
-7.035717911240185
 10
5.812114796241891
 20
-7.086701374365113
 10
5.761131333116962
 20
-7.086701374365113
 10
5.710147869992034
 20
-7.137684837490043
 10
5.659164406867105
 20
-7.137684837490043
 10
5.608180943742176
 20
-7.137684837490043
 10
5.557197480617247
 20
-7.188668300614971
 10
5.506214017492319
 20
-7.188668300614971
 10
5.455230554367389
 20
-7.2396517637399
 10
5.40424709124246
 20
-7.2396517637399
 10
5.353263628117531
 20
-7.2396517637399
 10
5.302280164992602
 20
-7.2396517637399
 10
5.200313238742745
 20
-7.290635226864828
 10
5.149329775617816
 20
-7.290635226864828
 10
5.047362849367959
 20
-7.290635226864828
 10
4.945395923118101
 20
-7.341618689989758
 10
4.894412459993172
 20
-7.341618689989758
 10
4.792445533743314
 20
-7.341618689989758
 10
4.690478607493456
 20
-7.392602153114686
 10
4.639495144368527
 20
-7.392602153114686
 10
4.588511681243599
 20
-7.443585616239615
 10
4.53752821811867
 20
-7.443585616239615
  0
LWPOLYLINE
  5
68
100
AcDbEntity
  8
0
  6
ByLayer
 62
  256
370
   -1
100
AcDbPolyline
 90
   57
 70
    0
 43
0
 10
-1.529503893747866
 20
-1.529503893747866
 10
-1.478520430622937
 20
-1.529503893747866
 10
-1.427536967498009
 20
-1.529503893747866
 10
-1.37655350437308
 20
-1.529503893747866
 10
-1.325570041248151
 20
-1.529503893747866
 10
-1.274586578123222
 20
-1.580487356872795
 10
-1.223603114998293
 20
-1.580487356872795
 10
-1.223603114998293
 20
-1.631470819997724
 10
-1.223603114998293
 20
-1.682454283122653
 10
-1.172619651873364
 20
-1.682454283122653
 10
-1.121636188748435
 20
-1.733437746247581
 10
-1.070652725623506
 20
-1.784421209372511
 10
-1.019669262498577
 20
-1.784421209372511
 10
-1.019669262498577
 20
-1.83540467249744
 10
-0.9686857993736486
 20
-1.83540467249744
 10
-0.9177023362487198
 20
-1.886388135622368
 10
-0.8667188731237907
 20
-1.886388135622368
 10
-0.815735409998862
 20
-1.937371598747297
 10
-0.7647519468739331
 20
-1.988355061872226
 10
-0.7137684837490043
 20
-1.988355061872226
 10
-0.6627850206240753
 20
-1.988355061872226
 10
-0.6118015574991464
 20
-1.988355061872226
 10
-0.5608180943742176
 20
-1.988355061872226
 10
-0.5098346312492887
 20
-1.988355061872226
 10
-0.4588511681243599
 20
-1.988355061872226
 10
-0.407867704999431
 20
-1.988355061872226
 10
-0.3568842418745021
 20
-1.988355061872226
 10
-0.3059007787495732
 20
-1.988355061872226
 10
-0.2549173156246444
 20
-1.988355061872226
 10
-0.2039338524997155
 20
-1.988355061872226
 10
-0.1529503893747866
 20
-1.988355061872226
 10
-0.1019669262498577
 20
-1.988355061872226
 10
-0.05098346312492887
 20
-1.988355061872226
 10
0
 20
-1.988355061872226
 10
0.05098346312492887
 20
-1.988355061872226
 10
0.1019669262498577
 20
-1.988355061872226
 10
0.2039338524997155
 20
-2.039338524997155
 10
0.3059007787495732
 20
-2.039338524997155
 10
0.407867704999431
 20
-2.039338524997155
 10
0.4588511681243599
 20
-2.039338524997155
 10
0.5608180943742176
 20
-2.039338524997155
 10
0.6118015574991464
 20
-2.090321988122084
 10
0.6627850206240753
 20
-2.090321988122084
 10
0.6627850206240753
 20
-2.141305451247013
 10
0.6627850206240753
 20
-2.192288914371941
 10
0.7137684837490043
 20
-2.192288914371941
 10
0.7137684837490043
 20
-2.24327237749687
 10
0.7137684837490043
 20
-2.294255840621799
 10
0.7647519468739331
 20
-2.294255840621799
 10
0.7647519468739331
 20
-2.345239303746728
 10
0.7647519468739331
 20
-2.396222766871657
 10
0.815735409998862
 20
-2.396222766871657
 10
0.815735409998862
 20
-2.447206229996586
 10
0.815735409998862
 20
-2.498189693121515
 10
0.815735409998862
 20
-2.549173156246443
 10
0.7647519468739331
 20
-2.549173156246443
 10
0.7647519468739331
 20
-2.600156619371373
  0
LWPOLYLINE
  5
69
100
AcDbEntity
  8
0
  6
ByLayer
 62
  256
370
   -1
100
AcDbPolyline
 90
   42
 70
    0
 43
0
 10
-0.3248055976976187
 20
-3.945722623236019
 10
-0.3901517531434516
 20
-3.91525121052064
 10
-0.4250264958739057
 20
-3.819433642359428
 10
-0.442463867239133
 20
-3.771524858278821
 10
-0.4903726513197392
 20
-3.788962229644049
 10
-0.5078100226849663
 20
-3.741053445563442
 10
-0.5557188067655725
 20
-3.758490816928669
 10
-0.6210649622114055
 20
-3.728019404213291
 10
-0.6689737462920117
 20
-3.745456775578518
 10
-0.7822286858184511
 20
-3.732422734228365
 10
-0.8475748412642843
 20
-3.701951321512987
 10
-0.8954836253448907
 20
-3.719388692878214
 10
-1.00873856487133
 20
-3.706354651528062
 10
-1.056647348951936
 20
-3.723792022893289
 10
-1.169902288478375
 20
-3.710757981543138
 10
-1.235248443924209
 20
-3.680286568827758
 10
-1.348503383450648
 20
-3.667252527477606
 10
-1.44432095161186
 20
-3.702127270208061
 10
-1.509667107057694
 20
-3.671655857492681
 10
-1.622922046584133
 20
-3.65862181614253
 10
-1.688268202029967
 20
-3.628150403427151
 10
-1.7536143574758
 20
-3.597678990711771
 10
-1.849431925637012
 20
-3.632553733442225
 10
-1.914778081082845
 20
-3.602082320726847
 10
-2.028033020609284
 20
-3.589048279376695
 10
-2.093379176055117
 20
-3.558576866661316
 10
-2.141287960135724
 20
-3.576014238026543
 10
-2.206634115581557
 20
-3.545542825311164
 10
-2.27198027102739
 20
-3.515071412595785
 10
-2.289417642392618
 20
-3.467162628515179
 10
-2.241508858312011
 20
-3.449725257149951
 10
-2.258946229677238
 20
-3.401816473069346
 10
-2.228474816961859
 20
-3.336470317623512
 10
-2.245912188327087
 20
-3.288561533542906
 10
-2.19800340424648
 20
-3.271124162177679
 10
-2.215440775611707
 20
-3.223215378097073
 10
-2.184969362896328
 20
-3.15786922265124
 10
-2.202406734261556
 20
-3.109960438570634
 10
-2.219844105626783
 20
-3.062051654490027
 10
-2.285190261072616
 20
-3.031580241774648
 10
-2.333099045153222
 20
-3.049017613139875
 10
-2.381007829233828
 20
-3.066454984505103
  0
LWPOLYLINE
  5
6A
100
AcDbEntity
  8
0
  6
ByLayer
 62
  256
370
   -1
100
AcDbPolyline
 90
 1594
 70
    0
 43
0
 10
-8.718172194362836
 20
6.72981713249061
 10
-8.667188731237909
 20
6.72981713249061
 10
-8.61620526811298
 20
6.78080059561554
 10
-8.565221804988051
 20
6.78080059561554
 10
-8.514238341863122
 20
6.78080059561554
 10
-8.463254878738192
 20
6.831784058740469
 10
-8.412271415613263
 20
6.831784058740469
 10
-8.361287952488334
 20
6.882767521865397
 10
-8.310304489363407
 20
6.882767521865397
 10
-8.259321026238478
 20
6.933750984990326
 10
-8.208337563113547
 20
6.933750984990326
 10
-8.15735409998862
 20
6.984734448115256
 10
-8.106370636863691
 20
6.984734448115256
 10
-8.106370636863691
 20
7.035717911240185
 10
-8.055387173738762
 20
7.035717911240185
 10
-8.004403710613833
 20
7.086701374365113
 10
-7.953420247488904
 20
7.086701374365113
 10
-7.953420247488904
 20
7.137684837490043
 10
-7.902436784363975
 20
7.137684837490043
 10
-7.902436784363975
 20
7.188668300614971
 10
-7.851453321239045
 20
7.188668300614971
 10
-7.851453321239045
 20
7.2396517637399
 10
-7.800469858114117
 20
7.290635226864828
 10
-7.800469858114117
 20
7.341618689989758
 10
-7.749486394989189
 20
7.392602153114686
 10
-7.749486394989189
 20
7.443585616239615
 10
-7.69850293186426
 20
7.443585616239615
 10
-7.69850293186426
 20
7.494569079364544
 10
-7.64751946873933
 20
7.545552542489474
 10
-7.64751946873933
 20
7.596536005614402
 10
-7.596536005614402
 20
7.596536005614402
 10
-7.596536005614402
 20
7.64751946873933
 10
-7.545552542489474
 20
7.64751946873933
 10
-7.545552542489474
 20
7.69850293186426
 10
-7.494569079364544
 20
7.749486394989189
 10
-7.494569079364544
 20
7.800469858114117
 10
-7.443585616239615
 20
7.800469858114117
 10
-7.443585616239615
 20
7.851453321239045
 10
-7.392602153114686
 20
7.851453321239045
 10
-7.392602153114686
 20
7.902436784363975
 10
-7.341618689989758
 20
7.902436784363975
 10
-7.341618689989758
 20
7.953420247488904
 10
-7.290635226864828
 20
8.004403710613833
 10
-7.290635226864828
 20
8.055387173738762
 10
-7.2396517637399
 20
8.106370636863691
 10
-7.188668300614971
 20
8.15735409998862
 10
-7.188668300614971
 20
8.208337563113547
 10
-7.137684837490043
 20
8.208337563113547
 10
-7.137684837490043
 20
8.259321026238478
 10
-7.086701374365113
 20
8.259321026238478
 10
-7.035717911240185
 20
8.310304489363407
 10
-6.984734448115256
 20
8.310304489363407
 10
-6.933750984990326
 20
8.361287952488334
 10
-6.933750984990326
 20
8.412271415613263
 10
-6.882767521865397
 20
8.412271415613263
 10
-6.831784058740469
 20
8.463254878738192
 10
-6.78080059561554
 20
8.463254878738192
 10
-6.78080059561554
 20
8.514238341863122
 10
-6.72981713249061
 20
8.514238341863122
 10
-6.678833669365682
 20
8.565221804988051
 10
-6.627850206240754
 20
8.565221804988051
 10
-6.576866743115825
 20
8.61620526811298
 10
-6.525883279990896
 20
8.61620526811298
 10
-6.474899816865967
 20
8.61620526811298
 10
-6.423916353741038
 20
8.667188731237909
 10
-6.423916353741038
 20
8.718172194362836
 10
-6.372932890616108
 20
8.718172194362836
 10
-6.32194942749118
 20
8.769155657487765
 10
-6.32194942749118
 20
8.820139120612696
 10
-6.270965964366251
 20
8.820139120612696
 10
-6.219982501241323
 20
8.871122583737623
 10
-6.168999038116393
 20
8.871122583737623
 10
-6.118015574991465
 20
8.922106046862552
 10
-6.067032111866536
 20
8.973089509987481
 10
-6.016048648741608
 20
9.024072973112411
 10
-5.965065185616678
 20
9.024072973112411
 10
-5.914081722491749
 20
9.07505643623734
 10
-5.914081722491749
 20
9.126039899362267
 10
-5.86309825936682
 20
9.126039899362267
 10
-5.812114796241891
 20
9.177023362487198
 10
-5.812114796241891
 20
9.228006825612127
 10
-5.761131333116962
 20
9.228006825612127
 10
-5.710147869992034
 20
9.278990288737054
 10
-5.659164406867105
 20
9.329973751861983
 10
-5.608180943742176
 20
9.329973751861983
 10
-5.557197480617247
 20
9.329973751861983
 10
-5.506214017492319
 20
9.380957214986912
 10
-5.455230554367389
 20
9.380957214986912
 10
-5.40424709124246
 20
9.380957214986912
 10
-5.353263628117531
 20
9.431940678111841
 10
-5.302280164992602
 20
9.431940678111841
 10
-5.251296701867674
 20
9.431940678111841
 10
-5.251296701867674
 20
9.380957214986912
 10
-5.200313238742745
 20
9.380957214986912
 10
-5.200313238742745
 20
9.329973751861983
 10
-5.149329775617816
 20
9.329973751861983
 10
-5.149329775617816
 20
9.278990288737054
 10
-5.149329775617816
 20
9.228006825612127
 10
-5.098346312492887
 20
9.228006825612127
 10
-5.098346312492887
 20
9.177023362487198
 10
-5.047362849367959
 20
9.177023362487198
 10
-5.047362849367959
 20
9.126039899362267
 10
-4.99637938624303
 20
9.126039899362267
 10
-4.99637938624303
 20
9.177023362487198
 10
-4.945395923118101
 20
9.177023362487198
 10
-4.894412459993172
 20
9.228006825612127
 10
-4.894412459993172
 20
9.278990288737054
 10
-4.843428996868242
 20
9.278990288737054
 10
-4.843428996868242
 20
9.329973751861983
 10
-4.792445533743314
 20
9.380957214986912
 10
-4.741462070618385
 20
9.431940678111841
 10
-4.690478607493456
 20
9.48292414123677
 10
-4.639495144368527
 20
9.533907604361699
 10
-4.588511681243599
 20
9.584891067486629
 10
-4.53752821811867
 20
9.584891067486629
 10
-4.53752821811867
 20
9.635874530611556
 10
-4.486544754993741
 20
9.635874530611556
 10
-4.486544754993741
 20
9.686857993736485
 10
-4.435561291868812
 20
9.686857993736485
 10
-4.435561291868812
 20
9.737841456861416
 10
-4.384577828743883
 20
9.737841456861416
 10
-4.333594365618954
 20
9.788824919986343
 10
-4.282610902494025
 20
9.788824919986343
 10
-4.231627439369096
 20
9.839808383111272
 10
-4.180643976244167
 20
9.839808383111272
 10
-4.129660513119239
 20
9.890791846236201
 10
-4.07867704999431
 20
9.890791846236201
 10
-4.027693586869381
 20
9.94177530936113
 10
-3.976710123744452
 20
9.94177530936113
 10
-3.925726660619523
 20
9.94177530936113
 10
-3.874743197494595
 20
9.94177530936113
 10
-3.823759734369665
 20
9.992758772486059
 10
-3.772776271244737
 20
9.992758772486059
 10
-3.721792808119807
 20
10.04374223561099
 10
-3.670809344994879
 20
10.04374223561099
 10
-3.61982588186995
 20
10.09472569873592
 10
-3.568842418745021
 20
10.09472569873592
 10
-3.517858955620092
 20
10.09472569873592
 10
-3.466875492495163
 20
10.09472569873592
 10
-3.466875492495163
 20
10.14570916186084
 10
-3.415892029370235
 20
10.14570916186084
 10
-3.364908566245305
 20
10.14570916186084
 10
-3.364908566245305
 20
10.19669262498577
 10
-3.313925103120377
 20
10.19669262498577
 10
-3.262941639995448
 20
10.19669262498577
 10
-3.211958176870519
 20
10.2476760881107
 10
-3.16097471374559
 20
10.2476760881107
 10
-3.109991250620662
 20
10.29865955123563
 10
-3.059007787495732
 20
10.29865955123563
 10
-3.059007787495732
 20
10.34964301436056
 10
-3.008024324370804
 20
10.34964301436056
 10
-2.957040861245875
 20
10.34964301436056
 10
-2.906057398120946
 20
10.40062647748549
 10
-2.855073934996017
 20
10.40062647748549
 10
-2.804090471871088
 20
10.40062647748549
 10
-2.753107008746159
 20
10.40062647748549
 10
-2.70212354562123
 20
10.40062647748549
 10
-2.651140082496301
 20
10.40062647748549
 10
-2.600156619371373
 20
10.45160994061042
 10
-2.549173156246443
 20
10.45160994061042
 10
-2.498189693121515
 20
10.45160994061042
 10
-2.396222766871657
 20
10.45160994061042
 10
-2.345239303746728
 20
10.45160994061042
 10
-2.294255840621799
 20
10.45160994061042
 10
-2.24327237749687
 20
10.45160994061042
 10
-2.192288914371941
 20
10.45160994061042
 10
-2.141305451247013
 20
10.45160994061042
 10
-2.090321988122084
 20
10.45160994061042
 10
-2.039338524997155
 20
10.50259340373535
 10
-1.937371598747297
 20
10.50259340373535
 10
-1.886388135622368
 20
10.50259340373535
 10
-1.83540467249744
 20
10.50259340373535
 10
-1.784421209372511
 20
10.50259340373535
 10
-1.733437746247581
 20
10.55357686686028
 10
-1.682454283122653
 20
10.55357686686028
 10
-1.631470819997724
 20
10.55357686686028
 10
-1.580487356872795
 20
10.55357686686028
 10
-1.580487356872795
 20
10.6045603299852
 10
-1.529503893747866
 20
10.6045603299852
 10
-1.478520430622937
 20
10.6045603299852
 10
-1.427536967498009
 20
10.6045603299852
 10
-1.37655350437308
 20
10.6045603299852
 10
-1.37655350437308
 20
10.65554379311014
 10
-1.325570041248151
 20
10.65554379311014
 10
-1.274586578123222
 20
10.65554379311014
 10
-1.223603114998293
 20
10.65554379311014
 10
-1.121636188748435
 20
10.65554379311014
 10
-1.070652725623506
 20
10.65554379311014
 10
-1.019669262498577
 20
10.65554379311014
 10
-0.9686857993736486
 20
10.70652725623506
 10
-0.9177023362487198
 20
10.70652725623506
 10
-0.8667188731237907
 20
10.70652725623506
 10
-0.815735409998862
 20
10.70652725623506
 10
-0.7647519468739331
 20
10.70652725623506
 10
-0.7137684837490043
 20
10.75751071935999
 10
-0.6627850206240753
 20
10.75751071935999
 10
-0.6118015574991464
 20
10.75751071935999
 10
-0.5608180943742176
 20
10.75751071935999
 10
-0.5098346312492887
 20
10.75751071935999
 10
-0.4588511681243599
 20
10.80849418248492
 10
-0.407867704999431
 20
10.80849418248492
 10
-0.3568842418745021
 20
10.80849418248492
 10
-0.3059007787495732
 20
10.80849418248492
 10
-0.2549173156246444
 20
10.85947764560985
 10
-0.2039338524997155
 20
10.85947764560985
 10
-0.1529503893747866
 20
10.85947764560985
 10
-0.1529503893747866
 20
10.80849418248492
 10
-0.1529503893747866
 20
10.75751071935999
 10
0.1019669262498577
 20
10.65554379311014
 10
0.1529503893747866
 20
10.65554379311014
 10
0.2039338524997155
 20
10.70652725623506
 10
0.3059007787495732
 20
10.75751071935999
 10
0.3568842418745021
 20
10.75751071935999
 10
0.407867704999431
 20
10.80849418248492
 10
0.4588511681243599
 20
10.80849418248492
 10
0.5098346312492887
 20
10.80849418248492
 10
0.5608180943742176
 20
10.85947764560985
 10
0.6118015574991464
 20
10.85947764560985
 10
0.6627850206240753
 20
10.91046110873478
 10
0.7137684837490043
 20
10.96144457185971
 10
0.7647519468739331
 20
10.96144457185971
 10
0.815735409998862
 20
11.01242803498464
 10
0.8667188731237907
 20
11.01242803498464
 10
0.9177023362487198
 20
11.01242803498464
 10
0.9686857993736486
 20
11.06341149810956
 10
1.019669262498577
 20
11.06341149810956
 10
1.070652725623506
 20
11.06341149810956
 10
1.121636188748435
 20
11.11439496123449
 10
1.172619651873364
 20
11.11439496123449
 10
1.223603114998293
 20
11.11439496123449
 10
1.274586578123222
 20
11.11439496123449
 10
1.325570041248151
 20
11.11439496123449
 10
1.37655350437308
 20
11.06341149810956
 10
1.427536967498009
 20
11.01242803498464
 10
1.427536967498009
 20
10.96144457185971
 10
1.478520430622937
 20
10.96144457185971
 10
1.478520430622937
 20
10.91046110873478
 10
1.529503893747866
 20
10.91046110873478
 10
1.529503893747866
 20
10.85947764560985
 10
1.580487356872795
 20
10.85947764560985
 10
1.631470819997724
 20
10.85947764560985
 10
1.682454283122653
 20
10.85947764560985
 10
1.733437746247581
 20
10.85947764560985
 10
1.784421209372511
 20
10.85947764560985
 10
1.83540467249744
 20
10.85947764560985
 10
1.886388135622368
 20
10.85947764560985
 10
1.937371598747297
 20
10.85947764560985
 10
1.988355061872226
 20
10.85947764560985
 10
2.039338524997155
 20
10.85947764560985
 10
2.090321988122084
 20
10.85947764560985
 10
2.192288914371941
 20
10.91046110873478
 10
2.24327237749687
 20
10.91046110873478
 10
2.294255840621799
 20
10.91046110873478
 10
2.345239303746728
 20
10.91046110873478
 10
2.396222766871657
 20
10.91046110873478
 10
2.447206229996586
 20
10.91046110873478
 10
2.498189693121515
 20
10.91046110873478
 10
2.549173156246443
 20
10.85947764560985
 10
2.600156619371373
 20
10.85947764560985
 10
2.651140082496301
 20
10.80849418248492
 10
2.70212354562123
 20
10.80849418248492
 10
2.753107008746159
 20
10.80849418248492
 10
2.804090471871088
 20
10.80849418248492
 10
2.804090471871088
 20
10.75751071935999
 10
2.804090471871088
 20
10.70652725623506
 10
2.855073934996017
 20
10.70652725623506
 10
2.855073934996017
 20
10.65554379311014
 10
2.906057398120946
 20
10.65554379311014
 10
2.957040861245875
 20
10.65554379311014
 10
3.008024324370804
 20
10.65554379311014
 10
3.059007787495732
 20
10.65554379311014
 10
3.059007787495732
 20
10.6045603299852
 10
3.109991250620662
 20
10.6045603299852
 10
3.16097471374559
 20
10.6045603299852
 10
3.211958176870519
 20
10.6045603299852
 10
3.262941639995448
 20
10.6045603299852
 10
3.262941639995448
 20
10.55357686686028
 10
3.313925103120377
 20
10.55357686686028
 10
3.364908566245305
 20
10.55357686686028
 10
3.415892029370235
 20
10.55357686686028
 10
3.466875492495163
 20
10.55357686686028
 10
3.517858955620092
 20
10.55357686686028
 10
3.568842418745021
 20
10.55357686686028
 10
3.61982588186995
 20
10.55357686686028
 10
3.670809344994879
 20
10.50259340373535
 10
3.721792808119807
 20
10.50259340373535
 10
3.772776271244737
 20
10.50259340373535
 10
3.823759734369665
 20
10.50259340373535
 10
3.874743197494595
 20
10.50259340373535
 10
3.925726660619523
 20
10.50259340373535
 10
3.976710123744452
 20
10.50259340373535
 10
4.027693586869381
 20
10.45160994061042
 10
4.07867704999431
 20
10.45160994061042
 10
4.129660513119239
 20
10.45160994061042
 10
4.180643976244167
 20
10.40062647748549
 10
4.231627439369096
 20
10.40062647748549
 10
4.282610902494025
 20
10.40062647748549
 10
4.333594365618954
 20
10.40062647748549
 10
4.384577828743883
 20
10.40062647748549
 10
4.384577828743883
 20
10.34964301436056
 10
4.435561291868812
 20
10.34964301436056
 10
4.435561291868812
 20
10.29865955123563
 10
4.435561291868812
 20
10.2476760881107
 10
4.435561291868812
 20
10.19669262498577
 10
4.486544754993741
 20
10.19669262498577
 10
4.486544754993741
 20
10.14570916186084
 10
4.53752821811867
 20
10.14570916186084
 10
4.588511681243599
 20
10.09472569873592
 10
4.639495144368527
 20
10.09472569873592
 10
4.690478607493456
 20
10.09472569873592
 10
4.741462070618385
 20
10.04374223561099
 10
4.792445533743314
 20
10.04374223561099
 10
4.843428996868242
 20
10.04374223561099
 10
4.894412459993172
 20
10.04374223561099
 10
4.945395923118101
 20
9.992758772486059
 10
4.99637938624303
 20
9.992758772486059
 10
5.047362849367959
 20
9.94177530936113
 10
5.098346312492887
 20
9.94177530936113
 10
5.149329775617816
 20
9.94177530936113
 10
5.200313238742745
 20
9.890791846236201
 10
5.251296701867674
 20
9.890791846236201
 10
5.302280164992602
 20
9.890791846236201
 10
5.353263628117531
 20
9.890791846236201
 10
5.40424709124246
 20
9.890791846236201
 10
5.455230554367389
 20
9.890791846236201
 10
5.506214017492319
 20
9.839808383111272
 10
5.506214017492319
 20
9.788824919986343
 10
5.455230554367389
 20
9.737841456861416
 10
5.455230554367389
 20
9.686857993736485
 10
5.40424709124246
 20
9.686857993736485
 10
5.40424709124246
 20
9.635874530611556
 10
5.353263628117531
 20
9.635874530611556
 10
5.44152948082486
 20
9.251797373613664
 10
5.44152948082486
 20
9.251797373613664
 10
5.455230554367389
 20
8.973089509987481
 10
5.506214017492319
 20
8.973089509987481
 10
5.557197480617247
 20
8.973089509987481
 10
5.659164406867105
 20
8.973089509987481
 10
5.710147869992034
 20
8.973089509987481
 10
5.761131333116962
 20
8.973089509987481
 10
5.86309825936682
 20
8.973089509987481
 10
5.914081722491749
 20
8.973089509987481
 10
5.965065185616678
 20
9.024072973112411
 10
6.016048648741608
 20
9.024072973112411
 10
6.118015574991465
 20
9.024072973112411
 10
6.168999038116393
 20
9.07505643623734
 10
6.219982501241323
 20
9.07505643623734
 10
6.32194942749118
 20
9.07505643623734
 10
6.372932890616108
 20
9.024072973112411
 10
6.474899816865967
 20
9.024072973112411
 10
6.576866743115825
 20
9.024072973112411
 10
6.678833669365682
 20
9.024072973112411
 10
6.72981713249061
 20
9.024072973112411
 10
6.831784058740469
 20
9.024072973112411
 10
6.882767521865397
 20
9.024072973112411
 10
6.933750984990326
 20
8.973089509987481
 10
6.933750984990326
 20
8.922106046862552
 10
6.933750984990326
 20
8.871122583737623
 10
6.933750984990326
 20
8.820139120612696
 10
6.984734448115256
 20
8.769155657487765
 10
7.035717911240185
 20
8.718172194362836
 10
7.086701374365113
 20
8.667188731237909
 10
7.086701374365113
 20
8.61620526811298
 10
7.086701374365113
 20
8.565221804988051
 10
7.086701374365113
 20
8.514238341863122
 10
7.086701374365113
 20
8.463254878738192
 10
7.086701374365113
 20
8.412271415613263
 10
7.086701374365113
 20
8.361287952488334
 10
7.086701374365113
 20
8.310304489363407
 10
7.137684837490043
 20
8.310304489363407
 10
7.137684837490043
 20
8.259321026238478
 10
7.137684837490043
 20
8.208337563113547
 10
7.188668300614971
 20
8.208337563113547
 10
7.2396517637399
 20
8.15735409998862
 10
7.290635226864828
 20
8.15735409998862
 10
7.341618689989758
 20
8.15735409998862
 10
7.341618689989758
 20
8.106370636863691
 10
7.392602153114686
 20
8.106370636863691
 10
7.443585616239615
 20
8.055387173738762
 10
7.545552542489474
 20
8.055387173738762
 10
7.64751946873933
 20
8.055387173738762
 10
7.69850293186426
 20
8.004403710613833
 10
7.800469858114117
 20
8.004403710613833
 10
7.931060727092603
 20
8.043274466441613
 10
8.055387173738762
 20
7.800469858114117
 10
8.055387173738762
 20
7.749486394989189
 10
8.004403710613833
 20
7.749486394989189
 10
8.004403710613833
 20
7.69850293186426
 10
8.004403710613833
 20
7.64751946873933
 10
7.953420247488904
 20
7.596536005614402
 10
7.953420247488904
 20
7.545552542489474
 10
7.953420247488904
 20
7.494569079364544
 10
7.953420247488904
 20
7.443585616239615
 10
7.953420247488904
 20
7.392602153114686
 10
7.953420247488904
 20
7.341618689989758
 10
7.953420247488904
 20
7.290635226864828
 10
7.953420247488904
 20
7.2396517637399
 10
7.953420247488904
 20
7.188668300614971
 10
7.953420247488904
 20
7.137684837490043
 10
8.004403710613833
 20
7.086701374365113
 10
8.004403710613833
 20
7.035717911240185
 10
8.055387173738762
 20
6.984734448115256
 10
8.055387173738762
 20
6.933750984990326
 10
8.055387173738762
 20
6.882767521865397
 10
8.106370636863691
 20
6.831784058740469
 10
8.15735409998862
 20
6.831784058740469
 10
8.15735409998862
 20
6.78080059561554
 10
8.208337563113547
 20
6.78080059561554
 10
8.259321026238478
 20
6.72981713249061
 10
8.310304489363407
 20
6.72981713249061
 10
8.361287952488334
 20
6.678833669365682
 10
8.412271415613263
 20
6.678833669365682
 10
8.463254878738192
 20
6.627850206240754
 10
8.514238341863122
 20
6.627850206240754
 10
8.565221804988051
 20
6.627850206240754
 10
8.61620526811298
 20
6.576866743115825
 10
8.667188731237909
 20
6.576866743115825
 10
8.718172194362836
 20
6.525883279990896
 10
8.718172194362836
 20
6.474899816865967
 10
8.769155657487765
 20
6.423916353741038
 10
8.820139120612696
 20
6.372932890616108
 10
8.871122583737623
 20
6.372932890616108
 10
8.922106046862552
 20
6.32194942749118
 10
8.973089509987481
 20
6.32194942749118
 10
8.973089509987481
 20
6.270965964366251
 10
9.024072973112411
 20
6.270965964366251
 10
9.024072973112411
 20
6.219982501241323
 10
9.07505643623734
 20
6.168999038116393
 10
9.126039899362267
 20
6.118015574991465
 10
9.177023362487198
 20
6.067032111866536
 10
9.228006825612127
 20
6.067032111866536
 10
9.278990288737054
 20
6.016048648741608
 10
9.278990288737054
 20
5.965065185616678
 10
9.278990288737054
 20
5.914081722491749
 10
9.329973751861983
 20
5.914081722491749
 10
9.380957214986912
 20
5.914081722491749
 10
9.431940678111841
 20
5.86309825936682
 10
9.48292414123677
 20
5.86309825936682
 10
9.533907604361699
 20
5.86309825936682
 10
9.584891067486629
 20
5.812114796241891
 10
9.584891067486629
 20
5.761131333116962
 10
9.533907604361699
 20
5.761131333116962
 10
9.48292414123677
 20
5.761131333116962
 10
9.48292414123677
 20
5.710147869992034
 10
9.431940678111841
 20
5.710147869992034
 10
9.431940678111841
 20
5.659164406867105
 10
9.431940678111841
 20
5.608180943742176
 10
9.380957214986912
 20
5.608180943742176
 10
9.380957214986912
 20
5.557197480617247
 10
9.329973751861983
 20
5.506214017492319
 10
9.278990288737054
 20
5.506214017492319
 10
9.228006825612127
 20
5.455230554367389
 10
9.177023362487198
 20
5.40424709124246
 10
9.126039899362267
 20
5.40424709124246
 10
9.07505643623734
 20
5.353263628117531
 10
9.024072973112411
 20
5.302280164992602
 10
8.96125
 20
4.983125
 10
8.96125
 20
4.983125
 10
8.96125
 20
4.983125
 10
9.177023362487198
 20
4.741462070618385
 10
9.278990288737054
 20
4.741462070618385
 10
9.329973751861983
 20
4.741462070618385
 10
9.431940678111841
 20
4.690478607493456
 10
9.533907604361699
 20
4.690478607493456
 10
9.635874530611556
 20
4.639495144368527
 10
9.737841456861416
 20
4.639495144368527
 10
9.839808383111272
 20
4.588511681243599
 10
9.890791846236201
 20
4.588511681243599
 10
9.992758772486059
 20
4.53752821811867
 10
10.04374223561099
 20
4.53752821811867
 10
10.04374223561099
 20
4.486544754993741
 10
10.09472569873592
 20
4.486544754993741
 10
10.09472569873592
 20
4.435561291868812
 10
10.04374223561099
 20
4.435561291868812
 10
10.04374223561099
 20
4.384577828743883
 10
10.04374223561099
 20
4.333594365618954
 10
10.09472569873592
 20
4.282610902494025
 10
10.09472569873592
 20
4.231627439369096
 10
10.14570916186084
 20
4.231627439369096
 10
10.19669262498577
 20
4.180643976244167
 10
10.2476760881107
 20
4.129660513119239
 10
10.2476760881107
 20
4.07867704999431
 10
10.29865955123563
 20
4.07867704999431
 10
10.29865955123563
 20
4.027693586869381
 10
10.34964301436056
 20
3.976710123744452
 10
10.34964301436056
 20
3.925726660619523
 10
10.40062647748549
 20
3.874743197494595
 10
10.40062647748549
 20
3.823759734369665
 10
10.45160994061042
 20
3.772776271244737
 10
10.50259340373535
 20
3.721792808119807
 10
10.50259340373535
 20
3.670809344994879
 10
10.55357686686028
 20
3.61982588186995
 10
10.55357686686028
 20
3.568842418745021
 10
10.55357686686028
 20
3.517858955620092
 10
10.55357686686028
 20
3.466875492495163
 10
10.6045603299852
 20
3.466875492495163
 10
10.65554379311014
 20
3.466875492495163
 10
10.65554379311014
 20
3.415892029370235
 10
10.70652725623506
 20
3.415892029370235
 10
10.75751071935999
 20
3.364908566245305
 10
10.80849418248492
 20
3.364908566245305
 10
10.85947764560985
 20
3.313925103120377
 10
10.91046110873478
 20
3.313925103120377
 10
10.96144457185971
 20
3.262941639995448
 10
10.96144457185971
 20
3.211958176870519
 10
10.96144457185971
 20
3.16097471374559
 10
10.91046110873478
 20
3.16097471374559
 10
10.91046110873478
 20
3.109991250620662
 10
10.85947764560985
 20
3.059007787495732
 10
10.75751071935999
 20
3.008024324370804
 10
10.70652725623506
 20
3.008024324370804
 10
10.6045603299852
 20
2.957040861245875
 10
10.55357686686028
 20
2.957040861245875
 10
10.50259340373535
 20
2.906057398120946
 10
10.45160994061042
 20
2.906057398120946
 10
10.40062647748549
 20
2.906057398120946
 10
10.34964301436056
 20
2.855073934996017
 10
10.29865955123563
 20
2.804090471871088
 10
10.2476760881107
 20
2.804090471871088
 10
10.2476760881107
 20
2.753107008746159
 10
10.19669262498577
 20
2.753107008746159
 10
10.19669262498577
 20
2.70212354562123
 10
10.14570916186084
 20
2.70212354562123
 10
10.14570916186084
 20
2.651140082496301
 10
10.09472569873592
 20
2.651140082496301
 10
10.09472569873592
 20
2.600156619371373
 10
10.04374223561099
 20
2.600156619371373
 10
10.04374223561099
 20
2.549173156246443
 10
10.04374223561099
 20
2.498189693121515
 10
9.992758772486059
 20
2.498189693121515
 10
9.992758772486059
 20
2.447206229996586
 10
9.992758772486059
 20
2.396222766871657
 10
9.94177530936113
 20
2.396222766871657
 10
9.94177530936113
 20
2.345239303746728
 10
9.94177530936113
 20
2.294255840621799
 10
9.94177530936113
 20
2.24327237749687
 10
9.992758772486059
 20
2.24327237749687
 10
9.992758772486059
 20
2.192288914371941
 10
9.992758772486059
 20
2.141305451247013
 10
10.04374223561099
 20
2.141305451247013
 10
10.09472569873592
 20
2.090321988122084
 10
10.14570916186084
 20
2.039338524997155
 10
10.19669262498577
 20
2.039338524997155
 10
10.19669262498577
 20
1.988355061872226
 10
10.2476760881107
 20
1.988355061872226
 10
10.29865955123563
 20
1.937371598747297
 10
10.34964301436056
 20
1.937371598747297
 10
10.34964301436056
 20
1.886388135622368
 10
10.40062647748549
 20
1.886388135622368
 10
10.45160994061042
 20
1.83540467249744
 10
10.50259340373535
 20
1.83540467249744
 10
10.50259340373535
 20
1.784421209372511
 10
10.55357686686028
 20
1.733437746247581
 10
10.55357686686028
 20
1.682454283122653
 10
10.55357686686028
 20
1.631470819997724
 10
10.55357686686028
 20
1.580487356872795
 10
10.6045603299852
 20
1.529503893747866
 10
10.65554379311014
 20
1.478520430622937
 10
10.65554379311014
 20
1.427536967498009
 10
10.65554379311014
 20
1.37655350437308
 10
10.65554379311014
 20
1.325570041248151
 10
10.6045603299852
 20
1.274586578123222
 10
10.6045603299852
 20
1.223603114998293
 10
10.6045603299852
 20
1.172619651873364
 10
10.6045603299852
 20
1.121636188748435
 10
10.65554379311014
 20
1.070652725623506
 10
10.65554379311014
 20
1.019669262498577
 10
10.70652725623506
 20
0.9686857993736486
 10
10.70652725623506
 20
0.9177023362487198
 10
10.65554379311014
 20
0.8667188731237907
 10
10.65554379311014
 20
0.815735409998862
 10
10.65554379311014
 20
0.7647519468739331
 10
10.70652725623506
 20
0.7137684837490043
 10
10.70652725623506
 20
0.6627850206240753
 10
10.75751071935999
 20
0.6118015574991464
 10
10.80849418248492
 20
0.5608180943742176
 10
10.80849418248492
 20
0.5098346312492887
 10
10.80849418248492
 20
0.4588511681243599
 10
10.80849418248492
 20
0.407867704999431
 10
10.80849418248492
 20
0.3568842418745021
 10
10.80849418248492
 20
0.3059007787495732
 10
10.85947764560985
 20
0.3059007787495732
 10
10.85947764560985
 20
0.2549173156246444
 10
10.85947764560985
 20
0.2039338524997155
 10
10.91046110873478
 20
0.1529503893747866
 10
10.96144457185971
 20
0.1019669262498577
 10
11.01242803498464
 20
0.05098346312492887
 10
11.06341149810956
 20
0.05098346312492887
 10
11.06341149810956
 20
-0.05098346312492887
 10
11.01242803498464
 20
-0.05098346312492887
 10
10.96144457185971
 20
-0.1019669262498577
 10
10.96144457185971
 20
-0.1529503893747866
 10
10.96144457185971
 20
-0.2039338524997155
 10
10.96144457185971
 20
-0.2549173156246444
 10
11.01242803498464
 20
-0.2549173156246444
 10
11.01242803498464
 20
-0.3059007787495732
 10
11.06341149810956
 20
-0.3568842418745021
 10
11.01242803498464
 20
-0.3568842418745021
 10
11.01242803498464
 20
-0.407867704999431
 10
11.01242803498464
 20
-0.4588511681243599
 10
10.96144457185971
 20
-0.4588511681243599
 10
10.96144457185971
 20
-0.5098346312492887
 10
11.01242803498464
 20
-0.6118015574991464
 10
10.96144457185971
 20
-0.6627850206240753
 10
10.96144457185971
 20
-0.7137684837490043
 10
10.96144457185971
 20
-0.815735409998862
 10
10.91046110873478
 20
-0.815735409998862
 10
10.91046110873478
 20
-0.8667188731237907
 10
10.91046110873478
 20
-0.9177023362487198
 10
10.91046110873478
 20
-0.9686857993736486
 10
10.91046110873478
 20
-1.019669262498577
 10
10.91046110873478
 20
-1.070652725623506
 10
10.85947764560985
 20
-1.121636188748435
 10
10.85947764560985
 20
-1.172619651873364
 10
10.80849418248492
 20
-1.223603114998293
 10
10.80849418248492
 20
-1.274586578123222
 10
10.80849418248492
 20
-1.325570041248151
 10
10.80849418248492
 20
-1.37655350437308
 10
10.80849418248492
 20
-1.427536967498009
 10
10.80849418248492
 20
-1.478520430622937
 10
10.80849418248492
 20
-1.529503893747866
 10
10.85947764560985
 20
-1.580487356872795
 10
10.85947764560985
 20
-1.631470819997724
 10
10.91046110873478
 20
-1.682454283122653
 10
10.91046110873478
 20
-1.733437746247581
 10
10.96144457185971
 20
-1.784421209372511
 10
11.01242803498464
 20
-1.83540467249744
 10
11.01242803498464
 20
-1.886388135622368
 10
11.01242803498464
 20
-1.937371598747297
 10
11.01242803498464
 20
-1.988355061872226
 10
11.06341149810956
 20
-1.988355061872226
 10
11.06341149810956
 20
-2.039338524997155
 10
11.06341149810956
 20
-2.090321988122084
 10
11.11439496123449
 20
-2.141305451247013
 10
11.11439496123449
 20
-2.192288914371941
 10
11.16537842435942
 20
-2.192288914371941
 10
11.16537842435942
 20
-2.24327237749687
 10
11.16537842435942
 20
-2.294255840621799
 10
11.16537842435942
 20
-2.345239303746728
 10
11.16537842435942
 20
-2.396222766871657
 10
11.16537842435942
 20
-2.447206229996586
 10
11.11439496123449
 20
-2.447206229996586
 10
11.11439496123449
 20
-2.498189693121515
 10
11.06341149810956
 20
-2.498189693121515
 10
11.01242803498464
 20
-2.549173156246443
 10
10.96144457185971
 20
-2.600156619371373
 10
10.96144457185971
 20
-2.651140082496301
 10
10.91046110873478
 20
-2.70212354562123
 10
10.91046110873478
 20
-2.753107008746159
 10
10.85947764560985
 20
-2.753107008746159
 10
10.80849418248492
 20
-2.804090471871088
 10
10.75751071935999
 20
-2.855073934996017
 10
10.70652725623506
 20
-2.855073934996017
 10
10.70652725623506
 20
-2.906057398120946
 10
10.70652725623506
 20
-2.957040861245875
 10
10.70652725623506
 20
-3.008024324370804
 10
10.70652725623506
 20
-3.059007787495732
 10
10.70652725623506
 20
-3.109991250620662
 10
10.70652725623506
 20
-3.16097471374559
 10
10.65554379311014
 20
-3.16097471374559
 10
10.65554379311014
 20
-3.211958176870519
 10
10.6045603299852
 20
-3.262941639995448
 10
10.55357686686028
 20
-3.262941639995448
 10
10.55357686686028
 20
-3.313925103120377
 10
10.50259340373535
 20
-3.364908566245305
 10
10.45160994061042
 20
-3.415892029370235
 10
10.45160994061042
 20
-3.466875492495163
 10
10.45160994061042
 20
-3.517858955620092
 10
10.45160994061042
 20
-3.568842418745021
 10
10.40062647748549
 20
-3.61982588186995
 10
10.40062647748549
 20
-3.670809344994879
 10
10.34964301436056
 20
-3.721792808119807
 10
10.29865955123563
 20
-3.772776271244737
 10
10.2476760881107
 20
-3.772776271244737
 10
10.2476760881107
 20
-3.823759734369665
 10
10.19669262498577
 20
-3.823759734369665
 10
10.19669262498577
 20
-3.874743197494595
 10
10.14570916186084
 20
-3.925726660619523
 10
10.14570916186084
 20
-3.976710123744452
 10
10.09472569873592
 20
-3.976710123744452
 10
10.09472569873592
 20
-4.027693586869381
 10
10.09472569873592
 20
-4.07867704999431
 10
10.09472569873592
 20
-4.129660513119239
 10
10.04374223561099
 20
-4.129660513119239
 10
10.04374223561099
 20
-4.180643976244167
 10
10.04374223561099
 20
-4.231627439369096
 10
10.04374223561099
 20
-4.282610902494025
 10
10.04374223561099
 20
-4.333594365618954
 10
10.09472569873592
 20
-4.333594365618954
 10
10.09472569873592
 20
-4.384577828743883
 10
10.09472569873592
 20
-4.435561291868812
 10
10.14570916186084
 20
-4.435561291868812
 10
10.14570916186084
 20
-4.486544754993741
 10
10.14570916186084
 20
-4.53752821811867
 10
10.19669262498577
 20
-4.588511681243599
 10
10.19669262498577
 20
-4.639495144368527
 10
10.2476760881107
 20
-4.690478607493456
 10
10.2476760881107
 20
-4.741462070618385
 10
10.29865955123563
 20
-4.792445533743314
 10
10.29865955123563
 20
-4.843428996868242
 10
10.2476760881107
 20
-4.894412459993172
 10
10.2476760881107
 20
-4.945395923118101
 10
10.19669262498577
 20
-4.99637938624303
 10
10.14570916186084
 20
-5.047362849367959
 10
10.14570916186084
 20
-5.098346312492887
 10
10.09472569873592
 20
-5.098346312492887
 10
10.09472569873592
 20
-5.149329775617816
 10
10.09472569873592
 20
-5.200313238742745
 10
10.09472569873592
 20
-5.251296701867674
 10
10.04374223561099
 20
-5.251296701867674
 10
10.04374223561099
 20
-5.302280164992602
 10
10.04374223561099
 20
-5.353263628117531
 10
9.992758772486059
 20
-5.353263628117531
 10
9.992758772486059
 20
-5.40424709124246
 10
9.94177530936113
 20
-5.40424709124246
 10
9.94177530936113
 20
-5.455230554367389
 10
9.890791846236201
 20
-5.506214017492319
 10
9.839808383111272
 20
-5.506214017492319
 10
9.839808383111272
 20
-5.557197480617247
 10
9.788824919986343
 20
-5.557197480617247
 10
9.737841456861416
 20
-5.557197480617247
 10
9.737841456861416
 20
-5.608180943742176
 10
9.686857993736485
 20
-5.608180943742176
 10
9.635874530611556
 20
-5.608180943742176
 10
9.584891067486629
 20
-5.608180943742176
 10
9.533907604361699
 20
-5.608180943742176
 10
9.48292414123677
 20
-5.608180943742176
 10
9.431940678111841
 20
-5.608180943742176
 10
9.329973751861983
 20
-5.608180943742176
 10
9.278990288737054
 20
-5.659164406867105
 10
9.228006825612127
 20
-5.659164406867105
 10
9.177023362487198
 20
-5.659164406867105
 10
9.177023362487198
 20
-5.710147869992034
 10
9.126039899362267
 20
-5.710147869992034
 10
9.126039899362267
 20
-5.761131333116962
 10
9.07505643623734
 20
-5.761131333116962
 10
9.07505643623734
 20
-5.812114796241891
 10
9.07505643623734
 20
-5.86309825936682
 10
9.024072973112411
 20
-5.86309825936682
 10
9.024072973112411
 20
-5.914081722491749
 10
8.973089509987481
 20
-5.914081722491749
 10
8.922106046862552
 20
-5.965065185616678
 10
8.871122583737623
 20
-5.965065185616678
 10
8.871122583737623
 20
-6.016048648741608
 10
8.820139120612696
 20
-6.016048648741608
 10
8.820139120612696
 20
-6.067032111866536
 10
8.820139120612696
 20
-6.118015574991465
 10
8.769155657487765
 20
-6.168999038116393
 10
8.718172194362836
 20
-6.219982501241323
 10
8.718172194362836
 20
-6.270965964366251
 10
8.667188731237909
 20
-6.270965964366251
 10
8.667188731237909
 20
-6.32194942749118
 10
8.667188731237909
 20
-6.372932890616108
 10
8.718172194362836
 20
-6.372932890616108
 10
8.718172194362836
 20
-6.423916353741038
 10
8.718172194362836
 20
-6.474899816865967
 10
8.718172194362836
 20
-6.525883279990896
 10
8.769155657487765
 20
-6.525883279990896
 10
8.769155657487765
 20
-6.576866743115825
 10
8.718172194362836
 20
-6.627850206240754
 10
8.718172194362836
 20
-6.678833669365682
 10
8.718172194362836
 20
-6.72981713249061
 10
8.718172194362836
 20
-6.78080059561554
 10
8.667188731237909
 20
-6.831784058740469
 10
8.61620526811298
 20
-6.882767521865397
 10
8.565221804988051
 20
-6.933750984990326
 10
8.514238341863122
 20
-6.984734448115256
 10
8.463254878738192
 20
-7.035717911240185
 10
8.412271415613263
 20
-7.035717911240185
 10
8.412271415613263
 20
-7.086701374365113
 10
8.412271415613263
 20
-7.137684837490043
 10
8.361287952488334
 20
-7.137684837490043
 10
8.361287952488334
 20
-7.188668300614971
 10
8.310304489363407
 20
-7.188668300614971
 10
8.310304489363407
 20
-7.2396517637399
 10
8.259321026238478
 20
-7.2396517637399
 10
8.259321026238478
 20
-7.290635226864828
 10
8.208337563113547
 20
-7.290635226864828
 10
8.208337563113547
 20
-7.341618689989758
 10
8.15735409998862
 20
-7.341618689989758
 10
8.15735409998862
 20
-7.392602153114686
 10
8.15735409998862
 20
-7.443585616239615
 10
8.106370636863691
 20
-7.443585616239615
 10
8.106370636863691
 20
-7.494569079364544
 10
8.055387173738762
 20
-7.545552542489474
 10
8.004403710613833
 20
-7.596536005614402
 10
7.953420247488904
 20
-7.596536005614402
 10
7.953420247488904
 20
-7.64751946873933
 10
7.902436784363975
 20
-7.64751946873933
 10
7.902436784363975
 20
-7.69850293186426
 10
7.902436784363975
 20
-7.749486394989189
 10
7.851453321239045
 20
-7.749486394989189
 10
7.851453321239045
 20
-7.800469858114117
 10
7.851453321239045
 20
-7.851453321239045
 10
7.851453321239045
 20
-7.902436784363975
 10
7.800469858114117
 20
-7.953420247488904
 10
7.749486394989189
 20
-8.004403710613833
 10
7.749486394989189
 20
-8.055387173738762
 10
7.749486394989189
 20
-8.106370636863691
 10
7.749486394989189
 20
-8.15735409998862
 10
7.69850293186426
 20
-8.15735409998862
 10
7.69850293186426
 20
-8.208337563113547
 10
7.69850293186426
 20
-8.259321026238478
 10
7.69850293186426
 20
-8.310304489363407
 10
7.64751946873933
 20
-8.310304489363407
 10
7.64751946873933
 20
-8.361287952488334
 10
7.596536005614402
 20
-8.361287952488334
 10
7.545552542489474
 20
-8.361287952488334
 10
7.494569079364544
 20
-8.412271415613263
 10
7.443585616239615
 20
-8.463254878738192
 10
7.392602153114686
 20
-8.463254878738192
 10
7.341618689989758
 20
-8.514238341863122
 10
7.290635226864828
 20
-8.514238341863122
 10
7.290635226864828
 20
-8.565221804988051
 10
7.2396517637399
 20
-8.565221804988051
 10
7.188668300614971
 20
-8.61620526811298
 10
7.137684837490043
 20
-8.61620526811298
 10
7.086701374365113
 20
-8.667188731237909
 10
7.035717911240185
 20
-8.667188731237909
 10
6.984734448115256
 20
-8.718172194362836
 10
6.933750984990326
 20
-8.718172194362836
 10
6.933750984990326
 20
-8.769155657487765
 10
6.882767521865397
 20
-8.769155657487765
 10
6.882767521865397
 20
-8.820139120612696
 10
6.831784058740469
 20
-8.820139120612696
 10
6.831784058740469
 20
-8.871122583737623
 10
6.78080059561554
 20
-8.871122583737623
 10
6.72981713249061
 20
-8.922106046862552
 10
6.678833669365682
 20
-8.922106046862552
 10
6.627850206240754
 20
-8.973089509987481
 10
6.576866743115825
 20
-8.973089509987481
 10
6.576866743115825
 20
-9.024072973112411
 10
6.525883279990896
 20
-9.024072973112411
 10
6.474899816865967
 20
-9.024072973112411
 10
6.423916353741038
 20
-9.07505643623734
 10
6.372932890616108
 20
-9.07505643623734
 10
6.32194942749118
 20
-9.126039899362267
 10
6.270965964366251
 20
-9.126039899362267
 10
6.219982501241323
 20
-9.177023362487198
 10
6.168999038116393
 20
-9.177023362487198
 10
6.118015574991465
 20
-9.228006825612127
 10
6.067032111866536
 20
-9.228006825612127
 10
6.016048648741608
 20
-9.228006825612127
 10
5.965065185616678
 20
-9.278990288737054
 10
5.914081722491749
 20
-9.278990288737054
 10
5.86309825936682
 20
-9.278990288737054
 10
5.812114796241891
 20
-9.278990288737054
 10
5.761131333116962
 20
-9.278990288737054
 10
5.710147869992034
 20
-9.278990288737054
 10
5.710147869992034
 20
-9.228006825612127
 10
5.659164406867105
 20
-9.228006825612127
 10
5.608180943742176
 20
-9.228006825612127
 10
5.557197480617247
 20
-9.228006825612127
 10
5.506214017492319
 20
-9.228006825612127
 10
5.455230554367389
 20
-9.228006825612127
 10
5.40424709124246
 20
-9.228006825612127
 10
5.353263628117531
 20
-9.278990288737054
 10
5.302280164992602
 20
-9.278990288737054
 10
5.251296701867674
 20
-9.278990288737054
 10
5.200313238742745
 20
-9.278990288737054
 10
5.098346312492887
 20
-9.329973751861983
 10
5.047362849367959
 20
-9.329973751861983
 10
4.99637938624303
 20
-9.329973751861983
 10
4.945395923118101
 20
-9.329973751861983
 10
4.894412459993172
 20
-9.380957214986912
 10
4.843428996868242
 20
-9.380957214986912
 10
4.792445533743314
 20
-9.380957214986912
 10
4.741462070618385
 20
-9.380957214986912
 10
4.690478607493456
 20
-9.431940678111841
 10
4.639495144368527
 20
-9.431940678111841
 10
4.588511681243599
 20
-9.431940678111841
 10
4.53752821811867
 20
-9.48292414123677
 10
4.486544754993741
 20
-9.48292414123677
 10
4.486544754993741
 20
-9.533907604361699
 10
4.435561291868812
 20
-9.533907604361699
 10
4.435561291868812
 20
-9.584891067486629
 10
4.384577828743883
 20
-9.584891067486629
 10
4.384577828743883
 20
-9.635874530611556
 10
4.333594365618954
 20
-9.635874530611556
 10
4.333594365618954
 20
-9.686857993736485
 10
4.333594365618954
 20
-9.737841456861416
 10
4.282610902494025
 20
-9.737841456861416
 10
4.282610902494025
 20
-9.788824919986343
 10
4.231627439369096
 20
-9.788824919986343
 10
4.231627439369096
 20
-9.839808383111272
 10
4.180643976244167
 20
-9.839808383111272
 10
4.129660513119239
 20
-9.890791846236201
 10
4.07867704999431
 20
-9.94177530936113
 10
4.027693586869381
 20
-9.94177530936113
 10
3.976710123744452
 20
-9.94177530936113
 10
3.976710123744452
 20
-9.992758772486059
 10
3.925726660619523
 20
-9.992758772486059
 10
3.874743197494595
 20
-10.04374223561099
 10
3.823759734369665
 20
-10.04374223561099
 10
3.823759734369665
 20
-10.09472569873592
 10
3.772776271244737
 20
-10.09472569873592
 10
3.721792808119807
 20
-10.14570916186084
 10
3.670809344994879
 20
-10.14570916186084
 10
3.670809344994879
 20
-10.19669262498577
 10
3.61982588186995
 20
-10.19669262498577
 10
3.568842418745021
 20
-10.19669262498577
 10
3.568842418745021
 20
-10.2476760881107
 10
3.517858955620092
 20
-10.2476760881107
 10
3.466875492495163
 20
-10.29865955123563
 10
3.415892029370235
 20
-10.29865955123563
 10
3.415892029370235
 20
-10.34964301436056
 10
3.364908566245305
 20
-10.34964301436056
 10
3.364908566245305
 20
-10.40062647748549
 10
3.313925103120377
 20
-10.40062647748549
 10
3.313925103120377
 20
-10.45160994061042
 10
3.262941639995448
 20
-10.45160994061042
 10
3.262941639995448
 20
-10.50259340373535
 10
3.211958176870519
 20
-10.50259340373535
 10
3.211958176870519
 20
-10.55357686686028
 10
3.16097471374559
 20
-10.6045603299852
 10
3.16097471374559
 20
-10.65554379311014
 10
3.109991250620662
 20
-10.70652725623506
 10
3.059007787495732
 20
-10.75751071935999
 10
3.008024324370804
 20
-10.75751071935999
 10
3.008024324370804
 20
-10.80849418248492
 10
2.957040861245875
 20
-10.80849418248492
 10
2.906057398120946
 20
-10.80849418248492
 10
2.906057398120946
 20
-10.85947764560985
 10
2.855073934996017
 20
-10.85947764560985
 10
2.804090471871088
 20
-10.85947764560985
 10
2.804090471871088
 20
-10.91046110873478
 10
2.753107008746159
 20
-10.91046110873478
 10
2.70212354562123
 20
-10.91046110873478
 10
2.651140082496301
 20
-10.91046110873478
 10
2.600156619371373
 20
-10.91046110873478
 10
2.549173156246443
 20
-10.96144457185971
 10
2.498189693121515
 20
-10.96144457185971
 10
2.447206229996586
 20
-10.96144457185971
 10
2.345239303746728
 20
-10.96144457185971
 10
2.294255840621799
 20
-11.01242803498464
 10
2.24327237749687
 20
-11.01242803498464
 10
2.192288914371941
 20
-11.01242803498464
 10
2.141305451247013
 20
-11.01242803498464
 10
2.090321988122084
 20
-11.06341149810956
 10
2.039338524997155
 20
-11.06341149810956
 10
1.988355061872226
 20
-11.06341149810956
 10
1.937371598747297
 20
-11.06341149810956
 10
1.886388135622368
 20
-11.06341149810956
 10
1.886388135622368
 20
-11.11439496123449
 10
1.83540467249744
 20
-11.11439496123449
 10
1.784421209372511
 20
-11.11439496123449
 10
1.733437746247581
 20
-11.11439496123449
 10
1.682454283122653
 20
-11.11439496123449
 10
1.631470819997724
 20
-11.11439496123449
 10
1.631470819997724
 20
-11.16537842435942
 10
1.580487356872795
 20
-11.16537842435942
 10
1.529503893747866
 20
-11.16537842435942
 10
1.478520430622937
 20
-11.16537842435942
 10
1.427536967498009
 20
-11.16537842435942
 10
1.37655350437308
 20
-11.16537842435942
 10
1.325570041248151
 20
-11.21636188748435
 10
1.274586578123222
 20
-11.21636188748435
 10
1.223603114998293
 20
-11.21636188748435
 10
1.172619651873364
 20
-11.21636188748435
 10
1.121636188748435
 20
-11.26734535060928
 10
1.070652725623506
 20
-11.26734535060928
 10
1.019669262498577
 20
-11.26734535060928
 10
0.9686857993736486
 20
-11.26734535060928
 10
0.9177023362487198
 20
-11.26734535060928
 10
0.9177023362487198
 20
-11.31832881373421
 10
0.8667188731237907
 20
-11.31832881373421
 10
0.815735409998862
 20
-11.31832881373421
 10
0.7647519468739331
 20
-11.31832881373421
 10
0.7137684837490043
 20
-11.31832881373421
 10
0.6627850206240753
 20
-11.36931227685914
 10
0.6118015574991464
 20
-11.36931227685914
 10
0.6118015574991464
 20
-11.31832881373421
 10
0.6118015574991464
 20
-11.26734535060928
 10
0.5608180943742176
 20
-11.26734535060928
 10
0.5608180943742176
 20
-11.21636188748435
 10
0.5608180943742176
 20
-11.16537842435942
 10
0.5098346312492887
 20
-11.16537842435942
 10
0.4588511681243599
 20
-11.16537842435942
 10
0.407867704999431
 20
-11.16537842435942
 10
0.3568842418745021
 20
-11.11439496123449
 10
0.3059007787495732
 20
-11.11439496123449
 10
0.2549173156246444
 20
-11.11439496123449
 10
0.2039338524997155
 20
-11.11439496123449
 10
0.1529503893747866
 20
-11.11439496123449
 10
0.1019669262498577
 20
-11.11439496123449
 10
0.05098346312492887
 20
-11.11439496123449
 10
0
 20
-11.11439496123449
 10
-0.05098346312492887
 20
-11.11439496123449
 10
-0.05098346312492887
 20
-11.06341149810956
 10
-0.1019669262498577
 20
-11.06341149810956
 10
-0.1529503893747866
 20
-11.06341149810956
 10
-0.2039338524997155
 20
-11.06341149810956
 10
-0.2549173156246444
 20
-11.01242803498464
 10
-0.3059007787495732
 20
-11.01242803498464
 10
-0.3568842418745021
 20
-10.96144457185971
 10
-0.3568842418745021
 20
-10.91046110873478
 10
-0.3568842418745021
 20
-10.85947764560985
 10
-0.3568842418745021
 20
-10.80849418248492
 10
-0.407867704999431
 20
-10.80849418248492
 10
-0.4588511681243599
 20
-10.80849418248492
 10
-0.5098346312492887
 20
-10.80849418248492
 10
-0.5608180943742176
 20
-10.85947764560985
 10
-0.6118015574991464
 20
-10.85947764560985
 10
-0.6627850206240753
 20
-10.85947764560985
 10
-0.7137684837490043
 20
-10.85947764560985
 10
-0.815735409998862
 20
-10.91046110873478
 10
-0.8667188731237907
 20
-10.91046110873478
 10
-0.9686857993736486
 20
-10.96144457185971
 10
-1.019669262498577
 20
-10.96144457185971
 10
-1.121636188748435
 20
-10.96144457185971
 10
-1.172619651873364
 20
-11.01242803498464
 10
-1.274586578123222
 20
-11.01242803498464
 10
-1.325570041248151
 20
-11.06341149810956
 10
-1.37655350437308
 20
-11.06341149810956
 10
-1.427536967498009
 20
-11.11439496123449
 10
-1.478520430622937
 20
-11.11439496123449
 10
-1.529503893747866
 20
-11.11439496123449
 10
-1.529503893747866
 20
-11.16537842435942
 10
-1.580487356872795
 20
-11.16537842435942
 10
-1.631470819997724
 20
-11.16537842435942
 10
-1.631470819997724
 20
-11.21636188748435
 10
-1.682454283122653
 20
-11.21636188748435
 10
-1.733437746247581
 20
-11.21636188748435
 10
-1.784421209372511
 20
-11.21636188748435
 10
-1.784421209372511
 20
-11.26734535060928
 10
-1.83540467249744
 20
-11.26734535060928
 10
-1.886388135622368
 20
-11.26734535060928
 10
-1.937371598747297
 20
-11.26734535060928
 10
-1.988355061872226
 20
-11.26734535060928
 10
-2.039338524997155
 20
-11.26734535060928
 10
-2.090321988122084
 20
-11.31832881373421
 10
-2.141305451247013
 20
-11.31832881373421
 10
-2.141305451247013
 20
-11.26734535060928
 10
-2.192288914371941
 20
-11.26734535060928
 10
-2.24327237749687
 20
-11.26734535060928
 10
-2.294255840621799
 20
-11.26734535060928
 10
-2.345239303746728
 20
-11.21636188748435
 10
-2.396222766871657
 20
-11.21636188748435
 10
-2.396222766871657
 20
-11.16537842435942
 10
-2.447206229996586
 20
-11.16537842435942
 10
-2.447206229996586
 20
-11.11439496123449
 10
-2.498189693121515
 20
-11.11439496123449
 10
-2.498189693121515
 20
-11.06341149810956
 10
-2.549173156246443
 20
-11.06341149810956
 10
-2.549173156246443
 20
-11.01242803498464
 10
-2.600156619371373
 20
-11.01242803498464
 10
-2.651140082496301
 20
-10.96144457185971
 10
-2.70212354562123
 20
-10.91046110873478
 10
-2.804090471871088
 20
-10.91046110873478
 10
-2.855073934996017
 20
-10.91046110873478
 10
-2.957040861245875
 20
-10.85947764560985
 10
-3.008024324370804
 20
-10.85947764560985
 10
-3.059007787495732
 20
-10.85947764560985
 10
-3.16097471374559
 20
-10.80849418248492
 10
-3.211958176870519
 20
-10.80849418248492
 10
-3.313925103120377
 20
-10.75751071935999
 10
-3.415892029370235
 20
-10.75751071935999
 10
-3.517858955620092
 20
-10.75751071935999
 10
-3.670809344994879
 20
-10.75751071935999
 10
-3.823759734369665
 20
-10.70652725623506
 10
-3.925726660619523
 20
-10.70652725623506
 10
-4.07867704999431
 20
-10.70652725623506
 10
-4.231627439369096
 20
-10.65554379311014
 10
-4.333594365618954
 20
-10.65554379311014
 10
-4.384577828743883
 20
-10.65554379311014
 10
-4.486544754993741
 20
-10.65554379311014
 10
-4.53752821811867
 20
-10.65554379311014
 10
-4.588511681243599
 20
-10.6045603299852
 10
-4.639495144368527
 20
-10.6045603299852
 10
-4.690478607493456
 20
-10.6045603299852
 10
-4.741462070618385
 20
-10.6045603299852
 10
-4.792445533743314
 20
-10.6045603299852
 10
-4.843428996868242
 20
-10.6045603299852
 10
-4.894412459993172
 20
-10.55357686686028
 10
-4.945395923118101
 20
-10.55357686686028
 10
-4.99637938624303
 20
-10.55357686686028
 10
-5.047362849367959
 20
-10.55357686686028
 10
-5.098346312492887
 20
-10.55357686686028
 10
-5.149329775617816
 20
-10.50259340373535
 10
-5.200313238742745
 20
-10.50259340373535
 10
-5.251296701867674
 20
-10.50259340373535
 10
-5.302280164992602
 20
-10.45160994061042
 10
-5.353263628117531
 20
-10.45160994061042
 10
-5.40424709124246
 20
-10.40062647748549
 10
-5.455230554367389
 20
-10.40062647748549
 10
-5.506214017492319
 20
-10.40062647748549
 10
-5.557197480617247
 20
-10.40062647748549
 10
-5.608180943742176
 20
-10.40062647748549
 10
-5.608180943742176
 20
-10.34964301436056
 10
-5.659164406867105
 20
-10.29865955123563
 10
-5.659164406867105
 20
-10.2476760881107
 10
-5.608180943742176
 20
-10.2476760881107
 10
-5.608180943742176
 20
-10.19669262498577
 10
-5.608180943742176
 20
-10.14570916186084
 10
-5.608180943742176
 20
-10.09472569873592
 10
-5.557197480617247
 20
-10.09472569873592
 10
-5.557197480617247
 20
-10.04374223561099
 10
-5.557197480617247
 20
-9.992758772486059
 10
-5.557197480617247
 20
-9.94177530936113
 10
-5.557197480617247
 20
-9.890791846236201
 10
-5.506214017492319
 20
-9.890791846236201
 10
-5.506214017492319
 20
-9.839808383111272
 10
-5.506214017492319
 20
-9.788824919986343
 10
-5.506214017492319
 20
-9.737841456861416
 10
-5.557197480617247
 20
-9.737841456861416
 10
-5.506214017492319
 20
-9.686857993736485
 10
-5.506214017492319
 20
-9.635874530611556
 10
-5.557197480617247
 20
-9.584891067486629
 10
-5.608180943742176
 20
-9.584891067486629
 10
-5.608180943742176
 20
-9.533907604361699
 10
-5.659164406867105
 20
-9.533907604361699
 10
-5.710147869992034
 20
-9.533907604361699
 10
-5.761131333116962
 20
-9.533907604361699
 10
-5.761131333116962
 20
-9.48292414123677
 10
-5.812114796241891
 20
-9.48292414123677
 10
-5.86309825936682
 20
-9.48292414123677
 10
-5.914081722491749
 20
-9.48292414123677
 10
-5.965065185616678
 20
-9.48292414123677
 10
-6.016048648741608
 20
-9.48292414123677
 10
-6.067032111866536
 20
-9.48292414123677
 10
-6.118015574991465
 20
-9.431940678111841
 10
-6.168999038116393
 20
-9.431940678111841
 10
-6.219982501241323
 20
-9.431940678111841
 10
-6.32194942749118
 20
-9.431940678111841
 10
-6.372932890616108
 20
-9.431940678111841
 10
-6.423916353741038
 20
-9.431940678111841
 10
-6.474899816865967
 20
-9.431940678111841
 10
-6.525883279990896
 20
-9.431940678111841
 10
-6.576866743115825
 20
-9.431940678111841
 10
-6.678833669365682
 20
-9.431940678111841
 10
-6.72981713249061
 20
-9.431940678111841
 10
-6.78080059561554
 20
-9.431940678111841
 10
-6.831784058740469
 20
-9.431940678111841
 10
-6.933750984990326
 20
-9.380957214986912
 10
-6.984734448115256
 20
-9.380957214986912
 10
-7.035717911240185
 20
-9.380957214986912
 10
-7.086701374365113
 20
-9.329973751861983
 10
-7.188668300614971
 20
-9.329973751861983
 10
-7.2396517637399
 20
-9.329973751861983
 10
-7.290635226864828
 20
-9.278990288737054
 10
-7.341618689989758
 20
-9.278990288737054
 10
-7.392602153114686
 20
-9.278990288737054
 10
-7.443585616239615
 20
-9.278990288737054
 10
-7.443585616239615
 20
-9.228006825612127
 10
-7.494569079364544
 20
-9.228006825612127
 10
-7.545552542489474
 20
-9.228006825612127
 10
-7.596536005614402
 20
-9.177023362487198
 10
-7.64751946873933
 20
-9.177023362487198
 10
-7.69850293186426
 20
-9.177023362487198
 10
-7.749486394989189
 20
-9.126039899362267
 10
-7.800469858114117
 20
-9.126039899362267
 10
-7.800469858114117
 20
-9.07505643623734
 10
-7.800469858114117
 20
-9.024072973112411
 10
-7.800469858114117
 20
-8.973089509987481
 10
-7.749486394989189
 20
-8.973089509987481
 10
-7.749486394989189
 20
-8.922106046862552
 10
-7.69850293186426
 20
-8.922106046862552
 10
-7.69850293186426
 20
-8.871122583737623
 10
-7.64751946873933
 20
-8.871122583737623
 10
-7.64751946873933
 20
-8.820139120612696
 10
-7.596536005614402
 20
-8.769155657487765
 10
-7.596536005614402
 20
-8.718172194362836
 10
-7.545552542489474
 20
-8.667188731237909
 10
-7.545552542489474
 20
-8.61620526811298
 10
-7.545552542489474
 20
-8.565221804988051
 10
-7.545552542489474
 20
-8.514238341863122
 10
-7.545552542489474
 20
-8.463254878738192
 10
-7.545552542489474
 20
-8.412271415613263
 10
-7.545552542489474
 20
-8.361287952488334
 10
-7.545552542489474
 20
-8.310304489363407
 10
-7.545552542489474
 20
-8.259321026238478
 10
-7.596536005614402
 20
-8.259321026238478
 10
-7.596536005614402
 20
-8.208337563113547
 10
-7.596536005614402
 20
-8.15735409998862
 10
-7.596536005614402
 20
-8.106370636863691
 10
-7.596536005614402
 20
-8.055387173738762
 10
-7.596536005614402
 20
-8.004403710613833
 10
-7.64751946873933
 20
-8.004403710613833
 10
-7.64751946873933
 20
-7.953420247488904
 10
-7.69850293186426
 20
-7.953420247488904
 10
-7.69850293186426
 20
-7.902436784363975
 10
-7.749486394989189
 20
-7.851453321239045
 10
-7.800469858114117
 20
-7.851453321239045
 10
-7.800469858114117
 20
-7.800469858114117
 10
-7.851453321239045
 20
-7.800469858114117
 10
-7.902436784363975
 20
-7.749486394989189
 10
-7.953420247488904
 20
-7.749486394989189
 10
-8.004403710613833
 20
-7.69850293186426
 10
-8.055387173738762
 20
-7.69850293186426
 10
-8.106370636863691
 20
-7.69850293186426
 10
-8.15735409998862
 20
-7.64751946873933
 10
-8.208337563113547
 20
-7.64751946873933
 10
-8.259321026238478
 20
-7.64751946873933
 10
-8.310304489363407
 20
-7.64751946873933
 10
-8.310304489363407
 20
-7.596536005614402
 10
-8.361287952488334
 20
-7.596536005614402
 10
-8.412271415613263
 20
-7.596536005614402
 10
-8.463254878738192
 20
-7.545552542489474
 10
-8.514238341863122
 20
-7.545552542489474
 10
-8.565221804988051
 20
-7.545552542489474
 10
-8.565221804988051
 20
-7.494569079364544
 10
-8.61620526811298
 20
-7.494569079364544
 10
-8.667188731237909
 20
-7.443585616239615
 10
-8.718172194362836
 20
-7.443585616239615
 10
-8.718172194362836
 20
-7.392602153114686
 10
-8.769155657487765
 20
-7.392602153114686
 10
-8.769155657487765
 20
-7.341618689989758
 10
-8.820139120612696
 20
-7.341618689989758
 10
-8.820139120612696
 20
-7.290635226864828
 10
-8.871122583737623
 20
-7.290635226864828
 10
-8.871122583737623
 20
-7.2396517637399
 10
-8.922106046862552
 20
-7.2396517637399
 10
-8.973089509987481
 20
-7.188668300614971
 10
-8.973089509987481
 20
-7.137684837490043
 10
-9.024072973112411
 20
-7.137684837490043
 10
-9.024072973112411
 20
-7.086701374365113
 10
-9.07505643623734
 20
-7.086701374365113
 10
-9.07505643623734
 20
-7.035717911240185
 10
-9.07505643623734
 20
-6.984734448115256
 10
-9.07505643623734
 20
-6.933750984990326
 10
-9.07505643623734
 20
-6.882767521865397
 10
-9.024072973112411
 20
-6.882767521865397
 10
-9.024072973112411
 20
-6.831784058740469
 10
-8.973089509987481
 20
-6.831784058740469
 10
-8.973089509987481
 20
-6.78080059561554
 10
-8.973089509987481
 20
-6.72981713249061
 10
-8.973089509987481
 20
-6.678833669365682
 10
-8.973089509987481
 20
-6.627850206240754
 10
-8.973089509987481
 20
-6.576866743115825
 10
-8.973089509987481
 20
-6.525883279990896
 10
-8.973089509987481
 20
-6.474899816865967
 10
-8.973089509987481
 20
-6.423916353741038
 10
-8.922106046862552
 20
-6.372932890616108
 10
-8.922106046862552
 20
-6.32194942749118
 10
-8.922106046862552
 20
-6.270965964366251
 10
-8.922106046862552
 20
-6.219982501241323
 10
-8.922106046862552
 20
-6.168999038116393
 10
-8.973089509987481
 20
-6.168999038116393
 10
-8.973089509987481
 20
-6.118015574991465
 10
-9.024072973112411
 20
-6.118015574991465
 10
-9.024072973112411
 20
-6.067032111866536
 10
-9.07505643623734
 20
-6.067032111866536
 10
-9.07505643623734
 20
-6.016048648741608
 10
-9.126039899362267
 20
-5.965065185616678
 10
-9.177023362487198
 20
-5.914081722491749
 10
-9.228006825612127
 20
-5.914081722491749
 10
-9.278990288737054
 20
-5.86309825936682
 10
-9.329973751861983
 20
-5.86309825936682
 10
-9.380957214986912
 20
-5.812114796241891
 10
-9.431940678111841
 20
-5.761131333116962
 10
-9.48292414123677
 20
-5.710147869992034
 10
-9.533907604361699
 20
-5.710147869992034
 10
-9.533907604361699
 20
-5.659164406867105
 10
-9.584891067486629
 20
-5.659164406867105
 10
-9.584891067486629
 20
-5.608180943742176
 10
-9.635874530611556
 20
-5.608180943742176
 10
-9.635874530611556
 20
-5.557197480617247
 10
-9.686857993736485
 20
-5.557197480617247
 10
-9.737841456861416
 20
-5.506214017492319
 10
-9.788824919986343
 20
-5.506214017492319
 10
-9.788824919986343
 20
-5.455230554367389
 10
-9.788824919986343
 20
-5.40424709124246
 10
-9.788824919986343
 20
-5.353263628117531
 10
-9.737841456861416
 20
-5.353263628117531
 10
-9.737841456861416
 20
-5.302280164992602
 10
-9.737841456861416
 20
-5.251296701867674
 10
-9.737841456861416
 20
-5.200313238742745
 10
-9.686857993736485
 20
-5.200313238742745
 10
-9.686857993736485
 20
-5.149329775617816
 10
-9.686857993736485
 20
-5.098346312492887
 10
-9.686857993736485
 20
-5.047362849367959
 10
-9.635874530611556
 20
-5.047362849367959
 10
-9.686857993736485
 20
-4.99637938624303
 10
-9.635874530611556
 20
-4.99637938624303
 10
-9.635874530611556
 20
-4.945395923118101
 10
-9.686857993736485
 20
-4.945395923118101
 10
-9.686857993736485
 20
-4.894412459993172
 10
-9.737841456861416
 20
-4.894412459993172
 10
-9.737841456861416
 20
-4.843428996868242
 10
-9.788824919986343
 20
-4.843428996868242
 10
-9.788824919986343
 20
-4.792445533743314
 10
-9.839808383111272
 20
-4.792445533743314
 10
-9.839808383111272
 20
-4.741462070618385
 10
-9.839808383111272
 20
-4.690478607493456
 10
-9.890791846236201
 20
-4.690478607493456
 10
-9.890791846236201
 20
-4.639495144368527
 10
-9.94177530936113
 20
-4.639495144368527
 10
-9.94177530936113
 20
-4.588511681243599
 10
-9.992758772486059
 20
-4.53752821811867
 10
-10.04374223561099
 20
-4.486544754993741
 10
-10.09472569873592
 20
-4.435561291868812
 10
-10.14570916186084
 20
-4.384577828743883
 10
-10.19669262498577
 20
-4.384577828743883
 10
-10.19669262498577
 20
-4.333594365618954
 10
-10.2476760881107
 20
-4.333594365618954
 10
-10.2476760881107
 20
-4.282610902494025
 10
-10.2476760881107
 20
-4.231627439369096
 10
-10.29865955123563
 20
-4.231627439369096
 10
-10.29865955123563
 20
-4.180643976244167
 10
-10.29865955123563
 20
-4.129660513119239
 10
-10.34964301436056
 20
-4.07867704999431
 10
-10.40062647748549
 20
-4.027693586869381
 10
-10.45160994061042
 20
-3.976710123744452
 10
-10.50259340373535
 20
-3.976710123744452
 10
-10.50259340373535
 20
-3.925726660619523
 10
-10.55357686686028
 20
-3.925726660619523
 10
-10.55357686686028
 20
-3.874743197494595
 10
-10.6045603299852
 20
-3.874743197494595
 10
-10.6045603299852
 20
-3.823759734369665
 10
-10.6045603299852
 20
-3.772776271244737
 10
-10.6045603299852
 20
-3.721792808119807
 10
-10.65554379311014
 20
-3.670809344994879
 10
-10.65554379311014
 20
-3.61982588186995
 10
-10.65554379311014
 20
-3.568842418745021
 10
-10.65554379311014
 20
-3.517858955620092
 10
-10.70652725623506
 20
-3.517858955620092
 10
-10.70652725623506
 20
-3.466875492495163
 10
-10.70652725623506
 20
-3.415892029370235
 10
-10.75751071935999
 20
-3.364908566245305
 10
-10.75751071935999
 20
-3.313925103120377
 10
-10.80849418248492
 20
-3.313925103120377
 10
-10.80849418248492
 20
-3.262941639995448
 10
-10.85947764560985
 20
-3.262941639995448
 10
-10.85947764560985
 20
-3.211958176870519
 10
-10.85947764560985
 20
-3.16097471374559
 10
-10.85947764560985
 20
-3.109991250620662
 10
-10.91046110873478
 20
-3.109991250620662
 10
-10.91046110873478
 20
-3.059007787495732
 10
-10.91046110873478
 20
-3.008024324370804
 10
-10.96144457185971
 20
-3.008024324370804
 10
-10.96144457185971
 20
-2.957040861245875
 10
-11.01242803498464
 20
-2.957040861245875
 10
-11.01242803498464
 20
-2.906057398120946
 10
-11.06341149810956
 20
-2.855073934996017
 10
-11.06341149810956
 20
-2.804090471871088
 10
-11.06341149810956
 20
-2.753107008746159
 10
-11.11439496123449
 20
-2.753107008746159
 10
-11.11439496123449
 20
-2.70212354562123
 10
-11.11439496123449
 20
-2.651140082496301
 10
-11.11439496123449
 20
-2.600156619371373
 10
-11.06341149810956
 20
-2.600156619371373
 10
-11.06341149810956
 20
-2.549173156246443
 10
-11.06341149810956
 20
-2.498189693121515
 10
-11.06341149810956
 20
-2.447206229996586
 10
-11.11439496123449
 20
-2.396222766871657
 10
-11.11439496123449
 20
-2.345239303746728
 10
-11.11439496123449
 20
-2.294255840621799
 10
-11.11439496123449
 20
-2.24327237749687
 10
-11.11439496123449
 20
-2.192288914371941
 10
-11.11439496123449
 20
-2.141305451247013
 10
-11.11439496123449
 20
-2.090321988122084
 10
-11.11439496123449
 20
-2.039338524997155
 10
-11.16537842435942
 20
-2.039338524997155
 10
-11.16537842435942
 20
-1.988355061872226
 10
-11.16537842435942
 20
-1.937371598747297
 10
-11.16537842435942
 20
-1.886388135622368
 10
-11.16537842435942
 20
-1.83540467249744
 10
-11.21636188748435
 20
-1.83540467249744
 10
-11.21636188748435
 20
-1.784421209372511
 10
-11.21636188748435
 20
-1.733437746247581
 10
-11.21636188748435
 20
-1.682454283122653
 10
-11.21636188748435
 20
-1.631470819997724
 10
-11.21636188748435
 20
-1.580487356872795
 10
-11.26734535060928
 20
-1.580487356872795
 10
-11.26734535060928
 20
-1.529503893747866
 10
-11.26734535060928
 20
-1.478520430622937
 10
-11.31832881373421
 20
-1.478520430622937
 10
-11.31832881373421
 20
-1.427536967498009
 10
-11.31832881373421
 20
-1.37655350437308
 10
-11.31832881373421
 20
-1.325570041248151
 10
-11.31832881373421
 20
-1.274586578123222
 10
-11.31832881373421
 20
-1.223603114998293
 10
-11.31832881373421
 20
-1.172619651873364
 10
-11.31832881373421
 20
-1.121636188748435
 10
-11.31832881373421
 20
-1.070652725623506
 10
-11.26734535060928
 20
-1.070652725623506
 10
-11.26734535060928
 20
-1.019669262498577
 10
-11.21636188748435
 20
-1.019669262498577
 10
-11.21636188748435
 20
-0.9686857993736486
 10
-11.16537842435942
 20
-0.9686857993736486
 10
-11.16537842435942
 20
-0.9177023362487198
 10
-11.11439496123449
 20
-0.9177023362487198
 10
-11.06341149810956
 20
-0.8667188731237907
 10
-11.01242803498464
 20
-0.815735409998862
 10
-10.96144457185971
 20
-0.815735409998862
 10
-10.91046110873478
 20
-0.815735409998862
 10
-10.85947764560985
 20
-0.7647519468739331
 10
-10.80849418248492
 20
-0.7137684837490043
 10
-10.75751071935999
 20
-0.7137684837490043
 10
-10.70652725623506
 20
-0.7137684837490043
 10
-10.65554379311014
 20
-0.6627850206240753
 10
-10.6045603299852
 20
-0.6627850206240753
 10
-10.6045603299852
 20
-0.6118015574991464
 10
-10.55357686686028
 20
-0.5608180943742176
 10
-10.50259340373535
 20
-0.5608180943742176
 10
-10.50259340373535
 20
-0.5098346312492887
 10
-10.45160994061042
 20
-0.5098346312492887
 10
-10.40062647748549
 20
-0.4588511681243599
 10
-10.34964301436056
 20
-0.407867704999431
 10
-10.29865955123563
 20
-0.3568842418745021
 10
-10.29865955123563
 20
-0.3059007787495732
 10
-10.2476760881107
 20
-0.2549173156246444
 10
-10.2476760881107
 20
-0.2039338524997155
 10
-10.2476760881107
 20
-0.1529503893747866
 10
-10.2476760881107
 20
-0.1019669262498577
 10
-10.2476760881107
 20
-0.05098346312492887
 10
-10.29865955123563
 20
0
 10
-10.29865955123563
 20
0.05098346312492887
 10
-10.29865955123563
 20
0.1019669262498577
 10
-10.29865955123563
 20
0.1529503893747866
 10
-10.29865955123563
 20
0.2039338524997155
 10
-10.34964301436056
 20
0.2039338524997155
 10
-10.34964301436056
 20
0.2549173156246444
 10
-10.40062647748549
 20
0.3059007787495732
 10
-10.45160994061042
 20
0.3568842418745021
 10
-10.50259340373535
 20
0.407867704999431
 10
-10.55357686686028
 20
0.4588511681243599
 10
-10.6045603299852
 20
0.5098346312492887
 10
-10.65554379311014
 20
0.5608180943742176
 10
-10.70652725623506
 20
0.5608180943742176
 10
-10.70652725623506
 20
0.6118015574991464
 10
-10.75751071935999
 20
0.6118015574991464
 10
-10.80849418248492
 20
0.6627850206240753
 10
-10.85947764560985
 20
0.7137684837490043
 10
-10.91046110873478
 20
0.7137684837490043
 10
-10.96144457185971
 20
0.7137684837490043
 10
-11.01242803498464
 20
0.7647519468739331
 10
-11.06341149810956
 20
0.7647519468739331
 10
-11.06341149810956
 20
0.815735409998862
 10
-11.11439496123449
 20
0.815735409998862
 10
-11.11439496123449
 20
0.8667188731237907
 10
-11.11439496123449
 20
0.9177023362487198
 10
-11.16537842435942
 20
0.9177023362487198
 10
-11.16537842435942
 20
0.9686857993736486
 10
-11.16537842435942
 20
1.019669262498577
 10
-11.16537842435942
 20
1.070652725623506
 10
-11.16537842435942
 20
1.121636188748435
 10
-11.16537842435942
 20
1.172619651873364
 10
-11.16537842435942
 20
1.223603114998293
 10
-11.16537842435942
 20
1.274586578123222
 10
-11.16537842435942
 20
1.325570041248151
 10
-11.16537842435942
 20
1.37655350437308
 10
-11.16537842435942
 20
1.427536967498009
 10
-11.16537842435942
 20
1.478520430622937
 10
-11.11439496123449
 20
1.478520430622937
 10
-11.11439496123449
 20
1.529503893747866
 10
-11.11439496123449
 20
1.580487356872795
 10
-11.11439496123449
 20
1.631470819997724
 10
-11.11439496123449
 20
1.682454283122653
 10
-11.11439496123449
 20
1.733437746247581
 10
-11.11439496123449
 20
1.784421209372511
 10
-11.11439496123449
 20
1.83540467249744
 10
-11.11439496123449
 20
1.886388135622368
 10
-11.06341149810956
 20
1.886388135622368
 10
-11.06341149810956
 20
1.937371598747297
 10
-11.01242803498464
 20
1.988355061872226
 10
-11.01242803498464
 20
2.039338524997155
 10
-11.01242803498464
 20
2.090321988122084
 10
-10.96144457185971
 20
2.090321988122084
 10
-10.96144457185971
 20
2.141305451247013
 10
-10.96144457185971
 20
2.192288914371941
 10
-10.96144457185971
 20
2.24327237749687
 10
-10.96144457185971
 20
2.294255840621799
 10
-10.96144457185971
 20
2.345239303746728
 10
-11.01242803498464
 20
2.345239303746728
 10
-11.01242803498464
 20
2.396222766871657
 10
-11.01242803498464
 20
2.447206229996586
 10
-11.01242803498464
 20
2.498189693121515
 10
-11.06341149810956
 20
2.498189693121515
 10
-11.06341149810956
 20
2.549173156246443
 10
-11.11439496123449
 20
2.549173156246443
 10
-11.11439496123449
 20
2.600156619371373
 10
-11.11439496123449
 20
2.651140082496301
 10
-11.16537842435942
 20
2.70212354562123
 10
-11.16537842435942
 20
2.753107008746159
 10
-11.16537842435942
 20
2.804090471871088
 10
-11.16537842435942
 20
2.855073934996017
 10
-11.16537842435942
 20
2.906057398120946
 10
-11.16537842435942
 20
2.957040861245875
 10
-11.16537842435942
 20
3.008024324370804
 10
-11.16537842435942
 20
3.059007787495732
 10
-11.11439496123449
 20
3.109991250620662
 10
-11.11439496123449
 20
3.16097471374559
 10
-11.06341149810956
 20
3.16097471374559
 10
-11.01242803498464
 20
3.211958176870519
 10
-10.96144457185971
 20
3.211958176870519
 10
-10.91046110873478
 20
3.262941639995448
 10
-10.85947764560985
 20
3.262941639995448
 10
-10.80849418248492
 20
3.313925103120377
 10
-10.75751071935999
 20
3.313925103120377
 10
-10.70652725623506
 20
3.364908566245305
 10
-10.65554379311014
 20
3.364908566245305
 10
-10.6045603299852
 20
3.364908566245305
 10
-10.55357686686028
 20
3.364908566245305
 10
-10.55357686686028
 20
3.415892029370235
 10
-10.50259340373535
 20
3.415892029370235
 10
-10.45160994061042
 20
3.466875492495163
 10
-10.40062647748549
 20
3.466875492495163
 10
-10.40062647748549
 20
3.517858955620092
 10
-10.34964301436056
 20
3.517858955620092
 10
-10.29865955123563
 20
3.568842418745021
 10
-10.2476760881107
 20
3.568842418745021
 10
-10.2476760881107
 20
3.61982588186995
 10
-10.19669262498577
 20
3.61982588186995
 10
-10.19669262498577
 20
3.670809344994879
 10
-10.19669262498577
 20
3.721792808119807
 10
-10.19669262498577
 20
3.772776271244737
 10
-10.19669262498577
 20
3.823759734369665
 10
-10.19669262498577
 20
3.874743197494595
 10
-10.2476760881107
 20
3.925726660619523
 10
-10.2476760881107
 20
3.976710123744452
 10
-10.29865955123563
 20
4.027693586869381
 10
-10.29865955123563
 20
4.07867704999431
 10
-10.29865955123563
 20
4.129660513119239
 10
-10.29865955123563
 20
4.180643976244167
 10
-10.29865955123563
 20
4.231627439369096
 10
-10.29865955123563
 20
4.282610902494025
 10
-10.2476760881107
 20
4.282610902494025
 10
-10.2476760881107
 20
4.333594365618954
 10
-10.19669262498577
 20
4.333594365618954
 10
-10.19669262498577
 20
4.384577828743883
 10
-10.14570916186084
 20
4.435561291868812
 10
-10.14570916186084
 20
4.486544754993741
 10
-10.09472569873592
 20
4.486544754993741
 10
-10.09472569873592
 20
4.53752821811867
 10
-10.04374223561099
 20
4.53752821811867
 10
-10.04374223561099
 20
4.588511681243599
 10
-9.992758772486059
 20
4.588511681243599
 10
-9.992758772486059
 20
4.639495144368527
 10
-9.94177530936113
 20
4.639495144368527
 10
-9.890791846236201
 20
4.690478607493456
 10
-9.839808383111272
 20
4.741462070618385
 10
-9.788824919986343
 20
4.792445533743314
 10
-9.737841456861416
 20
4.792445533743314
 10
-9.737841456861416
 20
4.843428996868242
 10
-9.686857993736485
 20
4.843428996868242
 10
-9.686857993736485
 20
4.894412459993172
 10
-9.635874530611556
 20
4.894412459993172
 10
-9.584891067486629
 20
4.894412459993172
 10
-9.533907604361699
 20
4.894412459993172
 10
-9.48292414123677
 20
4.894412459993172
 10
-9.431940678111841
 20
4.945395923118101
 10
-9.380957214986912
 20
4.945395923118101
 10
-9.329973751861983
 20
4.945395923118101
 10
-9.278990288737054
 20
4.99637938624303
 10
-9.228006825612127
 20
4.99637938624303
 10
-9.177023362487198
 20
4.99637938624303
 10
-9.126039899362267
 20
4.99637938624303
 10
-9.126039899362267
 20
5.047362849367959
 10
-9.07505643623734
 20
5.047362849367959
 10
-9.024072973112411
 20
5.098346312492887
 10
-9.024072973112411
 20
5.149329775617816
 10
-8.973089509987481
 20
5.149329775617816
 10
-8.973089509987481
 20
5.200313238742745
 10
-8.922106046862552
 20
5.200313238742745
 10
-8.922106046862552
 20
5.251296701867674
 10
-8.871122583737623
 20
5.302280164992602
 10
-8.871122583737623
 20
5.353263628117531
 10
-8.820139120612696
 20
5.353263628117531
 10
-8.820139120612696
 20
5.40424709124246
 10
-8.820139120612696
 20
5.455230554367389
 10
-8.769155657487765
 20
5.455230554367389
 10
-8.769155657487765
 20
5.506214017492319
 10
-8.769155657487765
 20
5.557197480617247
 10
-8.769155657487765
 20
5.608180943742176
 10
-8.718172194362836
 20
5.659164406867105
 10
-8.718172194362836
 20
5.710147869992034
 10
-8.718172194362836
 20
5.761131333116962
 10
-8.718172194362836
 20
5.812114796241891
 10
-8.718172194362836
 20
5.86309825936682
 10
-8.769155657487765
 20
5.86309825936682
 10
-8.769155657487765
 20
5.914081722491749
 10
-8.820139120612696
 20
5.965065185616678
 10
-8.820139120612696
 20
6.016048648741608
 10
-8.871122583737623
 20
6.016048648741608
 10
-8.871122583737623
 20
6.067032111866536
 10
-8.922106046862552
 20
6.067032111866536
 10
-8.922106046862552
 20
6.118015574991465
 10
-8.973089509987481
 20
6.168999038116393
 10
-8.973089509987481
 20
6.219982501241323
 10
-8.973089509987481
 20
6.270965964366251
 10
-9.024072973112411
 20
6.270965964366251
 10
-9.024072973112411
 20
6.32194942749118
 10
-8.973089509987481
 20
6.372932890616108
 10
-8.973089509987481
 20
6.423916353741038
 10
-8.973089509987481
 20
6.474899816865967
 10
-8.922106046862552
 20
6.474899816865967
 10
-8.922106046862552
 20
6.525883279990896
 10
-8.871122583737623
 20
6.576866743115825
 10
-8.718172194362836
 20
6.72981713249061
 10
-8.667188731237909
 20
6.72981713249061
 10
-8.61620526811298
 20
6.78080059561554
 10
-8.565221804988051
 20
6.78080059561554
 10
-8.514238341863122
 20
6.78080059561554
  0
ENDSEC
  0
SECTION
  2
OBJECTS
  0
DICTIONARY
  5
C
330
0
100
AcDbDictionary
281
    1
  3
ACAD_GROUP
350
D
  0
DICTIONARY
  5
D
330
C
100
AcDbDictionary
281
    1
  0
PLOTSETTINGS
  5
6B
  6
1x1
 40
0
 41
0
 42
0
 43
0
  0
ENDSEC
  0
EOF
