999
dxfrw 0.6.3
  0
SECTION
  2
HEADER
  9
$ACADVER
  1
AC1021
  9
$DWGCODEPAGE
  3
ANSI_1252
  9
$INSBASE
 10
0
 20
0
 30
0
  9
$EXTMIN
 10
-16.89302808020031
 20
-16.9691228012823
 30
0
  9
$EXTMAX
 10
16.66474391695436
 20
16.58864919587238
 30
0
  9
$LIMMIN
 10
0
 20
0
  9
$LIMMAX
 10
420
 20
297
  9
$ORTHOMODE
 70
    0
  9
$REGENMODE
 70
    1
  9
$FILLMODE
 70
    1
  9
$QTEXTMODE
 70
    0
  9
$MIRRTEXT
 70
    0
  9
$LTSCALE
 40
1
  9
$ATTMODE
 70
    0
  9
$TEXTSIZE
 40
2.5
  9
$TRACEWID
 40
15.68
  9
$TEXTSTYLE
  7
STANDARD
  9
$CLAYER
  8
0
  9
$CELTYPE
  6
BYLAYER
  9
$CECOLOR
 62
  256
  9
$CELTSCALE
 40
1
  9
$DISPSILH
 70
    0
  9
$DIMSCALE
 40
1
  9
$DIMASZ
 40
0.09375
  9
$DIMEXO
 40
0.03125
  9
$DIMDLI
 40
3.75
  9
$DIMRND
 40
0
  9
$DIMDLE
 40
0
  9
$DIMEXE
 40
0.0625
  9
$DIMTP
 40
0
  9
$DIMTM
 40
0
  9
$DIMTXT
 40
0.09375
  9
$DIMCEN
 40
2.5
  9
$DIMTSZ
 40
0
  9
$DIMTOL
 70
    0
  9
$DIMLIM
 70
    0
  9
$DIMTIH
 70
    0
  9
$DIMTOH
 70
    0
  9
$DIMSE1
 70
    0
  9
$DIMSE2
 70
    0
  9
$DIMTAD
 70
    1
  9
$DIMZIN
 70
    8
  9
$DIMBLK
  1

  9
$DIMASO
 70
    1
  9
$DIMSHO
 70
    1
  9
$DIMPOST
  1

  9
$DIMAPOST
  1

  9
$DIMALT
 70
    0
  9
$DIMALTD
 70
    3
  9
$DIMALTF
 40
0.03937
  9
$DIMLFAC
 40
1
  9
$DIMTOFL
 70
    1
  9
$DIMTVP
 40
0
  9
$DIMTIX
 70
    0
  9
$DIMSOXD
 70
    0
  9
$DIMSAH
 70
    0
  9
$DIMBLK1
  1

  9
$DIMBLK2
  1

  9
$DIMSTYLE
  2
STANDARD
  9
$DIMCLRD
 70
    0
  9
$DIMCLRE
 70
    0
  9
$DIMCLRT
 70
    0
  9
$DIMTFAC
 40
1
  9
$DIMGAP
 40
0.03125
  9
$DIMJUST
 70
    0
  9
$DIMSD1
 70
    0
  9
$DIMSD2
 70
    0
  9
$DIMTOLJ
 70
    0
  9
$DIMTZIN
 70
    8
  9
$DIMALTZ
 70
    0
  9
$DIMALTTZ
 70
    0
  9
$DIMUPT
 70
    0
  9
$DIMDEC
 70
    5
  9
$DIMTDEC
 70
    2
  9
$DIMALTU
 70
    2
  9
$DIMALTTD
 70
    3
  9
$DIMTXSTY
  7
romanc
  9
$DIMAUNIT
 70
    0
  9
$DIMADEC
 70
    1
  9
$DIMALTRND
 40
0
  9
$DIMAZIN
 70
    0
  9
$DIMDSEP
 70
   44
  9
$DIMATFIT
 70
    3
  9
$DIMFRAC
 70
    0
  9
$DIMLDRBLK
  1
STANDARD
  9
$DIMLUNIT
 70
    5
  9
$DIMLWD
 70
   -2
  9
$DIMLWE
 70
   -2
  9
$DIMTMOVE
 70
    0
  9
$DIMFXL
 40
1
  9
$DIMFXLON
 70
    0
  9
$DIMJOGANG
 40
0.7854
  9
$DIMTFILL
 70
    0
  9
$DIMTFILLCLR
 70
    0
  9
$DIMARCSYM
 70
    0
  9
$DIMLTYPE
  6

  9
$DIMLTEX1
  6

  9
$DIMLTEX2
  6

  9
$LUNITS
 70
    5
  9
$LUPREC
 70
    5
  9
$SKETCHINC
 40
1
  9
$FILLETRAD
 40
0
  9
$AUNITS
 70
    0
  9
$AUPREC
 70
    1
  9
$MENU
  1
.
  9
$ELEVATION
 40
0
  9
$PELEVATION
 40
0
  9
$THICKNESS
 40
0
  9
$LIMCHECK
 70
    0
  9
$CHAMFERA
 40
0
  9
$CHAMFERB
 40
0
  9
$CHAMFERC
 40
0
  9
$CHAMFERD
 40
0
  9
$SKPOLY
 70
    0
  9
$USRTIMER
 70
    1
  9
$ANGBASE
 50
0
  9
$ANGDIR
 70
    0
  9
$PDMODE
 70
   34
  9
$PDSIZE
 40
0
  9
$PLINEWID
 40
0
  9
$SPLFRAME
 70
    0
  9
$SPLINETYPE
 70
    2
  9
$SPLINESEGS
 70
    8
  9
$HANDSEED
  5
20000
  9
$SURFTAB1
 70
    6
  9
$SURFTAB2
 70
    6
  9
$SURFTYPE
 70
    6
  9
$SURFU
 70
    6
  9
$SURFV
 70
    6
  9
$UCSBASE
  2

  9
$UCSNAME
  2

  9
$UCSORG
 10
0
 20
0
 30
0
  9
$UCSXDIR
 10
1
 20
0
 30
0
  9
$UCSYDIR
 10
0
 20
1
 30
0
  9
$UCSORTHOREF
  2

  9
$UCSORTHOVIEW
 70
    0
  9
$UCSORGTOP
 10
0
 20
0
 30
0
  9
$UCSORGBOTTOM
 10
0
 20
0
 30
0
  9
$UCSORGLEFT
 10
0
 20
0
 30
0
  9
$UCSORGRIGHT
 10
0
 20
0
 30
0
  9
$UCSORGFRONT
 10
0
 20
0
 30
0
  9
$UCSORGBACK
 10
0
 20
0
 30
0
  9
$PUCSBASE
  2

  9
$PUCSNAME
  2

  9
$PUCSORG
 10
0
 20
0
 30
0
  9
$PUCSXDIR
 10
1
 20
0
 30
0
  9
$PUCSYDIR
 10
0
 20
1
 30
0
  9
$PUCSORTHOREF
  2

  9
$PUCSORTHOVIEW
 70
    0
  9
$PUCSORGTOP
 10
0
 20
0
 30
0
  9
$PUCSORGBOTTOM
 10
0
 20
0
 30
0
  9
$PUCSORGLEFT
 10
0
 20
0
 30
0
  9
$PUCSORGRIGHT
 10
0
 20
0
 30
0
  9
$PUCSORGFRONT
 10
0
 20
0
 30
0
  9
$PUCSORGBACK
 10
0
 20
0
 30
0
  9
$USERI1
 70
    0
  9
$USERI2
 70
    0
  9
$USERI3
 70
    0
  9
$USERI4
 70
    0
  9
$USERI5
 70
    0
  9
$USERR1
 40
0
  9
$USERR2
 40
0
  9
$USERR3
 40
0
  9
$USERR4
 40
0
  9
$USERR5
 40
0
  9
$WORLDVIEW
 70
    1
  9
$SHADEDGE
 70
    3
  9
$SHADEDIF
 70
   70
  9
$TILEMODE
 70
    1
  9
$MAXACTVP
 70
   64
  9
$PINSBASE
 10
0
 20
0
 30
0
  9
$PLIMCHECK
 70
    0
  9
$PEXTMIN
 10
0
 20
0
 30
0
  9
$PEXTMAX
 10
0
 20
0
 30
0
  9
$GRIDMODE
 70
    1
  9
$SNAPSTYLE
 70
    0
  9
$GRIDUNIT
 10
0
 20
0
  9
$PLIMMIN
 10
0
 20
0
  9
$PLIMMAX
 10
11
 20
8.5
  9
$UNITMODE
 70
    0
  9
$VISRETAIN
 70
    1
  9
$PLINEGEN
 70
    0
  9
$PSLTSCALE
 70
    1
  9
$TREEDEPTH
 70
 3020
  9
$CMLSTYLE
  2
Standard
  9
$CMLJUST
 70
    0
  9
$CMLSCALE
 40
20
  9
$PROXYGRAPHICS
 70
    1
  9
$MEASUREMENT
 70
    1
  9
$CELWEIGHT
370
   -1
  9
$ENDCAPS
280
    0
  9
$JOINSTYLE
280
    0
  9
$LWDISPLAY
290
    0
  9
$INSUNITS
 70
    1
  9
$HYPERLINKBASE
  1

  9
$STYLESHEET
  1

  9
$XEDIT
290
    1
  9
$CEPSNTYPE
380
    0
  9
$PSTYLEMODE
290
    1
  9
$EXTNAMES
290
    1
  9
$PSVPSCALE
 40
1
  9
$OLESTARTUP
290
    0
  9
$SORTENTS
280
  127
  9
$INDEXCTL
280
    0
  9
$HIDETEXT
280
    1
  9
$XCLIPFRAME
290
    0
  9
$HALOGAP
280
    0
  9
$OBSCOLOR
 70
  257
  9
$OBSLTYPE
280
    0
  9
$INTERSECTIONDISPLAY
280
    0
  9
$INTERSECTIONCOLOR
 70
  257
  9
$DIMASSOC
280
    1
  9
$PROJECTNAME
  1

  9
$CAMERADISPLAY
290
    0
  9
$LENSLENGTH
 40
50
  9
$CAMERAHEIGHT
 40
0
  9
$STEPSPERSEC
 40
2
  9
$STEPSIZE
 40
50
  9
$3DDWFPREC
 40
2
  9
$PSOLWIDTH
 40
5
  9
$PSOLHEIGHT
 40
80
  9
$LOFTANG1
 40
1.570796326794897
  9
$LOFTANG2
 40
1.570796326794897
  9
$LOFTMAG1
 40
0
  9
$LOFTMAG2
 40
0
  9
$LOFTPARAM
 70
    7
  9
$LOFTNORMALS
280
    1
  9
$LATITUDE
 40
1
  9
$LONGITUDE
 40
1
  9
$NORTHDIRECTION
 40
0
  9
$TIMEZONE
 70
-8000
  9
$LIGHTGLYPHDISPLAY
280
    1
  9
$TILEMODELIGHTSYNCH
280
    1
  9
$SOLIDHIST
280
    1
  9
$SHOWHIST
280
    1
  9
$DWFFRAME
280
    2
  9
$DGNFRAME
280
    0
  9
$REALWORLDSCALE
290
    1
  9
$INTERFERECOLOR
 62
    1
  9
$CSHADOW
280
    0
  9
$SHADOWPLANELOCATION
 40
0
  0
ENDSEC
  0
SECTION
  2
CLASSES
  0
ENDSEC
  0
SECTION
  2
TABLES
  0
TABLE
  2
VPORT
  5
8
330
0
100
AcDbSymbolTable
 70
    1
  0
VPORT
  5
31
330
2
100
AcDbSymbolTableRecord
100
AcDbViewportTableRecord
  2
*ACTIVE
 70
    0
 10
0
 20
0
 11
1
 21
1
 12
24.67673255270101
 22
13.21467069938676
 13
0
 23
0
 14
10
 24
10
 15
10
 25
10
 16
0
 26
0
 36
1
 17
0
 27
0
 37
0
 40
57.48557015117849
 41
1.814634146341463
 42
50
 43
0
 44
0
 50
0
 51
0
 71
    0
 72
  100
 73
    1
 74
    3
 75
    0
 76
    1
 77
    0
 78
    0
281
    0
 65
    1
110
0
120
0
130
0
111
1
121
0
131
0
112
0
122
1
132
0
 79
    0
146
0
348
10020
 60
    7
 61
    5
292
1
282
    1
141
0
142
0
 63
  250
421
3358443
  0
ENDTAB
  0
TABLE
  2
LTYPE
  5
5
330
0
100
AcDbSymbolTable
 70
    4
  0
LTYPE
  5
14
330
5
100
AcDbSymbolTableRecord
100
AcDbLinetypeTableRecord
  2
ByBlock
 70
    0
  3

 72
   65
 73
    0
 40
0
  0
LTYPE
  5
15
330
5
100
AcDbSymbolTableRecord
100
AcDbLinetypeTableRecord
  2
ByLayer
 70
    0
  3

 72
   65
 73
    0
 40
0
  0
LTYPE
  5
16
330
5
100
AcDbSymbolTableRecord
100
AcDbLinetypeTableRecord
  2
Continuous
 70
    0
  3
Solid line
 72
   65
 73
    0
 40
0
  0
LTYPE
  5
32
330
5
100
AcDbSymbolTableRecord
100
AcDbLinetypeTableRecord
  2
DOT
 70
    0
  3
Dot . . . . . . . . . . . . . . . . . . . . . .
 72
   65
 73
    2
 40
6.35
 49
0
 74
    0
 49
-6.35
 74
    0
  0
LTYPE
  5
33
330
5
100
AcDbSymbolTableRecord
100
AcDbLinetypeTableRecord
  2
DOTTINY
 70
    0
  3
Dot (.15x) .....................................
 72
   65
 73
    2
 40
0.9525
 49
0
 74
    0
 49
-0.9525
 74
    0
  0
LTYPE
  5
34
330
5
100
AcDbSymbolTableRecord
100
AcDbLinetypeTableRecord
  2
DOT2
 70
    0
  3
Dot (.5x) .....................................
 72
   65
 73
    2
 40
3.175
 49
0
 74
    0
 49
-3.175
 74
    0
  0
LTYPE
  5
35
330
5
100
AcDbSymbolTableRecord
100
AcDbLinetypeTableRecord
  2
DOTX2
 70
    0
  3
Dot (2x) .  .  .  .  .  .  .  .  .  .  .  .  .
 72
   65
 73
    2
 40
12.7
 49
0
 74
    0
 49
-12.7
 74
    0
  0
LTYPE
  5
36
330
5
100
AcDbSymbolTableRecord
100
AcDbLinetypeTableRecord
  2
DASHED
 70
    0
  3
Dashed _ _ _ _ _ _ _ _ _ _ _ _ _ _ _ _ _
 72
   65
 73
    2
 40
19.05
 49
12.7
 74
    0
 49
-6.35
 74
    0
  0
LTYPE
  5
37
330
5
100
AcDbSymbolTableRecord
100
AcDbLinetypeTableRecord
  2
DASHEDTINY
 70
    0
  3
Dashed (.15x) _ _ _ _ _ _ _ _ _ _ _ _ _ _ _ _ _
 72
   65
 73
    2
 40
2.8575
 49
1.905
 74
    0
 49
-0.9525
 74
    0
  0
LTYPE
  5
38
330
5
100
AcDbSymbolTableRecord
100
AcDbLinetypeTableRecord
  2
DASHED2
 70
    0
  3
Dashed (.5x) _ _ _ _ _ _ _ _ _ _ _ _ _ _ _ _ _
 72
   65
 73
    2
 40
9.524999999999999
 49
6.35
 74
    0
 49
-3.175
 74
    0
  0
LTYPE
  5
39
330
5
100
AcDbSymbolTableRecord
100
AcDbLinetypeTableRecord
  2
DASHEDX2
 70
    0
  3
Dashed (2x) ____  ____  ____  ____  ____  ___
 72
   65
 73
    2
 40
38.09999999999999
 49
25.4
 74
    0
 49
-12.7
 74
    0
  0
LTYPE
  5
3A
330
5
100
AcDbSymbolTableRecord
100
AcDbLinetypeTableRecord
  2
DASHDOT
 70
    0
  3
Dash dot __ . __ . __ . __ . __ . __ . __ . __
 72
   65
 73
    4
 40
25.4
 49
12.7
 74
    0
 49
-6.35
 74
    0
 49
0
 74
    0
 49
-6.35
 74
    0
  0
LTYPE
  5
3B
330
5
100
AcDbSymbolTableRecord
100
AcDbLinetypeTableRecord
  2
DASHDOTTINY
 70
    0
  3
Dash dot (.15x) _._._._._._._._._._._._._._._.
 72
   65
 73
    4
 40
3.81
 49
1.905
 74
    0
 49
-0.9525
 74
    0
 49
0
 74
    0
 49
-0.9525
 74
    0
  0
LTYPE
  5
3C
330
5
100
AcDbSymbolTableRecord
100
AcDbLinetypeTableRecord
  2
DASHDOT2
 70
    0
  3
Dash dot (.5x) _._._._._._._._._._._._._._._.
 72
   65
 73
    4
 40
12.7
 49
6.35
 74
    0
 49
-3.175
 74
    0
 49
0
 74
    0
 49
-3.175
 74
    0
  0
LTYPE
  5
3D
330
5
100
AcDbSymbolTableRecord
100
AcDbLinetypeTableRecord
  2
DASHDOTX2
 70
    0
  3
Dash dot (2x) ____  .  ____  .  ____  .  ___
 72
   65
 73
    4
 40
50.8
 49
25.4
 74
    0
 49
-12.7
 74
    0
 49
0
 74
    0
 49
-12.7
 74
    0
  0
LTYPE
  5
3E
330
5
100
AcDbSymbolTableRecord
100
AcDbLinetypeTableRecord
  2
DIVIDE
 70
    0
  3
Divide ____ . . ____ . . ____ . . ____ . . ____
 72
   65
 73
    6
 40
31.75
 49
12.7
 74
    0
 49
-6.35
 74
    0
 49
0
 74
    0
 49
-6.35
 74
    0
 49
0
 74
    0
 49
-6.35
 74
    0
  0
LTYPE
  5
3F
330
5
100
AcDbSymbolTableRecord
100
AcDbLinetypeTableRecord
  2
DIVIDETINY
 70
    0
  3
Divide (.15x) __..__..__..__..__..__..__..__.._
 72
   65
 73
    6
 40
4.7625
 49
1.905
 74
    0
 49
-0.9525
 74
    0
 49
0
 74
    0
 49
-0.9525
 74
    0
 49
0
 74
    0
 49
-0.9525
 74
    0
  0
LTYPE
  5
40
330
5
100
AcDbSymbolTableRecord
100
AcDbLinetypeTableRecord
  2
DIVIDE2
 70
    0
  3
Divide (.5x) __..__..__..__..__..__..__..__.._
 72
   65
 73
    6
 40
15.875
 49
6.35
 74
    0
 49
-3.175
 74
    0
 49
0
 74
    0
 49
-3.175
 74
    0
 49
0
 74
    0
 49
-3.175
 74
    0
  0
LTYPE
  5
41
330
5
100
AcDbSymbolTableRecord
100
AcDbLinetypeTableRecord
  2
DIVIDEX2
 70
    0
  3
Divide (2x) ________  .  .  ________  .  .  _
 72
   65
 73
    6
 40
63.5
 49
25.4
 74
    0
 49
-12.7
 74
    0
 49
0
 74
    0
 49
-12.7
 74
    0
 49
0
 74
    0
 49
-12.7
 74
    0
  0
LTYPE
  5
42
330
5
100
AcDbSymbolTableRecord
100
AcDbLinetypeTableRecord
  2
BORDER
 70
    0
  3
Border __ __ . __ __ . __ __ . __ __ . __ __ .
 72
   65
 73
    6
 40
44.45
 49
12.7
 74
    0
 49
-6.35
 74
    0
 49
12.7
 74
    0
 49
-6.35
 74
    0
 49
0
 74
    0
 49
-6.35
 74
    0
  0
LTYPE
  5
43
330
5
100
AcDbSymbolTableRecord
100
AcDbLinetypeTableRecord
  2
BORDERTINY
 70
    0
  3
Border (.15x) __.__.__.__.__.__.__.__.__.__.__.
 72
   65
 73
    6
 40
6.6675
 49
1.905
 74
    0
 49
-0.9525
 74
    0
 49
1.905
 74
    0
 49
-0.9525
 74
    0
 49
0
 74
    0
 49
-0.9525
 74
    0
  0
LTYPE
  5
44
330
5
100
AcDbSymbolTableRecord
100
AcDbLinetypeTableRecord
  2
BORDER2
 70
    0
  3
Border (.5x) __.__.__.__.__.__.__.__.__.__.__.
 72
   65
 73
    6
 40
22.225
 49
6.35
 74
    0
 49
-3.175
 74
    0
 49
6.35
 74
    0
 49
-3.175
 74
    0
 49
0
 74
    0
 49
-3.175
 74
    0
  0
LTYPE
  5
45
330
5
100
AcDbSymbolTableRecord
100
AcDbLinetypeTableRecord
  2
BORDERX2
 70
    0
  3
Border (2x) ____  ____  .  ____  ____  .  ___
 72
   65
 73
    6
 40
88.89999999999999
 49
25.4
 74
    0
 49
-12.7
 74
    0
 49
25.4
 74
    0
 49
-12.7
 74
    0
 49
0
 74
    0
 49
-12.7
 74
    0
  0
LTYPE
  5
46
330
5
100
AcDbSymbolTableRecord
100
AcDbLinetypeTableRecord
  2
CENTER
 70
    0
  3
Center ____ _ ____ _ ____ _ ____ _ ____ _ ____
 72
   65
 73
    4
 40
50.8
 49
31.75
 74
    0
 49
-6.35
 74
    0
 49
6.35
 74
    0
 49
-6.35
 74
    0
  0
LTYPE
  5
47
330
5
100
AcDbSymbolTableRecord
100
AcDbLinetypeTableRecord
  2
CENTERTINY
 70
    0
  3
Center (.15x) ___ _ ___ _ ___ _ ___ _ ___ _ ___
 72
   65
 73
    4
 40
7.619999999999999
 49
4.7625
 74
    0
 49
-0.9525
 74
    0
 49
0.9525
 74
    0
 49
-0.9525
 74
    0
  0
LTYPE
  5
48
330
5
100
AcDbSymbolTableRecord
100
AcDbLinetypeTableRecord
  2
CENTER2
 70
    0
  3
Center (.5x) ___ _ ___ _ ___ _ ___ _ ___ _ ___
 72
   65
 73
    4
 40
28.575
 49
19.05
 74
    0
 49
-3.175
 74
    0
 49
3.175
 74
    0
 49
-3.175
 74
    0
  0
LTYPE
  5
49
330
5
100
AcDbSymbolTableRecord
100
AcDbLinetypeTableRecord
  2
CENTERX2
 70
    0
  3
Center (2x) ________  __  ________  __  _____
 72
   65
 73
    4
 40
101.6
 49
63.5
 74
    0
 49
-12.7
 74
    0
 49
12.7
 74
    0
 49
-12.7
 74
    0
  0
ENDTAB
  0
TABLE
  2
LAYER
  5
2
330
0
100
AcDbSymbolTable
 70
    1
  0
LAYER
  5
10
330
2
100
AcDbSymbolTableRecord
100
AcDbLayerTableRecord
  2
0
 70
    0
 62
    7
  6
CONTINUOUS
370
   18
390
F
  0
ENDTAB
  0
TABLE
  2
STYLE
  5
3
330
0
100
AcDbSymbolTable
 70
    3
  0
STYLE
  5
4A
330
2
100
AcDbSymbolTableRecord
100
AcDbTextStyleTableRecord
  2
Standard
 70
    0
 40
0
 41
1
 50
0
 71
    0
 42
1
  3
txt
  4

  0
ENDTAB
  0
TABLE
  2
VIEW
  5
6
330
0
100
AcDbSymbolTable
 70
    0
  0
ENDTAB
  0
TABLE
  2
UCS
  5
7
330
0
100
AcDbSymbolTable
 70
    0
  0
ENDTAB
  0
TABLE
  2
APPID
  5
9
330
0
100
AcDbSymbolTable
 70
    1
  0
APPID
  5
12
330
9
100
AcDbSymbolTableRecord
100
AcDbRegAppTableRecord
  2
ACAD
 70
    0
  0
APPID
  5
4B
330
9
100
AcDbSymbolTableRecord
100
AcDbRegAppTableRecord
  2
LibreCad
 70
    0
  0
ENDTAB
  0
TABLE
  2
DIMSTYLE
  5
A
330
0
100
AcDbSymbolTable
 70
    1
100
AcDbDimStyleTable
 71
    1
  0
DIMSTYLE
105
4C
330
A
100
AcDbSymbolTableRecord
100
AcDbDimStyleTableRecord
  2
Standard
 70
    0
 40
1
 41
0.09375
 42
0.03125
 43
0.38
 44
0.0625
 45
0
 46
0
 47
0
 48
0
 49
1
140
0.09375
141
0.09
142
0
143
25.4
144
1
145
0
146
1
147
0.03125
148
0
 71
    0
 72
    0
 73
    0
 74
    1
 75
    0
 76
    0
 77
    0
 78
    8
 79
    0
170
    0
171
    2
172
    0
173
    0
174
    0
175
    0
176
    0
177
    0
178
    0
179
    1
271
    5
272
    4
273
    2
274
    2
275
    0
276
    0
277
    5
278
   44
279
    0
280
    0
281
    0
282
    0
283
    1
284
    0
285
    0
286
    0
288
    0
289
    3
340
romanc
341

371
   -2
372
   -2
  0
ENDTAB
  0
TABLE
  2
BLOCK_RECORD
  5
1
330
0
100
AcDbSymbolTable
 70
    2
  0
BLOCK_RECORD
  5
1F
330
1
100
AcDbSymbolTableRecord
100
AcDbBlockTableRecord
  2
*Model_Space
 70
    0
280
    1
281
    0
  0
BLOCK_RECORD
  5
1E
330
1
100
AcDbSymbolTableRecord
100
AcDbBlockTableRecord
  2
*Paper_Space
 70
    0
280
    1
281
    0
  0
ENDTAB
  0
ENDSEC
  0
SECTION
  2
BLOCKS
  0
BLOCK
  5
20
330
1F
100
AcDbEntity
  8
0
100
AcDbBlockBegin
  2
*Model_Space
 70
    0
 10
0
 20
0
 30
0
  3
*Model_Space
  1

  0
ENDBLK
  5
21
330
1F
100
AcDbEntity
  8
0
100
AcDbBlockEnd
  0
BLOCK
  5
1C
330
1B
100
AcDbEntity
  8
0
100
AcDbBlockBegin
  2
*Paper_Space
 70
    0
 10
0
 20
0
 30
0
  3
*Paper_Space
  1

  0
ENDBLK
  5
1D
330
1F
100
AcDbEntity
  8
0
100
AcDbBlockEnd
  0
ENDSEC
  0
SECTION
  2
ENTITIES
  0
LWPOLYLINE
  5
4D
100
AcDbEntity
  8
0
  6
ByLayer
 62
  256
370
   -1
100
AcDbPolyline
 90
   57
 70
    0
 43
0
 10
-6.087577686558671
 20
10.57716623039569
 10
-6.163672407640655
 20
10.50107150931371
 10
-6.315861849804621
 20
10.50107150931371
 10
-6.391956570886604
 20
10.50107150931371
 10
-6.544146013050571
 20
10.50107150931371
 10
-6.620240734132555
 20
10.50107150931371
 10
-6.696335455214538
 20
10.42497678823172
 10
-6.772430176296521
 20
10.42497678823172
 10
-6.848524897378505
 20
10.42497678823172
 10
-6.924619618460488
 20
10.34888206714974
 10
-7.000714339542472
 20
10.34888206714974
 10
-7.076809060624455
 20
10.34888206714974
 10
-7.152903781706438
 20
10.27278734606776
 10
-7.305093223870405
 20
10.27278734606776
 10
-7.381187944952388
 20
10.27278734606776
 10
-7.533377387116356
 20
10.19669262498577
 10
-7.609472108198339
 20
10.19669262498577
 10
-7.685566829280322
 20
10.12059790390379
 10
-7.761661550362305
 20
10.12059790390379
 10
-7.837756271444289
 20
10.04450318282181
 10
-7.913850992526272
 20
9.968408461739823
 10
-7.989945713608256
 20
9.968408461739823
 10
-8.066040434690239
 20
9.892313740657841
 10
-8.218229876854206
 20
9.892313740657841
 10
-8.294324597936189
 20
9.816219019575858
 10
-8.446514040100157
 20
9.816219019575858
 10
-8.52260876118214
 20
9.740124298493873
 10
-8.674798203346105
 20
9.66402957741189
 10
-8.826987645510073
 20
9.66402957741189
 10
-8.97917708767404
 20
9.587934856329907
 10
-9.131366529838006
 20
9.511840135247922
 10
-9.283555972001974
 20
9.511840135247922
 10
-9.43574541416594
 20
9.43574541416594
 10
-9.511840135247922
 20
9.43574541416594
 10
-9.587934856329907
 20
9.359650693083957
 10
-9.66402957741189
 20
9.359650693083957
 10
-9.740124298493873
 20
9.283555972001974
 10
-9.740124298493873
 20
9.207461250919989
 10
-9.816219019575858
 20
9.207461250919989
 10
-9.816219019575858
 20
9.131366529838006
 10
-9.892313740657841
 20
9.131366529838006
 10
-9.892313740657841
 20
9.055271808756023
 10
-9.892313740657841
 20
8.97917708767404
 10
-9.816219019575858
 20
8.97917708767404
 10
-9.740124298493873
 20
8.903082366592056
 10
-9.66402957741189
 20
8.826987645510073
 10
-9.587934856329907
 20
8.826987645510073
 10
-9.511840135247922
 20
8.75089292442809
 10
-9.43574541416594
 20
8.75089292442809
 10
-9.43574541416594
 20
8.674798203346105
 10
-9.359650693083957
 20
8.674798203346105
 10
-9.283555972001974
 20
8.674798203346105
 10
-9.283555972001974
 20
8.598703482264122
 10
-9.283555972001974
 20
8.52260876118214
 10
-9.359650693083957
 20
8.52260876118214
 10
-9.359650693083957
 20
8.446514040100157
 10
-9.43574541416594
 20
8.446514040100157
  0
LWPOLYLINE
  5
4E
100
AcDbEntity
  8
0
  6
ByLayer
 62
  256
370
   -1
100
AcDbPolyline
 90
   60
 70
    0
 43
0
 10
2.891599401115369
 20
7.000714339542472
 10
2.815504680033385
 20
7.076809060624455
 10
2.815504680033385
 20
7.152903781706438
 10
2.891599401115369
 20
7.228998502788421
 10
2.891599401115369
 20
7.305093223870405
 10
2.967694122197352
 20
7.305093223870405
 10
3.043788843279335
 20
7.381187944952388
 10
3.119883564361319
 20
7.381187944952388
 10
3.119883564361319
 20
7.457282666034372
 10
3.195978285443302
 20
7.457282666034372
 10
3.272073006525285
 20
7.457282666034372
 10
3.348167727607269
 20
7.533377387116356
 10
3.424262448689253
 20
7.533377387116356
 10
3.500357169771236
 20
7.533377387116356
 10
3.576451890853219
 20
7.609472108198339
 10
3.728641333017186
 20
7.609472108198339
 10
3.804736054099169
 20
7.685566829280322
 10
3.956925496263136
 20
7.761661550362305
 10
4.033020217345119
 20
7.761661550362305
 10
4.185209659509086
 20
7.837756271444289
 10
4.26130438059107
 20
7.837756271444289
 10
4.337399101673053
 20
7.837756271444289
 10
4.413493822755036
 20
7.913850992526272
 10
4.48958854383702
 20
7.913850992526272
 10
4.565683264919003
 20
7.913850992526272
 10
4.641777986000987
 20
7.913850992526272
 10
4.71787270708297
 20
7.913850992526272
 10
4.793967428164954
 20
7.913850992526272
 10
4.870062149246936
 20
7.989945713608256
 10
5.022251591410903
 20
7.989945713608256
 10
5.17444103357487
 20
7.989945713608256
 10
5.326630475738837
 20
7.989945713608256
 10
5.40272519682082
 20
8.066040434690239
 10
5.554914638984787
 20
8.066040434690239
 10
5.631009360066771
 20
8.066040434690239
 10
5.707104081148754
 20
8.066040434690239
 10
5.783198802230737
 20
8.066040434690239
 10
5.85929352331272
 20
8.066040434690239
 10
5.935388244394704
 20
7.989945713608256
 10
6.011482965476688
 20
7.989945713608256
 10
6.087577686558671
 20
7.989945713608256
 10
6.239767128722638
 20
7.913850992526272
 10
6.315861849804621
 20
7.913850992526272
 10
6.391956570886604
 20
7.913850992526272
 10
6.468051291968588
 20
7.837756271444289
 10
6.544146013050571
 20
7.837756271444289
 10
6.620240734132555
 20
7.837756271444289
 10
6.696335455214538
 20
7.837756271444289
 10
6.772430176296521
 20
7.837756271444289
 10
6.848524897378505
 20
7.913850992526272
 10
6.924619618460488
 20
7.913850992526272
 10
7.000714339542472
 20
7.989945713608256
 10
7.076809060624455
 20
7.989945713608256
 10
7.152903781706438
 20
7.989945713608256
 10
7.152903781706438
 20
8.066040434690239
 10
7.228998502788421
 20
8.066040434690239
 10
7.305093223870405
 20
8.066040434690239
 10
7.305093223870405
 20
8.142135155772221
 10
7.381187944952388
 20
8.142135155772221
 10
7.457282666034372
 20
8.218229876854206
  0
LWPOLYLINE
  5
4F
100
AcDbEntity
  8
0
  6
ByLayer
 62
  256
370
   -1
100
AcDbPolyline
 90
    3
 70
    0
 43
0
 10
1.902368027049585
 20
12.17515537311734
 10
1.826273305967601
 20
12.25125009419932
 10
1.750178584885618
 20
12.25125009419932
  0
LWPOLYLINE
  5
50
100
AcDbEntity
  8
0
  6
ByLayer
 62
  256
370
   -1
100
AcDbPolyline
 90
   71
 70
    0
 43
0
 10
-6.391956570886604
 20
8.75089292442809
 10
-6.315861849804621
 20
8.75089292442809
 10
-6.315861849804621
 20
8.826987645510073
 10
-6.239767128722638
 20
8.826987645510073
 10
-6.163672407640655
 20
8.903082366592056
 10
-6.087577686558671
 20
8.903082366592056
 10
-6.011482965476688
 20
8.903082366592056
 10
-5.935388244394704
 20
8.97917708767404
 10
-5.783198802230737
 20
8.97917708767404
 10
-5.707104081148754
 20
8.97917708767404
 10
-5.631009360066771
 20
8.97917708767404
 10
-5.478819917902804
 20
8.97917708767404
 10
-5.40272519682082
 20
9.055271808756023
 10
-5.250535754656854
 20
9.055271808756023
 10
-5.17444103357487
 20
9.055271808756023
 10
-5.022251591410903
 20
9.055271808756023
 10
-4.94615687032892
 20
9.055271808756023
 10
-4.793967428164954
 20
9.131366529838006
 10
-4.641777986000987
 20
9.131366529838006
 10
-4.48958854383702
 20
9.131366529838006
 10
-4.337399101673053
 20
9.131366529838006
 10
-4.185209659509086
 20
9.131366529838006
 10
-3.956925496263136
 20
9.131366529838006
 10
-3.804736054099169
 20
9.131366529838006
 10
-3.652546611935203
 20
9.131366529838006
 10
-3.424262448689253
 20
9.131366529838006
 10
-3.272073006525285
 20
9.207461250919989
 10
-3.043788843279335
 20
9.207461250919989
 10
-2.891599401115369
 20
9.207461250919989
 10
-2.739409958951402
 20
9.207461250919989
 10
-2.587220516787435
 20
9.207461250919989
 10
-2.435031074623468
 20
9.207461250919989
 10
-2.282841632459502
 20
9.283555972001974
 10
-2.206746911377518
 20
9.283555972001974
 10
-2.130652190295535
 20
9.283555972001974
 10
-2.054557469213552
 20
9.283555972001974
 10
-1.978462748131568
 20
9.359650693083957
 10
-1.902368027049585
 20
9.359650693083957
 10
-1.826273305967601
 20
9.359650693083957
 10
-1.750178584885618
 20
9.43574541416594
 10
-1.674083863803634
 20
9.43574541416594
 10
-1.521894421639668
 20
9.511840135247922
 10
-1.445799700557684
 20
9.587934856329907
 10
-1.369704979475701
 20
9.587934856329907
 10
-1.293610258393717
 20
9.66402957741189
 10
-1.217515537311734
 20
9.66402957741189
 10
-1.141420816229751
 20
9.66402957741189
 10
-1.065326095147767
 20
9.66402957741189
 10
-1.065326095147767
 20
9.740124298493873
 10
-0.989231374065784
 20
9.740124298493873
 10
-0.9131366529838006
 20
9.740124298493873
 10
-0.8370419319018172
 20
9.816219019575858
 10
-0.7609472108198339
 20
9.816219019575858
 10
-0.6848524897378505
 20
9.816219019575858
 10
-0.6087577686558671
 20
9.892313740657841
 10
-0.5326630475738837
 20
9.892313740657841
 10
-0.4565683264919003
 20
9.892313740657841
 10
-0.3804736054099169
 20
9.892313740657841
 10
-0.2282841632459502
 20
9.892313740657841
 10
-0.1521894421639668
 20
9.892313740657841
 10
-0.07609472108198338
 20
9.892313740657841
 10
0
 20
9.892313740657841
 10
0.07609472108198338
 20
9.892313740657841
 10
0.1521894421639668
 20
9.892313740657841
 10
0.2282841632459502
 20
9.892313740657841
 10
0.3043788843279335
 20
9.892313740657841
 10
0.3804736054099169
 20
9.892313740657841
 10
0.4565683264919003
 20
9.892313740657841
 10
0.5326630475738837
 20
9.968408461739823
 10
0.6087577686558671
 20
9.968408461739823
 10
0.6848524897378505
 20
9.968408461739823
  0
LWPOLYLINE
  5
51
100
AcDbEntity
  8
0
  6
ByLayer
 62
  256
370
   -1
100
AcDbPolyline
 90
   68
 70
    0
 43
0
 10
4.48958854383702
 20
4.71787270708297
 10
4.565683264919003
 20
4.71787270708297
 10
4.71787270708297
 20
4.71787270708297
 10
4.793967428164954
 20
4.71787270708297
 10
4.94615687032892
 20
4.641777986000987
 10
5.022251591410903
 20
4.641777986000987
 10
5.098346312492887
 20
4.641777986000987
 10
5.17444103357487
 20
4.565683264919003
 10
5.250535754656854
 20
4.565683264919003
 10
5.326630475738837
 20
4.565683264919003
 10
5.326630475738837
 20
4.48958854383702
 10
5.326630475738837
 20
4.413493822755036
 10
5.326630475738837
 20
4.337399101673053
 10
5.326630475738837
 20
4.26130438059107
 10
5.250535754656854
 20
4.185209659509086
 10
5.250535754656854
 20
4.109114938427103
 10
5.250535754656854
 20
4.033020217345119
 10
5.326630475738837
 20
3.956925496263136
 10
5.326630475738837
 20
3.880830775181153
 10
5.40272519682082
 20
3.804736054099169
 10
5.40272519682082
 20
3.728641333017186
 10
5.478819917902804
 20
3.652546611935203
 10
5.478819917902804
 20
3.576451890853219
 10
5.478819917902804
 20
3.500357169771236
 10
5.478819917902804
 20
3.424262448689253
 10
5.478819917902804
 20
3.348167727607269
 10
5.478819917902804
 20
3.272073006525285
 10
5.478819917902804
 20
3.195978285443302
 10
5.478819917902804
 20
3.119883564361319
 10
5.478819917902804
 20
3.043788843279335
 10
5.478819917902804
 20
2.967694122197352
 10
5.478819917902804
 20
2.891599401115369
 10
5.478819917902804
 20
2.815504680033385
 10
5.478819917902804
 20
2.739409958951402
 10
5.478819917902804
 20
2.663315237869419
 10
5.40272519682082
 20
2.587220516787435
 10
5.40272519682082
 20
2.511125795705452
 10
5.326630475738837
 20
2.435031074623468
 10
5.326630475738837
 20
2.358936353541485
 10
5.326630475738837
 20
2.282841632459502
 10
5.40272519682082
 20
2.206746911377518
 10
5.40272519682082
 20
2.130652190295535
 10
5.478819917902804
 20
2.054557469213552
 10
5.478819917902804
 20
1.978462748131568
 10
5.554914638984787
 20
1.902368027049585
 10
5.478819917902804
 20
1.826273305967601
 10
5.478819917902804
 20
1.750178584885618
 10
5.478819917902804
 20
1.674083863803634
 10
5.40272519682082
 20
1.674083863803634
 10
5.40272519682082
 20
1.597989142721651
 10
5.326630475738837
 20
1.521894421639668
 10
5.326630475738837
 20
1.445799700557684
 10
5.40272519682082
 20
1.369704979475701
 10
5.40272519682082
 20
1.293610258393717
 10
5.478819917902804
 20
1.217515537311734
 10
5.478819917902804
 20
1.141420816229751
 10
5.554914638984787
 20
1.141420816229751
 10
5.554914638984787
 20
1.065326095147767
 10
5.631009360066771
 20
0.989231374065784
 10
5.631009360066771
 20
0.9131366529838006
 10
5.707104081148754
 20
0.8370419319018172
 10
5.783198802230737
 20
0.7609472108198339
 10
5.85929352331272
 20
0.6848524897378505
 10
5.935388244394704
 20
0.6087577686558671
 10
6.011482965476688
 20
0.5326630475738837
 10
5.935388244394704
 20
0.5326630475738837
 10
6.011482965476688
 20
0.4565683264919003
 10
5.935388244394704
 20
0.3804736054099169
  0
LWPOLYLINE
  5
52
100
AcDbEntity
  8
0
  6
ByLayer
 62
  256
370
   -1
100
AcDbPolyline
 90
   35
 70
    0
 43
0
 10
-6.848524897378505
 20
-6.239767128722638
 10
-6.924619618460488
 20
-6.239767128722638
 10
-6.848524897378505
 20
-6.239767128722638
 10
-6.772430176296521
 20
-6.239767128722638
 10
-6.696335455214538
 20
-6.239767128722638
 10
-6.544146013050571
 20
-6.239767128722638
 10
-6.468051291968588
 20
-6.315861849804621
 10
-6.391956570886604
 20
-6.315861849804621
 10
-6.315861849804621
 20
-6.391956570886604
 10
-6.239767128722638
 20
-6.468051291968588
 10
-6.163672407640655
 20
-6.544146013050571
 10
-6.087577686558671
 20
-6.620240734132555
 10
-6.011482965476688
 20
-6.696335455214538
 10
-6.011482965476688
 20
-6.772430176296521
 10
-5.935388244394704
 20
-6.848524897378505
 10
-5.935388244394704
 20
-6.924619618460488
 10
-5.935388244394704
 20
-7.000714339542472
 10
-5.85929352331272
 20
-7.076809060624455
 10
-5.783198802230737
 20
-7.228998502788421
 10
-5.707104081148754
 20
-7.305093223870405
 10
-5.631009360066771
 20
-7.381187944952388
 10
-5.554914638984787
 20
-7.457282666034372
 10
-5.478819917902804
 20
-7.533377387116356
 10
-5.40272519682082
 20
-7.609472108198339
 10
-5.326630475738837
 20
-7.685566829280322
 10
-5.250535754656854
 20
-7.761661550362305
 10
-5.250535754656854
 20
-7.837756271444289
 10
-5.250535754656854
 20
-7.913850992526272
 10
-5.250535754656854
 20
-7.989945713608256
 10
-5.250535754656854
 20
-8.066040434690239
 10
-5.250535754656854
 20
-8.142135155772221
 10
-5.250535754656854
 20
-8.218229876854206
 10
-5.250535754656854
 20
-8.294324597936189
 10
-5.326630475738837
 20
-8.294324597936189
 10
-5.326630475738837
 20
-8.370419319018172
  0
LWPOLYLINE
  5
53
100
AcDbEntity
  8
0
  6
ByLayer
 62
  256
370
   -1
100
AcDbPolyline
 90
  102
 70
    0
 43
0
 10
-5.326630475738837
 20
-10.72935567255966
 10
-5.40272519682082
 20
-10.72935567255966
 10
-5.554914638984787
 20
-10.72935567255966
 10
-5.707104081148754
 20
-10.72935567255966
 10
-5.85929352331272
 20
-10.72935567255966
 10
-6.011482965476688
 20
-10.72935567255966
 10
-6.163672407640655
 20
-10.72935567255966
 10
-6.315861849804621
 20
-10.72935567255966
 10
-6.544146013050571
 20
-10.72935567255966
 10
-6.696335455214538
 20
-10.72935567255966
 10
-6.924619618460488
 20
-10.72935567255966
 10
-7.076809060624455
 20
-10.72935567255966
 10
-7.228998502788421
 20
-10.72935567255966
 10
-7.305093223870405
 20
-10.72935567255966
 10
-7.457282666034372
 20
-10.72935567255966
 10
-7.533377387116356
 20
-10.72935567255966
 10
-7.609472108198339
 20
-10.72935567255966
 10
-7.685566829280322
 20
-10.72935567255966
 10
-7.761661550362305
 20
-10.65326095147767
 10
-7.913850992526272
 20
-10.65326095147767
 10
-7.989945713608256
 20
-10.65326095147767
 10
-8.066040434690239
 20
-10.57716623039569
 10
-8.142135155772221
 20
-10.57716623039569
 10
-8.218229876854206
 20
-10.50107150931371
 10
-8.294324597936189
 20
-10.42497678823172
 10
-8.446514040100157
 20
-10.42497678823172
 10
-8.52260876118214
 20
-10.34888206714974
 10
-8.598703482264122
 20
-10.27278734606776
 10
-8.674798203346105
 20
-10.19669262498577
 10
-8.75089292442809
 20
-10.19669262498577
 10
-8.826987645510073
 20
-10.12059790390379
 10
-8.903082366592056
 20
-10.04450318282181
 10
-8.97917708767404
 20
-9.968408461739823
 10
-9.055271808756023
 20
-9.892313740657841
 10
-9.207461250919989
 20
-9.892313740657841
 10
-9.283555972001974
 20
-9.816219019575858
 10
-9.359650693083957
 20
-9.740124298493873
 10
-9.511840135247922
 20
-9.66402957741189
 10
-9.587934856329907
 20
-9.587934856329907
 10
-9.816219019575858
 20
-9.511840135247922
 10
-9.968408461739823
 20
-9.43574541416594
 10
-10.12059790390379
 20
-9.43574541416594
 10
-10.27278734606776
 20
-9.359650693083957
 10
-10.34888206714974
 20
-9.283555972001974
 10
-10.50107150931371
 20
-9.207461250919989
 10
-10.57716623039569
 20
-9.131366529838006
 10
-10.65326095147767
 20
-9.055271808756023
 10
-10.72935567255966
 20
-8.97917708767404
 10
-10.80545039364164
 20
-8.903082366592056
 10
-10.80545039364164
 20
-8.826987645510073
 10
-10.80545039364164
 20
-8.75089292442809
 10
-10.88154511472362
 20
-8.674798203346105
 10
-10.95763983580561
 20
-8.598703482264122
 10
-10.95763983580561
 20
-8.52260876118214
 10
-11.03373455688759
 20
-8.446514040100157
 10
-11.03373455688759
 20
-8.370419319018172
 10
-11.03373455688759
 20
-8.294324597936189
 10
-11.03373455688759
 20
-8.218229876854206
 10
-10.95763983580561
 20
-8.142135155772221
 10
-10.95763983580561
 20
-8.066040434690239
 10
-10.88154511472362
 20
-7.913850992526272
 10
-10.88154511472362
 20
-7.837756271444289
 10
-10.80545039364164
 20
-7.761661550362305
 10
-10.72935567255966
 20
-7.685566829280322
 10
-10.65326095147767
 20
-7.609472108198339
 10
-10.65326095147767
 20
-7.533377387116356
 10
-10.57716623039569
 20
-7.457282666034372
 10
-10.57716623039569
 20
-7.381187944952388
 10
-10.50107150931371
 20
-7.305093223870405
 10
-10.50107150931371
 20
-7.228998502788421
 10
-10.42497678823172
 20
-7.152903781706438
 10
-10.42497678823172
 20
-7.076809060624455
 10
-10.42497678823172
 20
-7.000714339542472
 10
-10.42497678823172
 20
-6.924619618460488
 10
-10.50107150931371
 20
-6.848524897378505
 10
-10.50107150931371
 20
-6.772430176296521
 10
-10.50107150931371
 20
-6.696335455214538
 10
-10.50107150931371
 20
-6.620240734132555
 10
-10.50107150931371
 20
-6.544146013050571
 10
-10.50107150931371
 20
-6.468051291968588
 10
-10.50107150931371
 20
-6.391956570886604
 10
-10.50107150931371
 20
-6.315861849804621
 10
-10.50107150931371
 20
-6.239767128722638
 10
-10.57716623039569
 20
-6.239767128722638
 10
-10.57716623039569
 20
-6.163672407640655
 10
-10.57716623039569
 20
-6.087577686558671
 10
-10.57716623039569
 20
-6.011482965476688
 10
-10.65326095147767
 20
-6.011482965476688
 10
-10.65326095147767
 20
-5.935388244394704
 10
-10.65326095147767
 20
-5.85929352331272
 10
-10.65326095147767
 20
-5.783198802230737
 10
-10.65326095147767
 20
-5.707104081148754
 10
-10.65326095147767
 20
-5.631009360066771
 10
-10.65326095147767
 20
-5.554914638984787
 10
-10.65326095147767
 20
-5.478819917902804
 10
-10.65326095147767
 20
-5.40272519682082
 10
-10.57716623039569
 20
-5.326630475738837
 10
-10.65326095147767
 20
-5.250535754656854
 10
-10.72935567255966
 20
-5.17444103357487
 10
-10.80545039364164
 20
-5.17444103357487
 10
-10.88154511472362
 20
-5.098346312492887
 10
-10.95763983580561
 20
-5.098346312492887
  0
LWPOLYLINE
  5
54
100
AcDbEntity
  8
0
  6
ByLayer
 62
  256
370
   -1
100
AcDbPolyline
 90
   90
 70
    0
 43
0
 10
-13.92533395800296
 20
1.065326095147767
 10
-14.00142867908494
 20
1.065326095147767
 10
-13.92533395800296
 20
1.065326095147767
 10
-13.84923923692098
 20
1.065326095147767
 10
-13.92533395800296
 20
1.141420816229751
 10
-14.00142867908494
 20
1.217515537311734
 10
-14.07752340016693
 20
1.217515537311734
 10
-14.15361812124891
 20
1.293610258393717
 10
-14.15361812124891
 20
1.369704979475701
 10
-14.15361812124891
 20
1.445799700557684
 10
-14.07752340016693
 20
1.521894421639668
 10
-14.00142867908494
 20
1.597989142721651
 10
-13.92533395800296
 20
1.597989142721651
 10
-13.92533395800296
 20
1.674083863803634
 10
-13.84923923692098
 20
1.674083863803634
 10
-13.77314451583899
 20
1.750178584885618
 10
-13.69704979475701
 20
1.750178584885618
 10
-13.69704979475701
 20
1.826273305967601
 10
-13.62095507367503
 20
1.826273305967601
 10
-13.54486035259304
 20
1.826273305967601
 10
-13.46876563151106
 20
1.902368027049585
 10
-13.31657618934709
 20
1.978462748131568
 10
-13.24048146826511
 20
1.978462748131568
 10
-13.16438674718313
 20
1.978462748131568
 10
-13.16438674718313
 20
2.054557469213552
 10
-13.08829202610114
 20
2.054557469213552
 10
-13.01219730501916
 20
2.130652190295535
 10
-12.93610258393718
 20
2.130652190295535
 10
-12.93610258393718
 20
2.206746911377518
 10
-12.86000786285519
 20
2.282841632459502
 10
-12.78391314177321
 20
2.358936353541485
 10
-12.78391314177321
 20
2.435031074623468
 10
-12.86000786285519
 20
2.511125795705452
 10
-12.93610258393718
 20
2.587220516787435
 10
-13.01219730501916
 20
2.663315237869419
 10
-13.08829202610114
 20
2.663315237869419
 10
-13.16438674718313
 20
2.739409958951402
 10
-13.24048146826511
 20
2.739409958951402
 10
-13.31657618934709
 20
2.815504680033385
 10
-13.39267091042908
 20
2.891599401115369
 10
-13.46876563151106
 20
2.967694122197352
 10
-13.46876563151106
 20
3.043788843279335
 10
-13.54486035259304
 20
3.043788843279335
 10
-13.54486035259304
 20
3.119883564361319
 10
-13.62095507367503
 20
3.119883564361319
 10
-13.62095507367503
 20
3.195978285443302
 10
-13.69704979475701
 20
3.195978285443302
 10
-13.69704979475701
 20
3.272073006525285
 10
-13.69704979475701
 20
3.348167727607269
 10
-13.77314451583899
 20
3.424262448689253
 10
-13.77314451583899
 20
3.500357169771236
 10
-13.77314451583899
 20
3.576451890853219
 10
-13.77314451583899
 20
3.652546611935203
 10
-13.77314451583899
 20
3.728641333017186
 10
-13.77314451583899
 20
3.804736054099169
 10
-13.77314451583899
 20
3.880830775181153
 10
-13.77314451583899
 20
3.956925496263136
 10
-13.77314451583899
 20
4.033020217345119
 10
-13.69704979475701
 20
4.109114938427103
 10
-13.69704979475701
 20
4.185209659509086
 10
-13.62095507367503
 20
4.185209659509086
 10
-13.62095507367503
 20
4.26130438059107
 10
-13.54486035259304
 20
4.337399101673053
 10
-13.54486035259304
 20
4.413493822755036
 10
-13.46876563151106
 20
4.413493822755036
 10
-13.46876563151106
 20
4.48958854383702
 10
-13.39267091042908
 20
4.565683264919003
 10
-13.39267091042908
 20
4.641777986000987
 10
-13.31657618934709
 20
4.641777986000987
 10
-13.31657618934709
 20
4.71787270708297
 10
-13.31657618934709
 20
4.793967428164954
 10
-13.31657618934709
 20
4.870062149246936
 10
-13.31657618934709
 20
4.94615687032892
 10
-13.31657618934709
 20
5.022251591410903
 10
-13.24048146826511
 20
5.098346312492887
 10
-13.24048146826511
 20
5.17444103357487
 10
-13.24048146826511
 20
5.250535754656854
 10
-13.24048146826511
 20
5.326630475738837
 10
-13.16438674718313
 20
5.326630475738837
 10
-13.16438674718313
 20
5.40272519682082
 10
-13.08829202610114
 20
5.478819917902804
 10
-13.08829202610114
 20
5.554914638984787
 10
-13.01219730501916
 20
5.554914638984787
 10
-13.01219730501916
 20
5.631009360066771
 10
-12.93610258393718
 20
5.631009360066771
 10
-12.93610258393718
 20
5.707104081148754
 10
-12.93610258393718
 20
5.783198802230737
 10
-13.01219730501916
 20
5.783198802230737
 10
-13.01219730501916
 20
5.85929352331272
 10
-13.01219730501916
 20
5.935388244394704
  0
LWPOLYLINE
  5
55
100
AcDbEntity
  8
0
  6
ByLayer
 62
  256
370
   -1
100
AcDbPolyline
 90
   81
 70
    0
 43
0
 10
-10.88154511472362
 20
-4.71787270708297
 10
-10.95763983580561
 20
-4.793967428164954
 10
-11.03373455688759
 20
-4.793967428164954
 10
-11.10982927796957
 20
-4.793967428164954
 10
-11.18592399905156
 20
-4.793967428164954
 10
-11.26201872013354
 20
-4.793967428164954
 10
-11.33811344121552
 20
-4.793967428164954
 10
-11.41420816229751
 20
-4.793967428164954
 10
-11.49030288337949
 20
-4.793967428164954
 10
-11.56639760446147
 20
-4.793967428164954
 10
-11.64249232554346
 20
-4.71787270708297
 10
-11.71858704662544
 20
-4.71787270708297
 10
-11.79468176770743
 20
-4.641777986000987
 10
-11.79468176770743
 20
-4.565683264919003
 10
-11.79468176770743
 20
-4.48958854383702
 10
-11.79468176770743
 20
-4.413493822755036
 10
-11.79468176770743
 20
-4.337399101673053
 10
-11.71858704662544
 20
-4.26130438059107
 10
-11.71858704662544
 20
-4.185209659509086
 10
-11.64249232554346
 20
-4.109114938427103
 10
-11.64249232554346
 20
-4.033020217345119
 10
-11.64249232554346
 20
-3.956925496263136
 10
-11.56639760446147
 20
-3.880830775181153
 10
-11.56639760446147
 20
-3.804736054099169
 10
-11.56639760446147
 20
-3.728641333017186
 10
-11.56639760446147
 20
-3.652546611935203
 10
-11.56639760446147
 20
-3.576451890853219
 10
-11.56639760446147
 20
-3.500357169771236
 10
-11.64249232554346
 20
-3.348167727607269
 10
-11.64249232554346
 20
-3.272073006525285
 10
-11.71858704662544
 20
-3.195978285443302
 10
-11.79468176770743
 20
-3.119883564361319
 10
-11.79468176770743
 20
-3.043788843279335
 10
-11.94687120987139
 20
-3.043788843279335
 10
-11.94687120987139
 20
-2.967694122197352
 10
-12.02296593095338
 20
-2.967694122197352
 10
-12.09906065203536
 20
-2.891599401115369
 10
-12.17515537311734
 20
-2.815504680033385
 10
-12.25125009419932
 20
-2.815504680033385
 10
-12.25125009419932
 20
-2.739409958951402
 10
-12.32734481528131
 20
-2.663315237869419
 10
-12.32734481528131
 20
-2.587220516787435
 10
-12.32734481528131
 20
-2.511125795705452
 10
-12.32734481528131
 20
-2.435031074623468
 10
-12.32734481528131
 20
-2.358936353541485
 10
-12.25125009419932
 20
-2.206746911377518
 10
-12.25125009419932
 20
-2.130652190295535
 10
-12.17515537311734
 20
-2.054557469213552
 10
-12.17515537311734
 20
-1.978462748131568
 10
-12.09906065203536
 20
-1.902368027049585
 10
-12.09906065203536
 20
-1.826273305967601
 10
-12.09906065203536
 20
-1.750178584885618
 10
-12.09906065203536
 20
-1.674083863803634
 10
-12.09906065203536
 20
-1.597989142721651
 10
-12.09906065203536
 20
-1.521894421639668
 10
-12.09906065203536
 20
-1.445799700557684
 10
-12.09906065203536
 20
-1.369704979475701
 10
-12.09906065203536
 20
-1.293610258393717
 10
-12.09906065203536
 20
-1.217515537311734
 10
-12.09906065203536
 20
-1.141420816229751
 10
-12.09906065203536
 20
-1.065326095147767
 10
-12.17515537311734
 20
-0.989231374065784
 10
-12.17515537311734
 20
-0.9131366529838006
 10
-12.17515537311734
 20
-0.8370419319018172
 10
-12.25125009419932
 20
-0.7609472108198339
 10
-12.25125009419932
 20
-0.6848524897378505
 10
-12.25125009419932
 20
-0.6087577686558671
 10
-12.25125009419932
 20
-0.5326630475738837
 10
-12.25125009419932
 20
-0.4565683264919003
 10
-12.25125009419932
 20
-0.3804736054099169
 10
-12.25125009419932
 20
-0.3043788843279335
 10
-12.17515537311734
 20
-0.3043788843279335
 10
-12.09906065203536
 20
-0.2282841632459502
 10
-12.09906065203536
 20
-0.1521894421639668
 10
-12.02296593095338
 20
-0.07609472108198338
 10
-12.02296593095338
 20
0
 10
-11.94687120987139
 20
0
 10
-11.94687120987139
 20
0.07609472108198338
 10
-11.87077648878941
 20
0.1521894421639668
 10
-11.79468176770743
 20
0.2282841632459502
 10
-11.79468176770743
 20
0.3804736054099169
  0
LWPOLYLINE
  5
56
100
AcDbEntity
  8
0
  6
ByLayer
 62
  256
370
   -1
100
AcDbPolyline
 90
   42
 70
    0
 43
0
 10
-4.94615687032892
 20
12.55562897852726
 10
-4.94615687032892
 20
12.63172369960924
 10
-5.022251591410903
 20
12.70781842069123
 10
-5.022251591410903
 20
12.78391314177321
 10
-4.870062149246936
 20
12.93610258393718
 10
-4.793967428164954
 20
12.93610258393718
 10
-4.71787270708297
 20
12.93610258393718
 10
-4.641777986000987
 20
12.93610258393718
 10
-4.48958854383702
 20
12.86000786285519
 10
-4.413493822755036
 20
12.86000786285519
 10
-4.26130438059107
 20
12.86000786285519
 10
-4.109114938427103
 20
12.86000786285519
 10
-4.033020217345119
 20
12.86000786285519
 10
-3.880830775181153
 20
12.78391314177321
 10
-3.804736054099169
 20
12.86000786285519
 10
-3.728641333017186
 20
12.78391314177321
 10
-3.652546611935203
 20
12.86000786285519
 10
-3.576451890853219
 20
12.86000786285519
 10
-3.500357169771236
 20
12.86000786285519
 10
-3.424262448689253
 20
12.86000786285519
 10
-3.348167727607269
 20
12.86000786285519
 10
-3.272073006525285
 20
12.93610258393718
 10
-3.119883564361319
 20
12.93610258393718
 10
-3.043788843279335
 20
12.93610258393718
 10
-2.967694122197352
 20
13.01219730501916
 10
-2.815504680033385
 20
13.01219730501916
 10
-2.739409958951402
 20
13.08829202610114
 10
-2.587220516787435
 20
13.08829202610114
 10
-2.511125795705452
 20
13.08829202610114
 10
-2.435031074623468
 20
13.16438674718313
 10
-2.358936353541485
 20
13.16438674718313
 10
-2.282841632459502
 20
13.16438674718313
 10
-2.206746911377518
 20
13.16438674718313
 10
-2.130652190295535
 20
13.16438674718313
 10
-2.054557469213552
 20
13.24048146826511
 10
-1.978462748131568
 20
13.24048146826511
 10
-1.902368027049585
 20
13.24048146826511
 10
-1.826273305967601
 20
13.24048146826511
 10
-1.750178584885618
 20
13.24048146826511
 10
-1.674083863803634
 20
13.24048146826511
 10
-1.674083863803634
 20
13.31657618934709
 10
-1.750178584885618
 20
13.31657618934709
  0
LWPOLYLINE
  5
57
100
AcDbEntity
  8
0
  6
ByLayer
 62
  256
370
   -1
100
AcDbPolyline
 90
   62
 70
    0
 43
0
 10
0.07609472108198338
 20
11.94687120987139
 10
0
 20
11.87077648878941
 10
-0.07609472108198338
 20
11.87077648878941
 10
-0.1521894421639668
 20
11.79468176770743
 10
-0.07609472108198338
 20
11.87077648878941
 10
0
 20
11.87077648878941
 10
0.07609472108198338
 20
11.94687120987139
 10
0.2282841632459502
 20
12.02296593095338
 10
0.3043788843279335
 20
12.02296593095338
 10
0.3804736054099169
 20
12.09906065203536
 10
0.4565683264919003
 20
12.09906065203536
 10
0.5326630475738837
 20
12.17515537311734
 10
0.6087577686558671
 20
12.17515537311734
 10
0.6848524897378505
 20
12.17515537311734
 10
0.7609472108198339
 20
12.25125009419932
 10
0.8370419319018172
 20
12.25125009419932
 10
0.9131366529838006
 20
12.32734481528131
 10
0.989231374065784
 20
12.32734481528131
 10
1.141420816229751
 20
12.32734481528131
 10
1.217515537311734
 20
12.32734481528131
 10
1.293610258393717
 20
12.40343953636329
 10
1.369704979475701
 20
12.40343953636329
 10
1.445799700557684
 20
12.40343953636329
 10
1.521894421639668
 20
12.40343953636329
 10
1.597989142721651
 20
12.40343953636329
 10
1.674083863803634
 20
12.40343953636329
 10
1.750178584885618
 20
12.40343953636329
 10
1.826273305967601
 20
12.32734481528131
 10
1.902368027049585
 20
12.32734481528131
 10
1.978462748131568
 20
12.32734481528131
 10
2.054557469213552
 20
12.32734481528131
 10
2.130652190295535
 20
12.32734481528131
 10
2.206746911377518
 20
12.25125009419932
 10
2.282841632459502
 20
12.25125009419932
 10
2.358936353541485
 20
12.25125009419932
 10
2.435031074623468
 20
12.17515537311734
 10
2.587220516787435
 20
12.17515537311734
 10
2.739409958951402
 20
12.09906065203536
 10
2.891599401115369
 20
12.09906065203536
 10
3.043788843279335
 20
12.09906065203536
 10
3.195978285443302
 20
12.02296593095338
 10
3.272073006525285
 20
12.02296593095338
 10
3.348167727607269
 20
12.02296593095338
 10
3.348167727607269
 20
11.94687120987139
 10
3.424262448689253
 20
11.94687120987139
 10
3.424262448689253
 20
11.87077648878941
 10
3.424262448689253
 20
11.79468176770743
 10
3.500357169771236
 20
11.71858704662544
 10
3.500357169771236
 20
11.64249232554346
 10
3.500357169771236
 20
11.56639760446147
 10
3.500357169771236
 20
11.49030288337949
 10
3.500357169771236
 20
11.33811344121552
 10
3.500357169771236
 20
11.26201872013354
 10
3.500357169771236
 20
11.18592399905156
 10
3.500357169771236
 20
11.10982927796957
 10
3.500357169771236
 20
11.03373455688759
 10
3.500357169771236
 20
10.95763983580561
 10
3.500357169771236
 20
10.88154511472362
 10
3.500357169771236
 20
10.80545039364164
 10
3.500357169771236
 20
10.72935567255966
 10
3.576451890853219
 20
10.65326095147767
 10
3.652546611935203
 20
10.57716623039569
  0
LWPOLYLINE
  5
58
100
AcDbEntity
  8
0
  6
ByLayer
 62
  256
370
   -1
100
AcDbPolyline
 90
  101
 70
    0
 43
0
 10
4.565683264919003
 20
11.94687120987139
 10
4.565683264919003
 20
11.94687120987139
 10
4.641777986000987
 20
11.94687120987139
 10
4.793967428164954
 20
11.94687120987139
 10
4.870062149246936
 20
11.87077648878941
 10
5.022251591410903
 20
11.87077648878941
 10
5.17444103357487
 20
11.87077648878941
 10
5.326630475738837
 20
11.87077648878941
 10
5.554914638984787
 20
11.87077648878941
 10
5.707104081148754
 20
11.87077648878941
 10
5.85929352331272
 20
11.87077648878941
 10
6.011482965476688
 20
11.87077648878941
 10
6.163672407640655
 20
11.79468176770743
 10
6.315861849804621
 20
11.79468176770743
 10
6.391956570886604
 20
11.79468176770743
 10
6.544146013050571
 20
11.79468176770743
 10
6.696335455214538
 20
11.71858704662544
 10
6.772430176296521
 20
11.71858704662544
 10
6.924619618460488
 20
11.64249232554346
 10
7.076809060624455
 20
11.64249232554346
 10
7.228998502788421
 20
11.56639760446147
 10
7.381187944952388
 20
11.56639760446147
 10
7.457282666034372
 20
11.49030288337949
 10
7.609472108198339
 20
11.41420816229751
 10
7.761661550362305
 20
11.33811344121552
 10
7.913850992526272
 20
11.33811344121552
 10
8.066040434690239
 20
11.26201872013354
 10
8.142135155772221
 20
11.18592399905156
 10
8.218229876854206
 20
11.10982927796957
 10
8.294324597936189
 20
11.10982927796957
 10
8.370419319018172
 20
11.03373455688759
 10
8.370419319018172
 20
10.95763983580561
 10
8.446514040100157
 20
10.88154511472362
 10
8.446514040100157
 20
10.80545039364164
 10
8.52260876118214
 20
10.80545039364164
 10
8.598703482264122
 20
10.72935567255966
 10
8.598703482264122
 20
10.65326095147767
 10
8.674798203346105
 20
10.57716623039569
 10
8.75089292442809
 20
10.50107150931371
 10
8.826987645510073
 20
10.50107150931371
 10
8.826987645510073
 20
10.42497678823172
 10
8.826987645510073
 20
10.34888206714974
 10
8.903082366592056
 20
10.27278734606776
 10
8.903082366592056
 20
10.19669262498577
 10
8.903082366592056
 20
10.12059790390379
 10
8.97917708767404
 20
10.04450318282181
 10
8.97917708767404
 20
9.968408461739823
 10
8.97917708767404
 20
9.892313740657841
 10
8.97917708767404
 20
9.816219019575858
 10
8.903082366592056
 20
9.740124298493873
 10
8.903082366592056
 20
9.66402957741189
 10
8.903082366592056
 20
9.587934856329907
 10
8.97917708767404
 20
9.511840135247922
 10
8.97917708767404
 20
9.43574541416594
 10
9.055271808756023
 20
9.359650693083957
 10
9.131366529838006
 20
9.283555972001974
 10
9.207461250919989
 20
9.207461250919989
 10
9.283555972001974
 20
9.131366529838006
 10
9.359650693083957
 20
9.055271808756023
 10
9.43574541416594
 20
9.055271808756023
 10
9.43574541416594
 20
8.97917708767404
 10
9.511840135247922
 20
8.97917708767404
 10
9.587934856329907
 20
8.97917708767404
 10
9.66402957741189
 20
8.903082366592056
 10
9.740124298493873
 20
8.903082366592056
 10
9.816219019575858
 20
8.903082366592056
 10
9.816219019575858
 20
8.826987645510073
 10
9.892313740657841
 20
8.826987645510073
 10
9.892313740657841
 20
8.75089292442809
 10
9.968408461739823
 20
8.75089292442809
 10
9.968408461739823
 20
8.674798203346105
 10
10.04450318282181
 20
8.674798203346105
 10
10.04450318282181
 20
8.598703482264122
 10
10.12059790390379
 20
8.598703482264122
 10
10.12059790390379
 20
8.52260876118214
 10
10.19669262498577
 20
8.52260876118214
 10
10.27278734606776
 20
8.446514040100157
 10
10.34888206714974
 20
8.446514040100157
 10
10.34888206714974
 20
8.370419319018172
 10
10.42497678823172
 20
8.370419319018172
 10
10.50107150931371
 20
8.294324597936189
 10
10.57716623039569
 20
8.294324597936189
 10
10.65326095147767
 20
8.218229876854206
 10
10.72935567255966
 20
8.142135155772221
 10
10.80545039364164
 20
8.142135155772221
 10
10.88154511472362
 20
8.066040434690239
 10
10.95763983580561
 20
7.989945713608256
 10
10.95763983580561
 20
7.913850992526272
 10
11.03373455688759
 20
7.913850992526272
 10
11.03373455688759
 20
7.837756271444289
 10
10.95763983580561
 20
7.761661550362305
 10
10.95763983580561
 20
7.685566829280322
 10
10.95763983580561
 20
7.609472108198339
 10
10.88154511472362
 20
7.533377387116356
 10
10.88154511472362
 20
7.457282666034372
 10
10.88154511472362
 20
7.381187944952388
 10
10.95763983580561
 20
7.305093223870405
 10
10.95763983580561
 20
7.228998502788421
 10
11.03373455688759
 20
7.152903781706438
 10
11.03373455688759
 20
7.076809060624455
 10
11.10982927796957
 20
7.000714339542472
  0
LWPOLYLINE
  5
59
100
AcDbEntity
  8
0
  6
ByLayer
 62
  256
370
   -1
100
AcDbPolyline
 90
   41
 70
    0
 43
0
 10
2.891599401115369
 20
5.935388244394704
 10
2.739409958951402
 20
6.011482965476688
 10
2.663315237869419
 20
6.011482965476688
 10
2.587220516787435
 20
6.011482965476688
 10
2.511125795705452
 20
6.011482965476688
 10
2.435031074623468
 20
6.011482965476688
 10
2.358936353541485
 20
5.935388244394704
 10
2.282841632459502
 20
5.935388244394704
 10
2.206746911377518
 20
5.935388244394704
 10
2.130652190295535
 20
5.935388244394704
 10
2.054557469213552
 20
5.935388244394704
 10
1.978462748131568
 20
5.935388244394704
 10
1.902368027049585
 20
5.935388244394704
 10
1.826273305967601
 20
5.935388244394704
 10
1.750178584885618
 20
5.935388244394704
 10
1.674083863803634
 20
5.935388244394704
 10
1.597989142721651
 20
5.935388244394704
 10
1.521894421639668
 20
5.935388244394704
 10
1.445799700557684
 20
5.935388244394704
 10
1.369704979475701
 20
5.935388244394704
 10
1.293610258393717
 20
5.935388244394704
 10
1.217515537311734
 20
6.011482965476688
 10
1.141420816229751
 20
6.011482965476688
 10
1.065326095147767
 20
6.011482965476688
 10
0.989231374065784
 20
6.087577686558671
 10
0.9131366529838006
 20
6.087577686558671
 10
0.8370419319018172
 20
6.163672407640655
 10
0.7609472108198339
 20
6.163672407640655
 10
0.6848524897378505
 20
6.163672407640655
 10
0.6087577686558671
 20
6.239767128722638
 10
0.5326630475738837
 20
6.239767128722638
 10
0.4565683264919003
 20
6.239767128722638
 10
0.3804736054099169
 20
6.315861849804621
 10
0.3043788843279335
 20
6.315861849804621
 10
0.2282841632459502
 20
6.315861849804621
 10
0.1521894421639668
 20
6.315861849804621
 10
0.07609472108198338
 20
6.391956570886604
 10
-0.07609472108198338
 20
6.391956570886604
 10
-0.1521894421639668
 20
6.391956570886604
 10
-0.2282841632459502
 20
6.391956570886604
 10
-0.6848524897378505
 20
6.468051291968588
  0
LWPOLYLINE
  5
5A
100
AcDbEntity
  8
0
  6
ByLayer
 62
  256
370
   -1
100
AcDbPolyline
 90
   87
 70
    0
 43
0
 10
8.446514040100157
 20
6.315861849804621
 10
8.52260876118214
 20
6.315861849804621
 10
8.598703482264122
 20
6.315861849804621
 10
8.674798203346105
 20
6.315861849804621
 10
8.75089292442809
 20
6.315861849804621
 10
8.826987645510073
 20
6.315861849804621
 10
8.903082366592056
 20
6.315861849804621
 10
8.97917708767404
 20
6.391956570886604
 10
9.055271808756023
 20
6.391956570886604
 10
9.131366529838006
 20
6.391956570886604
 10
9.283555972001974
 20
6.315861849804621
 10
9.283555972001974
 20
6.239767128722638
 10
9.283555972001974
 20
6.163672407640655
 10
9.207461250919989
 20
6.087577686558671
 10
9.207461250919989
 20
6.011482965476688
 10
9.207461250919989
 20
5.935388244394704
 10
9.131366529838006
 20
5.85929352331272
 10
9.131366529838006
 20
5.783198802230737
 10
9.131366529838006
 20
5.631009360066771
 10
9.131366529838006
 20
5.554914638984787
 10
9.131366529838006
 20
5.478819917902804
 10
9.207461250919989
 20
5.40272519682082
 10
9.207461250919989
 20
5.326630475738837
 10
9.207461250919989
 20
5.250535754656854
 10
9.207461250919989
 20
5.17444103357487
 10
9.207461250919989
 20
5.098346312492887
 10
9.207461250919989
 20
5.022251591410903
 10
9.283555972001974
 20
5.022251591410903
 10
9.283555972001974
 20
4.94615687032892
 10
9.359650693083957
 20
4.870062149246936
 10
9.43574541416594
 20
4.793967428164954
 10
9.43574541416594
 20
4.71787270708297
 10
9.43574541416594
 20
4.641777986000987
 10
9.43574541416594
 20
4.565683264919003
 10
9.43574541416594
 20
4.48958854383702
 10
9.359650693083957
 20
4.413493822755036
 10
9.359650693083957
 20
4.337399101673053
 10
9.359650693083957
 20
4.26130438059107
 10
9.359650693083957
 20
4.185209659509086
 10
9.43574541416594
 20
4.109114938427103
 10
9.511840135247922
 20
4.033020217345119
 10
9.587934856329907
 20
4.033020217345119
 10
9.587934856329907
 20
3.956925496263136
 10
9.66402957741189
 20
3.880830775181153
 10
9.740124298493873
 20
3.880830775181153
 10
9.816219019575858
 20
3.804736054099169
 10
9.816219019575858
 20
3.728641333017186
 10
9.816219019575858
 20
3.652546611935203
 10
9.816219019575858
 20
3.576451890853219
 10
9.892313740657841
 20
3.500357169771236
 10
9.892313740657841
 20
3.424262448689253
 10
9.892313740657841
 20
3.348167727607269
 10
9.892313740657841
 20
3.272073006525285
 10
9.892313740657841
 20
3.195978285443302
 10
9.816219019575858
 20
3.119883564361319
 10
9.816219019575858
 20
3.043788843279335
 10
9.816219019575858
 20
2.967694122197352
 10
9.816219019575858
 20
2.891599401115369
 10
9.816219019575858
 20
2.815504680033385
 10
9.740124298493873
 20
2.739409958951402
 10
9.740124298493873
 20
2.663315237869419
 10
9.66402957741189
 20
2.587220516787435
 10
9.587934856329907
 20
2.511125795705452
 10
9.587934856329907
 20
2.435031074623468
 10
9.587934856329907
 20
2.358936353541485
 10
9.66402957741189
 20
2.358936353541485
 10
9.66402957741189
 20
2.282841632459502
 10
9.740124298493873
 20
2.282841632459502
 10
9.816219019575858
 20
2.206746911377518
 10
9.892313740657841
 20
2.206746911377518
 10
9.968408461739823
 20
2.130652190295535
 10
10.04450318282181
 20
2.130652190295535
 10
10.12059790390379
 20
2.054557469213552
 10
10.19669262498577
 20
2.054557469213552
 10
10.34888206714974
 20
2.054557469213552
 10
10.42497678823172
 20
1.978462748131568
 10
10.50107150931371
 20
1.978462748131568
 10
10.57716623039569
 20
1.978462748131568
 10
10.65326095147767
 20
1.902368027049585
 10
10.72935567255966
 20
1.902368027049585
 10
10.80545039364164
 20
1.902368027049585
 10
10.88154511472362
 20
1.826273305967601
 10
10.95763983580561
 20
1.826273305967601
 10
11.03373455688759
 20
1.826273305967601
 10
11.18592399905156
 20
1.826273305967601
 10
11.26201872013354
 20
1.750178584885618
 10
11.41420816229751
 20
1.750178584885618
  0
LWPOLYLINE
  5
5B
100
AcDbEntity
  8
0
  6
ByLayer
 62
  256
370
   -1
100
AcDbPolyline
 90
   94
 70
    0
 43
0
 10
10.72935567255966
 20
-5.707104081148754
 10
10.65326095147767
 20
-5.707104081148754
 10
10.57716623039569
 20
-5.707104081148754
 10
10.65326095147767
 20
-5.707104081148754
 10
10.72935567255966
 20
-5.707104081148754
 10
10.80545039364164
 20
-5.783198802230737
 10
10.88154511472362
 20
-5.783198802230737
 10
10.95763983580561
 20
-5.783198802230737
 10
11.03373455688759
 20
-5.783198802230737
 10
11.10982927796957
 20
-5.783198802230737
 10
11.18592399905156
 20
-5.783198802230737
 10
11.26201872013354
 20
-5.783198802230737
 10
11.33811344121552
 20
-5.707104081148754
 10
11.41420816229751
 20
-5.707104081148754
 10
11.49030288337949
 20
-5.707104081148754
 10
11.56639760446147
 20
-5.631009360066771
 10
11.71858704662544
 20
-5.631009360066771
 10
11.79468176770743
 20
-5.554914638984787
 10
11.87077648878941
 20
-5.478819917902804
 10
11.94687120987139
 20
-5.478819917902804
 10
12.09906065203536
 20
-5.40272519682082
 10
12.17515537311734
 20
-5.326630475738837
 10
12.25125009419932
 20
-5.250535754656854
 10
12.40343953636329
 20
-5.17444103357487
 10
12.47953425744528
 20
-5.098346312492887
 10
12.55562897852726
 20
-5.022251591410903
 10
12.55562897852726
 20
-4.94615687032892
 10
12.55562897852726
 20
-4.870062149246936
 10
12.63172369960924
 20
-4.793967428164954
 10
12.63172369960924
 20
-4.71787270708297
 10
12.63172369960924
 20
-4.641777986000987
 10
12.63172369960924
 20
-4.565683264919003
 10
12.70781842069123
 20
-4.48958854383702
 10
12.70781842069123
 20
-4.413493822755036
 10
12.70781842069123
 20
-4.337399101673053
 10
12.78391314177321
 20
-4.26130438059107
 10
12.78391314177321
 20
-4.185209659509086
 10
12.86000786285519
 20
-4.109114938427103
 10
12.86000786285519
 20
-4.033020217345119
 10
12.86000786285519
 20
-3.956925496263136
 10
12.86000786285519
 20
-3.880830775181153
 10
12.93610258393718
 20
-3.880830775181153
 10
12.93610258393718
 20
-3.804736054099169
 10
13.01219730501916
 20
-3.728641333017186
 10
13.01219730501916
 20
-3.652546611935203
 10
13.08829202610114
 20
-3.576451890853219
 10
13.16438674718313
 20
-3.576451890853219
 10
13.16438674718313
 20
-3.500357169771236
 10
13.24048146826511
 20
-3.348167727607269
 10
13.31657618934709
 20
-3.272073006525285
 10
13.39267091042908
 20
-3.195978285443302
 10
13.39267091042908
 20
-3.043788843279335
 10
13.46876563151106
 20
-2.967694122197352
 10
13.46876563151106
 20
-2.891599401115369
 10
13.54486035259304
 20
-2.815504680033385
 10
13.54486035259304
 20
-2.739409958951402
 10
13.62095507367503
 20
-2.587220516787435
 10
13.69704979475701
 20
-2.511125795705452
 10
13.69704979475701
 20
-2.435031074623468
 10
13.77314451583899
 20
-2.435031074623468
 10
13.77314451583899
 20
-2.358936353541485
 10
13.84923923692098
 20
-2.282841632459502
 10
13.92533395800296
 20
-2.282841632459502
 10
14.00142867908494
 20
-2.206746911377518
 10
14.07752340016693
 20
-2.130652190295535
 10
14.15361812124891
 20
-2.054557469213552
 10
14.22971284233089
 20
-1.978462748131568
 10
14.30580756341288
 20
-1.902368027049585
 10
14.38190228449486
 20
-1.826273305967601
 10
14.45799700557684
 20
-1.750178584885618
 10
14.45799700557684
 20
-1.674083863803634
 10
14.53409172665883
 20
-1.597989142721651
 10
14.53409172665883
 20
-1.521894421639668
 10
14.61018644774081
 20
-1.445799700557684
 10
14.61018644774081
 20
-1.369704979475701
 10
14.61018644774081
 20
-1.293610258393717
 10
14.53409172665883
 20
-1.217515537311734
 10
14.53409172665883
 20
-1.141420816229751
 10
14.53409172665883
 20
-1.065326095147767
 10
14.45799700557684
 20
-0.989231374065784
 10
14.45799700557684
 20
-0.9131366529838006
 10
14.38190228449486
 20
-0.9131366529838006
 10
14.30580756341288
 20
-0.8370419319018172
 10
14.22971284233089
 20
-0.7609472108198339
 10
14.15361812124891
 20
-0.6848524897378505
 10
14.07752340016693
 20
-0.6848524897378505
 10
14.00142867908494
 20
-0.6087577686558671
 10
13.92533395800296
 20
-0.6087577686558671
 10
13.84923923692098
 20
-0.5326630475738837
 10
13.77314451583899
 20
-0.4565683264919003
 10
13.77314451583899
 20
-0.3804736054099169
 10
13.77314451583899
 20
-0.3043788843279335
 10
13.84923923692098
 20
-0.2282841632459502
 10
13.92533395800296
 20
-0.1521894421639668
  0
LWPOLYLINE
  5
5C
100
AcDbEntity
  8
0
  6
ByLayer
 62
  256
370
   -1
100
AcDbPolyline
 90
   57
 70
    0
 43
0
 10
2.358936353541485
 20
-7.457282666034372
 10
2.358936353541485
 20
-7.457282666034372
 10
2.435031074623468
 20
-7.533377387116356
 10
2.435031074623468
 20
-7.609472108198339
 10
2.435031074623468
 20
-7.685566829280322
 10
2.511125795705452
 20
-7.761661550362305
 10
2.587220516787435
 20
-7.837756271444289
 10
2.587220516787435
 20
-7.913850992526272
 10
2.663315237869419
 20
-7.989945713608256
 10
2.739409958951402
 20
-7.989945713608256
 10
2.815504680033385
 20
-8.066040434690239
 10
2.891599401115369
 20
-8.142135155772221
 10
2.967694122197352
 20
-8.218229876854206
 10
3.043788843279335
 20
-8.294324597936189
 10
3.119883564361319
 20
-8.294324597936189
 10
3.195978285443302
 20
-8.370419319018172
 10
3.272073006525285
 20
-8.446514040100157
 10
3.348167727607269
 20
-8.446514040100157
 10
3.424262448689253
 20
-8.52260876118214
 10
3.576451890853219
 20
-8.52260876118214
 10
3.728641333017186
 20
-8.598703482264122
 10
3.880830775181153
 20
-8.598703482264122
 10
3.956925496263136
 20
-8.598703482264122
 10
4.109114938427103
 20
-8.674798203346105
 10
4.185209659509086
 20
-8.674798203346105
 10
4.26130438059107
 20
-8.674798203346105
 10
4.337399101673053
 20
-8.75089292442809
 10
4.413493822755036
 20
-8.75089292442809
 10
4.48958854383702
 20
-8.75089292442809
 10
4.48958854383702
 20
-8.826987645510073
 10
4.565683264919003
 20
-8.826987645510073
 10
4.641777986000987
 20
-8.903082366592056
 10
4.71787270708297
 20
-8.903082366592056
 10
4.793967428164954
 20
-8.97917708767404
 10
4.94615687032892
 20
-8.97917708767404
 10
5.022251591410903
 20
-9.055271808756023
 10
5.17444103357487
 20
-9.055271808756023
 10
5.250535754656854
 20
-9.055271808756023
 10
5.40272519682082
 20
-9.131366529838006
 10
5.478819917902804
 20
-9.131366529838006
 10
5.554914638984787
 20
-9.207461250919989
 10
5.631009360066771
 20
-9.207461250919989
 10
5.707104081148754
 20
-9.283555972001974
 10
5.783198802230737
 20
-9.283555972001974
 10
5.783198802230737
 20
-9.359650693083957
 10
5.85929352331272
 20
-9.359650693083957
 10
5.935388244394704
 20
-9.43574541416594
 10
6.087577686558671
 20
-9.43574541416594
 10
6.239767128722638
 20
-9.511840135247922
 10
6.315861849804621
 20
-9.511840135247922
 10
6.468051291968588
 20
-9.511840135247922
 10
6.620240734132555
 20
-9.511840135247922
 10
6.772430176296521
 20
-9.587934856329907
 10
6.848524897378505
 20
-9.587934856329907
 10
6.924619618460488
 20
-9.587934856329907
 10
7.000714339542472
 20
-9.587934856329907
 10
7.076809060624455
 20
-9.587934856329907
  0
LWPOLYLINE
  5
5D
100
AcDbEntity
  8
0
  6
ByLayer
 62
  256
370
   -1
100
AcDbPolyline
 90
   35
 70
    0
 43
0
 10
-0.07609472108198338
 20
-8.826987645510073
 10
-0.1521894421639668
 20
-8.75089292442809
 10
-0.2282841632459502
 20
-8.674798203346105
 10
-0.3804736054099169
 20
-8.674798203346105
 10
-0.4565683264919003
 20
-8.674798203346105
 10
-0.6087577686558671
 20
-8.674798203346105
 10
-0.7609472108198339
 20
-8.75089292442809
 10
-0.989231374065784
 20
-8.75089292442809
 10
-1.141420816229751
 20
-8.75089292442809
 10
-1.293610258393717
 20
-8.75089292442809
 10
-1.445799700557684
 20
-8.75089292442809
 10
-1.597989142721651
 20
-8.826987645510073
 10
-1.674083863803634
 20
-8.826987645510073
 10
-1.826273305967601
 20
-8.826987645510073
 10
-1.902368027049585
 20
-8.903082366592056
 10
-1.978462748131568
 20
-8.903082366592056
 10
-2.054557469213552
 20
-8.903082366592056
 10
-2.130652190295535
 20
-8.903082366592056
 10
-2.206746911377518
 20
-8.97917708767404
 10
-2.282841632459502
 20
-8.97917708767404
 10
-2.358936353541485
 20
-8.97917708767404
 10
-2.435031074623468
 20
-8.97917708767404
 10
-2.511125795705452
 20
-9.055271808756023
 10
-2.587220516787435
 20
-9.055271808756023
 10
-2.663315237869419
 20
-9.055271808756023
 10
-2.739409958951402
 20
-9.055271808756023
 10
-2.815504680033385
 20
-9.131366529838006
 10
-2.891599401115369
 20
-9.131366529838006
 10
-2.967694122197352
 20
-9.131366529838006
 10
-3.043788843279335
 20
-9.131366529838006
 10
-3.119883564361319
 20
-9.207461250919989
 10
-3.195978285443302
 20
-9.207461250919989
 10
-3.272073006525285
 20
-9.207461250919989
 10
-3.272073006525285
 20
-9.283555972001974
 10
-3.348167727607269
 20
-9.283555972001974
  0
LWPOLYLINE
  5
5E
100
AcDbEntity
  8
0
  6
ByLayer
 62
  256
370
   -1
100
AcDbPolyline
 90
  119
 70
    0
 43
0
 10
10.34888206714974
 20
-0.2282841632459502
 10
10.27278734606776
 20
-0.2282841632459502
 10
10.19669262498577
 20
-0.1521894421639668
 10
10.12059790390379
 20
-0.1521894421639668
 10
9.968408461739823
 20
-0.1521894421639668
 10
9.892313740657841
 20
-0.1521894421639668
 10
9.816219019575858
 20
-0.2282841632459502
 10
9.740124298493873
 20
-0.2282841632459502
 10
9.66402957741189
 20
-0.2282841632459502
 10
9.511840135247922
 20
-0.3043788843279335
 10
9.43574541416594
 20
-0.3043788843279335
 10
9.359650693083957
 20
-0.3804736054099169
 10
9.283555972001974
 20
-0.4565683264919003
 10
9.207461250919989
 20
-0.4565683264919003
 10
9.131366529838006
 20
-0.5326630475738837
 10
9.131366529838006
 20
-0.6087577686558671
 10
9.055271808756023
 20
-0.6848524897378505
 10
9.055271808756023
 20
-0.7609472108198339
 10
9.055271808756023
 20
-0.8370419319018172
 10
8.97917708767404
 20
-0.9131366529838006
 10
8.97917708767404
 20
-0.989231374065784
 10
8.903082366592056
 20
-1.065326095147767
 10
8.903082366592056
 20
-1.141420816229751
 10
8.826987645510073
 20
-1.141420816229751
 10
8.826987645510073
 20
-1.217515537311734
 10
8.75089292442809
 20
-1.293610258393717
 10
8.75089292442809
 20
-1.369704979475701
 10
8.75089292442809
 20
-1.445799700557684
 10
8.75089292442809
 20
-1.521894421639668
 10
8.826987645510073
 20
-1.597989142721651
 10
8.903082366592056
 20
-1.597989142721651
 10
8.903082366592056
 20
-1.674083863803634
 10
8.97917708767404
 20
-1.674083863803634
 10
8.97917708767404
 20
-1.750178584885618
 10
9.055271808756023
 20
-1.826273305967601
 10
9.131366529838006
 20
-1.902368027049585
 10
9.207461250919989
 20
-1.902368027049585
 10
9.207461250919989
 20
-1.978462748131568
 10
9.283555972001974
 20
-2.054557469213552
 10
9.359650693083957
 20
-2.130652190295535
 10
9.43574541416594
 20
-2.130652190295535
 10
9.43574541416594
 20
-2.206746911377518
 10
9.511840135247922
 20
-2.206746911377518
 10
9.587934856329907
 20
-2.282841632459502
 10
9.66402957741189
 20
-2.358936353541485
 10
9.66402957741189
 20
-2.435031074623468
 10
9.740124298493873
 20
-2.511125795705452
 10
9.740124298493873
 20
-2.587220516787435
 10
9.816219019575858
 20
-2.587220516787435
 10
9.816219019575858
 20
-2.663315237869419
 10
9.892313740657841
 20
-2.739409958951402
 10
9.968408461739823
 20
-2.815504680033385
 10
9.968408461739823
 20
-2.891599401115369
 10
10.04450318282181
 20
-2.891599401115369
 10
10.04450318282181
 20
-2.967694122197352
 10
10.04450318282181
 20
-3.043788843279335
 10
9.968408461739823
 20
-3.119883564361319
 10
9.892313740657841
 20
-3.195978285443302
 10
9.892313740657841
 20
-3.272073006525285
 10
9.892313740657841
 20
-3.348167727607269
 10
9.816219019575858
 20
-3.424262448689253
 10
9.816219019575858
 20
-3.500357169771236
 10
9.816219019575858
 20
-3.576451890853219
 10
9.816219019575858
 20
-3.652546611935203
 10
9.816219019575858
 20
-3.728641333017186
 10
9.740124298493873
 20
-3.728641333017186
 10
9.740124298493873
 20
-3.804736054099169
 10
9.740124298493873
 20
-3.880830775181153
 10
9.740124298493873
 20
-3.956925496263136
 10
9.740124298493873
 20
-4.033020217345119
 10
9.66402957741189
 20
-4.109114938427103
 10
9.66402957741189
 20
-4.185209659509086
 10
9.66402957741189
 20
-4.26130438059107
 10
9.66402957741189
 20
-4.337399101673053
 10
9.66402957741189
 20
-4.413493822755036
 10
9.587934856329907
 20
-4.48958854383702
 10
9.587934856329907
 20
-4.565683264919003
 10
9.587934856329907
 20
-4.641777986000987
 10
9.587934856329907
 20
-4.71787270708297
 10
9.511840135247922
 20
-4.793967428164954
 10
9.43574541416594
 20
-4.870062149246936
 10
9.359650693083957
 20
-4.94615687032892
 10
9.283555972001974
 20
-4.94615687032892
 10
9.283555972001974
 20
-5.022251591410903
 10
9.207461250919989
 20
-5.022251591410903
 10
9.207461250919989
 20
-5.098346312492887
 10
9.207461250919989
 20
-5.17444103357487
 10
9.131366529838006
 20
-5.17444103357487
 10
9.131366529838006
 20
-5.250535754656854
 10
9.131366529838006
 20
-5.326630475738837
 10
9.055271808756023
 20
-5.326630475738837
 10
9.055271808756023
 20
-5.40272519682082
 10
9.055271808756023
 20
-5.478819917902804
 10
8.97917708767404
 20
-5.478819917902804
 10
8.97917708767404
 20
-5.554914638984787
 10
8.903082366592056
 20
-5.631009360066771
 10
8.903082366592056
 20
-5.707104081148754
 10
8.826987645510073
 20
-5.783198802230737
 10
8.826987645510073
 20
-5.85929352331272
 10
8.826987645510073
 20
-5.935388244394704
 10
8.826987645510073
 20
-6.011482965476688
 10
8.826987645510073
 20
-6.087577686558671
 10
8.826987645510073
 20
-6.163672407640655
 10
8.826987645510073
 20
-6.239767128722638
 10
8.826987645510073
 20
-6.315861849804621
 10
8.826987645510073
 20
-6.391956570886604
 10
8.826987645510073
 20
-6.468051291968588
 10
8.826987645510073
 20
-6.544146013050571
 10
8.75089292442809
 20
-6.620240734132555
 10
8.75089292442809
 20
-6.772430176296521
 10
8.674798203346105
 20
-6.772430176296521
 10
8.674798203346105
 20
-6.848524897378505
 10
8.598703482264122
 20
-6.924619618460488
 10
8.52260876118214
 20
-7.000714339542472
 10
8.446514040100157
 20
-7.076809060624455
 10
8.370419319018172
 20
-7.152903781706438
 10
8.294324597936189
 20
-7.228998502788421
 10
8.218229876854206
 20
-7.228998502788421
 10
8.142135155772221
 20
-7.152903781706438
  0
LWPOLYLINE
  5
5F
100
AcDbEntity
  8
0
  6
ByLayer
 62
  256
370
   -1
100
AcDbPolyline
 90
   85
 70
    0
 43
0
 10
3.576451890853219
 20
-4.94615687032892
 10
3.500357169771236
 20
-4.94615687032892
 10
3.424262448689253
 20
-4.94615687032892
 10
3.500357169771236
 20
-4.94615687032892
 10
3.576451890853219
 20
-4.94615687032892
 10
3.728641333017186
 20
-4.870062149246936
 10
3.804736054099169
 20
-4.870062149246936
 10
3.956925496263136
 20
-4.870062149246936
 10
4.109114938427103
 20
-4.793967428164954
 10
4.185209659509086
 20
-4.793967428164954
 10
4.26130438059107
 20
-4.71787270708297
 10
4.337399101673053
 20
-4.71787270708297
 10
4.413493822755036
 20
-4.71787270708297
 10
4.48958854383702
 20
-4.641777986000987
 10
4.565683264919003
 20
-4.565683264919003
 10
4.641777986000987
 20
-4.565683264919003
 10
4.793967428164954
 20
-4.48958854383702
 10
4.870062149246936
 20
-4.413493822755036
 10
4.94615687032892
 20
-4.413493822755036
 10
4.94615687032892
 20
-4.337399101673053
 10
5.022251591410903
 20
-4.337399101673053
 10
5.098346312492887
 20
-4.26130438059107
 10
5.098346312492887
 20
-4.185209659509086
 10
5.17444103357487
 20
-4.185209659509086
 10
5.17444103357487
 20
-4.109114938427103
 10
5.250535754656854
 20
-4.033020217345119
 10
5.326630475738837
 20
-4.033020217345119
 10
5.326630475738837
 20
-3.956925496263136
 10
5.326630475738837
 20
-3.880830775181153
 10
5.326630475738837
 20
-3.804736054099169
 10
5.326630475738837
 20
-3.728641333017186
 10
5.40272519682082
 20
-3.652546611935203
 10
5.40272519682082
 20
-3.576451890853219
 10
5.40272519682082
 20
-3.500357169771236
 10
5.478819917902804
 20
-3.500357169771236
 10
5.478819917902804
 20
-3.424262448689253
 10
5.478819917902804
 20
-3.348167727607269
 10
5.478819917902804
 20
-3.272073006525285
 10
5.478819917902804
 20
-3.195978285443302
 10
5.40272519682082
 20
-3.119883564361319
 10
5.40272519682082
 20
-3.043788843279335
 10
5.326630475738837
 20
-2.967694122197352
 10
5.326630475738837
 20
-2.891599401115369
 10
5.326630475738837
 20
-2.815504680033385
 10
5.40272519682082
 20
-2.739409958951402
 10
5.40272519682082
 20
-2.663315237869419
 10
5.40272519682082
 20
-2.587220516787435
 10
5.40272519682082
 20
-2.511125795705452
 10
5.40272519682082
 20
-2.435031074623468
 10
5.40272519682082
 20
-2.358936353541485
 10
5.40272519682082
 20
-2.282841632459502
 10
5.326630475738837
 20
-2.206746911377518
 10
5.326630475738837
 20
-2.130652190295535
 10
5.250535754656854
 20
-2.054557469213552
 10
5.250535754656854
 20
-1.978462748131568
 10
5.250535754656854
 20
-1.902368027049585
 10
5.250535754656854
 20
-1.826273305967601
 10
5.250535754656854
 20
-1.750178584885618
 10
5.326630475738837
 20
-1.674083863803634
 10
5.40272519682082
 20
-1.674083863803634
 10
5.40272519682082
 20
-1.597989142721651
 10
5.478819917902804
 20
-1.521894421639668
 10
5.554914638984787
 20
-1.521894421639668
 10
5.631009360066771
 20
-1.445799700557684
 10
5.631009360066771
 20
-1.369704979475701
 10
5.631009360066771
 20
-1.293610258393717
 10
5.631009360066771
 20
-1.217515537311734
 10
5.554914638984787
 20
-1.217515537311734
 10
5.478819917902804
 20
-1.141420816229751
 10
5.40272519682082
 20
-1.141420816229751
 10
5.250535754656854
 20
-1.065326095147767
 10
5.17444103357487
 20
-1.065326095147767
 10
5.022251591410903
 20
-0.989231374065784
 10
4.94615687032892
 20
-0.989231374065784
 10
4.870062149246936
 20
-0.9131366529838006
 10
4.793967428164954
 20
-0.9131366529838006
 10
4.71787270708297
 20
-0.9131366529838006
 10
4.71787270708297
 20
-0.8370419319018172
 10
4.71787270708297
 20
-0.7609472108198339
 10
4.71787270708297
 20
-0.6848524897378505
 10
4.71787270708297
 20
-0.6087577686558671
 10
4.71787270708297
 20
-0.5326630475738837
 10
4.641777986000987
 20
-0.5326630475738837
 10
4.641777986000987
 20
-0.4565683264919003
 10
4.641777986000987
 20
-0.3804736054099169
  0
LWPOLYLINE
  5
60
100
AcDbEntity
  8
0
  6
ByLayer
 62
  256
370
   -1
100
AcDbPolyline
 90
   39
 70
    0
 43
0
 10
1.445799700557684
 20
-12.17515537311734
 10
1.369704979475701
 20
-12.17515537311734
 10
1.445799700557684
 20
-12.17515537311734
 10
1.521894421639668
 20
-12.17515537311734
 10
1.674083863803634
 20
-12.17515537311734
 10
1.826273305967601
 20
-12.17515537311734
 10
2.054557469213552
 20
-12.17515537311734
 10
2.206746911377518
 20
-12.17515537311734
 10
2.435031074623468
 20
-12.17515537311734
 10
2.663315237869419
 20
-12.17515537311734
 10
2.815504680033385
 20
-12.17515537311734
 10
2.967694122197352
 20
-12.17515537311734
 10
3.043788843279335
 20
-12.17515537311734
 10
3.119883564361319
 20
-12.17515537311734
 10
3.195978285443302
 20
-12.17515537311734
 10
3.272073006525285
 20
-12.17515537311734
 10
3.348167727607269
 20
-12.17515537311734
 10
3.424262448689253
 20
-12.17515537311734
 10
3.500357169771236
 20
-12.17515537311734
 10
3.576451890853219
 20
-12.17515537311734
 10
3.652546611935203
 20
-12.25125009419932
 10
3.728641333017186
 20
-12.25125009419932
 10
3.804736054099169
 20
-12.25125009419932
 10
3.880830775181153
 20
-12.25125009419932
 10
3.956925496263136
 20
-12.25125009419932
 10
4.109114938427103
 20
-12.25125009419932
 10
4.185209659509086
 20
-12.17515537311734
 10
4.337399101673053
 20
-12.17515537311734
 10
4.48958854383702
 20
-12.17515537311734
 10
4.71787270708297
 20
-12.17515537311734
 10
4.94615687032892
 20
-12.09906065203536
 10
5.098346312492887
 20
-12.09906065203536
 10
5.326630475738837
 20
-12.09906065203536
 10
5.478819917902804
 20
-12.09906065203536
 10
5.631009360066771
 20
-12.02296593095338
 10
5.783198802230737
 20
-12.02296593095338
 10
5.935388244394704
 20
-12.02296593095338
 10
6.087577686558671
 20
-12.02296593095338
 10
6.163672407640655
 20
-11.94687120987139
  0
LWPOLYLINE
  5
61
100
AcDbEntity
  8
0
  6
ByLayer
 62
  256
370
   -1
100
AcDbPolyline
 90
   88
 70
    0
 43
0
 10
-5.40272519682082
 20
-12.86000786285519
 10
-5.098346312492887
 20
-12.86000786285519
 10
-5.022251591410903
 20
-12.86000786285519
 10
-4.94615687032892
 20
-12.86000786285519
 10
-4.793967428164954
 20
-12.86000786285519
 10
-4.71787270708297
 20
-12.86000786285519
 10
-4.641777986000987
 20
-12.93610258393718
 10
-4.565683264919003
 20
-12.93610258393718
 10
-4.48958854383702
 20
-13.01219730501916
 10
-4.413493822755036
 20
-13.01219730501916
 10
-4.337399101673053
 20
-13.08829202610114
 10
-4.26130438059107
 20
-13.08829202610114
 10
-4.109114938427103
 20
-13.08829202610114
 10
-4.033020217345119
 20
-13.08829202610114
 10
-3.956925496263136
 20
-13.16438674718313
 10
-3.804736054099169
 20
-13.16438674718313
 10
-3.728641333017186
 20
-13.08829202610114
 10
-3.576451890853219
 20
-13.08829202610114
 10
-3.500357169771236
 20
-13.08829202610114
 10
-3.348167727607269
 20
-13.08829202610114
 10
-3.272073006525285
 20
-13.08829202610114
 10
-3.195978285443302
 20
-13.08829202610114
 10
-3.043788843279335
 20
-13.08829202610114
 10
-2.967694122197352
 20
-13.01219730501916
 10
-2.891599401115369
 20
-13.01219730501916
 10
-2.815504680033385
 20
-13.01219730501916
 10
-2.739409958951402
 20
-13.01219730501916
 10
-2.663315237869419
 20
-12.93610258393718
 10
-2.587220516787435
 20
-12.93610258393718
 10
-2.435031074623468
 20
-12.93610258393718
 10
-2.358936353541485
 20
-12.93610258393718
 10
-2.282841632459502
 20
-12.86000786285519
 10
-2.206746911377518
 20
-12.86000786285519
 10
-2.130652190295535
 20
-12.78391314177321
 10
-2.054557469213552
 20
-12.78391314177321
 10
-1.978462748131568
 20
-12.70781842069123
 10
-1.978462748131568
 20
-12.63172369960924
 10
-1.902368027049585
 20
-12.63172369960924
 10
-1.902368027049585
 20
-12.55562897852726
 10
-1.826273305967601
 20
-12.55562897852726
 10
-1.826273305967601
 20
-12.47953425744528
 10
-1.750178584885618
 20
-12.40343953636329
 10
-1.674083863803634
 20
-12.32734481528131
 10
-1.674083863803634
 20
-12.25125009419932
 10
-1.674083863803634
 20
-12.17515537311734
 10
-1.597989142721651
 20
-12.09906065203536
 10
-1.597989142721651
 20
-12.02296593095338
 10
-1.597989142721651
 20
-11.94687120987139
 10
-1.521894421639668
 20
-11.87077648878941
 10
-1.445799700557684
 20
-11.79468176770743
 10
-1.445799700557684
 20
-11.71858704662544
 10
-1.445799700557684
 20
-11.64249232554346
 10
-1.369704979475701
 20
-11.56639760446147
 10
-1.369704979475701
 20
-11.49030288337949
 10
-1.369704979475701
 20
-11.41420816229751
 10
-1.369704979475701
 20
-11.33811344121552
 10
-1.293610258393717
 20
-11.26201872013354
 10
-1.293610258393717
 20
-11.18592399905156
 10
-1.293610258393717
 20
-11.10982927796957
 10
-1.293610258393717
 20
-11.03373455688759
 10
-1.217515537311734
 20
-11.03373455688759
 10
-1.217515537311734
 20
-10.95763983580561
 10
-1.141420816229751
 20
-10.95763983580561
 10
-1.141420816229751
 20
-10.88154511472362
 10
-1.065326095147767
 20
-10.88154511472362
 10
-0.989231374065784
 20
-10.88154511472362
 10
-0.9131366529838006
 20
-10.88154511472362
 10
-0.9131366529838006
 20
-10.80545039364164
 10
-0.8370419319018172
 20
-10.80545039364164
 10
-0.7609472108198339
 20
-10.80545039364164
 10
-0.6848524897378505
 20
-10.80545039364164
 10
-0.5326630475738837
 20
-10.72935567255966
 10
-0.3804736054099169
 20
-10.72935567255966
 10
-0.2282841632459502
 20
-10.72935567255966
 10
-0.07609472108198338
 20
-10.65326095147767
 10
0.07609472108198338
 20
-10.65326095147767
 10
0.2282841632459502
 20
-10.65326095147767
 10
0.3804736054099169
 20
-10.57716623039569
 10
0.5326630475738837
 20
-10.50107150931371
 10
0.7609472108198339
 20
-10.50107150931371
 10
0.9131366529838006
 20
-10.42497678823172
 10
0.989231374065784
 20
-10.42497678823172
 10
1.141420816229751
 20
-10.34888206714974
 10
1.217515537311734
 20
-10.34888206714974
 10
1.293610258393717
 20
-10.34888206714974
 10
1.369704979475701
 20
-10.34888206714974
 10
1.369704979475701
 20
-10.27278734606776
 10
1.293610258393717
 20
-10.27278734606776
  0
LWPOLYLINE
  5
62
100
AcDbEntity
  8
0
  6
ByLayer
 62
  256
370
   -1
100
AcDbPolyline
 90
   74
 70
    0
 43
0
 10
-4.94615687032892
 20
1.674083863803634
 10
-5.022251591410903
 20
1.674083863803634
 10
-5.022251591410903
 20
1.750178584885618
 10
-5.022251591410903
 20
1.674083863803634
 10
-4.94615687032892
 20
1.674083863803634
 10
-4.94615687032892
 20
1.597989142721651
 10
-4.870062149246936
 20
1.521894421639668
 10
-4.870062149246936
 20
1.445799700557684
 10
-4.94615687032892
 20
1.369704979475701
 10
-5.022251591410903
 20
1.293610258393717
 10
-5.098346312492887
 20
1.217515537311734
 10
-5.17444103357487
 20
1.141420816229751
 10
-5.250535754656854
 20
1.065326095147767
 10
-5.326630475738837
 20
0.989231374065784
 10
-5.40272519682082
 20
0.8370419319018172
 10
-5.478819917902804
 20
0.7609472108198339
 10
-5.554914638984787
 20
0.6848524897378505
 10
-5.631009360066771
 20
0.6087577686558671
 10
-5.631009360066771
 20
0.5326630475738837
 10
-5.707104081148754
 20
0.3804736054099169
 10
-5.707104081148754
 20
0.3043788843279335
 10
-5.783198802230737
 20
0.2282841632459502
 10
-5.783198802230737
 20
0.1521894421639668
 10
-5.783198802230737
 20
0.07609472108198338
 10
-5.85929352331272
 20
0
 10
-5.935388244394704
 20
-0.07609472108198338
 10
-5.935388244394704
 20
-0.1521894421639668
 10
-6.011482965476688
 20
-0.2282841632459502
 10
-6.087577686558671
 20
-0.2282841632459502
 10
-6.087577686558671
 20
-0.3043788843279335
 10
-6.087577686558671
 20
-0.3804736054099169
 10
-6.163672407640655
 20
-0.4565683264919003
 10
-6.163672407640655
 20
-0.5326630475738837
 10
-6.239767128722638
 20
-0.5326630475738837
 10
-6.239767128722638
 20
-0.6087577686558671
 10
-6.239767128722638
 20
-0.6848524897378505
 10
-6.239767128722638
 20
-0.7609472108198339
 10
-6.239767128722638
 20
-0.8370419319018172
 10
-6.239767128722638
 20
-0.9131366529838006
 10
-6.315861849804621
 20
-0.989231374065784
 10
-6.315861849804621
 20
-1.065326095147767
 10
-6.391956570886604
 20
-1.065326095147767
 10
-6.468051291968588
 20
-1.141420816229751
 10
-6.468051291968588
 20
-1.217515537311734
 10
-6.544146013050571
 20
-1.293610258393717
 10
-6.620240734132555
 20
-1.293610258393717
 10
-6.620240734132555
 20
-1.369704979475701
 10
-6.620240734132555
 20
-1.445799700557684
 10
-6.620240734132555
 20
-1.521894421639668
 10
-6.620240734132555
 20
-1.597989142721651
 10
-6.544146013050571
 20
-1.597989142721651
 10
-6.544146013050571
 20
-1.674083863803634
 10
-6.544146013050571
 20
-1.750178584885618
 10
-6.544146013050571
 20
-1.826273305967601
 10
-6.544146013050571
 20
-1.902368027049585
 10
-6.620240734132555
 20
-1.902368027049585
 10
-6.696335455214538
 20
-1.978462748131568
 10
-6.696335455214538
 20
-2.054557469213552
 10
-6.772430176296521
 20
-2.054557469213552
 10
-6.848524897378505
 20
-2.130652190295535
 10
-6.924619618460488
 20
-2.206746911377518
 10
-7.000714339542472
 20
-2.282841632459502
 10
-7.000714339542472
 20
-2.358936353541485
 10
-7.000714339542472
 20
-2.435031074623468
 10
-6.924619618460488
 20
-2.511125795705452
 10
-6.772430176296521
 20
-2.587220516787435
 10
-6.620240734132555
 20
-2.663315237869419
 10
-6.391956570886604
 20
-2.739409958951402
 10
-6.163672407640655
 20
-2.739409958951402
 10
-5.935388244394704
 20
-2.815504680033385
 10
-5.707104081148754
 20
-2.815504680033385
 10
-5.554914638984787
 20
-2.815504680033385
 10
-5.40272519682082
 20
-2.815504680033385
 10
-5.326630475738837
 20
-2.891599401115369
  0
LWPOLYLINE
  5
63
100
AcDbEntity
  8
0
  6
ByLayer
 62
  256
370
   -1
100
AcDbPolyline
 90
  117
 70
    0
 43
0
 10
-7.913850992526272
 20
3.500357169771236
 10
-7.913850992526272
 20
3.424262448689253
 10
-7.837756271444289
 20
3.424262448689253
 10
-7.761661550362305
 20
3.348167727607269
 10
-7.685566829280322
 20
3.348167727607269
 10
-7.609472108198339
 20
3.348167727607269
 10
-7.457282666034372
 20
3.272073006525285
 10
-7.381187944952388
 20
3.272073006525285
 10
-7.228998502788421
 20
3.195978285443302
 10
-7.152903781706438
 20
3.195978285443302
 10
-7.152903781706438
 20
3.119883564361319
 10
-7.076809060624455
 20
3.119883564361319
 10
-7.076809060624455
 20
3.043788843279335
 10
-7.000714339542472
 20
3.043788843279335
 10
-7.000714339542472
 20
2.967694122197352
 10
-7.000714339542472
 20
2.891599401115369
 10
-7.000714339542472
 20
2.815504680033385
 10
-7.000714339542472
 20
2.739409958951402
 10
-7.000714339542472
 20
2.663315237869419
 10
-7.076809060624455
 20
2.663315237869419
 10
-7.076809060624455
 20
2.587220516787435
 10
-7.152903781706438
 20
2.511125795705452
 10
-7.152903781706438
 20
2.435031074623468
 10
-7.228998502788421
 20
2.435031074623468
 10
-7.305093223870405
 20
2.358936353541485
 10
-7.381187944952388
 20
2.282841632459502
 10
-7.457282666034372
 20
2.206746911377518
 10
-7.457282666034372
 20
2.130652190295535
 10
-7.533377387116356
 20
2.054557469213552
 10
-7.533377387116356
 20
1.978462748131568
 10
-7.533377387116356
 20
1.902368027049585
 10
-7.533377387116356
 20
1.826273305967601
 10
-7.533377387116356
 20
1.750178584885618
 10
-7.533377387116356
 20
1.597989142721651
 10
-7.533377387116356
 20
1.521894421639668
 10
-7.533377387116356
 20
1.445799700557684
 10
-7.533377387116356
 20
1.369704979475701
 10
-7.533377387116356
 20
1.293610258393717
 10
-7.533377387116356
 20
1.217515537311734
 10
-7.609472108198339
 20
1.141420816229751
 10
-7.609472108198339
 20
1.065326095147767
 10
-7.685566829280322
 20
1.065326095147767
 10
-7.685566829280322
 20
0.989231374065784
 10
-7.761661550362305
 20
0.989231374065784
 10
-7.837756271444289
 20
0.9131366529838006
 10
-7.913850992526272
 20
0.9131366529838006
 10
-7.989945713608256
 20
0.8370419319018172
 10
-8.066040434690239
 20
0.8370419319018172
 10
-8.142135155772221
 20
0.7609472108198339
 10
-8.218229876854206
 20
0.6848524897378505
 10
-8.294324597936189
 20
0.6848524897378505
 10
-8.446514040100157
 20
0.6087577686558671
 10
-8.52260876118214
 20
0.5326630475738837
 10
-8.598703482264122
 20
0.4565683264919003
 10
-8.674798203346105
 20
0.3804736054099169
 10
-8.75089292442809
 20
0.3043788843279335
 10
-8.826987645510073
 20
0.2282841632459502
 10
-8.903082366592056
 20
0.2282841632459502
 10
-8.903082366592056
 20
0.1521894421639668
 10
-8.97917708767404
 20
0.07609472108198338
 10
-9.055271808756023
 20
0.07609472108198338
 10
-9.055271808756023
 20
0
 10
-9.131366529838006
 20
-0.07609472108198338
 10
-9.207461250919989
 20
-0.07609472108198338
 10
-9.207461250919989
 20
-0.1521894421639668
 10
-9.283555972001974
 20
-0.2282841632459502
 10
-9.359650693083957
 20
-0.2282841632459502
 10
-9.359650693083957
 20
-0.3043788843279335
 10
-9.43574541416594
 20
-0.3043788843279335
 10
-9.511840135247922
 20
-0.3804736054099169
 10
-9.511840135247922
 20
-0.4565683264919003
 10
-9.587934856329907
 20
-0.4565683264919003
 10
-9.587934856329907
 20
-0.5326630475738837
 10
-9.66402957741189
 20
-0.6087577686558671
 10
-9.740124298493873
 20
-0.6848524897378505
 10
-9.740124298493873
 20
-0.7609472108198339
 10
-9.816219019575858
 20
-0.7609472108198339
 10
-9.892313740657841
 20
-0.8370419319018172
 10
-9.892313740657841
 20
-0.9131366529838006
 10
-9.968408461739823
 20
-0.9131366529838006
 10
-9.968408461739823
 20
-0.989231374065784
 10
-9.968408461739823
 20
-1.065326095147767
 10
-9.968408461739823
 20
-1.141420816229751
 10
-9.892313740657841
 20
-1.217515537311734
 10
-9.892313740657841
 20
-1.293610258393717
 10
-9.816219019575858
 20
-1.293610258393717
 10
-9.816219019575858
 20
-1.369704979475701
 10
-9.816219019575858
 20
-1.445799700557684
 10
-9.740124298493873
 20
-1.445799700557684
 10
-9.740124298493873
 20
-1.521894421639668
 10
-9.66402957741189
 20
-1.597989142721651
 10
-9.587934856329907
 20
-1.674083863803634
 10
-9.511840135247922
 20
-1.674083863803634
 10
-9.511840135247922
 20
-1.750178584885618
 10
-9.43574541416594
 20
-1.750178584885618
 10
-9.359650693083957
 20
-1.826273305967601
 10
-9.283555972001974
 20
-1.826273305967601
 10
-9.283555972001974
 20
-1.902368027049585
 10
-9.207461250919989
 20
-1.902368027049585
 10
-9.207461250919989
 20
-1.978462748131568
 10
-9.207461250919989
 20
-2.054557469213552
 10
-9.207461250919989
 20
-2.130652190295535
 10
-9.207461250919989
 20
-2.206746911377518
 10
-9.207461250919989
 20
-2.282841632459502
 10
-9.207461250919989
 20
-2.358936353541485
 10
-9.207461250919989
 20
-2.435031074623468
 10
-9.207461250919989
 20
-2.511125795705452
 10
-9.131366529838006
 20
-2.511125795705452
 10
-9.131366529838006
 20
-2.587220516787435
 10
-9.131366529838006
 20
-2.663315237869419
 10
-9.055271808756023
 20
-2.663315237869419
 10
-9.055271808756023
 20
-2.739409958951402
 10
-9.055271808756023
 20
-2.815504680033385
 10
-9.131366529838006
 20
-2.815504680033385
 10
-9.131366529838006
 20
-2.891599401115369
 10
-9.207461250919989
 20
-2.891599401115369
 10
-9.283555972001974
 20
-2.891599401115369
  0
LWPOLYLINE
  5
64
100
AcDbEntity
  8
0
  6
ByLayer
 62
  256
370
   -1
100
AcDbPolyline
 90
   59
 70
    0
 43
0
 10
-10.55118029039516
 20
2.445000624945384
 10
-10.48528032884427
 20
2.406953264404391
 10
-10.44723296830328
 20
2.472853225955279
 10
-10.38133300675239
 20
2.434805865414288
 10
-10.3432856462114
 20
2.500705826965178
 10
-10.30523828567041
 20
2.566605788516066
 10
-10.20129096357853
 20
2.594458389525963
 10
-10.16324360303753
 20
2.660358351076852
 10
-10.08714888195555
 20
2.79215827417863
 10
-10.01105416087356
 20
2.923958197280408
 10
-9.896912079250592
 20
3.121658081933075
 10
-9.782769997627616
 20
3.319357966585741
 10
-9.640775314994745
 20
3.413110529146528
 10
-9.564680593912762
 20
3.544910452248305
 10
-9.450538512289786
 20
3.742610336900973
 10
-9.374443791207803
 20
3.87441026000275
 10
-9.298349070125818
 20
4.006210183104528
 10
-9.222254349043835
 20
4.138010106206305
 10
-9.146159627961852
 20
4.269810029308084
 10
-9.070064906879869
 20
4.401609952409861
 10
-8.993970185797886
 20
4.533409875511639
 10
-8.917875464715902
 20
4.665209798613416
 10
-8.841780743633919
 20
4.797009721715194
 10
-8.869633344643816
 20
4.900957043807075
 10
-8.831585984102823
 20
4.966857005357963
 10
-8.793538623561831
 20
5.032756966908853
 10
-8.75549126302084
 20
5.098656928459742
 10
-8.679396541938857
 20
5.230456851561519
 10
-8.641349181397866
 20
5.296356813112407
 10
-8.603301820856874
 20
5.362256774663297
 10
-8.565254460315881
 20
5.428156736214186
 10
-8.593107061325778
 20
5.532104058306067
 10
-8.555059700784787
 20
5.598004019856956
 10
-8.517012340243795
 20
5.663903981407843
 10
-8.478964979702805
 20
5.729803942958734
 10
-8.440917619161814
 20
5.795703904509621
 10
-8.402870258620821
 20
5.861603866060512
 10
-8.364822898079828
 20
5.9275038276114
 10
-8.326775537538836
 20
5.993403789162289
 10
-8.288728176997846
 20
6.059303750713178
 10
-8.184780854905966
 20
6.087156351723075
 10
-8.146733494364973
 20
6.153056313273964
 10
-8.070638773282989
 20
6.284856236375742
 10
-7.966691451191109
 20
6.312708837385639
 10
-7.928644090650117
 20
6.378608798936528
 10
-7.890596730109126
 20
6.444508760487416
 10
-7.786649408017245
 20
6.472361361497313
 10
-7.748602047476253
 20
6.538261323048202
 10
-7.710554686935261
 20
6.604161284599092
 10
-7.644654725384372
 20
6.5661139240581
 10
-7.606607364843381
 20
6.632013885608989
 10
-7.568560004302388
 20
6.697913847159877
 10
-7.464612682210508
 20
6.725766448169774
 10
-7.426565321669518
 20
6.791666409720664
 10
-7.360665360118628
 20
6.753619049179672
 10
-7.322617999577636
 20
6.819519010730561
 10
-7.284570639036644
 20
6.88541897228145
 10
-7.180623316944764
 20
6.913271573291347
 10
-7.218670677485756
 20
6.847371611740458
  0
LWPOLYLINE
  5
65
100
AcDbEntity
  8
0
  6
ByLayer
 62
  256
370
   -1
100
AcDbPolyline
 90
   51
 70
    0
 43
0
 10
-3.728641333017186
 20
6.609114938427103
 10
-3.728641333017186
 20
6.533020217345119
 10
-3.652546611935203
 20
6.533020217345119
 10
-3.576451890853219
 20
6.456925496263135
 10
-3.500357169771236
 20
6.456925496263135
 10
-3.424262448689253
 20
6.380830775181153
 10
-3.272073006525285
 20
6.380830775181153
 10
-3.195978285443302
 20
6.30473605409917
 10
-3.043788843279335
 20
6.30473605409917
 10
-2.967694122197352
 20
6.228641333017186
 10
-2.967694122197352
 20
6.152546611935202
 10
-2.967694122197352
 20
6.076451890853219
 10
-3.043788843279335
 20
6.076451890853219
 10
-3.043788843279335
 20
6.000357169771236
 10
-3.119883564361319
 20
5.924262448689253
 10
-3.119883564361319
 20
5.772073006525286
 10
-3.195978285443302
 20
5.695978285443302
 10
-3.195978285443302
 20
5.619883564361318
 10
-3.272073006525285
 20
5.543788843279335
 10
-3.272073006525285
 20
5.467694122197353
 10
-3.272073006525285
 20
5.391599401115369
 10
-3.195978285443302
 20
5.315504680033385
 10
-3.195978285443302
 20
5.239409958951402
 10
-3.195978285443302
 20
5.163315237869419
 10
-3.195978285443302
 20
5.087220516787434
 10
-3.272073006525285
 20
5.011125795705452
 10
-3.348167727607269
 20
4.935031074623469
 10
-3.348167727607269
 20
4.858936353541485
 10
-3.424262448689253
 20
4.858936353541485
 10
-3.424262448689253
 20
4.782841632459501
 10
-3.500357169771236
 20
4.706746911377518
 10
-3.576451890853219
 20
4.630652190295535
 10
-3.652546611935203
 20
4.554557469213552
 10
-3.652546611935203
 20
4.478462748131568
 10
-3.652546611935203
 20
4.402368027049585
 10
-3.652546611935203
 20
4.326273305967601
 10
-3.728641333017186
 20
4.326273305967601
 10
-3.728641333017186
 20
4.250178584885618
 10
-3.804736054099169
 20
4.250178584885618
 10
-3.804736054099169
 20
4.174083863803634
 10
-3.804736054099169
 20
4.097989142721651
 10
-3.880830775181153
 20
4.097989142721651
 10
-3.880830775181153
 20
4.021894421639668
 10
-3.956925496263136
 20
3.945799700557684
 10
-4.033020217345119
 20
3.869704979475701
 10
-4.033020217345119
 20
3.793610258393717
 10
-4.109114938427103
 20
3.793610258393717
 10
-4.185209659509086
 20
3.717515537311734
 10
-4.26130438059107
 20
3.717515537311734
 10
-4.337399101673053
 20
3.793610258393717
 10
-4.413493822755036
 20
3.793610258393717
  0
LWPOLYLINE
  5
66
100
AcDbEntity
  8
0
  6
ByLayer
 62
  256
370
   -1
100
AcDbPolyline
 90
   90
 70
    0
 43
0
 10
13.8125
 20
-6.5
 10
13.4375
 20
-7.0625
 10
13.375
 20
-7.375
 10
13.1875
 20
-7.5
 10
13.0625
 20
-7.625
 10
12.9375
 20
-7.75
 10
12.875
 20
-7.8125
 10
12.70781842069123
 20
-8.066040434690239
 10
12.63172369960924
 20
-8.066040434690239
 10
12.55562897852726
 20
-8.066040434690239
 10
12.47953425744528
 20
-8.066040434690239
 10
12.40343953636329
 20
-8.066040434690239
 10
12.32734481528131
 20
-8.066040434690239
 10
12.25125009419932
 20
-8.066040434690239
 10
12.17515537311734
 20
-8.066040434690239
 10
12.09906065203536
 20
-8.066040434690239
 10
12.02296593095338
 20
-8.066040434690239
 10
11.94687120987139
 20
-8.066040434690239
 10
11.87077648878941
 20
-8.066040434690239
 10
11.87077648878941
 20
-7.989945713608256
 10
11.79468176770743
 20
-7.989945713608256
 10
11.71858704662544
 20
-7.989945713608256
 10
11.64249232554346
 20
-7.989945713608256
 10
11.49030288337949
 20
-7.989945713608256
 10
11.41420816229751
 20
-8.066040434690239
 10
11.26201872013354
 20
-8.066040434690239
 10
11.18592399905156
 20
-8.066040434690239
 10
11.03373455688759
 20
-8.066040434690239
 10
10.95763983580561
 20
-8.142135155772221
 10
10.80545039364164
 20
-8.142135155772221
 10
10.72935567255966
 20
-8.218229876854206
 10
10.65326095147767
 20
-8.218229876854206
 10
10.57716623039569
 20
-8.294324597936189
 10
10.42497678823172
 20
-8.370419319018172
 10
10.34888206714974
 20
-8.370419319018172
 10
10.27278734606776
 20
-8.446514040100157
 10
10.19669262498577
 20
-8.446514040100157
 10
10.12059790390379
 20
-8.52260876118214
 10
10.04450318282181
 20
-8.52260876118214
 10
9.968408461739823
 20
-8.598703482264122
 10
9.892313740657841
 20
-8.674798203346105
 10
9.816219019575858
 20
-8.674798203346105
 10
9.816219019575858
 20
-8.75089292442809
 10
9.740124298493873
 20
-8.826987645510073
 10
9.66402957741189
 20
-8.903082366592056
 10
9.587934856329907
 20
-8.97917708767404
 10
9.587934856329907
 20
-9.055271808756023
 10
9.511840135247922
 20
-9.131366529838006
 10
9.43574541416594
 20
-9.207461250919989
 10
9.359650693083957
 20
-9.283555972001974
 10
9.283555972001974
 20
-9.359650693083957
 10
9.283555972001974
 20
-9.43574541416594
 10
9.207461250919989
 20
-9.511840135247922
 10
9.207461250919989
 20
-9.587934856329907
 10
9.207461250919989
 20
-9.66402957741189
 10
9.131366529838006
 20
-9.66402957741189
 10
9.131366529838006
 20
-9.740124298493873
 10
9.055271808756023
 20
-9.740124298493873
 10
9.055271808756023
 20
-9.816219019575858
 10
8.97917708767404
 20
-9.892313740657841
 10
8.903082366592056
 20
-9.968408461739823
 10
8.903082366592056
 20
-10.04450318282181
 10
8.826987645510073
 20
-10.12059790390379
 10
8.826987645510073
 20
-10.19669262498577
 10
8.826987645510073
 20
-10.27278734606776
 10
8.826987645510073
 20
-10.34888206714974
 10
8.826987645510073
 20
-10.42497678823172
 10
8.75089292442809
 20
-10.42497678823172
 10
8.75089292442809
 20
-10.50107150931371
 10
8.674798203346105
 20
-10.57716623039569
 10
8.598703482264122
 20
-10.57716623039569
 10
8.52260876118214
 20
-10.65326095147767
 10
8.446514040100157
 20
-10.65326095147767
 10
8.370419319018172
 20
-10.65326095147767
 10
8.294324597936189
 20
-10.72935567255966
 10
8.218229876854206
 20
-10.72935567255966
 10
8.142135155772221
 20
-10.80545039364164
 10
8.066040434690239
 20
-10.80545039364164
 10
7.989945713608256
 20
-10.80545039364164
 10
7.913850992526272
 20
-10.80545039364164
 10
7.761661550362305
 20
-10.88154511472362
 10
7.685566829280322
 20
-10.88154511472362
 10
7.533377387116356
 20
-10.88154511472362
 10
7.381187944952388
 20
-10.95763983580561
 10
7.305093223870405
 20
-10.95763983580561
 10
7.152903781706438
 20
-10.95763983580561
 10
7.000714339542472
 20
-11.03373455688759
 10
6.924619618460488
 20
-11.03373455688759
 10
6.848524897378505
 20
-11.10982927796957
 10
6.772430176296521
 20
-11.10982927796957
  0
LWPOLYLINE
  5
67
100
AcDbEntity
  8
0
  6
ByLayer
 62
  256
370
   -1
100
AcDbPolyline
 90
  119
 70
    0
 43
0
 10
0.1521894421639668
 20
1.293610258393717
 10
-0.07609472108198338
 20
0.989231374065784
 10
-0.1521894421639668
 20
0.989231374065784
 10
-0.2282841632459502
 20
0.989231374065784
 10
-0.3043788843279335
 20
1.065326095147767
 10
-0.3804736054099169
 20
1.065326095147767
 10
-0.4565683264919003
 20
1.065326095147767
 10
-0.5326630475738837
 20
0.989231374065784
 10
-0.6087577686558671
 20
0.989231374065784
 10
-0.6848524897378505
 20
0.989231374065784
 10
-0.7609472108198339
 20
0.989231374065784
 10
-0.8370419319018172
 20
0.9131366529838006
 10
-0.9131366529838006
 20
0.9131366529838006
 10
-0.989231374065784
 20
0.9131366529838006
 10
-1.065326095147767
 20
0.8370419319018172
 10
-1.141420816229751
 20
0.8370419319018172
 10
-1.217515537311734
 20
0.8370419319018172
 10
-1.293610258393717
 20
0.8370419319018172
 10
-1.369704979475701
 20
0.7609472108198339
 10
-1.445799700557684
 20
0.7609472108198339
 10
-1.445799700557684
 20
0.6848524897378505
 10
-1.521894421639668
 20
0.6848524897378505
 10
-1.521894421639668
 20
0.6087577686558671
 10
-1.597989142721651
 20
0.6087577686558671
 10
-1.597989142721651
 20
0.5326630475738837
 10
-1.674083863803634
 20
0.4565683264919003
 10
-1.674083863803634
 20
0.3804736054099169
 10
-1.674083863803634
 20
0.3043788843279335
 10
-1.674083863803634
 20
0.2282841632459502
 10
-1.674083863803634
 20
0.1521894421639668
 10
-1.674083863803634
 20
0.07609472108198338
 10
-1.597989142721651
 20
0
 10
-1.521894421639668
 20
0
 10
-1.445799700557684
 20
-0.07609472108198338
 10
-1.369704979475701
 20
-0.07609472108198338
 10
-1.293610258393717
 20
-0.07609472108198338
 10
-1.217515537311734
 20
-0.1521894421639668
 10
-1.141420816229751
 20
-0.1521894421639668
 10
-1.065326095147767
 20
-0.1521894421639668
 10
-0.989231374065784
 20
-0.1521894421639668
 10
-0.9131366529838006
 20
-0.2282841632459502
 10
-0.8370419319018172
 20
-0.2282841632459502
 10
-0.7609472108198339
 20
-0.2282841632459502
 10
-0.6848524897378505
 20
-0.2282841632459502
 10
-0.6087577686558671
 20
-0.3043788843279335
 10
-0.4565683264919003
 20
-0.3043788843279335
 10
-0.3804736054099169
 20
-0.3043788843279335
 10
-0.3043788843279335
 20
-0.3804736054099169
 10
-0.2282841632459502
 20
-0.3804736054099169
 10
-0.1521894421639668
 20
-0.4565683264919003
 10
-0.07609472108198338
 20
-0.4565683264919003
 10
0
 20
-0.5326630475738837
 10
0.07609472108198338
 20
-0.5326630475738837
 10
0.1521894421639668
 20
-0.5326630475738837
 10
0.2282841632459502
 20
-0.5326630475738837
 10
0.3043788843279335
 20
-0.6087577686558671
 10
0.3804736054099169
 20
-0.6087577686558671
 10
0.4565683264919003
 20
-0.6848524897378505
 10
0.5326630475738837
 20
-0.6848524897378505
 10
0.6087577686558671
 20
-0.6848524897378505
 10
0.6848524897378505
 20
-0.6848524897378505
 10
0.7609472108198339
 20
-0.6848524897378505
 10
0.8370419319018172
 20
-0.6848524897378505
 10
0.9131366529838006
 20
-0.6848524897378505
 10
0.989231374065784
 20
-0.6848524897378505
 10
1.065326095147767
 20
-0.6087577686558671
 10
1.141420816229751
 20
-0.6087577686558671
 10
1.217515537311734
 20
-0.6087577686558671
 10
1.293610258393717
 20
-0.6087577686558671
 10
1.369704979475701
 20
-0.6087577686558671
 10
1.445799700557684
 20
-0.6087577686558671
 10
1.521894421639668
 20
-0.5326630475738837
 10
1.597989142721651
 20
-0.5326630475738837
 10
1.674083863803634
 20
-0.4565683264919003
 10
1.750178584885618
 20
-0.3804736054099169
 10
1.826273305967601
 20
-0.3804736054099169
 10
1.902368027049585
 20
-0.3043788843279335
 10
1.978462748131568
 20
-0.2282841632459502
 10
2.054557469213552
 20
-0.2282841632459502
 10
2.130652190295535
 20
-0.1521894421639668
 10
2.206746911377518
 20
-0.07609472108198338
 10
2.206746911377518
 20
0
 10
2.206746911377518
 20
0.07609472108198338
 10
2.206746911377518
 20
0.1521894421639668
 10
2.206746911377518
 20
0.2282841632459502
 10
2.130652190295535
 20
0.3043788843279335
 10
2.054557469213552
 20
0.3043788843279335
 10
1.978462748131568
 20
0.3043788843279335
 10
1.978462748131568
 20
0.3804736054099169
 10
1.902368027049585
 20
0.3804736054099169
 10
1.902368027049585
 20
0.4565683264919003
 10
1.826273305967601
 20
0.4565683264919003
 10
1.826273305967601
 20
0.5326630475738837
 10
1.826273305967601
 20
0.6087577686558671
 10
1.826273305967601
 20
0.6848524897378505
 10
1.750178584885618
 20
0.6848524897378505
 10
1.750178584885618
 20
0.7609472108198339
 10
1.750178584885618
 20
0.8370419319018172
 10
1.750178584885618
 20
0.9131366529838006
 10
1.674083863803634
 20
0.9131366529838006
 10
1.674083863803634
 20
0.989231374065784
 10
1.597989142721651
 20
0.989231374065784
 10
1.521894421639668
 20
1.065326095147767
 10
1.445799700557684
 20
1.065326095147767
 10
1.369704979475701
 20
1.065326095147767
 10
1.293610258393717
 20
1.141420816229751
 10
1.217515537311734
 20
1.141420816229751
 10
1.141420816229751
 20
1.217515537311734
 10
0.989231374065784
 20
1.217515537311734
 10
0.9131366529838006
 20
1.217515537311734
 10
0.7609472108198339
 20
1.293610258393717
 10
0.6848524897378505
 20
1.293610258393717
 10
0.6087577686558671
 20
1.293610258393717
 10
0.5326630475738837
 20
1.293610258393717
 10
0.4565683264919003
 20
1.293610258393717
 10
0.3804736054099169
 20
1.293610258393717
 10
0.3043788843279335
 20
1.293610258393717
 10
0.2282841632459502
 20
1.293610258393717
 10
0.1521894421639668
 20
1.293610258393717
  0
LWPOLYLINE
  5
68
100
AcDbEntity
  8
0
  6
ByLayer
 62
  256
370
   -1
100
AcDbPolyline
 90
   57
 70
    0
 43
0
 10
-2.282841632459502
 20
-2.282841632459502
 10
-2.206746911377518
 20
-2.282841632459502
 10
-2.130652190295535
 20
-2.282841632459502
 10
-2.054557469213552
 20
-2.282841632459502
 10
-1.978462748131568
 20
-2.282841632459502
 10
-1.902368027049585
 20
-2.358936353541485
 10
-1.826273305967601
 20
-2.358936353541485
 10
-1.826273305967601
 20
-2.435031074623468
 10
-1.826273305967601
 20
-2.511125795705452
 10
-1.750178584885618
 20
-2.511125795705452
 10
-1.674083863803634
 20
-2.587220516787435
 10
-1.597989142721651
 20
-2.663315237869419
 10
-1.521894421639668
 20
-2.663315237869419
 10
-1.521894421639668
 20
-2.739409958951402
 10
-1.445799700557684
 20
-2.739409958951402
 10
-1.369704979475701
 20
-2.815504680033385
 10
-1.293610258393717
 20
-2.815504680033385
 10
-1.217515537311734
 20
-2.891599401115369
 10
-1.141420816229751
 20
-2.967694122197352
 10
-1.065326095147767
 20
-2.967694122197352
 10
-0.989231374065784
 20
-2.967694122197352
 10
-0.9131366529838006
 20
-2.967694122197352
 10
-0.8370419319018172
 20
-2.967694122197352
 10
-0.7609472108198339
 20
-2.967694122197352
 10
-0.6848524897378505
 20
-2.967694122197352
 10
-0.6087577686558671
 20
-2.967694122197352
 10
-0.5326630475738837
 20
-2.967694122197352
 10
-0.4565683264919003
 20
-2.967694122197352
 10
-0.3804736054099169
 20
-2.967694122197352
 10
-0.3043788843279335
 20
-2.967694122197352
 10
-0.2282841632459502
 20
-2.967694122197352
 10
-0.1521894421639668
 20
-2.967694122197352
 10
-0.07609472108198338
 20
-2.967694122197352
 10
0
 20
-2.967694122197352
 10
0.07609472108198338
 20
-2.967694122197352
 10
0.1521894421639668
 20
-2.967694122197352
 10
0.3043788843279335
 20
-3.043788843279335
 10
0.4565683264919003
 20
-3.043788843279335
 10
0.6087577686558671
 20
-3.043788843279335
 10
0.6848524897378505
 20
-3.043788843279335
 10
0.8370419319018172
 20
-3.043788843279335
 10
0.9131366529838006
 20
-3.119883564361319
 10
0.989231374065784
 20
-3.119883564361319
 10
0.989231374065784
 20
-3.195978285443302
 10
0.989231374065784
 20
-3.272073006525285
 10
1.065326095147767
 20
-3.272073006525285
 10
1.065326095147767
 20
-3.348167727607269
 10
1.065326095147767
 20
-3.424262448689253
 10
1.141420816229751
 20
-3.424262448689253
 10
1.141420816229751
 20
-3.500357169771236
 10
1.141420816229751
 20
-3.576451890853219
 10
1.217515537311734
 20
-3.576451890853219
 10
1.217515537311734
 20
-3.652546611935203
 10
1.217515537311734
 20
-3.728641333017186
 10
1.217515537311734
 20
-3.804736054099169
 10
1.141420816229751
 20
-3.804736054099169
 10
1.141420816229751
 20
-3.880830775181153
  0
LWPOLYLINE
  5
69
100
AcDbEntity
  8
0
  6
ByLayer
 62
  256
370
   -1
100
AcDbPolyline
 90
   42
 70
    0
 43
0
 10
-0.4847844741755503
 20
-5.889138243635848
 10
-0.5823160494678381
 20
-5.843658523165134
 10
-0.6343679042894115
 20
-5.700647227402131
 10
-0.6603938317001985
 20
-5.629141579520629
 10
-0.7318994795817002
 20
-5.655167506931416
 10
-0.757925406992487
 20
-5.583661859049913
 10
-0.8294310548739887
 20
-5.6096877864607
 10
-0.9269626301662768
 20
-5.564208065989986
 10
-0.9984682780477785
 20
-5.590233993400773
 10
-1.167505501221569
 20
-5.570780200340844
 10
-1.265037076513857
 20
-5.525300479870129
 10
-1.336542724395359
 20
-5.551326407280916
 10
-1.505579947569149
 20
-5.531872614220988
 10
-1.577085595450651
 20
-5.557898541631774
 10
-1.746122818624441
 20
-5.538444748571846
 10
-1.843654393916729
 20
-5.492965028101131
 10
-2.012691617090519
 20
-5.473511235041204
 10
-2.155702912853522
 20
-5.525563089862777
 10
-2.253234488145811
 20
-5.480083369392061
 10
-2.422271711319601
 20
-5.460629576332134
 10
-2.51980328661189
 20
-5.415149855861419
 10
-2.617334861904178
 20
-5.369670135390703
 10
-2.760346157667181
 20
-5.421721990212276
 10
-2.85787773295947
 20
-5.376242269741562
 10
-3.02691495613326
 20
-5.356788476681634
 10
-3.124446531425548
 20
-5.311308756210919
 10
-3.19595217930705
 20
-5.337334683621706
 10
-3.293483754599338
 20
-5.291854963150991
 10
-3.391015329891627
 20
-5.246375242680275
 10
-3.417041257302414
 20
-5.174869594798774
 10
-3.345535609420912
 20
-5.148843667387987
 10
-3.371561536831698
 20
-5.077338019506485
 10
-3.326081816360984
 20
-4.979806444214197
 10
-3.352107743771771
 20
-4.908300796332695
 10
-3.280602095890269
 20
-4.882274868921908
 10
-3.306628023301055
 20
-4.810769221040407
 10
-3.261148302830341
 20
-4.713237645748119
 10
-3.287174230241128
 20
-4.641731997866617
 10
-3.313200157651914
 20
-4.570226349985115
 10
-3.410731732944202
 20
-4.5247466295144
 10
-3.482237380825704
 20
-4.550772556925187
 10
-3.553743028707205
 20
-4.576798484335974
  0
LWPOLYLINE
  5
6A
100
AcDbEntity
  8
0
  6
ByLayer
 62
  256
370
   -1
100
AcDbPolyline
 90
 1594
 70
    0
 43
0
 10
-13.01219730501916
 20
10.04450318282181
 10
-12.93610258393718
 20
10.04450318282181
 10
-12.86000786285519
 20
10.12059790390379
 10
-12.78391314177321
 20
10.12059790390379
 10
-12.70781842069123
 20
10.12059790390379
 10
-12.63172369960924
 20
10.19669262498577
 10
-12.55562897852726
 20
10.19669262498577
 10
-12.47953425744528
 20
10.27278734606776
 10
-12.40343953636329
 20
10.27278734606776
 10
-12.32734481528131
 20
10.34888206714974
 10
-12.25125009419932
 20
10.34888206714974
 10
-12.17515537311734
 20
10.42497678823172
 10
-12.09906065203536
 20
10.42497678823172
 10
-12.09906065203536
 20
10.50107150931371
 10
-12.02296593095338
 20
10.50107150931371
 10
-11.94687120987139
 20
10.57716623039569
 10
-11.87077648878941
 20
10.57716623039569
 10
-11.87077648878941
 20
10.65326095147767
 10
-11.79468176770743
 20
10.65326095147767
 10
-11.79468176770743
 20
10.72935567255966
 10
-11.71858704662544
 20
10.72935567255966
 10
-11.71858704662544
 20
10.80545039364164
 10
-11.64249232554346
 20
10.88154511472362
 10
-11.64249232554346
 20
10.95763983580561
 10
-11.56639760446147
 20
11.03373455688759
 10
-11.56639760446147
 20
11.10982927796957
 10
-11.49030288337949
 20
11.10982927796957
 10
-11.49030288337949
 20
11.18592399905156
 10
-11.41420816229751
 20
11.26201872013354
 10
-11.41420816229751
 20
11.33811344121552
 10
-11.33811344121552
 20
11.33811344121552
 10
-11.33811344121552
 20
11.41420816229751
 10
-11.26201872013354
 20
11.41420816229751
 10
-11.26201872013354
 20
11.49030288337949
 10
-11.18592399905156
 20
11.56639760446147
 10
-11.18592399905156
 20
11.64249232554346
 10
-11.10982927796957
 20
11.64249232554346
 10
-11.10982927796957
 20
11.71858704662544
 10
-11.03373455688759
 20
11.71858704662544
 10
-11.03373455688759
 20
11.79468176770743
 10
-10.95763983580561
 20
11.79468176770743
 10
-10.95763983580561
 20
11.87077648878941
 10
-10.88154511472362
 20
11.94687120987139
 10
-10.88154511472362
 20
12.02296593095338
 10
-10.80545039364164
 20
12.09906065203536
 10
-10.72935567255966
 20
12.17515537311734
 10
-10.72935567255966
 20
12.25125009419932
 10
-10.65326095147767
 20
12.25125009419932
 10
-10.65326095147767
 20
12.32734481528131
 10
-10.57716623039569
 20
12.32734481528131
 10
-10.50107150931371
 20
12.40343953636329
 10
-10.42497678823172
 20
12.40343953636329
 10
-10.34888206714974
 20
12.47953425744528
 10
-10.34888206714974
 20
12.55562897852726
 10
-10.27278734606776
 20
12.55562897852726
 10
-10.19669262498577
 20
12.63172369960924
 10
-10.12059790390379
 20
12.63172369960924
 10
-10.12059790390379
 20
12.70781842069123
 10
-10.04450318282181
 20
12.70781842069123
 10
-9.968408461739823
 20
12.78391314177321
 10
-9.892313740657841
 20
12.78391314177321
 10
-9.816219019575858
 20
12.86000786285519
 10
-9.740124298493873
 20
12.86000786285519
 10
-9.66402957741189
 20
12.86000786285519
 10
-9.587934856329907
 20
12.93610258393718
 10
-9.587934856329907
 20
13.01219730501916
 10
-9.511840135247922
 20
13.01219730501916
 10
-9.43574541416594
 20
13.08829202610114
 10
-9.43574541416594
 20
13.16438674718313
 10
-9.359650693083957
 20
13.16438674718313
 10
-9.283555972001974
 20
13.24048146826511
 10
-9.207461250919989
 20
13.24048146826511
 10
-9.131366529838006
 20
13.31657618934709
 10
-9.055271808756023
 20
13.39267091042908
 10
-8.97917708767404
 20
13.46876563151106
 10
-8.903082366592056
 20
13.46876563151106
 10
-8.826987645510073
 20
13.54486035259304
 10
-8.826987645510073
 20
13.62095507367503
 10
-8.75089292442809
 20
13.62095507367503
 10
-8.674798203346105
 20
13.69704979475701
 10
-8.674798203346105
 20
13.77314451583899
 10
-8.598703482264122
 20
13.77314451583899
 10
-8.52260876118214
 20
13.84923923692098
 10
-8.446514040100157
 20
13.92533395800296
 10
-8.370419319018172
 20
13.92533395800296
 10
-8.294324597936189
 20
13.92533395800296
 10
-8.218229876854206
 20
14.00142867908494
 10
-8.142135155772221
 20
14.00142867908494
 10
-8.066040434690239
 20
14.00142867908494
 10
-7.989945713608256
 20
14.07752340016693
 10
-7.913850992526272
 20
14.07752340016693
 10
-7.837756271444289
 20
14.07752340016693
 10
-7.837756271444289
 20
14.00142867908494
 10
-7.761661550362305
 20
14.00142867908494
 10
-7.761661550362305
 20
13.92533395800296
 10
-7.685566829280322
 20
13.92533395800296
 10
-7.685566829280322
 20
13.84923923692098
 10
-7.685566829280322
 20
13.77314451583899
 10
-7.609472108198339
 20
13.77314451583899
 10
-7.609472108198339
 20
13.69704979475701
 10
-7.533377387116356
 20
13.69704979475701
 10
-7.533377387116356
 20
13.62095507367503
 10
-7.457282666034372
 20
13.62095507367503
 10
-7.457282666034372
 20
13.69704979475701
 10
-7.381187944952388
 20
13.69704979475701
 10
-7.305093223870405
 20
13.77314451583899
 10
-7.305093223870405
 20
13.84923923692098
 10
-7.228998502788421
 20
13.84923923692098
 10
-7.228998502788421
 20
13.92533395800296
 10
-7.152903781706438
 20
14.00142867908494
 10
-7.076809060624455
 20
14.07752340016693
 10
-7.000714339542472
 20
14.15361812124891
 10
-6.924619618460488
 20
14.22971284233089
 10
-6.848524897378505
 20
14.30580756341288
 10
-6.772430176296521
 20
14.30580756341288
 10
-6.772430176296521
 20
14.38190228449486
 10
-6.696335455214538
 20
14.38190228449486
 10
-6.696335455214538
 20
14.45799700557684
 10
-6.620240734132555
 20
14.45799700557684
 10
-6.620240734132555
 20
14.53409172665883
 10
-6.544146013050571
 20
14.53409172665883
 10
-6.468051291968588
 20
14.61018644774081
 10
-6.391956570886604
 20
14.61018644774081
 10
-6.315861849804621
 20
14.68628116882279
 10
-6.239767128722638
 20
14.68628116882279
 10
-6.163672407640655
 20
14.76237588990478
 10
-6.087577686558671
 20
14.76237588990478
 10
-6.011482965476688
 20
14.83847061098676
 10
-5.935388244394704
 20
14.83847061098676
 10
-5.85929352331272
 20
14.83847061098676
 10
-5.783198802230737
 20
14.83847061098676
 10
-5.707104081148754
 20
14.91456533206874
 10
-5.631009360066771
 20
14.91456533206874
 10
-5.554914638984787
 20
14.99066005315073
 10
-5.478819917902804
 20
14.99066005315073
 10
-5.40272519682082
 20
15.06675477423271
 10
-5.326630475738837
 20
15.06675477423271
 10
-5.250535754656854
 20
15.06675477423271
 10
-5.17444103357487
 20
15.06675477423271
 10
-5.17444103357487
 20
15.14284949531469
 10
-5.098346312492887
 20
15.14284949531469
 10
-5.022251591410903
 20
15.14284949531469
 10
-5.022251591410903
 20
15.21894421639668
 10
-4.94615687032892
 20
15.21894421639668
 10
-4.870062149246936
 20
15.21894421639668
 10
-4.793967428164954
 20
15.29503893747866
 10
-4.71787270708297
 20
15.29503893747866
 10
-4.641777986000987
 20
15.37113365856064
 10
-4.565683264919003
 20
15.37113365856064
 10
-4.565683264919003
 20
15.44722837964263
 10
-4.48958854383702
 20
15.44722837964263
 10
-4.413493822755036
 20
15.44722837964263
 10
-4.337399101673053
 20
15.52332310072461
 10
-4.26130438059107
 20
15.52332310072461
 10
-4.185209659509086
 20
15.52332310072461
 10
-4.109114938427103
 20
15.52332310072461
 10
-4.033020217345119
 20
15.52332310072461
 10
-3.956925496263136
 20
15.52332310072461
 10
-3.880830775181153
 20
15.59941782180659
 10
-3.804736054099169
 20
15.59941782180659
 10
-3.728641333017186
 20
15.59941782180659
 10
-3.576451890853219
 20
15.59941782180659
 10
-3.500357169771236
 20
15.59941782180659
 10
-3.424262448689253
 20
15.59941782180659
 10
-3.348167727607269
 20
15.59941782180659
 10
-3.272073006525285
 20
15.59941782180659
 10
-3.195978285443302
 20
15.59941782180659
 10
-3.119883564361319
 20
15.59941782180659
 10
-3.043788843279335
 20
15.67551254288858
 10
-2.891599401115369
 20
15.67551254288858
 10
-2.815504680033385
 20
15.67551254288858
 10
-2.739409958951402
 20
15.67551254288858
 10
-2.663315237869419
 20
15.67551254288858
 10
-2.587220516787435
 20
15.75160726397056
 10
-2.511125795705452
 20
15.75160726397056
 10
-2.435031074623468
 20
15.75160726397056
 10
-2.358936353541485
 20
15.75160726397056
 10
-2.358936353541485
 20
15.82770198505254
 10
-2.282841632459502
 20
15.82770198505254
 10
-2.206746911377518
 20
15.82770198505254
 10
-2.130652190295535
 20
15.82770198505254
 10
-2.054557469213552
 20
15.82770198505254
 10
-2.054557469213552
 20
15.90379670613453
 10
-1.978462748131568
 20
15.90379670613453
 10
-1.902368027049585
 20
15.90379670613453
 10
-1.826273305967601
 20
15.90379670613453
 10
-1.674083863803634
 20
15.90379670613453
 10
-1.597989142721651
 20
15.90379670613453
 10
-1.521894421639668
 20
15.90379670613453
 10
-1.445799700557684
 20
15.97989142721651
 10
-1.369704979475701
 20
15.97989142721651
 10
-1.293610258393717
 20
15.97989142721651
 10
-1.217515537311734
 20
15.97989142721651
 10
-1.141420816229751
 20
15.97989142721651
 10
-1.065326095147767
 20
16.05598614829849
 10
-0.989231374065784
 20
16.05598614829849
 10
-0.9131366529838006
 20
16.05598614829849
 10
-0.8370419319018172
 20
16.05598614829849
 10
-0.7609472108198339
 20
16.05598614829849
 10
-0.6848524897378505
 20
16.13208086938048
 10
-0.6087577686558671
 20
16.13208086938048
 10
-0.5326630475738837
 20
16.13208086938048
 10
-0.4565683264919003
 20
16.13208086938048
 10
-0.3804736054099169
 20
16.20817559046246
 10
-0.3043788843279335
 20
16.20817559046246
 10
-0.2282841632459502
 20
16.20817559046246
 10
-0.2282841632459502
 20
16.13208086938048
 10
-0.2282841632459502
 20
16.05598614829849
 10
0.1521894421639668
 20
15.90379670613453
 10
0.2282841632459502
 20
15.90379670613453
 10
0.3043788843279335
 20
15.97989142721651
 10
0.4565683264919003
 20
16.05598614829849
 10
0.5326630475738837
 20
16.05598614829849
 10
0.6087577686558671
 20
16.13208086938048
 10
0.6848524897378505
 20
16.13208086938048
 10
0.7609472108198339
 20
16.13208086938048
 10
0.8370419319018172
 20
16.20817559046246
 10
0.9131366529838006
 20
16.20817559046246
 10
0.989231374065784
 20
16.28427031154444
 10
1.065326095147767
 20
16.36036503262643
 10
1.141420816229751
 20
16.36036503262643
 10
1.217515537311734
 20
16.43645975370841
 10
1.293610258393717
 20
16.43645975370841
 10
1.369704979475701
 20
16.43645975370841
 10
1.445799700557684
 20
16.5125544747904
 10
1.521894421639668
 20
16.5125544747904
 10
1.597989142721651
 20
16.5125544747904
 10
1.674083863803634
 20
16.58864919587238
 10
1.750178584885618
 20
16.58864919587238
 10
1.826273305967601
 20
16.58864919587238
 10
1.902368027049585
 20
16.58864919587238
 10
1.978462748131568
 20
16.58864919587238
 10
2.054557469213552
 20
16.5125544747904
 10
2.130652190295535
 20
16.43645975370841
 10
2.130652190295535
 20
16.36036503262643
 10
2.206746911377518
 20
16.36036503262643
 10
2.206746911377518
 20
16.28427031154444
 10
2.282841632459502
 20
16.28427031154444
 10
2.282841632459502
 20
16.20817559046246
 10
2.358936353541485
 20
16.20817559046246
 10
2.435031074623468
 20
16.20817559046246
 10
2.511125795705452
 20
16.20817559046246
 10
2.587220516787435
 20
16.20817559046246
 10
2.663315237869419
 20
16.20817559046246
 10
2.739409958951402
 20
16.20817559046246
 10
2.815504680033385
 20
16.20817559046246
 10
2.891599401115369
 20
16.20817559046246
 10
2.967694122197352
 20
16.20817559046246
 10
3.043788843279335
 20
16.20817559046246
 10
3.119883564361319
 20
16.20817559046246
 10
3.272073006525285
 20
16.28427031154444
 10
3.348167727607269
 20
16.28427031154444
 10
3.424262448689253
 20
16.28427031154444
 10
3.500357169771236
 20
16.28427031154444
 10
3.576451890853219
 20
16.28427031154444
 10
3.652546611935203
 20
16.28427031154444
 10
3.728641333017186
 20
16.28427031154444
 10
3.804736054099169
 20
16.20817559046246
 10
3.880830775181153
 20
16.20817559046246
 10
3.956925496263136
 20
16.13208086938048
 10
4.033020217345119
 20
16.13208086938048
 10
4.109114938427103
 20
16.13208086938048
 10
4.185209659509086
 20
16.13208086938048
 10
4.185209659509086
 20
16.05598614829849
 10
4.185209659509086
 20
15.97989142721651
 10
4.26130438059107
 20
15.97989142721651
 10
4.26130438059107
 20
15.90379670613453
 10
4.337399101673053
 20
15.90379670613453
 10
4.413493822755036
 20
15.90379670613453
 10
4.48958854383702
 20
15.90379670613453
 10
4.565683264919003
 20
15.90379670613453
 10
4.565683264919003
 20
15.82770198505254
 10
4.641777986000987
 20
15.82770198505254
 10
4.71787270708297
 20
15.82770198505254
 10
4.793967428164954
 20
15.82770198505254
 10
4.870062149246936
 20
15.82770198505254
 10
4.870062149246936
 20
15.75160726397056
 10
4.94615687032892
 20
15.75160726397056
 10
5.022251591410903
 20
15.75160726397056
 10
5.098346312492887
 20
15.75160726397056
 10
5.17444103357487
 20
15.75160726397056
 10
5.250535754656854
 20
15.75160726397056
 10
5.326630475738837
 20
15.75160726397056
 10
5.40272519682082
 20
15.75160726397056
 10
5.478819917902804
 20
15.67551254288858
 10
5.554914638984787
 20
15.67551254288858
 10
5.631009360066771
 20
15.67551254288858
 10
5.707104081148754
 20
15.67551254288858
 10
5.783198802230737
 20
15.67551254288858
 10
5.85929352331272
 20
15.67551254288858
 10
5.935388244394704
 20
15.67551254288858
 10
6.011482965476688
 20
15.59941782180659
 10
6.087577686558671
 20
15.59941782180659
 10
6.163672407640655
 20
15.59941782180659
 10
6.239767128722638
 20
15.52332310072461
 10
6.315861849804621
 20
15.52332310072461
 10
6.391956570886604
 20
15.52332310072461
 10
6.468051291968588
 20
15.52332310072461
 10
6.544146013050571
 20
15.52332310072461
 10
6.544146013050571
 20
15.44722837964263
 10
6.620240734132555
 20
15.44722837964263
 10
6.620240734132555
 20
15.37113365856064
 10
6.620240734132555
 20
15.29503893747866
 10
6.620240734132555
 20
15.21894421639668
 10
6.696335455214538
 20
15.21894421639668
 10
6.696335455214538
 20
15.14284949531469
 10
6.772430176296521
 20
15.14284949531469
 10
6.848524897378505
 20
15.06675477423271
 10
6.924619618460488
 20
15.06675477423271
 10
7.000714339542472
 20
15.06675477423271
 10
7.076809060624455
 20
14.99066005315073
 10
7.152903781706438
 20
14.99066005315073
 10
7.228998502788421
 20
14.99066005315073
 10
7.305093223870405
 20
14.99066005315073
 10
7.381187944952388
 20
14.91456533206874
 10
7.457282666034372
 20
14.91456533206874
 10
7.533377387116356
 20
14.83847061098676
 10
7.609472108198339
 20
14.83847061098676
 10
7.685566829280322
 20
14.83847061098676
 10
7.761661550362305
 20
14.76237588990478
 10
7.837756271444289
 20
14.76237588990478
 10
7.913850992526272
 20
14.76237588990478
 10
7.989945713608256
 20
14.76237588990478
 10
8.066040434690239
 20
14.76237588990478
 10
8.142135155772221
 20
14.76237588990478
 10
8.218229876854206
 20
14.68628116882279
 10
8.218229876854206
 20
14.61018644774081
 10
8.142135155772221
 20
14.53409172665883
 10
8.142135155772221
 20
14.45799700557684
 10
8.066040434690239
 20
14.45799700557684
 10
8.066040434690239
 20
14.38190228449486
 10
7.989945713608256
 20
14.38190228449486
 10
8.12168579227591
 20
13.8086527964383
 10
8.12168579227591
 20
13.8086527964383
 10
8.142135155772221
 20
13.39267091042908
 10
8.218229876854206
 20
13.39267091042908
 10
8.294324597936189
 20
13.39267091042908
 10
8.446514040100157
 20
13.39267091042908
 10
8.52260876118214
 20
13.39267091042908
 10
8.598703482264122
 20
13.39267091042908
 10
8.75089292442809
 20
13.39267091042908
 10
8.826987645510073
 20
13.39267091042908
 10
8.903082366592056
 20
13.46876563151106
 10
8.97917708767404
 20
13.46876563151106
 10
9.131366529838006
 20
13.46876563151106
 10
9.207461250919989
 20
13.54486035259304
 10
9.283555972001974
 20
13.54486035259304
 10
9.43574541416594
 20
13.54486035259304
 10
9.511840135247922
 20
13.46876563151106
 10
9.66402957741189
 20
13.46876563151106
 10
9.816219019575858
 20
13.46876563151106
 10
9.968408461739823
 20
13.46876563151106
 10
10.04450318282181
 20
13.46876563151106
 10
10.19669262498577
 20
13.46876563151106
 10
10.27278734606776
 20
13.46876563151106
 10
10.34888206714974
 20
13.39267091042908
 10
10.34888206714974
 20
13.31657618934709
 10
10.34888206714974
 20
13.24048146826511
 10
10.34888206714974
 20
13.16438674718313
 10
10.42497678823172
 20
13.08829202610114
 10
10.50107150931371
 20
13.01219730501916
 10
10.57716623039569
 20
12.93610258393718
 10
10.57716623039569
 20
12.86000786285519
 10
10.57716623039569
 20
12.78391314177321
 10
10.57716623039569
 20
12.70781842069123
 10
10.57716623039569
 20
12.63172369960924
 10
10.57716623039569
 20
12.55562897852726
 10
10.57716623039569
 20
12.47953425744528
 10
10.57716623039569
 20
12.40343953636329
 10
10.65326095147767
 20
12.40343953636329
 10
10.65326095147767
 20
12.32734481528131
 10
10.65326095147767
 20
12.25125009419932
 10
10.72935567255966
 20
12.25125009419932
 10
10.80545039364164
 20
12.17515537311734
 10
10.88154511472362
 20
12.17515537311734
 10
10.95763983580561
 20
12.17515537311734
 10
10.95763983580561
 20
12.09906065203536
 10
11.03373455688759
 20
12.09906065203536
 10
11.10982927796957
 20
12.02296593095338
 10
11.26201872013354
 20
12.02296593095338
 10
11.41420816229751
 20
12.02296593095338
 10
11.49030288337949
 20
11.94687120987139
 10
11.64249232554346
 20
11.94687120987139
 10
11.83740407028747
 20
12.00488726334569
 10
12.02296593095338
 20
11.64249232554346
 10
12.02296593095338
 20
11.56639760446147
 10
11.94687120987139
 20
11.56639760446147
 10
11.94687120987139
 20
11.49030288337949
 10
11.94687120987139
 20
11.41420816229751
 10
11.87077648878941
 20
11.33811344121552
 10
11.87077648878941
 20
11.26201872013354
 10
11.87077648878941
 20
11.18592399905156
 10
11.87077648878941
 20
11.10982927796957
 10
11.87077648878941
 20
11.03373455688759
 10
11.87077648878941
 20
10.95763983580561
 10
11.87077648878941
 20
10.88154511472362
 10
11.87077648878941
 20
10.80545039364164
 10
11.87077648878941
 20
10.72935567255966
 10
11.87077648878941
 20
10.65326095147767
 10
11.94687120987139
 20
10.57716623039569
 10
11.94687120987139
 20
10.50107150931371
 10
12.02296593095338
 20
10.42497678823172
 10
12.02296593095338
 20
10.34888206714974
 10
12.02296593095338
 20
10.27278734606776
 10
12.09906065203536
 20
10.19669262498577
 10
12.17515537311734
 20
10.19669262498577
 10
12.17515537311734
 20
10.12059790390379
 10
12.25125009419932
 20
10.12059790390379
 10
12.32734481528131
 20
10.04450318282181
 10
12.40343953636329
 20
10.04450318282181
 10
12.47953425744528
 20
9.968408461739823
 10
12.55562897852726
 20
9.968408461739823
 10
12.63172369960924
 20
9.892313740657841
 10
12.70781842069123
 20
9.892313740657841
 10
12.78391314177321
 20
9.892313740657841
 10
12.86000786285519
 20
9.816219019575858
 10
12.93610258393718
 20
9.816219019575858
 10
13.01219730501916
 20
9.740124298493873
 10
13.01219730501916
 20
9.66402957741189
 10
13.08829202610114
 20
9.587934856329907
 10
13.16438674718313
 20
9.511840135247922
 10
13.24048146826511
 20
9.511840135247922
 10
13.31657618934709
 20
9.43574541416594
 10
13.39267091042908
 20
9.43574541416594
 10
13.39267091042908
 20
9.359650693083957
 10
13.46876563151106
 20
9.359650693083957
 10
13.46876563151106
 20
9.283555972001974
 10
13.54486035259304
 20
9.207461250919989
 10
13.62095507367503
 20
9.131366529838006
 10
13.69704979475701
 20
9.055271808756023
 10
13.77314451583899
 20
9.055271808756023
 10
13.84923923692098
 20
8.97917708767404
 10
13.84923923692098
 20
8.903082366592056
 10
13.84923923692098
 20
8.826987645510073
 10
13.92533395800296
 20
8.826987645510073
 10
14.00142867908494
 20
8.826987645510073
 10
14.07752340016693
 20
8.75089292442809
 10
14.15361812124891
 20
8.75089292442809
 10
14.22971284233089
 20
8.75089292442809
 10
14.30580756341288
 20
8.674798203346105
 10
14.30580756341288
 20
8.598703482264122
 10
14.22971284233089
 20
8.598703482264122
 10
14.15361812124891
 20
8.598703482264122
 10
14.15361812124891
 20
8.52260876118214
 10
14.07752340016693
 20
8.52260876118214
 10
14.07752340016693
 20
8.446514040100157
 10
14.07752340016693
 20
8.370419319018172
 10
14.00142867908494
 20
8.370419319018172
 10
14.00142867908494
 20
8.294324597936189
 10
13.92533395800296
 20
8.218229876854206
 10
13.84923923692098
 20
8.218229876854206
 10
13.77314451583899
 20
8.142135155772221
 10
13.69704979475701
 20
8.066040434690239
 10
13.62095507367503
 20
8.066040434690239
 10
13.54486035259304
 20
7.989945713608256
 10
13.46876563151106
 20
7.913850992526272
 10
13.375
 20
7.4375
 10
13.375
 20
7.4375
 10
13.375
 20
7.4375
 10
13.69704979475701
 20
7.076809060624455
 10
13.84923923692098
 20
7.076809060624455
 10
13.92533395800296
 20
7.076809060624455
 10
14.07752340016693
 20
7.000714339542472
 10
14.22971284233089
 20
7.000714339542472
 10
14.38190228449486
 20
6.924619618460488
 10
14.53409172665883
 20
6.924619618460488
 10
14.68628116882279
 20
6.848524897378505
 10
14.76237588990478
 20
6.848524897378505
 10
14.91456533206874
 20
6.772430176296521
 10
14.99066005315073
 20
6.772430176296521
 10
14.99066005315073
 20
6.696335455214538
 10
15.06675477423271
 20
6.696335455214538
 10
15.06675477423271
 20
6.620240734132555
 10
14.99066005315073
 20
6.620240734132555
 10
14.99066005315073
 20
6.544146013050571
 10
14.99066005315073
 20
6.468051291968588
 10
15.06675477423271
 20
6.391956570886604
 10
15.06675477423271
 20
6.315861849804621
 10
15.14284949531469
 20
6.315861849804621
 10
15.21894421639668
 20
6.239767128722638
 10
15.29503893747866
 20
6.163672407640655
 10
15.29503893747866
 20
6.087577686558671
 10
15.37113365856064
 20
6.087577686558671
 10
15.37113365856064
 20
6.011482965476688
 10
15.44722837964263
 20
5.935388244394704
 10
15.44722837964263
 20
5.85929352331272
 10
15.52332310072461
 20
5.783198802230737
 10
15.52332310072461
 20
5.707104081148754
 10
15.59941782180659
 20
5.631009360066771
 10
15.67551254288858
 20
5.554914638984787
 10
15.67551254288858
 20
5.478819917902804
 10
15.75160726397056
 20
5.40272519682082
 10
15.75160726397056
 20
5.326630475738837
 10
15.75160726397056
 20
5.250535754656854
 10
15.75160726397056
 20
5.17444103357487
 10
15.82770198505254
 20
5.17444103357487
 10
15.90379670613453
 20
5.17444103357487
 10
15.90379670613453
 20
5.098346312492887
 10
15.97989142721651
 20
5.098346312492887
 10
16.05598614829849
 20
5.022251591410903
 10
16.13208086938048
 20
5.022251591410903
 10
16.20817559046246
 20
4.94615687032892
 10
16.28427031154444
 20
4.94615687032892
 10
16.36036503262643
 20
4.870062149246936
 10
16.36036503262643
 20
4.793967428164954
 10
16.36036503262643
 20
4.71787270708297
 10
16.28427031154444
 20
4.71787270708297
 10
16.28427031154444
 20
4.641777986000987
 10
16.20817559046246
 20
4.565683264919003
 10
16.05598614829849
 20
4.48958854383702
 10
15.97989142721651
 20
4.48958854383702
 10
15.82770198505254
 20
4.413493822755036
 10
15.75160726397056
 20
4.413493822755036
 10
15.67551254288858
 20
4.337399101673053
 10
15.59941782180659
 20
4.337399101673053
 10
15.52332310072461
 20
4.337399101673053
 10
15.44722837964263
 20
4.26130438059107
 10
15.37113365856064
 20
4.185209659509086
 10
15.29503893747866
 20
4.185209659509086
 10
15.29503893747866
 20
4.109114938427103
 10
15.21894421639668
 20
4.109114938427103
 10
15.21894421639668
 20
4.033020217345119
 10
15.14284949531469
 20
4.033020217345119
 10
15.14284949531469
 20
3.956925496263136
 10
15.06675477423271
 20
3.956925496263136
 10
15.06675477423271
 20
3.880830775181153
 10
14.99066005315073
 20
3.880830775181153
 10
14.99066005315073
 20
3.804736054099169
 10
14.99066005315073
 20
3.728641333017186
 10
14.91456533206874
 20
3.728641333017186
 10
14.91456533206874
 20
3.652546611935203
 10
14.91456533206874
 20
3.576451890853219
 10
14.83847061098676
 20
3.576451890853219
 10
14.83847061098676
 20
3.500357169771236
 10
14.83847061098676
 20
3.424262448689253
 10
14.83847061098676
 20
3.348167727607269
 10
14.91456533206874
 20
3.348167727607269
 10
14.91456533206874
 20
3.272073006525285
 10
14.91456533206874
 20
3.195978285443302
 10
14.99066005315073
 20
3.195978285443302
 10
15.06675477423271
 20
3.119883564361319
 10
15.14284949531469
 20
3.043788843279335
 10
15.21894421639668
 20
3.043788843279335
 10
15.21894421639668
 20
2.967694122197352
 10
15.29503893747866
 20
2.967694122197352
 10
15.37113365856064
 20
2.891599401115369
 10
15.44722837964263
 20
2.891599401115369
 10
15.44722837964263
 20
2.815504680033385
 10
15.52332310072461
 20
2.815504680033385
 10
15.59941782180659
 20
2.739409958951402
 10
15.67551254288858
 20
2.739409958951402
 10
15.67551254288858
 20
2.663315237869419
 10
15.75160726397056
 20
2.587220516787435
 10
15.75160726397056
 20
2.511125795705452
 10
15.75160726397056
 20
2.435031074623468
 10
15.75160726397056
 20
2.358936353541485
 10
15.82770198505254
 20
2.282841632459502
 10
15.90379670613453
 20
2.206746911377518
 10
15.90379670613453
 20
2.130652190295535
 10
15.90379670613453
 20
2.054557469213552
 10
15.90379670613453
 20
1.978462748131568
 10
15.82770198505254
 20
1.902368027049585
 10
15.82770198505254
 20
1.826273305967601
 10
15.82770198505254
 20
1.750178584885618
 10
15.82770198505254
 20
1.674083863803634
 10
15.90379670613453
 20
1.597989142721651
 10
15.90379670613453
 20
1.521894421639668
 10
15.97989142721651
 20
1.445799700557684
 10
15.97989142721651
 20
1.369704979475701
 10
15.90379670613453
 20
1.293610258393717
 10
15.90379670613453
 20
1.217515537311734
 10
15.90379670613453
 20
1.141420816229751
 10
15.97989142721651
 20
1.065326095147767
 10
15.97989142721651
 20
0.989231374065784
 10
16.05598614829849
 20
0.9131366529838006
 10
16.13208086938048
 20
0.8370419319018172
 10
16.13208086938048
 20
0.7609472108198339
 10
16.13208086938048
 20
0.6848524897378505
 10
16.13208086938048
 20
0.6087577686558671
 10
16.13208086938048
 20
0.5326630475738837
 10
16.13208086938048
 20
0.4565683264919003
 10
16.20817559046246
 20
0.4565683264919003
 10
16.20817559046246
 20
0.3804736054099169
 10
16.20817559046246
 20
0.3043788843279335
 10
16.28427031154444
 20
0.2282841632459502
 10
16.36036503262643
 20
0.1521894421639668
 10
16.43645975370841
 20
0.07609472108198338
 10
16.5125544747904
 20
0.07609472108198338
 10
16.5125544747904
 20
-0.07609472108198338
 10
16.43645975370841
 20
-0.07609472108198338
 10
16.36036503262643
 20
-0.1521894421639668
 10
16.36036503262643
 20
-0.2282841632459502
 10
16.36036503262643
 20
-0.3043788843279335
 10
16.36036503262643
 20
-0.3804736054099169
 10
16.43645975370841
 20
-0.3804736054099169
 10
16.43645975370841
 20
-0.4565683264919003
 10
16.5125544747904
 20
-0.5326630475738837
 10
16.43645975370841
 20
-0.5326630475738837
 10
16.43645975370841
 20
-0.6087577686558671
 10
16.43645975370841
 20
-0.6848524897378505
 10
16.36036503262643
 20
-0.6848524897378505
 10
16.36036503262643
 20
-0.7609472108198339
 10
16.43645975370841
 20
-0.9131366529838006
 10
16.36036503262643
 20
-0.989231374065784
 10
16.36036503262643
 20
-1.065326095147767
 10
16.36036503262643
 20
-1.217515537311734
 10
16.28427031154444
 20
-1.217515537311734
 10
16.28427031154444
 20
-1.293610258393717
 10
16.28427031154444
 20
-1.369704979475701
 10
16.28427031154444
 20
-1.445799700557684
 10
16.28427031154444
 20
-1.521894421639668
 10
16.28427031154444
 20
-1.597989142721651
 10
16.20817559046246
 20
-1.674083863803634
 10
16.20817559046246
 20
-1.750178584885618
 10
16.13208086938048
 20
-1.826273305967601
 10
16.13208086938048
 20
-1.902368027049585
 10
16.13208086938048
 20
-1.978462748131568
 10
16.13208086938048
 20
-2.054557469213552
 10
16.13208086938048
 20
-2.130652190295535
 10
16.13208086938048
 20
-2.206746911377518
 10
16.13208086938048
 20
-2.282841632459502
 10
16.20817559046246
 20
-2.358936353541485
 10
16.20817559046246
 20
-2.435031074623468
 10
16.28427031154444
 20
-2.511125795705452
 10
16.28427031154444
 20
-2.587220516787435
 10
16.36036503262643
 20
-2.663315237869419
 10
16.43645975370841
 20
-2.739409958951402
 10
16.43645975370841
 20
-2.815504680033385
 10
16.43645975370841
 20
-2.891599401115369
 10
16.43645975370841
 20
-2.967694122197352
 10
16.5125544747904
 20
-2.967694122197352
 10
16.5125544747904
 20
-3.043788843279335
 10
16.5125544747904
 20
-3.119883564361319
 10
16.58864919587238
 20
-3.195978285443302
 10
16.58864919587238
 20
-3.272073006525285
 10
16.66474391695436
 20
-3.272073006525285
 10
16.66474391695436
 20
-3.348167727607269
 10
16.66474391695436
 20
-3.424262448689253
 10
16.66474391695436
 20
-3.500357169771236
 10
16.66474391695436
 20
-3.576451890853219
 10
16.66474391695436
 20
-3.652546611935203
 10
16.58864919587238
 20
-3.652546611935203
 10
16.58864919587238
 20
-3.728641333017186
 10
16.5125544747904
 20
-3.728641333017186
 10
16.43645975370841
 20
-3.804736054099169
 10
16.36036503262643
 20
-3.880830775181153
 10
16.36036503262643
 20
-3.956925496263136
 10
16.28427031154444
 20
-4.033020217345119
 10
16.28427031154444
 20
-4.109114938427103
 10
16.20817559046246
 20
-4.109114938427103
 10
16.13208086938048
 20
-4.185209659509086
 10
16.05598614829849
 20
-4.26130438059107
 10
15.97989142721651
 20
-4.26130438059107
 10
15.97989142721651
 20
-4.337399101673053
 10
15.97989142721651
 20
-4.413493822755036
 10
15.97989142721651
 20
-4.48958854383702
 10
15.97989142721651
 20
-4.565683264919003
 10
15.97989142721651
 20
-4.641777986000987
 10
15.97989142721651
 20
-4.71787270708297
 10
15.90379670613453
 20
-4.71787270708297
 10
15.90379670613453
 20
-4.793967428164954
 10
15.82770198505254
 20
-4.870062149246936
 10
15.75160726397056
 20
-4.870062149246936
 10
15.75160726397056
 20
-4.94615687032892
 10
15.67551254288858
 20
-5.022251591410903
 10
15.59941782180659
 20
-5.098346312492887
 10
15.59941782180659
 20
-5.17444103357487
 10
15.59941782180659
 20
-5.250535754656854
 10
15.59941782180659
 20
-5.326630475738837
 10
15.52332310072461
 20
-5.40272519682082
 10
15.52332310072461
 20
-5.478819917902804
 10
15.44722837964263
 20
-5.554914638984787
 10
15.37113365856064
 20
-5.631009360066771
 10
15.29503893747866
 20
-5.631009360066771
 10
15.29503893747866
 20
-5.707104081148754
 10
15.21894421639668
 20
-5.707104081148754
 10
15.21894421639668
 20
-5.783198802230737
 10
15.14284949531469
 20
-5.85929352331272
 10
15.14284949531469
 20
-5.935388244394704
 10
15.06675477423271
 20
-5.935388244394704
 10
15.06675477423271
 20
-6.011482965476688
 10
15.06675477423271
 20
-6.087577686558671
 10
15.06675477423271
 20
-6.163672407640655
 10
14.99066005315073
 20
-6.163672407640655
 10
14.99066005315073
 20
-6.239767128722638
 10
14.99066005315073
 20
-6.315861849804621
 10
14.99066005315073
 20
-6.391956570886604
 10
14.99066005315073
 20
-6.468051291968588
 10
15.06675477423271
 20
-6.468051291968588
 10
15.06675477423271
 20
-6.544146013050571
 10
15.06675477423271
 20
-6.620240734132555
 10
15.14284949531469
 20
-6.620240734132555
 10
15.14284949531469
 20
-6.696335455214538
 10
15.14284949531469
 20
-6.772430176296521
 10
15.21894421639668
 20
-6.848524897378505
 10
15.21894421639668
 20
-6.924619618460488
 10
15.29503893747866
 20
-7.000714339542472
 10
15.29503893747866
 20
-7.076809060624455
 10
15.37113365856064
 20
-7.152903781706438
 10
15.37113365856064
 20
-7.228998502788421
 10
15.29503893747866
 20
-7.305093223870405
 10
15.29503893747866
 20
-7.381187944952388
 10
15.21894421639668
 20
-7.457282666034372
 10
15.14284949531469
 20
-7.533377387116356
 10
15.14284949531469
 20
-7.609472108198339
 10
15.06675477423271
 20
-7.609472108198339
 10
15.06675477423271
 20
-7.685566829280322
 10
15.06675477423271
 20
-7.761661550362305
 10
15.06675477423271
 20
-7.837756271444289
 10
14.99066005315073
 20
-7.837756271444289
 10
14.99066005315073
 20
-7.913850992526272
 10
14.99066005315073
 20
-7.989945713608256
 10
14.91456533206874
 20
-7.989945713608256
 10
14.91456533206874
 20
-8.066040434690239
 10
14.83847061098676
 20
-8.066040434690239
 10
14.83847061098676
 20
-8.142135155772221
 10
14.76237588990478
 20
-8.218229876854206
 10
14.68628116882279
 20
-8.218229876854206
 10
14.68628116882279
 20
-8.294324597936189
 10
14.61018644774081
 20
-8.294324597936189
 10
14.53409172665883
 20
-8.294324597936189
 10
14.53409172665883
 20
-8.370419319018172
 10
14.45799700557684
 20
-8.370419319018172
 10
14.38190228449486
 20
-8.370419319018172
 10
14.30580756341288
 20
-8.370419319018172
 10
14.22971284233089
 20
-8.370419319018172
 10
14.15361812124891
 20
-8.370419319018172
 10
14.07752340016693
 20
-8.370419319018172
 10
13.92533395800296
 20
-8.370419319018172
 10
13.84923923692098
 20
-8.446514040100157
 10
13.77314451583899
 20
-8.446514040100157
 10
13.69704979475701
 20
-8.446514040100157
 10
13.69704979475701
 20
-8.52260876118214
 10
13.62095507367503
 20
-8.52260876118214
 10
13.62095507367503
 20
-8.598703482264122
 10
13.54486035259304
 20
-8.598703482264122
 10
13.54486035259304
 20
-8.674798203346105
 10
13.54486035259304
 20
-8.75089292442809
 10
13.46876563151106
 20
-8.75089292442809
 10
13.46876563151106
 20
-8.826987645510073
 10
13.39267091042908
 20
-8.826987645510073
 10
13.31657618934709
 20
-8.903082366592056
 10
13.24048146826511
 20
-8.903082366592056
 10
13.24048146826511
 20
-8.97917708767404
 10
13.16438674718313
 20
-8.97917708767404
 10
13.16438674718313
 20
-9.055271808756023
 10
13.16438674718313
 20
-9.131366529838006
 10
13.08829202610114
 20
-9.207461250919989
 10
13.01219730501916
 20
-9.283555972001974
 10
13.01219730501916
 20
-9.359650693083957
 10
12.93610258393718
 20
-9.359650693083957
 10
12.93610258393718
 20
-9.43574541416594
 10
12.93610258393718
 20
-9.511840135247922
 10
13.01219730501916
 20
-9.511840135247922
 10
13.01219730501916
 20
-9.587934856329907
 10
13.01219730501916
 20
-9.66402957741189
 10
13.01219730501916
 20
-9.740124298493873
 10
13.08829202610114
 20
-9.740124298493873
 10
13.08829202610114
 20
-9.816219019575858
 10
13.01219730501916
 20
-9.892313740657841
 10
13.01219730501916
 20
-9.968408461739823
 10
13.01219730501916
 20
-10.04450318282181
 10
13.01219730501916
 20
-10.12059790390379
 10
12.93610258393718
 20
-10.19669262498577
 10
12.86000786285519
 20
-10.27278734606776
 10
12.78391314177321
 20
-10.34888206714974
 10
12.70781842069123
 20
-10.42497678823172
 10
12.63172369960924
 20
-10.50107150931371
 10
12.55562897852726
 20
-10.50107150931371
 10
12.55562897852726
 20
-10.57716623039569
 10
12.55562897852726
 20
-10.65326095147767
 10
12.47953425744528
 20
-10.65326095147767
 10
12.47953425744528
 20
-10.72935567255966
 10
12.40343953636329
 20
-10.72935567255966
 10
12.40343953636329
 20
-10.80545039364164
 10
12.32734481528131
 20
-10.80545039364164
 10
12.32734481528131
 20
-10.88154511472362
 10
12.25125009419932
 20
-10.88154511472362
 10
12.25125009419932
 20
-10.95763983580561
 10
12.17515537311734
 20
-10.95763983580561
 10
12.17515537311734
 20
-11.03373455688759
 10
12.17515537311734
 20
-11.10982927796957
 10
12.09906065203536
 20
-11.10982927796957
 10
12.09906065203536
 20
-11.18592399905156
 10
12.02296593095338
 20
-11.26201872013354
 10
11.94687120987139
 20
-11.33811344121552
 10
11.87077648878941
 20
-11.33811344121552
 10
11.87077648878941
 20
-11.41420816229751
 10
11.79468176770743
 20
-11.41420816229751
 10
11.79468176770743
 20
-11.49030288337949
 10
11.79468176770743
 20
-11.56639760446147
 10
11.71858704662544
 20
-11.56639760446147
 10
11.71858704662544
 20
-11.64249232554346
 10
11.71858704662544
 20
-11.71858704662544
 10
11.71858704662544
 20
-11.79468176770743
 10
11.64249232554346
 20
-11.87077648878941
 10
11.56639760446147
 20
-11.94687120987139
 10
11.56639760446147
 20
-12.02296593095338
 10
11.56639760446147
 20
-12.09906065203536
 10
11.56639760446147
 20
-12.17515537311734
 10
11.49030288337949
 20
-12.17515537311734
 10
11.49030288337949
 20
-12.25125009419932
 10
11.49030288337949
 20
-12.32734481528131
 10
11.49030288337949
 20
-12.40343953636329
 10
11.41420816229751
 20
-12.40343953636329
 10
11.41420816229751
 20
-12.47953425744528
 10
11.33811344121552
 20
-12.47953425744528
 10
11.26201872013354
 20
-12.47953425744528
 10
11.18592399905156
 20
-12.55562897852726
 10
11.10982927796957
 20
-12.63172369960924
 10
11.03373455688759
 20
-12.63172369960924
 10
10.95763983580561
 20
-12.70781842069123
 10
10.88154511472362
 20
-12.70781842069123
 10
10.88154511472362
 20
-12.78391314177321
 10
10.80545039364164
 20
-12.78391314177321
 10
10.72935567255966
 20
-12.86000786285519
 10
10.65326095147767
 20
-12.86000786285519
 10
10.57716623039569
 20
-12.93610258393718
 10
10.50107150931371
 20
-12.93610258393718
 10
10.42497678823172
 20
-13.01219730501916
 10
10.34888206714974
 20
-13.01219730501916
 10
10.34888206714974
 20
-13.08829202610114
 10
10.27278734606776
 20
-13.08829202610114
 10
10.27278734606776
 20
-13.16438674718313
 10
10.19669262498577
 20
-13.16438674718313
 10
10.19669262498577
 20
-13.24048146826511
 10
10.12059790390379
 20
-13.24048146826511
 10
10.04450318282181
 20
-13.31657618934709
 10
9.968408461739823
 20
-13.31657618934709
 10
9.892313740657841
 20
-13.39267091042908
 10
9.816219019575858
 20
-13.39267091042908
 10
9.816219019575858
 20
-13.46876563151106
 10
9.740124298493873
 20
-13.46876563151106
 10
9.66402957741189
 20
-13.46876563151106
 10
9.587934856329907
 20
-13.54486035259304
 10
9.511840135247922
 20
-13.54486035259304
 10
9.43574541416594
 20
-13.62095507367503
 10
9.359650693083957
 20
-13.62095507367503
 10
9.283555972001974
 20
-13.69704979475701
 10
9.207461250919989
 20
-13.69704979475701
 10
9.131366529838006
 20
-13.77314451583899
 10
9.055271808756023
 20
-13.77314451583899
 10
8.97917708767404
 20
-13.77314451583899
 10
8.903082366592056
 20
-13.84923923692098
 10
8.826987645510073
 20
-13.84923923692098
 10
8.75089292442809
 20
-13.84923923692098
 10
8.674798203346105
 20
-13.84923923692098
 10
8.598703482264122
 20
-13.84923923692098
 10
8.52260876118214
 20
-13.84923923692098
 10
8.52260876118214
 20
-13.77314451583899
 10
8.446514040100157
 20
-13.77314451583899
 10
8.370419319018172
 20
-13.77314451583899
 10
8.294324597936189
 20
-13.77314451583899
 10
8.218229876854206
 20
-13.77314451583899
 10
8.142135155772221
 20
-13.77314451583899
 10
8.066040434690239
 20
-13.77314451583899
 10
7.989945713608256
 20
-13.84923923692098
 10
7.913850992526272
 20
-13.84923923692098
 10
7.837756271444289
 20
-13.84923923692098
 10
7.761661550362305
 20
-13.84923923692098
 10
7.609472108198339
 20
-13.92533395800296
 10
7.533377387116356
 20
-13.92533395800296
 10
7.457282666034372
 20
-13.92533395800296
 10
7.381187944952388
 20
-13.92533395800296
 10
7.305093223870405
 20
-14.00142867908494
 10
7.228998502788421
 20
-14.00142867908494
 10
7.152903781706438
 20
-14.00142867908494
 10
7.076809060624455
 20
-14.00142867908494
 10
7.000714339542472
 20
-14.07752340016693
 10
6.924619618460488
 20
-14.07752340016693
 10
6.848524897378505
 20
-14.07752340016693
 10
6.772430176296521
 20
-14.15361812124891
 10
6.696335455214538
 20
-14.15361812124891
 10
6.696335455214538
 20
-14.22971284233089
 10
6.620240734132555
 20
-14.22971284233089
 10
6.620240734132555
 20
-14.30580756341288
 10
6.544146013050571
 20
-14.30580756341288
 10
6.544146013050571
 20
-14.38190228449486
 10
6.468051291968588
 20
-14.38190228449486
 10
6.468051291968588
 20
-14.45799700557684
 10
6.468051291968588
 20
-14.53409172665883
 10
6.391956570886604
 20
-14.53409172665883
 10
6.391956570886604
 20
-14.61018644774081
 10
6.315861849804621
 20
-14.61018644774081
 10
6.315861849804621
 20
-14.68628116882279
 10
6.239767128722638
 20
-14.68628116882279
 10
6.163672407640655
 20
-14.76237588990478
 10
6.087577686558671
 20
-14.83847061098676
 10
6.011482965476688
 20
-14.83847061098676
 10
5.935388244394704
 20
-14.83847061098676
 10
5.935388244394704
 20
-14.91456533206874
 10
5.85929352331272
 20
-14.91456533206874
 10
5.783198802230737
 20
-14.99066005315073
 10
5.707104081148754
 20
-14.99066005315073
 10
5.707104081148754
 20
-15.06675477423271
 10
5.631009360066771
 20
-15.06675477423271
 10
5.554914638984787
 20
-15.14284949531469
 10
5.478819917902804
 20
-15.14284949531469
 10
5.478819917902804
 20
-15.21894421639668
 10
5.40272519682082
 20
-15.21894421639668
 10
5.326630475738837
 20
-15.21894421639668
 10
5.326630475738837
 20
-15.29503893747866
 10
5.250535754656854
 20
-15.29503893747866
 10
5.17444103357487
 20
-15.37113365856064
 10
5.098346312492887
 20
-15.37113365856064
 10
5.098346312492887
 20
-15.44722837964263
 10
5.022251591410903
 20
-15.44722837964263
 10
5.022251591410903
 20
-15.52332310072461
 10
4.94615687032892
 20
-15.52332310072461
 10
4.94615687032892
 20
-15.59941782180659
 10
4.870062149246936
 20
-15.59941782180659
 10
4.870062149246936
 20
-15.67551254288858
 10
4.793967428164954
 20
-15.67551254288858
 10
4.793967428164954
 20
-15.75160726397056
 10
4.71787270708297
 20
-15.82770198505254
 10
4.71787270708297
 20
-15.90379670613453
 10
4.641777986000987
 20
-15.97989142721651
 10
4.565683264919003
 20
-16.05598614829849
 10
4.48958854383702
 20
-16.05598614829849
 10
4.48958854383702
 20
-16.13208086938048
 10
4.413493822755036
 20
-16.13208086938048
 10
4.337399101673053
 20
-16.13208086938048
 10
4.337399101673053
 20
-16.20817559046246
 10
4.26130438059107
 20
-16.20817559046246
 10
4.185209659509086
 20
-16.20817559046246
 10
4.185209659509086
 20
-16.28427031154444
 10
4.109114938427103
 20
-16.28427031154444
 10
4.033020217345119
 20
-16.28427031154444
 10
3.956925496263136
 20
-16.28427031154444
 10
3.880830775181153
 20
-16.28427031154444
 10
3.804736054099169
 20
-16.36036503262643
 10
3.728641333017186
 20
-16.36036503262643
 10
3.652546611935203
 20
-16.36036503262643
 10
3.500357169771236
 20
-16.36036503262643
 10
3.424262448689253
 20
-16.43645975370841
 10
3.348167727607269
 20
-16.43645975370841
 10
3.272073006525285
 20
-16.43645975370841
 10
3.195978285443302
 20
-16.43645975370841
 10
3.119883564361319
 20
-16.5125544747904
 10
3.043788843279335
 20
-16.5125544747904
 10
2.967694122197352
 20
-16.5125544747904
 10
2.891599401115369
 20
-16.5125544747904
 10
2.815504680033385
 20
-16.5125544747904
 10
2.815504680033385
 20
-16.58864919587238
 10
2.739409958951402
 20
-16.58864919587238
 10
2.663315237869419
 20
-16.58864919587238
 10
2.587220516787435
 20
-16.58864919587238
 10
2.511125795705452
 20
-16.58864919587238
 10
2.435031074623468
 20
-16.58864919587238
 10
2.435031074623468
 20
-16.66474391695436
 10
2.358936353541485
 20
-16.66474391695436
 10
2.282841632459502
 20
-16.66474391695436
 10
2.206746911377518
 20
-16.66474391695436
 10
2.130652190295535
 20
-16.66474391695436
 10
2.054557469213552
 20
-16.66474391695436
 10
1.978462748131568
 20
-16.74083863803634
 10
1.902368027049585
 20
-16.74083863803634
 10
1.826273305967601
 20
-16.74083863803634
 10
1.750178584885618
 20
-16.74083863803634
 10
1.674083863803634
 20
-16.81693335911833
 10
1.597989142721651
 20
-16.81693335911833
 10
1.521894421639668
 20
-16.81693335911833
 10
1.445799700557684
 20
-16.81693335911833
 10
1.369704979475701
 20
-16.81693335911833
 10
1.369704979475701
 20
-16.89302808020031
 10
1.293610258393717
 20
-16.89302808020031
 10
1.217515537311734
 20
-16.89302808020031
 10
1.141420816229751
 20
-16.89302808020031
 10
1.065326095147767
 20
-16.89302808020031
 10
0.989231374065784
 20
-16.9691228012823
 10
0.9131366529838006
 20
-16.9691228012823
 10
0.9131366529838006
 20
-16.89302808020031
 10
0.9131366529838006
 20
-16.81693335911833
 10
0.8370419319018172
 20
-16.81693335911833
 10
0.8370419319018172
 20
-16.74083863803634
 10
0.8370419319018172
 20
-16.66474391695436
 10
0.7609472108198339
 20
-16.66474391695436
 10
0.6848524897378505
 20
-16.66474391695436
 10
0.6087577686558671
 20
-16.66474391695436
 10
0.5326630475738837
 20
-16.58864919587238
 10
0.4565683264919003
 20
-16.58864919587238
 10
0.3804736054099169
 20
-16.58864919587238
 10
0.3043788843279335
 20
-16.58864919587238
 10
0.2282841632459502
 20
-16.58864919587238
 10
0.1521894421639668
 20
-16.58864919587238
 10
0.07609472108198338
 20
-16.58864919587238
 10
0
 20
-16.58864919587238
 10
-0.07609472108198338
 20
-16.58864919587238
 10
-0.07609472108198338
 20
-16.5125544747904
 10
-0.1521894421639668
 20
-16.5125544747904
 10
-0.2282841632459502
 20
-16.5125544747904
 10
-0.3043788843279335
 20
-16.5125544747904
 10
-0.3804736054099169
 20
-16.43645975370841
 10
-0.4565683264919003
 20
-16.43645975370841
 10
-0.5326630475738837
 20
-16.36036503262643
 10
-0.5326630475738837
 20
-16.28427031154444
 10
-0.5326630475738837
 20
-16.20817559046246
 10
-0.5326630475738837
 20
-16.13208086938048
 10
-0.6087577686558671
 20
-16.13208086938048
 10
-0.6848524897378505
 20
-16.13208086938048
 10
-0.7609472108198339
 20
-16.13208086938048
 10
-0.8370419319018172
 20
-16.20817559046246
 10
-0.9131366529838006
 20
-16.20817559046246
 10
-0.989231374065784
 20
-16.20817559046246
 10
-1.065326095147767
 20
-16.20817559046246
 10
-1.217515537311734
 20
-16.28427031154444
 10
-1.293610258393717
 20
-16.28427031154444
 10
-1.445799700557684
 20
-16.36036503262643
 10
-1.521894421639668
 20
-16.36036503262643
 10
-1.674083863803634
 20
-16.36036503262643
 10
-1.750178584885618
 20
-16.43645975370841
 10
-1.902368027049585
 20
-16.43645975370841
 10
-1.978462748131568
 20
-16.5125544747904
 10
-2.054557469213552
 20
-16.5125544747904
 10
-2.130652190295535
 20
-16.58864919587238
 10
-2.206746911377518
 20
-16.58864919587238
 10
-2.282841632459502
 20
-16.58864919587238
 10
-2.282841632459502
 20
-16.66474391695436
 10
-2.358936353541485
 20
-16.66474391695436
 10
-2.435031074623468
 20
-16.66474391695436
 10
-2.435031074623468
 20
-16.74083863803634
 10
-2.511125795705452
 20
-16.74083863803634
 10
-2.587220516787435
 20
-16.74083863803634
 10
-2.663315237869419
 20
-16.74083863803634
 10
-2.663315237869419
 20
-16.81693335911833
 10
-2.739409958951402
 20
-16.81693335911833
 10
-2.815504680033385
 20
-16.81693335911833
 10
-2.891599401115369
 20
-16.81693335911833
 10
-2.967694122197352
 20
-16.81693335911833
 10
-3.043788843279335
 20
-16.81693335911833
 10
-3.119883564361319
 20
-16.89302808020031
 10
-3.195978285443302
 20
-16.89302808020031
 10
-3.195978285443302
 20
-16.81693335911833
 10
-3.272073006525285
 20
-16.81693335911833
 10
-3.348167727607269
 20
-16.81693335911833
 10
-3.424262448689253
 20
-16.81693335911833
 10
-3.500357169771236
 20
-16.74083863803634
 10
-3.576451890853219
 20
-16.74083863803634
 10
-3.576451890853219
 20
-16.66474391695436
 10
-3.652546611935203
 20
-16.66474391695436
 10
-3.652546611935203
 20
-16.58864919587238
 10
-3.728641333017186
 20
-16.58864919587238
 10
-3.728641333017186
 20
-16.5125544747904
 10
-3.804736054099169
 20
-16.5125544747904
 10
-3.804736054099169
 20
-16.43645975370841
 10
-3.880830775181153
 20
-16.43645975370841
 10
-3.956925496263136
 20
-16.36036503262643
 10
-4.033020217345119
 20
-16.28427031154444
 10
-4.185209659509086
 20
-16.28427031154444
 10
-4.26130438059107
 20
-16.28427031154444
 10
-4.413493822755036
 20
-16.20817559046246
 10
-4.48958854383702
 20
-16.20817559046246
 10
-4.565683264919003
 20
-16.20817559046246
 10
-4.71787270708297
 20
-16.13208086938048
 10
-4.793967428164954
 20
-16.13208086938048
 10
-4.94615687032892
 20
-16.05598614829849
 10
-5.098346312492887
 20
-16.05598614829849
 10
-5.250535754656854
 20
-16.05598614829849
 10
-5.478819917902804
 20
-16.05598614829849
 10
-5.707104081148754
 20
-15.97989142721651
 10
-5.85929352331272
 20
-15.97989142721651
 10
-6.087577686558671
 20
-15.97989142721651
 10
-6.315861849804621
 20
-15.90379670613453
 10
-6.468051291968588
 20
-15.90379670613453
 10
-6.544146013050571
 20
-15.90379670613453
 10
-6.696335455214538
 20
-15.90379670613453
 10
-6.772430176296521
 20
-15.90379670613453
 10
-6.848524897378505
 20
-15.82770198505254
 10
-6.924619618460488
 20
-15.82770198505254
 10
-7.000714339542472
 20
-15.82770198505254
 10
-7.076809060624455
 20
-15.82770198505254
 10
-7.152903781706438
 20
-15.82770198505254
 10
-7.228998502788421
 20
-15.82770198505254
 10
-7.305093223870405
 20
-15.75160726397056
 10
-7.381187944952388
 20
-15.75160726397056
 10
-7.457282666034372
 20
-15.75160726397056
 10
-7.533377387116356
 20
-15.75160726397056
 10
-7.609472108198339
 20
-15.75160726397056
 10
-7.685566829280322
 20
-15.67551254288858
 10
-7.761661550362305
 20
-15.67551254288858
 10
-7.837756271444289
 20
-15.67551254288858
 10
-7.913850992526272
 20
-15.59941782180659
 10
-7.989945713608256
 20
-15.59941782180659
 10
-8.066040434690239
 20
-15.52332310072461
 10
-8.142135155772221
 20
-15.52332310072461
 10
-8.218229876854206
 20
-15.52332310072461
 10
-8.294324597936189
 20
-15.52332310072461
 10
-8.370419319018172
 20
-15.52332310072461
 10
-8.370419319018172
 20
-15.44722837964263
 10
-8.446514040100157
 20
-15.37113365856064
 10
-8.446514040100157
 20
-15.29503893747866
 10
-8.370419319018172
 20
-15.29503893747866
 10
-8.370419319018172
 20
-15.21894421639668
 10
-8.370419319018172
 20
-15.14284949531469
 10
-8.370419319018172
 20
-15.06675477423271
 10
-8.294324597936189
 20
-15.06675477423271
 10
-8.294324597936189
 20
-14.99066005315073
 10
-8.294324597936189
 20
-14.91456533206874
 10
-8.294324597936189
 20
-14.83847061098676
 10
-8.294324597936189
 20
-14.76237588990478
 10
-8.218229876854206
 20
-14.76237588990478
 10
-8.218229876854206
 20
-14.68628116882279
 10
-8.218229876854206
 20
-14.61018644774081
 10
-8.218229876854206
 20
-14.53409172665883
 10
-8.294324597936189
 20
-14.53409172665883
 10
-8.218229876854206
 20
-14.45799700557684
 10
-8.218229876854206
 20
-14.38190228449486
 10
-8.294324597936189
 20
-14.30580756341288
 10
-8.370419319018172
 20
-14.30580756341288
 10
-8.370419319018172
 20
-14.22971284233089
 10
-8.446514040100157
 20
-14.22971284233089
 10
-8.52260876118214
 20
-14.22971284233089
 10
-8.598703482264122
 20
-14.22971284233089
 10
-8.598703482264122
 20
-14.15361812124891
 10
-8.674798203346105
 20
-14.15361812124891
 10
-8.75089292442809
 20
-14.15361812124891
 10
-8.826987645510073
 20
-14.15361812124891
 10
-8.903082366592056
 20
-14.15361812124891
 10
-8.97917708767404
 20
-14.15361812124891
 10
-9.055271808756023
 20
-14.15361812124891
 10
-9.131366529838006
 20
-14.07752340016693
 10
-9.207461250919989
 20
-14.07752340016693
 10
-9.283555972001974
 20
-14.07752340016693
 10
-9.43574541416594
 20
-14.07752340016693
 10
-9.511840135247922
 20
-14.07752340016693
 10
-9.587934856329907
 20
-14.07752340016693
 10
-9.66402957741189
 20
-14.07752340016693
 10
-9.740124298493873
 20
-14.07752340016693
 10
-9.816219019575858
 20
-14.07752340016693
 10
-9.968408461739823
 20
-14.07752340016693
 10
-10.04450318282181
 20
-14.07752340016693
 10
-10.12059790390379
 20
-14.07752340016693
 10
-10.19669262498577
 20
-14.07752340016693
 10
-10.34888206714974
 20
-14.00142867908494
 10
-10.42497678823172
 20
-14.00142867908494
 10
-10.50107150931371
 20
-14.00142867908494
 10
-10.57716623039569
 20
-13.92533395800296
 10
-10.72935567255966
 20
-13.92533395800296
 10
-10.80545039364164
 20
-13.92533395800296
 10
-10.88154511472362
 20
-13.84923923692098
 10
-10.95763983580561
 20
-13.84923923692098
 10
-11.03373455688759
 20
-13.84923923692098
 10
-11.10982927796957
 20
-13.84923923692098
 10
-11.10982927796957
 20
-13.77314451583899
 10
-11.18592399905156
 20
-13.77314451583899
 10
-11.26201872013354
 20
-13.77314451583899
 10
-11.33811344121552
 20
-13.69704979475701
 10
-11.41420816229751
 20
-13.69704979475701
 10
-11.49030288337949
 20
-13.69704979475701
 10
-11.56639760446147
 20
-13.62095507367503
 10
-11.64249232554346
 20
-13.62095507367503
 10
-11.64249232554346
 20
-13.54486035259304
 10
-11.64249232554346
 20
-13.46876563151106
 10
-11.64249232554346
 20
-13.39267091042908
 10
-11.56639760446147
 20
-13.39267091042908
 10
-11.56639760446147
 20
-13.31657618934709
 10
-11.49030288337949
 20
-13.31657618934709
 10
-11.49030288337949
 20
-13.24048146826511
 10
-11.41420816229751
 20
-13.24048146826511
 10
-11.41420816229751
 20
-13.16438674718313
 10
-11.33811344121552
 20
-13.08829202610114
 10
-11.33811344121552
 20
-13.01219730501916
 10
-11.26201872013354
 20
-12.93610258393718
 10
-11.26201872013354
 20
-12.86000786285519
 10
-11.26201872013354
 20
-12.78391314177321
 10
-11.26201872013354
 20
-12.70781842069123
 10
-11.26201872013354
 20
-12.63172369960924
 10
-11.26201872013354
 20
-12.55562897852726
 10
-11.26201872013354
 20
-12.47953425744528
 10
-11.26201872013354
 20
-12.40343953636329
 10
-11.26201872013354
 20
-12.32734481528131
 10
-11.33811344121552
 20
-12.32734481528131
 10
-11.33811344121552
 20
-12.25125009419932
 10
-11.33811344121552
 20
-12.17515537311734
 10
-11.33811344121552
 20
-12.09906065203536
 10
-11.33811344121552
 20
-12.02296593095338
 10
-11.33811344121552
 20
-11.94687120987139
 10
-11.41420816229751
 20
-11.94687120987139
 10
-11.41420816229751
 20
-11.87077648878941
 10
-11.49030288337949
 20
-11.87077648878941
 10
-11.49030288337949
 20
-11.79468176770743
 10
-11.56639760446147
 20
-11.71858704662544
 10
-11.64249232554346
 20
-11.71858704662544
 10
-11.64249232554346
 20
-11.64249232554346
 10
-11.71858704662544
 20
-11.64249232554346
 10
-11.79468176770743
 20
-11.56639760446147
 10
-11.87077648878941
 20
-11.56639760446147
 10
-11.94687120987139
 20
-11.49030288337949
 10
-12.02296593095338
 20
-11.49030288337949
 10
-12.09906065203536
 20
-11.49030288337949
 10
-12.17515537311734
 20
-11.41420816229751
 10
-12.25125009419932
 20
-11.41420816229751
 10
-12.32734481528131
 20
-11.41420816229751
 10
-12.40343953636329
 20
-11.41420816229751
 10
-12.40343953636329
 20
-11.33811344121552
 10
-12.47953425744528
 20
-11.33811344121552
 10
-12.55562897852726
 20
-11.33811344121552
 10
-12.63172369960924
 20
-11.26201872013354
 10
-12.70781842069123
 20
-11.26201872013354
 10
-12.78391314177321
 20
-11.26201872013354
 10
-12.78391314177321
 20
-11.18592399905156
 10
-12.86000786285519
 20
-11.18592399905156
 10
-12.93610258393718
 20
-11.10982927796957
 10
-13.01219730501916
 20
-11.10982927796957
 10
-13.01219730501916
 20
-11.03373455688759
 10
-13.08829202610114
 20
-11.03373455688759
 10
-13.08829202610114
 20
-10.95763983580561
 10
-13.16438674718313
 20
-10.95763983580561
 10
-13.16438674718313
 20
-10.88154511472362
 10
-13.24048146826511
 20
-10.88154511472362
 10
-13.24048146826511
 20
-10.80545039364164
 10
-13.31657618934709
 20
-10.80545039364164
 10
-13.39267091042908
 20
-10.72935567255966
 10
-13.39267091042908
 20
-10.65326095147767
 10
-13.46876563151106
 20
-10.65326095147767
 10
-13.46876563151106
 20
-10.57716623039569
 10
-13.54486035259304
 20
-10.57716623039569
 10
-13.54486035259304
 20
-10.50107150931371
 10
-13.54486035259304
 20
-10.42497678823172
 10
-13.54486035259304
 20
-10.34888206714974
 10
-13.54486035259304
 20
-10.27278734606776
 10
-13.46876563151106
 20
-10.27278734606776
 10
-13.46876563151106
 20
-10.19669262498577
 10
-13.39267091042908
 20
-10.19669262498577
 10
-13.39267091042908
 20
-10.12059790390379
 10
-13.39267091042908
 20
-10.04450318282181
 10
-13.39267091042908
 20
-9.968408461739823
 10
-13.39267091042908
 20
-9.892313740657841
 10
-13.39267091042908
 20
-9.816219019575858
 10
-13.39267091042908
 20
-9.740124298493873
 10
-13.39267091042908
 20
-9.66402957741189
 10
-13.39267091042908
 20
-9.587934856329907
 10
-13.31657618934709
 20
-9.511840135247922
 10
-13.31657618934709
 20
-9.43574541416594
 10
-13.31657618934709
 20
-9.359650693083957
 10
-13.31657618934709
 20
-9.283555972001974
 10
-13.31657618934709
 20
-9.207461250919989
 10
-13.39267091042908
 20
-9.207461250919989
 10
-13.39267091042908
 20
-9.131366529838006
 10
-13.46876563151106
 20
-9.131366529838006
 10
-13.46876563151106
 20
-9.055271808756023
 10
-13.54486035259304
 20
-9.055271808756023
 10
-13.54486035259304
 20
-8.97917708767404
 10
-13.62095507367503
 20
-8.903082366592056
 10
-13.69704979475701
 20
-8.826987645510073
 10
-13.77314451583899
 20
-8.826987645510073
 10
-13.84923923692098
 20
-8.75089292442809
 10
-13.92533395800296
 20
-8.75089292442809
 10
-14.00142867908494
 20
-8.674798203346105
 10
-14.07752340016693
 20
-8.598703482264122
 10
-14.15361812124891
 20
-8.52260876118214
 10
-14.22971284233089
 20
-8.52260876118214
 10
-14.22971284233089
 20
-8.446514040100157
 10
-14.30580756341288
 20
-8.446514040100157
 10
-14.30580756341288
 20
-8.370419319018172
 10
-14.38190228449486
 20
-8.370419319018172
 10
-14.38190228449486
 20
-8.294324597936189
 10
-14.45799700557684
 20
-8.294324597936189
 10
-14.53409172665883
 20
-8.218229876854206
 10
-14.61018644774081
 20
-8.218229876854206
 10
-14.61018644774081
 20
-8.142135155772221
 10
-14.61018644774081
 20
-8.066040434690239
 10
-14.61018644774081
 20
-7.989945713608256
 10
-14.53409172665883
 20
-7.989945713608256
 10
-14.53409172665883
 20
-7.913850992526272
 10
-14.53409172665883
 20
-7.837756271444289
 10
-14.53409172665883
 20
-7.761661550362305
 10
-14.45799700557684
 20
-7.761661550362305
 10
-14.45799700557684
 20
-7.685566829280322
 10
-14.45799700557684
 20
-7.609472108198339
 10
-14.45799700557684
 20
-7.533377387116356
 10
-14.38190228449486
 20
-7.533377387116356
 10
-14.45799700557684
 20
-7.457282666034372
 10
-14.38190228449486
 20
-7.457282666034372
 10
-14.38190228449486
 20
-7.381187944952388
 10
-14.45799700557684
 20
-7.381187944952388
 10
-14.45799700557684
 20
-7.305093223870405
 10
-14.53409172665883
 20
-7.305093223870405
 10
-14.53409172665883
 20
-7.228998502788421
 10
-14.61018644774081
 20
-7.228998502788421
 10
-14.61018644774081
 20
-7.152903781706438
 10
-14.68628116882279
 20
-7.152903781706438
 10
-14.68628116882279
 20
-7.076809060624455
 10
-14.68628116882279
 20
-7.000714339542472
 10
-14.76237588990478
 20
-7.000714339542472
 10
-14.76237588990478
 20
-6.924619618460488
 10
-14.83847061098676
 20
-6.924619618460488
 10
-14.83847061098676
 20
-6.848524897378505
 10
-14.91456533206874
 20
-6.772430176296521
 10
-14.99066005315073
 20
-6.696335455214538
 10
-15.06675477423271
 20
-6.620240734132555
 10
-15.14284949531469
 20
-6.544146013050571
 10
-15.21894421639668
 20
-6.544146013050571
 10
-15.21894421639668
 20
-6.468051291968588
 10
-15.29503893747866
 20
-6.468051291968588
 10
-15.29503893747866
 20
-6.391956570886604
 10
-15.29503893747866
 20
-6.315861849804621
 10
-15.37113365856064
 20
-6.315861849804621
 10
-15.37113365856064
 20
-6.239767128722638
 10
-15.37113365856064
 20
-6.163672407640655
 10
-15.44722837964263
 20
-6.087577686558671
 10
-15.52332310072461
 20
-6.011482965476688
 10
-15.59941782180659
 20
-5.935388244394704
 10
-15.67551254288858
 20
-5.935388244394704
 10
-15.67551254288858
 20
-5.85929352331272
 10
-15.75160726397056
 20
-5.85929352331272
 10
-15.75160726397056
 20
-5.783198802230737
 10
-15.82770198505254
 20
-5.783198802230737
 10
-15.82770198505254
 20
-5.707104081148754
 10
-15.82770198505254
 20
-5.631009360066771
 10
-15.82770198505254
 20
-5.554914638984787
 10
-15.90379670613453
 20
-5.478819917902804
 10
-15.90379670613453
 20
-5.40272519682082
 10
-15.90379670613453
 20
-5.326630475738837
 10
-15.90379670613453
 20
-5.250535754656854
 10
-15.97989142721651
 20
-5.250535754656854
 10
-15.97989142721651
 20
-5.17444103357487
 10
-15.97989142721651
 20
-5.098346312492887
 10
-16.05598614829849
 20
-5.022251591410903
 10
-16.05598614829849
 20
-4.94615687032892
 10
-16.13208086938048
 20
-4.94615687032892
 10
-16.13208086938048
 20
-4.870062149246936
 10
-16.20817559046246
 20
-4.870062149246936
 10
-16.20817559046246
 20
-4.793967428164954
 10
-16.20817559046246
 20
-4.71787270708297
 10
-16.20817559046246
 20
-4.641777986000987
 10
-16.28427031154444
 20
-4.641777986000987
 10
-16.28427031154444
 20
-4.565683264919003
 10
-16.28427031154444
 20
-4.48958854383702
 10
-16.36036503262643
 20
-4.48958854383702
 10
-16.36036503262643
 20
-4.413493822755036
 10
-16.43645975370841
 20
-4.413493822755036
 10
-16.43645975370841
 20
-4.337399101673053
 10
-16.5125544747904
 20
-4.26130438059107
 10
-16.5125544747904
 20
-4.185209659509086
 10
-16.5125544747904
 20
-4.109114938427103
 10
-16.58864919587238
 20
-4.109114938427103
 10
-16.58864919587238
 20
-4.033020217345119
 10
-16.58864919587238
 20
-3.956925496263136
 10
-16.58864919587238
 20
-3.880830775181153
 10
-16.5125544747904
 20
-3.880830775181153
 10
-16.5125544747904
 20
-3.804736054099169
 10
-16.5125544747904
 20
-3.728641333017186
 10
-16.5125544747904
 20
-3.652546611935203
 10
-16.58864919587238
 20
-3.576451890853219
 10
-16.58864919587238
 20
-3.500357169771236
 10
-16.58864919587238
 20
-3.424262448689253
 10
-16.58864919587238
 20
-3.348167727607269
 10
-16.58864919587238
 20
-3.272073006525285
 10
-16.58864919587238
 20
-3.195978285443302
 10
-16.58864919587238
 20
-3.119883564361319
 10
-16.58864919587238
 20
-3.043788843279335
 10
-16.66474391695436
 20
-3.043788843279335
 10
-16.66474391695436
 20
-2.967694122197352
 10
-16.66474391695436
 20
-2.891599401115369
 10
-16.66474391695436
 20
-2.815504680033385
 10
-16.66474391695436
 20
-2.739409958951402
 10
-16.74083863803634
 20
-2.739409958951402
 10
-16.74083863803634
 20
-2.663315237869419
 10
-16.74083863803634
 20
-2.587220516787435
 10
-16.74083863803634
 20
-2.511125795705452
 10
-16.74083863803634
 20
-2.435031074623468
 10
-16.74083863803634
 20
-2.358936353541485
 10
-16.81693335911833
 20
-2.358936353541485
 10
-16.81693335911833
 20
-2.282841632459502
 10
-16.81693335911833
 20
-2.206746911377518
 10
-16.89302808020031
 20
-2.206746911377518
 10
-16.89302808020031
 20
-2.130652190295535
 10
-16.89302808020031
 20
-2.054557469213552
 10
-16.89302808020031
 20
-1.978462748131568
 10
-16.89302808020031
 20
-1.902368027049585
 10
-16.89302808020031
 20
-1.826273305967601
 10
-16.89302808020031
 20
-1.750178584885618
 10
-16.89302808020031
 20
-1.674083863803634
 10
-16.89302808020031
 20
-1.597989142721651
 10
-16.81693335911833
 20
-1.597989142721651
 10
-16.81693335911833
 20
-1.521894421639668
 10
-16.74083863803634
 20
-1.521894421639668
 10
-16.74083863803634
 20
-1.445799700557684
 10
-16.66474391695436
 20
-1.445799700557684
 10
-16.66474391695436
 20
-1.369704979475701
 10
-16.58864919587238
 20
-1.369704979475701
 10
-16.5125544747904
 20
-1.293610258393717
 10
-16.43645975370841
 20
-1.217515537311734
 10
-16.36036503262643
 20
-1.217515537311734
 10
-16.28427031154444
 20
-1.217515537311734
 10
-16.20817559046246
 20
-1.141420816229751
 10
-16.13208086938048
 20
-1.065326095147767
 10
-16.05598614829849
 20
-1.065326095147767
 10
-15.97989142721651
 20
-1.065326095147767
 10
-15.90379670613453
 20
-0.989231374065784
 10
-15.82770198505254
 20
-0.989231374065784
 10
-15.82770198505254
 20
-0.9131366529838006
 10
-15.75160726397056
 20
-0.8370419319018172
 10
-15.67551254288858
 20
-0.8370419319018172
 10
-15.67551254288858
 20
-0.7609472108198339
 10
-15.59941782180659
 20
-0.7609472108198339
 10
-15.52332310072461
 20
-0.6848524897378505
 10
-15.44722837964263
 20
-0.6087577686558671
 10
-15.37113365856064
 20
-0.5326630475738837
 10
-15.37113365856064
 20
-0.4565683264919003
 10
-15.29503893747866
 20
-0.3804736054099169
 10
-15.29503893747866
 20
-0.3043788843279335
 10
-15.29503893747866
 20
-0.2282841632459502
 10
-15.29503893747866
 20
-0.1521894421639668
 10
-15.29503893747866
 20
-0.07609472108198338
 10
-15.37113365856064
 20
0
 10
-15.37113365856064
 20
0.07609472108198338
 10
-15.37113365856064
 20
0.1521894421639668
 10
-15.37113365856064
 20
0.2282841632459502
 10
-15.37113365856064
 20
0.3043788843279335
 10
-15.44722837964263
 20
0.3043788843279335
 10
-15.44722837964263
 20
0.3804736054099169
 10
-15.52332310072461
 20
0.4565683264919003
 10
-15.59941782180659
 20
0.5326630475738837
 10
-15.67551254288858
 20
0.6087577686558671
 10
-15.75160726397056
 20
0.6848524897378505
 10
-15.82770198505254
 20
0.7609472108198339
 10
-15.90379670613453
 20
0.8370419319018172
 10
-15.97989142721651
 20
0.8370419319018172
 10
-15.97989142721651
 20
0.9131366529838006
 10
-16.05598614829849
 20
0.9131366529838006
 10
-16.13208086938048
 20
0.989231374065784
 10
-16.20817559046246
 20
1.065326095147767
 10
-16.28427031154444
 20
1.065326095147767
 10
-16.36036503262643
 20
1.065326095147767
 10
-16.43645975370841
 20
1.141420816229751
 10
-16.5125544747904
 20
1.141420816229751
 10
-16.5125544747904
 20
1.217515537311734
 10
-16.58864919587238
 20
1.217515537311734
 10
-16.58864919587238
 20
1.293610258393717
 10
-16.58864919587238
 20
1.369704979475701
 10
-16.66474391695436
 20
1.369704979475701
 10
-16.66474391695436
 20
1.445799700557684
 10
-16.66474391695436
 20
1.521894421639668
 10
-16.66474391695436
 20
1.597989142721651
 10
-16.66474391695436
 20
1.674083863803634
 10
-16.66474391695436
 20
1.750178584885618
 10
-16.66474391695436
 20
1.826273305967601
 10
-16.66474391695436
 20
1.902368027049585
 10
-16.66474391695436
 20
1.978462748131568
 10
-16.66474391695436
 20
2.054557469213552
 10
-16.66474391695436
 20
2.130652190295535
 10
-16.66474391695436
 20
2.206746911377518
 10
-16.58864919587238
 20
2.206746911377518
 10
-16.58864919587238
 20
2.282841632459502
 10
-16.58864919587238
 20
2.358936353541485
 10
-16.58864919587238
 20
2.435031074623468
 10
-16.58864919587238
 20
2.511125795705452
 10
-16.58864919587238
 20
2.587220516787435
 10
-16.58864919587238
 20
2.663315237869419
 10
-16.58864919587238
 20
2.739409958951402
 10
-16.58864919587238
 20
2.815504680033385
 10
-16.5125544747904
 20
2.815504680033385
 10
-16.5125544747904
 20
2.891599401115369
 10
-16.43645975370841
 20
2.967694122197352
 10
-16.43645975370841
 20
3.043788843279335
 10
-16.43645975370841
 20
3.119883564361319
 10
-16.36036503262643
 20
3.119883564361319
 10
-16.36036503262643
 20
3.195978285443302
 10
-16.36036503262643
 20
3.272073006525285
 10
-16.36036503262643
 20
3.348167727607269
 10
-16.36036503262643
 20
3.424262448689253
 10
-16.36036503262643
 20
3.500357169771236
 10
-16.43645975370841
 20
3.500357169771236
 10
-16.43645975370841
 20
3.576451890853219
 10
-16.43645975370841
 20
3.652546611935203
 10
-16.43645975370841
 20
3.728641333017186
 10
-16.5125544747904
 20
3.728641333017186
 10
-16.5125544747904
 20
3.804736054099169
 10
-16.58864919587238
 20
3.804736054099169
 10
-16.58864919587238
 20
3.880830775181153
 10
-16.58864919587238
 20
3.956925496263136
 10
-16.66474391695436
 20
4.033020217345119
 10
-16.66474391695436
 20
4.109114938427103
 10
-16.66474391695436
 20
4.185209659509086
 10
-16.66474391695436
 20
4.26130438059107
 10
-16.66474391695436
 20
4.337399101673053
 10
-16.66474391695436
 20
4.413493822755036
 10
-16.66474391695436
 20
4.48958854383702
 10
-16.66474391695436
 20
4.565683264919003
 10
-16.58864919587238
 20
4.641777986000987
 10
-16.58864919587238
 20
4.71787270708297
 10
-16.5125544747904
 20
4.71787270708297
 10
-16.43645975370841
 20
4.793967428164954
 10
-16.36036503262643
 20
4.793967428164954
 10
-16.28427031154444
 20
4.870062149246936
 10
-16.20817559046246
 20
4.870062149246936
 10
-16.13208086938048
 20
4.94615687032892
 10
-16.05598614829849
 20
4.94615687032892
 10
-15.97989142721651
 20
5.022251591410903
 10
-15.90379670613453
 20
5.022251591410903
 10
-15.82770198505254
 20
5.022251591410903
 10
-15.75160726397056
 20
5.022251591410903
 10
-15.75160726397056
 20
5.098346312492887
 10
-15.67551254288858
 20
5.098346312492887
 10
-15.59941782180659
 20
5.17444103357487
 10
-15.52332310072461
 20
5.17444103357487
 10
-15.52332310072461
 20
5.250535754656854
 10
-15.44722837964263
 20
5.250535754656854
 10
-15.37113365856064
 20
5.326630475738837
 10
-15.29503893747866
 20
5.326630475738837
 10
-15.29503893747866
 20
5.40272519682082
 10
-15.21894421639668
 20
5.40272519682082
 10
-15.21894421639668
 20
5.478819917902804
 10
-15.21894421639668
 20
5.554914638984787
 10
-15.21894421639668
 20
5.631009360066771
 10
-15.21894421639668
 20
5.707104081148754
 10
-15.21894421639668
 20
5.783198802230737
 10
-15.29503893747866
 20
5.85929352331272
 10
-15.29503893747866
 20
5.935388244394704
 10
-15.37113365856064
 20
6.011482965476688
 10
-15.37113365856064
 20
6.087577686558671
 10
-15.37113365856064
 20
6.163672407640655
 10
-15.37113365856064
 20
6.239767128722638
 10
-15.37113365856064
 20
6.315861849804621
 10
-15.37113365856064
 20
6.391956570886604
 10
-15.29503893747866
 20
6.391956570886604
 10
-15.29503893747866
 20
6.468051291968588
 10
-15.21894421639668
 20
6.468051291968588
 10
-15.21894421639668
 20
6.544146013050571
 10
-15.14284949531469
 20
6.620240734132555
 10
-15.14284949531469
 20
6.696335455214538
 10
-15.06675477423271
 20
6.696335455214538
 10
-15.06675477423271
 20
6.772430176296521
 10
-14.99066005315073
 20
6.772430176296521
 10
-14.99066005315073
 20
6.848524897378505
 10
-14.91456533206874
 20
6.848524897378505
 10
-14.91456533206874
 20
6.924619618460488
 10
-14.83847061098676
 20
6.924619618460488
 10
-14.76237588990478
 20
7.000714339542472
 10
-14.68628116882279
 20
7.076809060624455
 10
-14.61018644774081
 20
7.152903781706438
 10
-14.53409172665883
 20
7.152903781706438
 10
-14.53409172665883
 20
7.228998502788421
 10
-14.45799700557684
 20
7.228998502788421
 10
-14.45799700557684
 20
7.305093223870405
 10
-14.38190228449486
 20
7.305093223870405
 10
-14.30580756341288
 20
7.305093223870405
 10
-14.22971284233089
 20
7.305093223870405
 10
-14.15361812124891
 20
7.305093223870405
 10
-14.07752340016693
 20
7.381187944952388
 10
-14.00142867908494
 20
7.381187944952388
 10
-13.92533395800296
 20
7.381187944952388
 10
-13.84923923692098
 20
7.457282666034372
 10
-13.77314451583899
 20
7.457282666034372
 10
-13.69704979475701
 20
7.457282666034372
 10
-13.62095507367503
 20
7.457282666034372
 10
-13.62095507367503
 20
7.533377387116356
 10
-13.54486035259304
 20
7.533377387116356
 10
-13.46876563151106
 20
7.609472108198339
 10
-13.46876563151106
 20
7.685566829280322
 10
-13.39267091042908
 20
7.685566829280322
 10
-13.39267091042908
 20
7.761661550362305
 10
-13.31657618934709
 20
7.761661550362305
 10
-13.31657618934709
 20
7.837756271444289
 10
-13.24048146826511
 20
7.913850992526272
 10
-13.24048146826511
 20
7.989945713608256
 10
-13.16438674718313
 20
7.989945713608256
 10
-13.16438674718313
 20
8.066040434690239
 10
-13.16438674718313
 20
8.142135155772221
 10
-13.08829202610114
 20
8.142135155772221
 10
-13.08829202610114
 20
8.218229876854206
 10
-13.08829202610114
 20
8.294324597936189
 10
-13.08829202610114
 20
8.370419319018172
 10
-13.01219730501916
 20
8.446514040100157
 10
-13.01219730501916
 20
8.52260876118214
 10
-13.01219730501916
 20
8.598703482264122
 10
-13.01219730501916
 20
8.674798203346105
 10
-13.01219730501916
 20
8.75089292442809
 10
-13.08829202610114
 20
8.75089292442809
 10
-13.08829202610114
 20
8.826987645510073
 10
-13.16438674718313
 20
8.903082366592056
 10
-13.16438674718313
 20
8.97917708767404
 10
-13.24048146826511
 20
8.97917708767404
 10
-13.24048146826511
 20
9.055271808756023
 10
-13.31657618934709
 20
9.055271808756023
 10
-13.31657618934709
 20
9.131366529838006
 10
-13.39267091042908
 20
9.207461250919989
 10
-13.39267091042908
 20
9.283555972001974
 10
-13.39267091042908
 20
9.359650693083957
 10
-13.46876563151106
 20
9.359650693083957
 10
-13.46876563151106
 20
9.43574541416594
 10
-13.39267091042908
 20
9.511840135247922
 10
-13.39267091042908
 20
9.587934856329907
 10
-13.39267091042908
 20
9.66402957741189
 10
-13.31657618934709
 20
9.66402957741189
 10
-13.31657618934709
 20
9.740124298493873
 10
-13.24048146826511
 20
9.816219019575858
 10
-13.01219730501916
 20
10.04450318282181
 10
-12.93610258393718
 20
10.04450318282181
 10
-12.86000786285519
 20
10.12059790390379
 10
-12.78391314177321
 20
10.12059790390379
 10
-12.70781842069123
 20
10.12059790390379
  0
ENDSEC
  0
SECTION
  2
OBJECTS
  0
DICTIONARY
  5
C
330
0
100
AcDbDictionary
281
    1
  3
ACAD_GROUP
350
D
  0
DICTIONARY
  5
D
330
C
100
AcDbDictionary
281
    1
  0
PLOTSETTINGS
  5
6B
  6
1x1
 40
0
 41
0
 42
0
 43
0
  0
ENDSEC
  0
EOF
