999
dxfrw 0.6.3
  0
SECTION
  2
HEADER
  9
$ACADVER
  1
AC1021
  9
$DWGCODEPAGE
  3
ANSI_1252
  9
$INSBASE
 10
0
 20
0
 30
0
  9
$EXTMIN
 10
-0.3439999999999994
 20
-1.5
 30
0
  9
$EXTMAX
 10
18.656
 20
0.25
 30
0
  9
$LIMMIN
 10
0
 20
0
  9
$LIMMAX
 10
420
 20
297
  9
$ORTHOMODE
 70
    0
  9
$REGENMODE
 70
    1
  9
$FILLMODE
 70
    1
  9
$QTEXTMODE
 70
    0
  9
$MIRRTEXT
 70
    0
  9
$LTSCALE
 40
1
  9
$ATTMODE
 70
    0
  9
$TEXTSIZE
 40
2.5
  9
$TRACEWID
 40
15.68
  9
$TEXTSTYLE
  7
STANDARD
  9
$CLAYER
  8
0
  9
$CELTYPE
  6
BYLAYER
  9
$CECOLOR
 62
  256
  9
$CELTSCALE
 40
1
  9
$DISPSILH
 70
    0
  9
$DIMSCALE
 40
1
  9
$DIMASZ
 40
0.09375
  9
$DIMEXO
 40
0.03125
  9
$DIMDLI
 40
3.75
  9
$DIMRND
 40
0
  9
$DIMDLE
 40
0
  9
$DIMEXE
 40
0.0625
  9
$DIMTP
 40
0
  9
$DIMTM
 40
0
  9
$DIMTXT
 40
0.09375
  9
$DIMCEN
 40
2.5
  9
$DIMTSZ
 40
0
  9
$DIMTOL
 70
    0
  9
$DIMLIM
 70
    0
  9
$DIMTIH
 70
    0
  9
$DIMTOH
 70
    0
  9
$DIMSE1
 70
    0
  9
$DIMSE2
 70
    0
  9
$DIMTAD
 70
    1
  9
$DIMZIN
 70
    8
  9
$DIMBLK
  1

  9
$DIMASO
 70
    1
  9
$DIMSHO
 70
    1
  9
$DIMPOST
  1

  9
$DIMAPOST
  1

  9
$DIMALT
 70
    0
  9
$DIMALTD
 70
    3
  9
$DIMALTF
 40
0.03937
  9
$DIMLFAC
 40
1
  9
$DIMTOFL
 70
    1
  9
$DIMTVP
 40
0
  9
$DIMTIX
 70
    0
  9
$DIMSOXD
 70
    0
  9
$DIMSAH
 70
    0
  9
$DIMBLK1
  1

  9
$DIMBLK2
  1

  9
$DIMSTYLE
  2
STANDARD
  9
$DIMCLRD
 70
    0
  9
$DIMCLRE
 70
    0
  9
$DIMCLRT
 70
    0
  9
$DIMTFAC
 40
1
  9
$DIMGAP
 40
0.03125
  9
$DIMJUST
 70
    0
  9
$DIMSD1
 70
    0
  9
$DIMSD2
 70
    0
  9
$DIMTOLJ
 70
    0
  9
$DIMTZIN
 70
    8
  9
$DIMALTZ
 70
    0
  9
$DIMALTTZ
 70
    0
  9
$DIMUPT
 70
    0
  9
$DIMDEC
 70
    5
  9
$DIMTDEC
 70
    2
  9
$DIMALTU
 70
    2
  9
$DIMALTTD
 70
    3
  9
$DIMTXSTY
  7
romanc
  9
$DIMAUNIT
 70
    0
  9
$DIMADEC
 70
    1
  9
$DIMALTRND
 40
0
  9
$DIMAZIN
 70
    0
  9
$DIMDSEP
 70
   44
  9
$DIMATFIT
 70
    3
  9
$DIMFRAC
 70
    0
  9
$DIMLDRBLK
  1
STANDARD
  9
$DIMLUNIT
 70
    5
  9
$DIMLWD
 70
   -2
  9
$DIMLWE
 70
   -2
  9
$DIMTMOVE
 70
    0
  9
$DIMFXL
 40
1
  9
$DIMFXLON
 70
    0
  9
$DIMJOGANG
 40
0.7854
  9
$DIMTFILL
 70
    0
  9
$DIMTFILLCLR
 70
    0
  9
$DIMARCSYM
 70
    0
  9
$DIMLTYPE
  6

  9
$DIMLTEX1
  6

  9
$DIMLTEX2
  6

  9
$LUNITS
 70
    5
  9
$LUPREC
 70
    5
  9
$SKETCHINC
 40
1
  9
$FILLETRAD
 40
0
  9
$AUNITS
 70
    0
  9
$AUPREC
 70
    1
  9
$MENU
  1
.
  9
$ELEVATION
 40
0
  9
$PELEVATION
 40
0
  9
$THICKNESS
 40
0
  9
$LIMCHECK
 70
    0
  9
$CHAMFERA
 40
0
  9
$CHAMFERB
 40
0
  9
$CHAMFERC
 40
0
  9
$CHAMFERD
 40
0
  9
$SKPOLY
 70
    0
  9
$USRTIMER
 70
    1
  9
$ANGBASE
 50
0
  9
$ANGDIR
 70
    0
  9
$PDMODE
 70
   34
  9
$PDSIZE
 40
0
  9
$PLINEWID
 40
0
  9
$SPLFRAME
 70
    0
  9
$SPLINETYPE
 70
    2
  9
$SPLINESEGS
 70
    8
  9
$HANDSEED
  5
20000
  9
$SURFTAB1
 70
    6
  9
$SURFTAB2
 70
    6
  9
$SURFTYPE
 70
    6
  9
$SURFU
 70
    6
  9
$SURFV
 70
    6
  9
$UCSBASE
  2

  9
$UCSNAME
  2

  9
$UCSORG
 10
0
 20
0
 30
0
  9
$UCSXDIR
 10
1
 20
0
 30
0
  9
$UCSYDIR
 10
0
 20
1
 30
0
  9
$UCSORTHOREF
  2

  9
$UCSORTHOVIEW
 70
    0
  9
$UCSORGTOP
 10
0
 20
0
 30
0
  9
$UCSORGBOTTOM
 10
0
 20
0
 30
0
  9
$UCSORGLEFT
 10
0
 20
0
 30
0
  9
$UCSORGRIGHT
 10
0
 20
0
 30
0
  9
$UCSORGFRONT
 10
0
 20
0
 30
0
  9
$UCSORGBACK
 10
0
 20
0
 30
0
  9
$PUCSBASE
  2

  9
$PUCSNAME
  2

  9
$PUCSORG
 10
0
 20
0
 30
0
  9
$PUCSXDIR
 10
1
 20
0
 30
0
  9
$PUCSYDIR
 10
0
 20
1
 30
0
  9
$PUCSORTHOREF
  2

  9
$PUCSORTHOVIEW
 70
    0
  9
$PUCSORGTOP
 10
0
 20
0
 30
0
  9
$PUCSORGBOTTOM
 10
0
 20
0
 30
0
  9
$PUCSORGLEFT
 10
0
 20
0
 30
0
  9
$PUCSORGRIGHT
 10
0
 20
0
 30
0
  9
$PUCSORGFRONT
 10
0
 20
0
 30
0
  9
$PUCSORGBACK
 10
0
 20
0
 30
0
  9
$USERI1
 70
    0
  9
$USERI2
 70
    0
  9
$USERI3
 70
    0
  9
$USERI4
 70
    0
  9
$USERI5
 70
    0
  9
$USERR1
 40
0
  9
$USERR2
 40
0
  9
$USERR3
 40
0
  9
$USERR4
 40
0
  9
$USERR5
 40
0
  9
$WORLDVIEW
 70
    1
  9
$SHADEDGE
 70
    3
  9
$SHADEDIF
 70
   70
  9
$TILEMODE
 70
    1
  9
$MAXACTVP
 70
   64
  9
$PINSBASE
 10
0
 20
0
 30
0
  9
$PLIMCHECK
 70
    0
  9
$PEXTMIN
 10
0
 20
0
 30
0
  9
$PEXTMAX
 10
0
 20
0
 30
0
  9
$GRIDMODE
 70
    1
  9
$SNAPSTYLE
 70
    0
  9
$GRIDUNIT
 10
0
 20
0
  9
$PLIMMIN
 10
0
 20
0
  9
$PLIMMAX
 10
11
 20
8.5
  9
$UNITMODE
 70
    0
  9
$VISRETAIN
 70
    1
  9
$PLINEGEN
 70
    0
  9
$PSLTSCALE
 70
    1
  9
$TREEDEPTH
 70
 3020
  9
$CMLSTYLE
  2
Standard
  9
$CMLJUST
 70
    0
  9
$CMLSCALE
 40
20
  9
$PROXYGRAPHICS
 70
    1
  9
$MEASUREMENT
 70
    1
  9
$CELWEIGHT
370
   -1
  9
$ENDCAPS
280
    0
  9
$JOINSTYLE
280
    0
  9
$LWDISPLAY
290
    0
  9
$INSUNITS
 70
    1
  9
$HYPERLINKBASE
  1

  9
$STYLESHEET
  1

  9
$XEDIT
290
    1
  9
$CEPSNTYPE
380
    0
  9
$PSTYLEMODE
290
    1
  9
$EXTNAMES
290
    1
  9
$PSVPSCALE
 40
1
  9
$OLESTARTUP
290
    0
  9
$SORTENTS
280
  127
  9
$INDEXCTL
280
    0
  9
$HIDETEXT
280
    1
  9
$XCLIPFRAME
290
    0
  9
$HALOGAP
280
    0
  9
$OBSCOLOR
 70
  257
  9
$OBSLTYPE
280
    0
  9
$INTERSECTIONDISPLAY
280
    0
  9
$INTERSECTIONCOLOR
 70
  257
  9
$DIMASSOC
280
    1
  9
$PROJECTNAME
  1

  9
$CAMERADISPLAY
290
    0
  9
$LENSLENGTH
 40
50
  9
$CAMERAHEIGHT
 40
0
  9
$STEPSPERSEC
 40
2
  9
$STEPSIZE
 40
50
  9
$3DDWFPREC
 40
2
  9
$PSOLWIDTH
 40
5
  9
$PSOLHEIGHT
 40
80
  9
$LOFTANG1
 40
1.570796326794897
  9
$LOFTANG2
 40
1.570796326794897
  9
$LOFTMAG1
 40
0
  9
$LOFTMAG2
 40
0
  9
$LOFTPARAM
 70
    7
  9
$LOFTNORMALS
280
    1
  9
$LATITUDE
 40
1
  9
$LONGITUDE
 40
1
  9
$NORTHDIRECTION
 40
0
  9
$TIMEZONE
 70
-8000
  9
$LIGHTGLYPHDISPLAY
280
    1
  9
$TILEMODELIGHTSYNCH
280
    1
  9
$SOLIDHIST
280
    1
  9
$SHOWHIST
280
    1
  9
$DWFFRAME
280
    2
  9
$DGNFRAME
280
    0
  9
$REALWORLDSCALE
290
    1
  9
$INTERFERECOLOR
 62
    1
  9
$CSHADOW
280
    0
  9
$SHADOWPLANELOCATION
 40
0
  0
ENDSEC
  0
SECTION
  2
CLASSES
  0
ENDSEC
  0
SECTION
  2
TABLES
  0
TABLE
  2
VPORT
  5
8
330
0
100
AcDbSymbolTable
 70
    1
  0
VPORT
  5
31
330
2
100
AcDbSymbolTableRecord
100
AcDbViewportTableRecord
  2
*ACTIVE
 70
    0
 10
0
 20
0
 11
1
 21
1
 12
9.39777618364419
 22
2.800932568149211
 13
0
 23
0
 14
10
 24
10
 15
10
 25
10
 16
0
 26
0
 36
1
 17
0
 27
0
 37
0
 40
12.43041606886657
 41
1.550438596491228
 42
50
 43
0
 44
0
 50
0
 51
0
 71
    0
 72
  100
 73
    1
 74
    3
 75
    0
 76
    1
 77
    0
 78
    0
281
    0
 65
    1
110
0
120
0
130
0
111
1
121
0
131
0
112
0
122
1
132
0
 79
    0
146
0
348
10020
 60
    7
 61
    5
292
1
282
    1
141
0
142
0
 63
  250
421
3358443
  0
ENDTAB
  0
TABLE
  2
LTYPE
  5
5
330
0
100
AcDbSymbolTable
 70
    4
  0
LTYPE
  5
14
330
5
100
AcDbSymbolTableRecord
100
AcDbLinetypeTableRecord
  2
ByBlock
 70
    0
  3

 72
   65
 73
    0
 40
0
  0
LTYPE
  5
15
330
5
100
AcDbSymbolTableRecord
100
AcDbLinetypeTableRecord
  2
ByLayer
 70
    0
  3

 72
   65
 73
    0
 40
0
  0
LTYPE
  5
16
330
5
100
AcDbSymbolTableRecord
100
AcDbLinetypeTableRecord
  2
Continuous
 70
    0
  3
Solid line
 72
   65
 73
    0
 40
0
  0
LTYPE
  5
32
330
5
100
AcDbSymbolTableRecord
100
AcDbLinetypeTableRecord
  2
DOT
 70
    0
  3
Dot . . . . . . . . . . . . . . . . . . . . . .
 72
   65
 73
    2
 40
6.35
 49
0
 74
    0
 49
-6.35
 74
    0
  0
LTYPE
  5
33
330
5
100
AcDbSymbolTableRecord
100
AcDbLinetypeTableRecord
  2
DOTTINY
 70
    0
  3
Dot (.15x) .....................................
 72
   65
 73
    2
 40
0.9525
 49
0
 74
    0
 49
-0.9525
 74
    0
  0
LTYPE
  5
34
330
5
100
AcDbSymbolTableRecord
100
AcDbLinetypeTableRecord
  2
DOT2
 70
    0
  3
Dot (.5x) .....................................
 72
   65
 73
    2
 40
3.175
 49
0
 74
    0
 49
-3.175
 74
    0
  0
LTYPE
  5
35
330
5
100
AcDbSymbolTableRecord
100
AcDbLinetypeTableRecord
  2
DOTX2
 70
    0
  3
Dot (2x) .  .  .  .  .  .  .  .  .  .  .  .  .
 72
   65
 73
    2
 40
12.7
 49
0
 74
    0
 49
-12.7
 74
    0
  0
LTYPE
  5
36
330
5
100
AcDbSymbolTableRecord
100
AcDbLinetypeTableRecord
  2
DASHED
 70
    0
  3
Dashed _ _ _ _ _ _ _ _ _ _ _ _ _ _ _ _ _
 72
   65
 73
    2
 40
19.05
 49
12.7
 74
    0
 49
-6.35
 74
    0
  0
LTYPE
  5
37
330
5
100
AcDbSymbolTableRecord
100
AcDbLinetypeTableRecord
  2
DASHEDTINY
 70
    0
  3
Dashed (.15x) _ _ _ _ _ _ _ _ _ _ _ _ _ _ _ _ _
 72
   65
 73
    2
 40
2.8575
 49
1.905
 74
    0
 49
-0.9525
 74
    0
  0
LTYPE
  5
38
330
5
100
AcDbSymbolTableRecord
100
AcDbLinetypeTableRecord
  2
DASHED2
 70
    0
  3
Dashed (.5x) _ _ _ _ _ _ _ _ _ _ _ _ _ _ _ _ _
 72
   65
 73
    2
 40
9.524999999999999
 49
6.35
 74
    0
 49
-3.175
 74
    0
  0
LTYPE
  5
39
330
5
100
AcDbSymbolTableRecord
100
AcDbLinetypeTableRecord
  2
DASHEDX2
 70
    0
  3
Dashed (2x) ____  ____  ____  ____  ____  ___
 72
   65
 73
    2
 40
38.09999999999999
 49
25.4
 74
    0
 49
-12.7
 74
    0
  0
LTYPE
  5
3A
330
5
100
AcDbSymbolTableRecord
100
AcDbLinetypeTableRecord
  2
DASHDOT
 70
    0
  3
Dash dot __ . __ . __ . __ . __ . __ . __ . __
 72
   65
 73
    4
 40
25.4
 49
12.7
 74
    0
 49
-6.35
 74
    0
 49
0
 74
    0
 49
-6.35
 74
    0
  0
LTYPE
  5
3B
330
5
100
AcDbSymbolTableRecord
100
AcDbLinetypeTableRecord
  2
DASHDOTTINY
 70
    0
  3
Dash dot (.15x) _._._._._._._._._._._._._._._.
 72
   65
 73
    4
 40
3.81
 49
1.905
 74
    0
 49
-0.9525
 74
    0
 49
0
 74
    0
 49
-0.9525
 74
    0
  0
LTYPE
  5
3C
330
5
100
AcDbSymbolTableRecord
100
AcDbLinetypeTableRecord
  2
DASHDOT2
 70
    0
  3
Dash dot (.5x) _._._._._._._._._._._._._._._.
 72
   65
 73
    4
 40
12.7
 49
6.35
 74
    0
 49
-3.175
 74
    0
 49
0
 74
    0
 49
-3.175
 74
    0
  0
LTYPE
  5
3D
330
5
100
AcDbSymbolTableRecord
100
AcDbLinetypeTableRecord
  2
DASHDOTX2
 70
    0
  3
Dash dot (2x) ____  .  ____  .  ____  .  ___
 72
   65
 73
    4
 40
50.8
 49
25.4
 74
    0
 49
-12.7
 74
    0
 49
0
 74
    0
 49
-12.7
 74
    0
  0
LTYPE
  5
3E
330
5
100
AcDbSymbolTableRecord
100
AcDbLinetypeTableRecord
  2
DIVIDE
 70
    0
  3
Divide ____ . . ____ . . ____ . . ____ . . ____
 72
   65
 73
    6
 40
31.75
 49
12.7
 74
    0
 49
-6.35
 74
    0
 49
0
 74
    0
 49
-6.35
 74
    0
 49
0
 74
    0
 49
-6.35
 74
    0
  0
LTYPE
  5
3F
330
5
100
AcDbSymbolTableRecord
100
AcDbLinetypeTableRecord
  2
DIVIDETINY
 70
    0
  3
Divide (.15x) __..__..__..__..__..__..__..__.._
 72
   65
 73
    6
 40
4.7625
 49
1.905
 74
    0
 49
-0.9525
 74
    0
 49
0
 74
    0
 49
-0.9525
 74
    0
 49
0
 74
    0
 49
-0.9525
 74
    0
  0
LTYPE
  5
40
330
5
100
AcDbSymbolTableRecord
100
AcDbLinetypeTableRecord
  2
DIVIDE2
 70
    0
  3
Divide (.5x) __..__..__..__..__..__..__..__.._
 72
   65
 73
    6
 40
15.875
 49
6.35
 74
    0
 49
-3.175
 74
    0
 49
0
 74
    0
 49
-3.175
 74
    0
 49
0
 74
    0
 49
-3.175
 74
    0
  0
LTYPE
  5
41
330
5
100
AcDbSymbolTableRecord
100
AcDbLinetypeTableRecord
  2
DIVIDEX2
 70
    0
  3
Divide (2x) ________  .  .  ________  .  .  _
 72
   65
 73
    6
 40
63.5
 49
25.4
 74
    0
 49
-12.7
 74
    0
 49
0
 74
    0
 49
-12.7
 74
    0
 49
0
 74
    0
 49
-12.7
 74
    0
  0
LTYPE
  5
42
330
5
100
AcDbSymbolTableRecord
100
AcDbLinetypeTableRecord
  2
BORDER
 70
    0
  3
Border __ __ . __ __ . __ __ . __ __ . __ __ .
 72
   65
 73
    6
 40
44.45
 49
12.7
 74
    0
 49
-6.35
 74
    0
 49
12.7
 74
    0
 49
-6.35
 74
    0
 49
0
 74
    0
 49
-6.35
 74
    0
  0
LTYPE
  5
43
330
5
100
AcDbSymbolTableRecord
100
AcDbLinetypeTableRecord
  2
BORDERTINY
 70
    0
  3
Border (.15x) __.__.__.__.__.__.__.__.__.__.__.
 72
   65
 73
    6
 40
6.6675
 49
1.905
 74
    0
 49
-0.9525
 74
    0
 49
1.905
 74
    0
 49
-0.9525
 74
    0
 49
0
 74
    0
 49
-0.9525
 74
    0
  0
LTYPE
  5
44
330
5
100
AcDbSymbolTableRecord
100
AcDbLinetypeTableRecord
  2
BORDER2
 70
    0
  3
Border (.5x) __.__.__.__.__.__.__.__.__.__.__.
 72
   65
 73
    6
 40
22.225
 49
6.35
 74
    0
 49
-3.175
 74
    0
 49
6.35
 74
    0
 49
-3.175
 74
    0
 49
0
 74
    0
 49
-3.175
 74
    0
  0
LTYPE
  5
45
330
5
100
AcDbSymbolTableRecord
100
AcDbLinetypeTableRecord
  2
BORDERX2
 70
    0
  3
Border (2x) ____  ____  .  ____  ____  .  ___
 72
   65
 73
    6
 40
88.89999999999999
 49
25.4
 74
    0
 49
-12.7
 74
    0
 49
25.4
 74
    0
 49
-12.7
 74
    0
 49
0
 74
    0
 49
-12.7
 74
    0
  0
LTYPE
  5
46
330
5
100
AcDbSymbolTableRecord
100
AcDbLinetypeTableRecord
  2
CENTER
 70
    0
  3
Center ____ _ ____ _ ____ _ ____ _ ____ _ ____
 72
   65
 73
    4
 40
50.8
 49
31.75
 74
    0
 49
-6.35
 74
    0
 49
6.35
 74
    0
 49
-6.35
 74
    0
  0
LTYPE
  5
47
330
5
100
AcDbSymbolTableRecord
100
AcDbLinetypeTableRecord
  2
CENTERTINY
 70
    0
  3
Center (.15x) ___ _ ___ _ ___ _ ___ _ ___ _ ___
 72
   65
 73
    4
 40
7.619999999999999
 49
4.7625
 74
    0
 49
-0.9525
 74
    0
 49
0.9525
 74
    0
 49
-0.9525
 74
    0
  0
LTYPE
  5
48
330
5
100
AcDbSymbolTableRecord
100
AcDbLinetypeTableRecord
  2
CENTER2
 70
    0
  3
Center (.5x) ___ _ ___ _ ___ _ ___ _ ___ _ ___
 72
   65
 73
    4
 40
28.575
 49
19.05
 74
    0
 49
-3.175
 74
    0
 49
3.175
 74
    0
 49
-3.175
 74
    0
  0
LTYPE
  5
49
330
5
100
AcDbSymbolTableRecord
100
AcDbLinetypeTableRecord
  2
CENTERX2
 70
    0
  3
Center (2x) ________  __  ________  __  _____
 72
   65
 73
    4
 40
101.6
 49
63.5
 74
    0
 49
-12.7
 74
    0
 49
12.7
 74
    0
 49
-12.7
 74
    0
  0
ENDTAB
  0
TABLE
  2
LAYER
  5
2
330
0
100
AcDbSymbolTable
 70
    1
  0
LAYER
  5
10
330
2
100
AcDbSymbolTableRecord
100
AcDbLayerTableRecord
  2
0
 70
    0
 62
    7
  6
CONTINUOUS
370
    0
390
F
  0
ENDTAB
  0
TABLE
  2
STYLE
  5
3
330
0
100
AcDbSymbolTable
 70
    3
  0
STYLE
  5
4A
330
2
100
AcDbSymbolTableRecord
100
AcDbTextStyleTableRecord
  2
romand
 70
    0
 40
0
 41
1
 50
0
 71
    0
 42
1
  3
romand
  4

  0
STYLE
  5
4B
330
2
100
AcDbSymbolTableRecord
100
AcDbTextStyleTableRecord
  2
Standard
 70
    0
 40
0
 41
1
 50
0
 71
    0
 42
1
  3
txt
  4

  0
ENDTAB
  0
TABLE
  2
VIEW
  5
6
330
0
100
AcDbSymbolTable
 70
    0
  0
ENDTAB
  0
TABLE
  2
UCS
  5
7
330
0
100
AcDbSymbolTable
 70
    0
  0
ENDTAB
  0
TABLE
  2
APPID
  5
9
330
0
100
AcDbSymbolTable
 70
    1
  0
APPID
  5
12
330
9
100
AcDbSymbolTableRecord
100
AcDbRegAppTableRecord
  2
ACAD
 70
    0
  0
APPID
  5
4C
330
9
100
AcDbSymbolTableRecord
100
AcDbRegAppTableRecord
  2
LibreCad
 70
    0
  0
ENDTAB
  0
TABLE
  2
DIMSTYLE
  5
A
330
0
100
AcDbSymbolTable
 70
    1
100
AcDbDimStyleTable
 71
    1
  0
DIMSTYLE
105
4D
330
A
100
AcDbSymbolTableRecord
100
AcDbDimStyleTableRecord
  2
Standard
 70
    0
 40
1
 41
0.09375
 42
0.03125
 43
0.38
 44
0.0625
 45
0
 46
0
 47
0
 48
0
 49
1
140
0.09375
141
0.09
142
0
143
25.4
144
1
145
0
146
1
147
0.03125
148
0
 71
    0
 72
    0
 73
    0
 74
    1
 75
    0
 76
    0
 77
    0
 78
    8
 79
    0
170
    0
171
    2
172
    0
173
    0
174
    0
175
    0
176
    0
177
    0
178
    0
179
    1
271
    5
272
    4
273
    2
274
    2
275
    0
276
    0
277
    5
278
   44
279
    0
280
    0
281
    0
282
    0
283
    1
284
    0
285
    0
286
    0
288
    0
289
    3
340
romanc
341

371
   -2
372
   -2
  0
ENDTAB
  0
TABLE
  2
BLOCK_RECORD
  5
1
330
0
100
AcDbSymbolTable
 70
    2
  0
BLOCK_RECORD
  5
1F
330
1
100
AcDbSymbolTableRecord
100
AcDbBlockTableRecord
  2
*Model_Space
 70
    0
280
    1
281
    0
  0
BLOCK_RECORD
  5
1E
330
1
100
AcDbSymbolTableRecord
100
AcDbBlockTableRecord
  2
*Paper_Space
 70
    0
280
    1
281
    0
  0
ENDTAB
  0
ENDSEC
  0
SECTION
  2
BLOCKS
  0
BLOCK
  5
20
330
1F
100
AcDbEntity
  8
0
100
AcDbBlockBegin
  2
*Model_Space
 70
    0
 10
0
 20
0
 30
0
  3
*Model_Space
  1

  0
ENDBLK
  5
21
330
1F
100
AcDbEntity
  8
0
100
AcDbBlockEnd
  0
BLOCK
  5
1C
330
1B
100
AcDbEntity
  8
0
100
AcDbBlockBegin
  2
*Paper_Space
 70
    0
 10
0
 20
0
 30
0
  3
*Paper_Space
  1

  0
ENDBLK
  5
1D
330
1F
100
AcDbEntity
  8
0
100
AcDbBlockEnd
  0
ENDSEC
  0
SECTION
  2
ENTITIES
  0
LINE
  5
4E
100
AcDbEntity
  8
0
  6
ByLayer
 62
  256
370
   -1
100
AcDbLine
 10
-0.3439999999999994
 20
-1.5
 11
18.656
 21
-1.5
  0
LINE
  5
4F
100
AcDbEntity
  8
0
  6
ByLayer
 62
  256
370
   -1
100
AcDbLine
 10
18.656
 20
-1.5
 11
18.656
 21
0.25
  0
LINE
  5
50
100
AcDbEntity
  8
0
  6
ByLayer
 62
  256
370
   -1
100
AcDbLine
 10
18.656
 20
0.25
 11
-0.3439999999999994
 21
0.25
  0
LINE
  5
51
100
AcDbEntity
  8
0
  6
ByLayer
 62
  256
370
   -1
100
AcDbLine
 10
-0.3439999999999994
 20
0.25
 11
-0.3439999999999994
 21
-1.5
  0
CIRCLE
  5
52
100
AcDbEntity
  8
0
  6
ByLayer
 62
  256
370
   -1
100
AcDbCircle
 10
0
 20
0
 40
0.08475000000000001
  0
CIRCLE
  5
53
100
AcDbEntity
  8
0
  6
ByLayer
 62
  256
370
   -1
100
AcDbCircle
 10
0
 20
-1.25
 40
0.08475000000000001
  0
CIRCLE
  5
54
100
AcDbEntity
  8
0
  6
ByLayer
 62
  256
370
   -1
100
AcDbCircle
 10
18.312
 20
0
 40
0.08475000000000001
  0
CIRCLE
  5
55
100
AcDbEntity
  8
0
  6
ByLayer
 62
  256
370
   -1
100
AcDbCircle
 10
18.312
 20
-1.25
 40
0.08475000000000001
  0
LINE
  5
56
100
AcDbEntity
  8
0
  6
ByLayer
 62
  256
370
   -1
100
AcDbLine
 10
0.6560000000000006
 20
-0.625
 11
0.6560000000000006
 21
-0.105
  0
LINE
  5
57
100
AcDbEntity
  8
0
  6
ByLayer
 62
  256
370
   -1
100
AcDbLine
 10
0.6560000000000006
 20
-0.625
 11
1.275999999999999
 21
-0.625
  0
LINE
  5
58
100
AcDbEntity
  8
0
  6
ByLayer
 62
  256
370
   -1
100
AcDbLine
 10
1.275999999999999
 20
-0.625
 11
1.275999999999999
 21
-0.105
  0
LINE
  5
59
100
AcDbEntity
  8
0
  6
ByLayer
 62
  256
370
   -1
100
AcDbLine
 10
1.275999999999999
 20
-0.105
 11
0.6560000000000006
 21
-0.105
  0
LINE
  5
5A
100
AcDbEntity
  8
0
  6
ByLayer
 62
  256
370
   -1
100
AcDbLine
 10
0.7310000000000005
 20
-0.2304999999999999
 11
1.201000000000001
 21
-0.2304999999999999
  0
LINE
  5
5B
100
AcDbEntity
  8
0
  6
ByLayer
 62
  256
370
   -1
100
AcDbLine
 10
0.7310000000000005
 20
-0.2304999999999999
 11
0.7310000000000005
 21
-0.4995000000000001
  0
LINE
  5
5C
100
AcDbEntity
  8
0
  6
ByLayer
 62
  256
370
   -1
100
AcDbLine
 10
1.201000000000001
 20
-0.2304999999999999
 11
1.201000000000001
 21
-0.4995000000000001
  0
LINE
  5
5D
100
AcDbEntity
  8
0
  6
ByLayer
 62
  256
370
   -1
100
AcDbLine
 10
1.089000000000001
 20
-0.4995000000000001
 11
1.089000000000001
 21
-0.5654999999999999
  0
LINE
  5
5E
100
AcDbEntity
  8
0
  6
ByLayer
 62
  256
370
   -1
100
AcDbLine
 10
1.089000000000001
 20
-0.4995000000000001
 11
1.201000000000001
 21
-0.4995000000000001
  0
LINE
  5
5F
100
AcDbEntity
  8
0
  6
ByLayer
 62
  256
370
   -1
100
AcDbLine
 10
0.7310000000000005
 20
-0.4995000000000001
 11
0.8430000000000006
 21
-0.4995000000000001
  0
LINE
  5
60
100
AcDbEntity
  8
0
  6
ByLayer
 62
  256
370
   -1
100
AcDbLine
 10
0.8430000000000006
 20
-0.4995000000000001
 11
0.8430000000000006
 21
-0.5654999999999999
  0
LINE
  5
61
100
AcDbEntity
  8
0
  6
ByLayer
 62
  256
370
   -1
100
AcDbLine
 10
0.8860000000000017
 20
-0.6185
 11
1.046000000000002
 21
-0.6185
  0
LINE
  5
62
100
AcDbEntity
  8
0
  6
ByLayer
 62
  256
370
   -1
100
AcDbLine
 10
0.8430000000000006
 20
-0.5654999999999999
 11
0.8860000000000017
 21
-0.5654999999999999
  0
LINE
  5
63
100
AcDbEntity
  8
0
  6
ByLayer
 62
  256
370
   -1
100
AcDbLine
 10
1.046000000000002
 20
-0.5654999999999999
 11
1.089000000000001
 21
-0.5654999999999999
  0
LINE
  5
64
100
AcDbEntity
  8
0
  6
ByLayer
 62
  256
370
   -1
100
AcDbLine
 10
1.046000000000002
 20
-0.5654999999999999
 11
1.046000000000002
 21
-0.6185
  0
LINE
  5
65
100
AcDbEntity
  8
0
  6
ByLayer
 62
  256
370
   -1
100
AcDbLine
 10
0.8860000000000017
 20
-0.5654999999999999
 11
0.8860000000000017
 21
-0.6185
  0
TEXT
  5
66
100
AcDbEntity
  8
0
  6
ByLayer
 62
  256
370
   -1
100
AcDbText
 10
0.9660000000000015
 20
-0.1677500000000001
 30
0
 40
0.09375
  1
Cat 6
 50
0
 41
1
 51
0
  7
romand
 71
    0
 72
    1
 11
0.9660000000000015
 21
-0.1677500000000001
 31
0
210
0
220
0
230
1
100
AcDbText
 73
    2
  0
LINE
  5
67
100
AcDbEntity
  8
0
  6
ByLayer
 62
  256
370
   -1
100
AcDbLine
 10
1.275999999999999
 20
-0.625
 11
1.275999999999999
 21
-0.105
  0
LINE
  5
68
100
AcDbEntity
  8
0
  6
ByLayer
 62
  256
370
   -1
100
AcDbLine
 10
1.275999999999999
 20
-0.625
 11
1.895999999999999
 21
-0.625
  0
LINE
  5
69
100
AcDbEntity
  8
0
  6
ByLayer
 62
  256
370
   -1
100
AcDbLine
 10
1.895999999999999
 20
-0.625
 11
1.895999999999999
 21
-0.105
  0
LINE
  5
6A
100
AcDbEntity
  8
0
  6
ByLayer
 62
  256
370
   -1
100
AcDbLine
 10
1.895999999999999
 20
-0.105
 11
1.275999999999999
 21
-0.105
  0
LINE
  5
6B
100
AcDbEntity
  8
0
  6
ByLayer
 62
  256
370
   -1
100
AcDbLine
 10
1.351
 20
-0.2304999999999999
 11
1.821
 21
-0.2304999999999999
  0
LINE
  5
6C
100
AcDbEntity
  8
0
  6
ByLayer
 62
  256
370
   -1
100
AcDbLine
 10
1.351
 20
-0.2304999999999999
 11
1.351
 21
-0.4995000000000001
  0
LINE
  5
6D
100
AcDbEntity
  8
0
  6
ByLayer
 62
  256
370
   -1
100
AcDbLine
 10
1.821
 20
-0.2304999999999999
 11
1.821
 21
-0.4995000000000001
  0
LINE
  5
6E
100
AcDbEntity
  8
0
  6
ByLayer
 62
  256
370
   -1
100
AcDbLine
 10
1.709
 20
-0.4995000000000001
 11
1.709
 21
-0.5654999999999999
  0
LINE
  5
6F
100
AcDbEntity
  8
0
  6
ByLayer
 62
  256
370
   -1
100
AcDbLine
 10
1.709
 20
-0.4995000000000001
 11
1.821
 21
-0.4995000000000001
  0
LINE
  5
70
100
AcDbEntity
  8
0
  6
ByLayer
 62
  256
370
   -1
100
AcDbLine
 10
1.351
 20
-0.4995000000000001
 11
1.463
 21
-0.4995000000000001
  0
LINE
  5
71
100
AcDbEntity
  8
0
  6
ByLayer
 62
  256
370
   -1
100
AcDbLine
 10
1.463
 20
-0.4995000000000001
 11
1.463
 21
-0.5654999999999999
  0
LINE
  5
72
100
AcDbEntity
  8
0
  6
ByLayer
 62
  256
370
   -1
100
AcDbLine
 10
1.506000000000001
 20
-0.6185
 11
1.666
 21
-0.6185
  0
LINE
  5
73
100
AcDbEntity
  8
0
  6
ByLayer
 62
  256
370
   -1
100
AcDbLine
 10
1.463
 20
-0.5654999999999999
 11
1.506000000000001
 21
-0.5654999999999999
  0
LINE
  5
74
100
AcDbEntity
  8
0
  6
ByLayer
 62
  256
370
   -1
100
AcDbLine
 10
1.666
 20
-0.5654999999999999
 11
1.709
 21
-0.5654999999999999
  0
LINE
  5
75
100
AcDbEntity
  8
0
  6
ByLayer
 62
  256
370
   -1
100
AcDbLine
 10
1.666
 20
-0.5654999999999999
 11
1.666
 21
-0.6185
  0
LINE
  5
76
100
AcDbEntity
  8
0
  6
ByLayer
 62
  256
370
   -1
100
AcDbLine
 10
1.506000000000001
 20
-0.5654999999999999
 11
1.506000000000001
 21
-0.6185
  0
TEXT
  5
77
100
AcDbEntity
  8
0
  6
ByLayer
 62
  256
370
   -1
100
AcDbText
 10
1.586000000000001
 20
-0.1677500000000001
 30
0
 40
0.09375
  1
Cat 6
 50
0
 41
1
 51
0
  7
romand
 71
    0
 72
    1
 11
1.586000000000001
 21
-0.1677500000000001
 31
0
210
0
220
0
230
1
100
AcDbText
 73
    2
  0
LINE
  5
78
100
AcDbEntity
  8
0
  6
ByLayer
 62
  256
370
   -1
100
AcDbLine
 10
1.895999999999999
 20
-0.625
 11
1.895999999999999
 21
-0.105
  0
LINE
  5
79
100
AcDbEntity
  8
0
  6
ByLayer
 62
  256
370
   -1
100
AcDbLine
 10
1.895999999999999
 20
-0.625
 11
2.515999999999999
 21
-0.625
  0
LINE
  5
7A
100
AcDbEntity
  8
0
  6
ByLayer
 62
  256
370
   -1
100
AcDbLine
 10
2.515999999999999
 20
-0.625
 11
2.515999999999999
 21
-0.105
  0
LINE
  5
7B
100
AcDbEntity
  8
0
  6
ByLayer
 62
  256
370
   -1
100
AcDbLine
 10
2.515999999999999
 20
-0.105
 11
1.895999999999999
 21
-0.105
  0
LINE
  5
7C
100
AcDbEntity
  8
0
  6
ByLayer
 62
  256
370
   -1
100
AcDbLine
 10
1.970999999999999
 20
-0.2304999999999999
 11
2.440999999999999
 21
-0.2304999999999999
  0
LINE
  5
7D
100
AcDbEntity
  8
0
  6
ByLayer
 62
  256
370
   -1
100
AcDbLine
 10
1.970999999999999
 20
-0.2304999999999999
 11
1.970999999999999
 21
-0.4995000000000001
  0
LINE
  5
7E
100
AcDbEntity
  8
0
  6
ByLayer
 62
  256
370
   -1
100
AcDbLine
 10
2.440999999999999
 20
-0.2304999999999999
 11
2.440999999999999
 21
-0.4995000000000001
  0
LINE
  5
7F
100
AcDbEntity
  8
0
  6
ByLayer
 62
  256
370
   -1
100
AcDbLine
 10
2.329
 20
-0.4995000000000001
 11
2.329
 21
-0.5654999999999999
  0
LINE
  5
80
100
AcDbEntity
  8
0
  6
ByLayer
 62
  256
370
   -1
100
AcDbLine
 10
2.329
 20
-0.4995000000000001
 11
2.440999999999999
 21
-0.4995000000000001
  0
LINE
  5
81
100
AcDbEntity
  8
0
  6
ByLayer
 62
  256
370
   -1
100
AcDbLine
 10
1.970999999999999
 20
-0.4995000000000001
 11
2.082999999999998
 21
-0.4995000000000001
  0
LINE
  5
82
100
AcDbEntity
  8
0
  6
ByLayer
 62
  256
370
   -1
100
AcDbLine
 10
2.082999999999998
 20
-0.4995000000000001
 11
2.082999999999998
 21
-0.5654999999999999
  0
LINE
  5
83
100
AcDbEntity
  8
0
  6
ByLayer
 62
  256
370
   -1
100
AcDbLine
 10
2.125999999999999
 20
-0.6185
 11
2.286
 21
-0.6185
  0
LINE
  5
84
100
AcDbEntity
  8
0
  6
ByLayer
 62
  256
370
   -1
100
AcDbLine
 10
2.082999999999998
 20
-0.5654999999999999
 11
2.125999999999999
 21
-0.5654999999999999
  0
LINE
  5
85
100
AcDbEntity
  8
0
  6
ByLayer
 62
  256
370
   -1
100
AcDbLine
 10
2.286
 20
-0.5654999999999999
 11
2.329
 21
-0.5654999999999999
  0
LINE
  5
86
100
AcDbEntity
  8
0
  6
ByLayer
 62
  256
370
   -1
100
AcDbLine
 10
2.286
 20
-0.5654999999999999
 11
2.286
 21
-0.6185
  0
LINE
  5
87
100
AcDbEntity
  8
0
  6
ByLayer
 62
  256
370
   -1
100
AcDbLine
 10
2.125999999999999
 20
-0.5654999999999999
 11
2.125999999999999
 21
-0.6185
  0
TEXT
  5
88
100
AcDbEntity
  8
0
  6
ByLayer
 62
  256
370
   -1
100
AcDbText
 10
2.206
 20
-0.1677500000000001
 30
0
 40
0.09375
  1
Cat 6
 50
0
 41
1
 51
0
  7
romand
 71
    0
 72
    1
 11
2.206
 21
-0.1677500000000001
 31
0
210
0
220
0
230
1
100
AcDbText
 73
    2
  0
LINE
  5
89
100
AcDbEntity
  8
0
  6
ByLayer
 62
  256
370
   -1
100
AcDbLine
 10
2.515999999999999
 20
-0.625
 11
2.515999999999999
 21
-0.105
  0
LINE
  5
8A
100
AcDbEntity
  8
0
  6
ByLayer
 62
  256
370
   -1
100
AcDbLine
 10
2.515999999999999
 20
-0.625
 11
3.135999999999997
 21
-0.625
  0
LINE
  5
8B
100
AcDbEntity
  8
0
  6
ByLayer
 62
  256
370
   -1
100
AcDbLine
 10
3.135999999999997
 20
-0.625
 11
3.135999999999997
 21
-0.105
  0
LINE
  5
8C
100
AcDbEntity
  8
0
  6
ByLayer
 62
  256
370
   -1
100
AcDbLine
 10
3.135999999999997
 20
-0.105
 11
2.515999999999999
 21
-0.105
  0
LINE
  5
8D
100
AcDbEntity
  8
0
  6
ByLayer
 62
  256
370
   -1
100
AcDbLine
 10
2.590999999999998
 20
-0.2304999999999999
 11
3.060999999999999
 21
-0.2304999999999999
  0
LINE
  5
8E
100
AcDbEntity
  8
0
  6
ByLayer
 62
  256
370
   -1
100
AcDbLine
 10
2.590999999999998
 20
-0.2304999999999999
 11
2.590999999999998
 21
-0.4995000000000001
  0
LINE
  5
8F
100
AcDbEntity
  8
0
  6
ByLayer
 62
  256
370
   -1
100
AcDbLine
 10
3.060999999999999
 20
-0.2304999999999999
 11
3.060999999999999
 21
-0.4995000000000001
  0
LINE
  5
90
100
AcDbEntity
  8
0
  6
ByLayer
 62
  256
370
   -1
100
AcDbLine
 10
2.948999999999999
 20
-0.4995000000000001
 11
2.948999999999999
 21
-0.5654999999999999
  0
LINE
  5
91
100
AcDbEntity
  8
0
  6
ByLayer
 62
  256
370
   -1
100
AcDbLine
 10
2.948999999999999
 20
-0.4995000000000001
 11
3.060999999999999
 21
-0.4995000000000001
  0
LINE
  5
92
100
AcDbEntity
  8
0
  6
ByLayer
 62
  256
370
   -1
100
AcDbLine
 10
2.590999999999998
 20
-0.4995000000000001
 11
2.702999999999998
 21
-0.4995000000000001
  0
LINE
  5
93
100
AcDbEntity
  8
0
  6
ByLayer
 62
  256
370
   -1
100
AcDbLine
 10
2.702999999999998
 20
-0.4995000000000001
 11
2.702999999999998
 21
-0.5654999999999999
  0
LINE
  5
94
100
AcDbEntity
  8
0
  6
ByLayer
 62
  256
370
   -1
100
AcDbLine
 10
2.746
 20
-0.6185
 11
2.905999999999997
 21
-0.6185
  0
LINE
  5
95
100
AcDbEntity
  8
0
  6
ByLayer
 62
  256
370
   -1
100
AcDbLine
 10
2.702999999999998
 20
-0.5654999999999999
 11
2.746
 21
-0.5654999999999999
  0
LINE
  5
96
100
AcDbEntity
  8
0
  6
ByLayer
 62
  256
370
   -1
100
AcDbLine
 10
2.905999999999997
 20
-0.5654999999999999
 11
2.948999999999999
 21
-0.5654999999999999
  0
LINE
  5
97
100
AcDbEntity
  8
0
  6
ByLayer
 62
  256
370
   -1
100
AcDbLine
 10
2.905999999999997
 20
-0.5654999999999999
 11
2.905999999999997
 21
-0.6185
  0
LINE
  5
98
100
AcDbEntity
  8
0
  6
ByLayer
 62
  256
370
   -1
100
AcDbLine
 10
2.746
 20
-0.5654999999999999
 11
2.746
 21
-0.6185
  0
TEXT
  5
99
100
AcDbEntity
  8
0
  6
ByLayer
 62
  256
370
   -1
100
AcDbText
 10
2.825999999999999
 20
-0.1677500000000001
 30
0
 40
0.09375
  1
Cat 6
 50
0
 41
1
 51
0
  7
romand
 71
    0
 72
    1
 11
2.825999999999999
 21
-0.1677500000000001
 31
0
210
0
220
0
230
1
100
AcDbText
 73
    2
  0
LINE
  5
9A
100
AcDbEntity
  8
0
  6
ByLayer
 62
  256
370
   -1
100
AcDbLine
 10
3.135999999999997
 20
-0.625
 11
3.135999999999997
 21
-0.105
  0
LINE
  5
9B
100
AcDbEntity
  8
0
  6
ByLayer
 62
  256
370
   -1
100
AcDbLine
 10
3.135999999999997
 20
-0.625
 11
3.755999999999997
 21
-0.625
  0
LINE
  5
9C
100
AcDbEntity
  8
0
  6
ByLayer
 62
  256
370
   -1
100
AcDbLine
 10
3.755999999999997
 20
-0.625
 11
3.755999999999997
 21
-0.105
  0
LINE
  5
9D
100
AcDbEntity
  8
0
  6
ByLayer
 62
  256
370
   -1
100
AcDbLine
 10
3.755999999999997
 20
-0.105
 11
3.135999999999997
 21
-0.105
  0
LINE
  5
9E
100
AcDbEntity
  8
0
  6
ByLayer
 62
  256
370
   -1
100
AcDbLine
 10
3.210999999999997
 20
-0.2304999999999999
 11
3.680999999999997
 21
-0.2304999999999999
  0
LINE
  5
9F
100
AcDbEntity
  8
0
  6
ByLayer
 62
  256
370
   -1
100
AcDbLine
 10
3.210999999999997
 20
-0.2304999999999999
 11
3.210999999999997
 21
-0.4995000000000001
  0
LINE
  5
A0
100
AcDbEntity
  8
0
  6
ByLayer
 62
  256
370
   -1
100
AcDbLine
 10
3.680999999999997
 20
-0.2304999999999999
 11
3.680999999999997
 21
-0.4995000000000001
  0
LINE
  5
A1
100
AcDbEntity
  8
0
  6
ByLayer
 62
  256
370
   -1
100
AcDbLine
 10
3.568999999999998
 20
-0.4995000000000001
 11
3.568999999999998
 21
-0.5654999999999999
  0
LINE
  5
A2
100
AcDbEntity
  8
0
  6
ByLayer
 62
  256
370
   -1
100
AcDbLine
 10
3.568999999999998
 20
-0.4995000000000001
 11
3.680999999999997
 21
-0.4995000000000001
  0
LINE
  5
A3
100
AcDbEntity
  8
0
  6
ByLayer
 62
  256
370
   -1
100
AcDbLine
 10
3.210999999999997
 20
-0.4995000000000001
 11
3.322999999999999
 21
-0.4995000000000001
  0
LINE
  5
A4
100
AcDbEntity
  8
0
  6
ByLayer
 62
  256
370
   -1
100
AcDbLine
 10
3.322999999999999
 20
-0.4995000000000001
 11
3.322999999999999
 21
-0.5654999999999999
  0
LINE
  5
A5
100
AcDbEntity
  8
0
  6
ByLayer
 62
  256
370
   -1
100
AcDbLine
 10
3.365999999999999
 20
-0.6185
 11
3.525999999999998
 21
-0.6185
  0
LINE
  5
A6
100
AcDbEntity
  8
0
  6
ByLayer
 62
  256
370
   -1
100
AcDbLine
 10
3.322999999999999
 20
-0.5654999999999999
 11
3.365999999999999
 21
-0.5654999999999999
  0
LINE
  5
A7
100
AcDbEntity
  8
0
  6
ByLayer
 62
  256
370
   -1
100
AcDbLine
 10
3.525999999999998
 20
-0.5654999999999999
 11
3.568999999999998
 21
-0.5654999999999999
  0
LINE
  5
A8
100
AcDbEntity
  8
0
  6
ByLayer
 62
  256
370
   -1
100
AcDbLine
 10
3.525999999999998
 20
-0.5654999999999999
 11
3.525999999999998
 21
-0.6185
  0
LINE
  5
A9
100
AcDbEntity
  8
0
  6
ByLayer
 62
  256
370
   -1
100
AcDbLine
 10
3.365999999999999
 20
-0.5654999999999999
 11
3.365999999999999
 21
-0.6185
  0
TEXT
  5
AA
100
AcDbEntity
  8
0
  6
ByLayer
 62
  256
370
   -1
100
AcDbText
 10
3.445999999999998
 20
-0.1677500000000001
 30
0
 40
0.09375
  1
Cat 6
 50
0
 41
1
 51
0
  7
romand
 71
    0
 72
    1
 11
3.445999999999998
 21
-0.1677500000000001
 31
0
210
0
220
0
230
1
100
AcDbText
 73
    2
  0
LINE
  5
AB
100
AcDbEntity
  8
0
  6
ByLayer
 62
  256
370
   -1
100
AcDbLine
 10
3.755999999999997
 20
-0.625
 11
3.755999999999997
 21
-0.105
  0
LINE
  5
AC
100
AcDbEntity
  8
0
  6
ByLayer
 62
  256
370
   -1
100
AcDbLine
 10
3.755999999999997
 20
-0.625
 11
4.375999999999996
 21
-0.625
  0
LINE
  5
AD
100
AcDbEntity
  8
0
  6
ByLayer
 62
  256
370
   -1
100
AcDbLine
 10
4.375999999999996
 20
-0.625
 11
4.375999999999996
 21
-0.105
  0
LINE
  5
AE
100
AcDbEntity
  8
0
  6
ByLayer
 62
  256
370
   -1
100
AcDbLine
 10
4.375999999999996
 20
-0.105
 11
3.755999999999997
 21
-0.105
  0
LINE
  5
AF
100
AcDbEntity
  8
0
  6
ByLayer
 62
  256
370
   -1
100
AcDbLine
 10
3.830999999999996
 20
-0.2304999999999999
 11
4.300999999999997
 21
-0.2304999999999999
  0
LINE
  5
B0
100
AcDbEntity
  8
0
  6
ByLayer
 62
  256
370
   -1
100
AcDbLine
 10
3.830999999999996
 20
-0.2304999999999999
 11
3.830999999999996
 21
-0.4995000000000001
  0
LINE
  5
B1
100
AcDbEntity
  8
0
  6
ByLayer
 62
  256
370
   -1
100
AcDbLine
 10
4.300999999999997
 20
-0.2304999999999999
 11
4.300999999999997
 21
-0.4995000000000001
  0
LINE
  5
B2
100
AcDbEntity
  8
0
  6
ByLayer
 62
  256
370
   -1
100
AcDbLine
 10
4.188999999999997
 20
-0.4995000000000001
 11
4.188999999999997
 21
-0.5654999999999999
  0
LINE
  5
B3
100
AcDbEntity
  8
0
  6
ByLayer
 62
  256
370
   -1
100
AcDbLine
 10
4.188999999999997
 20
-0.4995000000000001
 11
4.300999999999997
 21
-0.4995000000000001
  0
LINE
  5
B4
100
AcDbEntity
  8
0
  6
ByLayer
 62
  256
370
   -1
100
AcDbLine
 10
3.830999999999996
 20
-0.4995000000000001
 11
3.942999999999995
 21
-0.4995000000000001
  0
LINE
  5
B5
100
AcDbEntity
  8
0
  6
ByLayer
 62
  256
370
   -1
100
AcDbLine
 10
3.942999999999995
 20
-0.4995000000000001
 11
3.942999999999995
 21
-0.5654999999999999
  0
LINE
  5
B6
100
AcDbEntity
  8
0
  6
ByLayer
 62
  256
370
   -1
100
AcDbLine
 10
3.985999999999995
 20
-0.6185
 11
4.145999999999997
 21
-0.6185
  0
LINE
  5
B7
100
AcDbEntity
  8
0
  6
ByLayer
 62
  256
370
   -1
100
AcDbLine
 10
3.942999999999995
 20
-0.5654999999999999
 11
3.985999999999995
 21
-0.5654999999999999
  0
LINE
  5
B8
100
AcDbEntity
  8
0
  6
ByLayer
 62
  256
370
   -1
100
AcDbLine
 10
4.145999999999997
 20
-0.5654999999999999
 11
4.188999999999997
 21
-0.5654999999999999
  0
LINE
  5
B9
100
AcDbEntity
  8
0
  6
ByLayer
 62
  256
370
   -1
100
AcDbLine
 10
4.145999999999997
 20
-0.5654999999999999
 11
4.145999999999997
 21
-0.6185
  0
LINE
  5
BA
100
AcDbEntity
  8
0
  6
ByLayer
 62
  256
370
   -1
100
AcDbLine
 10
3.985999999999995
 20
-0.5654999999999999
 11
3.985999999999995
 21
-0.6185
  0
TEXT
  5
BB
100
AcDbEntity
  8
0
  6
ByLayer
 62
  256
370
   -1
100
AcDbText
 10
4.065999999999997
 20
-0.1677500000000001
 30
0
 40
0.09375
  1
Cat 6
 50
0
 41
1
 51
0
  7
romand
 71
    0
 72
    1
 11
4.065999999999997
 21
-0.1677500000000001
 31
0
210
0
220
0
230
1
100
AcDbText
 73
    2
  0
LINE
  5
BC
100
AcDbEntity
  8
0
  6
ByLayer
 62
  256
370
   -1
100
AcDbLine
 10
0.6560000000000006
 20
-1.145
 11
0.6560000000000006
 21
-0.625
  0
LINE
  5
BD
100
AcDbEntity
  8
0
  6
ByLayer
 62
  256
370
   -1
100
AcDbLine
 10
0.6560000000000006
 20
-1.145
 11
1.275999999999999
 21
-1.145
  0
LINE
  5
BE
100
AcDbEntity
  8
0
  6
ByLayer
 62
  256
370
   -1
100
AcDbLine
 10
1.275999999999999
 20
-1.145
 11
1.275999999999999
 21
-0.625
  0
LINE
  5
BF
100
AcDbEntity
  8
0
  6
ByLayer
 62
  256
370
   -1
100
AcDbLine
 10
1.275999999999999
 20
-0.625
 11
0.6560000000000006
 21
-0.625
  0
LINE
  5
C0
100
AcDbEntity
  8
0
  6
ByLayer
 62
  256
370
   -1
100
AcDbLine
 10
0.7310000000000005
 20
-0.7504999999999999
 11
1.201000000000001
 21
-0.7504999999999999
  0
LINE
  5
C1
100
AcDbEntity
  8
0
  6
ByLayer
 62
  256
370
   -1
100
AcDbLine
 10
0.7310000000000005
 20
-0.7504999999999999
 11
0.7310000000000005
 21
-1.0195
  0
LINE
  5
C2
100
AcDbEntity
  8
0
  6
ByLayer
 62
  256
370
   -1
100
AcDbLine
 10
1.201000000000001
 20
-0.7504999999999999
 11
1.201000000000001
 21
-1.0195
  0
LINE
  5
C3
100
AcDbEntity
  8
0
  6
ByLayer
 62
  256
370
   -1
100
AcDbLine
 10
1.089000000000001
 20
-1.0195
 11
1.089000000000001
 21
-1.0855
  0
LINE
  5
C4
100
AcDbEntity
  8
0
  6
ByLayer
 62
  256
370
   -1
100
AcDbLine
 10
1.089000000000001
 20
-1.0195
 11
1.201000000000001
 21
-1.0195
  0
LINE
  5
C5
100
AcDbEntity
  8
0
  6
ByLayer
 62
  256
370
   -1
100
AcDbLine
 10
0.7310000000000005
 20
-1.0195
 11
0.8430000000000006
 21
-1.0195
  0
LINE
  5
C6
100
AcDbEntity
  8
0
  6
ByLayer
 62
  256
370
   -1
100
AcDbLine
 10
0.8430000000000006
 20
-1.0195
 11
0.8430000000000006
 21
-1.0855
  0
LINE
  5
C7
100
AcDbEntity
  8
0
  6
ByLayer
 62
  256
370
   -1
100
AcDbLine
 10
0.8860000000000017
 20
-1.1385
 11
1.046000000000002
 21
-1.1385
  0
LINE
  5
C8
100
AcDbEntity
  8
0
  6
ByLayer
 62
  256
370
   -1
100
AcDbLine
 10
0.8430000000000006
 20
-1.0855
 11
0.8860000000000017
 21
-1.0855
  0
LINE
  5
C9
100
AcDbEntity
  8
0
  6
ByLayer
 62
  256
370
   -1
100
AcDbLine
 10
1.046000000000002
 20
-1.0855
 11
1.089000000000001
 21
-1.0855
  0
LINE
  5
CA
100
AcDbEntity
  8
0
  6
ByLayer
 62
  256
370
   -1
100
AcDbLine
 10
1.046000000000002
 20
-1.0855
 11
1.046000000000002
 21
-1.1385
  0
LINE
  5
CB
100
AcDbEntity
  8
0
  6
ByLayer
 62
  256
370
   -1
100
AcDbLine
 10
0.8860000000000017
 20
-1.0855
 11
0.8860000000000017
 21
-1.1385
  0
TEXT
  5
CC
100
AcDbEntity
  8
0
  6
ByLayer
 62
  256
370
   -1
100
AcDbText
 10
0.9660000000000015
 20
-0.6877500000000001
 30
0
 40
0.09375
  1
Cat 6
 50
0
 41
1
 51
0
  7
romand
 71
    0
 72
    1
 11
0.9660000000000015
 21
-0.6877500000000001
 31
0
210
0
220
0
230
1
100
AcDbText
 73
    2
  0
LINE
  5
CD
100
AcDbEntity
  8
0
  6
ByLayer
 62
  256
370
   -1
100
AcDbLine
 10
1.275999999999999
 20
-1.145
 11
1.275999999999999
 21
-0.625
  0
LINE
  5
CE
100
AcDbEntity
  8
0
  6
ByLayer
 62
  256
370
   -1
100
AcDbLine
 10
1.275999999999999
 20
-1.145
 11
1.895999999999999
 21
-1.145
  0
LINE
  5
CF
100
AcDbEntity
  8
0
  6
ByLayer
 62
  256
370
   -1
100
AcDbLine
 10
1.895999999999999
 20
-1.145
 11
1.895999999999999
 21
-0.625
  0
LINE
  5
D0
100
AcDbEntity
  8
0
  6
ByLayer
 62
  256
370
   -1
100
AcDbLine
 10
1.895999999999999
 20
-0.625
 11
1.275999999999999
 21
-0.625
  0
LINE
  5
D1
100
AcDbEntity
  8
0
  6
ByLayer
 62
  256
370
   -1
100
AcDbLine
 10
1.351
 20
-0.7504999999999999
 11
1.821
 21
-0.7504999999999999
  0
LINE
  5
D2
100
AcDbEntity
  8
0
  6
ByLayer
 62
  256
370
   -1
100
AcDbLine
 10
1.351
 20
-0.7504999999999999
 11
1.351
 21
-1.0195
  0
LINE
  5
D3
100
AcDbEntity
  8
0
  6
ByLayer
 62
  256
370
   -1
100
AcDbLine
 10
1.821
 20
-0.7504999999999999
 11
1.821
 21
-1.0195
  0
LINE
  5
D4
100
AcDbEntity
  8
0
  6
ByLayer
 62
  256
370
   -1
100
AcDbLine
 10
1.709
 20
-1.0195
 11
1.709
 21
-1.0855
  0
LINE
  5
D5
100
AcDbEntity
  8
0
  6
ByLayer
 62
  256
370
   -1
100
AcDbLine
 10
1.709
 20
-1.0195
 11
1.821
 21
-1.0195
  0
LINE
  5
D6
100
AcDbEntity
  8
0
  6
ByLayer
 62
  256
370
   -1
100
AcDbLine
 10
1.351
 20
-1.0195
 11
1.463
 21
-1.0195
  0
LINE
  5
D7
100
AcDbEntity
  8
0
  6
ByLayer
 62
  256
370
   -1
100
AcDbLine
 10
1.463
 20
-1.0195
 11
1.463
 21
-1.0855
  0
LINE
  5
D8
100
AcDbEntity
  8
0
  6
ByLayer
 62
  256
370
   -1
100
AcDbLine
 10
1.506000000000001
 20
-1.1385
 11
1.666
 21
-1.1385
  0
LINE
  5
D9
100
AcDbEntity
  8
0
  6
ByLayer
 62
  256
370
   -1
100
AcDbLine
 10
1.463
 20
-1.0855
 11
1.506000000000001
 21
-1.0855
  0
LINE
  5
DA
100
AcDbEntity
  8
0
  6
ByLayer
 62
  256
370
   -1
100
AcDbLine
 10
1.666
 20
-1.0855
 11
1.709
 21
-1.0855
  0
LINE
  5
DB
100
AcDbEntity
  8
0
  6
ByLayer
 62
  256
370
   -1
100
AcDbLine
 10
1.666
 20
-1.0855
 11
1.666
 21
-1.1385
  0
LINE
  5
DC
100
AcDbEntity
  8
0
  6
ByLayer
 62
  256
370
   -1
100
AcDbLine
 10
1.506000000000001
 20
-1.0855
 11
1.506000000000001
 21
-1.1385
  0
TEXT
  5
DD
100
AcDbEntity
  8
0
  6
ByLayer
 62
  256
370
   -1
100
AcDbText
 10
1.586000000000001
 20
-0.6877500000000001
 30
0
 40
0.09375
  1
Cat 6
 50
0
 41
1
 51
0
  7
romand
 71
    0
 72
    1
 11
1.586000000000001
 21
-0.6877500000000001
 31
0
210
0
220
0
230
1
100
AcDbText
 73
    2
  0
LINE
  5
DE
100
AcDbEntity
  8
0
  6
ByLayer
 62
  256
370
   -1
100
AcDbLine
 10
1.895999999999999
 20
-1.145
 11
1.895999999999999
 21
-0.625
  0
LINE
  5
DF
100
AcDbEntity
  8
0
  6
ByLayer
 62
  256
370
   -1
100
AcDbLine
 10
1.895999999999999
 20
-1.145
 11
2.515999999999999
 21
-1.145
  0
LINE
  5
E0
100
AcDbEntity
  8
0
  6
ByLayer
 62
  256
370
   -1
100
AcDbLine
 10
2.515999999999999
 20
-1.145
 11
2.515999999999999
 21
-0.625
  0
LINE
  5
E1
100
AcDbEntity
  8
0
  6
ByLayer
 62
  256
370
   -1
100
AcDbLine
 10
2.515999999999999
 20
-0.625
 11
1.895999999999999
 21
-0.625
  0
LINE
  5
E2
100
AcDbEntity
  8
0
  6
ByLayer
 62
  256
370
   -1
100
AcDbLine
 10
1.970999999999999
 20
-0.7504999999999999
 11
2.440999999999999
 21
-0.7504999999999999
  0
LINE
  5
E3
100
AcDbEntity
  8
0
  6
ByLayer
 62
  256
370
   -1
100
AcDbLine
 10
1.970999999999999
 20
-0.7504999999999999
 11
1.970999999999999
 21
-1.0195
  0
LINE
  5
E4
100
AcDbEntity
  8
0
  6
ByLayer
 62
  256
370
   -1
100
AcDbLine
 10
2.440999999999999
 20
-0.7504999999999999
 11
2.440999999999999
 21
-1.0195
  0
LINE
  5
E5
100
AcDbEntity
  8
0
  6
ByLayer
 62
  256
370
   -1
100
AcDbLine
 10
2.329
 20
-1.0195
 11
2.329
 21
-1.0855
  0
LINE
  5
E6
100
AcDbEntity
  8
0
  6
ByLayer
 62
  256
370
   -1
100
AcDbLine
 10
2.329
 20
-1.0195
 11
2.440999999999999
 21
-1.0195
  0
LINE
  5
E7
100
AcDbEntity
  8
0
  6
ByLayer
 62
  256
370
   -1
100
AcDbLine
 10
1.970999999999999
 20
-1.0195
 11
2.082999999999998
 21
-1.0195
  0
LINE
  5
E8
100
AcDbEntity
  8
0
  6
ByLayer
 62
  256
370
   -1
100
AcDbLine
 10
2.082999999999998
 20
-1.0195
 11
2.082999999999998
 21
-1.0855
  0
LINE
  5
E9
100
AcDbEntity
  8
0
  6
ByLayer
 62
  256
370
   -1
100
AcDbLine
 10
2.125999999999999
 20
-1.1385
 11
2.286
 21
-1.1385
  0
LINE
  5
EA
100
AcDbEntity
  8
0
  6
ByLayer
 62
  256
370
   -1
100
AcDbLine
 10
2.082999999999998
 20
-1.0855
 11
2.125999999999999
 21
-1.0855
  0
LINE
  5
EB
100
AcDbEntity
  8
0
  6
ByLayer
 62
  256
370
   -1
100
AcDbLine
 10
2.286
 20
-1.0855
 11
2.329
 21
-1.0855
  0
LINE
  5
EC
100
AcDbEntity
  8
0
  6
ByLayer
 62
  256
370
   -1
100
AcDbLine
 10
2.286
 20
-1.0855
 11
2.286
 21
-1.1385
  0
LINE
  5
ED
100
AcDbEntity
  8
0
  6
ByLayer
 62
  256
370
   -1
100
AcDbLine
 10
2.125999999999999
 20
-1.0855
 11
2.125999999999999
 21
-1.1385
  0
TEXT
  5
EE
100
AcDbEntity
  8
0
  6
ByLayer
 62
  256
370
   -1
100
AcDbText
 10
2.206
 20
-0.6877500000000001
 30
0
 40
0.09375
  1
Cat 6
 50
0
 41
1
 51
0
  7
romand
 71
    0
 72
    1
 11
2.206
 21
-0.6877500000000001
 31
0
210
0
220
0
230
1
100
AcDbText
 73
    2
  0
LINE
  5
EF
100
AcDbEntity
  8
0
  6
ByLayer
 62
  256
370
   -1
100
AcDbLine
 10
2.515999999999999
 20
-1.145
 11
2.515999999999999
 21
-0.625
  0
LINE
  5
F0
100
AcDbEntity
  8
0
  6
ByLayer
 62
  256
370
   -1
100
AcDbLine
 10
2.515999999999999
 20
-1.145
 11
3.135999999999997
 21
-1.145
  0
LINE
  5
F1
100
AcDbEntity
  8
0
  6
ByLayer
 62
  256
370
   -1
100
AcDbLine
 10
3.135999999999997
 20
-1.145
 11
3.135999999999997
 21
-0.625
  0
LINE
  5
F2
100
AcDbEntity
  8
0
  6
ByLayer
 62
  256
370
   -1
100
AcDbLine
 10
3.135999999999997
 20
-0.625
 11
2.515999999999999
 21
-0.625
  0
LINE
  5
F3
100
AcDbEntity
  8
0
  6
ByLayer
 62
  256
370
   -1
100
AcDbLine
 10
2.590999999999998
 20
-0.7504999999999999
 11
3.060999999999999
 21
-0.7504999999999999
  0
LINE
  5
F4
100
AcDbEntity
  8
0
  6
ByLayer
 62
  256
370
   -1
100
AcDbLine
 10
2.590999999999998
 20
-0.7504999999999999
 11
2.590999999999998
 21
-1.0195
  0
LINE
  5
F5
100
AcDbEntity
  8
0
  6
ByLayer
 62
  256
370
   -1
100
AcDbLine
 10
3.060999999999999
 20
-0.7504999999999999
 11
3.060999999999999
 21
-1.0195
  0
LINE
  5
F6
100
AcDbEntity
  8
0
  6
ByLayer
 62
  256
370
   -1
100
AcDbLine
 10
2.948999999999999
 20
-1.0195
 11
2.948999999999999
 21
-1.0855
  0
LINE
  5
F7
100
AcDbEntity
  8
0
  6
ByLayer
 62
  256
370
   -1
100
AcDbLine
 10
2.948999999999999
 20
-1.0195
 11
3.060999999999999
 21
-1.0195
  0
LINE
  5
F8
100
AcDbEntity
  8
0
  6
ByLayer
 62
  256
370
   -1
100
AcDbLine
 10
2.590999999999998
 20
-1.0195
 11
2.702999999999998
 21
-1.0195
  0
LINE
  5
F9
100
AcDbEntity
  8
0
  6
ByLayer
 62
  256
370
   -1
100
AcDbLine
 10
2.702999999999998
 20
-1.0195
 11
2.702999999999998
 21
-1.0855
  0
LINE
  5
FA
100
AcDbEntity
  8
0
  6
ByLayer
 62
  256
370
   -1
100
AcDbLine
 10
2.746
 20
-1.1385
 11
2.905999999999997
 21
-1.1385
  0
LINE
  5
FB
100
AcDbEntity
  8
0
  6
ByLayer
 62
  256
370
   -1
100
AcDbLine
 10
2.702999999999998
 20
-1.0855
 11
2.746
 21
-1.0855
  0
LINE
  5
FC
100
AcDbEntity
  8
0
  6
ByLayer
 62
  256
370
   -1
100
AcDbLine
 10
2.905999999999997
 20
-1.0855
 11
2.948999999999999
 21
-1.0855
  0
LINE
  5
FD
100
AcDbEntity
  8
0
  6
ByLayer
 62
  256
370
   -1
100
AcDbLine
 10
2.905999999999997
 20
-1.0855
 11
2.905999999999997
 21
-1.1385
  0
LINE
  5
FE
100
AcDbEntity
  8
0
  6
ByLayer
 62
  256
370
   -1
100
AcDbLine
 10
2.746
 20
-1.0855
 11
2.746
 21
-1.1385
  0
TEXT
  5
FF
100
AcDbEntity
  8
0
  6
ByLayer
 62
  256
370
   -1
100
AcDbText
 10
2.825999999999999
 20
-0.6877500000000001
 30
0
 40
0.09375
  1
Cat 6
 50
0
 41
1
 51
0
  7
romand
 71
    0
 72
    1
 11
2.825999999999999
 21
-0.6877500000000001
 31
0
210
0
220
0
230
1
100
AcDbText
 73
    2
  0
LINE
  5
100
100
AcDbEntity
  8
0
  6
ByLayer
 62
  256
370
   -1
100
AcDbLine
 10
3.135999999999997
 20
-1.145
 11
3.135999999999997
 21
-0.625
  0
LINE
  5
101
100
AcDbEntity
  8
0
  6
ByLayer
 62
  256
370
   -1
100
AcDbLine
 10
3.135999999999997
 20
-1.145
 11
3.755999999999997
 21
-1.145
  0
LINE
  5
102
100
AcDbEntity
  8
0
  6
ByLayer
 62
  256
370
   -1
100
AcDbLine
 10
3.755999999999997
 20
-1.145
 11
3.755999999999997
 21
-0.625
  0
LINE
  5
103
100
AcDbEntity
  8
0
  6
ByLayer
 62
  256
370
   -1
100
AcDbLine
 10
3.755999999999997
 20
-0.625
 11
3.135999999999997
 21
-0.625
  0
LINE
  5
104
100
AcDbEntity
  8
0
  6
ByLayer
 62
  256
370
   -1
100
AcDbLine
 10
3.210999999999997
 20
-0.7504999999999999
 11
3.680999999999997
 21
-0.7504999999999999
  0
LINE
  5
105
100
AcDbEntity
  8
0
  6
ByLayer
 62
  256
370
   -1
100
AcDbLine
 10
3.210999999999997
 20
-0.7504999999999999
 11
3.210999999999997
 21
-1.0195
  0
LINE
  5
106
100
AcDbEntity
  8
0
  6
ByLayer
 62
  256
370
   -1
100
AcDbLine
 10
3.680999999999997
 20
-0.7504999999999999
 11
3.680999999999997
 21
-1.0195
  0
LINE
  5
107
100
AcDbEntity
  8
0
  6
ByLayer
 62
  256
370
   -1
100
AcDbLine
 10
3.568999999999998
 20
-1.0195
 11
3.568999999999998
 21
-1.0855
  0
LINE
  5
108
100
AcDbEntity
  8
0
  6
ByLayer
 62
  256
370
   -1
100
AcDbLine
 10
3.568999999999998
 20
-1.0195
 11
3.680999999999997
 21
-1.0195
  0
LINE
  5
109
100
AcDbEntity
  8
0
  6
ByLayer
 62
  256
370
   -1
100
AcDbLine
 10
3.210999999999997
 20
-1.0195
 11
3.322999999999999
 21
-1.0195
  0
LINE
  5
10A
100
AcDbEntity
  8
0
  6
ByLayer
 62
  256
370
   -1
100
AcDbLine
 10
3.322999999999999
 20
-1.0195
 11
3.322999999999999
 21
-1.0855
  0
LINE
  5
10B
100
AcDbEntity
  8
0
  6
ByLayer
 62
  256
370
   -1
100
AcDbLine
 10
3.365999999999999
 20
-1.1385
 11
3.525999999999998
 21
-1.1385
  0
LINE
  5
10C
100
AcDbEntity
  8
0
  6
ByLayer
 62
  256
370
   -1
100
AcDbLine
 10
3.322999999999999
 20
-1.0855
 11
3.365999999999999
 21
-1.0855
  0
LINE
  5
10D
100
AcDbEntity
  8
0
  6
ByLayer
 62
  256
370
   -1
100
AcDbLine
 10
3.525999999999998
 20
-1.0855
 11
3.568999999999998
 21
-1.0855
  0
LINE
  5
10E
100
AcDbEntity
  8
0
  6
ByLayer
 62
  256
370
   -1
100
AcDbLine
 10
3.525999999999998
 20
-1.0855
 11
3.525999999999998
 21
-1.1385
  0
LINE
  5
10F
100
AcDbEntity
  8
0
  6
ByLayer
 62
  256
370
   -1
100
AcDbLine
 10
3.365999999999999
 20
-1.0855
 11
3.365999999999999
 21
-1.1385
  0
TEXT
  5
110
100
AcDbEntity
  8
0
  6
ByLayer
 62
  256
370
   -1
100
AcDbText
 10
3.445999999999998
 20
-0.6877500000000001
 30
0
 40
0.09375
  1
Cat 6
 50
0
 41
1
 51
0
  7
romand
 71
    0
 72
    1
 11
3.445999999999998
 21
-0.6877500000000001
 31
0
210
0
220
0
230
1
100
AcDbText
 73
    2
  0
LINE
  5
111
100
AcDbEntity
  8
0
  6
ByLayer
 62
  256
370
   -1
100
AcDbLine
 10
3.755999999999997
 20
-1.145
 11
3.755999999999997
 21
-0.625
  0
LINE
  5
112
100
AcDbEntity
  8
0
  6
ByLayer
 62
  256
370
   -1
100
AcDbLine
 10
3.755999999999997
 20
-1.145
 11
4.375999999999996
 21
-1.145
  0
LINE
  5
113
100
AcDbEntity
  8
0
  6
ByLayer
 62
  256
370
   -1
100
AcDbLine
 10
4.375999999999996
 20
-1.145
 11
4.375999999999996
 21
-0.625
  0
LINE
  5
114
100
AcDbEntity
  8
0
  6
ByLayer
 62
  256
370
   -1
100
AcDbLine
 10
4.375999999999996
 20
-0.625
 11
3.755999999999997
 21
-0.625
  0
LINE
  5
115
100
AcDbEntity
  8
0
  6
ByLayer
 62
  256
370
   -1
100
AcDbLine
 10
3.830999999999996
 20
-0.7504999999999999
 11
4.300999999999997
 21
-0.7504999999999999
  0
LINE
  5
116
100
AcDbEntity
  8
0
  6
ByLayer
 62
  256
370
   -1
100
AcDbLine
 10
3.830999999999996
 20
-0.7504999999999999
 11
3.830999999999996
 21
-1.0195
  0
LINE
  5
117
100
AcDbEntity
  8
0
  6
ByLayer
 62
  256
370
   -1
100
AcDbLine
 10
4.300999999999997
 20
-0.7504999999999999
 11
4.300999999999997
 21
-1.0195
  0
LINE
  5
118
100
AcDbEntity
  8
0
  6
ByLayer
 62
  256
370
   -1
100
AcDbLine
 10
4.188999999999997
 20
-1.0195
 11
4.188999999999997
 21
-1.0855
  0
LINE
  5
119
100
AcDbEntity
  8
0
  6
ByLayer
 62
  256
370
   -1
100
AcDbLine
 10
4.188999999999997
 20
-1.0195
 11
4.300999999999997
 21
-1.0195
  0
LINE
  5
11A
100
AcDbEntity
  8
0
  6
ByLayer
 62
  256
370
   -1
100
AcDbLine
 10
3.830999999999996
 20
-1.0195
 11
3.942999999999995
 21
-1.0195
  0
LINE
  5
11B
100
AcDbEntity
  8
0
  6
ByLayer
 62
  256
370
   -1
100
AcDbLine
 10
3.942999999999995
 20
-1.0195
 11
3.942999999999995
 21
-1.0855
  0
LINE
  5
11C
100
AcDbEntity
  8
0
  6
ByLayer
 62
  256
370
   -1
100
AcDbLine
 10
3.985999999999995
 20
-1.1385
 11
4.145999999999997
 21
-1.1385
  0
LINE
  5
11D
100
AcDbEntity
  8
0
  6
ByLayer
 62
  256
370
   -1
100
AcDbLine
 10
3.942999999999995
 20
-1.0855
 11
3.985999999999995
 21
-1.0855
  0
LINE
  5
11E
100
AcDbEntity
  8
0
  6
ByLayer
 62
  256
370
   -1
100
AcDbLine
 10
4.145999999999997
 20
-1.0855
 11
4.188999999999997
 21
-1.0855
  0
LINE
  5
11F
100
AcDbEntity
  8
0
  6
ByLayer
 62
  256
370
   -1
100
AcDbLine
 10
4.145999999999997
 20
-1.0855
 11
4.145999999999997
 21
-1.1385
  0
LINE
  5
120
100
AcDbEntity
  8
0
  6
ByLayer
 62
  256
370
   -1
100
AcDbLine
 10
3.985999999999995
 20
-1.0855
 11
3.985999999999995
 21
-1.1385
  0
TEXT
  5
121
100
AcDbEntity
  8
0
  6
ByLayer
 62
  256
370
   -1
100
AcDbText
 10
4.065999999999997
 20
-0.6877500000000001
 30
0
 40
0.09375
  1
Cat 6
 50
0
 41
1
 51
0
  7
romand
 71
    0
 72
    1
 11
4.065999999999997
 21
-0.6877500000000001
 31
0
210
0
220
0
230
1
100
AcDbText
 73
    2
  0
TEXT
  5
122
100
AcDbEntity
  8
0
  6
ByLayer
 62
  256
370
   -1
100
AcDbText
 10
0.7325625000000047
 20
0.1529687500000001
 30
0
 40
0.09375
  1
1
 50
0
 41
1
 51
0
  7
romand
 71
    0
 72
    1
 11
0.7325625000000047
 21
0.1529687500000001
 31
0
210
0
220
0
230
1
100
AcDbText
 73
    3
  0
TEXT
  5
123
100
AcDbEntity
  8
0
  6
ByLayer
 62
  256
370
   -1
100
AcDbText
 10
1.352562500000004
 20
0.1529687500000001
 30
0
 40
0.09375
  1
2
 50
0
 41
1
 51
0
  7
romand
 71
    0
 72
    1
 11
1.352562500000004
 21
0.1529687500000001
 31
0
210
0
220
0
230
1
100
AcDbText
 73
    3
  0
TEXT
  5
124
100
AcDbEntity
  8
0
  6
ByLayer
 62
  256
370
   -1
100
AcDbText
 10
1.972562500000004
 20
0.1529687500000001
 30
0
 40
0.09375
  1
3
 50
0
 41
1
 51
0
  7
romand
 71
    0
 72
    1
 11
1.972562500000004
 21
0.1529687500000001
 31
0
210
0
220
0
230
1
100
AcDbText
 73
    3
  0
TEXT
  5
125
100
AcDbEntity
  8
0
  6
ByLayer
 62
  256
370
   -1
100
AcDbText
 10
2.592562500000005
 20
0.1529687500000001
 30
0
 40
0.09375
  1
4
 50
0
 41
1
 51
0
  7
romand
 71
    0
 72
    1
 11
2.592562500000005
 21
0.1529687500000001
 31
0
210
0
220
0
230
1
100
AcDbText
 73
    3
  0
TEXT
  5
126
100
AcDbEntity
  8
0
  6
ByLayer
 62
  256
370
   -1
100
AcDbText
 10
3.212562500000002
 20
0.1529687500000001
 30
0
 40
0.09375
  1
5
 50
0
 41
1
 51
0
  7
romand
 71
    0
 72
    1
 11
3.212562500000002
 21
0.1529687500000001
 31
0
210
0
220
0
230
1
100
AcDbText
 73
    3
  0
TEXT
  5
127
100
AcDbEntity
  8
0
  6
ByLayer
 62
  256
370
   -1
100
AcDbText
 10
3.832562500000003
 20
0.1529687500000001
 30
0
 40
0.09375
  1
6
 50
0
 41
1
 51
0
  7
romand
 71
    0
 72
    1
 11
3.832562500000003
 21
0.1529687500000001
 31
0
210
0
220
0
230
1
100
AcDbText
 73
    3
  0
LINE
  5
128
100
AcDbEntity
  8
0
  6
ByLayer
 62
  256
370
   -1
100
AcDbLine
 10
4.625999999999996
 20
-0.625
 11
4.625999999999996
 21
-0.105
  0
LINE
  5
129
100
AcDbEntity
  8
0
  6
ByLayer
 62
  256
370
   -1
100
AcDbLine
 10
4.625999999999996
 20
-0.625
 11
5.245999999999993
 21
-0.625
  0
LINE
  5
12A
100
AcDbEntity
  8
0
  6
ByLayer
 62
  256
370
   -1
100
AcDbLine
 10
5.245999999999993
 20
-0.625
 11
5.245999999999993
 21
-0.105
  0
LINE
  5
12B
100
AcDbEntity
  8
0
  6
ByLayer
 62
  256
370
   -1
100
AcDbLine
 10
5.245999999999993
 20
-0.105
 11
4.625999999999996
 21
-0.105
  0
LINE
  5
12C
100
AcDbEntity
  8
0
  6
ByLayer
 62
  256
370
   -1
100
AcDbLine
 10
4.700999999999995
 20
-0.2304999999999999
 11
5.170999999999993
 21
-0.2304999999999999
  0
LINE
  5
12D
100
AcDbEntity
  8
0
  6
ByLayer
 62
  256
370
   -1
100
AcDbLine
 10
4.700999999999995
 20
-0.2304999999999999
 11
4.700999999999995
 21
-0.4995000000000001
  0
LINE
  5
12E
100
AcDbEntity
  8
0
  6
ByLayer
 62
  256
370
   -1
100
AcDbLine
 10
5.170999999999993
 20
-0.2304999999999999
 11
5.170999999999993
 21
-0.4995000000000001
  0
LINE
  5
12F
100
AcDbEntity
  8
0
  6
ByLayer
 62
  256
370
   -1
100
AcDbLine
 10
5.058999999999996
 20
-0.4995000000000001
 11
5.058999999999996
 21
-0.5654999999999999
  0
LINE
  5
130
100
AcDbEntity
  8
0
  6
ByLayer
 62
  256
370
   -1
100
AcDbLine
 10
5.058999999999996
 20
-0.4995000000000001
 11
5.170999999999993
 21
-0.4995000000000001
  0
LINE
  5
131
100
AcDbEntity
  8
0
  6
ByLayer
 62
  256
370
   -1
100
AcDbLine
 10
4.700999999999995
 20
-0.4995000000000001
 11
4.812999999999995
 21
-0.4995000000000001
  0
LINE
  5
132
100
AcDbEntity
  8
0
  6
ByLayer
 62
  256
370
   -1
100
AcDbLine
 10
4.812999999999995
 20
-0.4995000000000001
 11
4.812999999999995
 21
-0.5654999999999999
  0
LINE
  5
133
100
AcDbEntity
  8
0
  6
ByLayer
 62
  256
370
   -1
100
AcDbLine
 10
4.855999999999996
 20
-0.6185
 11
5.015999999999996
 21
-0.6185
  0
LINE
  5
134
100
AcDbEntity
  8
0
  6
ByLayer
 62
  256
370
   -1
100
AcDbLine
 10
4.812999999999995
 20
-0.5654999999999999
 11
4.855999999999996
 21
-0.5654999999999999
  0
LINE
  5
135
100
AcDbEntity
  8
0
  6
ByLayer
 62
  256
370
   -1
100
AcDbLine
 10
5.015999999999996
 20
-0.5654999999999999
 11
5.058999999999996
 21
-0.5654999999999999
  0
LINE
  5
136
100
AcDbEntity
  8
0
  6
ByLayer
 62
  256
370
   -1
100
AcDbLine
 10
5.015999999999996
 20
-0.5654999999999999
 11
5.015999999999996
 21
-0.6185
  0
LINE
  5
137
100
AcDbEntity
  8
0
  6
ByLayer
 62
  256
370
   -1
100
AcDbLine
 10
4.855999999999996
 20
-0.5654999999999999
 11
4.855999999999996
 21
-0.6185
  0
TEXT
  5
138
100
AcDbEntity
  8
0
  6
ByLayer
 62
  256
370
   -1
100
AcDbText
 10
4.935999999999996
 20
-0.1677500000000001
 30
0
 40
0.09375
  1
Cat 6
 50
0
 41
1
 51
0
  7
romand
 71
    0
 72
    1
 11
4.935999999999996
 21
-0.1677500000000001
 31
0
210
0
220
0
230
1
100
AcDbText
 73
    2
  0
LINE
  5
139
100
AcDbEntity
  8
0
  6
ByLayer
 62
  256
370
   -1
100
AcDbLine
 10
5.245999999999993
 20
-0.625
 11
5.245999999999993
 21
-0.105
  0
LINE
  5
13A
100
AcDbEntity
  8
0
  6
ByLayer
 62
  256
370
   -1
100
AcDbLine
 10
5.245999999999993
 20
-0.625
 11
5.865999999999994
 21
-0.625
  0
LINE
  5
13B
100
AcDbEntity
  8
0
  6
ByLayer
 62
  256
370
   -1
100
AcDbLine
 10
5.865999999999994
 20
-0.625
 11
5.865999999999994
 21
-0.105
  0
LINE
  5
13C
100
AcDbEntity
  8
0
  6
ByLayer
 62
  256
370
   -1
100
AcDbLine
 10
5.865999999999994
 20
-0.105
 11
5.245999999999993
 21
-0.105
  0
LINE
  5
13D
100
AcDbEntity
  8
0
  6
ByLayer
 62
  256
370
   -1
100
AcDbLine
 10
5.320999999999994
 20
-0.2304999999999999
 11
5.790999999999994
 21
-0.2304999999999999
  0
LINE
  5
13E
100
AcDbEntity
  8
0
  6
ByLayer
 62
  256
370
   -1
100
AcDbLine
 10
5.320999999999994
 20
-0.2304999999999999
 11
5.320999999999994
 21
-0.4995000000000001
  0
LINE
  5
13F
100
AcDbEntity
  8
0
  6
ByLayer
 62
  256
370
   -1
100
AcDbLine
 10
5.790999999999994
 20
-0.2304999999999999
 11
5.790999999999994
 21
-0.4995000000000001
  0
LINE
  5
140
100
AcDbEntity
  8
0
  6
ByLayer
 62
  256
370
   -1
100
AcDbLine
 10
5.678999999999995
 20
-0.4995000000000001
 11
5.678999999999995
 21
-0.5654999999999999
  0
LINE
  5
141
100
AcDbEntity
  8
0
  6
ByLayer
 62
  256
370
   -1
100
AcDbLine
 10
5.678999999999995
 20
-0.4995000000000001
 11
5.790999999999994
 21
-0.4995000000000001
  0
LINE
  5
142
100
AcDbEntity
  8
0
  6
ByLayer
 62
  256
370
   -1
100
AcDbLine
 10
5.320999999999994
 20
-0.4995000000000001
 11
5.432999999999995
 21
-0.4995000000000001
  0
LINE
  5
143
100
AcDbEntity
  8
0
  6
ByLayer
 62
  256
370
   -1
100
AcDbLine
 10
5.432999999999995
 20
-0.4995000000000001
 11
5.432999999999995
 21
-0.5654999999999999
  0
LINE
  5
144
100
AcDbEntity
  8
0
  6
ByLayer
 62
  256
370
   -1
100
AcDbLine
 10
5.475999999999996
 20
-0.6185
 11
5.635999999999996
 21
-0.6185
  0
LINE
  5
145
100
AcDbEntity
  8
0
  6
ByLayer
 62
  256
370
   -1
100
AcDbLine
 10
5.432999999999995
 20
-0.5654999999999999
 11
5.475999999999996
 21
-0.5654999999999999
  0
LINE
  5
146
100
AcDbEntity
  8
0
  6
ByLayer
 62
  256
370
   -1
100
AcDbLine
 10
5.635999999999996
 20
-0.5654999999999999
 11
5.678999999999995
 21
-0.5654999999999999
  0
LINE
  5
147
100
AcDbEntity
  8
0
  6
ByLayer
 62
  256
370
   -1
100
AcDbLine
 10
5.635999999999996
 20
-0.5654999999999999
 11
5.635999999999996
 21
-0.6185
  0
LINE
  5
148
100
AcDbEntity
  8
0
  6
ByLayer
 62
  256
370
   -1
100
AcDbLine
 10
5.475999999999996
 20
-0.5654999999999999
 11
5.475999999999996
 21
-0.6185
  0
TEXT
  5
149
100
AcDbEntity
  8
0
  6
ByLayer
 62
  256
370
   -1
100
AcDbText
 10
5.555999999999996
 20
-0.1677500000000001
 30
0
 40
0.09375
  1
Cat 6
 50
0
 41
1
 51
0
  7
romand
 71
    0
 72
    1
 11
5.555999999999996
 21
-0.1677500000000001
 31
0
210
0
220
0
230
1
100
AcDbText
 73
    2
  0
LINE
  5
14A
100
AcDbEntity
  8
0
  6
ByLayer
 62
  256
370
   -1
100
AcDbLine
 10
5.865999999999994
 20
-0.625
 11
5.865999999999994
 21
-0.105
  0
LINE
  5
14B
100
AcDbEntity
  8
0
  6
ByLayer
 62
  256
370
   -1
100
AcDbLine
 10
5.865999999999994
 20
-0.625
 11
6.485999999999994
 21
-0.625
  0
LINE
  5
14C
100
AcDbEntity
  8
0
  6
ByLayer
 62
  256
370
   -1
100
AcDbLine
 10
6.485999999999994
 20
-0.625
 11
6.485999999999994
 21
-0.105
  0
LINE
  5
14D
100
AcDbEntity
  8
0
  6
ByLayer
 62
  256
370
   -1
100
AcDbLine
 10
6.485999999999994
 20
-0.105
 11
5.865999999999994
 21
-0.105
  0
LINE
  5
14E
100
AcDbEntity
  8
0
  6
ByLayer
 62
  256
370
   -1
100
AcDbLine
 10
5.940999999999994
 20
-0.2304999999999999
 11
6.410999999999994
 21
-0.2304999999999999
  0
LINE
  5
14F
100
AcDbEntity
  8
0
  6
ByLayer
 62
  256
370
   -1
100
AcDbLine
 10
5.940999999999994
 20
-0.2304999999999999
 11
5.940999999999994
 21
-0.4995000000000001
  0
LINE
  5
150
100
AcDbEntity
  8
0
  6
ByLayer
 62
  256
370
   -1
100
AcDbLine
 10
6.410999999999994
 20
-0.2304999999999999
 11
6.410999999999994
 21
-0.4995000000000001
  0
LINE
  5
151
100
AcDbEntity
  8
0
  6
ByLayer
 62
  256
370
   -1
100
AcDbLine
 10
6.298999999999994
 20
-0.4995000000000001
 11
6.298999999999994
 21
-0.5654999999999999
  0
LINE
  5
152
100
AcDbEntity
  8
0
  6
ByLayer
 62
  256
370
   -1
100
AcDbLine
 10
6.298999999999994
 20
-0.4995000000000001
 11
6.410999999999994
 21
-0.4995000000000001
  0
LINE
  5
153
100
AcDbEntity
  8
0
  6
ByLayer
 62
  256
370
   -1
100
AcDbLine
 10
5.940999999999994
 20
-0.4995000000000001
 11
6.052999999999994
 21
-0.4995000000000001
  0
LINE
  5
154
100
AcDbEntity
  8
0
  6
ByLayer
 62
  256
370
   -1
100
AcDbLine
 10
6.052999999999994
 20
-0.4995000000000001
 11
6.052999999999994
 21
-0.5654999999999999
  0
LINE
  5
155
100
AcDbEntity
  8
0
  6
ByLayer
 62
  256
370
   -1
100
AcDbLine
 10
6.095999999999995
 20
-0.6185
 11
6.255999999999995
 21
-0.6185
  0
LINE
  5
156
100
AcDbEntity
  8
0
  6
ByLayer
 62
  256
370
   -1
100
AcDbLine
 10
6.052999999999994
 20
-0.5654999999999999
 11
6.095999999999995
 21
-0.5654999999999999
  0
LINE
  5
157
100
AcDbEntity
  8
0
  6
ByLayer
 62
  256
370
   -1
100
AcDbLine
 10
6.255999999999995
 20
-0.5654999999999999
 11
6.298999999999994
 21
-0.5654999999999999
  0
LINE
  5
158
100
AcDbEntity
  8
0
  6
ByLayer
 62
  256
370
   -1
100
AcDbLine
 10
6.255999999999995
 20
-0.5654999999999999
 11
6.255999999999995
 21
-0.6185
  0
LINE
  5
159
100
AcDbEntity
  8
0
  6
ByLayer
 62
  256
370
   -1
100
AcDbLine
 10
6.095999999999995
 20
-0.5654999999999999
 11
6.095999999999995
 21
-0.6185
  0
TEXT
  5
15A
100
AcDbEntity
  8
0
  6
ByLayer
 62
  256
370
   -1
100
AcDbText
 10
6.175999999999995
 20
-0.1677500000000001
 30
0
 40
0.09375
  1
Cat 6
 50
0
 41
1
 51
0
  7
romand
 71
    0
 72
    1
 11
6.175999999999995
 21
-0.1677500000000001
 31
0
210
0
220
0
230
1
100
AcDbText
 73
    2
  0
LINE
  5
15B
100
AcDbEntity
  8
0
  6
ByLayer
 62
  256
370
   -1
100
AcDbLine
 10
6.485999999999994
 20
-0.625
 11
6.485999999999994
 21
-0.105
  0
LINE
  5
15C
100
AcDbEntity
  8
0
  6
ByLayer
 62
  256
370
   -1
100
AcDbLine
 10
6.485999999999994
 20
-0.625
 11
7.105999999999995
 21
-0.625
  0
LINE
  5
15D
100
AcDbEntity
  8
0
  6
ByLayer
 62
  256
370
   -1
100
AcDbLine
 10
7.105999999999995
 20
-0.625
 11
7.105999999999995
 21
-0.105
  0
LINE
  5
15E
100
AcDbEntity
  8
0
  6
ByLayer
 62
  256
370
   -1
100
AcDbLine
 10
7.105999999999995
 20
-0.105
 11
6.485999999999994
 21
-0.105
  0
LINE
  5
15F
100
AcDbEntity
  8
0
  6
ByLayer
 62
  256
370
   -1
100
AcDbLine
 10
6.560999999999995
 20
-0.2304999999999999
 11
7.030999999999993
 21
-0.2304999999999999
  0
LINE
  5
160
100
AcDbEntity
  8
0
  6
ByLayer
 62
  256
370
   -1
100
AcDbLine
 10
6.560999999999995
 20
-0.2304999999999999
 11
6.560999999999995
 21
-0.4995000000000001
  0
LINE
  5
161
100
AcDbEntity
  8
0
  6
ByLayer
 62
  256
370
   -1
100
AcDbLine
 10
7.030999999999993
 20
-0.2304999999999999
 11
7.030999999999993
 21
-0.4995000000000001
  0
LINE
  5
162
100
AcDbEntity
  8
0
  6
ByLayer
 62
  256
370
   -1
100
AcDbLine
 10
6.918999999999995
 20
-0.4995000000000001
 11
6.918999999999995
 21
-0.5654999999999999
  0
LINE
  5
163
100
AcDbEntity
  8
0
  6
ByLayer
 62
  256
370
   -1
100
AcDbLine
 10
6.918999999999995
 20
-0.4995000000000001
 11
7.030999999999993
 21
-0.4995000000000001
  0
LINE
  5
164
100
AcDbEntity
  8
0
  6
ByLayer
 62
  256
370
   -1
100
AcDbLine
 10
6.560999999999995
 20
-0.4995000000000001
 11
6.672999999999995
 21
-0.4995000000000001
  0
LINE
  5
165
100
AcDbEntity
  8
0
  6
ByLayer
 62
  256
370
   -1
100
AcDbLine
 10
6.672999999999995
 20
-0.4995000000000001
 11
6.672999999999995
 21
-0.5654999999999999
  0
LINE
  5
166
100
AcDbEntity
  8
0
  6
ByLayer
 62
  256
370
   -1
100
AcDbLine
 10
6.715999999999994
 20
-0.6185
 11
6.875999999999995
 21
-0.6185
  0
LINE
  5
167
100
AcDbEntity
  8
0
  6
ByLayer
 62
  256
370
   -1
100
AcDbLine
 10
6.672999999999995
 20
-0.5654999999999999
 11
6.715999999999994
 21
-0.5654999999999999
  0
LINE
  5
168
100
AcDbEntity
  8
0
  6
ByLayer
 62
  256
370
   -1
100
AcDbLine
 10
6.875999999999995
 20
-0.5654999999999999
 11
6.918999999999995
 21
-0.5654999999999999
  0
LINE
  5
169
100
AcDbEntity
  8
0
  6
ByLayer
 62
  256
370
   -1
100
AcDbLine
 10
6.875999999999995
 20
-0.5654999999999999
 11
6.875999999999995
 21
-0.6185
  0
LINE
  5
16A
100
AcDbEntity
  8
0
  6
ByLayer
 62
  256
370
   -1
100
AcDbLine
 10
6.715999999999994
 20
-0.5654999999999999
 11
6.715999999999994
 21
-0.6185
  0
TEXT
  5
16B
100
AcDbEntity
  8
0
  6
ByLayer
 62
  256
370
   -1
100
AcDbText
 10
6.795999999999993
 20
-0.1677500000000001
 30
0
 40
0.09375
  1
Cat 6
 50
0
 41
1
 51
0
  7
romand
 71
    0
 72
    1
 11
6.795999999999993
 21
-0.1677500000000001
 31
0
210
0
220
0
230
1
100
AcDbText
 73
    2
  0
LINE
  5
16C
100
AcDbEntity
  8
0
  6
ByLayer
 62
  256
370
   -1
100
AcDbLine
 10
7.105999999999995
 20
-0.625
 11
7.105999999999995
 21
-0.105
  0
LINE
  5
16D
100
AcDbEntity
  8
0
  6
ByLayer
 62
  256
370
   -1
100
AcDbLine
 10
7.105999999999995
 20
-0.625
 11
7.725999999999994
 21
-0.625
  0
LINE
  5
16E
100
AcDbEntity
  8
0
  6
ByLayer
 62
  256
370
   -1
100
AcDbLine
 10
7.725999999999994
 20
-0.625
 11
7.725999999999994
 21
-0.105
  0
LINE
  5
16F
100
AcDbEntity
  8
0
  6
ByLayer
 62
  256
370
   -1
100
AcDbLine
 10
7.725999999999994
 20
-0.105
 11
7.105999999999995
 21
-0.105
  0
LINE
  5
170
100
AcDbEntity
  8
0
  6
ByLayer
 62
  256
370
   -1
100
AcDbLine
 10
7.180999999999994
 20
-0.2304999999999999
 11
7.650999999999994
 21
-0.2304999999999999
  0
LINE
  5
171
100
AcDbEntity
  8
0
  6
ByLayer
 62
  256
370
   -1
100
AcDbLine
 10
7.180999999999994
 20
-0.2304999999999999
 11
7.180999999999994
 21
-0.4995000000000001
  0
LINE
  5
172
100
AcDbEntity
  8
0
  6
ByLayer
 62
  256
370
   -1
100
AcDbLine
 10
7.650999999999994
 20
-0.2304999999999999
 11
7.650999999999994
 21
-0.4995000000000001
  0
LINE
  5
173
100
AcDbEntity
  8
0
  6
ByLayer
 62
  256
370
   -1
100
AcDbLine
 10
7.538999999999994
 20
-0.4995000000000001
 11
7.538999999999994
 21
-0.5654999999999999
  0
LINE
  5
174
100
AcDbEntity
  8
0
  6
ByLayer
 62
  256
370
   -1
100
AcDbLine
 10
7.538999999999994
 20
-0.4995000000000001
 11
7.650999999999994
 21
-0.4995000000000001
  0
LINE
  5
175
100
AcDbEntity
  8
0
  6
ByLayer
 62
  256
370
   -1
100
AcDbLine
 10
7.180999999999994
 20
-0.4995000000000001
 11
7.292999999999994
 21
-0.4995000000000001
  0
LINE
  5
176
100
AcDbEntity
  8
0
  6
ByLayer
 62
  256
370
   -1
100
AcDbLine
 10
7.292999999999994
 20
-0.4995000000000001
 11
7.292999999999994
 21
-0.5654999999999999
  0
LINE
  5
177
100
AcDbEntity
  8
0
  6
ByLayer
 62
  256
370
   -1
100
AcDbLine
 10
7.335999999999995
 20
-0.6185
 11
7.495999999999996
 21
-0.6185
  0
LINE
  5
178
100
AcDbEntity
  8
0
  6
ByLayer
 62
  256
370
   -1
100
AcDbLine
 10
7.292999999999994
 20
-0.5654999999999999
 11
7.335999999999995
 21
-0.5654999999999999
  0
LINE
  5
179
100
AcDbEntity
  8
0
  6
ByLayer
 62
  256
370
   -1
100
AcDbLine
 10
7.495999999999996
 20
-0.5654999999999999
 11
7.538999999999994
 21
-0.5654999999999999
  0
LINE
  5
17A
100
AcDbEntity
  8
0
  6
ByLayer
 62
  256
370
   -1
100
AcDbLine
 10
7.495999999999996
 20
-0.5654999999999999
 11
7.495999999999996
 21
-0.6185
  0
LINE
  5
17B
100
AcDbEntity
  8
0
  6
ByLayer
 62
  256
370
   -1
100
AcDbLine
 10
7.335999999999995
 20
-0.5654999999999999
 11
7.335999999999995
 21
-0.6185
  0
TEXT
  5
17C
100
AcDbEntity
  8
0
  6
ByLayer
 62
  256
370
   -1
100
AcDbText
 10
7.415999999999994
 20
-0.1677500000000001
 30
0
 40
0.09375
  1
Cat 6
 50
0
 41
1
 51
0
  7
romand
 71
    0
 72
    1
 11
7.415999999999994
 21
-0.1677500000000001
 31
0
210
0
220
0
230
1
100
AcDbText
 73
    2
  0
LINE
  5
17D
100
AcDbEntity
  8
0
  6
ByLayer
 62
  256
370
   -1
100
AcDbLine
 10
7.725999999999994
 20
-0.625
 11
7.725999999999994
 21
-0.105
  0
LINE
  5
17E
100
AcDbEntity
  8
0
  6
ByLayer
 62
  256
370
   -1
100
AcDbLine
 10
8.345999999999998
 20
-0.105
 11
7.725999999999994
 21
-0.105
  0
LINE
  5
17F
100
AcDbEntity
  8
0
  6
ByLayer
 62
  256
370
   -1
100
AcDbLine
 10
7.800999999999998
 20
-0.2304999999999999
 11
8.270999999999999
 21
-0.2304999999999999
  0
LINE
  5
180
100
AcDbEntity
  8
0
  6
ByLayer
 62
  256
370
   -1
100
AcDbLine
 10
7.800999999999998
 20
-0.2304999999999999
 11
7.800999999999998
 21
-0.4995000000000001
  0
LINE
  5
181
100
AcDbEntity
  8
0
  6
ByLayer
 62
  256
370
   -1
100
AcDbLine
 10
8.270999999999999
 20
-0.2304999999999999
 11
8.270999999999999
 21
-0.4995000000000001
  0
LINE
  5
182
100
AcDbEntity
  8
0
  6
ByLayer
 62
  256
370
   -1
100
AcDbLine
 10
8.158999999999999
 20
-0.4995000000000001
 11
8.158999999999999
 21
-0.5654999999999999
  0
LINE
  5
183
100
AcDbEntity
  8
0
  6
ByLayer
 62
  256
370
   -1
100
AcDbLine
 10
8.158999999999999
 20
-0.4995000000000001
 11
8.270999999999999
 21
-0.4995000000000001
  0
LINE
  5
184
100
AcDbEntity
  8
0
  6
ByLayer
 62
  256
370
   -1
100
AcDbLine
 10
7.800999999999998
 20
-0.4995000000000001
 11
7.912999999999998
 21
-0.4995000000000001
  0
LINE
  5
185
100
AcDbEntity
  8
0
  6
ByLayer
 62
  256
370
   -1
100
AcDbLine
 10
7.912999999999998
 20
-0.4995000000000001
 11
7.912999999999998
 21
-0.5654999999999999
  0
LINE
  5
186
100
AcDbEntity
  8
0
  6
ByLayer
 62
  256
370
   -1
100
AcDbLine
 10
7.955999999999998
 20
-0.6185
 11
8.115999999999998
 21
-0.6185
  0
LINE
  5
187
100
AcDbEntity
  8
0
  6
ByLayer
 62
  256
370
   -1
100
AcDbLine
 10
7.912999999999998
 20
-0.5654999999999999
 11
7.955999999999998
 21
-0.5654999999999999
  0
LINE
  5
188
100
AcDbEntity
  8
0
  6
ByLayer
 62
  256
370
   -1
100
AcDbLine
 10
8.115999999999998
 20
-0.5654999999999999
 11
8.158999999999999
 21
-0.5654999999999999
  0
LINE
  5
189
100
AcDbEntity
  8
0
  6
ByLayer
 62
  256
370
   -1
100
AcDbLine
 10
8.115999999999998
 20
-0.5654999999999999
 11
8.115999999999998
 21
-0.6185
  0
LINE
  5
18A
100
AcDbEntity
  8
0
  6
ByLayer
 62
  256
370
   -1
100
AcDbLine
 10
7.955999999999998
 20
-0.5654999999999999
 11
7.955999999999998
 21
-0.6185
  0
TEXT
  5
18B
100
AcDbEntity
  8
0
  6
ByLayer
 62
  256
370
   -1
100
AcDbText
 10
8.035999999999998
 20
-0.1677500000000001
 30
0
 40
0.09375
  1
Cat 6
 50
0
 41
1
 51
0
  7
romand
 71
    0
 72
    1
 11
8.035999999999998
 21
-0.1677500000000001
 31
0
210
0
220
0
230
1
100
AcDbText
 73
    2
  0
LINE
  5
18C
100
AcDbEntity
  8
0
  6
ByLayer
 62
  256
370
   -1
100
AcDbLine
 10
8.345999999999998
 20
-0.625
 11
8.345999999999998
 21
-0.105
  0
LINE
  5
18D
100
AcDbEntity
  8
0
  6
ByLayer
 62
  256
370
   -1
100
AcDbLine
 10
4.625999999999996
 20
-1.145
 11
4.625999999999996
 21
-0.625
  0
LINE
  5
18E
100
AcDbEntity
  8
0
  6
ByLayer
 62
  256
370
   -1
100
AcDbLine
 10
4.625999999999996
 20
-1.145
 11
5.245999999999993
 21
-1.145
  0
LINE
  5
18F
100
AcDbEntity
  8
0
  6
ByLayer
 62
  256
370
   -1
100
AcDbLine
 10
5.245999999999993
 20
-1.145
 11
5.245999999999993
 21
-0.625
  0
LINE
  5
190
100
AcDbEntity
  8
0
  6
ByLayer
 62
  256
370
   -1
100
AcDbLine
 10
5.245999999999993
 20
-0.625
 11
4.625999999999996
 21
-0.625
  0
LINE
  5
191
100
AcDbEntity
  8
0
  6
ByLayer
 62
  256
370
   -1
100
AcDbLine
 10
4.700999999999995
 20
-0.7504999999999999
 11
5.170999999999993
 21
-0.7504999999999999
  0
LINE
  5
192
100
AcDbEntity
  8
0
  6
ByLayer
 62
  256
370
   -1
100
AcDbLine
 10
4.700999999999995
 20
-0.7504999999999999
 11
4.700999999999995
 21
-1.0195
  0
LINE
  5
193
100
AcDbEntity
  8
0
  6
ByLayer
 62
  256
370
   -1
100
AcDbLine
 10
5.170999999999993
 20
-0.7504999999999999
 11
5.170999999999993
 21
-1.0195
  0
LINE
  5
194
100
AcDbEntity
  8
0
  6
ByLayer
 62
  256
370
   -1
100
AcDbLine
 10
5.058999999999996
 20
-1.0195
 11
5.058999999999996
 21
-1.0855
  0
LINE
  5
195
100
AcDbEntity
  8
0
  6
ByLayer
 62
  256
370
   -1
100
AcDbLine
 10
5.058999999999996
 20
-1.0195
 11
5.170999999999993
 21
-1.0195
  0
LINE
  5
196
100
AcDbEntity
  8
0
  6
ByLayer
 62
  256
370
   -1
100
AcDbLine
 10
4.700999999999995
 20
-1.0195
 11
4.812999999999995
 21
-1.0195
  0
LINE
  5
197
100
AcDbEntity
  8
0
  6
ByLayer
 62
  256
370
   -1
100
AcDbLine
 10
4.812999999999995
 20
-1.0195
 11
4.812999999999995
 21
-1.0855
  0
LINE
  5
198
100
AcDbEntity
  8
0
  6
ByLayer
 62
  256
370
   -1
100
AcDbLine
 10
4.855999999999996
 20
-1.1385
 11
5.015999999999996
 21
-1.1385
  0
LINE
  5
199
100
AcDbEntity
  8
0
  6
ByLayer
 62
  256
370
   -1
100
AcDbLine
 10
4.812999999999995
 20
-1.0855
 11
4.855999999999996
 21
-1.0855
  0
LINE
  5
19A
100
AcDbEntity
  8
0
  6
ByLayer
 62
  256
370
   -1
100
AcDbLine
 10
5.015999999999996
 20
-1.0855
 11
5.058999999999996
 21
-1.0855
  0
LINE
  5
19B
100
AcDbEntity
  8
0
  6
ByLayer
 62
  256
370
   -1
100
AcDbLine
 10
5.015999999999996
 20
-1.0855
 11
5.015999999999996
 21
-1.1385
  0
LINE
  5
19C
100
AcDbEntity
  8
0
  6
ByLayer
 62
  256
370
   -1
100
AcDbLine
 10
4.855999999999996
 20
-1.0855
 11
4.855999999999996
 21
-1.1385
  0
TEXT
  5
19D
100
AcDbEntity
  8
0
  6
ByLayer
 62
  256
370
   -1
100
AcDbText
 10
4.935999999999996
 20
-0.6877500000000001
 30
0
 40
0.09375
  1
Cat 6
 50
0
 41
1
 51
0
  7
romand
 71
    0
 72
    1
 11
4.935999999999996
 21
-0.6877500000000001
 31
0
210
0
220
0
230
1
100
AcDbText
 73
    2
  0
LINE
  5
19E
100
AcDbEntity
  8
0
  6
ByLayer
 62
  256
370
   -1
100
AcDbLine
 10
5.245999999999993
 20
-1.145
 11
5.245999999999993
 21
-0.625
  0
LINE
  5
19F
100
AcDbEntity
  8
0
  6
ByLayer
 62
  256
370
   -1
100
AcDbLine
 10
5.245999999999993
 20
-1.145
 11
5.865999999999994
 21
-1.145
  0
LINE
  5
1A0
100
AcDbEntity
  8
0
  6
ByLayer
 62
  256
370
   -1
100
AcDbLine
 10
5.865999999999994
 20
-1.145
 11
5.865999999999994
 21
-0.625
  0
LINE
  5
1A1
100
AcDbEntity
  8
0
  6
ByLayer
 62
  256
370
   -1
100
AcDbLine
 10
5.865999999999994
 20
-0.625
 11
5.245999999999993
 21
-0.625
  0
LINE
  5
1A2
100
AcDbEntity
  8
0
  6
ByLayer
 62
  256
370
   -1
100
AcDbLine
 10
5.320999999999994
 20
-0.7504999999999999
 11
5.790999999999994
 21
-0.7504999999999999
  0
LINE
  5
1A3
100
AcDbEntity
  8
0
  6
ByLayer
 62
  256
370
   -1
100
AcDbLine
 10
5.320999999999994
 20
-0.7504999999999999
 11
5.320999999999994
 21
-1.0195
  0
LINE
  5
1A4
100
AcDbEntity
  8
0
  6
ByLayer
 62
  256
370
   -1
100
AcDbLine
 10
5.790999999999994
 20
-0.7504999999999999
 11
5.790999999999994
 21
-1.0195
  0
LINE
  5
1A5
100
AcDbEntity
  8
0
  6
ByLayer
 62
  256
370
   -1
100
AcDbLine
 10
5.678999999999995
 20
-1.0195
 11
5.678999999999995
 21
-1.0855
  0
LINE
  5
1A6
100
AcDbEntity
  8
0
  6
ByLayer
 62
  256
370
   -1
100
AcDbLine
 10
5.678999999999995
 20
-1.0195
 11
5.790999999999994
 21
-1.0195
  0
LINE
  5
1A7
100
AcDbEntity
  8
0
  6
ByLayer
 62
  256
370
   -1
100
AcDbLine
 10
5.320999999999994
 20
-1.0195
 11
5.432999999999995
 21
-1.0195
  0
LINE
  5
1A8
100
AcDbEntity
  8
0
  6
ByLayer
 62
  256
370
   -1
100
AcDbLine
 10
5.432999999999995
 20
-1.0195
 11
5.432999999999995
 21
-1.0855
  0
LINE
  5
1A9
100
AcDbEntity
  8
0
  6
ByLayer
 62
  256
370
   -1
100
AcDbLine
 10
5.475999999999996
 20
-1.1385
 11
5.635999999999996
 21
-1.1385
  0
LINE
  5
1AA
100
AcDbEntity
  8
0
  6
ByLayer
 62
  256
370
   -1
100
AcDbLine
 10
5.432999999999995
 20
-1.0855
 11
5.475999999999996
 21
-1.0855
  0
LINE
  5
1AB
100
AcDbEntity
  8
0
  6
ByLayer
 62
  256
370
   -1
100
AcDbLine
 10
5.635999999999996
 20
-1.0855
 11
5.678999999999995
 21
-1.0855
  0
LINE
  5
1AC
100
AcDbEntity
  8
0
  6
ByLayer
 62
  256
370
   -1
100
AcDbLine
 10
5.635999999999996
 20
-1.0855
 11
5.635999999999996
 21
-1.1385
  0
LINE
  5
1AD
100
AcDbEntity
  8
0
  6
ByLayer
 62
  256
370
   -1
100
AcDbLine
 10
5.475999999999996
 20
-1.0855
 11
5.475999999999996
 21
-1.1385
  0
TEXT
  5
1AE
100
AcDbEntity
  8
0
  6
ByLayer
 62
  256
370
   -1
100
AcDbText
 10
5.555999999999996
 20
-0.6877500000000001
 30
0
 40
0.09375
  1
Cat 6
 50
0
 41
1
 51
0
  7
romand
 71
    0
 72
    1
 11
5.555999999999996
 21
-0.6877500000000001
 31
0
210
0
220
0
230
1
100
AcDbText
 73
    2
  0
LINE
  5
1AF
100
AcDbEntity
  8
0
  6
ByLayer
 62
  256
370
   -1
100
AcDbLine
 10
5.865999999999994
 20
-1.145
 11
5.865999999999994
 21
-0.625
  0
LINE
  5
1B0
100
AcDbEntity
  8
0
  6
ByLayer
 62
  256
370
   -1
100
AcDbLine
 10
5.865999999999994
 20
-1.145
 11
6.485999999999994
 21
-1.145
  0
LINE
  5
1B1
100
AcDbEntity
  8
0
  6
ByLayer
 62
  256
370
   -1
100
AcDbLine
 10
6.485999999999994
 20
-1.145
 11
6.485999999999994
 21
-0.625
  0
LINE
  5
1B2
100
AcDbEntity
  8
0
  6
ByLayer
 62
  256
370
   -1
100
AcDbLine
 10
6.485999999999994
 20
-0.625
 11
5.865999999999994
 21
-0.625
  0
LINE
  5
1B3
100
AcDbEntity
  8
0
  6
ByLayer
 62
  256
370
   -1
100
AcDbLine
 10
5.940999999999994
 20
-0.7504999999999999
 11
6.410999999999994
 21
-0.7504999999999999
  0
LINE
  5
1B4
100
AcDbEntity
  8
0
  6
ByLayer
 62
  256
370
   -1
100
AcDbLine
 10
5.940999999999994
 20
-0.7504999999999999
 11
5.940999999999994
 21
-1.0195
  0
LINE
  5
1B5
100
AcDbEntity
  8
0
  6
ByLayer
 62
  256
370
   -1
100
AcDbLine
 10
6.410999999999994
 20
-0.7504999999999999
 11
6.410999999999994
 21
-1.0195
  0
LINE
  5
1B6
100
AcDbEntity
  8
0
  6
ByLayer
 62
  256
370
   -1
100
AcDbLine
 10
6.298999999999994
 20
-1.0195
 11
6.298999999999994
 21
-1.0855
  0
LINE
  5
1B7
100
AcDbEntity
  8
0
  6
ByLayer
 62
  256
370
   -1
100
AcDbLine
 10
6.298999999999994
 20
-1.0195
 11
6.410999999999994
 21
-1.0195
  0
LINE
  5
1B8
100
AcDbEntity
  8
0
  6
ByLayer
 62
  256
370
   -1
100
AcDbLine
 10
5.940999999999994
 20
-1.0195
 11
6.052999999999994
 21
-1.0195
  0
LINE
  5
1B9
100
AcDbEntity
  8
0
  6
ByLayer
 62
  256
370
   -1
100
AcDbLine
 10
6.052999999999994
 20
-1.0195
 11
6.052999999999994
 21
-1.0855
  0
LINE
  5
1BA
100
AcDbEntity
  8
0
  6
ByLayer
 62
  256
370
   -1
100
AcDbLine
 10
6.095999999999995
 20
-1.1385
 11
6.255999999999995
 21
-1.1385
  0
LINE
  5
1BB
100
AcDbEntity
  8
0
  6
ByLayer
 62
  256
370
   -1
100
AcDbLine
 10
6.052999999999994
 20
-1.0855
 11
6.095999999999995
 21
-1.0855
  0
LINE
  5
1BC
100
AcDbEntity
  8
0
  6
ByLayer
 62
  256
370
   -1
100
AcDbLine
 10
6.255999999999995
 20
-1.0855
 11
6.298999999999994
 21
-1.0855
  0
LINE
  5
1BD
100
AcDbEntity
  8
0
  6
ByLayer
 62
  256
370
   -1
100
AcDbLine
 10
6.255999999999995
 20
-1.0855
 11
6.255999999999995
 21
-1.1385
  0
LINE
  5
1BE
100
AcDbEntity
  8
0
  6
ByLayer
 62
  256
370
   -1
100
AcDbLine
 10
6.095999999999995
 20
-1.0855
 11
6.095999999999995
 21
-1.1385
  0
TEXT
  5
1BF
100
AcDbEntity
  8
0
  6
ByLayer
 62
  256
370
   -1
100
AcDbText
 10
6.175999999999995
 20
-0.6877500000000001
 30
0
 40
0.09375
  1
Cat 6
 50
0
 41
1
 51
0
  7
romand
 71
    0
 72
    1
 11
6.175999999999995
 21
-0.6877500000000001
 31
0
210
0
220
0
230
1
100
AcDbText
 73
    2
  0
LINE
  5
1C0
100
AcDbEntity
  8
0
  6
ByLayer
 62
  256
370
   -1
100
AcDbLine
 10
6.485999999999994
 20
-1.145
 11
6.485999999999994
 21
-0.625
  0
LINE
  5
1C1
100
AcDbEntity
  8
0
  6
ByLayer
 62
  256
370
   -1
100
AcDbLine
 10
6.485999999999994
 20
-1.145
 11
7.105999999999995
 21
-1.145
  0
LINE
  5
1C2
100
AcDbEntity
  8
0
  6
ByLayer
 62
  256
370
   -1
100
AcDbLine
 10
7.105999999999995
 20
-1.145
 11
7.105999999999995
 21
-0.625
  0
LINE
  5
1C3
100
AcDbEntity
  8
0
  6
ByLayer
 62
  256
370
   -1
100
AcDbLine
 10
7.105999999999995
 20
-0.625
 11
6.485999999999994
 21
-0.625
  0
LINE
  5
1C4
100
AcDbEntity
  8
0
  6
ByLayer
 62
  256
370
   -1
100
AcDbLine
 10
6.560999999999995
 20
-0.7504999999999999
 11
7.030999999999993
 21
-0.7504999999999999
  0
LINE
  5
1C5
100
AcDbEntity
  8
0
  6
ByLayer
 62
  256
370
   -1
100
AcDbLine
 10
6.560999999999995
 20
-0.7504999999999999
 11
6.560999999999995
 21
-1.0195
  0
LINE
  5
1C6
100
AcDbEntity
  8
0
  6
ByLayer
 62
  256
370
   -1
100
AcDbLine
 10
7.030999999999993
 20
-0.7504999999999999
 11
7.030999999999993
 21
-1.0195
  0
LINE
  5
1C7
100
AcDbEntity
  8
0
  6
ByLayer
 62
  256
370
   -1
100
AcDbLine
 10
6.918999999999995
 20
-1.0195
 11
6.918999999999995
 21
-1.0855
  0
LINE
  5
1C8
100
AcDbEntity
  8
0
  6
ByLayer
 62
  256
370
   -1
100
AcDbLine
 10
6.918999999999995
 20
-1.0195
 11
7.030999999999993
 21
-1.0195
  0
LINE
  5
1C9
100
AcDbEntity
  8
0
  6
ByLayer
 62
  256
370
   -1
100
AcDbLine
 10
6.560999999999995
 20
-1.0195
 11
6.672999999999995
 21
-1.0195
  0
LINE
  5
1CA
100
AcDbEntity
  8
0
  6
ByLayer
 62
  256
370
   -1
100
AcDbLine
 10
6.672999999999995
 20
-1.0195
 11
6.672999999999995
 21
-1.0855
  0
LINE
  5
1CB
100
AcDbEntity
  8
0
  6
ByLayer
 62
  256
370
   -1
100
AcDbLine
 10
6.715999999999994
 20
-1.1385
 11
6.875999999999995
 21
-1.1385
  0
LINE
  5
1CC
100
AcDbEntity
  8
0
  6
ByLayer
 62
  256
370
   -1
100
AcDbLine
 10
6.672999999999995
 20
-1.0855
 11
6.715999999999994
 21
-1.0855
  0
LINE
  5
1CD
100
AcDbEntity
  8
0
  6
ByLayer
 62
  256
370
   -1
100
AcDbLine
 10
6.875999999999995
 20
-1.0855
 11
6.918999999999995
 21
-1.0855
  0
LINE
  5
1CE
100
AcDbEntity
  8
0
  6
ByLayer
 62
  256
370
   -1
100
AcDbLine
 10
6.875999999999995
 20
-1.0855
 11
6.875999999999995
 21
-1.1385
  0
LINE
  5
1CF
100
AcDbEntity
  8
0
  6
ByLayer
 62
  256
370
   -1
100
AcDbLine
 10
6.715999999999994
 20
-1.0855
 11
6.715999999999994
 21
-1.1385
  0
TEXT
  5
1D0
100
AcDbEntity
  8
0
  6
ByLayer
 62
  256
370
   -1
100
AcDbText
 10
6.795999999999993
 20
-0.6877500000000001
 30
0
 40
0.09375
  1
Cat 6
 50
0
 41
1
 51
0
  7
romand
 71
    0
 72
    1
 11
6.795999999999993
 21
-0.6877500000000001
 31
0
210
0
220
0
230
1
100
AcDbText
 73
    2
  0
LINE
  5
1D1
100
AcDbEntity
  8
0
  6
ByLayer
 62
  256
370
   -1
100
AcDbLine
 10
7.105999999999995
 20
-1.145
 11
7.105999999999995
 21
-0.625
  0
LINE
  5
1D2
100
AcDbEntity
  8
0
  6
ByLayer
 62
  256
370
   -1
100
AcDbLine
 10
7.105999999999995
 20
-1.145
 11
7.725999999999994
 21
-1.145
  0
LINE
  5
1D3
100
AcDbEntity
  8
0
  6
ByLayer
 62
  256
370
   -1
100
AcDbLine
 10
7.725999999999994
 20
-1.145
 11
7.725999999999994
 21
-0.625
  0
LINE
  5
1D4
100
AcDbEntity
  8
0
  6
ByLayer
 62
  256
370
   -1
100
AcDbLine
 10
7.725999999999994
 20
-0.625
 11
7.105999999999995
 21
-0.625
  0
LINE
  5
1D5
100
AcDbEntity
  8
0
  6
ByLayer
 62
  256
370
   -1
100
AcDbLine
 10
7.180999999999994
 20
-0.7504999999999999
 11
7.650999999999994
 21
-0.7504999999999999
  0
LINE
  5
1D6
100
AcDbEntity
  8
0
  6
ByLayer
 62
  256
370
   -1
100
AcDbLine
 10
7.180999999999994
 20
-0.7504999999999999
 11
7.180999999999994
 21
-1.0195
  0
LINE
  5
1D7
100
AcDbEntity
  8
0
  6
ByLayer
 62
  256
370
   -1
100
AcDbLine
 10
7.650999999999994
 20
-0.7504999999999999
 11
7.650999999999994
 21
-1.0195
  0
LINE
  5
1D8
100
AcDbEntity
  8
0
  6
ByLayer
 62
  256
370
   -1
100
AcDbLine
 10
7.538999999999994
 20
-1.0195
 11
7.538999999999994
 21
-1.0855
  0
LINE
  5
1D9
100
AcDbEntity
  8
0
  6
ByLayer
 62
  256
370
   -1
100
AcDbLine
 10
7.538999999999994
 20
-1.0195
 11
7.650999999999994
 21
-1.0195
  0
LINE
  5
1DA
100
AcDbEntity
  8
0
  6
ByLayer
 62
  256
370
   -1
100
AcDbLine
 10
7.180999999999994
 20
-1.0195
 11
7.292999999999994
 21
-1.0195
  0
LINE
  5
1DB
100
AcDbEntity
  8
0
  6
ByLayer
 62
  256
370
   -1
100
AcDbLine
 10
7.292999999999994
 20
-1.0195
 11
7.292999999999994
 21
-1.0855
  0
LINE
  5
1DC
100
AcDbEntity
  8
0
  6
ByLayer
 62
  256
370
   -1
100
AcDbLine
 10
7.335999999999995
 20
-1.1385
 11
7.495999999999996
 21
-1.1385
  0
LINE
  5
1DD
100
AcDbEntity
  8
0
  6
ByLayer
 62
  256
370
   -1
100
AcDbLine
 10
7.292999999999994
 20
-1.0855
 11
7.335999999999995
 21
-1.0855
  0
LINE
  5
1DE
100
AcDbEntity
  8
0
  6
ByLayer
 62
  256
370
   -1
100
AcDbLine
 10
7.495999999999996
 20
-1.0855
 11
7.538999999999994
 21
-1.0855
  0
LINE
  5
1DF
100
AcDbEntity
  8
0
  6
ByLayer
 62
  256
370
   -1
100
AcDbLine
 10
7.495999999999996
 20
-1.0855
 11
7.495999999999996
 21
-1.1385
  0
LINE
  5
1E0
100
AcDbEntity
  8
0
  6
ByLayer
 62
  256
370
   -1
100
AcDbLine
 10
7.335999999999995
 20
-1.0855
 11
7.335999999999995
 21
-1.1385
  0
TEXT
  5
1E1
100
AcDbEntity
  8
0
  6
ByLayer
 62
  256
370
   -1
100
AcDbText
 10
7.415999999999994
 20
-0.6877500000000001
 30
0
 40
0.09375
  1
Cat 6
 50
0
 41
1
 51
0
  7
romand
 71
    0
 72
    1
 11
7.415999999999994
 21
-0.6877500000000001
 31
0
210
0
220
0
230
1
100
AcDbText
 73
    2
  0
LINE
  5
1E2
100
AcDbEntity
  8
0
  6
ByLayer
 62
  256
370
   -1
100
AcDbLine
 10
7.725999999999994
 20
-1.145
 11
7.725999999999994
 21
-0.625
  0
LINE
  5
1E3
100
AcDbEntity
  8
0
  6
ByLayer
 62
  256
370
   -1
100
AcDbLine
 10
7.725999999999994
 20
-1.145
 11
8.345999999999998
 21
-1.145
  0
LINE
  5
1E4
100
AcDbEntity
  8
0
  6
ByLayer
 62
  256
370
   -1
100
AcDbLine
 10
8.345999999999998
 20
-0.625
 11
7.725999999999994
 21
-0.625
  0
LINE
  5
1E5
100
AcDbEntity
  8
0
  6
ByLayer
 62
  256
370
   -1
100
AcDbLine
 10
7.800999999999998
 20
-0.7504999999999999
 11
8.270999999999999
 21
-0.7504999999999999
  0
LINE
  5
1E6
100
AcDbEntity
  8
0
  6
ByLayer
 62
  256
370
   -1
100
AcDbLine
 10
7.800999999999998
 20
-0.7504999999999999
 11
7.800999999999998
 21
-1.0195
  0
LINE
  5
1E7
100
AcDbEntity
  8
0
  6
ByLayer
 62
  256
370
   -1
100
AcDbLine
 10
8.270999999999999
 20
-0.7504999999999999
 11
8.270999999999999
 21
-1.0195
  0
LINE
  5
1E8
100
AcDbEntity
  8
0
  6
ByLayer
 62
  256
370
   -1
100
AcDbLine
 10
8.158999999999999
 20
-1.0195
 11
8.158999999999999
 21
-1.0855
  0
LINE
  5
1E9
100
AcDbEntity
  8
0
  6
ByLayer
 62
  256
370
   -1
100
AcDbLine
 10
8.158999999999999
 20
-1.0195
 11
8.270999999999999
 21
-1.0195
  0
LINE
  5
1EA
100
AcDbEntity
  8
0
  6
ByLayer
 62
  256
370
   -1
100
AcDbLine
 10
7.800999999999998
 20
-1.0195
 11
7.912999999999998
 21
-1.0195
  0
LINE
  5
1EB
100
AcDbEntity
  8
0
  6
ByLayer
 62
  256
370
   -1
100
AcDbLine
 10
7.912999999999998
 20
-1.0195
 11
7.912999999999998
 21
-1.0855
  0
LINE
  5
1EC
100
AcDbEntity
  8
0
  6
ByLayer
 62
  256
370
   -1
100
AcDbLine
 10
7.955999999999998
 20
-1.1385
 11
8.115999999999998
 21
-1.1385
  0
LINE
  5
1ED
100
AcDbEntity
  8
0
  6
ByLayer
 62
  256
370
   -1
100
AcDbLine
 10
7.912999999999998
 20
-1.0855
 11
7.955999999999998
 21
-1.0855
  0
LINE
  5
1EE
100
AcDbEntity
  8
0
  6
ByLayer
 62
  256
370
   -1
100
AcDbLine
 10
8.115999999999998
 20
-1.0855
 11
8.158999999999999
 21
-1.0855
  0
LINE
  5
1EF
100
AcDbEntity
  8
0
  6
ByLayer
 62
  256
370
   -1
100
AcDbLine
 10
8.115999999999998
 20
-1.0855
 11
8.115999999999998
 21
-1.1385
  0
LINE
  5
1F0
100
AcDbEntity
  8
0
  6
ByLayer
 62
  256
370
   -1
100
AcDbLine
 10
7.955999999999998
 20
-1.0855
 11
7.955999999999998
 21
-1.1385
  0
TEXT
  5
1F1
100
AcDbEntity
  8
0
  6
ByLayer
 62
  256
370
   -1
100
AcDbText
 10
8.035999999999998
 20
-0.6877500000000001
 30
0
 40
0.09375
  1
Cat 6
 50
0
 41
1
 51
0
  7
romand
 71
    0
 72
    1
 11
8.035999999999998
 21
-0.6877500000000001
 31
0
210
0
220
0
230
1
100
AcDbText
 73
    2
  0
LINE
  5
1F2
100
AcDbEntity
  8
0
  6
ByLayer
 62
  256
370
   -1
100
AcDbLine
 10
8.345999999999998
 20
-1.145
 11
8.345999999999998
 21
-0.625
  0
TEXT
  5
1F3
100
AcDbEntity
  8
0
  6
ByLayer
 62
  256
370
   -1
100
AcDbText
 10
4.702562500000001
 20
0.1529687500000001
 30
0
 40
0.09375
  1
7
 50
0
 41
1
 51
0
  7
romand
 71
    0
 72
    1
 11
4.702562500000001
 21
0.1529687500000001
 31
0
210
0
220
0
230
1
100
AcDbText
 73
    3
  0
TEXT
  5
1F4
100
AcDbEntity
  8
0
  6
ByLayer
 62
  256
370
   -1
100
AcDbText
 10
5.322562500000002
 20
0.1529687500000001
 30
0
 40
0.09375
  1
8
 50
0
 41
1
 51
0
  7
romand
 71
    0
 72
    1
 11
5.322562500000002
 21
0.1529687500000001
 31
0
210
0
220
0
230
1
100
AcDbText
 73
    3
  0
TEXT
  5
1F5
100
AcDbEntity
  8
0
  6
ByLayer
 62
  256
370
   -1
100
AcDbText
 10
5.942562499999994
 20
0.1529687500000001
 30
0
 40
0.09375
  1
9
 50
0
 41
1
 51
0
  7
romand
 71
    0
 72
    1
 11
5.942562499999994
 21
0.1529687500000001
 31
0
210
0
220
0
230
1
100
AcDbText
 73
    3
  0
TEXT
  5
1F6
100
AcDbEntity
  8
0
  6
ByLayer
 62
  256
370
   -1
100
AcDbText
 10
6.562562499999995
 20
0.1529687500000001
 30
0
 40
0.09375
  1
10
 50
0
 41
1
 51
0
  7
romand
 71
    0
 72
    1
 11
6.562562499999995
 21
0.1529687500000001
 31
0
210
0
220
0
230
1
100
AcDbText
 73
    3
  0
TEXT
  5
1F7
100
AcDbEntity
  8
0
  6
ByLayer
 62
  256
370
   -1
100
AcDbText
 10
7.182562499999994
 20
0.1529687500000001
 30
0
 40
0.09375
  1
11
 50
0
 41
1
 51
0
  7
romand
 71
    0
 72
    1
 11
7.182562499999994
 21
0.1529687500000001
 31
0
210
0
220
0
230
1
100
AcDbText
 73
    3
  0
TEXT
  5
1F8
100
AcDbEntity
  8
0
  6
ByLayer
 62
  256
370
   -1
100
AcDbText
 10
7.802562499999999
 20
0.1529687500000001
 30
0
 40
0.09375
  1
12
 50
0
 41
1
 51
0
  7
romand
 71
    0
 72
    1
 11
7.802562499999999
 21
0.1529687500000001
 31
0
210
0
220
0
230
1
100
AcDbText
 73
    3
  0
LINE
  5
1F9
100
AcDbEntity
  8
0
  6
ByLayer
 62
  256
370
   -1
100
AcDbLine
 10
7.725999999999994
 20
-0.625
 11
8.345999999999998
 21
-0.625
  0
TEXT
  5
1FA
100
AcDbEntity
  8
0
  6
ByLayer
 62
  256
370
   -1
100
AcDbText
 10
1.123187500000005
 20
0.0279687500000001
 30
0
 40
0.09375
  1
13
 50
0
 41
1
 51
0
  7
romand
 71
    0
 72
    1
 11
1.123187500000005
 21
0.0279687500000001
 31
0
210
0
220
0
230
1
100
AcDbText
 73
    3
  0
TEXT
  5
1FB
100
AcDbEntity
  8
0
  6
ByLayer
 62
  256
370
   -1
100
AcDbText
 10
1.743187500000003
 20
0.0279687500000001
 30
0
 40
0.09375
  1
14
 50
0
 41
1
 51
0
  7
romand
 71
    0
 72
    1
 11
1.743187500000003
 21
0.0279687500000001
 31
0
210
0
220
0
230
1
100
AcDbText
 73
    3
  0
TEXT
  5
1FC
100
AcDbEntity
  8
0
  6
ByLayer
 62
  256
370
   -1
100
AcDbText
 10
2.363187500000004
 20
0.0279687500000001
 30
0
 40
0.09375
  1
15
 50
0
 41
1
 51
0
  7
romand
 71
    0
 72
    1
 11
2.363187500000004
 21
0.0279687500000001
 31
0
210
0
220
0
230
1
100
AcDbText
 73
    3
  0
TEXT
  5
1FD
100
AcDbEntity
  8
0
  6
ByLayer
 62
  256
370
   -1
100
AcDbText
 10
2.983187500000005
 20
0.0279687500000001
 30
0
 40
0.09375
  1
16
 50
0
 41
1
 51
0
  7
romand
 71
    0
 72
    1
 11
2.983187500000005
 21
0.0279687500000001
 31
0
210
0
220
0
230
1
100
AcDbText
 73
    3
  0
TEXT
  5
1FE
100
AcDbEntity
  8
0
  6
ByLayer
 62
  256
370
   -1
100
AcDbText
 10
3.603187500000002
 20
0.0279687500000001
 30
0
 40
0.09375
  1
17
 50
0
 41
1
 51
0
  7
romand
 71
    0
 72
    1
 11
3.603187500000002
 21
0.0279687500000001
 31
0
210
0
220
0
230
1
100
AcDbText
 73
    3
  0
TEXT
  5
1FF
100
AcDbEntity
  8
0
  6
ByLayer
 62
  256
370
   -1
100
AcDbText
 10
4.223187500000003
 20
0.0279687500000001
 30
0
 40
0.09375
  1
18
 50
0
 41
1
 51
0
  7
romand
 71
    0
 72
    1
 11
4.223187500000003
 21
0.0279687500000001
 31
0
210
0
220
0
230
1
100
AcDbText
 73
    3
  0
TEXT
  5
200
100
AcDbEntity
  8
0
  6
ByLayer
 62
  256
370
   -1
100
AcDbText
 10
5.093187500000001
 20
0.0279687500000001
 30
0
 40
0.09375
  1
19
 50
0
 41
1
 51
0
  7
romand
 71
    0
 72
    1
 11
5.093187500000001
 21
0.0279687500000001
 31
0
210
0
220
0
230
1
100
AcDbText
 73
    3
  0
TEXT
  5
201
100
AcDbEntity
  8
0
  6
ByLayer
 62
  256
370
   -1
100
AcDbText
 10
5.713187500000002
 20
0.0279687500000001
 30
0
 40
0.09375
  1
20
 50
0
 41
1
 51
0
  7
romand
 71
    0
 72
    1
 11
5.713187500000002
 21
0.0279687500000001
 31
0
210
0
220
0
230
1
100
AcDbText
 73
    3
  0
TEXT
  5
202
100
AcDbEntity
  8
0
  6
ByLayer
 62
  256
370
   -1
100
AcDbText
 10
6.333187499999994
 20
0.0279687500000001
 30
0
 40
0.09375
  1
21
 50
0
 41
1
 51
0
  7
romand
 71
    0
 72
    1
 11
6.333187499999994
 21
0.0279687500000001
 31
0
210
0
220
0
230
1
100
AcDbText
 73
    3
  0
TEXT
  5
203
100
AcDbEntity
  8
0
  6
ByLayer
 62
  256
370
   -1
100
AcDbText
 10
6.953187499999995
 20
0.0279687500000001
 30
0
 40
0.09375
  1
22
 50
0
 41
1
 51
0
  7
romand
 71
    0
 72
    1
 11
6.953187499999995
 21
0.0279687500000001
 31
0
210
0
220
0
230
1
100
AcDbText
 73
    3
  0
TEXT
  5
204
100
AcDbEntity
  8
0
  6
ByLayer
 62
  256
370
   -1
100
AcDbText
 10
7.573187499999994
 20
0.0279687500000001
 30
0
 40
0.09375
  1
23
 50
0
 41
1
 51
0
  7
romand
 71
    0
 72
    1
 11
7.573187499999994
 21
0.0279687500000001
 31
0
210
0
220
0
230
1
100
AcDbText
 73
    3
  0
TEXT
  5
205
100
AcDbEntity
  8
0
  6
ByLayer
 62
  256
370
   -1
100
AcDbText
 10
8.193187499999999
 20
0.0279687500000001
 30
0
 40
0.09375
  1
24
 50
0
 41
1
 51
0
  7
romand
 71
    0
 72
    1
 11
8.193187499999999
 21
0.0279687500000001
 31
0
210
0
220
0
230
1
100
AcDbText
 73
    3
  0
LINE
  5
206
100
AcDbEntity
  8
0
  6
ByLayer
 62
  256
370
   -1
100
AcDbLine
 10
17.036
 20
-0.625
 11
17.036
 21
-0.105
  0
LINE
  5
207
100
AcDbEntity
  8
0
  6
ByLayer
 62
  256
370
   -1
100
AcDbLine
 10
17.656
 20
-0.105
 11
17.036
 21
-0.105
  0
LINE
  5
208
100
AcDbEntity
  8
0
  6
ByLayer
 62
  256
370
   -1
100
AcDbLine
 10
17.111
 20
-0.2304999999999999
 11
17.581
 21
-0.2304999999999999
  0
LINE
  5
209
100
AcDbEntity
  8
0
  6
ByLayer
 62
  256
370
   -1
100
AcDbLine
 10
17.111
 20
-0.2304999999999999
 11
17.111
 21
-0.4995000000000001
  0
LINE
  5
20A
100
AcDbEntity
  8
0
  6
ByLayer
 62
  256
370
   -1
100
AcDbLine
 10
17.581
 20
-0.2304999999999999
 11
17.581
 21
-0.4995000000000001
  0
LINE
  5
20B
100
AcDbEntity
  8
0
  6
ByLayer
 62
  256
370
   -1
100
AcDbLine
 10
17.469
 20
-0.4995000000000001
 11
17.469
 21
-0.5654999999999999
  0
LINE
  5
20C
100
AcDbEntity
  8
0
  6
ByLayer
 62
  256
370
   -1
100
AcDbLine
 10
17.469
 20
-0.4995000000000001
 11
17.581
 21
-0.4995000000000001
  0
LINE
  5
20D
100
AcDbEntity
  8
0
  6
ByLayer
 62
  256
370
   -1
100
AcDbLine
 10
17.111
 20
-0.4995000000000001
 11
17.223
 21
-0.4995000000000001
  0
LINE
  5
20E
100
AcDbEntity
  8
0
  6
ByLayer
 62
  256
370
   -1
100
AcDbLine
 10
17.223
 20
-0.4995000000000001
 11
17.223
 21
-0.5654999999999999
  0
LINE
  5
20F
100
AcDbEntity
  8
0
  6
ByLayer
 62
  256
370
   -1
100
AcDbLine
 10
17.223
 20
-0.5654999999999999
 11
17.266
 21
-0.5654999999999999
  0
LINE
  5
210
100
AcDbEntity
  8
0
  6
ByLayer
 62
  256
370
   -1
100
AcDbLine
 10
17.426
 20
-0.5654999999999999
 11
17.469
 21
-0.5654999999999999
  0
LINE
  5
211
100
AcDbEntity
  8
0
  6
ByLayer
 62
  256
370
   -1
100
AcDbLine
 10
17.426
 20
-0.5654999999999999
 11
17.426
 21
-0.6185
  0
LINE
  5
212
100
AcDbEntity
  8
0
  6
ByLayer
 62
  256
370
   -1
100
AcDbLine
 10
17.266
 20
-0.5654999999999999
 11
17.266
 21
-0.6185
  0
TEXT
  5
213
100
AcDbEntity
  8
0
  6
ByLayer
 62
  256
370
   -1
100
AcDbText
 10
17.346
 20
-0.1677500000000001
 30
0
 40
0.09375
  1
Cat 6
 50
0
 41
1
 51
0
  7
romand
 71
    0
 72
    1
 11
17.346
 21
-0.1677500000000001
 31
0
210
0
220
0
230
1
100
AcDbText
 73
    2
  0
LINE
  5
214
100
AcDbEntity
  8
0
  6
ByLayer
 62
  256
370
   -1
100
AcDbLine
 10
17.656
 20
-0.625
 11
17.656
 21
-0.105
  0
LINE
  5
215
100
AcDbEntity
  8
0
  6
ByLayer
 62
  256
370
   -1
100
AcDbLine
 10
17.036
 20
-0.625
 11
17.656
 21
-0.625
  0
LINE
  5
216
100
AcDbEntity
  8
0
  6
ByLayer
 62
  256
370
   -1
100
AcDbLine
 10
16.166
 20
-0.625
 11
16.166
 21
-0.105
  0
LINE
  5
217
100
AcDbEntity
  8
0
  6
ByLayer
 62
  256
370
   -1
100
AcDbLine
 10
16.786
 20
-0.105
 11
16.166
 21
-0.105
  0
LINE
  5
218
100
AcDbEntity
  8
0
  6
ByLayer
 62
  256
370
   -1
100
AcDbLine
 10
16.24099999999999
 20
-0.2304999999999999
 11
16.711
 21
-0.2304999999999999
  0
LINE
  5
219
100
AcDbEntity
  8
0
  6
ByLayer
 62
  256
370
   -1
100
AcDbLine
 10
16.24099999999999
 20
-0.2304999999999999
 11
16.24099999999999
 21
-0.4995000000000001
  0
LINE
  5
21A
100
AcDbEntity
  8
0
  6
ByLayer
 62
  256
370
   -1
100
AcDbLine
 10
16.711
 20
-0.2304999999999999
 11
16.711
 21
-0.4995000000000001
  0
LINE
  5
21B
100
AcDbEntity
  8
0
  6
ByLayer
 62
  256
370
   -1
100
AcDbLine
 10
16.599
 20
-0.4995000000000001
 11
16.599
 21
-0.5654999999999999
  0
LINE
  5
21C
100
AcDbEntity
  8
0
  6
ByLayer
 62
  256
370
   -1
100
AcDbLine
 10
16.599
 20
-0.4995000000000001
 11
16.711
 21
-0.4995000000000001
  0
LINE
  5
21D
100
AcDbEntity
  8
0
  6
ByLayer
 62
  256
370
   -1
100
AcDbLine
 10
16.24099999999999
 20
-0.4995000000000001
 11
16.353
 21
-0.4995000000000001
  0
LINE
  5
21E
100
AcDbEntity
  8
0
  6
ByLayer
 62
  256
370
   -1
100
AcDbLine
 10
16.353
 20
-0.4995000000000001
 11
16.353
 21
-0.5654999999999999
  0
LINE
  5
21F
100
AcDbEntity
  8
0
  6
ByLayer
 62
  256
370
   -1
100
AcDbLine
 10
16.353
 20
-0.5654999999999999
 11
16.39599999999999
 21
-0.5654999999999999
  0
LINE
  5
220
100
AcDbEntity
  8
0
  6
ByLayer
 62
  256
370
   -1
100
AcDbLine
 10
16.556
 20
-0.5654999999999999
 11
16.599
 21
-0.5654999999999999
  0
LINE
  5
221
100
AcDbEntity
  8
0
  6
ByLayer
 62
  256
370
   -1
100
AcDbLine
 10
16.556
 20
-0.5654999999999999
 11
16.556
 21
-0.6185
  0
LINE
  5
222
100
AcDbEntity
  8
0
  6
ByLayer
 62
  256
370
   -1
100
AcDbLine
 10
16.39599999999999
 20
-0.5654999999999999
 11
16.39599999999999
 21
-0.6185
  0
TEXT
  5
223
100
AcDbEntity
  8
0
  6
ByLayer
 62
  256
370
   -1
100
AcDbText
 10
16.476
 20
-0.1677500000000001
 30
0
 40
0.09375
  1
Cat 6
 50
0
 41
1
 51
0
  7
romand
 71
    0
 72
    1
 11
16.476
 21
-0.1677500000000001
 31
0
210
0
220
0
230
1
100
AcDbText
 73
    2
  0
LINE
  5
224
100
AcDbEntity
  8
0
  6
ByLayer
 62
  256
370
   -1
100
AcDbLine
 10
16.786
 20
-0.625
 11
16.786
 21
-0.105
  0
LINE
  5
225
100
AcDbEntity
  8
0
  6
ByLayer
 62
  256
370
   -1
100
AcDbLine
 10
16.786
 20
-0.625
 11
16.166
 21
-0.625
  0
ENDSEC
  0
SECTION
  2
OBJECTS
  0
DICTIONARY
  5
C
330
0
100
AcDbDictionary
281
    1
  3
ACAD_GROUP
350
D
  0
DICTIONARY
  5
D
330
C
100
AcDbDictionary
281
    1
  0
PLOTSETTINGS
  5
226
  6
1x1
 40
0
 41
0
 42
0
 43
0
  0
ENDSEC
  0
EOF
